<?xml version="1.0" standalone="no"?>
<!DOCTYPE svg PUBLIC "-//W3C//DTD SVG 1.1//EN" "http://www.w3.org/Graphics/SVG/1.1/DTD/svg11.dtd" >
<svg xmlns="http://www.w3.org/2000/svg">
<metadata></metadata>
<defs>
<font id="capitaextralbold" horiz-adv-x="882" >
<font-face units-per-em="2048" ascent="1485" descent="-563" />
<missing-glyph horiz-adv-x="448" />
<glyph unicode="ff" horiz-adv-x="1466" d="M14 707v180q64 12 103 39q25 19 35 45.5t16 81.5q17 128 51.5 195.5t106.5 123.5q110 86 282 86q112 0 170 -22q99 -37 99 -138q0 -95 -19 -221h-172q-6 82 -14 101q-15 30 -66 30q-22 0 -38 -7t-26 -23.5t-16 -32.5t-8.5 -44.5t-3 -48.5t-0.5 -55v-84h205q101 0 127 23 q37 23 49 117q17 136 56 216.5t114 137.5q57 42 139 66t154 24q115 0 186 -24q48 -18 71 -50t23 -88q0 -100 -14 -219h-199q-3 70 -17.5 100.5t-61.5 30.5q-29 0 -49 -10.5t-31 -26.5t-16.5 -46t-7 -56.5t-1.5 -71.5v-114q132 0 232 -4v-205q-138 -6 -232 -6v-342 q0 -71 5.5 -100.5t19.5 -47.5q23 -26 166 -33v-186q-184 4 -340 4q-132 0 -324 -4v186q61 6 83.5 13t33.5 22q16 16 16 105v383h-387v-342q0 -68 5.5 -96.5t19.5 -47.5q9 -10 19 -16t44.5 -12.5t91.5 -8.5v-186q-180 4 -327 4q-146 0 -334 -4v186q40 4 59 6t38.5 9t25.5 13 t11.5 24.5t6 35t0.5 52.5v383h-160z" />
<glyph unicode="fi" horiz-adv-x="1355" d="M14 707v180q64 12 103 39q25 20 35.5 47t15.5 80q10 87 42 157t72 113t95 82q64 42 170.5 67t220.5 25q60 0 136 -9t124 -26q48 -15 71 -46t23 -87q0 -39 -4.5 -119t-9.5 -120h-215q-4 29 -6.5 43t-7 33.5t-10 28t-15 19t-22.5 14t-31 6.5t-43 3q-129 0 -186.5 -49 t-57.5 -170v-96h297q143 45 233 45q71 0 111.5 -34.5t40.5 -129.5q0 -62 -3 -225t-3 -248q0 -94 18 -115q25 -22 125 -31v-186q-180 4 -301 4q-207 0 -301 -4v186q74 9 98 33q19 19 19 111v260q0 28 -3 47t-12 32.5t-18.5 20.5t-30.5 11t-40.5 5t-53.5 1h-176v-340 q0 -112 25 -148q12 -14 34 -21.5t84 -11.5v-186q-180 4 -290 4q-146 0 -334 -4v186q40 4 59 6t38.5 9t25.5 13t11.5 24.5t6 35t0.5 52.5v383h-160z" />
<glyph unicode="fl" horiz-adv-x="1382" d="M14 707v180q64 12 103 39q25 20 35.5 47t15.5 80q11 131 56 212t126 138q62 44 150.5 69t175.5 25q140 0 225 -33q88 33 184 33q69 0 104.5 -44t35.5 -124q0 -62 -2 -185.5t-2 -176.5v-637q0 -95 24 -119q17 -17 117 -27v-186q-180 4 -297 4q-225 0 -317 -4v186 q55 6 76 12.5t36 20.5q19 22 19 109v530q0 129 -5 246q-3 80 -43 106q-38 27 -129 27q-36 0 -76.5 -11.5t-62.5 -31.5q-49 -46 -49 -162v-108q126 0 242 -7v-204q-135 -6 -242 -6v-340q0 -112 25 -148q22 -28 135 -33v-186q-180 4 -307 4q-146 0 -334 -4v186q40 4 59 6 t38.5 9t25.5 13t11.5 24.5t6 35t0.5 52.5v383h-160z" />
<glyph unicode="ffi" horiz-adv-x="2082" d="M14 707v180q64 12 103 39q25 19 35 45.5t16 81.5q17 128 51.5 195.5t106.5 123.5q110 86 282 86q101 0 170 -22q99 -37 99 -138q0 -95 -19 -221h-172q-6 82 -14 101q-15 30 -66 30q-22 0 -38 -7t-26 -23.5t-16 -32.5t-8.5 -44.5t-3 -48.5t-0.5 -55v-84h205q101 0 127 23 q37 23 49 117q16 127 70 210.5t139 141.5q64 42 170 67t219 25q165 0 260 -35q50 -15 73 -46t23 -87q0 -98 -16 -239h-215q-4 37 -7.5 57.5t-11.5 40.5t-22 29t-36 14.5t-56 5.5q-130 0 -187 -49t-57 -170v-96h295q143 45 236 45q70 0 109.5 -34t39.5 -130q0 -62 -3 -225 t-3 -248q0 -95 20 -115q22 -22 125 -31v-186q-180 4 -303 4q-201 0 -293 -4v186q45 4 62.5 10t32.5 19q16 16 16 115v260q0 28 -3 47t-11.5 32t-19 20.5t-31 11.5t-40.5 5t-55 1h-174v-340q0 -71 5.5 -100.5t19.5 -47.5q12 -14 38 -21.5t93 -11.5v-186q-180 4 -305 4 q-134 0 -326 -4v186q61 6 84.5 13.5t34.5 21.5q16 16 16 105v383h-387v-342q0 -112 25 -148q12 -14 41.5 -21.5t113.5 -11.5v-186q-180 4 -327 4q-146 0 -334 -4v186q40 4 59 6t38.5 9t25.5 13t11.5 24.5t6 35t0.5 52.5v383h-160z" />
<glyph unicode="ffl" horiz-adv-x="2107" d="M14 707v180q64 12 103 39q13 10 21.5 21t14 27.5t9 33.5t6.5 45q17 128 51.5 195.5t106.5 123.5q110 86 282 86q101 0 170 -22q47 -18 73 -53t26 -85q0 -38 -6.5 -108t-12.5 -113h-172q0 4 -1 13q-1 23 -2 33t-3.5 26t-5.5 22.5t-8.5 15.5t-13.5 12.5t-19.5 6t-26.5 2.5 q-22 0 -38 -7t-26 -23.5t-16 -32.5t-8.5 -44.5t-3 -48.5t-0.5 -55v-84h205q101 0 127 23q21 13 32 40.5t17 76.5q14 131 58.5 211t123.5 139q63 44 150.5 69t175.5 25q141 0 223 -33q90 33 186 33q69 0 103.5 -44t34.5 -124q0 -62 -1 -194t-1 -185v-620q0 -26 0.5 -43.5 t4 -33t5.5 -24.5t11.5 -16.5t15.5 -11t22.5 -7t28 -5t37.5 -4.5q9 0 14 -1v-186q-180 4 -297 4q-213 0 -305 -4v186q49 6 67.5 12.5t32.5 20.5q21 21 21 109v530q0 152 -4 246q-3 78 -42.5 105.5t-132.5 27.5q-36 0 -76 -11.5t-63 -31.5q-47 -44 -47 -162v-108q123 0 242 -7 v-202q-135 -6 -242 -6v-342q0 -71 5.5 -100.5t19.5 -47.5q9 -10 18 -15t41 -10t90 -8v-186q-180 4 -323 4q-134 0 -326 -4v186q61 6 84.5 13.5t34.5 21.5q16 16 16 105v383h-387v-342q0 -112 25 -148q12 -14 42 -21.5t115 -11.5v-186q-180 4 -329 4q-146 0 -334 -4v186 q40 4 59 6t38.5 9t25.5 13t11.5 24.5t6 35t0.5 52.5v383h-160z" />
<glyph unicode="&#x17f;t" horiz-adv-x="1458" d="M14 707v180q64 12 103 39q25 20 35.5 47t15.5 80q11 127 61.5 207.5t137.5 142.5q61 42 161.5 68t208.5 26q113 0 196 -20.5t131.5 -53t77.5 -83.5t38.5 -102t9.5 -118q0 -89 -16 -198q115 0 229 -7v-204q-156 -4 -229 -4v-209v-37q-1 -31 0 -60t3 -54.5t9 -47 t18.5 -36.5t31 -23.5t46.5 -8.5q73 0 129 13l39 -203q-60 -33 -158 -49.5t-188 -16.5q-277 0 -277 289q0 78 9 443h-162v180q57 10 112 35q41 21 67 63.5t26 95.5q0 166 -168 166q-91 0 -136 -45q-61 -61 -61 -182v-655q0 -112 25 -148q25 -28 143 -33v-184q-180 4 -315 4 q-146 0 -334 -4v184q40 4 59 6t38.5 9t25.5 13t11.5 24.5t6 35t0.5 52.5v383h-160z" />
<glyph unicode="Th" horiz-adv-x="2519" d="M59 1235q0 68 34 108.5t108 40.5h1177q74 51 131 77t113 26q131 0 131 -166q0 -138 -4 -490q60 67 153.5 106.5t176.5 39.5q129 0 198 -66q39 -36 56.5 -101t17.5 -173v-309q0 -83 10 -103q8 -15 34.5 -23.5t98.5 -17.5v-186q-172 4 -280 4q-119 0 -299 -4v186 q62 10 80 31q16 16 16 117v213q0 94 -22.5 127t-98.5 33q-54 0 -139 -27v-348q0 -91 14 -115t78 -31v-186q-180 4 -250 4q-231 0 -323 -4v186q65 7 88.5 13.5t36.5 19.5q14 17 14 109v587q0 91 -10 131t-39 60q-31 20 -110.5 24.5t-340.5 4.5v-773q0 -115 17 -135 q16 -16 49 -24.5t127 -12.5v-190q-180 4 -375 4q-197 0 -381 -4v190q94 3 127.5 10.5t48.5 22.5q17 20 17 129v783q-186 0 -232 -25q-26 -17 -43.5 -62t-25.5 -157h-166q-13 191 -13 346z" />
<glyph unicode="&#x164;h" horiz-adv-x="2519" d="M59 1235q0 68 34 108.5t108 40.5h1177q74 51 131 77t113 26q131 0 131 -166q0 -138 -4 -490q60 67 153.5 106.5t176.5 39.5q129 0 198 -66q39 -36 56.5 -101t17.5 -173v-309q0 -83 10 -103q8 -15 34.5 -23.5t98.5 -17.5v-186q-172 4 -280 4q-119 0 -299 -4v186 q62 10 80 31q16 16 16 117v213q0 94 -22.5 127t-98.5 33q-54 0 -139 -27v-348q0 -91 14 -115t78 -31v-186q-180 4 -250 4q-231 0 -323 -4v186q65 7 88.5 13.5t36.5 19.5q14 17 14 109v587q0 91 -10 131t-39 60q-31 20 -110.5 24.5t-340.5 4.5v-773q0 -115 17 -135 q16 -16 49 -24.5t127 -12.5v-190q-180 4 -375 4q-197 0 -381 -4v190q94 3 127.5 10.5t48.5 22.5q17 20 17 129v783q-186 0 -232 -25q-26 -17 -43.5 -62t-25.5 -157h-166q-13 191 -13 346zM381 1792l84 80l266 -172l268 172l78 -78l-248 -272q-51 -58 -102 -58q-53 0 -102 56 z" />
<glyph unicode="fb" horiz-adv-x="1953" d="M14 707v180q64 12 103 39q25 20 35.5 47t15.5 80q11 129 56 209.5t126 140.5q64 44 151.5 69t174.5 25q123 0 205 -33q90 33 184 33q71 0 105 -40.5t34 -127.5q0 -293 -2 -467q145 123 322 123q99 0 172 -35.5t115.5 -101t62.5 -149t20 -187.5q0 -115 -36 -210.5 t-105 -166t-177.5 -110t-246.5 -39.5q-111 0 -257 18.5t-214 48.5q4 98 4 266v766q0 95 -33.5 122.5t-126.5 27.5q-36 0 -76.5 -11.5t-62.5 -31.5q-49 -46 -49 -162v-108q126 0 242 -7v-204q-135 -6 -242 -6v-340q0 -112 25 -148q21 -27 151 -33v-186q-184 4 -323 4 q-146 0 -334 -4v186q40 4 59 6t38.5 9t25.5 13t11.5 24.5t6 35t0.5 52.5v383h-160zM1200 262q75 -14 137 -14q94 0 142.5 65.5t48.5 165.5q0 125 -44 187.5t-124 62.5q-86 0 -160 -39v-428z" />
<glyph unicode="ffb" horiz-adv-x="2680" d="M14 707v180q64 12 103 39q25 19 35 45.5t16 81.5q17 128 51.5 195.5t106.5 123.5q110 86 282 86q101 0 170 -22q99 -37 99 -138q0 -95 -19 -221h-172q-6 82 -14 101q-15 30 -66 30q-22 0 -38 -7t-26 -23.5t-16 -32.5t-8.5 -44.5t-3 -48.5t-0.5 -55v-84h205q101 0 127 23 q37 23 49 117q14 131 58.5 211t123.5 139q63 44 150.5 69t175.5 25q120 0 205 -33q88 33 182 33q71 0 106 -40.5t35 -127.5q0 -293 -2 -467q141 123 320 123q100 0 173 -35.5t115 -101t62 -149t20 -187.5q0 -115 -35.5 -210.5t-104 -166t-177 -110t-246.5 -39.5 q-112 0 -258 18.5t-215 48.5q4 98 4 266v766q0 95 -33 122.5t-127 27.5q-36 0 -76 -11.5t-63 -31.5q-47 -44 -47 -162v-108q123 0 242 -7v-204q-135 -6 -242 -6v-340q0 -71 5.5 -100.5t19.5 -47.5q23 -26 166 -33v-186q-184 4 -340 4q-132 0 -324 -4v186q61 6 83.5 13 t33.5 22q16 16 16 105v383h-387v-342q0 -112 25 -148q23 -26 153 -33v-186q-180 4 -325 4q-146 0 -334 -4v186q40 4 59 6t38.5 9t25.5 13t11.5 24.5t6 35t0.5 52.5v383h-160zM1925 262q79 -14 139 -14q93 0 141 65.5t48 165.5q0 125 -43.5 187.5t-124.5 62.5q-83 0 -160 -39 v-428z" />
<glyph unicode="ffh" horiz-adv-x="2715" d="M14 707v180q64 12 103 39q25 19 35 45.5t16 81.5q17 128 51.5 195.5t106.5 123.5q110 86 282 86q112 0 170 -22q46 -17 72.5 -55t26.5 -89q0 -89 -19 -215h-172q-6 82 -14 101q-15 30 -66 30q-22 0 -38 -7t-26 -23.5t-16 -32.5t-8.5 -44.5t-3 -48.5t-0.5 -55v-84h205 q101 0 127 23q40 25 49 117q11 130 56 210t126 140q63 44 150.5 69t175.5 25q141 0 223 -33q90 33 186 33q69 0 103.5 -44t34.5 -124q0 -79 -2 -244.5t-2 -253.5q61 68 153 107t176 39q130 0 199 -66q39 -36 55.5 -100.5t16.5 -173.5v-309q0 -79 12 -103q8 -15 34.5 -23.5 t98.5 -17.5v-186q-172 4 -281 4q-116 0 -296 -4v186q63 12 79 31q15 15 15 117v213q0 96 -21.5 128t-97.5 32q-55 0 -141 -27v-348q0 -66 3 -90.5t15 -34.5q16 -14 74 -21v-186q-184 4 -250 4q-217 0 -311 -4v186q58 7 78.5 13.5t31.5 19.5q17 17 17 109v696q0 156 -47 186 q-42 27 -132 27q-99 0 -142.5 -49t-43.5 -156v-108q123 0 242 -7v-204q-135 -6 -242 -6v-340q0 -71 5.5 -100.5t19.5 -47.5q12 -14 38.5 -21.5t102.5 -11.5v-186q-180 4 -315 4q-130 0 -322 -4v186q35 4 54.5 6.5t36 10t23.5 14t11.5 25t5 34t0.5 50.5v383h-387v-342 q0 -112 25 -148q12 -13 43.5 -21t111.5 -12v-186q-180 4 -327 4q-146 0 -334 -4v186q40 4 59 6t38.5 9t25.5 13t11.5 24.5t6 35t0.5 52.5v383h-160z" />
<glyph unicode="ffj" horiz-adv-x="2050" d="M14 707v180q64 12 103 39q25 19 35 45.5t16 81.5q17 128 51.5 195.5t106.5 123.5q110 86 282 86q103 0 170 -22q46 -15 72.5 -51.5t26.5 -86.5q0 -38 -6.5 -108t-12.5 -113h-172q0 4 -1 13q-1 23 -2 33t-3.5 26t-5.5 22.5t-8.5 15.5t-13.5 12.5t-19.5 6t-26.5 2.5 q-22 0 -38 -7t-26 -23.5t-16 -32.5t-8.5 -44.5t-3 -48.5t-0.5 -55v-84h205q101 0 127 23q21 13 32 40.5t17 76.5q11 88 42.5 157.5t71 113t95.5 81.5q65 43 163 67.5t210 24.5q36 0 81 -4t95 -12.5t84 -20.5q49 -15 71.5 -45.5t22.5 -85.5q0 -39 -4.5 -119t-9.5 -120h-215 q-5 36 -10 57t-14 40.5t-24 29t-37.5 15t-56.5 5.5q-100 0 -153 -43q-66 -56 -66 -176v-96h279q143 45 233 45q70 0 110 -34.5t40 -129.5q0 -62 -1 -346t-1 -369q0 -143 -17.5 -232.5t-71.5 -168.5q-117 -167 -376 -250l-78 155q53 32 97 76t63 82q22 51 31.5 125t9.5 213 v500q0 41 -7 64.5t-29 35t-47.5 14.5t-76.5 3h-158v-340q0 -71 5.5 -100.5t19.5 -47.5q23 -26 166 -33v-186q-184 4 -340 4q-132 0 -324 -4v186q61 6 83.5 13t33.5 22q16 16 16 105v383h-387v-342q0 -112 25 -148q12 -14 41.5 -21.5t113.5 -11.5v-186q-180 4 -327 4 q-146 0 -334 -4v186q40 4 59 6t38.5 9t25.5 13t11.5 24.5t6 35t0.5 52.5v383h-160z" />
<glyph unicode="ffk" horiz-adv-x="2721" d="M14 707v180q64 12 103 39q13 10 21.5 21t14 27.5t9 33.5t6.5 45q17 128 51.5 195.5t106.5 123.5q110 86 282 86q31 0 43.5 -0.5t38 -2t46 -6.5t42.5 -13q46 -18 72.5 -53.5t26.5 -84.5q0 -38 -6.5 -108t-12.5 -113h-172q0 4 -1 13q-1 23 -2 33t-3.5 26t-5.5 22.5 t-8.5 15.5t-13.5 12.5t-19.5 6t-26.5 2.5q-22 0 -38 -7t-26 -23.5t-16 -32.5t-8.5 -44.5t-3 -48.5t-0.5 -55v-84h205q101 0 127 23q21 13 32 40.5t17 76.5q14 131 58.5 211t123.5 139q63 44 150.5 69t175.5 25q141 0 223 -33q90 33 186 33q138 0 138 -168q0 -62 -1 -160 t-1 -137v-702q0 -26 0.5 -43.5t4 -33t5.5 -24.5t11.5 -16.5t15.5 -11t22.5 -7t28 -5t37.5 -4.5q9 0 14 -1v-186q-180 4 -297 4q-215 0 -307 -4v186q56 7 75.5 13.5t30.5 19.5q17 17 17 109v696q0 156 -47 186q-42 27 -132 27q-99 0 -142.5 -49t-43.5 -156v-108q123 0 242 -7 v-204q-180 -4 -242 -4v-342q0 -74 5 -103.5t20 -44.5q26 -26 143 -33v-186q-180 4 -317 4q-132 0 -324 -4v186q61 6 83.5 13t33.5 22q16 16 16 105v383h-387v-342q0 -112 25 -148q23 -26 155 -33v-186q-180 4 -327 4q-146 0 -334 -4v186q40 4 59 6t38.5 9t25.5 13t11.5 24.5 t6 35t0.5 52.5v383h-160zM1960 475q77 64 127 109q113 97 113 145q0 15 -7 23.5t-32.5 14.5t-73.5 7v180q230 -4 299 -4q78 0 274 4v-182q-50 0 -88 -14q-50 -15 -143 -96q-21 -18 -70.5 -63t-62.5 -56q76 -110 155 -207q19 -21 55 -56t56 -47q23 -16 63 -29t82 -16v-186 q-79 -6 -161 -6q-200 0 -285 76q-52 45 -113 124t-99 137t-89 142z" />
<glyph unicode="fft" horiz-adv-x="2236" d="M14 707v180q64 12 103 39q25 19 35 45.5t16 81.5q17 127 52 194.5t106 124.5q107 86 282 86q110 0 170 -22q45 -15 72 -51.5t27 -86.5q0 -95 -19 -221h-172q-6 82 -14 101q-15 30 -66 30q-22 0 -38 -7t-26 -23.5t-16 -32.5t-8.5 -44.5t-3 -48.5t-0.5 -55v-84h205 q101 0 127 23q42 26 51 117q14 132 57.5 216.5t120.5 143.5q55 41 137.5 62.5t157.5 21.5q104 0 186 -27q97 -29 97 -141q0 -97 -21 -213h-194q-2 46 -6.5 71t-21.5 42.5t-48 17.5q-37 0 -61.5 -15.5t-36.5 -46.5t-16.5 -65t-4.5 -84v-118h150q34 0 47.5 0.5t45 2t48.5 5.5 t39.5 11.5t36.5 20t22 29.5q29 59 49 133q14 51 51 81t91 30q65 0 98 -28.5t33 -96.5v-184q115 0 229 -7v-204q-156 -4 -233 -4v-209q0 -130 3 -157q12 -91 75 -107q14 -3 32 -3q73 0 129 13l39 -203q-60 -33 -159 -49.5t-189 -16.5q-274 0 -274 289q0 84 3 244.5t3 198.5 h-371v-342q0 -71 5.5 -100.5t19.5 -47.5q23 -26 166 -33v-186q-184 4 -340 4q-132 0 -324 -4v186q36 4 55.5 6.5t36.5 10t23.5 14t11.5 24.5t5.5 34.5t0.5 50.5v383h-387v-342q0 -112 25 -148q12 -14 43 -21.5t112 -11.5v-186q-180 4 -327 4q-146 0 -334 -4v186q40 4 59 6 t38.5 9t25.5 13t11.5 24.5t6 35t0.5 52.5v383h-160z" />
<glyph unicode="fh" horiz-adv-x="1988" d="M14 707v180q64 12 103 39q25 20 35.5 47t15.5 80q11 131 56 212t126 138q62 44 150.5 69t175.5 25q140 0 225 -33q88 33 184 33q69 0 104.5 -44t35.5 -124q0 -79 -3 -244t-3 -254q60 68 153.5 107t175.5 39q130 0 199 -66q39 -36 56.5 -101t17.5 -173v-309q0 -83 10 -103 q8 -15 34.5 -23.5t98.5 -17.5v-186q-172 4 -278 4q-120 0 -300 -4v186q64 13 80 31q15 15 15 117v213q0 96 -21.5 128t-97.5 32q-56 0 -141 -27v-348q0 -66 3 -90.5t15 -34.5q16 -14 74 -21v-186q-180 4 -248 4q-225 0 -317 -4v186q63 7 83 13.5t33 19.5q15 18 15 109v696 q0 157 -48 186q-42 27 -129 27q-100 0 -144 -49.5t-44 -155.5v-108q126 0 242 -7v-204q-135 -6 -242 -6v-340q0 -112 25 -148q12 -15 38 -22.5t91 -10.5v-186q-180 4 -301 4q-146 0 -334 -4v186q40 4 59 6t38.5 9t25.5 13t11.5 24.5t6 35t0.5 52.5v383h-160z" />
<glyph unicode="fj" horiz-adv-x="1320" d="M14 707v180q64 12 103 39q25 20 35.5 47t15.5 80q24 223 209 352q65 43 164 67.5t209 24.5q59 0 135 -10t125 -27q51 -15 73.5 -45t22.5 -86q0 -98 -16 -239h-216q-4 44 -10.5 68.5t-21.5 44t-40.5 27t-66.5 7.5q-99 0 -155 -43q-66 -56 -66 -176v-96h279q143 45 235 45 q69 0 106 -34t37 -130q0 -62 1.5 -346t1.5 -369q0 -143 -17.5 -232.5t-71.5 -168.5q-117 -167 -376 -250l-78 155q54 32 98.5 76t61.5 82q23 49 31.5 121.5t8.5 216.5v500q0 79 -30 98t-129 19h-158v-340q0 -112 25 -148q9 -10 17.5 -15t36.5 -10t77 -8v-186q-180 4 -303 4 q-146 0 -334 -4v186q40 4 59 6t38.5 9t25.5 13t11.5 24.5t6 35t0.5 52.5v383h-160z" />
<glyph unicode="fk" horiz-adv-x="1994" d="M14 707v180q64 12 103 39q25 20 35.5 47t15.5 80q11 130 56.5 211t125.5 139q63 45 150.5 69.5t175.5 24.5q140 0 225 -33q88 33 184 33q140 0 140 -168q0 -62 -2 -160t-2 -137v-702q0 -95 24 -119q17 -17 117 -27v-186q-180 4 -297 4q-228 0 -320 -4v186q64 7 85 13.5 t34 19.5q15 18 15 109v696q0 157 -48 186q-42 27 -129 27q-100 0 -144 -49.5t-44 -155.5v-108q126 0 242 -7v-204q-135 -6 -242 -6v-340q0 -112 25 -148q22 -28 133 -33v-186q-180 4 -305 4q-146 0 -334 -4v186q40 4 59 6t38.5 9t25.5 13t11.5 24.5t6 35t0.5 52.5v383h-160z M1235 475q77 64 127 109q113 97 113 145q0 22 -22 33t-91 12v180q230 -4 297 -4q76 0 276 4v-182q-52 0 -88 -14q-53 -16 -145 -96q-25 -22 -74 -67t-57 -52q72 -108 155 -207q14 -18 52 -54t57 -49q57 -39 147 -45v-186q-80 -6 -161 -6q-199 0 -287 76q-52 45 -113.5 125 t-97 135t-88.5 143z" />
<glyph unicode="ft" horiz-adv-x="1509" d="M14 707v180q64 12 103 39q25 20 35.5 47t15.5 80q11 130 55.5 215t122.5 145q55 41 137.5 62.5t157.5 21.5q104 0 186 -27q97 -29 97 -141q0 -97 -21 -213h-194q-2 46 -6.5 71t-21.5 42.5t-48 17.5q-37 0 -61.5 -15.5t-36.5 -46.5t-16.5 -65t-4.5 -84v-118h150 q75 0 135 8q82 17 104 61q29 59 49 133q14 51 51 81t91 30q65 0 98 -28.5t33 -96.5v-184q115 0 229 -7v-204q-156 -4 -229 -4v-209v-37q-1 -31 0 -60t3 -54.5t9 -47t18.5 -36.5t31 -23.5t46.5 -8.5q73 0 129 13l39 -203q-60 -33 -158.5 -49.5t-187.5 -16.5q-276 0 -276 289 q0 84 3 244.5t3 198.5h-371v-342q0 -112 25 -148q23 -26 166 -33v-186q-180 4 -338 4q-146 0 -334 -4v186q40 4 59 6t38.5 9t25.5 13t11.5 24.5t6 35t0.5 52.5v383h-160z" />
<glyph unicode="&#x17f;b" horiz-adv-x="1927" d="M14 707v180q64 12 103 39q25 20 35.5 47t15.5 80q11 130 56.5 213t125.5 139q64 44 150 68t168 24q115 0 184 -35q96 35 184 35q69 0 104.5 -44t35.5 -124q0 -293 -2 -467q145 123 321 123q100 0 173 -35.5t115.5 -101t62.5 -149t20 -187.5q0 -236 -145 -381t-418 -145 q-111 0 -258 18.5t-216 48.5q5 122 5 266v750q0 84 -30.5 125t-103.5 41q-81 0 -129 -45q-57 -54 -57 -178v-647q0 -72 6 -102.5t21 -45.5q12 -12 60.5 -21.5t94.5 -11.5v-186q-180 4 -329 4q-146 0 -334 -4v186q40 4 59 6t38.5 9t25.5 13t11.5 24.5t6 35t0.5 52.5v383h-160 zM1174 262q75 -14 137 -14q93 0 140.5 65t47.5 166q0 125 -43.5 187.5t-124.5 62.5q-83 0 -157 -39v-428z" />
<glyph unicode="&#x17f;h" horiz-adv-x="1957" d="M14 707v180q64 12 103 39q25 20 35.5 47t15.5 80q11 130 56.5 213t125.5 139q63 44 153 68t173 24q104 0 194 -35q96 35 185 35q69 0 104 -44t35 -124q0 -198 -4 -498q60 67 153.5 106.5t176.5 39.5q129 0 198 -66q39 -36 56.5 -101t17.5 -173v-309q0 -83 10 -103 q8 -15 34.5 -23.5t98.5 -17.5v-186q-172 4 -278 4q-119 0 -299 -4v186q64 13 80 31q14 14 14 117v213q0 96 -21.5 128t-97.5 32q-55 0 -141 -27v-348q0 -66 3 -90.5t15 -34.5q16 -14 74 -21v-186q-180 4 -250 4q-215 0 -307 -4v186q52 5 72.5 13t34.5 22q16 19 16 107v749 q0 88 -33.5 124t-114.5 36q-188 0 -188 -223v-647q0 -112 25 -148q23 -30 114 -33v-186q-180 4 -286 4q-146 0 -334 -4v186q40 4 59 6t38.5 9t25.5 13t11.5 24.5t6 35t0.5 52.5v383h-160z" />
<glyph unicode="&#x17f;i" horiz-adv-x="1355" d="M14 707v180q64 12 103 39q25 20 35.5 47t15.5 80q25 229 209 352q66 42 172 67t219 25q162 0 260 -35q48 -15 71 -46t23 -87q0 -115 -14 -239h-215q-5 83 -35.5 115t-109.5 32q-112 0 -168 -43q-66 -54 -66 -176v-653q0 -112 25 -148q25 -29 114 -33v-186q-180 4 -286 4 q-146 0 -334 -4v186q40 4 59 6t38.5 9t25.5 13t11.5 24.5t6 35t0.5 52.5v383h-160zM707 711v184q166 80 337 80q152 0 152 -172q0 -62 -4 -225t-4 -248q0 -92 20 -115q22 -22 125 -31v-186q-180 4 -301 4q-215 0 -307 -4v186q78 5 106 33q17 17 17 111v250q0 105 -31 122 q-21 13 -63 13q-31 0 -47 -2z" />
<glyph unicode="&#x17f;j" horiz-adv-x="1325" d="M14 707v180q64 12 103 39q25 20 35.5 47t15.5 80q25 229 209 352q66 43 160.5 67.5t193.5 24.5q180 0 266 -29q95 -30 95 -139q0 -106 -15 -239h-215q-6 87 -34.5 117t-110.5 30q-98 0 -150.5 -56t-52.5 -163v-653q0 -112 25 -148q25 -29 114 -33v-186q-180 4 -286 4 q-146 0 -334 -4v186q40 4 59 6t38.5 9t25.5 13t11.5 24.5t6 35t0.5 52.5v383h-160zM637 -408q52 31 95.5 74t64.5 82q41 81 41 340v490q0 89 -17 112t-78 23q-29 0 -47 -2v184q171 80 338 80q67 0 105.5 -38t38.5 -134q0 -62 1 -355t1 -378q0 -143 -17 -226.5t-71 -158.5 q-59 -81 -165 -148t-212 -100z" />
<glyph unicode="&#x17f;k" horiz-adv-x="1966" d="M14 707v180q64 12 103 39q25 20 35.5 47t15.5 80q11 130 56.5 213t125.5 139q42 29 100 50.5t115.5 31.5t110.5 10q104 0 194 -35q96 35 185 35q69 0 104 -44t35 -124q0 -62 -1 -160t-1 -137v-702q0 -26 0.5 -44t4 -33t6 -24t12 -17t15.5 -11.5t23 -7t28.5 -4.5t38.5 -4 q8 -1 13 -1v-186q-184 4 -299 4q-215 0 -307 -4v186q37 4 59.5 10t30 11.5t17.5 15.5q16 19 16 105v749q0 88 -33.5 124t-114.5 36q-188 0 -188 -223v-647q0 -112 25 -148q23 -30 114 -33v-186q-180 4 -286 4q-146 0 -334 -4v186q40 4 59 6t38.5 9t25.5 13t11.5 24.5t6 35 t0.5 52.5v383h-160zM1206 475q77 64 127 109q111 100 111 145q0 15 -7 23.5t-32 14.5t-72 7v180q226 -4 297 -4q79 0 275 4v-182q-49 0 -88 -14q-54 -17 -144 -96q-25 -22 -74 -67t-57 -52q66 -98 154 -207q11 -13 30.5 -33t43 -41t36.5 -29q23 -16 64 -29t84 -16v-186 q-82 -6 -162 -6q-202 0 -287 76q-124 108 -299 403z" />
<glyph unicode="&#x17f;l" horiz-adv-x="1353" d="M14 707v180q64 12 103 39q25 20 35.5 47t15.5 80q11 130 56.5 213t125.5 139q63 44 153 68t173 24q104 0 194 -35q96 35 185 35q69 0 104 -44t35 -124q0 -62 -2 -185.5t-2 -176.5v-637q0 -95 24 -119q17 -17 117 -27v-186q-180 4 -297 4q-213 0 -305 -4v186 q34 3 54.5 8.5t27 9.5t18.5 15q19 22 19 109v530q0 152 -4 246q-3 76 -43 108q-35 25 -99 25q-86 0 -131 -45q-26 -25 -41.5 -73t-15.5 -105v-647q0 -112 25 -148q23 -30 116 -33v-186q-180 4 -288 4q-146 0 -334 -4v186q40 4 59 6t38.5 9t25.5 13t11.5 24.5t6 35t0.5 52.5 v383h-160z" />
<glyph unicode="&#x17f;&#x17f;" horiz-adv-x="1417" d="M14 707v180q64 12 103 39q25 20 35 44t16 77q9 67 20 114t29 85t41 65.5t59 56.5q54 43 129.5 65.5t147.5 22.5q48 0 84 -2.5t76 -12t65.5 -25.5t42.5 -45.5t17 -70.5q0 -40 -9 -111t-20 -114h-182v9q-1 22 -1.5 32t-2.5 26t-4.5 23.5t-8 17.5t-13 14.5t-18.5 7.5t-26 3 t-26.5 -4.5t-20 -15.5t-14.5 -21.5t-9.5 -30t-5.5 -32.5t-3 -37.5t-1 -38v-39.5v-624q0 -112 25 -148q25 -28 143 -33v-184q-180 4 -315 4q-146 0 -334 -4v184q40 4 59 6t38.5 9t25.5 13t11.5 24.5t6 35t0.5 52.5v383h-160zM723 707v180q77 14 113 39q17 13 27.5 30t15.5 39 t8 58q11 129 56 212t124 144q56 42 135.5 65t155.5 23q45 0 71 -1t60.5 -6.5t66.5 -16.5q34 -12 55 -29.5t31.5 -44t10.5 -64.5q0 -40 -5.5 -110.5t-11.5 -108.5h-196q-3 72 -20 101.5t-70 29.5q-38 0 -64 -15t-39.5 -45.5t-18.5 -66t-5 -84.5v-671q0 -69 5.5 -99t18.5 -49 q12 -14 42 -22t102 -11v-184q-180 4 -316 4q-146 0 -334 -4v184l58.5 6t39 9t25.5 13.5t12 24t6.5 35t0.5 52.5v383h-160z" />
<glyph unicode="&#x17f;&#x17f;b" horiz-adv-x="2635" d="M14 707v180q64 12 103 39q25 20 35 44t16 77q9 67 20 114t29 85t41 65.5t59 56.5q54 43 129.5 65.5t147.5 22.5q48 0 84 -2.5t76 -12t65.5 -25.5t42.5 -45.5t17 -70.5q0 -40 -9 -111t-20 -114h-182v9q-1 22 -1.5 32t-2.5 26t-4.5 23.5t-8 17.5t-13 14.5t-18.5 7.5t-26 3 t-26.5 -4.5t-20 -15.5t-14.5 -21.5t-9.5 -30t-5.5 -32.5t-3 -37.5t-1 -38v-39.5v-624q0 -112 25 -148q25 -28 135 -33v-184q-180 4 -307 4q-146 0 -334 -4v184q40 4 59 6t38.5 9t25.5 13t11.5 24.5t6 35t0.5 52.5v383h-160zM723 707v180q77 14 113 39q17 13 27.5 30t15.5 39 t8 58q6 67 21 122t39 98t53.5 76t68.5 60q62 43 147.5 65.5t159.5 22.5q116 0 185 -35q96 35 184 35q46 0 77.5 -20.5t46.5 -57.5t15 -90q0 -293 -2 -467q145 123 322 123q80 0 143.5 -23.5t105.5 -65.5t69.5 -102t39.5 -129.5t12 -152.5q0 -115 -35.5 -210.5t-104 -166 t-177 -110t-246.5 -39.5q-110 0 -257 18.5t-216 48.5q4 98 4 266v750q0 85 -30 125.5t-103 40.5q-81 0 -129 -45q-27 -26 -42 -73t-15 -105v-647q0 -73 5.5 -103t20.5 -45q12 -12 61 -21.5t95 -11.5v-186q-180 4 -330 4q-137 0 -325 -4v186q35 4 53.5 6.5t36 9.5t24 14 t12 24t6.5 35t1 51v383h-160zM1882 262q75 -14 137 -14q93 0 141 65.5t48 165.5q0 125 -43.5 187.5t-124.5 62.5q-84 0 -158 -39v-428z" />
<glyph unicode="&#x17f;&#x17f;h" horiz-adv-x="2666" d="M14 707v180q64 12 103 39q25 20 35 44t16 77q9 67 20 114t29 85t41 65.5t59 56.5q54 43 129.5 65.5t147.5 22.5q48 0 84 -2.5t76 -12t65.5 -25.5t42.5 -45.5t17 -70.5q0 -40 -9 -111t-20 -114h-182v9q-1 22 -1.5 32t-2.5 26t-4.5 23.5t-8 17.5t-13 14.5t-18.5 7.5t-26 3 t-26.5 -4.5t-20 -15.5t-14.5 -21.5t-9.5 -30t-5.5 -32.5t-3 -37.5t-1 -38v-39.5v-624q0 -112 25 -148q25 -28 131 -33v-184q-180 4 -303 4q-146 0 -334 -4v184q40 4 59 6t38.5 9t25.5 13t11.5 24.5t6 35t0.5 52.5v383h-160zM723 707v180q80 15 115 39q25 20 35.5 47t15.5 80 q11 131 58 215.5t126 140.5q62 43 149.5 65.5t161.5 22.5q105 0 195 -35q96 35 184 35q69 0 104.5 -44t35.5 -124q0 -123 -5 -498q60 67 153.5 106.5t176.5 39.5q130 0 199 -66q39 -36 56.5 -101t17.5 -173v-309q0 -83 10 -103q8 -16 36 -25.5t97 -15.5v-186q-172 4 -279 4 q-119 0 -299 -4v186q38 7 54.5 13.5t25.5 17.5q15 15 15 117v213q0 40 -2.5 64t-9 44.5t-20 30.5t-34.5 15.5t-53 5.5q-56 0 -141 -27v-348q0 -66 3 -90.5t15 -34.5q10 -9 23.5 -12.5t50.5 -8.5v-186q-180 4 -250 4q-215 0 -307 -4v186q52 5 72 13t34 22q17 20 17 107v749 q0 87 -34 123.5t-114 36.5q-188 0 -188 -223v-647q0 -69 5.5 -99t18.5 -49q23 -30 115 -33v-186q-180 4 -287 4q-142 0 -330 -4v186q42 4 66.5 9.5t35 11.5t19.5 16q17 19 17 103v383h-160z" />
<glyph unicode="&#x17f;&#x17f;i" horiz-adv-x="2064" d="M14 707v180q64 12 103 39q25 20 35 44t16 77q9 67 20 114t29 85t41 65.5t59 56.5q54 43 129.5 65.5t147.5 22.5q48 0 84 -2.5t76 -12t65.5 -25.5t42.5 -45.5t17 -70.5q0 -40 -9 -111t-20 -114h-182v9q-1 22 -1.5 32t-2.5 26t-4.5 23.5t-8 17.5t-13 14.5t-18.5 7.5t-26 3 t-26.5 -4.5t-20 -15.5t-14.5 -21.5t-9.5 -30t-5.5 -32.5t-3 -37.5t-1 -38v-39.5v-624q0 -112 25 -148q25 -29 139 -33v-184q-180 4 -311 4q-146 0 -334 -4v184q40 4 59 6t38.5 9t25.5 13t11.5 24.5t6 35t0.5 52.5v383h-160zM723 707v180q68 12 106 39q28 21 42 49.5t18 77.5 q14 127 68.5 211t140.5 141q66 43 166.5 67.5t212.5 24.5q60 0 136 -9t124 -26q48 -15 71 -46t23 -87q0 -39 -4.5 -119t-9.5 -120h-215q-6 94 -35 120q-13 12 -45 19.5t-66 7.5q-123 0 -178 -50t-55 -169v-653q0 -69 5.5 -99t18.5 -49q12 -14 36.5 -22t80.5 -11v-186 q-180 4 -289 4q-144 0 -332 -4v186q39 4 58 6t38 9.5t25.5 13.5t12 24t6 35t0.5 52v383h-160zM1415 711v184q166 80 338 80q26 0 47 -4.5t41 -16t33.5 -30.5t22 -50t8.5 -71q0 -62 -4.5 -225t-4.5 -248q0 -91 21 -115q22 -22 125 -31v-186q-180 4 -301 4q-219 0 -311 -4v186 q82 5 110 33q16 16 16 111v250q0 47 -3 71.5t-14.5 40t-28 19.5t-48.5 4q-31 0 -47 -2z" />
<glyph unicode="&#x17f;&#x17f;j" horiz-adv-x="2031" d="M14 707v180q64 12 103 39q25 20 35 44t16 77q9 67 20 114t29 85t41 65.5t59 56.5q54 43 129.5 65.5t147.5 22.5q48 0 84 -2.5t76 -12t65.5 -25.5t42.5 -45.5t17 -70.5q0 -40 -9 -111t-20 -114h-182v9q-1 22 -1.5 32t-2.5 26t-4.5 23.5t-8 17.5t-13 14.5t-18.5 7.5t-26 3 t-26.5 -4.5t-20 -15.5t-14.5 -21.5t-9.5 -30t-5.5 -32.5t-3 -37.5t-1 -38v-39.5v-624q0 -112 25 -148q25 -28 143 -33v-184q-180 4 -315 4q-146 0 -334 -4v184q40 4 59 6t38.5 9t25.5 13t11.5 24.5t6 35t0.5 52.5v383h-160zM721 707v180q75 14 117 39q26 16 35 43t14 84 q14 130 63.5 214t132.5 138q66 43 160.5 67.5t194.5 24.5q180 0 266 -29q94 -30 94 -139q0 -39 -4.5 -119t-9.5 -120h-215q-6 87 -34.5 117t-111.5 30q-98 0 -150 -55.5t-52 -163.5v-653q0 -69 5.5 -99t18.5 -49q8 -9 17.5 -15t34 -11t63.5 -7v-186q-180 4 -287 4 q-146 0 -334 -4v186l58.5 6t39 9t25.5 13.5t12 24t6.5 35t0.5 52.5v383h-160zM1343 -408q52 31 95.5 74t64.5 82q23 45 32 124.5t9 215.5v490q0 48 -3 72.5t-14 39.5t-27.5 19t-49.5 4q-29 0 -47 -2v184q171 80 338 80q67 0 105 -38t38 -134q0 -62 1 -355t1 -378 q0 -143 -17 -226.5t-71 -158.5q-59 -81 -165 -148t-212 -100z" />
<glyph unicode="&#x17f;&#x17f;k" horiz-adv-x="2676" d="M14 707v180q64 12 103 39q25 20 35 44t16 77q9 67 20 114t29 85t41 65.5t59 56.5q54 43 129.5 65.5t147.5 22.5q48 0 84 -2.5t76 -12t65.5 -25.5t42.5 -45.5t17 -70.5q0 -40 -9 -111t-20 -114h-182v9q-1 22 -1.5 32t-2.5 26t-4.5 23.5t-8 17.5t-13 14.5t-18.5 7.5t-26 3 t-26.5 -4.5t-20 -15.5t-14.5 -21.5t-9.5 -30t-5.5 -32.5t-3 -37.5t-1 -38v-39.5v-624q0 -112 25 -148q25 -28 131 -33v-184q-180 4 -303 4q-146 0 -334 -4v184q40 4 59 6t38.5 9t25.5 13t11.5 24.5t6 35t0.5 52.5v383h-160zM723 707v180q77 14 113 39q17 13 27.5 30t15.5 39 t8 58q11 130 56.5 213t125.5 139q64 44 149 68t166 24q105 0 195 -35q96 35 184 35q69 0 104.5 -44t35.5 -124q0 -62 -1 -160t-1 -137v-702q0 -26 0.5 -43.5t4 -33t5.5 -24.5t11.5 -17t15.5 -11.5t23 -6.5t28 -4.5t37 -3.5q4 -1 5.5 -1t4.5 -0.5t6 -0.5v-186q-184 4 -299 4 q-215 0 -307 -4v186q37 4 59 10.5t29 11t18 15.5q17 20 17 105v749q0 87 -34 123.5t-114 36.5q-188 0 -188 -223v-647q0 -69 5.5 -99t18.5 -49q23 -30 115 -33v-186q-180 4 -287 4q-142 0 -330 -4v186q38 4 57.5 6t38 9.5t24.5 13.5t11.5 24.5t6 35t0.5 51.5v383h-160z M1915 475q77 64 127 109q110 99 110 145q0 15 -6.5 23.5t-31.5 14.5t-72 7v180q226 -4 297 -4q78 0 274 4v-182q-50 0 -88 -14q-52 -17 -143 -96q-25 -22 -74 -67t-57 -52q70 -105 153 -207q19 -21 55 -56t56 -47q15 -10 37 -19.5t51.5 -16.5t58.5 -9v-186q-83 -6 -161 -6 q-202 0 -287 76q-124 108 -299 403z" />
<glyph unicode="&#x17f;&#x17f;l" horiz-adv-x="2060" d="M14 707v180q64 12 103 39q25 20 35 44t16 77q9 67 20 114t29 85t41 65.5t59 56.5q54 43 129.5 65.5t147.5 22.5q48 0 84 -2.5t76 -12t65.5 -25.5t42.5 -45.5t17 -70.5q0 -40 -9 -111t-20 -114h-182v9q-1 22 -1.5 32t-2.5 26t-4.5 23.5t-8 17.5t-13 14.5t-18.5 7.5t-26 3 t-26.5 -4.5t-20 -15.5t-14.5 -21.5t-9.5 -30t-5.5 -32.5t-3 -37.5t-1 -38v-39.5v-624q0 -112 25 -148q25 -28 143 -33v-184q-180 4 -315 4q-146 0 -334 -4v184q40 4 59 6t38.5 9t25.5 13t11.5 24.5t6 35t0.5 52.5v383h-160zM723 707v180q83 15 117 39q17 13 27.5 30t15.5 39 t8 58q8 88 33 156.5t61 114t88 83.5q31 23 71 40.5t81.5 28t82 16t76.5 5.5q105 0 195 -35q96 35 184 35q69 0 104.5 -44t35.5 -124q0 -62 -2.5 -185.5t-2.5 -176.5v-637q0 -94 25 -119q11 -11 37.5 -16.5t79.5 -10.5v-186q-180 4 -297 4q-213 0 -305 -4v186q34 3 54.5 8.5 t27 9.5t18.5 15q18 21 18 109v530q0 152 -4 246q-3 76 -43 108q-35 25 -98 25q-36 0 -72.5 -11.5t-58.5 -33.5q-26 -25 -41.5 -73t-15.5 -105v-647q0 -69 5.5 -99t18.5 -49q11 -14 43 -23t76 -10v-186q-180 4 -291 4q-142 0 -330 -4v186q38 4 57.5 6t38 9.5t24.5 13.5 t11.5 24.5t6 35t0.5 51.5v383h-160z" />
<glyph unicode="&#x17f;&#x17f;t" horiz-adv-x="2166" d="M14 707v180q64 12 103 39q25 20 35 44t16 77q9 67 20 114t29 85t41 65.5t59 56.5q54 43 129.5 65.5t147.5 22.5q48 0 84 -2.5t76 -12t65.5 -25.5t42.5 -45.5t17 -70.5q0 -40 -9 -111t-20 -114h-182v9q-1 22 -1.5 32t-2.5 26t-4.5 23.5t-8 17.5t-13 14.5t-18.5 7.5t-26 3 t-26.5 -4.5t-20 -15.5t-14.5 -21.5t-9.5 -30t-5.5 -32.5t-3 -37.5t-1 -38v-39.5v-624q0 -112 25 -148q25 -28 143 -33v-184q-180 4 -315 4q-146 0 -334 -4v184q40 4 59 6t38.5 9t25.5 13t11.5 24.5t6 35t0.5 52.5v383h-160zM721 707v180q88 16 121 39q25 20 35.5 47t15.5 80 q13 132 56 212t124 138q61 42 162 68t209 26q82 0 147.5 -10.5t112 -28.5t81.5 -46t56 -58.5t33.5 -70.5t17 -78t4.5 -85q0 -89 -16 -198q115 0 229 -7v-204q-156 -4 -229 -4v-209v-36q0 -27 -0.5 -52t2 -48t6 -43t11.5 -36.5t19.5 -27.5t29.5 -17.5t41 -6.5q73 0 129 13 l39 -203q-60 -33 -158.5 -49.5t-188.5 -16.5q-276 0 -276 289q0 119 8 443h-162v180q58 10 113 35q41 21 66.5 63.5t25.5 95.5q0 166 -168 166q-90 0 -135 -45q-61 -61 -61 -182v-655q0 -69 5.5 -99t18.5 -49q12 -14 42 -22t102 -11v-184q-180 4 -316 4q-146 0 -334 -4v184 l58.5 6t39 9t25.5 13.5t12 24t6.5 35t0.5 52.5v383h-160z" />
<glyph unicode="&#x162;h" horiz-adv-x="2521" d="M59 1235q0 68 34 108.5t108 40.5h1177q74 51 131 77t113 26q131 0 131 -166q0 -138 -4 -490q60 67 153.5 106.5t176.5 39.5q129 0 198 -66q39 -36 56.5 -101t17.5 -173v-309q0 -83 10 -103q8 -15 34.5 -23.5t98.5 -17.5v-186q-172 4 -280 4q-119 0 -299 -4v186 q62 10 80 31q16 16 16 117v213q0 94 -22.5 127t-98.5 33q-54 0 -139 -27v-348q0 -91 14 -115t78 -31v-186q-180 4 -250 4q-231 0 -323 -4v186q65 7 88.5 13.5t36.5 19.5q14 17 14 109v587q0 91 -10 131t-39 60q-31 20 -110.5 24.5t-340.5 4.5v-773q0 -115 17 -135 q16 -16 49 -24.5t127 -12.5v-190q-36 1 -150.5 2t-158.5 2q-29 -74 -29 -92q0 -28 41 -51q81 -46 110 -83.5t29 -97.5q0 -115 -110.5 -187.5t-298.5 -98.5l-25 133q109 22 160 55.5t51 85.5q0 61 -84 105q-45 25 -45 65q0 49 51 166q-44 -1 -153 -2t-144 -2v190 q94 3 127.5 10.5t48.5 22.5q17 20 17 129v783q-186 0 -232 -25q-26 -17 -43.5 -62t-25.5 -157h-166q-13 191 -13 346z" />
<glyph unicode="&#x21a;h" horiz-adv-x="2521" d="M59 1235q0 68 34 108.5t108 40.5h1177q74 51 131 77t113 26q131 0 131 -166q0 -138 -4 -490q60 67 153.5 106.5t176.5 39.5q129 0 198 -66q39 -36 56.5 -101t17.5 -173v-309q0 -83 10 -103q8 -15 34.5 -23.5t98.5 -17.5v-186q-172 4 -280 4q-119 0 -299 -4v186 q62 10 80 31q16 16 16 117v213q0 94 -22.5 127t-98.5 33q-54 0 -139 -27v-348q0 -91 14 -115t78 -31v-186q-180 4 -250 4q-231 0 -323 -4v186q65 7 88.5 13.5t36.5 19.5q14 17 14 109v587q0 91 -10 131t-39 60q-31 20 -110.5 24.5t-340.5 4.5v-773q0 -115 17 -135 q16 -16 49 -24.5t127 -12.5v-190q-180 4 -375 4q-197 0 -381 -4v190q94 3 127.5 10.5t48.5 22.5q17 20 17 129v783q-186 0 -232 -25q-26 -17 -43.5 -62t-25.5 -157h-166q-13 191 -13 346zM545 -586q145 113 145 185q0 35 -39 55q-40 17 -62 44t-22 77q0 51 42.5 92t111.5 41 q78 0 122 -49t44 -129q0 -110 -70 -207.5t-205 -194.5z" />
<glyph unicode=" "  horiz-adv-x="448" />
<glyph unicode="&#x09;" horiz-adv-x="448" />
<glyph unicode="&#xa0;" horiz-adv-x="448" />
<glyph unicode="!" horiz-adv-x="634" d="M174 1276q0 31 10 59.5t31.5 55.5t62.5 43t97 16q96 0 146 -48t50 -122q0 -15 -2 -37.5t-7.5 -61.5t-11.5 -79t-18 -112.5t-22.5 -136.5t-29 -176.5t-34.5 -209.5h-149q-76 451 -99.5 603.5t-23.5 205.5zM176 162q0 76 50.5 127t127.5 51q79 0 131 -49.5t52 -124.5 q0 -87 -50.5 -135.5t-130.5 -48.5t-130 50t-50 130z" />
<glyph unicode="&#x22;" horiz-adv-x="747" d="M63 1337q0 56 34 87.5t98 31.5q133 0 133 -119q0 -46 -15.5 -141t-66.5 -354h-111q-72 437 -72 495zM418 1337q0 56 34 87.5t99 31.5q135 0 135 -119q0 -18 -2 -38.5t-9 -64.5t-14 -82t-24 -133.5t-31 -176.5h-112q-13 82 -29 176.5t-22.5 134t-13.5 83.5t-9 64.5 t-2 36.5z" />
<glyph unicode="#" horiz-adv-x="1177" d="M76 399v211h262l37 176h-215v213h260l76 375h133l-78 -375h211l80 375h133l-78 -375h207v-213h-252l-39 -176h205v-211h-248l-88 -426h-131l86 426h-213l-86 -426h-129l84 426h-217zM469 610h213l37 176h-213z" />
<glyph unicode="$" horiz-adv-x="1218" d="M98 272q0 69 15 197h170q23 -115 73 -168q57 -63 209 -70v279l-127 43q-82 28 -141.5 64.5t-93 73t-53.5 82t-25.5 83.5t-5.5 86q0 167 112 279t334 133v211h125v-207q211 -8 318 -64q42 -21 58.5 -59.5t16.5 -106.5q0 -60 -18 -217h-172q-5 49 -23 97.5t-47 70.5 q-39 29 -133 39v-272l125 -43q164 -55 245 -144.5t81 -236.5q0 -191 -121 -298t-330 -128v-232h-125v226q-217 4 -313 49q-93 37 -123.5 89.5t-30.5 143.5zM469 1012q0 -92 86 -119l10 -4v223q-96 -19 -96 -100zM690 242q92 27 92 106q0 51 -22.5 77.5t-67.5 41.5h-2v-225z " />
<glyph unicode="%" horiz-adv-x="1929" d="M53 930q0 211 104.5 324.5t295.5 113.5q106 0 179.5 -28.5t116.5 -84.5t61.5 -131t18.5 -176q0 -118 -29 -206t-82.5 -140t-122 -77t-153.5 -25q-201 0 -295 107t-94 323zM326 946q0 -143 28 -199.5t90 -56.5q59 0 86 61t27 189q0 135 -25 189.5t-86 54.5 q-63 0 -91.5 -58.5t-28.5 -179.5zM606 27l596 1366l137 -54l-594 -1368zM1100 414q0 212 103 325t294 113q206 0 291.5 -107t85.5 -315q0 -229 -105.5 -337.5t-281.5 -108.5q-201 0 -294 106.5t-93 323.5zM1370 428q0 -142 28.5 -199t90.5 -57q59 0 87 61.5t28 188.5 q0 136 -26 190t-87 54q-63 0 -92 -58.5t-29 -179.5z" />
<glyph unicode="&#x26;" horiz-adv-x="1730" d="M68 383q0 144 78 239.5t235 153.5q-42 76 -62 137.5t-20 133.5q0 368 492 368q190 0 298.5 -75.5t108.5 -206.5q0 -128 -78 -209.5t-268 -159.5q118 -161 272 -281q2 3 7.5 10.5t11.5 17t10 19.5q14 28 14 60q-1 21 -13.5 31.5t-37.5 15.5q-55 9 -74 10v187 q152 -5 289 -5q191 0 281 5v-187q-67 -3 -107 -24q-36 -20 -86 -109q-57 -99 -112 -174q129 -80 227 -80q45 0 72 4l2 -270q-68 -12 -160 -12q-115 0 -226.5 25t-170.5 67q-186 -101 -430 -101q-247 0 -400 112.5t-153 297.5zM459 426q0 -86 65.5 -144.5t141.5 -58.5 q87 0 139 23q-113 97 -172 162.5t-129 160.5q-45 -56 -45 -143zM686 1077q0 -33 12 -63.5t47 -77.5q88 39 123 76.5t35 77.5q0 42 -26 66t-78 24q-113 0 -113 -103z" />
<glyph unicode="'" horiz-adv-x="389" d="M63 1337q0 56 34 87.5t98 31.5q133 0 133 -119q0 -46 -15.5 -141t-66.5 -354h-111q-72 437 -72 495z" />
<glyph unicode="(" horiz-adv-x="696" d="M74 594q0 698 524 1010l80 -113q-173 -153 -256.5 -363t-83.5 -534q0 -285 93 -509.5t257 -383.5l-86 -104q-528 305 -528 997z" />
<glyph unicode=")" horiz-adv-x="696" d="M8 1499l86 105q529 -306 529 -998q0 -697 -527 -1009l-80 112q175 153 258.5 362.5t83.5 534.5q0 285 -93 509.5t-257 383.5z" />
<glyph unicode="*" horiz-adv-x="847" d="M72 1143q0 45 28.5 81t75.5 36q29 0 72.5 -30.5t146.5 -119.5q-11 29 -25.5 67.5t-22 58t-15 41.5t-10.5 36.5t-3 25.5q0 56 31 79.5t76 23.5q106 0 106 -101q0 -14 -3 -32.5t-11.5 -47t-13.5 -45t-18 -56.5t-17 -52q88 81 132.5 113t80.5 32q98 0 98 -108 q0 -101 -90 -107q-54 -4 -94 -4q-25 0 -111 4q119 -79 163 -125.5t44 -87.5q0 -39 -37 -69.5t-73 -30.5q-59 0 -85.5 48t-72.5 212q-41 -155 -77 -207.5t-89 -52.5q-37 0 -71.5 31.5t-34.5 72.5q0 34 49 82.5t180 126.5q-17 0 -49 -1t-45 -1q-65 0 -117 6q-50 7 -74 27.5 t-24 73.5z" />
<glyph unicode="+" horiz-adv-x="1286" d="M188 545v198h359v394h196v-394h357v-198h-357v-393h-196v393h-359z" />
<glyph unicode="," horiz-adv-x="503" d="M31 -295q184 142 184 242q0 22 -12.5 40t-36.5 25q-111 43 -111 156q0 67 53.5 119.5t141.5 52.5q98 0 152.5 -62t54.5 -163q0 -145 -86.5 -271t-255.5 -250z" />
<glyph unicode="-" horiz-adv-x="585" d="M57 406v212h469v-212h-469z" />
<glyph unicode="." horiz-adv-x="471" d="M55 162q0 76 50.5 127t127.5 51q79 0 131 -49.5t52 -124.5q0 -87 -50 -135.5t-130 -48.5t-130.5 50.5t-50.5 129.5z" />
<glyph unicode="/" horiz-adv-x="702" d="M47 -133l465 1630l158 -35l-467 -1630z" />
<glyph unicode="0" horiz-adv-x="1288" d="M70 666q0 341 154 523.5t438 182.5q125 0 220 -30.5t158.5 -86t103.5 -141t57.5 -187.5t17.5 -233q0 -190 -43.5 -332t-122.5 -226t-181 -124.5t-227 -40.5q-298 0 -436.5 172.5t-138.5 522.5zM444 692q0 -245 49.5 -350.5t153.5 -105.5q107 0 152 110t45 334 q0 234 -45.5 335t-147.5 101q-207 0 -207 -424z" />
<glyph unicode="1" horiz-adv-x="1288" d="M203 1221q107 49 338 122q90 31 170 31q60 0 100.5 -38t40.5 -122q0 -34 -2 -157t-2 -234v-469q0 -100 18 -125q11 -19 54 -29t155 -16v-186q-168 4 -389 4q-264 0 -436 -4v186q114 5 158.5 16t60.5 29q13 11 16.5 39t3.5 88v441q0 126 -8 194q-4 28 -16 39.5t-35 11.5 q-69 0 -170 -30z" />
<glyph unicode="2" horiz-adv-x="1288" d="M86 0v207q253 208 386.5 337.5t187 218t53.5 173.5q0 79 -43 129.5t-140 50.5q-35 0 -72.5 -10t-54.5 -25q-38 -27 -43 -166h-202q-21 151 -21 222q0 63 32.5 107t102.5 75q125 53 334 53q239 0 360 -104t121 -285q0 -180 -138 -351t-435 -360q42 0 141 1t125 1 q81 0 117 12t53 44q28 56 45 123h172q-4 -257 -22 -357q-19 -96 -156 -96h-903z" />
<glyph unicode="3" horiz-adv-x="1288" d="M111 172q0 144 16 256h201q5 -110 49 -147q49 -43 196 -43q90 0 137.5 41.5t47.5 105.5q0 86 -48 122.5t-155 41.5q-47 2 -145 2v242q12 1 43 1.5t55 1.5t47 5q81 13 116.5 54.5t35.5 115.5q0 72 -37.5 108.5t-108.5 36.5q-116 0 -157.5 -34.5t-49.5 -147.5h-200 q-15 123 -15 199q0 117 99 165q46 26 150 50t216 24t196 -18.5t136 -49t84.5 -76t44.5 -93t12 -105.5q0 -37 -5 -69t-21.5 -70.5t-43.5 -70.5t-74 -63.5t-110 -54.5q166 -31 238 -108.5t72 -210.5q0 -199 -154.5 -305.5t-429.5 -106.5q-84 0 -180 13t-144 30 q-114 40 -114 158z" />
<glyph unicode="4" horiz-adv-x="1288" d="M66 356v183l473 665q70 99 123 134.5t149 35.5q75 0 125.5 -45.5t50.5 -154.5q0 -46 -1 -167t-1 -155v-240h205v-254h-205v-30q0 -73 19 -103q26 -34 176 -41v-186q-168 4 -394 4q-178 0 -354 -4v186q169 10 189 41q18 30 18 109v22h-573zM354 606h285q4 369 8 428z" />
<glyph unicode="5" horiz-adv-x="1288" d="M127 166q0 136 14 246h203q7 -101 45 -144q24 -22 69 -34.5t93 -12.5q107 0 164 54t57 137q0 100 -55 148t-178 48q-26 0 -101 -12t-106 -12q-129 0 -129 135q0 43 6 110l47 510h807v-274h-569l-21 -207q98 25 221 25q95 0 175 -23t143.5 -70t99 -126.5t35.5 -184.5 q0 -115 -35 -204.5t-92 -145.5t-137.5 -92.5t-164.5 -51t-179 -14.5q-177 0 -295 43q-64 26 -90.5 60.5t-26.5 91.5z" />
<glyph unicode="6" horiz-adv-x="1288" d="M113 621q0 751 639 751q193 0 288 -45q50 -23 75.5 -57t25.5 -90q0 -102 -15 -224h-200q-8 58 -19 87t-33 44q-41 31 -126 31q-131 0 -198 -93.5t-69 -244.5q36 52 118 80.5t155 28.5q98 0 174 -26.5t122.5 -69t76.5 -102t41.5 -119.5t11.5 -128q0 -96 -34.5 -181 t-99 -150.5t-165.5 -103.5t-226 -38q-256 0 -399 170t-143 480zM479 528q0 -68 6 -112q26 -183 174 -183q84 0 131.5 52t47.5 151q0 187 -183 187q-47 0 -98.5 -27.5t-77.5 -67.5z" />
<glyph unicode="7" horiz-adv-x="1288" d="M106 1208q0 131 127 131h916v-198l-475 -1118q-43 -103 -131 -103q-64 0 -113 31t-49 84q0 46 25 94l436 936h-236q-86 0 -124.5 -1t-80.5 -6t-63 -16q-49 -21 -70 -149h-147q-15 169 -15 315z" />
<glyph unicode="8" horiz-adv-x="1288" d="M86 330q0 104 59.5 190t186.5 133q-63 37 -105 80t-62.5 88.5t-28 85.5t-7.5 88q0 57 18 110t58.5 102t99.5 85.5t148 58t198 21.5q122 0 215 -25.5t149.5 -70.5t84.5 -103.5t28 -128.5q0 -107 -54.5 -171t-162.5 -113q87 -46 142.5 -92.5t81.5 -95.5t34.5 -90.5 t8.5 -98.5q0 -63 -21 -122.5t-67 -112.5t-111.5 -93t-161.5 -63t-211 -23q-252 0 -386 95.5t-134 265.5zM422 360q0 -63 45.5 -104t140.5 -41q89 0 132.5 36.5t43.5 92.5t-54.5 100.5t-199.5 98.5q-108 -82 -108 -183zM500 1024q0 -50 47 -89t158 -77q86 71 86 160 q0 48 -39 81.5t-105 33.5q-78 0 -112.5 -32t-34.5 -77z" />
<glyph unicode="9" horiz-adv-x="1288" d="M109 901q0 96 34 180.5t97.5 150t163.5 103t225 37.5q257 0 399.5 -168.5t142.5 -480.5q0 -133 -19.5 -241.5t-52 -185.5t-81.5 -135.5t-102.5 -94t-120 -57.5t-129 -30t-134.5 -8q-92 0 -172.5 13t-123.5 32q-101 46 -101 148q0 141 15 237h198q8 -54 22 -82t36 -47 q31 -36 147 -36q125 0 186 88t64 241q-36 -52 -116.5 -77t-156.5 -25q-82 0 -148.5 17.5t-111.5 49.5t-77 72.5t-50 91.5t-26 101t-8 106zM451 909q0 -104 47 -141t131 -37q50 0 100.5 23t75.5 63q0 85 -6 129q-27 170 -174 170q-84 0 -129 -51.5t-45 -155.5z" />
<glyph unicode=":" horiz-adv-x="514" d="M98 162q0 76 50.5 127t127.5 51q79 0 131 -49.5t52 -124.5q0 -87 -50 -135.5t-130 -48.5t-130.5 50.5t-50.5 129.5zM98 774q0 76 50.5 127t127.5 51q79 0 131 -49.5t52 -124.5q0 -87 -50 -136.5t-130 -49.5q-79 0 -130 51t-51 131z" />
<glyph unicode=";" horiz-adv-x="530" d="M74 -295q184 142 184 242q0 22 -12.5 40t-36.5 25q-111 43 -111 156q0 67 53.5 119.5t141.5 52.5q98 0 152.5 -62t54.5 -163q0 -145 -86.5 -271t-255.5 -250zM98 774q0 76 50.5 127t127.5 51q79 0 131 -49.5t52 -124.5q0 -87 -50 -136.5t-130 -49.5q-79 0 -130 51 t-51 131z" />
<glyph unicode="&#x3c;" horiz-adv-x="1284" d="M205 561v207l829 424v-231l-614 -297l614 -297v-238z" />
<glyph unicode="=" horiz-adv-x="1284" d="M166 360v207h950v-207h-950zM166 776v203h950v-203h-950z" />
<glyph unicode="&#x3e;" horiz-adv-x="1284" d="M250 129v231l614 299l-614 295v238l829 -428v-209z" />
<glyph unicode="?" horiz-adv-x="1003" d="M113 1231q0 57 24.5 92.5t73.5 58.5t136.5 37.5t160.5 14.5q106 -1 188.5 -20t136.5 -52t89 -80t50 -99.5t15 -113.5q0 -75 -18.5 -131.5t-66 -108.5t-124 -97t-196.5 -95q-32 -12 -47.5 -41.5t-22.5 -71.5q-9 -67 -10 -75h-162q-21 144 -21 251q0 31 12.5 57t36.5 46 t47 33t56 28q56 23 92 54.5t50 61.5t14 62q0 29 -6 53.5t-20.5 49.5t-45 39t-74.5 14q-29 0 -49.5 -2.5t-37.5 -9t-27.5 -17t-18.5 -27.5t-12 -40t-6 -55h-201q-16 86 -16 184zM244 162q0 76 50 127t126 51q54 0 96 -22.5t65 -62t23 -89.5q0 -87 -50 -135.5t-132 -48.5 q-78 0 -128 50.5t-50 129.5z" />
<glyph unicode="@" horiz-adv-x="1740" d="M102 438q0 186 66.5 348.5t181 277.5t273.5 181t338 66q311 0 492 -165t181 -452q0 -150 -58.5 -283t-158.5 -216q-122 -101 -266 -101q-61 0 -99 17.5t-61 58.5q-9 21 -14 59q-121 -131 -275 -131q-107 0 -180 70.5t-73 208.5q0 104 42.5 219.5t114.5 198.5 q124 143 334 143q98 0 178 -41l41 53h168l-98 -428q-29 -123 -29 -188q0 -29 9.5 -43.5t39.5 -14.5q58 0 115 72q96 127 96 338q0 126 -37 220t-105.5 150t-158 83.5t-201.5 27.5q-150 0 -276 -55.5t-211 -152.5t-132.5 -231t-47.5 -288q0 -260 164 -421.5t444 -161.5 q164 0 291.5 37t255.5 108l67 -125q-306 -180 -639 -180q-348 0 -560 204.5t-212 536.5zM686 414q0 -76 31 -104.5t90 -28.5q32 0 78.5 16t83.5 45q5 25 12 69.5t12 71.5l56 250q-63 29 -111 29q-102 0 -158 -74q-38 -50 -66 -133.5t-28 -140.5z" />
<glyph unicode="A" horiz-adv-x="1568" d="M10 -2v190q102 3 140 41q22 20 39 55t55 138l311 813q35 94 95.5 139t152.5 45q88 0 142.5 -42t84.5 -126l324 -891q23 -65 42 -95t50 -52q36 -23 113 -25v-190q-200 4 -287 4q-243 0 -473 -4v190q81 3 125 19q25 10 33 24t8 35q0 29 -25 109l-12 41h-398l-10 -29 q-31 -86 -31 -123q0 -13 1 -20t10 -18t26 -17q50 -18 150 -21v-190q-208 4 -412 4q-66 0 -254 -4zM600 670h240q-82 239 -115 364q-94 -280 -125 -364z" />
<glyph unicode="B" horiz-adv-x="1363" d="M35 0v188q124 2 149 27q15 14 20 37t5 92v705q0 101 -19 120q-16 14 -42.5 19.5t-112.5 9.5v188h545q207 0 333 -18q154 -24 231 -102.5t77 -202.5q0 -258 -281 -324q170 -20 262 -108t92 -230q0 -230 -202 -335q-125 -66 -336 -66h-721zM580 295q0 -28 7 -40t27 -15 q23 -4 80 -4q199 0 199 182q0 101 -74 147q-54 29 -213 29h-26v-299zM582 842h41q91 0 120 10q99 25 99 135q0 98 -80 125q-46 14 -137 14h-43v-284z" />
<glyph unicode="C" horiz-adv-x="1398" d="M74 668q0 353 199 551t563 198q245 0 358 -53q113 -55 113 -145q0 -123 -29 -283h-209q-14 122 -45 164q-26 32 -71 44.5t-128 12.5q-56 0 -106.5 -15t-98.5 -50t-82.5 -87.5t-55.5 -133.5t-21 -183q0 -87 16.5 -158.5t45.5 -119.5t64.5 -82.5t78 -53.5t82 -27.5 t79.5 -8.5q152 0 207 55q38 38 76 164h213q-10 -247 -43 -324q-28 -64 -143 -106q-54 -22 -148.5 -39t-204.5 -17q-338 0 -524 181.5t-186 515.5z" />
<glyph unicode="D" horiz-adv-x="1527" d="M35 0v188q84 3 114.5 10t43.5 23q16 29 16 121v698q0 92 -8 113q-12 26 -39.5 33t-126.5 12v186h444q308 0 462 -24t253 -82q262 -156 262 -559q0 -232 -77 -385t-242 -240q-90 -46 -236 -70t-313 -24h-553zM580 338q0 -46 24 -62q31 -24 98 -24q192 0 274.5 99.5 t82.5 340.5q0 129 -21.5 211t-72.5 129.5t-124 65.5t-188 18h-73v-778z" />
<glyph unicode="E" horiz-adv-x="1333" d="M35 0v188q136 11 158 33q11 12 13.5 37t2.5 92v692q0 103 -12 115q-14 16 -47.5 25t-114.5 16v186h1018q77 0 118 -28t41 -78q0 -119 -26 -285h-197q-18 103 -53 127q-25 19 -107 19h-249v-322h49q100 0 127 29q23 25 43 112h180q-2 -51 -2 -256q0 -172 4 -258h-176 q-14 91 -37 117q-20 19 -50.5 24t-88.5 5h-49v-252q0 -42 12.5 -63t42.5 -25q55 -8 151 -8q184 0 248 57q10 9 20.5 28t16.5 33.5t16.5 42t12.5 33.5h186q-6 -271 -39 -358q-12 -35 -68.5 -56.5t-131.5 -21.5h-1012z" />
<glyph unicode="F" horiz-adv-x="1251" d="M35 -2v190q83 3 112.5 10t45.5 23q16 19 16 129v692q0 103 -12 115q-14 16 -47.5 25t-114.5 16v186h1024q153 0 153 -110q0 -51 -8.5 -149t-15.5 -142h-203q-21 107 -53 135q-29 19 -113 19h-239v-365h90q97 0 127 33q21 24 43 121h168q-2 -51 -2 -264q0 -181 4 -267 h-164q-15 97 -39 121q-19 19 -49 24t-88 5h-90v-166q0 -115 22 -148q29 -43 195 -43v-190q-176 4 -400 4q-182 0 -362 -4z" />
<glyph unicode="G" horiz-adv-x="1492" d="M74 668q0 169 53 308.5t150 236.5t239 150.5t315 53.5q311 0 431 -67q81 -47 81 -138q0 -120 -26 -276h-207q-8 52 -14.5 81.5t-19 58t-27.5 41.5t-43 23.5t-62.5 13.5t-87.5 3q-56 0 -105 -9.5t-104.5 -40t-94.5 -80t-65 -136.5t-26 -203q0 -110 27 -194.5t66.5 -131.5 t92.5 -76.5t96 -38.5t86 -9q106 0 134 28q16 16 16 68v82q0 51 -29 69q-39 15 -147 23v190q118 -4 352 -4q147 0 299 4v-190q-74 -5 -97.5 -21.5t-23.5 -74.5v-242q0 -49 -17 -72t-61 -43q-87 -38 -211.5 -62t-255.5 -24q-158 0 -289 46t-225.5 133t-147 220t-52.5 300z" />
<glyph unicode="H" horiz-adv-x="1591" d="M35 -2v190q83 3 112.5 10t45.5 23q16 19 16 129v697q0 99 -14 118q-11 16 -44.5 23t-115.5 10v188q270 -6 362 -6q93 0 357 6v-188q-59 -2 -93.5 -8t-45 -11.5t-19.5 -15.5q-16 -22 -16 -121v-186h432v186q0 103 -17 123q-13 16 -44.5 23t-112.5 10v188q270 -6 372 -6 q79 0 349 6v-188q-85 -3 -115.5 -10.5t-42.5 -24.5q-11 -11 -15 -35.5t-4 -85.5v-682q0 -112 19 -139q12 -15 39 -22t119 -11v-190q-180 4 -349 4q-192 0 -372 -4v190q81 3 112 10t45 21q17 20 17 131v244h-432v-234q0 -115 16 -137q10 -10 21 -15.5t45 -11t92 -8.5v-190 q-176 4 -357 4q-182 0 -362 -4z" />
<glyph unicode="I" horiz-adv-x="788" d="M35 -2v190q83 3 112.5 10t45.5 23q16 19 16 129v697q0 99 -14 118q-11 16 -44.5 23t-115.5 10v188q141 -6 362 -6q117 0 357 6v-188q-59 -2 -93.5 -8t-45 -11.5t-19.5 -15.5q-16 -22 -16 -121v-682q0 -71 3 -97t13 -38q8 -11 19 -17t45 -11.5t94 -8.5v-190q-176 4 -357 4 q-182 0 -362 -4z" />
<glyph unicode="J" horiz-adv-x="774" d="M-8 -158q57 33 102 77t66 85q47 94 47 342v701q0 99 -14 118q-11 15 -45 22.5t-115 10.5v188q141 -6 362 -6q108 0 348 6v-188q-58 -2 -91 -8t-40.5 -11t-17.5 -16q-16 -22 -16 -121v-692q0 -138 -23 -236.5t-82 -185.5q-54 -81 -159 -151t-218 -111z" />
<glyph unicode="K" horiz-adv-x="1533" d="M35 -2v190q83 3 112.5 10t45.5 23q16 19 16 129v697q0 99 -14 118q-11 16 -44.5 23t-115.5 10v188q270 -6 362 -6q91 0 355 6v-188q-59 -2 -93 -8t-44 -11.5t-19 -15.5q-16 -22 -16 -121v-682q0 -116 16 -135q11 -11 21.5 -16.5t44 -11.5t92.5 -9v-190q-176 4 -357 4 q-182 0 -362 -4zM594 686q207 222 291 328q65 87 65 127q0 29 -18 41t-90 16v188q88 -4 350 -4q195 0 285 4v-188q-51 -3 -84 -18q-61 -19 -156 -127q-168 -192 -268 -301q220 -349 344 -471q50 -50 90.5 -69t112.5 -19v-191q-94 -10 -234 -10q-201 0 -305 104 q-51 52 -113 143t-110.5 173t-159.5 274z" />
<glyph unicode="L" horiz-adv-x="1300" d="M35 0v188q137 12 158 33q11 12 13.5 37t2.5 92v697q0 99 -14 118q-11 16 -44.5 23t-115.5 10v188q141 -6 362 -6q117 0 357 6v-188q-59 -2 -93.5 -8t-45 -11.5t-19.5 -15.5q-16 -22 -16 -121v-694q0 -42 12.5 -63t42.5 -25q55 -8 151 -8q105 0 158 12.5t78 40.5 q31 36 57 139h170q-6 -279 -39 -366q-12 -36 -60.5 -57t-119.5 -21h-995z" />
<glyph unicode="M" horiz-adv-x="1884" d="M35 -2v190q128 0 153 31q18 29 21 168q3 168 5.5 301t4 200.5t2.5 114t1.5 66t0.5 31.5q0 50 -14 67q-11 14 -40.5 21t-119.5 10v188q92 -4 357 -4q208 0 290 4q185 -499 240 -690q63 197 256 690q184 -4 313 -4q246 0 326 4v-188q-83 -1 -111.5 -8t-38.5 -23 q-16 -18 -16 -114v-31.5t1 -62t2 -106.5t3 -190.5t4 -289.5q2 -117 17 -152q9 -16 42 -23t117 -10v-190q-208 4 -352 4q-135 0 -377 -4v190q143 7 164 35q17 27 17 111q0 397 6 696q-55 -163 -273 -727q-43 -104 -159 -104q-66 0 -102 26t-56 80q-211 576 -260 727 q0 -109 3 -412t3 -315q0 -68 18 -86q23 -26 154 -31v-190q-176 4 -238 4q-156 0 -364 -4z" />
<glyph unicode="N" horiz-adv-x="1597" d="M31 1198v188q90 -4 334 -4q190 0 262 4q428 -631 547 -821q-4 105 -6.5 247.5t-4.5 174.5q-5 90 -8.5 120.5t-13.5 49.5q-13 19 -48.5 28.5t-123.5 12.5v188q222 -4 317 -4q77 0 295 4v-188q-79 -4 -108 -11t-48 -24q-13 -12 -17.5 -46t-6.5 -130q-2 -86 -1 -459 q0 -33 0.5 -184t0.5 -197q0 -88 -41.5 -130t-138.5 -42q-65 0 -111.5 30t-85.5 89q-495 746 -584 887q3 -403 9 -584q3 -99 6.5 -131t13.5 -45q14 -16 44.5 -22.5t119.5 -10.5v-190q-218 4 -301 4q-89 0 -297 -4v190q89 4 119 12.5t41 28.5q11 22 14 170q6 307 6 586 q0 144 -12 168q-4 7 -9 13t-13 10t-15 7t-19.5 5.5t-19.5 4t-23 2.5t-23 1t-25 1t-25 1z" />
<glyph unicode="O" horiz-adv-x="1552" d="M72 686q0 225 91.5 391t254.5 252t377 86q353 0 520.5 -183t167.5 -517q0 -185 -55 -329t-152 -233.5t-224 -135.5t-278 -46q-175 0 -310 52t-220.5 147.5t-128.5 225.5t-43 290zM463 715q0 -253 81 -365t232 -112q307 0 307 464q0 239 -74 347t-229 108 q-154 0 -235.5 -114t-81.5 -328z" />
<glyph unicode="P" horiz-adv-x="1357" d="M35 -2v190q105 3 137 19q22 10 29.5 33t7.5 98v713q0 63 -4.5 85.5t-16.5 34.5t-41.5 18t-111.5 9v186h559q250 0 373 -22q155 -31 239 -130t84 -257q0 -222 -133.5 -349.5t-406.5 -127.5q-121 0 -170 4v-146q0 -64 4.5 -93t17.5 -42q18 -18 54.5 -25t129.5 -8v-190 q-208 4 -430 4q-87 0 -321 -4zM580 756q33 -2 106 -2q116 0 171.5 44.5t55.5 145.5q0 115 -106 156q-44 16 -172 16h-55v-360z" />
<glyph unicode="Q" horiz-adv-x="1552" d="M72 686q0 225 91.5 391t254.5 252t377 86q353 0 520.5 -183t167.5 -517q0 -254 -104 -426t-281 -252q82 -79 162 -121q62 -33 146.5 -54.5t154.5 -21.5q37 0 47 2v-190q-97 -19 -178 -19q-110 0 -218 17.5t-170 42.5q-112 46 -194 108t-203 179q-190 23 -320.5 119 t-191.5 244t-61 343zM463 715q0 -253 81 -365t232 -112q307 0 307 464q0 239 -74 347t-229 108q-154 0 -235.5 -114t-81.5 -328z" />
<glyph unicode="R" horiz-adv-x="1411" d="M35 -2v190q105 3 137 19q22 10 29.5 33t7.5 98v713q0 63 -4.5 85.5t-16.5 34.5t-41.5 18t-111.5 9v186h559q231 0 354 -22q163 -31 249.5 -128.5t86.5 -258.5q0 -318 -270 -416q78 -124 176 -233q68 -81 121 -107q45 -22 90 -24v-195q-28 -4 -119 -4q-79 0 -142.5 11 t-107.5 32t-70.5 39.5t-54.5 44.5q-136 125 -268 399q-35 0 -59 4v-170q0 -64 4.5 -93t17.5 -42q18 -18 44.5 -25t101.5 -8v-190q-204 4 -392 4q-87 0 -321 -4zM580 782q33 -2 120 -2q195 0 195 174q0 54 -25 93.5t-71 54.5q-49 14 -172 14h-47v-334z" />
<glyph unicode="S" horiz-adv-x="1261" d="M90 268q0 126 12 232h183q25 -143 77 -199q34 -36 103.5 -56t150.5 -20q95 0 145 33t50 92q0 36 -13 61.5t-32.5 39t-50.5 24.5l-266 92q-62 21 -112 47t-85 53t-60.5 58.5t-41 60.5t-24.5 63.5t-12 63.5t-3 64q0 95 34.5 173.5t103 138.5t180 93t257.5 33q251 0 363 -65 q44 -26 61.5 -65.5t17.5 -110.5q0 -82 -18 -248h-184q-8 53 -15.5 86.5t-21 62.5t-31 44.5t-46.5 27t-65 15t-90 3.5q-93 0 -134.5 -31.5t-41.5 -82.5q0 -94 92 -127l271 -93q173 -59 258.5 -154t85.5 -249q0 -115 -44 -203t-123.5 -143t-186 -83t-236.5 -28 q-94 0 -191.5 15t-154.5 39q-97 40 -129.5 94.5t-32.5 148.5z" />
<glyph unicode="T" horiz-adv-x="1427" d="M57 1235q0 68 34 108.5t108 40.5h1028q73 0 108 -35t35 -94q0 -219 -10 -366h-168q-11 109 -23 151.5t-39 63.5q-23 19 -71 24t-152 5v-773q0 -115 17 -135q16 -16 49 -24.5t127 -12.5v-190q-180 4 -375 4q-197 0 -381 -4v190q94 3 127.5 10.5t48.5 22.5q17 20 17 129 v783q-186 0 -232 -25q-26 -17 -43.5 -62t-25.5 -157h-166q-13 191 -13 346z" />
<glyph unicode="U" horiz-adv-x="1630" d="M27 1198v188q164 -4 317 -4q274 0 434 4v-188q-153 -2 -176 -35q-17 -17 -20 -102q-2 -76 -2 -416q0 -195 34 -283q48 -129 256 -129q214 0 277 99q25 38 37.5 95.5t15 102t2.5 117.5q0 200 -8 391q-4 65 -8.5 91.5t-20.5 37.5q-17 16 -52.5 22t-111.5 9v188 q76 -2 359 -2q20 0 114.5 1t133.5 1v-188q-86 -7 -118.5 -18t-43.5 -29q-19 -36 -18 -129v-420q0 -188 -28.5 -290t-96.5 -179q-68 -79 -198.5 -122.5t-287.5 -43.5q-186 0 -323 51.5t-201 147.5q-45 69 -65.5 170t-20.5 297q0 107 1 253.5t1 155.5q0 92 -12 113 q-13 20 -47.5 29.5t-122.5 13.5z" />
<glyph unicode="V" horiz-adv-x="1552" d="M10 1198v188q200 -4 393 -4q137 0 371 4v-188q-92 -3 -125 -18q-43 -16 -43 -66q0 -33 29 -115q162 -464 207 -612q77 256 194 612q25 73 25 125q0 46 -37 56q-41 15 -147 18v188q204 -4 280 -4q193 0 385 4v-188q-54 -2 -84 -9.5t-53 -27.5q-31 -29 -74 -143l-327 -875 q-32 -89 -88.5 -128.5t-147.5 -39.5q-92 0 -144 35t-81 117l-328 891q-24 67 -44 100t-50 53q-28 24 -111 27z" />
<glyph unicode="W" horiz-adv-x="2224" d="M25 1198v188q262 -4 391 -4q295 0 381 4v-188q-61 0 -102 -7t-60.5 -21t-27 -28.5t-7.5 -35.5q0 -46 16 -111q26 -114 64 -272t59 -254q20 79 46 170.5t73.5 256.5t93.5 329q45 166 217 166q50 0 84.5 -10t56.5 -33t35 -49t27 -70q180 -580 225 -766q19 94 58.5 270 t56.5 258q19 88 19 119t-11 47t-53.5 27.5t-126.5 13.5v188q200 -4 371 -4q137 0 289 4v-188q-97 -5 -132 -31q-21 -14 -34.5 -46t-33.5 -98q-3 -11 -5 -17l-248 -859q-27 -92 -75 -132t-140 -40q-94 0 -138 34.5t-69 121.5q-191 650 -225 782q-48 -216 -213 -766 q-27 -90 -77 -131t-140 -41q-91 0 -137 36.5t-68 119.5l-256 936q-23 90 -68 109q-34 19 -116 22z" />
<glyph unicode="X" horiz-adv-x="1628" d="M39 -2v190q111 4 151 33q38 36 68 78l315 438l-266 353q-16 23 -23 32.5t-22.5 26t-28.5 22.5q-47 24 -137 27v188q129 -4 357 -4q351 0 419 4v-188q-110 0 -110 -57q0 -30 45 -97l117 -165l110 170q37 55 37 96q0 26 -26 38t-91 15v188q86 -4 330 -4q158 0 256 4v-188 q-40 -2 -67.5 -8.5t-50 -23.5t-35 -31.5t-37.5 -45.5q-1 -2 -2 -3.5t-2.5 -3t-2.5 -3.5l-278 -383l305 -411q14 -22 68 -68q20 -16 49 -21t100 -8v-190q-262 4 -366 4q-199 0 -437 -4v190q78 4 107 20t29 42q0 32 -27 69l-170 222l-139 -211q-35 -50 -35 -80q0 -32 32.5 -45 t131.5 -17v-190q-230 4 -355 4q-202 0 -319 -4z" />
<glyph unicode="Y" horiz-adv-x="1423" d="M12 1198v188q234 -4 324 -4q175 0 383 4v-188q-73 -4 -99 -19t-26 -42q0 -31 31 -90q110 -187 161 -283q29 55 86 155.5t78 139.5q29 56 29 86q0 24 -25.5 38t-101.5 15v188q96 -4 360 -4q113 0 199 4v-188q-65 -3 -96 -31q-31 -22 -144 -198l-284 -432v-207 q0 -58 10 -88q7 -23 44.5 -36.5t139.5 -17.5v-190q-222 4 -372 4q-169 0 -377 -4v190q103 7 132.5 15t39.5 26q12 17 12 101v205l-309 507q-34 57 -54 84t-44 43q-40 25 -97 29z" />
<glyph unicode="Z" horiz-adv-x="1423" d="M66 0v106l692 1037q-185 0 -270.5 -5t-118.5 -20q-45 -20 -72 -172h-191q-16 153 -16 307q0 131 127 131h1083v-108l-696 -1030q73 -6 180 -6q159 0 222 12.5t90 48.5q29 41 55 141h192q-4 -241 -24 -354q-14 -88 -168 -88h-1085z" />
<glyph unicode="[" horiz-adv-x="688" d="M178 -348v1892h473v-129h-227v-1632h227v-131h-473z" />
<glyph unicode="\" horiz-adv-x="702" d="M49 1460l152 41l469 -1630l-156 -41z" />
<glyph unicode="]" horiz-adv-x="688" d="M37 -219h225v1632h-225v131h471v-1892h-471v129z" />
<glyph unicode="^" horiz-adv-x="1284" d="M199 702l350 744h188l346 -741h-211l-235 503l-227 -506h-211z" />
<glyph unicode="_" horiz-adv-x="1005" d="M-4 -164h1014v-123h-1014v123z" />
<glyph unicode="`" horiz-adv-x="604" d="M86 1407q0 49 38 81t85 32q35 0 63 -22t68 -87l176 -289l-92 -73l-260 231q-42 42 -60 70t-18 57z" />
<glyph unicode="a" horiz-adv-x="1114" d="M49 272q0 151 116.5 224t383.5 73q53 0 69 -2v47q0 73 -25.5 102t-100.5 29q-84 0 -115.5 -28t-36.5 -115h-197q-16 86 -16 176q0 56 24.5 91.5t73.5 60.5q46 23 129.5 38t157.5 15q119 0 199 -15.5t115 -35t61 -49.5q65 -68 65 -234q0 -45 -1 -183.5t-1 -143.5 q0 -62 18.5 -86.5t53.5 -24.5q43 0 70 4v-197q-48 -16 -119 -26t-121 -10q-35 0 -59 3t-54 13t-51 34t-33 62q-117 -117 -282 -117q-61 0 -117 17t-103 51.5t-75.5 93t-28.5 133.5zM389 289q0 -43 28.5 -64.5t65.5 -21.5q74 0 135 26v146q-20 4 -63 4q-90 0 -128 -22 t-38 -68z" />
<glyph unicode="b" horiz-adv-x="1232" d="M0 1237v180q179 80 354 80q129 0 129 -168q0 -293 -2 -467q145 123 320 123q100 0 173 -35.5t115 -101t62 -149t20 -187.5q0 -115 -35.5 -210.5t-104 -166t-177 -110t-246.5 -39.5q-110 0 -257 18.5t-216 48.5q4 98 4 266v725q0 94 -4.5 131t-19.5 50q-21 14 -70 14 q-31 0 -45 -2zM479 262q75 -14 137 -14q93 0 141 65.5t48 165.5q0 125 -43.5 187.5t-124.5 62.5q-84 0 -158 -39v-428z" />
<glyph unicode="c" horiz-adv-x="1019" d="M63 453q0 125 40 226.5t111 167.5t166 101t206 35q141 0 227 -27q68 -22 99.5 -53t31.5 -90q0 -121 -16 -217h-201q-11 95 -47 117q-23 20 -88 20q-31 0 -60 -12.5t-56 -40t-43.5 -79.5t-16.5 -122q0 -77 19 -129t52.5 -76t66.5 -32.5t75 -8.5q111 0 250 66l92 -190 q-81 -66 -196 -102t-224 -36q-139 0 -249 56.5t-174.5 167t-64.5 258.5z" />
<glyph unicode="d" horiz-adv-x="1282" d="M63 440q0 93 18 172.5t57.5 147.5t99 115.5t146.5 74.5t196 27q106 0 184 -33v127q0 73 -6 113q-5 55 -78 55q-35 0 -55 -2v180q167 80 352 80q39 0 66 -14.5t40.5 -39.5t19 -50t5.5 -54q0 -48 -2 -210.5t-2 -204.5v-621q0 -92 70 -92q44 0 71 4v-197q-116 -36 -248 -36 q-89 0 -130 27.5t-56 90.5q-119 -125 -303 -125q-206 0 -325.5 129.5t-119.5 335.5zM416 479q0 -122 56 -185t155 -63q81 0 137 50v415q-50 27 -135 27q-100 0 -156.5 -61t-56.5 -183z" />
<glyph unicode="e" horiz-adv-x="1085" d="M63 455q0 250 144.5 389t378.5 139q217 0 325.5 -115.5t108.5 -306.5q0 -34 -9 -69t-22 -50q-31 -36 -108 -36h-473v-15q0 -61 57 -107t153 -46q161 0 330 79l96 -192q-90 -70 -217.5 -112t-271.5 -42q-139 0 -250 57t-176.5 168t-65.5 259zM408 604l288 6v21 q0 48 -35 80t-92 32q-67 0 -112 -33.5t-49 -105.5z" />
<glyph unicode="f" horiz-adv-x="739" d="M14 707v180q64 12 103 39q26 20 37 47.5t16 79.5q8 90 29 156t54.5 112.5t84.5 85.5q57 42 139 66t154 24q115 0 186 -24q48 -18 71 -50t23 -88q0 -100 -14 -219h-199q-3 70 -17.5 100.5t-62.5 30.5q-51 0 -77 -37q-19 -26 -23 -59.5t-4 -114.5v-114q133 0 231 -4v-205 q-135 -6 -231 -6v-342q0 -112 25 -148q23 -26 166 -33v-186q-180 4 -338 4q-146 0 -334 -4v186q40 4 59 6t38.5 9t25.5 13t11.5 24.5t6 35t0.5 52.5v383h-160z" />
<glyph unicode="g" horiz-adv-x="1136" d="M-12 -289q0 92 60.5 145t166.5 85q-94 50 -94 147q0 113 137 213q-203 84 -203 311q0 166 124 268.5t353 102.5q190 0 287 -61q183 0 316 -7v-204q-24 -1 -156 -6q10 -23 10 -76q0 -181 -120.5 -280t-352.5 -99q-67 0 -94 6q-27 -17 -27 -45q0 -44 101 -53q22 -2 81 -6.5 t125 -11t144 -17.5q145 -21 206.5 -98.5t61.5 -202.5q0 -180 -155 -287.5t-422 -107.5q-120 0 -214.5 15.5t-156.5 41.5t-102.5 62.5t-58 77t-17.5 87.5zM305 -207q0 -115 264 -115q183 0 183 84q0 55 -113 66q-221 21 -291 47q-43 -43 -43 -82zM399 621q0 -80 33.5 -114 t97.5 -34q59 0 93 38t34 110t-33 103.5t-96 31.5q-60 0 -94.5 -38t-34.5 -97z" />
<glyph unicode="h" horiz-adv-x="1273" d="M25 -2v186q65 7 88.5 13.5t36.5 19.5q14 17 14 109v718q0 95 -5 131.5t-22 49.5q-19 14 -65 14q-33 0 -47 -2v180q179 80 352 80q131 0 131 -168q0 -79 -2 -244.5t-2 -253.5q60 67 153.5 106.5t176.5 39.5q129 0 198 -66q39 -36 56.5 -101t17.5 -173v-309q0 -83 10 -103 q8 -15 34.5 -23.5t98.5 -17.5v-186q-172 4 -278 4q-119 0 -299 -4v186q64 13 80 31q14 14 14 117v213q0 96 -21.5 128t-97.5 32q-55 0 -141 -27v-348q0 -66 3 -90.5t15 -34.5q16 -14 74 -21v-186q-180 4 -250 4q-231 0 -323 -4z" />
<glyph unicode="i" horiz-adv-x="679" d="M33 -2v186q65 7 88.5 13.5t36.5 19.5q16 16 16 111v250q0 105 -31 122q-21 13 -63 13q-31 0 -47 -2v184q166 80 338 80q151 0 151 -172q0 -62 -4 -225t-4 -248q0 -91 21 -115q22 -22 124 -31v-186q-180 4 -301 4q-233 0 -325 -4zM131 1294q0 81 53 134t138 53 q95 0 140.5 -50.5t45.5 -132.5q0 -80 -51.5 -134t-141.5 -54q-83 0 -133.5 53.5t-50.5 130.5z" />
<glyph unicode="j" horiz-adv-x="638" d="M-49 -408q52 31 95.5 74t64.5 82q41 81 41 340v490q0 89 -17 112t-78 23q-29 0 -47 -2v184q171 80 338 80q67 0 105.5 -38t38.5 -134q0 -62 1 -355t1 -378q0 -143 -17 -226.5t-71 -158.5q-59 -81 -165 -148t-212 -100zM111 1294q0 81 51.5 134t136.5 53q95 0 140.5 -50.5 t45.5 -132.5q0 -80 -51 -134t-141 -54q-83 0 -132.5 53.5t-49.5 130.5z" />
<glyph unicode="k" horiz-adv-x="1280" d="M25 -2v186q65 7 88.5 13.5t36.5 19.5q14 17 14 109v723q0 144 -31 172q-16 18 -61 18q-33 0 -47 -2v180q179 80 350 80q133 0 133 -168q0 -62 -1 -160t-1 -137v-702q0 -96 19 -116t106 -28q5 -1 8.5 -1.5t7.5 -0.5v-186q-184 4 -299 4q-231 0 -323 -4zM520 475 q77 64 127 109q111 100 111 145q0 23 -21.5 33.5t-89.5 11.5v180q226 -4 297 -4q79 0 275 4v-182q-51 0 -89 -14q-52 -17 -143 -96q-25 -22 -74 -67t-57 -52q66 -98 154 -207q66 -75 110 -103q57 -39 148 -45v-186q-82 -6 -162 -6q-202 0 -287 76q-124 108 -299 403z" />
<glyph unicode="l" horiz-adv-x="667" d="M25 -2v186q65 7 88.5 13.5t36.5 19.5q14 17 14 109v663q0 125 -7.5 172t-23.5 60q-18 18 -61 18q-33 0 -47 -2v180q187 80 350 80q133 0 133 -168q0 -62 -1 -185.5t-1 -176.5v-637q0 -96 19 -116t106 -28q5 -1 8.5 -1.5t7.5 -0.5v-186q-184 4 -299 4q-231 0 -323 -4z" />
<glyph unicode="m" horiz-adv-x="1861" d="M33 -2v186q65 7 88.5 13.5t36.5 19.5q16 16 16 111v250q0 105 -31 122q-21 13 -63 13q-31 0 -47 -2v184q166 80 336 80q133 0 143 -144q60 68 153 107t175 39q94 0 155.5 -35.5t87.5 -118.5q62 69 159 111.5t179 42.5q135 0 201 -66q72 -72 72 -274v-309q0 -84 12 -103 q8 -15 34.5 -23.5t98.5 -17.5v-186q-176 4 -280 4q-113 0 -293 -4v186q58 5 75 25q13 15 13 123v213q0 95 -22 127.5t-99 32.5q-43 0 -129 -27q2 -20 2 -47v-303q0 -99 10 -113q9 -14 25.5 -20.5t60.5 -10.5v-186q-176 4 -233 4q-119 0 -299 -4v186q65 7 82 27q12 12 12 121 v213q0 96 -21.5 128t-97.5 32q-45 0 -131 -27v-348v-18q0 -39 1 -54t4.5 -33t14.5 -23.5t27 -10.5t45 -7v-186q-180 4 -248 4q-233 0 -325 -4z" />
<glyph unicode="n" horiz-adv-x="1282" d="M33 -2v186q65 7 88.5 13.5t36.5 19.5q16 16 16 111v250q0 105 -31 122q-21 13 -63 13q-31 0 -47 -2v184q166 80 336 80q130 0 143 -144q60 67 153.5 106.5t176.5 39.5q129 0 198 -66q40 -38 57 -102t17 -172v-309q0 -89 10 -105t35.5 -24.5t97.5 -14.5v-186 q-172 4 -278 4q-119 0 -299 -4v186q59 10 78 29q16 16 16 119v213q0 95 -22 127.5t-99 32.5q-53 0 -139 -27v-348v-25v-43.5t3 -29.5t7.5 -21.5t16.5 -11.5t26 -9.5t39 -5.5v-186q-180 4 -248 4q-233 0 -325 -4z" />
<glyph unicode="o" horiz-adv-x="1196" d="M63 473q0 234 151.5 372t395.5 138q256 0 389.5 -131.5t133.5 -359.5q0 -124 -41.5 -224t-114.5 -164.5t-171 -98.5t-212 -34q-261 0 -396 136.5t-135 365.5zM416 492q0 -144 45.5 -206.5t134.5 -62.5q94 0 139 60t45 190q0 138 -44.5 199t-139.5 61q-88 0 -134 -61.5 t-46 -179.5z" />
<glyph unicode="p" horiz-adv-x="1247" d="M14 -354q24 3 39 4.5t31 6t24.5 5.5t17.5 8.5t13 9.5t8.5 15t5.5 18t2 24.5t1 28.5v37v775q0 88 -16.5 111.5t-76.5 23.5q-31 0 -49 -2v184q171 80 336 80q62 0 99.5 -26.5t44.5 -102.5q61 60 144.5 99.5t178.5 39.5q99 0 172 -35.5t116 -101t63 -149t20 -187.5 q0 -115 -36 -210.5t-105 -166t-177.5 -110t-246.5 -39.5q-47 0 -125 8v-166q0 -71 5 -100t19 -47q22 -26 166 -35v-183q-235 5 -340 5q-94 0 -334 -5v183zM494 262q72 -14 137 -14q96 0 143 62.5t47 168.5q0 240 -168 240q-77 0 -159 -45v-412z" />
<glyph unicode="q" horiz-adv-x="1257" d="M63 440q0 269 140.5 406t433.5 137q281 0 471 -68q-4 -49 -4 -253v-859v-16v-51.5t5.5 -34t11.5 -24.5t24.5 -13t38 -10.5t59.5 -7.5v-183q-235 5 -334 5q-106 0 -336 -5v183q86 6 119.5 14t46.5 21q13 18 18 47.5t5 99.5v231q-104 -84 -254 -84q-206 0 -325.5 129.5 t-119.5 335.5zM416 479q0 -122 56 -185t155 -63q36 0 73.5 13.5t63.5 36.5v421q-54 29 -135 29q-99 0 -156 -64.5t-57 -187.5z" />
<glyph unicode="r" horiz-adv-x="917" d="M33 -2v186q65 7 88.5 13.5t36.5 19.5q16 16 16 111v250q0 105 -31 122q-21 13 -63 13q-31 0 -47 -2v184q166 80 336 80q120 0 141 -121q41 56 108 91.5t130 35.5q147 0 147 -139q0 -61 -23 -219h-204q-9 58 -25.5 81t-48.5 23q-39 0 -80 -33v-360q0 -100 24.5 -121.5 t124.5 -27.5q8 -1 13 -1v-186q-180 4 -318 4q-233 0 -325 -4z" />
<glyph unicode="s" horiz-adv-x="991" d="M63 182q0 131 11 199h178q14 -94 63 -133q54 -51 166 -51q109 0 109 51q0 25 -11 36t-40 23l-189 70q-89 33 -144 64t-83 68t-37.5 73t-9.5 90q0 134 122 222.5t341 88.5q73 0 150 -12.5t124 -34.5q72 -38 72 -135q0 -87 -17 -187h-174q-10 54 -22 78.5t-33 38.5 q-46 27 -143 27q-84 0 -84 -53q0 -39 49 -54l192 -69q86 -30 139.5 -59t84 -64.5t42 -74.5t11.5 -95q0 -106 -64 -179t-166 -106t-233 -33q-158 0 -256 31q-87 28 -117.5 69t-30.5 111z" />
<glyph unicode="t" horiz-adv-x="772" d="M-10 707v180q133 23 166 92q18 41 45 139q16 56 51.5 84.5t101.5 28.5q65 0 98 -28.5t33 -96.5v-184q116 0 230 -7v-204q-156 -4 -230 -4v-209v-36q-1 -41 -0.5 -61.5t3.5 -53t9.5 -49t18.5 -34.5t31.5 -25.5t46.5 -7.5q73 0 129 13l39 -203q-60 -33 -158 -49.5 t-188 -16.5q-277 0 -277 289q0 119 8 443h-157z" />
<glyph unicode="u" horiz-adv-x="1241" d="M-4 711v184q166 80 336 80q68 0 108.5 -38t40.5 -134q0 -47 -4 -194.5t-4 -217.5q0 -49 11 -80t32.5 -44t39 -17t42.5 -4q83 0 145 35v297q0 107 -30 122q-21 13 -64 13q-29 0 -47 -2v184q166 80 340 80q67 0 106 -38t39 -134q0 -56 -3 -243.5t-3 -211.5q0 -83 14 -110 t66 -27q35 0 64 4v-190q-130 -50 -291 -50q-61 0 -112.5 33t-63.5 103q-51 -62 -133 -99t-176 -37q-170 0 -243 91.5t-73 277.5v234q0 105 -27 122q-26 13 -57 13q-6 0 -26 -1t-27 -1z" />
<glyph unicode="v" horiz-adv-x="1210" d="M10 764v190q144 -4 385 -4q98 0 250 4v-190q-56 -6 -67 -8q-27 -7 -36.5 -17.5t-9.5 -31.5q0 -36 21 -89q107 -280 123 -327q20 54 63.5 167.5t59.5 157.5q18 53 18 91q0 24 -17 37t-31.5 15t-50.5 4q-3 1 -5.5 1h-5.5v190q136 -4 237 -4q128 0 254 4v-190 q-30 -2 -51.5 -8.5t-35.5 -14t-28 -27.5t-21.5 -35t-23.5 -50l-260 -580q-43 -90 -170 -90q-139 0 -180 92l-250 570q-43 97 -72 120q-30 23 -96 23z" />
<glyph unicode="w" horiz-adv-x="1730" d="M27 764v190q94 -4 297 -4q248 0 352 4v-190q-7 0 -27.5 -1t-30 -1.5t-26.5 -2.5t-26 -6t-19 -10t-14.5 -15.5t-4.5 -22.5q0 -11 13 -76q11 -48 39 -153t34 -130q52 156 177 498q20 56 55 86.5t106 30.5q68 0 97 -27t51 -88q12 -34 53 -149t69 -197.5t50 -153.5 q8 33 32.5 130.5t34.5 141.5q11 45 11 87q0 43 -35 49q-54 8 -96 10v190q88 -4 284 -4q125 0 203 4v-190q-73 -4 -94.5 -22.5t-44.5 -92.5l-201 -596q-30 -94 -166 -94t-170 94q-70 202 -153 473q-8 -23 -40.5 -116.5t-62 -170t-76.5 -190.5q-19 -43 -61 -66.5t-102 -23.5 q-143 0 -173 94l-194 606q-18 57 -41 80q-12 12 -33 17t-67 8z" />
<glyph unicode="x" horiz-adv-x="1259" d="M18 0v184q33 2 57.5 8t37 9t31.5 19t23.5 20.5t29.5 31.5l206 222l-182 192q-36 37 -72.5 57t-97.5 21v190q106 -4 309 -4q209 0 318 4v-190q-53 -3 -53 -35q0 -20 39 -59l55 -58l51 58q29 32 29 61q0 30 -49 33v190q92 -4 219 -4q153 0 235 4v-190q-24 -1 -44.5 -5.5 t-33 -9.5t-26.5 -15.5t-19 -15t-16.5 -17.5t-13.5 -15l-203 -211l217 -221q44 -44 74 -57t102 -13v-184q-61 0 -191 1t-153 1q-196 0 -305 -2v184q59 6 59 39q0 7 -3 13.5t-10.5 16t-13 15t-19.5 19t-21 20.5l-52 49l-45 -57q-24 -29 -32.5 -43.5t-8.5 -30.5q0 -18 13.5 -28 t58.5 -13v-184q-102 4 -258 4q-82 0 -242 -4z" />
<glyph unicode="y" horiz-adv-x="1210" d="M12 764v190q140 -4 383 -4q108 0 260 4v-190q-68 -7 -75 -8q-26 -4 -34.5 -16t-8.5 -35q0 -37 38 -123q68 -146 123 -291q16 49 50.5 145t52.5 150q30 86 30 127q0 17 -8 27.5t-25.5 15t-30.5 6t-38 2t-33 0.5v190q132 -4 248 -4q128 0 254 4v-190q-39 -3 -62.5 -10 t-41 -28t-26 -40t-26.5 -65l-219 -578q-88 -230 -134.5 -336.5t-92.5 -163.5q-41 -52 -106.5 -78t-124.5 -26q-82 0 -150 22q-50 19 -85.5 66t-35.5 113q0 67 12 137h191q4 -57 18 -80t56 -23q36 0 73 50q48 79 117 270q-50 0 -79.5 25t-57.5 83l-242 525q-42 90 -76 114 q-32 19 -94 23z" />
<glyph unicode="z" horiz-adv-x="1089" d="M39 0v119l493 643q-118 0 -167 -4q-61 -3 -78 -45q-19 -35 -35 -133h-186q-17 113 -17 231q0 65 37 103t109 38h800v-127l-491 -641q59 -2 137 -2q77 0 133 23q16 7 34 30t28 46q29 66 41 116h172q0 -143 -19 -301q-11 -96 -143 -96h-848z" />
<glyph unicode="{" horiz-adv-x="663" d="M18 532v138q50 5 82.5 16.5t54.5 31t33.5 55t16 80.5t4.5 116v239q0 67 14 122.5t46.5 103t83.5 80t128.5 51t177.5 18.5v-129q-57 0 -93.5 -10t-60.5 -28t-36 -55.5t-16 -81t-4 -114.5v-276q0 -70 -18 -120.5t-55 -82t-79 -50.5t-104 -34q60 -13 101.5 -30.5t79 -49.5 t56.5 -84t19 -125v-282q0 -77 7 -123.5t29 -84.5t64 -53.5t110 -15.5v-133q-228 0 -337 84t-109 264v285q0 145 -40.5 207t-154.5 71z" />
<glyph unicode="|" horiz-adv-x="563" d="M174 -375v1950h213v-1950h-213z" />
<glyph unicode="}" horiz-adv-x="663" d="M4 -250q47 0 80 6t57 21t38 35t22.5 55t11 74t2.5 98v276q0 70 18 120.5t55 82.5t79 51t104 35q-59 12 -101 29.5t-79.5 49t-56.5 84.5t-19 126v281q0 61 -4.5 101.5t-17 76.5t-36 55.5t-61 31t-92.5 11.5v133q228 0 337.5 -84t109.5 -264v-285q0 -144 40 -206t154 -72 v-137q-119 -10 -154.5 -69t-35.5 -230v-240q0 -85 -23 -151t-73.5 -117.5t-140 -79t-214.5 -27.5v129z" />
<glyph unicode="~" horiz-adv-x="1284" d="M119 516q152 205 321 205q51 0 97.5 -16t150.5 -76q56 -32 88 -45t62 -13q48 0 91.5 31t104.5 109l131 -142q-72 -100 -155 -152t-162 -52q-84 0 -197 63q-92 51 -129.5 67.5t-70.5 16.5q-57 0 -103 -33t-92 -106z" />
<glyph unicode="&#xa1;" horiz-adv-x="634" d="M66 -250q0 97 122 807h148q16 -98 34.5 -209.5t29 -176.5t22.5 -136.5t18 -111.5t11.5 -78.5t7.5 -61t2 -37.5q0 -74 -49.5 -122t-147.5 -48q-55 0 -95.5 16t-61.5 43t-31 55.5t-10 59.5zM68 864q0 79 49.5 129.5t128.5 50.5q80 0 130 -48.5t50 -135.5q0 -76 -51 -125 t-131 -49q-77 0 -126.5 50.5t-49.5 127.5z" />
<glyph unicode="&#xa2;" horiz-adv-x="1009" d="M92 446q0 108 31 198t87 152t132.5 100.5t167.5 49.5v219h125v-217q84 -6 162 -24q40 -9 66 -25t41.5 -44t15.5 -67q0 -106 -13 -213h-192q-6 65 -22.5 92.5t-57.5 32.5v-456q108 0 225 57l86 -180q-123 -102 -311 -123v-234h-125v230q-185 11 -301.5 132t-116.5 320z M424 471q0 -156 86 -203v414q-86 -53 -86 -211z" />
<glyph unicode="&#xa3;" horiz-adv-x="1314" d="M43 0v190q138 26 198 85.5t60 197.5q0 9 -1 29t-1 33h-201v184h178q-32 122 -32 219q0 98 30 175.5t93 136.5t169.5 90.5t251.5 31.5q85 0 165.5 -13t121.5 -30q48 -21 70 -57t22 -103q0 -37 -4.5 -125.5t-9.5 -121.5h-182q-6 62 -14.5 95.5t-28.5 58t-53.5 32.5t-90.5 8 q-93 0 -135.5 -46.5t-42.5 -162.5q0 -27 7.5 -100t7.5 -88h303v-184h-289v-27q0 -71 -34.5 -129t-117.5 -121q90 4 250 4q224 0 252 35q27 39 55 135h168q-2 -77 -11 -194.5t-21 -165.5q-18 -72 -123 -72h-1010z" />
<glyph unicode="&#xa4;" horiz-adv-x="1294" d="M96 274l142 142q-78 115 -78 264q0 145 78 268l-142 142l156 157l135 -139q115 78 262 78q142 0 260 -78l135 139l154 -157l-137 -142q76 -94 76 -268q0 -158 -76 -264l137 -142l-154 -157l-135 139q-113 -78 -260 -78q-151 0 -262 78l-135 -141zM379 686 q0 -128 76 -211.5t194 -83.5q113 0 189.5 84t76.5 205q0 123 -76 206t-190 83q-115 0 -192.5 -82t-77.5 -201z" />
<glyph unicode="&#xa5;" horiz-adv-x="1443" d="M37 1151v190q113 -2 319 -2q269 0 371 2v-190q-69 -4 -94 -19t-25 -40q0 -38 29 -86q45 -69 162 -263q28 48 79 140t74 131q27 49 27 88q0 46 -125 49v190q94 -2 350 -2q115 0 199 2v-190q-58 -3 -100 -33q-39 -36 -138 -188l-121 -182h175v-132h-258l-62 -96v-18h320 v-131h-320v-41q0 -56 10 -86q9 -25 45.5 -38.5t135.5 -17.5v-190q-212 4 -367 4q-171 0 -367 -4v190q97 7 126 15.5t42 27.5q15 18 15 99v41h-322v131h322v18l-64 96h-258v132h174l-158 253q-57 95 -100 123q-34 22 -96 27z" />
<glyph unicode="&#xa6;" horiz-adv-x="563" d="M174 -244v690h213v-690h-213zM174 752v692h213v-692h-213z" />
<glyph unicode="&#xa7;" horiz-adv-x="1087" d="M59 586q0 61 22.5 115t80.5 105t147 83q-61 58 -85.5 117.5t-24.5 140.5q0 45 12.5 88.5t42.5 87.5t75 77t117 54t162 21q132 0 244 -39q92 -35 92 -125q0 -103 -16 -205h-178q-6 76 -37.5 109.5t-106.5 33.5q-48 0 -78 -21t-30 -57q0 -42 30.5 -75.5t128.5 -100.5 l113 -75q78 -60 123.5 -100t80 -83.5t47.5 -86.5t13 -97q0 -207 -258 -299q94 -82 122 -142.5t28 -156.5q0 -69 -29.5 -131.5t-85 -112.5t-146.5 -80t-204 -30q-146 0 -252 41q-53 22 -73.5 52t-20.5 87q0 77 14 201h186q3 -79 35 -111q16 -18 48.5 -31.5t74.5 -13.5 q66 0 100.5 25.5t34.5 70.5q0 44 -32.5 80.5t-133.5 116.5l-194 149q-108 84 -148.5 158t-40.5 160zM340 682q0 -47 28 -83.5t111 -98.5l103 -80q73 -55 77 -60q76 50 76 101q0 46 -33.5 89t-123.5 109l-97 72q-34 23 -69 55q-29 -15 -50.5 -41.5t-21.5 -62.5z" />
<glyph unicode="&#xa8;" horiz-adv-x="595" d="M-16 1260q0 59 38 100t101 41q60 0 98.5 -41.5t38.5 -99.5t-39.5 -100t-101.5 -42q-59 0 -97 39.5t-38 102.5zM348 1260q0 59 39 100t102 41q60 0 99 -41.5t39 -99.5t-40 -100t-102 -42q-59 0 -98 40t-39 102z" />
<glyph unicode="&#xa9;" horiz-adv-x="1611" d="M84 694q0 196 96 361.5t262.5 261.5t364.5 96q147 0 280 -56.5t229.5 -151.5t153 -227t56.5 -278q0 -152 -56 -288.5t-151.5 -233.5t-227 -154t-278.5 -57q-206 0 -373 95.5t-261.5 262t-94.5 369.5zM203 694q0 -130 47.5 -246.5t128.5 -200t194.5 -132.5t241.5 -49 q166 0 301.5 81.5t213 224t77.5 316.5q0 133 -45 250t-123 201t-189 133t-239 49q-171 0 -310.5 -83t-218.5 -226.5t-79 -317.5zM389 668q0 209 121 325.5t344 116.5q150 0 221 -33q68 -27 68 -84q0 -63 -19 -168h-133q-6 75 -26 95q-14 21 -39 27.5t-78 6.5 q-92 0 -154.5 -65.5t-62.5 -208.5q0 -76 20.5 -131.5t55 -83.5t70.5 -40.5t75 -12.5q88 0 117 37q28 20 45 94h139q-5 -154 -27 -193q-7 -17 -31 -33.5t-55 -25.5q-98 -35 -217 -35q-206 0 -320 108t-114 304z" />
<glyph unicode="&#xaa;" horiz-adv-x="757" d="M76 743q0 97 75 145t244 48q29 0 43 -2v29q0 47 -17.5 65.5t-64.5 18.5q-53 0 -72 -17.5t-24 -75.5h-121q-14 46 -14 115t63 98q71 33 183 33q108 0 159 -17t80 -46q41 -52 41 -152q0 -27 -1 -117t-1 -94q0 -40 10.5 -54.5t32.5 -14.5q29 0 45 2v-127q-77 -25 -151 -25 q-22 0 -38 2t-34.5 9t-32 23t-20.5 40q-76 -76 -178 -76q-84 0 -145.5 48t-61.5 142zM293 754q0 -28 17 -42t40 -14q39 0 88 17v96q-4 0 -19 1t-20 1q-57 0 -81.5 -14.5t-24.5 -44.5z" />
<glyph unicode="&#xab;" horiz-adv-x="1030" d="M31 459q0 55 51 102l371 326l118 -109l-256 -315l250 -336l-123 -109l-372 347q-39 31 -39 94zM461 459q0 51 51 102l371 326l118 -109l-256 -315l250 -336l-123 -109l-372 347q-39 35 -39 94z" />
<glyph unicode="&#xac;" horiz-adv-x="1284" d="M152 543v202h913v-593h-193v391h-720z" />
<glyph unicode="&#xad;" horiz-adv-x="585" d="M57 406v212h469v-212h-469z" />
<glyph unicode="&#xae;" horiz-adv-x="1611" d="M84 694q0 196 96 361.5t262.5 261.5t364.5 96q147 0 280 -56.5t229.5 -151.5t153 -227t56.5 -278q0 -152 -56 -288.5t-151.5 -233.5t-227 -154t-278.5 -57q-206 0 -373 95.5t-261.5 262t-94.5 369.5zM203 694q0 -130 47.5 -246.5t128.5 -200t194.5 -132.5t241.5 -49 q166 0 301.5 81.5t213 224t77.5 316.5q0 133 -45 250t-123 201t-189 133t-239 49q-171 0 -310.5 -83t-218.5 -226.5t-79 -317.5zM422 297v115q59 0 82 10q7 4 11 9t7.5 21.5t3.5 45.5v405q0 58 -14 72q-16 12 -90 14v113h330q121 0 209 -15q92 -17 141 -74.5t49 -150.5 q0 -179 -154 -239q42 -59 107 -131q20 -25 70 -64q23 -11 55 -14v-117q-3 0 -31 -1t-41 -1q-62 0 -108.5 12.5t-67 25.5t-45.5 36q-78 69 -156 233q-25 0 -37 2v-96q0 -64 11 -78q14 -10 30 -14t58 -4v-115q-34 0 -128 1t-102 1q-18 0 -85.5 -1t-104.5 -1zM743 752 q16 -2 72 -2q113 0 113 102q0 61 -56 82q-27 8 -100 8h-29v-190z" />
<glyph unicode="&#xaf;" horiz-adv-x="595" d="M18 1116v180h560v-180h-560z" />
<glyph unicode="&#xb0;" horiz-adv-x="710" d="M80 1163q0 124 80.5 200.5t197.5 76.5q116 0 193.5 -72.5t77.5 -202.5q0 -124 -79 -197t-196 -73q-118 0 -196 71.5t-78 196.5zM203 1165q0 -71 40.5 -117.5t110.5 -46.5q73 0 114.5 46t41.5 116q0 75 -42 120.5t-114 45.5q-67 0 -109 -46t-42 -118z" />
<glyph unicode="&#xb1;" horiz-adv-x="1284" d="M184 0v199h912v-199h-912zM184 702v193h361v381h196v-381h355v-193h-355v-380h-196v380h-361z" />
<glyph unicode="&#xb2;" d="M80 860v152q171 133 254.5 207.5t115 122t31.5 94.5q0 92 -110 92q-48 0 -72 -17q-27 -24 -27 -106h-149q-10 78 -10 156q0 77 90 116q90 35 223 35q160 0 242 -66.5t82 -179.5q0 -106 -86 -202t-281 -209q26 0 87 1t77 1q53 0 75.5 7.5t32.5 29.5q17 43 23 71h123 q0 -149 -15 -241q-12 -64 -104 -64h-602z" />
<glyph unicode="&#xb3;" d="M96 981q0 97 15 168h143q3 -72 34 -94.5t111 -22.5q113 0 113 76q0 43 -27.5 61.5t-85.5 20.5q-33 2 -98 2v168q63 0 98 4q82 12 82 88q0 38 -24.5 57t-65.5 19q-66 0 -91.5 -22.5t-33.5 -88.5h-143q-8 62 -8 139q0 78 63 107q33 17 104 33t146 16q95 0 160.5 -17t99 -49 t47 -68t13.5 -83q0 -68 -33 -116.5t-125 -86.5q106 -20 150 -66t44 -126q0 -124 -103.5 -190t-289.5 -66q-56 0 -120.5 7.5t-94.5 16.5q-36 14 -58 43.5t-22 69.5z" />
<glyph unicode="&#xb4;" horiz-adv-x="604" d="M86 1122l176 289q42 66 69.5 87.5t63.5 21.5q47 0 84 -32t37 -81q0 -30 -17.5 -58t-58.5 -69l-262 -231z" />
<glyph unicode="&#xb5;" horiz-adv-x="1298" d="M51 711v184q171 80 336 80q69 0 109.5 -38t40.5 -134q0 -47 -3.5 -194.5t-3.5 -217.5q0 -49 11 -80t32.5 -44t39 -17t42.5 -4q82 0 144 35v297q0 106 -29 122q-23 13 -65 13q-30 0 -48 -2v184q166 80 340 80q148 0 148 -172q0 -56 -4 -243.5t-4 -211.5q0 -83 14.5 -110 t65.5 -27q34 0 63 4v-190q-127 -50 -291 -50q-61 0 -112 33t-62 103q-47 -63 -97 -92t-126 -29q-55 0 -92 26q5 -87 12.5 -179t12.5 -145.5t5 -68.5q0 -62 -47 -96.5t-123 -34.5q-52 0 -88 12.5t-52.5 35t-23 45t-6.5 50.5v943q0 104 -28 122q-26 13 -56 13q-7 0 -27 -1 t-28 -1z" />
<glyph unicode="&#xb6;" horiz-adv-x="1148" d="M90 827q0 115 42 214.5t123.5 176.5t215.5 121.5t305 44.5h336v-192q-85 -3 -116.5 -9.5t-43.5 -19.5q-11 -13 -14.5 -42t-3.5 -99q0 -174 3 -368.5t3 -307.5q0 -102 -4 -348q-4 -203 -126 -338.5t-355 -198.5l-56 181q117 47 193.5 131.5t87.5 208.5q8 91 8 276v43 q-25 -2 -72 -2q-86 0 -163.5 20.5t-144 63t-115 104.5t-76 149t-27.5 191z" />
<glyph unicode="&#xb7;" horiz-adv-x="471" d="M55 508q0 77 50.5 128.5t127.5 51.5q80 0 131.5 -50t51.5 -126q0 -86 -50 -135t-130 -49q-79 0 -130 51t-51 129z" />
<glyph unicode="&#xb8;" horiz-adv-x="595" d="M90 -459q106 22 154.5 54.5t48.5 82.5q0 56 -80 103q-43 21 -43 61q0 33 53 168h144q-31 -74 -31 -96q0 -29 39 -51q78 -44 105.5 -79.5t27.5 -92.5q0 -111 -107 -182t-286 -95z" />
<glyph unicode="&#xb9;" d="M156 1618q114 45 229 74q84 22 121 22q41 0 71.5 -26t30.5 -84q0 -34 -1 -106t-1 -128v-268q0 -65 12 -80q15 -22 136 -27v-137q-110 4 -265 4q-191 0 -301 -4v137q117 4 146 29q12 12 12 82v237q0 55 -6 105q-3 33 -33 33q-48 0 -110 -17z" />
<glyph unicode="&#xba;" horiz-adv-x="786" d="M55 874q0 151 95 238.5t251 87.5q163 0 247.5 -83.5t84.5 -229.5q0 -159 -95.5 -246.5t-246.5 -87.5q-166 0 -251 87.5t-85 233.5zM281 887q0 -89 27.5 -127.5t82.5 -38.5q60 0 87.5 36.5t27.5 116.5q0 87 -26 123.5t-85 36.5q-114 0 -114 -147z" />
<glyph unicode="&#xbb;" horiz-adv-x="1030" d="M29 129l256 315l-250 336l123 107l372 -344q39 -35 39 -94q0 -54 -53 -103l-369 -328zM459 129l256 315l-250 336l123 107l373 -344q38 -30 38 -94q0 -56 -51 -103l-370 -328z" />
<glyph unicode="&#xbc;" horiz-adv-x="1904" d="M111 1276q119 42 229 74q77 20 121 20q41 0 71.5 -26t30.5 -84q0 -34 -1 -106t-1 -126v-270q0 -62 12 -80q14 -20 136 -25v-139q-165 6 -265 6q-136 0 -301 -6v139q119 4 146 27q12 14 12 82v237q0 57 -6 107q-3 31 -33 31q-48 0 -110 -17zM575 27l596 1366l138 -54 l-594 -1368zM981 223v121l293 391q54 70 91 94.5t108 24.5q53 0 88.5 -32t35.5 -107q0 -27 -1 -105t-1 -100v-115h136v-172h-136v-10q0 -40 15 -55q8 -12 32.5 -18t81.5 -7v-135q-110 4 -268 4q-134 0 -244 -4v135q109 5 123 25q13 16 13 55v10h-367zM1182 389h166 q0 189 6 234z" />
<glyph unicode="&#xbd;" horiz-adv-x="1904" d="M82 1276q119 42 229 74q77 20 121 20q42 0 72.5 -26t30.5 -84q0 -34 -1.5 -106t-1.5 -126v-270q0 -60 13 -80q14 -20 135 -25v-139q-165 6 -264 6q-136 0 -301 -6v139q118 4 145 27q12 14 12 82v237q0 57 -6 107q-3 31 -33 31q-48 0 -110 -17zM535 27l595 1366l138 -54 l-594 -1368zM1059 0v152q249 194 325 274.5t76 148.5q0 93 -110 93q-48 0 -72 -17q-27 -24 -27 -106h-149q-10 78 -10 155q0 78 90 117q90 35 223 35q160 0 242 -66.5t82 -179.5q0 -106 -86 -202t-281 -209q26 0 87 1t77 1q53 0 75.5 7t32.5 29q17 42 23 72h123 q0 -150 -15 -242q-11 -63 -104 -63h-602z" />
<glyph unicode="&#xbe;" horiz-adv-x="1904" d="M139 637q0 97 15 168h143q3 -71 33.5 -93t111.5 -22q60 0 86.5 18t26.5 56q0 44 -27.5 62t-85.5 20q-33 2 -98 2v170q63 0 98 4q82 12 82 88q0 37 -25 56.5t-65 19.5q-64 0 -90.5 -23.5t-34.5 -87.5h-143q-8 62 -8 137t63 109q35 16 105.5 31.5t144.5 15.5 q77 0 134.5 -11.5t92.5 -30.5t56.5 -47.5t29 -58.5t7.5 -67q0 -68 -33 -117t-125 -86q107 -21 150.5 -67t43.5 -127q0 -124 -103.5 -190t-289.5 -66q-57 0 -121.5 8t-93.5 18q-35 13 -57.5 42t-22.5 69zM633 27l596 1366l137 -54l-594 -1368zM1024 223v121l293 391 q54 70 91 94.5t108 24.5q53 0 88.5 -32t35.5 -107q0 -27 -1 -105t-1 -100v-115h136v-172h-136v-10q0 -40 15 -55q8 -12 32.5 -18t81.5 -7v-135q-110 4 -268 4q-134 0 -244 -4v135q109 5 123 25q13 16 13 55v10h-367zM1225 389h166q0 189 6 234z" />
<glyph unicode="&#xbf;" horiz-adv-x="1005" d="M16 -43q0 148 87 241t319 189q21 9 34.5 23t21 35.5t11 38t7 48t6.5 46.5h162q22 -151 22 -252q0 -59 -41 -96t-113 -68q-82 -34 -118.5 -81t-36.5 -97q0 -29 6 -53.5t21 -49t45.5 -39t74.5 -14.5q86 0 115.5 28.5t34.5 120.5h200q19 -102 19 -182q0 -109 -100 -153 q-46 -21 -135 -35.5t-162 -14.5q-106 1 -189 20t-137 52t-89 80t-50 99.5t-15 113.5zM401 860q0 87 49.5 135.5t131.5 48.5q79 0 128.5 -50.5t49.5 -129.5q0 -77 -49.5 -127.5t-126.5 -50.5q-81 0 -132 48.5t-51 125.5z" />
<glyph unicode="&#xc0;" horiz-adv-x="1568" d="M10 -2v190q102 3 140 41q22 20 39 55t55 138l311 813q35 94 95.5 139t152.5 45q88 0 142.5 -42t84.5 -126l324 -891q23 -65 42 -95t50 -52q36 -23 113 -25v-190q-200 4 -287 4q-243 0 -473 -4v190q81 3 125 19q25 10 33 24t8 35q0 29 -25 109l-12 41h-398l-10 -29 q-31 -86 -31 -123q0 -13 1 -20t10 -18t26 -17q50 -18 150 -21v-190q-208 4 -412 4q-66 0 -254 -4zM485 1780q0 48 31.5 83t75.5 35q37 0 66 -15t79 -68l246 -256l-76 -91l-321 187q-49 28 -75 61.5t-26 63.5zM600 670h240q-82 239 -115 364q-94 -280 -125 -364z" />
<glyph unicode="&#xc1;" horiz-adv-x="1568" d="M10 -2v190q102 3 140 41q22 20 39 55t55 138l311 813q35 94 95.5 139t152.5 45q88 0 142.5 -42t84.5 -126l324 -891q23 -65 42 -95t50 -52q36 -23 113 -25v-190q-200 4 -287 4q-243 0 -473 -4v190q81 3 125 19q25 10 33 24t8 35q0 29 -25 109l-12 41h-398l-10 -29 q-31 -86 -31 -123q0 -13 1 -20t10 -18t26 -17q50 -18 150 -21v-190q-208 4 -412 4q-66 0 -254 -4zM600 670h240q-82 239 -115 364q-94 -280 -125 -364zM604 1556l246 256q52 54 81 69t66 15q43 0 74 -35.5t31 -82.5q0 -69 -98 -125l-324 -187z" />
<glyph unicode="&#xc2;" horiz-adv-x="1568" d="M10 -2v190q102 3 140 41q22 20 39 55t55 138l311 813q35 94 95.5 139t152.5 45q88 0 142.5 -42t84.5 -126l324 -891q23 -65 42 -95t50 -52q36 -23 113 -25v-190q-200 4 -287 4q-243 0 -473 -4v190q81 3 125 19q25 10 33 24t8 35q0 29 -25 109l-12 41h-398l-10 -29 q-31 -86 -31 -123q0 -13 1 -20t10 -18t26 -17q50 -18 150 -21v-190q-208 4 -412 4q-66 0 -254 -4zM455 1542l247 275q45 55 101 55q54 0 104 -53l244 -275l-84 -80l-268 174l-267 -174zM600 670h240q-82 239 -115 364q-94 -280 -125 -364z" />
<glyph unicode="&#xc3;" horiz-adv-x="1568" d="M10 -2v190q102 3 140 41q22 20 39 55t55 138l311 813q35 94 95.5 139t152.5 45q88 0 142.5 -42t84.5 -126l324 -891q23 -65 42 -95t50 -52q36 -23 113 -25v-190q-200 4 -287 4q-243 0 -473 -4v190q81 3 125 19q25 10 33 24t8 35q0 29 -25 109l-12 41h-398l-10 -29 q-31 -86 -31 -123q0 -13 1 -20t10 -18t26 -17q50 -18 150 -21v-190q-208 4 -412 4q-66 0 -254 -4zM436 1532q16 68 41 126t67 102t91 44q47 0 125 -35l88 -34q7 -3 24 -9.5t26.5 -10t23 -6.5t24.5 -3q26 0 46 23.5t48 82.5l105 -28q-21 -125 -70 -201t-119 -76 q-46 0 -145 39l-82 35q-52 23 -84 23q-33 0 -56.5 -22.5t-51.5 -80.5zM600 670h240q-82 239 -115 364q-94 -280 -125 -364z" />
<glyph unicode="&#xc4;" horiz-adv-x="1568" d="M10 -2v190q102 3 140 41q22 20 39 55t55 138l311 813q35 94 95.5 139t152.5 45q88 0 142.5 -42t84.5 -126l324 -891q23 -65 42 -95t50 -52q36 -23 113 -25v-190q-200 4 -287 4q-243 0 -473 -4v190q81 3 125 19q25 10 33 24t8 35q0 29 -25 109l-12 41h-398l-10 -29 q-31 -86 -31 -123q0 -13 1 -20t10 -18t26 -17q50 -18 150 -21v-190q-208 4 -412 4q-66 0 -254 -4zM461 1659q0 59 38.5 99t102.5 40q60 0 98.5 -40.5t38.5 -98.5q0 -59 -39.5 -100t-103.5 -41q-58 0 -96.5 39.5t-38.5 101.5zM600 670h240q-82 239 -115 364 q-94 -280 -125 -364zM850 1659q0 59 38 99t101 40q60 0 98.5 -40.5t38.5 -98.5q0 -59 -39 -100t-102 -41q-59 0 -97 39t-38 102z" />
<glyph unicode="&#xc5;" horiz-adv-x="1568" d="M10 -2v190q102 3 140 41q22 20 39 55t55 138l311 813q35 94 95.5 139t152.5 45q88 0 142.5 -42t84.5 -126l324 -891q23 -65 42 -95t50 -52q36 -23 113 -25v-190q-200 4 -287 4q-243 0 -473 -4v190q81 3 125 19q25 10 33 24t8 35q0 29 -25 109l-12 41h-398l-10 -29 q-31 -86 -31 -123q0 -13 1 -20t10 -18t26 -17q50 -18 150 -21v-190q-208 4 -412 4q-66 0 -254 -4zM598 1647q0 84 59.5 141t143.5 57q88 0 142 -54t54 -140t-57 -143.5t-141 -57.5q-85 0 -143 55.5t-58 141.5zM600 670h240q-82 239 -115 364q-94 -280 -125 -364zM705 1651 q0 -46 26.5 -75.5t67.5 -29.5q38 0 64 28.5t26 76.5q0 47 -26 73.5t-64 26.5q-39 0 -66.5 -27.5t-27.5 -72.5z" />
<glyph unicode="&#xc6;" horiz-adv-x="2217" d="M25 -2v190q39 1 69.5 5.5t53.5 10t43.5 18.5t34 23t30.5 33t28 39.5t31 49.5l416 677q27 52 27 97q0 21 -10.5 31t-34.5 16q-51 10 -160 10v186h1384q76 0 118 -28t42 -78q0 -110 -29 -295h-204q-14 95 -52 125q-27 18 -112 18h-238v-309h51q98 0 127 29q18 23 43 112 h179q-2 -51 -2 -256q0 -172 4 -258h-174q-13 89 -39 117q-20 18 -51 23.5t-87 5.5h-51v-242q0 -80 58 -88q53 -8 149 -8q185 0 248 53q10 9 20.5 27.5t16.5 32.5t15.5 39t12.5 32h187q-6 -271 -39 -358q-28 -78 -199 -78h-1013v188q95 6 118 14q43 14 51 54q5 31 5 94v70 h-439l-41 -70q-37 -55 -37 -104q0 -13 8 -26t21 -17q36 -13 125 -15v-190q-204 4 -371 4q-141 0 -333 -4zM799 670h293v415q0 39 -19 39q-11 0 -20.5 -10.5t-22.5 -36.5q-23 -40 -57 -101t-78 -139t-96 -167z" />
<glyph unicode="&#xc7;" horiz-adv-x="1398" d="M74 668q0 353 199 551t563 198q245 0 358 -53q113 -55 113 -145q0 -123 -29 -283h-209q-14 122 -45 164q-26 32 -71 44.5t-128 12.5q-56 0 -106.5 -15t-98.5 -50t-82.5 -87.5t-55.5 -133.5t-21 -183q0 -87 16.5 -158.5t45.5 -119.5t64.5 -82.5t78 -53.5t82 -27.5 t79.5 -8.5q152 0 207 55q38 38 76 164h213q-10 -247 -43 -324q-28 -64 -143 -106q-119 -50 -328 -56q-16 -43 -16 -61q0 -28 41 -51q81 -46 110 -83.5t29 -97.5q0 -115 -111 -187.5t-299 -98.5l-24 133q109 22 160 55.5t51 85.5q0 61 -84 105q-45 25 -45 65q0 48 41 141 q-282 32 -435 210t-153 481z" />
<glyph unicode="&#xc8;" horiz-adv-x="1333" d="M35 0v188q136 11 158 33q11 12 13.5 37t2.5 92v692q0 103 -12 115q-14 16 -47.5 25t-114.5 16v186h1018q77 0 118 -28t41 -78q0 -119 -26 -285h-197q-18 103 -53 127q-25 19 -107 19h-249v-322h49q100 0 127 29q23 25 43 112h180q-2 -51 -2 -256q0 -172 4 -258h-176 q-14 91 -37 117q-20 19 -50.5 24t-88.5 5h-49v-252q0 -42 12.5 -63t42.5 -25q55 -8 151 -8q184 0 248 57q10 9 20.5 28t16.5 33.5t16.5 42t12.5 33.5h186q-6 -271 -39 -358q-12 -35 -68.5 -56.5t-131.5 -21.5h-1012zM350 1778q0 48 31.5 83t75.5 35q37 0 65.5 -15t79.5 -69 l246 -256l-76 -90l-321 187q-49 28 -75 61.5t-26 63.5z" />
<glyph unicode="&#xc9;" horiz-adv-x="1333" d="M35 0v188q136 11 158 33q11 12 13.5 37t2.5 92v692q0 103 -12 115q-14 16 -47.5 25t-114.5 16v186h1018q77 0 118 -28t41 -78q0 -119 -26 -285h-197q-18 103 -53 127q-25 19 -107 19h-249v-322h49q100 0 127 29q23 25 43 112h180q-2 -51 -2 -256q0 -172 4 -258h-176 q-14 91 -37 117q-20 19 -50.5 24t-88.5 5h-49v-252q0 -42 12.5 -63t42.5 -25q55 -8 151 -8q184 0 248 57q10 9 20.5 28t16.5 33.5t16.5 42t12.5 33.5h186q-6 -271 -39 -358q-12 -35 -68.5 -56.5t-131.5 -21.5h-1012zM479 1556l246 256q52 54 81 69t66 15q43 0 74 -35.5 t31 -82.5q0 -69 -98 -125l-324 -187z" />
<glyph unicode="&#xca;" horiz-adv-x="1333" d="M35 0v188q136 11 158 33q11 12 13.5 37t2.5 92v692q0 103 -12 115q-14 16 -47.5 25t-114.5 16v186h1018q77 0 118 -28t41 -78q0 -119 -26 -285h-197q-18 103 -53 127q-25 19 -107 19h-249v-322h49q100 0 127 29q23 25 43 112h180q-2 -51 -2 -256q0 -172 4 -258h-176 q-14 91 -37 117q-20 19 -50.5 24t-88.5 5h-49v-252q0 -42 12.5 -63t42.5 -25q55 -8 151 -8q184 0 248 57q10 9 20.5 28t16.5 33.5t16.5 42t12.5 33.5h186q-6 -271 -39 -358q-12 -35 -68.5 -56.5t-131.5 -21.5h-1012zM330 1542l248 275q45 55 100 55q54 0 104 -53l244 -275 l-84 -80l-268 174l-266 -174z" />
<glyph unicode="&#xcb;" horiz-adv-x="1333" d="M35 0v188q136 11 158 33q11 12 13.5 37t2.5 92v692q0 103 -12 115q-14 16 -47.5 25t-114.5 16v186h1018q77 0 118 -28t41 -78q0 -119 -26 -285h-197q-18 103 -53 127q-25 19 -107 19h-249v-322h49q100 0 127 29q23 25 43 112h180q-2 -51 -2 -256q0 -172 4 -258h-176 q-14 91 -37 117q-20 19 -50.5 24t-88.5 5h-49v-252q0 -42 12.5 -63t42.5 -25q55 -8 151 -8q184 0 248 57q10 9 20.5 28t16.5 33.5t16.5 42t12.5 33.5h186q-6 -271 -39 -358q-12 -35 -68.5 -56.5t-131.5 -21.5h-1012zM362 1661q0 59 39 99t103 40q60 0 98.5 -40.5t38.5 -98.5 q0 -59 -39.5 -100t-103.5 -41q-58 0 -97 39.5t-39 101.5zM752 1661q0 59 38 99t101 40q60 0 98.5 -40.5t38.5 -98.5q0 -59 -39 -100t-102 -41q-59 0 -97 39t-38 102z" />
<glyph unicode="&#xcc;" horiz-adv-x="788" d="M35 -2v190q83 3 112.5 10t45.5 23q16 19 16 129v697q0 99 -14 118q-11 16 -44.5 23t-115.5 10v188q141 -6 362 -6q117 0 357 6v-188q-59 -2 -93.5 -8t-45 -11.5t-19.5 -15.5q-16 -22 -16 -121v-682q0 -71 3 -97t13 -38q8 -11 19 -17t45 -11.5t94 -8.5v-190q-176 4 -357 4 q-182 0 -362 -4zM94 1778q0 48 31.5 83t75.5 35q37 0 65.5 -15t79.5 -69l246 -256l-76 -90l-321 187q-49 28 -75 61.5t-26 63.5z" />
<glyph unicode="&#xcd;" horiz-adv-x="788" d="M35 -2v190q83 3 112.5 10t45.5 23q16 19 16 129v697q0 99 -14 118q-11 16 -44.5 23t-115.5 10v188q141 -6 362 -6q117 0 357 6v-188q-59 -2 -93.5 -8t-45 -11.5t-19.5 -15.5q-16 -22 -16 -121v-682q0 -71 3 -97t13 -38q8 -11 19 -17t45 -11.5t94 -8.5v-190q-176 4 -357 4 q-182 0 -362 -4zM182 1556l246 256q52 54 81 69t66 15q43 0 74 -35.5t31 -82.5q0 -69 -98 -125l-324 -187z" />
<glyph unicode="&#xce;" horiz-adv-x="788" d="M35 -2v190q83 3 112.5 10t45.5 23q16 19 16 129v697q0 99 -14 118q-11 16 -44.5 23t-115.5 10v188q141 -6 362 -6q117 0 357 6v-188q-59 -2 -93.5 -8t-45 -11.5t-19.5 -15.5q-16 -22 -16 -121v-682q0 -71 3 -97t13 -38q8 -11 19 -17t45 -11.5t94 -8.5v-190q-176 4 -357 4 q-182 0 -362 -4zM53 1542l248 275q45 55 100 55t105 -53l244 -275l-84 -80l-269 174l-266 -174z" />
<glyph unicode="&#xcf;" horiz-adv-x="788" d="M35 -2v190q83 3 112.5 10t45.5 23q16 19 16 129v697q0 99 -14 118q-11 16 -44.5 23t-115.5 10v188q141 -6 362 -6q117 0 357 6v-188q-59 -2 -93.5 -8t-45 -11.5t-19.5 -15.5q-16 -22 -16 -121v-682q0 -71 3 -97t13 -38q8 -11 19 -17t45 -11.5t94 -8.5v-190q-176 4 -357 4 q-182 0 -362 -4zM72 1661q0 59 38.5 99t102.5 40q60 0 98.5 -40.5t38.5 -98.5q0 -59 -39.5 -100t-103.5 -41q-58 0 -96.5 39.5t-38.5 101.5zM461 1661q0 59 38 99t101 40q60 0 98.5 -40.5t38.5 -98.5q0 -59 -39 -100t-102 -41q-59 0 -97 39t-38 102z" />
<glyph unicode="&#xd0;" horiz-adv-x="1527" d="M29 641v166h180v233q0 92 -8 113q-12 26 -39.5 33t-126.5 12v186h444q308 0 462 -24t253 -82q262 -156 262 -559q0 -232 -77 -385t-242 -240q-90 -46 -236 -70t-313 -24h-553v188q84 3 114.5 10t43.5 23q16 29 16 121v299h-180zM580 348q0 -56 24 -72q31 -24 98 -24 q192 0 274.5 99.5t82.5 340.5q0 129 -21.5 211t-72.5 129.5t-124 65.5t-188 18h-73v-309h307v-166h-307v-293z" />
<glyph unicode="&#xd1;" horiz-adv-x="1597" d="M31 1198v188q90 -4 334 -4q190 0 262 4q428 -631 547 -821q-4 105 -6.5 247.5t-4.5 174.5q-5 90 -8.5 120.5t-13.5 49.5q-13 19 -48.5 28.5t-123.5 12.5v188q222 -4 317 -4q77 0 295 4v-188q-79 -4 -108 -11t-48 -24q-13 -12 -17.5 -46t-6.5 -130q-2 -86 -2 -459 q0 -33 1 -184t1 -197q0 -88 -41.5 -130t-138.5 -42q-65 0 -111.5 30t-85.5 89q-495 746 -584 887q3 -403 9 -584q3 -99 6.5 -131t13.5 -45q14 -16 44.5 -22.5t119.5 -10.5v-190q-218 4 -301 4q-89 0 -297 -4v190q89 4 119 12.5t41 28.5q11 22 14 170q6 307 6 586 q0 144 -12 168q-4 7 -9 13t-13 10t-15 7t-19.5 5.5t-19.5 4t-23 2.5t-23 1t-25 1t-25 1zM492 1532q16 69 40.5 126.5t66.5 101.5t91 44q48 0 125 -35l88 -34q7 -3 24 -9.5t26.5 -10t23 -6.5t24.5 -3q26 0 46.5 24t48.5 82l104 -28q-21 -125 -69.5 -201t-118.5 -76 q-47 0 -146 39l-82 35q-52 23 -84 23q-33 0 -56.5 -22.5t-51.5 -80.5z" />
<glyph unicode="&#xd2;" horiz-adv-x="1552" d="M72 686q0 225 91.5 391t254.5 252t377 86q353 0 520.5 -183t167.5 -517q0 -185 -55 -329t-152 -233.5t-224 -135.5t-278 -46q-175 0 -310 52t-220.5 147.5t-128.5 225.5t-43 290zM461 1778q0 48 31 83t75 35q37 0 66 -15.5t80 -68.5l245 -256l-75 -90l-322 187 q-49 28 -74.5 61t-25.5 64zM463 715q0 -253 81 -365t232 -112q307 0 307 464q0 239 -74 347t-229 108q-154 0 -235.5 -114t-81.5 -328z" />
<glyph unicode="&#xd3;" horiz-adv-x="1552" d="M72 686q0 225 91.5 391t254.5 252t377 86q353 0 520.5 -183t167.5 -517q0 -185 -55 -329t-152 -233.5t-224 -135.5t-278 -46q-175 0 -310 52t-220.5 147.5t-128.5 225.5t-43 290zM463 715q0 -253 81 -365t232 -112q307 0 307 464q0 239 -74 347t-229 108 q-154 0 -235.5 -114t-81.5 -328zM549 1556l246 256q52 54 81 69t66 15q43 0 74 -35.5t31 -82.5q0 -68 -99 -125l-323 -187z" />
<glyph unicode="&#xd4;" horiz-adv-x="1552" d="M72 686q0 225 91.5 391t254.5 252t377 86q353 0 520.5 -183t167.5 -517q0 -185 -55 -329t-152 -233.5t-224 -135.5t-278 -46q-175 0 -310 52t-220.5 147.5t-128.5 225.5t-43 290zM438 1542l248 275q45 55 100 55t105 -53l244 -275l-84 -80l-269 174l-266 -174zM463 715 q0 -253 81 -365t232 -112q307 0 307 464q0 239 -74 347t-229 108q-154 0 -235.5 -114t-81.5 -328z" />
<glyph unicode="&#xd5;" horiz-adv-x="1552" d="M72 686q0 225 91.5 391t254.5 252t377 86q353 0 520.5 -183t167.5 -517q0 -185 -55 -329t-152 -233.5t-224 -135.5t-278 -46q-175 0 -310 52t-220.5 147.5t-128.5 225.5t-43 290zM424 1532q16 68 41 126t67 102t91 44q47 0 125 -35l88 -34q7 -3 24 -9.5t26.5 -10t23 -6.5 t24.5 -3q26 0 46 23.5t48 82.5l105 -28q-21 -125 -70 -201t-119 -76q-46 0 -145 39l-82 35q-52 23 -84 23q-33 0 -57 -22.5t-52 -80.5zM463 715q0 -253 81 -365t232 -112q307 0 307 464q0 239 -74 347t-229 108q-154 0 -235.5 -114t-81.5 -328z" />
<glyph unicode="&#xd6;" horiz-adv-x="1552" d="M72 686q0 225 91.5 391t254.5 252t377 86q353 0 520.5 -183t167.5 -517q0 -185 -55 -329t-152 -233.5t-224 -135.5t-278 -46q-175 0 -310 52t-220.5 147.5t-128.5 225.5t-43 290zM463 715q0 -253 81 -365t232 -112q307 0 307 464q0 239 -74 347t-229 108 q-154 0 -235.5 -114t-81.5 -328zM463 1661q0 59 38.5 99t102.5 40q60 0 98.5 -40.5t38.5 -98.5q0 -59 -39.5 -100t-103.5 -41q-58 0 -96.5 39.5t-38.5 101.5zM852 1661q0 59 38 99t101 40q60 0 98.5 -40.5t38.5 -98.5q0 -59 -39 -100t-102 -41q-59 0 -97 39t-38 102z" />
<glyph unicode="&#xd7;" horiz-adv-x="1232" d="M197 950l139 140l280 -297l277 297l137 -129l-280 -308l286 -307l-137 -139l-285 299l-276 -299l-135 131l284 309z" />
<glyph unicode="&#xd8;" horiz-adv-x="1552" d="M72 686q0 225 91.5 391t254.5 252t377 86q204 0 354 -67l121 168l125 -89l-117 -159q205 -179 205 -553q0 -185 -55 -329t-152 -233.5t-224 -135.5t-278 -46q-224 0 -379 82l-116 -159l-125 83l118 164q-200 188 -200 545zM463 715q0 -152 33 -264l471 647 q-68 59 -187 59q-154 0 -235.5 -114t-81.5 -328zM580 307q72 -69 196 -69q307 0 307 464q0 155 -30 254z" />
<glyph unicode="&#xd9;" horiz-adv-x="1630" d="M27 1198v188q164 -4 317 -4q274 0 434 4v-188q-153 -2 -176 -35q-17 -17 -20 -102q-2 -76 -2 -416q0 -195 34 -283q48 -129 256 -129q214 0 277 99q25 38 37.5 95.5t15 102t2.5 117.5q0 200 -8 391q-4 65 -8.5 91.5t-20.5 37.5q-17 16 -52.5 22t-111.5 9v188 q76 -2 359 -2q20 0 114.5 1t133.5 1v-188q-86 -7 -118.5 -18t-43.5 -29q-19 -36 -19 -129v-420q0 -188 -28 -290t-96 -179q-68 -79 -198.5 -122.5t-287.5 -43.5q-186 0 -323 51.5t-201 147.5q-45 69 -65.5 170t-20.5 297q0 107 1 253.5t1 155.5q0 92 -12 113 q-13 20 -47.5 29.5t-122.5 13.5zM549 1778q0 48 31 83t75 35q37 0 66 -15.5t80 -68.5l246 -256l-76 -90l-322 187q-49 28 -74.5 61t-25.5 64z" />
<glyph unicode="&#xda;" horiz-adv-x="1630" d="M27 1198v188q164 -4 317 -4q274 0 434 4v-188q-153 -2 -176 -35q-17 -17 -20 -102q-2 -76 -2 -416q0 -195 34 -283q48 -129 256 -129q214 0 277 99q25 38 37.5 95.5t15 102t2.5 117.5q0 200 -8 391q-4 65 -8.5 91.5t-20.5 37.5q-17 16 -52.5 22t-111.5 9v188 q76 -2 359 -2q20 0 114.5 1t133.5 1v-188q-86 -7 -118.5 -18t-43.5 -29q-19 -36 -19 -129v-420q0 -188 -28 -290t-96 -179q-68 -79 -198.5 -122.5t-287.5 -43.5q-186 0 -323 51.5t-201 147.5q-45 69 -65.5 170t-20.5 297q0 107 1 253.5t1 155.5q0 92 -12 113 q-13 20 -47.5 29.5t-122.5 13.5zM676 1556l246 256q52 54 81 69t66 15q43 0 74 -35.5t31 -82.5q0 -68 -99 -125l-323 -187z" />
<glyph unicode="&#xdb;" horiz-adv-x="1630" d="M27 1198v188q164 -4 317 -4q274 0 434 4v-188q-153 -2 -176 -35q-17 -17 -20 -102q-2 -76 -2 -416q0 -195 34 -283q48 -129 256 -129q214 0 277 99q25 38 37.5 95.5t15 102t2.5 117.5q0 200 -8 391q-4 65 -8.5 91.5t-20.5 37.5q-17 16 -52.5 22t-111.5 9v188 q76 -2 359 -2q20 0 114.5 1t133.5 1v-188q-86 -7 -118.5 -18t-43.5 -29q-19 -36 -19 -129v-420q0 -188 -28 -290t-96 -179q-68 -79 -198.5 -122.5t-287.5 -43.5q-186 0 -323 51.5t-201 147.5q-45 69 -65.5 170t-20.5 297q0 107 1 253.5t1 155.5q0 92 -12 113 q-13 20 -47.5 29.5t-122.5 13.5zM508 1542l248 275q45 55 100 55t105 -53l243 -275l-84 -80l-268 174l-266 -174z" />
<glyph unicode="&#xdc;" horiz-adv-x="1630" d="M27 1198v188q164 -4 317 -4q274 0 434 4v-188q-153 -2 -176 -35q-17 -17 -20 -102q-2 -76 -2 -416q0 -195 34 -283q48 -129 256 -129q214 0 277 99q25 38 37.5 95.5t15 102t2.5 117.5q0 200 -8 391q-4 65 -8.5 91.5t-20.5 37.5q-17 16 -52.5 22t-111.5 9v188 q76 -2 359 -2q20 0 114.5 1t133.5 1v-188q-86 -7 -118.5 -18t-43.5 -29q-19 -36 -19 -129v-420q0 -188 -28 -290t-96 -179q-68 -79 -198.5 -122.5t-287.5 -43.5q-186 0 -323 51.5t-201 147.5q-45 69 -65.5 170t-20.5 297q0 107 1 253.5t1 155.5q0 92 -12 113 q-13 20 -47.5 29.5t-122.5 13.5zM539 1661q0 59 38.5 99t102.5 40q60 0 98.5 -40.5t38.5 -98.5q0 -59 -39.5 -100t-103.5 -41q-58 0 -96.5 39.5t-38.5 101.5zM928 1661q0 59 38 99t101 40q60 0 98.5 -40.5t38.5 -98.5q0 -59 -39 -100t-102 -41q-59 0 -97 39t-38 102z" />
<glyph unicode="&#xdd;" horiz-adv-x="1423" d="M12 1198v188q234 -4 324 -4q175 0 383 4v-188q-73 -4 -99 -19t-26 -42q0 -31 31 -90q110 -187 161 -283q29 55 86 155.5t78 139.5q29 56 29 86q0 24 -25.5 38t-101.5 15v188q96 -4 360 -4q113 0 199 4v-188q-65 -3 -96 -31q-31 -22 -144 -198l-284 -432v-207 q0 -58 10 -88q7 -23 44.5 -36.5t139.5 -17.5v-190q-222 4 -372 4q-169 0 -377 -4v190q103 7 132.5 15t39.5 26q12 17 12 101v205l-309 507q-34 57 -54 84t-44 43q-40 25 -97 29zM573 1556l246 256q52 53 81.5 68.5t66.5 15.5q42 0 73 -35t31 -83q0 -69 -98 -125l-324 -187z " />
<glyph unicode="&#xde;" horiz-adv-x="1357" d="M35 -2v190q83 3 112.5 10t45.5 23q16 19 16 129v697q0 99 -14 118q-11 16 -44.5 23t-115.5 10v188q141 -6 362 -6q117 0 357 6v-188q-92 -3 -121 -8.5t-41 -20.5t-12 -47v-14h18q253 0 365 -23q154 -28 236.5 -117.5t82.5 -232.5q0 -201 -132 -315.5t-402 -114.5 q-119 0 -168 4v-12q0 -52 16 -72q37 -33 184 -37v-190q-176 4 -383 4q-182 0 -362 -4zM580 537q33 -2 106 -2q114 0 168.5 40.5t54.5 131.5q0 40 -13.5 69t-36 46t-59.5 26.5t-74.5 12.5t-90.5 3h-55v-327z" />
<glyph unicode="&#xdf;" horiz-adv-x="1355" d="M14 707v180q87 16 119 55q28 24 37 92q18 134 55 209.5t90 126.5q69 68 175.5 98.5t201.5 30.5q213 0 312.5 -77.5t99.5 -209.5q0 -131 -103 -243q-5 -6 -16.5 -18t-16 -17l-13.5 -15t-12.5 -14.5t-10 -12.5t-9 -13.5t-5.5 -12t-4 -12.5t-1 -12q0 -34 37 -68 q17 -16 63 -54t89 -75q103 -87 139.5 -159.5t36.5 -153.5q0 -163 -106 -262t-320 -99q-127 0 -215 43q-24 14 -40.5 47t-16.5 76q0 113 12 201h151q3 -9 9 -27.5t9.5 -27t10 -19t14.5 -16.5q35 -25 72 -25q27 0 47.5 16t20.5 37q0 37 -15.5 63.5t-68.5 66.5 q-108 81 -160 133q-43 43 -67.5 87t-24.5 109q0 58 29 114t88 126q86 102 86 166q0 39 -34.5 71.5t-90.5 32.5q-45 0 -82 -27.5t-51 -80.5q-21 -76 -21 -213v-637q0 -216 8 -289q-114 4 -164 4q-165 0 -325 -4v186q51 3 77 7.5t41.5 20.5t19 38t3.5 67v390h-160z" />
<glyph unicode="&#xe0;" horiz-adv-x="1114" d="M49 272q0 151 116.5 224t383.5 73q53 0 69 -2v47q0 73 -25.5 102t-100.5 29q-84 0 -115.5 -28t-36.5 -115h-197q-16 86 -16 176q0 56 24.5 91.5t73.5 60.5q46 23 129.5 38t157.5 15q119 0 199 -15.5t115 -35t61 -49.5q65 -68 65 -234q0 -45 -1 -183.5t-1 -143.5 q0 -62 18.5 -86.5t53.5 -24.5q43 0 70 4v-197q-48 -16 -119 -26t-121 -10q-35 0 -59 3t-54 13t-51 34t-33 62q-117 -117 -282 -117q-61 0 -117 17t-103 51.5t-75.5 93t-28.5 133.5zM268 1407q0 49 38 81t85 32q35 0 63 -22t68 -87l176 -289l-92 -73l-260 231q-42 42 -60 70 t-18 57zM389 289q0 -43 28.5 -64.5t65.5 -21.5q74 0 135 26v146q-20 4 -63 4q-90 0 -128 -22t-38 -68z" />
<glyph unicode="&#xe1;" horiz-adv-x="1114" d="M49 272q0 151 116.5 224t383.5 73q53 0 69 -2v47q0 73 -25.5 102t-100.5 29q-84 0 -115.5 -28t-36.5 -115h-197q-16 86 -16 176q0 56 24.5 91.5t73.5 60.5q46 23 129.5 38t157.5 15q119 0 199 -15.5t115 -35t61 -49.5q65 -68 65 -234q0 -45 -1 -183.5t-1 -143.5 q0 -62 18.5 -86.5t53.5 -24.5q43 0 70 4v-197q-48 -16 -119 -26t-121 -10q-35 0 -59 3t-54 13t-51 34t-33 62q-117 -117 -282 -117q-61 0 -117 17t-103 51.5t-75.5 93t-28.5 133.5zM389 289q0 -43 28.5 -64.5t65.5 -21.5q74 0 135 26v146q-20 4 -63 4q-90 0 -128 -22 t-38 -68zM389 1122l176 289q42 66 69.5 87.5t63.5 21.5q47 0 84 -32t37 -81q0 -30 -17.5 -58t-58.5 -69l-262 -231z" />
<glyph unicode="&#xe2;" horiz-adv-x="1114" d="M49 272q0 151 116.5 224t383.5 73q53 0 69 -2v47q0 73 -25.5 102t-100.5 29q-84 0 -115.5 -28t-36.5 -115h-197q-16 86 -16 176q0 56 24.5 91.5t73.5 60.5q46 23 129.5 38t157.5 15q119 0 199 -15.5t115 -35t61 -49.5q65 -68 65 -234q0 -45 -1 -183.5t-1 -143.5 q0 -62 18.5 -86.5t53.5 -24.5q43 0 70 4v-197q-48 -16 -119 -26t-121 -10q-35 0 -59 3t-54 13t-51 34t-33 62q-117 -117 -282 -117q-61 0 -117 17t-103 51.5t-75.5 93t-28.5 133.5zM219 1106l223 321q39 60 101 60t104 -55l217 -324l-98 -74l-227 209l-226 -209zM389 289 q0 -43 28.5 -64.5t65.5 -21.5q74 0 135 26v146q-20 4 -63 4q-90 0 -128 -22t-38 -68z" />
<glyph unicode="&#xe3;" horiz-adv-x="1114" d="M49 272q0 151 116.5 224t383.5 73q53 0 69 -2v47q0 73 -25.5 102t-100.5 29q-84 0 -115.5 -28t-36.5 -115h-197q-16 86 -16 176q0 56 24.5 91.5t73.5 60.5q46 23 129.5 38t157.5 15q119 0 199 -15.5t115 -35t61 -49.5q65 -68 65 -234q0 -45 -1 -183.5t-1 -143.5 q0 -62 18.5 -86.5t53.5 -24.5q43 0 70 4v-197q-48 -16 -119 -26t-121 -10q-35 0 -59 3t-54 13t-51 34t-33 62q-117 -117 -282 -117q-61 0 -117 17t-103 51.5t-75.5 93t-28.5 133.5zM221 1120q18 70 42 127t66.5 101.5t92.5 44.5q46 0 129 -35l59 -29q63 -29 99 -29 q26 0 45.5 24t48.5 83l102 -29q-20 -123 -68 -198.5t-118 -75.5q-64 0 -146 39l-57 24q-59 23 -88 23q-33 0 -55.5 -21t-50.5 -79zM389 289q0 -43 28.5 -64.5t65.5 -21.5q74 0 135 26v146q-20 4 -63 4q-90 0 -128 -22t-38 -68z" />
<glyph unicode="&#xe4;" horiz-adv-x="1114" d="M49 272q0 151 116.5 224t383.5 73q53 0 69 -2v47q0 73 -25.5 102t-100.5 29q-84 0 -115.5 -28t-36.5 -115h-197q-16 86 -16 176q0 56 24.5 91.5t73.5 60.5q46 23 129.5 38t157.5 15q119 0 199 -15.5t115 -35t61 -49.5q65 -68 65 -234q0 -45 -1 -183.5t-1 -143.5 q0 -62 18.5 -86.5t53.5 -24.5q43 0 70 4v-197q-48 -16 -119 -26t-121 -10q-35 0 -59 3t-54 13t-51 34t-33 62q-117 -117 -282 -117q-61 0 -117 17t-103 51.5t-75.5 93t-28.5 133.5zM209 1260q0 59 38 100t101 41q60 0 98.5 -41.5t38.5 -99.5t-39.5 -100t-101.5 -42 q-59 0 -97 39.5t-38 102.5zM389 289q0 -43 28.5 -64.5t65.5 -21.5q74 0 135 26v146q-20 4 -63 4q-90 0 -128 -22t-38 -68zM573 1260q0 59 39.5 100t102.5 41q60 0 98.5 -41.5t38.5 -99.5t-39.5 -100t-101.5 -42q-59 0 -98.5 40t-39.5 102z" />
<glyph unicode="&#xe5;" horiz-adv-x="1114" d="M49 272q0 151 116.5 224t383.5 73q53 0 69 -2v47q0 73 -25.5 102t-100.5 29q-84 0 -115.5 -28t-36.5 -115h-197q-16 86 -16 176q0 56 24.5 91.5t73.5 60.5q46 23 129.5 38t157.5 15q119 0 199 -15.5t115 -35t61 -49.5q65 -68 65 -234q0 -45 -1 -183.5t-1 -143.5 q0 -62 18.5 -86.5t53.5 -24.5q43 0 70 4v-197q-48 -16 -119 -26t-121 -10q-35 0 -59 3t-54 13t-51 34t-33 62q-117 -117 -282 -117q-61 0 -117 17t-103 51.5t-75.5 93t-28.5 133.5zM346 1255q0 85 59.5 142t143.5 57q88 0 142 -54t54 -140q0 -84 -57.5 -141.5t-140.5 -57.5 q-85 0 -143 54.5t-58 139.5zM389 289q0 -43 28.5 -64.5t65.5 -21.5q74 0 135 26v146q-20 4 -63 4q-90 0 -128 -22t-38 -68zM453 1260q0 -44 26.5 -73.5t67.5 -29.5q38 0 64 28.5t26 74.5q0 49 -26 75.5t-64 26.5q-39 0 -66.5 -27.5t-27.5 -74.5z" />
<glyph unicode="&#xe6;" horiz-adv-x="1603" d="M49 285q0 155 120 226t392 71h47v32q0 70 -24.5 100.5t-91.5 30.5q-81 0 -113.5 -27.5t-38.5 -107.5h-201q-16 86 -16 168q0 110 98 152q50 23 129.5 38t155.5 15q138 0 216 -25.5t118 -78.5q30 43 107.5 73.5t164.5 30.5q110 0 193 -34t132.5 -95t74 -139t24.5 -172 q0 -83 -31 -119q-30 -37 -106 -37h-459v-10q0 -61 53 -100t152 -39q150 0 319 79l99 -192q-91 -71 -214.5 -112.5t-267.5 -41.5q-203 0 -329 117q-72 -54 -158.5 -83.5t-220.5 -29.5q-61 0 -117 18.5t-103 55t-75.5 98t-28.5 138.5zM389 293q0 -86 109 -86q83 0 151 37 q-24 44 -28 143h-60q-95 0 -133.5 -22.5t-38.5 -71.5zM944 586l268 6v29q0 55 -30 85.5t-88 30.5q-142 0 -150 -151z" />
<glyph unicode="&#xe7;" horiz-adv-x="1019" d="M63 453q0 125 40 226.5t111 167.5t166 101t206 35q141 0 227 -27q68 -22 99.5 -53t31.5 -90q0 -121 -16 -217h-201q-11 95 -47 117q-23 20 -88 20q-31 0 -60 -12.5t-56 -40t-43.5 -79.5t-16.5 -122q0 -77 19 -129t52.5 -76t66.5 -32.5t75 -8.5q111 0 250 66l92 -190 q-70 -59 -168 -93.5t-199 -42.5q-16 -40 -16 -59q0 -29 39 -51q78 -44 105.5 -79.5t27.5 -92.5q0 -111 -107 -182t-286 -95l-25 127q106 22 154.5 54.5t48.5 82.5q0 56 -80 103q-43 21 -43 61q0 37 39 135q-178 27 -288 153t-110 323z" />
<glyph unicode="&#xe8;" horiz-adv-x="1085" d="M63 455q0 250 144.5 389t378.5 139q217 0 325.5 -115.5t108.5 -306.5q0 -34 -9 -69t-22 -50q-31 -36 -108 -36h-473v-15q0 -61 57 -107t153 -46q161 0 330 79l96 -192q-90 -70 -217.5 -112t-271.5 -42q-139 0 -250 57t-176.5 168t-65.5 259zM317 1407q0 49 38 81t85 32 q35 0 63 -22t68 -87l177 -289l-93 -73l-260 231q-42 42 -60 70t-18 57zM408 604l288 6v21q0 48 -35 80t-92 32q-67 0 -112 -33.5t-49 -105.5z" />
<glyph unicode="&#xe9;" horiz-adv-x="1085" d="M63 455q0 250 144.5 389t378.5 139q217 0 325.5 -115.5t108.5 -306.5q0 -34 -9 -69t-22 -50q-31 -36 -108 -36h-473v-15q0 -61 57 -107t153 -46q161 0 330 79l96 -192q-90 -70 -217.5 -112t-271.5 -42q-139 0 -250 57t-176.5 168t-65.5 259zM408 604l288 6v21 q0 48 -35 80t-92 32q-67 0 -112 -33.5t-49 -105.5zM424 1122l176 289q42 66 69.5 87.5t63.5 21.5q47 0 84 -32t37 -81q0 -30 -17.5 -58t-58.5 -69l-262 -231z" />
<glyph unicode="&#xea;" horiz-adv-x="1085" d="M63 455q0 250 144.5 389t378.5 139q217 0 325.5 -115.5t108.5 -306.5q0 -34 -9 -69t-22 -50q-31 -36 -108 -36h-473v-15q0 -61 57 -107t153 -46q161 0 330 79l96 -192q-90 -70 -217.5 -112t-271.5 -42q-139 0 -250 57t-176.5 168t-65.5 259zM242 1106l223 321 q39 60 100 60q63 0 105 -55l217 -324l-99 -74l-227 209l-225 -209zM408 604l288 6v21q0 48 -35 80t-92 32q-67 0 -112 -33.5t-49 -105.5z" />
<glyph unicode="&#xeb;" horiz-adv-x="1085" d="M63 455q0 250 144.5 389t378.5 139q217 0 325.5 -115.5t108.5 -306.5q0 -34 -9 -69t-22 -50q-31 -36 -108 -36h-473v-15q0 -61 57 -107t153 -46q161 0 330 79l96 -192q-90 -70 -217.5 -112t-271.5 -42q-139 0 -250 57t-176.5 168t-65.5 259zM256 1260q0 59 38 100t101 41 q60 0 98.5 -41.5t38.5 -99.5t-39.5 -100t-101.5 -42q-59 0 -97 39.5t-38 102.5zM408 604l288 6v21q0 48 -35 80t-92 32q-67 0 -112 -33.5t-49 -105.5zM621 1260q0 59 39 100t102 41q60 0 98.5 -41.5t38.5 -99.5t-39.5 -100t-101.5 -42q-59 0 -98 40t-39 102z" />
<glyph unicode="&#xec;" horiz-adv-x="679" d="M33 -2v186q65 7 88.5 13.5t36.5 19.5q16 16 16 111v250q0 105 -31 122q-21 13 -63 13q-31 0 -47 -2v184q166 80 338 80q151 0 151 -172q0 -62 -4 -225t-4 -248q0 -91 21 -115q22 -22 124 -31v-186q-180 4 -301 4q-233 0 -325 -4zM51 1407q0 49 38 81t85 32q35 0 63 -22 t68 -87l176 -289l-92 -73l-260 231q-42 42 -60 70t-18 57z" />
<glyph unicode="&#xed;" horiz-adv-x="679" d="M33 -2v186q65 7 88.5 13.5t36.5 19.5q16 16 16 111v250q0 105 -31 122q-21 13 -63 13q-31 0 -47 -2v184q166 80 338 80q151 0 151 -172q0 -62 -4 -225t-4 -248q0 -91 21 -115q22 -22 124 -31v-186q-180 4 -301 4q-233 0 -325 -4zM135 1122l176 289q42 66 69.5 87.5 t63.5 21.5q47 0 84 -32t37 -81q0 -30 -17.5 -58t-58.5 -69l-262 -231z" />
<glyph unicode="&#xee;" horiz-adv-x="679" d="M-12 1106l223 321q39 60 100 60q63 0 105 -55l217 -324l-98 -74l-228 209l-225 -209zM33 -2v186q65 7 88.5 13.5t36.5 19.5q16 16 16 111v250q0 105 -31 122q-21 13 -63 13q-31 0 -47 -2v184q166 80 338 80q151 0 151 -172q0 -62 -4 -225t-4 -248q0 -91 21 -115 q22 -22 124 -31v-186q-180 4 -301 4q-233 0 -325 -4z" />
<glyph unicode="&#xef;" horiz-adv-x="679" d="M-16 1260q0 59 38 100t101 41q60 0 98.5 -41.5t38.5 -99.5t-39.5 -100t-101.5 -42q-59 0 -97 39.5t-38 102.5zM33 -2v186q65 7 88.5 13.5t36.5 19.5q16 16 16 111v250q0 105 -31 122q-21 13 -63 13q-31 0 -47 -2v184q166 80 338 80q151 0 151 -172q0 -62 -4 -225t-4 -248 q0 -91 21 -115q22 -22 124 -31v-186q-180 4 -301 4q-233 0 -325 -4zM348 1260q0 59 39 100t102 41q60 0 99 -41.5t39 -99.5t-40 -100t-102 -42q-59 0 -98 40t-39 102z" />
<glyph unicode="&#xf0;" horiz-adv-x="1193" d="M63 432q0 103 30.5 191t89 154.5t150 104.5t206.5 38q83 0 139 -33q-23 88 -94 180l-195 -115l-70 115l187 111q-89 95 -225 174l120 166q214 -77 349 -193l161 96l72 -114l-131 -80q139 -143 210 -316.5t71 -398.5q0 -244 -148 -392.5t-397 -148.5q-129 0 -231 37.5 t-165 102t-96 146.5t-33 175zM416 483q0 -133 50.5 -191.5t143.5 -58.5q72 0 122 54.5t50 154.5q0 127 -39.5 188.5t-140.5 61.5q-84 0 -135 -56.5t-51 -152.5z" />
<glyph unicode="&#xf1;" horiz-adv-x="1282" d="M33 -2v186q65 7 88.5 13.5t36.5 19.5q16 16 16 111v250q0 105 -31 122q-21 13 -63 13q-31 0 -47 -2v184q166 80 336 80q130 0 143 -144q60 67 153.5 106.5t176.5 39.5q129 0 198 -66q40 -38 57 -102t17 -172v-309q0 -89 10 -105t35.5 -24.5t97.5 -14.5v-186 q-172 4 -278 4q-119 0 -299 -4v186q59 10 78 29q16 16 16 119v213q0 95 -22 127.5t-99 32.5q-53 0 -139 -27v-348v-25v-43.5t3 -29.5t7.5 -21.5t16.5 -11.5t26 -9.5t39 -5.5v-186q-180 4 -248 4q-233 0 -325 -4zM299 1120q18 70 42 127t66.5 101.5t92.5 44.5q46 0 129 -35 l59 -29q63 -29 98 -29q26 0 46.5 24.5t48.5 82.5l102 -29q-20 -123 -68 -198.5t-118 -75.5q-64 0 -146 39l-57 24q-59 23 -88 23q-34 0 -56.5 -21.5t-50.5 -78.5z" />
<glyph unicode="&#xf2;" horiz-adv-x="1196" d="M63 473q0 234 151.5 372t395.5 138q256 0 389.5 -131.5t133.5 -359.5q0 -124 -41.5 -224t-114.5 -164.5t-171 -98.5t-212 -34q-261 0 -396 136.5t-135 365.5zM328 1407q0 49 38 81t85 32q35 0 63 -22t68 -87l176 -289l-92 -73l-260 231q-42 42 -60 70t-18 57zM416 492 q0 -144 45.5 -206.5t134.5 -62.5q94 0 139 60t45 190q0 138 -44.5 199t-139.5 61q-88 0 -134 -61.5t-46 -179.5z" />
<glyph unicode="&#xf3;" horiz-adv-x="1196" d="M63 473q0 234 151.5 372t395.5 138q256 0 389.5 -131.5t133.5 -359.5q0 -124 -41.5 -224t-114.5 -164.5t-171 -98.5t-212 -34q-261 0 -396 136.5t-135 365.5zM416 492q0 -144 45.5 -206.5t134.5 -62.5q94 0 139 60t45 190q0 138 -44.5 199t-139.5 61q-88 0 -134 -61.5 t-46 -179.5zM469 1122l176 289q42 66 69.5 87.5t63.5 21.5q47 0 84 -32t37 -81q0 -30 -17.5 -58t-58.5 -69l-262 -231z" />
<glyph unicode="&#xf4;" horiz-adv-x="1196" d="M63 473q0 234 151.5 372t395.5 138q256 0 389.5 -131.5t133.5 -359.5q0 -124 -41.5 -224t-114.5 -164.5t-171 -98.5t-212 -34q-261 0 -396 136.5t-135 365.5zM285 1106l223 321q39 60 100 60q63 0 105 -55l217 -324l-99 -74l-227 209l-225 -209zM416 492 q0 -144 45.5 -206.5t134.5 -62.5q94 0 139 60t45 190q0 138 -44.5 199t-139.5 61q-88 0 -134 -61.5t-46 -179.5z" />
<glyph unicode="&#xf5;" horiz-adv-x="1196" d="M63 473q0 234 151.5 372t395.5 138q256 0 389.5 -131.5t133.5 -359.5q0 -124 -41.5 -224t-114.5 -164.5t-171 -98.5t-212 -34q-261 0 -396 136.5t-135 365.5zM256 1120q18 70 42 127t66.5 101.5t92.5 44.5q47 0 129 -35l59 -29q63 -29 98 -29q26 0 46.5 24.5t48.5 82.5 l102 -29q-20 -123 -68 -198.5t-118 -75.5q-64 0 -146 39l-57 24q-59 23 -88 23q-34 0 -56.5 -21.5t-50.5 -78.5zM416 492q0 -144 45.5 -206.5t134.5 -62.5q94 0 139 60t45 190q0 138 -44.5 199t-139.5 61q-88 0 -134 -61.5t-46 -179.5z" />
<glyph unicode="&#xf6;" horiz-adv-x="1196" d="M63 473q0 234 151.5 372t395.5 138q256 0 389.5 -131.5t133.5 -359.5q0 -124 -41.5 -224t-114.5 -164.5t-171 -98.5t-212 -34q-261 0 -396 136.5t-135 365.5zM283 1260q0 59 38 100t101 41q60 0 98.5 -41.5t38.5 -99.5t-39.5 -100t-101.5 -42q-59 0 -97 39.5t-38 102.5z M416 492q0 -144 45.5 -206.5t134.5 -62.5q94 0 139 60t45 190q0 138 -44.5 199t-139.5 61q-88 0 -134 -61.5t-46 -179.5zM647 1260q0 59 39 100t102 41q60 0 99 -41.5t39 -99.5t-40 -100t-102 -42q-59 0 -98 40t-39 102z" />
<glyph unicode="&#xf7;" horiz-adv-x="1284" d="M166 567v209h950v-209h-950zM500 322q0 65 40 107t99 42q61 0 102 -42.5t41 -109.5q0 -63 -41 -104t-102 -41t-100 42t-39 106zM500 1022q0 63 40 104t99 41q61 0 102 -41.5t41 -105.5q0 -66 -41 -108t-102 -42t-100 43t-39 109z" />
<glyph unicode="&#xf8;" horiz-adv-x="1196" d="M63 473q0 234 151.5 372t395.5 138q133 0 236 -39l98 135l113 -80l-88 -122q164 -129 164 -385q0 -124 -41.5 -224t-114.5 -164.5t-171 -98.5t-212 -34q-139 0 -250 43l-92 -127l-115 78l86 119q-160 132 -160 389zM406 492q0 -84 14 -136l264 365q-40 16 -88 16 q-92 0 -141 -62.5t-49 -182.5zM506 238q34 -19 90 -19q98 0 146.5 61t48.5 193q0 72 -17 135z" />
<glyph unicode="&#xf9;" horiz-adv-x="1241" d="M-4 711v184q166 80 336 80q68 0 108.5 -38t40.5 -134q0 -47 -4 -194.5t-4 -217.5q0 -49 11 -80t32.5 -44t39 -17t42.5 -4q83 0 145 35v297q0 107 -30 122q-21 13 -64 13q-29 0 -47 -2v184q166 80 340 80q67 0 106 -38t39 -134q0 -56 -3 -243.5t-3 -211.5q0 -83 14 -110 t66 -27q35 0 64 4v-190q-130 -50 -291 -50q-61 0 -112.5 33t-63.5 103q-51 -62 -133 -99t-176 -37q-170 0 -243 91.5t-73 277.5v234q0 105 -27 122q-26 13 -57 13q-6 0 -26 -1t-27 -1zM344 1407q0 49 38 81t85 32q35 0 63 -22t68 -87l176 -289l-92 -73l-260 231 q-42 42 -60 70t-18 57z" />
<glyph unicode="&#xfa;" horiz-adv-x="1241" d="M-4 711v184q166 80 336 80q68 0 108.5 -38t40.5 -134q0 -47 -4 -194.5t-4 -217.5q0 -49 11 -80t32.5 -44t39 -17t42.5 -4q83 0 145 35v297q0 107 -30 122q-21 13 -64 13q-29 0 -47 -2v184q166 80 340 80q67 0 106 -38t39 -134q0 -56 -3 -243.5t-3 -211.5q0 -83 14 -110 t66 -27q35 0 64 4v-190q-130 -50 -291 -50q-61 0 -112.5 33t-63.5 103q-51 -62 -133 -99t-176 -37q-170 0 -243 91.5t-73 277.5v234q0 105 -27 122q-26 13 -57 13q-6 0 -26 -1t-27 -1zM481 1122l176 289q41 65 69 87t65 22q47 0 83.5 -32t36.5 -81q0 -30 -17 -58t-58 -69 l-263 -231z" />
<glyph unicode="&#xfb;" horiz-adv-x="1241" d="M-4 711v184q166 80 336 80q68 0 108.5 -38t40.5 -134q0 -47 -4 -194.5t-4 -217.5q0 -49 11 -80t32.5 -44t39 -17t42.5 -4q83 0 145 35v297q0 107 -30 122q-21 13 -64 13q-29 0 -47 -2v184q166 80 340 80q67 0 106 -38t39 -134q0 -56 -3 -243.5t-3 -211.5q0 -83 14 -110 t66 -27q35 0 64 4v-190q-130 -50 -291 -50q-61 0 -112.5 33t-63.5 103q-51 -62 -133 -99t-176 -37q-170 0 -243 91.5t-73 277.5v234q0 105 -27 122q-26 13 -57 13q-6 0 -26 -1t-27 -1zM276 1106l224 321q39 60 100 60q63 0 105 -55l217 -324l-99 -74l-227 209l-225 -209z " />
<glyph unicode="&#xfc;" horiz-adv-x="1241" d="M-4 711v184q166 80 336 80q68 0 108.5 -38t40.5 -134q0 -47 -4 -194.5t-4 -217.5q0 -49 11 -80t32.5 -44t39 -17t42.5 -4q83 0 145 35v297q0 107 -30 122q-21 13 -64 13q-29 0 -47 -2v184q166 80 340 80q67 0 106 -38t39 -134q0 -56 -3 -243.5t-3 -211.5q0 -83 14 -110 t66 -27q35 0 64 4v-190q-130 -50 -291 -50q-61 0 -112.5 33t-63.5 103q-51 -62 -133 -99t-176 -37q-170 0 -243 91.5t-73 277.5v234q0 105 -27 122q-26 13 -57 13q-6 0 -26 -1t-27 -1zM305 1260q0 59 38 100t101 41q60 0 99 -41.5t39 -99.5t-40 -100t-102 -42 q-59 0 -97 39.5t-38 102.5zM670 1260q0 59 39 100t102 41q60 0 98.5 -41.5t38.5 -99.5t-39.5 -100t-101.5 -42q-59 0 -98 40t-39 102z" />
<glyph unicode="&#xfd;" horiz-adv-x="1210" d="M12 764v190q140 -4 383 -4q108 0 260 4v-190q-68 -7 -75 -8q-26 -4 -34.5 -16t-8.5 -35q0 -37 38 -123q68 -146 123 -291q16 49 50.5 145t52.5 150q30 86 30 127q0 17 -8 27.5t-25.5 15t-30.5 6t-38 2t-33 0.5v190q132 -4 248 -4q128 0 254 4v-190q-39 -3 -62.5 -10 t-41 -28t-26 -40t-26.5 -65l-219 -578q-88 -230 -134.5 -336.5t-92.5 -163.5q-41 -52 -106.5 -78t-124.5 -26q-82 0 -150 22q-50 19 -85.5 66t-35.5 113q0 67 12 137h191q4 -57 18 -80t56 -23q36 0 73 50q48 79 117 270q-50 0 -79.5 25t-57.5 83l-242 525q-42 90 -76 114 q-32 19 -94 23zM514 1122l176 289q42 66 69.5 87.5t63.5 21.5q47 0 84 -32t37 -81q0 -30 -17.5 -58t-58.5 -69l-262 -231z" />
<glyph unicode="&#xfe;" horiz-adv-x="1247" d="M2 -354q40 5 59.5 7.5t38 10.5t24.5 13t11.5 24.5t5.5 33.5v52v16v1241q0 94 -4.5 131t-19.5 50q-21 14 -68 14q-33 0 -47 -2v180q179 80 354 80q131 0 131 -168q0 -95 -3 -269.5t-3 -213.5q59 59 143.5 99t178.5 40q100 0 173 -35.5t115.5 -101t62.5 -149t20 -187.5 q0 -115 -35.5 -210.5t-104.5 -166t-177.5 -110t-246.5 -39.5q-47 0 -125 8v-166q0 -70 5 -99.5t18 -47.5q13 -13 46.5 -21t119.5 -14v-183q-230 5 -338 5q-99 0 -334 -5v183zM481 262q72 -14 137 -14q96 0 142.5 62t46.5 169q0 240 -168 240q-76 0 -158 -45v-412z" />
<glyph unicode="&#xff;" horiz-adv-x="1210" d="M12 764v190q140 -4 383 -4q108 0 260 4v-190q-68 -7 -75 -8q-26 -4 -34.5 -16t-8.5 -35q0 -37 38 -123q68 -146 123 -291q16 49 50.5 145t52.5 150q30 86 30 127q0 17 -8 27.5t-25.5 15t-30.5 6t-38 2t-33 0.5v190q132 -4 248 -4q128 0 254 4v-190q-39 -3 -62.5 -10 t-41 -28t-26 -40t-26.5 -65l-219 -578q-88 -230 -134.5 -336.5t-92.5 -163.5q-41 -52 -106.5 -78t-124.5 -26q-82 0 -150 22q-50 19 -85.5 66t-35.5 113q0 67 12 137h191q4 -57 18 -80t56 -23q36 0 73 50q48 79 117 270q-50 0 -79.5 25t-57.5 83l-242 525q-42 90 -76 114 q-32 19 -94 23zM328 1260q0 59 38 100t101 41q60 0 98.5 -41.5t38.5 -99.5t-39.5 -100t-101.5 -42q-59 0 -97 39.5t-38 102.5zM692 1260q0 59 39.5 100t102.5 41q60 0 98.5 -41.5t38.5 -99.5t-40 -100t-102 -42q-59 0 -98 40t-39 102z" />
<glyph unicode="&#x100;" horiz-adv-x="1568" d="M10 -2v190q102 3 140 41q22 20 39 55t55 138l311 813q35 94 95.5 139t152.5 45q88 0 142.5 -42t84.5 -126l324 -891q23 -65 42 -95t50 -52q36 -23 113 -25v-190q-200 4 -287 4q-243 0 -473 -4v190q81 3 125 19q25 10 33 24t8 35q0 29 -25 109l-12 41h-398l-10 -29 q-31 -86 -31 -123q0 -13 1 -20t10 -18t26 -17q50 -18 150 -21v-190q-208 4 -412 4q-66 0 -254 -4zM496 1528v180h587v-180h-587zM600 670h240q-82 239 -115 364q-94 -280 -125 -364z" />
<glyph unicode="&#x101;" horiz-adv-x="1114" d="M49 272q0 151 116.5 224t383.5 73q53 0 69 -2v47q0 73 -25.5 102t-100.5 29q-84 0 -115.5 -28t-36.5 -115h-197q-16 86 -16 176q0 56 24.5 91.5t73.5 60.5q46 23 129.5 38t157.5 15q119 0 199 -15.5t115 -35t61 -49.5q65 -68 65 -234q0 -45 -1 -183.5t-1 -143.5 q0 -62 18.5 -86.5t53.5 -24.5q43 0 70 4v-197q-48 -16 -119 -26t-121 -10q-35 0 -59 3t-54 13t-51 34t-33 62q-117 -117 -282 -117q-61 0 -117 17t-103 51.5t-75.5 93t-28.5 133.5zM279 1116v180h559v-180h-559zM389 289q0 -43 28.5 -64.5t65.5 -21.5q74 0 135 26v146 q-20 4 -63 4q-90 0 -128 -22t-38 -68z" />
<glyph unicode="&#x102;" horiz-adv-x="1568" d="M10 -2v190q102 3 140 41q22 20 39 55t55 138l311 813q35 94 95.5 139t152.5 45q88 0 142.5 -42t84.5 -126l324 -891q23 -65 42 -95t50 -52q36 -23 113 -25v-190q-200 4 -287 4q-243 0 -473 -4v190q81 3 125 19q25 10 33 24t8 35q0 29 -25 109l-12 41h-398l-10 -29 q-31 -86 -31 -123q0 -13 1 -20t10 -18t26 -17q50 -18 150 -21v-190q-208 4 -412 4q-66 0 -254 -4zM479 1819l105 8q12 -74 64 -117t140 -43q90 0 141 39t68 121l105 -6q0 -162 -82.5 -250t-233.5 -88q-150 0 -228.5 80.5t-78.5 255.5zM600 670h240q-82 239 -115 364 q-94 -280 -125 -364z" />
<glyph unicode="&#x103;" horiz-adv-x="1114" d="M49 272q0 151 116.5 224t383.5 73q53 0 69 -2v47q0 73 -25.5 102t-100.5 29q-84 0 -115.5 -28t-36.5 -115h-197q-16 86 -16 176q0 56 24.5 91.5t73.5 60.5q46 23 129.5 38t157.5 15q119 0 199 -15.5t115 -35t61 -49.5q65 -68 65 -234q0 -45 -1 -183.5t-1 -143.5 q0 -62 18.5 -86.5t53.5 -24.5q43 0 70 4v-197q-48 -16 -119 -26t-121 -10q-35 0 -59 3t-54 13t-51 34t-33 62q-117 -117 -282 -117q-61 0 -117 17t-103 51.5t-75.5 93t-28.5 133.5zM238 1399l106 8q11 -73 61 -116.5t130 -43.5q82 0 129.5 39t66.5 121l103 -6 q0 -163 -78 -250.5t-224 -87.5q-294 0 -294 336zM389 289q0 -43 28.5 -64.5t65.5 -21.5q74 0 135 26v146q-20 4 -63 4q-90 0 -128 -22t-38 -68z" />
<glyph unicode="&#x104;" horiz-adv-x="1568" d="M10 -2v190q102 3 140 41q22 20 39 55t55 138l311 813q35 94 95.5 139t152.5 45q88 0 142.5 -42t84.5 -126l324 -891q23 -65 42 -95t50 -52q36 -23 113 -25v-190q-200 4 -287 4h-66q-180 -183 -180 -328q0 -48 26.5 -81t80.5 -33q70 0 145 30l39 -98q-44 -32 -116 -58 t-136 -26q-120 0 -184 61.5t-64 153.5t62 189.5t180 187.5q-203 0 -260 -2v190q81 3 125 19q25 10 33 24t8 35q0 29 -25 109l-12 41h-398l-10 -29q-31 -86 -31 -123q0 -13 1 -20t10 -18t26 -17q50 -18 150 -21v-190q-208 4 -412 4q-66 0 -254 -4zM600 670h240 q-82 239 -115 364q-94 -280 -125 -364z" />
<glyph unicode="&#x105;" horiz-adv-x="1114" d="M49 272q0 151 116.5 224t383.5 73q53 0 69 -2v47q0 73 -25.5 102t-100.5 29q-84 0 -115.5 -28t-36.5 -115h-197q-16 86 -16 176q0 56 24.5 91.5t73.5 60.5q46 23 129.5 38t157.5 15q119 0 199 -15.5t115 -35t61 -49.5q65 -68 65 -234q0 -45 -1 -183.5t-1 -143.5 q0 -62 18.5 -86.5t53.5 -24.5q43 0 70 4v-197q-44 -16 -144 -28q-164 -167 -164 -303q0 -46 26 -77.5t79 -31.5q73 0 143 31l37 -98q-42 -31 -112.5 -55.5t-133.5 -24.5q-117 0 -179 59.5t-62 147.5q0 85 54.5 174t158.5 172q-110 12 -140 110q-117 -117 -282 -117 q-61 0 -117 17t-103 51.5t-75.5 93t-28.5 133.5zM389 289q0 -43 28.5 -64.5t65.5 -21.5q74 0 135 26v146q-20 4 -63 4q-90 0 -128 -22t-38 -68z" />
<glyph unicode="&#x106;" horiz-adv-x="1398" d="M74 668q0 353 199 551t563 198q245 0 358 -53q113 -55 113 -145q0 -123 -29 -283h-209q-14 122 -45 164q-26 32 -71 44.5t-128 12.5q-56 0 -106.5 -15t-98.5 -50t-82.5 -87.5t-55.5 -133.5t-21 -183q0 -87 16.5 -158.5t45.5 -119.5t64.5 -82.5t78 -53.5t82 -27.5 t79.5 -8.5q152 0 207 55q38 38 76 164h213q-10 -247 -43 -324q-28 -64 -143 -106q-54 -22 -148.5 -39t-204.5 -17q-338 0 -524 181.5t-186 515.5zM618 1556l246 256q52 53 81.5 68.5t66.5 15.5q42 0 73 -35t31 -83q0 -69 -98 -125l-324 -187z" />
<glyph unicode="&#x107;" horiz-adv-x="1019" d="M63 453q0 125 40 226.5t111 167.5t166 101t206 35q141 0 227 -27q68 -22 99.5 -53t31.5 -90q0 -121 -16 -217h-201q-11 95 -47 117q-23 20 -88 20q-31 0 -60 -12.5t-56 -40t-43.5 -79.5t-16.5 -122q0 -77 19 -129t52.5 -76t66.5 -32.5t75 -8.5q111 0 250 66l92 -190 q-81 -66 -196 -102t-224 -36q-139 0 -249 56.5t-174.5 167t-64.5 258.5zM412 1122l176 289q42 66 69.5 87.5t63.5 21.5q47 0 84 -32t37 -81q0 -30 -17.5 -58t-58.5 -69l-262 -231z" />
<glyph unicode="&#x108;" horiz-adv-x="1398" d="M74 668q0 353 199 551t563 198q245 0 358 -53q113 -55 113 -145q0 -123 -29 -283h-209q-14 122 -45 164q-26 32 -71 44.5t-128 12.5q-56 0 -106.5 -15t-98.5 -50t-82.5 -87.5t-55.5 -133.5t-21 -183q0 -87 16.5 -158.5t45.5 -119.5t64.5 -82.5t78 -53.5t82 -27.5 t79.5 -8.5q152 0 207 55q38 38 76 164h213q-10 -247 -43 -324q-28 -64 -143 -106q-54 -22 -148.5 -39t-204.5 -17q-338 0 -524 181.5t-186 515.5zM432 1542l248 275q45 55 100 55t105 -53l243 -275l-84 -80l-268 174l-266 -174z" />
<glyph unicode="&#x109;" horiz-adv-x="1019" d="M63 453q0 125 40 226.5t111 167.5t166 101t206 35q141 0 227 -27q68 -22 99.5 -53t31.5 -90q0 -121 -16 -217h-201q-11 95 -47 117q-23 20 -88 20q-31 0 -60 -12.5t-56 -40t-43.5 -79.5t-16.5 -122q0 -77 19 -129t52.5 -76t66.5 -32.5t75 -8.5q111 0 250 66l92 -190 q-81 -66 -196 -102t-224 -36q-139 0 -249 56.5t-174.5 167t-64.5 258.5zM256 1106l223 321q39 60 101 60t104 -55l217 -324l-98 -74l-228 209l-225 -209z" />
<glyph unicode="&#x10a;" horiz-adv-x="1398" d="M74 668q0 353 199 551t563 198q245 0 358 -53q113 -55 113 -145q0 -123 -29 -283h-209q-14 122 -45 164q-26 32 -71 44.5t-128 12.5q-56 0 -106.5 -15t-98.5 -50t-82.5 -87.5t-55.5 -133.5t-21 -183q0 -87 16.5 -158.5t45.5 -119.5t64.5 -82.5t78 -53.5t82 -27.5 t79.5 -8.5q152 0 207 55q38 38 76 164h213q-10 -247 -43 -324q-28 -64 -143 -106q-54 -22 -148.5 -39t-204.5 -17q-338 0 -524 181.5t-186 515.5zM635 1661q0 59 38 99t101 40q60 0 99.5 -40.5t39.5 -98.5q0 -59 -40 -100t-103 -41q-59 0 -97 39t-38 102z" />
<glyph unicode="&#x10b;" horiz-adv-x="1019" d="M63 453q0 125 40 226.5t111 167.5t166 101t206 35q141 0 227 -27q68 -22 99.5 -53t31.5 -90q0 -121 -16 -217h-201q-11 95 -47 117q-23 20 -88 20q-31 0 -60 -12.5t-56 -40t-43.5 -79.5t-16.5 -122q0 -77 19 -129t52.5 -76t66.5 -32.5t75 -8.5q111 0 250 66l92 -190 q-81 -66 -196 -102t-224 -36q-139 0 -249 56.5t-174.5 167t-64.5 258.5zM434 1260q0 59 38 100t101 41q60 0 100 -41.5t40 -99.5q0 -57 -40.5 -99.5t-103.5 -42.5q-59 0 -97 39.5t-38 102.5z" />
<glyph unicode="&#x10c;" horiz-adv-x="1398" d="M74 668q0 353 199 551t563 198q245 0 358 -53q113 -55 113 -145q0 -123 -29 -283h-209q-14 122 -45 164q-26 32 -71 44.5t-128 12.5q-56 0 -106.5 -15t-98.5 -50t-82.5 -87.5t-55.5 -133.5t-21 -183q0 -87 16.5 -158.5t45.5 -119.5t64.5 -82.5t78 -53.5t82 -27.5 t79.5 -8.5q152 0 207 55q38 38 76 164h213q-10 -247 -43 -324q-28 -64 -143 -106q-54 -22 -148.5 -39t-204.5 -17q-338 0 -524 181.5t-186 515.5zM436 1792l84 80l266 -172l269 172l78 -78l-248 -272q-51 -58 -103 -58q-53 0 -102 56z" />
<glyph unicode="&#x10d;" horiz-adv-x="1019" d="M63 453q0 125 40 226.5t111 167.5t166 101t206 35q141 0 227 -27q68 -22 99.5 -53t31.5 -90q0 -121 -16 -217h-201q-11 95 -47 117q-23 20 -88 20q-31 0 -60 -12.5t-56 -40t-43.5 -79.5t-16.5 -122q0 -77 19 -129t52.5 -76t66.5 -32.5t75 -8.5q111 0 250 66l92 -190 q-81 -66 -196 -102t-224 -36q-139 0 -249 56.5t-174.5 167t-64.5 258.5zM244 1419l100 74l225 -209l228 209l92 -72l-221 -321q-43 -60 -103 -60q-62 0 -102 56z" />
<glyph unicode="&#x10e;" horiz-adv-x="1527" d="M35 0v188q84 3 114.5 10t43.5 23q16 29 16 121v698q0 92 -8 113q-12 26 -39.5 33t-126.5 12v186h444q308 0 462 -24t253 -82q262 -156 262 -559q0 -232 -77 -385t-242 -240q-90 -46 -236 -70t-313 -24h-553zM336 1792l84 80l266 -172l268 172l78 -78l-248 -272 q-51 -58 -102 -58q-53 0 -102 56zM580 338q0 -46 24 -62q31 -24 98 -24q192 0 274.5 99.5t82.5 340.5q0 129 -21.5 211t-72.5 129.5t-124 65.5t-188 18h-73v-778z" />
<glyph unicode="&#x10f;" horiz-adv-x="1282" d="M63 440q0 93 18 172.5t57.5 147.5t99 115.5t146.5 74.5t196 27q106 0 184 -33v127q0 73 -6 113q-5 55 -78 55q-35 0 -55 -2v180q167 80 352 80q39 0 66 -14.5t40.5 -39.5t19 -50t5.5 -54q0 -48 -2 -210.5t-2 -204.5v-621q0 -92 70 -92q44 0 71 4v-197q-116 -36 -248 -36 q-89 0 -130 27.5t-56 90.5q-119 -125 -303 -125q-206 0 -325.5 129.5t-119.5 335.5zM416 479q0 -122 56 -185t155 -63q81 0 137 50v415q-50 27 -135 27q-100 0 -156.5 -61t-56.5 -183zM1171 1012q146 114 146 184q0 35 -39 55q-40 17 -62 44t-22 75q0 53 42 94t112 41 q78 0 121.5 -49t43.5 -129q0 -110 -69.5 -207t-204.5 -194z" />
<glyph unicode="&#x110;" horiz-adv-x="1527" d="M29 641v166h180v233q0 92 -8 113q-12 26 -39.5 33t-126.5 12v186h444q308 0 462 -24t253 -82q262 -156 262 -559q0 -232 -77 -385t-242 -240q-90 -46 -236 -70t-313 -24h-553v188q84 3 114.5 10t43.5 23q16 29 16 121v299h-180zM580 348q0 -56 24 -72q31 -24 98 -24 q192 0 274.5 99.5t82.5 340.5q0 129 -21.5 211t-72.5 129.5t-124 65.5t-188 18h-73v-309h307v-166h-307v-293z" />
<glyph unicode="&#x111;" horiz-adv-x="1282" d="M63 440q0 93 18 172.5t57.5 147.5t99 115.5t146.5 74.5t196 27q106 0 184 -33v80h-240v137h236q0 5 -1 15t-1 14q-5 55 -78 55q-35 0 -55 -2v174q167 80 352 80q39 0 66 -14.5t40.5 -39.5t19 -50t5.5 -54q0 -108 -2 -178h145v-137h-147v-721q0 -92 70 -92q44 0 71 4v-197 q-116 -36 -248 -36q-89 0 -130 27.5t-56 90.5q-119 -125 -303 -125q-206 0 -325.5 129.5t-119.5 335.5zM416 479q0 -122 56 -185t155 -63q81 0 137 50v415q-50 27 -135 27q-100 0 -156.5 -61t-56.5 -183z" />
<glyph unicode="&#x112;" horiz-adv-x="1333" d="M35 0v188q136 11 158 33q11 12 13.5 37t2.5 92v692q0 103 -12 115q-14 16 -47.5 25t-114.5 16v186h1018q77 0 118 -28t41 -78q0 -119 -26 -285h-197q-18 103 -53 127q-25 19 -107 19h-249v-322h49q100 0 127 29q23 25 43 112h180q-2 -51 -2 -256q0 -172 4 -258h-176 q-14 91 -37 117q-20 19 -50.5 24t-88.5 5h-49v-252q0 -42 12.5 -63t42.5 -25q55 -8 151 -8q184 0 248 57q10 9 20.5 28t16.5 33.5t16.5 42t12.5 33.5h186q-6 -271 -39 -358q-12 -35 -68.5 -56.5t-131.5 -21.5h-1012zM354 1528v180h588v-180h-588z" />
<glyph unicode="&#x113;" horiz-adv-x="1085" d="M63 455q0 250 144.5 389t378.5 139q217 0 325.5 -115.5t108.5 -306.5q0 -34 -9 -69t-22 -50q-31 -36 -108 -36h-473v-15q0 -61 57 -107t153 -46q161 0 330 79l96 -192q-90 -70 -217.5 -112t-271.5 -42q-139 0 -250 57t-176.5 168t-65.5 259zM291 1116v180h559v-180h-559z M408 604l288 6v21q0 48 -35 80t-92 32q-67 0 -112 -33.5t-49 -105.5z" />
<glyph unicode="&#x114;" horiz-adv-x="1333" d="M35 0v188q136 11 158 33q11 12 13.5 37t2.5 92v692q0 103 -12 115q-14 16 -47.5 25t-114.5 16v186h1018q77 0 118 -28t41 -78q0 -119 -26 -285h-197q-18 103 -53 127q-25 19 -107 19h-249v-322h49q100 0 127 29q23 25 43 112h180q-2 -51 -2 -256q0 -172 4 -258h-176 q-14 91 -37 117q-20 19 -50.5 24t-88.5 5h-49v-252q0 -42 12.5 -63t42.5 -25q55 -8 151 -8q184 0 248 57q10 9 20.5 28t16.5 33.5t16.5 42t12.5 33.5h186q-6 -271 -39 -358q-12 -35 -68.5 -56.5t-131.5 -21.5h-1012zM334 1819l104 8q12 -74 64.5 -117t140.5 -43q90 0 141 39 t68 121l104 -6q0 -163 -82 -250.5t-233 -87.5q-150 0 -228.5 80.5t-78.5 255.5z" />
<glyph unicode="&#x115;" horiz-adv-x="1085" d="M63 455q0 250 144.5 389t378.5 139q217 0 325.5 -115.5t108.5 -306.5q0 -34 -9 -69t-22 -50q-31 -36 -108 -36h-473v-15q0 -61 57 -107t153 -46q161 0 330 79l96 -192q-90 -70 -217.5 -112t-271.5 -42q-139 0 -250 57t-176.5 168t-65.5 259zM272 1399l107 8 q11 -74 60.5 -117t129.5 -43q82 0 130 39t67 121l102 -6q0 -163 -77.5 -250.5t-223.5 -87.5q-295 0 -295 336zM408 604l288 6v21q0 48 -35 80t-92 32q-67 0 -112 -33.5t-49 -105.5z" />
<glyph unicode="&#x116;" horiz-adv-x="1333" d="M35 0v188q136 11 158 33q11 12 13.5 37t2.5 92v692q0 103 -12 115q-14 16 -47.5 25t-114.5 16v186h1018q77 0 118 -28t41 -78q0 -119 -26 -285h-197q-18 103 -53 127q-25 19 -107 19h-249v-322h49q100 0 127 29q23 25 43 112h180q-2 -51 -2 -256q0 -172 4 -258h-176 q-14 91 -37 117q-20 19 -50.5 24t-88.5 5h-49v-252q0 -42 12.5 -63t42.5 -25q55 -8 151 -8q184 0 248 57q10 9 20.5 28t16.5 33.5t16.5 42t12.5 33.5h186q-6 -271 -39 -358q-12 -35 -68.5 -56.5t-131.5 -21.5h-1012zM516 1661q0 59 38 99t101 40q61 0 100.5 -40.5 t39.5 -98.5t-40.5 -99.5t-103.5 -41.5q-59 0 -97 39t-38 102z" />
<glyph unicode="&#x117;" horiz-adv-x="1085" d="M63 455q0 250 144.5 389t378.5 139q217 0 325.5 -115.5t108.5 -306.5q0 -34 -9 -69t-22 -50q-31 -36 -108 -36h-473v-15q0 -61 57 -107t153 -46q161 0 330 79l96 -192q-90 -70 -217.5 -112t-271.5 -42q-139 0 -250 57t-176.5 168t-65.5 259zM408 604l288 6v21 q0 48 -35 80t-92 32q-67 0 -112 -33.5t-49 -105.5zM426 1260q0 59 38 100t101 41q60 0 100 -41.5t40 -99.5q0 -57 -40.5 -99.5t-103.5 -42.5q-59 0 -97 39.5t-38 102.5z" />
<glyph unicode="&#x118;" horiz-adv-x="1333" d="M35 0v188q136 11 158 33q11 12 13.5 37t2.5 92v692q0 103 -12 115q-14 16 -47.5 25t-114.5 16v186h1018q77 0 118 -28t41 -78q0 -119 -26 -285h-197q-18 103 -53 127q-25 19 -107 19h-249v-322h49q100 0 127 29q23 25 43 112h180q-2 -51 -2 -256q0 -172 4 -258h-176 q-14 91 -37 117q-20 19 -50.5 24t-88.5 5h-49v-252q0 -42 12.5 -63t42.5 -25q55 -8 151 -8q184 0 248 57q10 9 20.5 28t16.5 33.5t16.5 42t12.5 33.5h186q-6 -271 -39 -358q-9 -26 -43 -45t-84 -27q-184 -184 -184 -332q0 -48 26 -81t80 -33q71 0 146 30l39 -98 q-44 -32 -116 -58t-136 -26q-120 0 -184 61.5t-64 153.5t61.5 189.5t178.5 187.5h-932z" />
<glyph unicode="&#x119;" horiz-adv-x="1085" d="M63 455q0 250 144.5 389t378.5 139q217 0 325.5 -115.5t108.5 -306.5q0 -34 -9 -69t-22 -50q-31 -36 -108 -36h-473v-15q0 -61 57 -107t153 -46q161 0 330 79l96 -192q-89 -71 -223 -115q-186 -180 -186 -323q0 -46 25.5 -77.5t78.5 -31.5q74 0 144 31l37 -98 q-42 -31 -112.5 -55.5t-133.5 -24.5q-117 0 -179.5 59.5t-62.5 147.5q0 168 203 337q-54 -4 -80 -4q-139 0 -250 57t-176.5 168t-65.5 259zM408 604l288 6v21q0 48 -35 80t-92 32q-67 0 -112 -33.5t-49 -105.5z" />
<glyph unicode="&#x11a;" horiz-adv-x="1333" d="M35 0v188q136 11 158 33q11 12 13.5 37t2.5 92v692q0 103 -12 115q-14 16 -47.5 25t-114.5 16v186h1018q77 0 118 -28t41 -78q0 -119 -26 -285h-197q-18 103 -53 127q-25 19 -107 19h-249v-322h49q100 0 127 29q23 25 43 112h180q-2 -51 -2 -256q0 -172 4 -258h-176 q-14 91 -37 117q-20 19 -50.5 24t-88.5 5h-49v-252q0 -42 12.5 -63t42.5 -25q55 -8 151 -8q184 0 248 57q10 9 20.5 28t16.5 33.5t16.5 42t12.5 33.5h186q-6 -271 -39 -358q-12 -35 -68.5 -56.5t-131.5 -21.5h-1012zM287 1792l84 80l266 -172l268 172l78 -78l-248 -272 q-51 -58 -102 -58q-54 0 -103 56z" />
<glyph unicode="&#x11b;" horiz-adv-x="1085" d="M63 455q0 250 144.5 389t378.5 139q217 0 325.5 -115.5t108.5 -306.5q0 -34 -9 -69t-22 -50q-31 -36 -108 -36h-473v-15q0 -61 57 -107t153 -46q161 0 330 79l96 -192q-90 -70 -217.5 -112t-271.5 -42q-139 0 -250 57t-176.5 168t-65.5 259zM258 1419l100 74l226 -209 l227 209l92 -72l-221 -321q-43 -60 -102 -60q-63 0 -103 56zM408 604l288 6v21q0 48 -35 80t-92 32q-67 0 -112 -33.5t-49 -105.5z" />
<glyph unicode="&#x11c;" horiz-adv-x="1492" d="M74 668q0 169 53 308.5t150 236.5t239 150.5t315 53.5q311 0 431 -67q81 -47 81 -138q0 -120 -26 -276h-207q-8 52 -14.5 81.5t-19 58t-27.5 41.5t-43 23.5t-62.5 13.5t-87.5 3q-56 0 -105 -9.5t-104.5 -40t-94.5 -80t-65 -136.5t-26 -203q0 -110 27 -194.5t66.5 -131.5 t92.5 -76.5t96 -38.5t86 -9q106 0 134 28q16 16 16 68v82q0 51 -29 69q-39 15 -147 23v190q118 -4 352 -4q147 0 299 4v-190q-74 -5 -97.5 -21.5t-23.5 -74.5v-242q0 -49 -17 -72t-61 -43q-87 -38 -211.5 -62t-255.5 -24q-158 0 -289 46t-225.5 133t-147 220t-52.5 300z M477 1542l248 275q45 55 100 55q32 0 56 -13t49 -40l244 -275l-84 -80l-269 174l-266 -174z" />
<glyph unicode="&#x11d;" horiz-adv-x="1136" d="M-12 -289q0 92 60.5 145t166.5 85q-94 50 -94 147q0 113 137 213q-203 84 -203 311q0 166 124 268.5t353 102.5q190 0 287 -61q183 0 316 -7v-204q-24 -1 -156 -6q10 -23 10 -76q0 -181 -120.5 -280t-352.5 -99q-67 0 -94 6q-27 -17 -27 -45q0 -44 101 -53q22 -2 81 -6.5 t125 -11t144 -17.5q145 -21 206.5 -98.5t61.5 -202.5q0 -180 -155 -287.5t-422 -107.5q-120 0 -214.5 15.5t-156.5 41.5t-102.5 62.5t-58 77t-17.5 87.5zM211 1106l223 321q18 27 44.5 43.5t56.5 16.5q62 0 104 -55l217 -324l-98 -74l-228 209l-225 -209zM305 -207 q0 -115 264 -115q183 0 183 84q0 55 -113 66q-221 21 -291 47q-43 -43 -43 -82zM399 621q0 -80 33.5 -114t97.5 -34q59 0 93 38t34 110t-33 103.5t-96 31.5q-60 0 -94.5 -38t-34.5 -97z" />
<glyph unicode="&#x11e;" horiz-adv-x="1492" d="M74 668q0 169 53 308.5t150 236.5t239 150.5t315 53.5q311 0 431 -67q81 -47 81 -138q0 -120 -26 -276h-207q-8 52 -14.5 81.5t-19 58t-27.5 41.5t-43 23.5t-62.5 13.5t-87.5 3q-56 0 -105 -9.5t-104.5 -40t-94.5 -80t-65 -136.5t-26 -203q0 -110 27 -194.5t66.5 -131.5 t92.5 -76.5t96 -38.5t86 -9q106 0 134 28q16 16 16 68v82q0 51 -29 69q-39 15 -147 23v190q118 -4 352 -4q147 0 299 4v-190q-74 -5 -97.5 -21.5t-23.5 -74.5v-242q0 -49 -17 -72t-61 -43q-87 -38 -211.5 -62t-255.5 -24q-158 0 -289 46t-225.5 133t-147 220t-52.5 300z M481 1819l105 8q8 -49 33 -84.5t69 -55.5t103 -20q61 0 103 17.5t67.5 52.5t37.5 90l105 -6q0 -162 -82.5 -250t-233.5 -88q-74 0 -129.5 19t-96 59t-61 104.5t-20.5 153.5z" />
<glyph unicode="&#x11f;" horiz-adv-x="1136" d="M-12 -289q0 92 60.5 145t166.5 85q-94 50 -94 147q0 113 137 213q-203 84 -203 311q0 166 124 268.5t353 102.5q190 0 287 -61q183 0 316 -7v-204q-24 -1 -156 -6q10 -23 10 -76q0 -181 -120.5 -280t-352.5 -99q-67 0 -94 6q-27 -17 -27 -45q0 -44 101 -53q22 -2 81 -6.5 t125 -11t144 -17.5q145 -21 206.5 -98.5t61.5 -202.5q0 -180 -155 -287.5t-422 -107.5q-120 0 -214.5 15.5t-156.5 41.5t-102.5 62.5t-58 77t-17.5 87.5zM229 1399l107 8q11 -74 60.5 -117t129.5 -43q82 0 130 39t67 121l102 -6q0 -163 -77.5 -250.5t-223.5 -87.5 q-295 0 -295 336zM305 -207q0 -115 264 -115q183 0 183 84q0 55 -113 66q-221 21 -291 47q-43 -43 -43 -82zM399 621q0 -80 33.5 -114t97.5 -34q59 0 93 38t34 110t-33 103.5t-96 31.5q-60 0 -94.5 -38t-34.5 -97z" />
<glyph unicode="&#x120;" horiz-adv-x="1492" d="M74 668q0 169 53 308.5t150 236.5t239 150.5t315 53.5q311 0 431 -67q81 -47 81 -138q0 -120 -26 -276h-207q-8 52 -14.5 81.5t-19 58t-27.5 41.5t-43 23.5t-62.5 13.5t-87.5 3q-56 0 -105 -9.5t-104.5 -40t-94.5 -80t-65 -136.5t-26 -203q0 -110 27 -194.5t66.5 -131.5 t92.5 -76.5t96 -38.5t86 -9q106 0 134 28q16 16 16 68v82q0 51 -29 69q-39 15 -147 23v190q118 -4 352 -4q147 0 299 4v-190q-74 -5 -97.5 -21.5t-23.5 -74.5v-242q0 -49 -17 -72t-61 -43q-87 -38 -211.5 -62t-255.5 -24q-158 0 -289 46t-225.5 133t-147 220t-52.5 300z M666 1661q0 59 38 99t101 40q40 0 72 -19t49.5 -50.5t17.5 -69.5q0 -59 -40 -100t-103 -41q-59 0 -97 39t-38 102z" />
<glyph unicode="&#x121;" horiz-adv-x="1136" d="M-12 -289q0 92 60.5 145t166.5 85q-94 50 -94 147q0 113 137 213q-203 84 -203 311q0 166 124 268.5t353 102.5q190 0 287 -61q183 0 316 -7v-204q-24 -1 -156 -6q10 -23 10 -76q0 -181 -120.5 -280t-352.5 -99q-67 0 -94 6q-27 -17 -27 -45q0 -44 101 -53q22 -2 81 -6.5 t125 -11t144 -17.5q145 -21 206.5 -98.5t61.5 -202.5q0 -180 -155 -287.5t-422 -107.5q-120 0 -214.5 15.5t-156.5 41.5t-102.5 62.5t-58 77t-17.5 87.5zM305 -207q0 -115 264 -115q183 0 183 84q0 55 -113 66q-221 21 -291 47q-43 -43 -43 -82zM391 1260q0 59 38 100 t101 41q60 0 100 -41.5t40 -99.5q0 -57 -40.5 -99.5t-103.5 -42.5q-59 0 -97 39.5t-38 102.5zM399 621q0 -80 33.5 -114t97.5 -34q59 0 93 38t34 110t-33 103.5t-96 31.5q-60 0 -94.5 -38t-34.5 -97z" />
<glyph unicode="&#x122;" horiz-adv-x="1492" d="M74 668q0 169 53 308.5t150 236.5t239 150.5t315 53.5q311 0 431 -67q81 -47 81 -138q0 -120 -26 -276h-207q-8 52 -14.5 81.5t-19 58t-27.5 41.5t-43 23.5t-62.5 13.5t-87.5 3q-56 0 -105 -9.5t-104.5 -40t-94.5 -80t-65 -136.5t-26 -203q0 -110 27 -194.5t66.5 -131.5 t92.5 -76.5t96 -38.5t86 -9q106 0 134 28q16 16 16 68v82q0 51 -29 69q-39 15 -147 23v190q118 -4 352 -4q147 0 299 4v-190q-74 -5 -97.5 -21.5t-23.5 -74.5v-242q0 -49 -17 -72t-61 -43q-87 -38 -211.5 -62t-255.5 -24q-158 0 -289 46t-225.5 133t-147 220t-52.5 300z M596 -586q145 113 145 185q0 35 -39 55q-40 17 -62 44t-22 77q0 51 42.5 92t111.5 41q78 0 122 -49t44 -129q0 -74 -33.5 -144.5t-92.5 -132t-148 -125.5z" />
<glyph unicode="&#x123;" horiz-adv-x="1136" d="M-12 -289q0 92 60.5 145t166.5 85q-94 50 -94 147q0 113 137 213q-203 84 -203 311q0 166 124 268.5t353 102.5q190 0 287 -61q183 0 316 -7v-204q-24 -1 -156 -6q10 -23 10 -76q0 -181 -120.5 -280t-352.5 -99q-67 0 -94 6q-27 -17 -27 -45q0 -44 101 -53q22 -2 81 -6.5 t125 -11t144 -17.5q145 -21 206.5 -98.5t61.5 -202.5q0 -180 -155 -287.5t-422 -107.5q-120 0 -214.5 15.5t-156.5 41.5t-102.5 62.5t-58 77t-17.5 87.5zM305 -207q0 -115 264 -115q183 0 183 84q0 55 -113 66q-221 21 -291 47q-43 -43 -43 -82zM383 1243q0 75 33.5 146 t92.5 132.5t148 125.5l66 -86q-143 -114 -143 -187q0 -38 38 -53q42 -20 63 -46t21 -75q0 -53 -41.5 -93t-111.5 -40q-78 0 -122 49t-44 127zM399 621q0 -80 33.5 -114t97.5 -34q59 0 93 38t34 110t-33 103.5t-96 31.5q-60 0 -94.5 -38t-34.5 -97z" />
<glyph unicode="&#x124;" horiz-adv-x="1591" d="M35 -2v190q83 3 112.5 10t45.5 23q16 19 16 129v697q0 99 -14 118q-11 16 -44.5 23t-115.5 10v188q270 -6 362 -6q93 0 357 6v-188q-59 -2 -93.5 -8t-45 -11.5t-19.5 -15.5q-16 -22 -16 -121v-186h432v186q0 103 -17 123q-13 16 -44.5 23t-112.5 10v188q270 -6 372 -6 q79 0 349 6v-188q-85 -3 -115.5 -10.5t-42.5 -24.5q-11 -11 -15 -35.5t-4 -85.5v-682q0 -112 19 -139q12 -15 39 -22t119 -11v-190q-180 4 -349 4q-192 0 -372 -4v190q81 3 112 10t45 21q17 20 17 131v244h-432v-234q0 -115 16 -137q10 -10 21 -15.5t45 -11t92 -8.5v-190 q-176 4 -357 4q-182 0 -362 -4zM453 1542l247 275q45 55 101 55q54 0 104 -53l244 -275l-84 -80l-268 174l-267 -174z" />
<glyph unicode="&#x125;" horiz-adv-x="1273" d="M-39 1585l248 275q45 55 100 55t105 -53l243 -275l-84 -80l-268 174l-266 -174zM25 -2v186q65 7 88.5 13.5t36.5 19.5q14 17 14 109v718q0 95 -5 131.5t-22 49.5q-19 14 -65 14q-33 0 -47 -2v180q179 80 352 80q131 0 131 -168q0 -79 -2 -244.5t-2 -253.5 q60 67 153.5 106.5t176.5 39.5q129 0 198 -66q39 -36 56.5 -101t17.5 -173v-309q0 -83 10 -103q8 -15 34.5 -23.5t98.5 -17.5v-186q-172 4 -278 4q-119 0 -299 -4v186q64 13 80 31q14 14 14 117v213q0 96 -21.5 128t-97.5 32q-55 0 -141 -27v-348q0 -66 3 -90.5t15 -34.5 q16 -14 74 -21v-186q-180 4 -250 4q-231 0 -323 -4z" />
<glyph unicode="&#x126;" horiz-adv-x="1591" d="M33 924v166h176q-3 58 -14 75q-11 16 -44.5 23t-115.5 10v188q270 -6 362 -6q93 0 357 6v-188q-59 -2 -93.5 -8t-45 -11.5t-19.5 -15.5q-14 -21 -16 -73h432q-3 53 -17 75q-13 16 -44.5 23t-112.5 10v188q270 -6 372 -6q79 0 349 6v-188q-85 -3 -115.5 -10.5t-42.5 -24.5 q-16 -16 -19 -73h174v-166h-174v-564q0 -112 19 -139q12 -15 39 -22t119 -11v-190q-180 4 -349 4q-192 0 -372 -4v190q81 3 112 10t45 21q17 20 17 131v244h-432v-234q0 -115 16 -137q10 -10 21 -15.5t45 -11t92 -8.5v-190q-176 4 -357 4q-182 0 -362 -4v190q83 3 112.5 10 t45.5 23q16 19 16 129v574h-176zM580 842h432v82h-432v-82z" />
<glyph unicode="&#x127;" horiz-adv-x="1273" d="M14 1024v137h146q-3 46 -22.5 62t-65.5 16q-33 0 -47 -2v180q179 80 352 80q131 0 131 -168q0 -113 -2 -168h237v-137h-239v-193q60 67 153.5 106.5t176.5 39.5q129 0 198 -66q39 -36 56.5 -101t17.5 -173v-309q0 -83 10 -103q8 -15 34.5 -23.5t98.5 -17.5v-186 q-172 4 -278 4q-119 0 -299 -4v186q64 13 80 31q14 14 14 117v213q0 96 -21.5 128t-97.5 32q-55 0 -141 -27v-348q0 -66 3 -90.5t15 -34.5q16 -14 74 -21v-186q-180 4 -250 4q-231 0 -323 -4v186q65 7 88.5 13.5t36.5 19.5q14 17 14 109v698h-150z" />
<glyph unicode="&#x128;" horiz-adv-x="788" d="M35 -2v190q83 3 112.5 10t45.5 23q16 19 16 129v697q0 99 -14 118q-11 16 -44.5 23t-115.5 10v188q141 -6 362 -6q117 0 357 6v-188q-59 -2 -93.5 -8t-45 -11.5t-19.5 -15.5q-16 -22 -16 -121v-682q0 -71 3 -97t13 -38q8 -11 19 -17t45 -11.5t94 -8.5v-190q-176 4 -357 4 q-182 0 -362 -4zM41 1532q16 68 41 126t67 102t91 44q48 0 125 -35l88 -34q7 -3 24 -9.5t26.5 -10t23 -6.5t24.5 -3q26 0 46 23.5t48 82.5l105 -28q-21 -125 -70 -201t-119 -76q-46 0 -145 39l-82 35q-52 23 -84 23q-33 0 -57 -22.5t-52 -80.5z" />
<glyph unicode="&#x129;" horiz-adv-x="679" d="M-33 1120q18 70 42 127t66.5 101.5t92.5 44.5q46 0 129 -35l59 -29q63 -29 99 -29q26 0 45.5 24t48.5 83l102 -29q-20 -123 -68 -198.5t-118 -75.5q-64 0 -146 39l-57 24q-59 23 -88 23q-33 0 -55.5 -21t-50.5 -79zM33 -2v186q65 7 88.5 13.5t36.5 19.5q16 16 16 111v250 q0 105 -31 122q-21 13 -63 13q-31 0 -47 -2v184q166 80 338 80q151 0 151 -172q0 -62 -4 -225t-4 -248q0 -91 21 -115q22 -22 124 -31v-186q-180 4 -301 4q-233 0 -325 -4z" />
<glyph unicode="&#x12a;" horiz-adv-x="788" d="M35 -2v190q83 3 112.5 10t45.5 23q16 19 16 129v697q0 99 -14 118q-11 16 -44.5 23t-115.5 10v188q141 -6 362 -6q117 0 357 6v-188q-59 -2 -93.5 -8t-45 -11.5t-19.5 -15.5q-16 -22 -16 -121v-682q0 -71 3 -97t13 -38q8 -11 19 -17t45 -11.5t94 -8.5v-190q-176 4 -357 4 q-182 0 -362 -4zM113 1577v180h559v-180h-559z" />
<glyph unicode="&#x12b;" horiz-adv-x="679" d="M27 1116v180h559v-180h-559zM33 -2v186q65 7 88.5 13.5t36.5 19.5q16 16 16 111v250q0 105 -31 122q-21 13 -63 13q-31 0 -47 -2v184q166 80 338 80q151 0 151 -172q0 -62 -4 -225t-4 -248q0 -91 21 -115q22 -22 124 -31v-186q-180 4 -301 4q-233 0 -325 -4z" />
<glyph unicode="&#x12c;" horiz-adv-x="788" d="M35 -2v190q83 3 112.5 10t45.5 23q16 19 16 129v697q0 99 -14 118q-11 16 -44.5 23t-115.5 10v188q141 -6 362 -6q117 0 357 6v-188q-59 -2 -93.5 -8t-45 -11.5t-19.5 -15.5q-16 -22 -16 -121v-682q0 -71 3 -97t13 -38q8 -11 19 -17t45 -11.5t94 -8.5v-190q-176 4 -357 4 q-182 0 -362 -4zM84 1819l104 8q12 -74 64.5 -117t140.5 -43q90 0 141 39t68 121l105 -6q0 -162 -82.5 -250t-233.5 -88q-150 0 -228.5 80.5t-78.5 255.5z" />
<glyph unicode="&#x12d;" horiz-adv-x="679" d="M0 1399l106 8q11 -73 61 -116.5t130 -43.5q82 0 130 39t67 121l102 -6q0 -163 -77.5 -250.5t-223.5 -87.5q-295 0 -295 336zM33 -2v186q65 7 88.5 13.5t36.5 19.5q16 16 16 111v250q0 105 -31 122q-21 13 -63 13q-31 0 -47 -2v184q166 80 338 80q151 0 151 -172 q0 -62 -4 -225t-4 -248q0 -91 21 -115q22 -22 124 -31v-186q-180 4 -301 4q-233 0 -325 -4z" />
<glyph unicode="&#x12e;" horiz-adv-x="788" d="M35 -2v190q83 3 112.5 10t45.5 23q16 19 16 129v697q0 99 -14 118q-11 16 -44.5 23t-115.5 10v188q141 -6 362 -6q117 0 357 6v-188q-59 -2 -93.5 -8t-45 -11.5t-19.5 -15.5q-16 -22 -16 -121v-682q0 -71 3 -97t13 -38q8 -11 19 -17t45 -11.5t94 -8.5v-190q-31 1 -128 2 t-137 2q-180 -183 -180 -328q0 -48 26.5 -81t80.5 -33q70 0 145 30l39 -98q-44 -32 -116 -58t-136 -26q-120 0 -184 61.5t-64 153.5q0 93 62 190t180 189q-41 -1 -155.5 -2t-151.5 -2z" />
<glyph unicode="&#x12f;" horiz-adv-x="679" d="M33 -2v186q65 7 88.5 13.5t36.5 19.5q16 16 16 111v250q0 105 -31 122q-21 13 -63 13q-31 0 -47 -2v184q166 80 338 80q151 0 151 -172q0 -62 -4 -225t-4 -248q0 -91 21 -115q22 -22 124 -31v-186l-202 4q-176 -176 -176 -315q0 -46 25.5 -77.5t78.5 -31.5q73 0 143 31 l37 -98q-42 -31 -112.5 -55.5t-133.5 -24.5q-117 0 -179 59.5t-62 147.5q0 90 60.5 183.5t176.5 180.5q-126 0 -282 -4zM131 1294q0 81 53 134t138 53q95 0 140.5 -50.5t45.5 -132.5q0 -80 -51.5 -134t-141.5 -54q-83 0 -133.5 53.5t-50.5 130.5z" />
<glyph unicode="&#x130;" horiz-adv-x="788" d="M35 -2v190q83 3 112.5 10t45.5 23q16 19 16 129v697q0 99 -14 118q-11 16 -44.5 23t-115.5 10v188q141 -6 362 -6q117 0 357 6v-188q-59 -2 -93.5 -8t-45 -11.5t-19.5 -15.5q-16 -22 -16 -121v-682q0 -71 3 -97t13 -38q8 -11 19 -17t45 -11.5t94 -8.5v-190q-176 4 -357 4 q-182 0 -362 -4zM258 1661q0 59 38 99t101 40q61 0 100.5 -40.5t39.5 -98.5t-40.5 -99.5t-103.5 -41.5q-59 0 -97 39t-38 102z" />
<glyph unicode="&#x131;" horiz-adv-x="679" d="M33 -2v186q65 7 88.5 13.5t36.5 19.5q16 16 16 111v250q0 105 -31 122q-21 13 -63 13q-31 0 -47 -2v184q166 80 338 80q151 0 151 -172q0 -62 -4 -225t-4 -248q0 -91 21 -115q22 -22 124 -31v-186q-180 4 -301 4q-233 0 -325 -4z" />
<glyph unicode="&#x132;" horiz-adv-x="1562" d="M35 -2v190q83 3 112.5 10t45.5 23q16 19 16 129v697q0 99 -14 118q-11 16 -44.5 23t-115.5 10v188q141 -6 362 -6q117 0 357 6v-188q-59 -2 -93.5 -8t-45 -11.5t-19.5 -15.5q-16 -22 -16 -121v-682q0 -71 3 -97t13 -38q8 -11 19 -17t45 -11.5t94 -8.5v-190q-176 4 -357 4 q-182 0 -362 -4zM780 -158q57 33 102 77t66 85q47 94 47 342v701q0 99 -14 118q-11 15 -45 22.5t-115 10.5v188q141 -6 363 -6q108 0 348 6v-188q-58 -2 -91.5 -8t-41.5 -11t-17 -16q-16 -22 -16 -121v-692q0 -138 -22.5 -236.5t-81.5 -185.5q-54 -81 -159 -151t-218 -111z " />
<glyph unicode="&#x133;" horiz-adv-x="1320" d="M33 -2v186q65 7 88.5 13.5t36.5 19.5q16 16 16 111v250q0 105 -31 122q-21 13 -63 13q-31 0 -47 -2v184q166 80 338 80q151 0 151 -172q0 -62 -4 -225t-4 -248q0 -91 21 -115q22 -22 124 -31v-186q-180 4 -301 4q-233 0 -325 -4zM131 1294q0 81 53 134t138 53 q95 0 140.5 -50.5t45.5 -132.5q0 -80 -51.5 -134t-141.5 -54q-83 0 -133.5 53.5t-50.5 130.5zM631 -408q52 31 95.5 74t64.5 82q40 79 40 340v490q0 89 -16.5 112t-77.5 23q-29 0 -47 -2v184q171 80 338 80q67 0 105 -38t38 -134q0 -62 1.5 -355t1.5 -378q0 -142 -17.5 -226 t-71.5 -159q-59 -81 -164.5 -148t-211.5 -100zM791 1294q0 81 51.5 134t136.5 53q95 0 140.5 -50.5t45.5 -132.5q0 -80 -51 -134t-141 -54q-83 0 -132.5 53.5t-49.5 130.5z" />
<glyph unicode="&#x134;" horiz-adv-x="774" d="M-8 -158q57 33 102 77t66 85q47 94 47 342v701q0 99 -14 118q-11 15 -45 22.5t-115 10.5v188q141 -6 362 -6q108 0 348 6v-188q-58 -2 -91 -8t-40.5 -11t-17.5 -16q-16 -22 -16 -121v-692q0 -138 -23 -236.5t-82 -185.5q-54 -81 -159 -151t-218 -111zM72 1567l223 321 q39 60 100 60q62 0 105 -56l217 -323l-99 -74l-227 209l-225 -209z" />
<glyph unicode="&#x135;" horiz-adv-x="638" d="M-49 -408q52 31 95.5 74t64.5 82q41 81 41 340v490q0 89 -17 112t-78 23q-29 0 -47 -2v184q171 80 338 80q67 0 105.5 -38t38.5 -134q0 -62 1 -355t1 -378q0 -143 -17 -226.5t-71 -158.5q-59 -81 -165 -148t-212 -100zM-31 1106l224 321q39 60 100 60q62 0 104 -55 l217 -324l-100 -74l-225 209l-226 -209z" />
<glyph unicode="&#x136;" horiz-adv-x="1533" d="M35 -2v190q83 3 112.5 10t45.5 23q16 19 16 129v697q0 99 -14 118q-11 16 -44.5 23t-115.5 10v188q270 -6 362 -6q91 0 355 6v-188q-59 -2 -93 -8t-44 -11.5t-19 -15.5q-16 -22 -16 -121v-682q0 -116 16 -135q11 -11 21.5 -16.5t44 -11.5t92.5 -9v-190q-176 4 -357 4 q-182 0 -362 -4zM594 686q207 222 291 328q65 87 65 127q0 29 -18 41t-90 16v188q88 -4 350 -4q195 0 285 4v-188q-51 -3 -84 -18q-61 -19 -156 -127q-168 -192 -268 -301q220 -349 344 -471q50 -50 90.5 -69t112.5 -19v-191q-94 -10 -234 -10q-201 0 -305 104 q-51 52 -113 143t-110.5 173t-159.5 274zM596 -586q145 113 145 185q0 35 -39 55q-40 17 -62 44t-22 77q0 51 42.5 92t111.5 41q78 0 122 -49t44 -129q0 -110 -69.5 -207.5t-204.5 -194.5z" />
<glyph unicode="&#x137;" horiz-adv-x="1280" d="M25 -2v186q65 7 88.5 13.5t36.5 19.5q14 17 14 109v723q0 144 -31 172q-16 18 -61 18q-33 0 -47 -2v180q179 80 350 80q133 0 133 -168q0 -62 -1 -160t-1 -137v-702q0 -96 19 -116t106 -28q5 -1 8.5 -1.5t7.5 -0.5v-186q-184 4 -299 4q-231 0 -323 -4zM442 -586 q146 114 146 185q0 35 -39 55q-40 17 -62 44t-22 77q0 51 42 92t111 41q78 0 122 -49t44 -129q0 -110 -69.5 -207.5t-204.5 -194.5zM520 475q77 64 127 109q111 100 111 145q0 23 -21.5 33.5t-89.5 11.5v180q226 -4 297 -4q79 0 275 4v-182q-51 0 -89 -14q-52 -17 -143 -96 q-25 -22 -74 -67t-57 -52q66 -98 154 -207q66 -75 110 -103q57 -39 148 -45v-186q-82 -6 -162 -6q-202 0 -287 76q-124 108 -299 403z" />
<glyph unicode="&#x138;" horiz-adv-x="1280" d="M23 713v182q176 80 352 80q133 0 133 -164q0 -38 -1 -123t-1 -115v-243q0 -96 19 -116t106 -28q5 -1 8.5 -1.5t7.5 -0.5v-186q-184 4 -299 4q-231 0 -323 -4v186q65 7 88.5 13.5t36.5 19.5q14 17 14 109v215q0 79 -6.5 110t-24.5 47q-17 17 -61 17q-35 0 -49 -2zM520 475 q45 39 66 57.5t71.5 65.5t75.5 80t25 51q0 23 -21.5 33.5t-89.5 11.5v180q226 -4 297 -4q79 0 275 4v-182q-51 0 -89 -14q-52 -17 -143 -96q-25 -22 -74 -67t-57 -52q66 -98 154 -207q66 -75 110 -103q57 -39 148 -45v-186q-82 -6 -162 -6q-202 0 -287 76q-124 108 -299 403 z" />
<glyph unicode="&#x139;" horiz-adv-x="1300" d="M35 0v188q137 12 158 33q11 12 13.5 37t2.5 92v697q0 99 -14 118q-11 16 -44.5 23t-115.5 10v188q141 -6 362 -6q117 0 357 6v-188q-59 -2 -93.5 -8t-45 -11.5t-19.5 -15.5q-16 -22 -16 -121v-694q0 -42 12.5 -63t42.5 -25q55 -8 151 -8q105 0 158 12.5t78 40.5 q31 36 57 139h170q-6 -279 -39 -366q-12 -36 -60.5 -57t-119.5 -21h-995zM227 1556l246 256q52 53 81.5 68.5t66.5 15.5q42 0 73 -35t31 -83q0 -69 -98 -125l-324 -187z" />
<glyph unicode="&#x13a;" horiz-adv-x="667" d="M25 -2v186q65 7 88.5 13.5t36.5 19.5q14 17 14 109v663q0 125 -7.5 172t-23.5 60q-18 18 -61 18q-33 0 -47 -2v180q187 80 350 80q133 0 133 -168q0 -62 -1 -185.5t-1 -176.5v-637q0 -96 19 -116t106 -28q5 -1 8.5 -1.5t7.5 -0.5v-186q-184 4 -299 4q-231 0 -323 -4z M98 1692l246 256q52 53 81.5 68.5t66.5 15.5q42 0 73 -35.5t31 -83.5q0 -69 -98 -125l-324 -186z" />
<glyph unicode="&#x13b;" horiz-adv-x="1300" d="M35 0v188q137 12 158 33q11 12 13.5 37t2.5 92v697q0 99 -14 118q-11 16 -44.5 23t-115.5 10v188q141 -6 362 -6q117 0 357 6v-188q-59 -2 -93.5 -8t-45 -11.5t-19.5 -15.5q-16 -22 -16 -121v-694q0 -42 12.5 -63t42.5 -25q55 -8 151 -8q105 0 158 12.5t78 40.5 q31 36 57 139h170q-6 -279 -39 -366q-12 -36 -60.5 -57t-119.5 -21h-995zM428 -586q145 113 145 185q0 35 -38 55q-40 17 -62 44t-22 77q0 51 42 92t111 41q78 0 122 -49t44 -129q0 -110 -69.5 -207.5t-204.5 -194.5z" />
<glyph unicode="&#x13c;" horiz-adv-x="667" d="M25 -2v186q65 7 88.5 13.5t36.5 19.5q14 17 14 109v663q0 125 -7.5 172t-23.5 60q-18 18 -61 18q-33 0 -47 -2v180q187 80 350 80q133 0 133 -168q0 -62 -1 -185.5t-1 -176.5v-637q0 -96 19 -116t106 -28q5 -1 8.5 -1.5t7.5 -0.5v-186q-184 4 -299 4q-231 0 -323 -4z M162 -586q145 113 145 185q0 35 -39 55q-40 17 -62 44t-22 77q0 51 42.5 92t111.5 41q78 0 122 -49t44 -129q0 -110 -70 -207.5t-205 -194.5z" />
<glyph unicode="&#x13d;" horiz-adv-x="1300" d="M35 0v188q137 12 158 33q11 12 13.5 37t2.5 92v697q0 99 -14 118q-11 16 -44.5 23t-115.5 10v188q141 -6 362 -6q117 0 357 6v-188q-59 -2 -93.5 -8t-45 -11.5t-19.5 -15.5q-16 -22 -16 -121v-694q0 -42 12.5 -63t42.5 -25q55 -8 151 -8q105 0 158 12.5t78 40.5 q31 36 57 139h170q-6 -279 -39 -366q-12 -36 -60.5 -57t-119.5 -21h-995zM815 940q146 114 146 184q0 36 -39 56q-41 17 -62.5 43.5t-21.5 76.5q0 51 42 92.5t111 41.5q78 0 122 -49.5t44 -129.5q0 -110 -69.5 -207t-204.5 -194z" />
<glyph unicode="&#x13e;" horiz-adv-x="667" d="M25 -2v186q65 7 88.5 13.5t36.5 19.5q14 17 14 109v663q0 125 -7.5 172t-23.5 60q-18 18 -61 18q-33 0 -47 -2v180q187 80 350 80q133 0 133 -168q0 -62 -1 -185.5t-1 -176.5v-637q0 -96 19 -116t106 -28q5 -1 8.5 -1.5t7.5 -0.5v-186q-184 4 -299 4q-231 0 -323 -4z M586 1014q145 113 145 184q0 35 -39 55q-40 17 -62 44t-22 75q0 53 42 94t112 41q78 0 122 -49t44 -129q0 -110 -70 -207t-205 -194z" />
<glyph unicode="&#x13f;" horiz-adv-x="1300" d="M35 0v188q137 12 158 33q11 12 13.5 37t2.5 92v697q0 99 -14 118q-11 16 -44.5 23t-115.5 10v188q141 -6 362 -6q117 0 357 6v-188q-59 -2 -93.5 -8t-45 -11.5t-19.5 -15.5q-16 -22 -16 -121v-694q0 -42 12.5 -63t42.5 -25q55 -8 151 -8q105 0 158 12.5t78 40.5 q31 36 57 139h170q-6 -279 -39 -366q-12 -36 -60.5 -57t-119.5 -21h-995zM848 721q0 77 50.5 128.5t127.5 51.5q79 0 130.5 -49.5t51.5 -124.5q0 -87 -50 -136.5t-130 -49.5q-79 0 -129.5 51t-50.5 129z" />
<glyph unicode="&#x140;" horiz-adv-x="909" d="M25 -2v186q65 7 88.5 13.5t36.5 19.5q14 17 14 109v530q0 168 -4 260q-3 81 -27 105q-14 18 -61 18q-33 0 -47 -2v180q187 80 350 80q133 0 133 -168q0 -62 -1 -185.5t-1 -176.5v-637q0 -96 19 -116t106 -28q5 -1 8.5 -1.5t7.5 -0.5v-186q-184 4 -299 4q-231 0 -323 -4z M614 748q0 73 48.5 123.5t121.5 50.5q76 0 125 -48.5t49 -121.5q0 -85 -47.5 -133t-124.5 -48q-75 0 -123.5 50.5t-48.5 126.5z" />
<glyph unicode="&#x141;" horiz-adv-x="1300" d="M-4 535l213 124v388q0 99 -14 118q-11 16 -44.5 23t-115.5 10v188q141 -6 362 -6q117 0 357 6v-188q-59 -2 -93.5 -8t-45 -11.5t-19.5 -15.5q-16 -22 -16 -121v-163l264 157l82 -141l-346 -207v-340q0 -42 12.5 -63t42.5 -25q55 -8 151 -8q105 0 158 12.5t78 40.5 q31 36 57 139h170q-6 -279 -39 -366q-12 -36 -60.5 -57t-119.5 -21h-995v188q137 12 158 33q11 12 13.5 37t2.5 92v119l-131 -78z" />
<glyph unicode="&#x142;" horiz-adv-x="667" d="M-6 567l170 133v156q0 168 -4 260q-3 81 -27 105q-14 18 -61 18q-33 0 -47 -2v180q179 80 350 80q133 0 133 -168q0 -62 -1 -184.5t-1 -173.5l88 69l84 -110l-172 -135v-465q0 -96 19 -116t106 -28q5 -1 8.5 -1.5t7.5 -0.5v-186q-184 4 -299 4q-231 0 -323 -4v186 q65 7 88.5 13.5t36.5 19.5q14 17 14 109v200l-86 -67z" />
<glyph unicode="&#x143;" horiz-adv-x="1597" d="M31 1198v188q90 -4 334 -4q190 0 262 4q428 -631 547 -821q-4 105 -6.5 247.5t-4.5 174.5q-5 90 -8.5 120.5t-13.5 49.5q-13 19 -48.5 28.5t-123.5 12.5v188q222 -4 317 -4q77 0 295 4v-188q-79 -4 -108 -11t-48 -24q-13 -12 -17.5 -46t-6.5 -130q-2 -86 -2 -459 q0 -33 1 -184t1 -197q0 -88 -41.5 -130t-138.5 -42q-65 0 -111.5 30t-85.5 89q-495 746 -584 887q3 -403 9 -584q3 -99 6.5 -131t13.5 -45q14 -16 44.5 -22.5t119.5 -10.5v-190q-218 4 -301 4q-89 0 -297 -4v190q89 4 119 12.5t41 28.5q11 22 14 170q6 307 6 586 q0 144 -12 168q-4 7 -9 13t-13 10t-15 7t-19.5 5.5t-19.5 4t-23 2.5t-23 1t-25 1t-25 1zM686 1556l246 256q52 54 81 69t66 15q43 0 74 -35.5t31 -82.5q0 -68 -99 -125l-323 -187z" />
<glyph unicode="&#x144;" horiz-adv-x="1282" d="M33 -2v186q65 7 88.5 13.5t36.5 19.5q16 16 16 111v250q0 105 -31 122q-21 13 -63 13q-31 0 -47 -2v184q166 80 336 80q130 0 143 -144q60 67 153.5 106.5t176.5 39.5q129 0 198 -66q40 -38 57 -102t17 -172v-309q0 -89 10 -105t35.5 -24.5t97.5 -14.5v-186 q-172 4 -278 4q-119 0 -299 -4v186q59 10 78 29q16 16 16 119v213q0 95 -22 127.5t-99 32.5q-53 0 -139 -27v-348v-25v-43.5t3 -29.5t7.5 -21.5t16.5 -11.5t26 -9.5t39 -5.5v-186q-180 4 -248 4q-233 0 -325 -4zM504 1122l176 289q42 66 69.5 87.5t63.5 21.5q47 0 84 -32 t37 -81q0 -30 -17.5 -58t-58.5 -69l-262 -231z" />
<glyph unicode="&#x145;" horiz-adv-x="1597" d="M31 1198v188q90 -4 334 -4q190 0 262 4q428 -631 547 -821q-4 105 -6.5 247.5t-4.5 174.5q-5 90 -8.5 120.5t-13.5 49.5q-13 19 -48.5 28.5t-123.5 12.5v188q222 -4 317 -4q77 0 295 4v-188q-79 -4 -108 -11t-48 -24q-13 -12 -17.5 -46t-6.5 -130q-2 -86 -2 -459 q0 -33 1 -184t1 -197q0 -88 -41.5 -130t-138.5 -42q-65 0 -111.5 30t-85.5 89q-495 746 -584 887q3 -403 9 -584q3 -99 6.5 -131t13.5 -45q14 -16 44.5 -22.5t119.5 -10.5v-190q-218 4 -301 4q-89 0 -297 -4v190q89 4 119 12.5t41 28.5q11 22 14 170q6 307 6 586 q0 144 -12 168q-4 7 -9 13t-13 10t-15 7t-19.5 5.5t-19.5 4t-23 2.5t-23 1t-25 1t-25 1zM623 -586q145 113 145 185q0 35 -39 55q-40 17 -62 44t-22 77q0 51 42.5 92t111.5 41q78 0 122 -49t44 -129q0 -110 -70 -207.5t-205 -194.5z" />
<glyph unicode="&#x146;" horiz-adv-x="1282" d="M33 -2v186q65 7 88.5 13.5t36.5 19.5q16 16 16 111v250q0 105 -31 122q-21 13 -63 13q-31 0 -47 -2v184q166 80 336 80q130 0 143 -144q60 67 153.5 106.5t176.5 39.5q129 0 198 -66q40 -38 57 -102t17 -172v-309q0 -89 10 -105t35.5 -24.5t97.5 -14.5v-186 q-172 4 -278 4q-119 0 -299 -4v186q59 10 78 29q16 16 16 119v213q0 95 -22 127.5t-99 32.5q-53 0 -139 -27v-348v-25v-43.5t3 -29.5t7.5 -21.5t16.5 -11.5t26 -9.5t39 -5.5v-186q-180 4 -248 4q-233 0 -325 -4zM463 -586q145 113 145 185q0 35 -39 55q-40 17 -62 44t-22 77 q0 51 42.5 92t111.5 41q78 0 122 -49t44 -129q0 -110 -70 -207.5t-205 -194.5z" />
<glyph unicode="&#x147;" horiz-adv-x="1597" d="M31 1198v188q90 -4 334 -4q190 0 262 4q428 -631 547 -821q-4 105 -6.5 247.5t-4.5 174.5q-5 90 -8.5 120.5t-13.5 49.5q-13 19 -48.5 28.5t-123.5 12.5v188q222 -4 317 -4q77 0 295 4v-188q-79 -4 -108 -11t-48 -24q-13 -12 -17.5 -46t-6.5 -130q-2 -86 -2 -459 q0 -33 1 -184t1 -197q0 -88 -41.5 -130t-138.5 -42q-65 0 -111.5 30t-85.5 89q-495 746 -584 887q3 -403 9 -584q3 -99 6.5 -131t13.5 -45q14 -16 44.5 -22.5t119.5 -10.5v-190q-218 4 -301 4q-89 0 -297 -4v190q89 4 119 12.5t41 28.5q11 22 14 170q6 307 6 586 q0 144 -12 168q-4 7 -9 13t-13 10t-15 7t-19.5 5.5t-19.5 4t-23 2.5t-23 1t-25 1t-25 1zM444 1792l84 80l267 -172l268 172l78 -78l-248 -272q-51 -58 -102 -58q-54 0 -103 56z" />
<glyph unicode="&#x148;" horiz-adv-x="1282" d="M33 -2v186q65 7 88.5 13.5t36.5 19.5q16 16 16 111v250q0 105 -31 122q-21 13 -63 13q-31 0 -47 -2v184q166 80 336 80q130 0 143 -144q60 67 153.5 106.5t176.5 39.5q129 0 198 -66q40 -38 57 -102t17 -172v-309q0 -89 10 -105t35.5 -24.5t97.5 -14.5v-186 q-172 4 -278 4q-119 0 -299 -4v186q59 10 78 29q16 16 16 119v213q0 95 -22 127.5t-99 32.5q-53 0 -139 -27v-348v-25v-43.5t3 -29.5t7.5 -21.5t16.5 -11.5t26 -9.5t39 -5.5v-186q-180 4 -248 4q-233 0 -325 -4zM297 1419l100 74l226 -209l227 209l92 -72l-221 -321 q-43 -60 -103 -60q-62 0 -102 56z" />
<glyph unicode="&#x149;" horiz-adv-x="1282" d="M6 1083q146 114 146 185q0 35 -39 55q-40 17 -62 44t-22 77q0 51 42 92t111 41q78 0 122 -49t44 -129q0 -110 -69.5 -207.5t-204.5 -194.5zM33 -2v186q65 7 88.5 13.5t36.5 19.5q16 16 16 111v250q0 105 -31 122q-21 13 -63 13q-31 0 -47 -2v184q166 80 336 80 q130 0 143 -144q60 67 153.5 106.5t176.5 39.5q129 0 198 -66q40 -38 57 -102t17 -172v-309q0 -89 10 -105t35.5 -24.5t97.5 -14.5v-186q-172 4 -278 4q-119 0 -299 -4v186q59 10 78 29q16 16 16 119v213q0 95 -22 127.5t-99 32.5q-53 0 -139 -27v-348v-25v-43.5t3 -29.5 t7.5 -21.5t16.5 -11.5t26 -9.5t39 -5.5v-186q-180 4 -248 4q-233 0 -325 -4z" />
<glyph unicode="&#x14a;" horiz-adv-x="1597" d="M31 1198v188q90 -4 334 -4q190 0 262 4q377 -555 547 -825q-8 369 -11 426q-5 90 -8.5 120.5t-13.5 49.5q-13 19 -48.5 28.5t-123.5 12.5v188q222 -4 317 -4q81 0 299 4v-188q-88 -4 -116.5 -11t-45.5 -24q-12 -12 -16 -46.5t-6 -129.5q-2 -86 -2 -489q0 -50 1 -186 t1 -177q0 -149 -18.5 -242.5t-79.5 -175.5q-60 -82 -168 -156t-217 -112l-105 182q64 35 126 82t85 84q45 71 45 191v26q-492 745 -629 967q8 -549 9 -584q3 -99 6.5 -131t13.5 -45q14 -16 44.5 -22.5t119.5 -10.5v-190q-218 4 -301 4q-89 0 -297 -4v190q89 4 119 12.5 t41 28.5q11 22 14 170q6 307 6 586q0 144 -12 168q-4 7 -9 13t-13 10t-15 7t-19.5 5.5t-19.5 4t-23 2.5t-23 1t-25 1t-25 1z" />
<glyph unicode="&#x14b;" horiz-adv-x="1282" d="M33 -2v186q65 7 88.5 13.5t36.5 19.5q16 16 16 111v250q0 105 -31 122q-21 13 -63 13q-31 0 -47 -2v184q166 80 336 80q130 0 143 -144q60 67 153.5 106.5t176.5 39.5q153 0 210 -78.5t62 -261.5q6 -273 6 -549q0 -140 -17.5 -229t-72.5 -168q-55 -81 -151 -148 t-203 -106l-101 172q54 32 97.5 74t62.5 79q39 85 39 326v457q0 95 -22 127.5t-99 32.5q-53 0 -139 -27v-348q0 -97 14.5 -117t92.5 -29v-186q-180 4 -263 4q-233 0 -325 -4z" />
<glyph unicode="&#x14c;" horiz-adv-x="1552" d="M72 686q0 225 91.5 391t254.5 252t377 86q353 0 520.5 -183t167.5 -517q0 -185 -55 -329t-152 -233.5t-224 -135.5t-278 -46q-175 0 -310 52t-220.5 147.5t-128.5 225.5t-43 290zM463 715q0 -253 81 -365t232 -112q307 0 307 464q0 239 -74 347t-229 108 q-154 0 -235.5 -114t-81.5 -328zM485 1528v180h588v-180h-588z" />
<glyph unicode="&#x14d;" horiz-adv-x="1196" d="M63 473q0 234 151.5 372t395.5 138q256 0 389.5 -131.5t133.5 -359.5q0 -124 -41.5 -224t-114.5 -164.5t-171 -98.5t-212 -34q-261 0 -396 136.5t-135 365.5zM319 1116v180h560v-180h-560zM416 492q0 -144 45.5 -206.5t134.5 -62.5q94 0 139 60t45 190q0 138 -44.5 199 t-139.5 61q-88 0 -134 -61.5t-46 -179.5z" />
<glyph unicode="&#x14e;" horiz-adv-x="1552" d="M72 686q0 225 91.5 391t254.5 252t377 86q353 0 520.5 -183t167.5 -517q0 -185 -55 -329t-152 -233.5t-224 -135.5t-278 -46q-175 0 -310 52t-220.5 147.5t-128.5 225.5t-43 290zM463 715q0 -253 81 -365t232 -112q307 0 307 464q0 239 -74 347t-229 108 q-154 0 -235.5 -114t-81.5 -328zM479 1819l105 8q12 -74 64 -117t140 -43q90 0 141 39t68 121l105 -6q0 -162 -82.5 -250t-233.5 -88q-150 0 -228.5 80.5t-78.5 255.5z" />
<glyph unicode="&#x14f;" horiz-adv-x="1196" d="M63 473q0 234 151.5 372t395.5 138q256 0 389.5 -131.5t133.5 -359.5q0 -124 -41.5 -224t-114.5 -164.5t-171 -98.5t-212 -34q-261 0 -396 136.5t-135 365.5zM303 1399l107 8q11 -74 60.5 -117t129.5 -43q82 0 130 39t67 121l102 -6q0 -163 -77.5 -250.5t-223.5 -87.5 q-295 0 -295 336zM416 492q0 -144 45.5 -206.5t134.5 -62.5q94 0 139 60t45 190q0 138 -44.5 199t-139.5 61q-88 0 -134 -61.5t-46 -179.5z" />
<glyph unicode="&#x150;" horiz-adv-x="1552" d="M72 686q0 225 91.5 391t254.5 252t377 86q353 0 520.5 -183t167.5 -517q0 -185 -55 -329t-152 -233.5t-224 -135.5t-278 -46q-175 0 -310 52t-220.5 147.5t-128.5 225.5t-43 290zM463 715q0 -253 81 -365t232 -112q307 0 307 464q0 239 -74 347t-229 108 q-154 0 -235.5 -114t-81.5 -328zM485 1556l230 267q42 50 72.5 68t66.5 18q45 0 74.5 -30t29.5 -79q0 -67 -98 -131l-299 -203zM868 1556l232 267q40 49 70 67.5t67 18.5q46 0 76 -30t30 -79q0 -66 -100 -131l-299 -203z" />
<glyph unicode="&#x151;" horiz-adv-x="1196" d="M63 473q0 234 151.5 372t395.5 138q256 0 389.5 -131.5t133.5 -359.5q0 -124 -41.5 -224t-114.5 -164.5t-171 -98.5t-212 -34q-261 0 -396 136.5t-135 365.5zM338 1122l170 289q40 65 68 87t63 22q42 0 75.5 -28.5t33.5 -72.5q0 -30 -17 -58.5t-59 -68.5l-240 -241z M416 492q0 -144 45.5 -206.5t134.5 -62.5q94 0 139 60t45 190q0 138 -44.5 199t-139.5 61q-88 0 -134 -61.5t-46 -179.5zM668 1122l170 289q40 65 67 87t64 22q42 0 75 -28.5t33 -72.5q0 -30 -17 -58.5t-59 -68.5l-239 -241z" />
<glyph unicode="&#x152;" horiz-adv-x="2131" d="M70 674q0 153 45.5 283t134 230t231 157t324.5 57q62 0 181.5 -8.5t158.5 -8.5h708q87 0 123.5 -27t36.5 -79q0 -116 -28 -295h-205q-14 96 -51 125q-27 18 -113 18h-238v-309h49q100 0 129 29q18 23 43 112h179q-2 -51 -2 -256q0 -172 4 -258h-174q-13 89 -39 117 q-20 19 -51 24t-89 5h-49v-242q0 -80 58 -88q53 -8 149 -8q192 0 248 53q23 23 65 131h187q-6 -271 -39 -358q-13 -38 -55 -58t-133 -20h-723q-43 0 -166 -6t-197 -6q-184 0 -320 49t-219 141.5t-123 216t-40 279.5zM463 696q0 -86 10.5 -153.5t37 -126t68.5 -97t106.5 -60 t150.5 -21.5q120 0 157 57q15 25 15 96v596q0 99 -29 133.5t-123 34.5q-107 0 -184.5 -34.5t-122.5 -98t-65.5 -144.5t-20.5 -182z" />
<glyph unicode="&#x153;" horiz-adv-x="1765" d="M63 473q0 234 147 372t388 138q257 0 350 -117q57 55 144 86t184 31q110 0 192.5 -31.5t132.5 -89t74.5 -133t24.5 -168.5q0 -36 -8.5 -70.5t-22.5 -48.5q-27 -36 -106 -36h-457v-15q0 -62 53 -107.5t150 -45.5q150 0 319 79l98 -192q-197 -154 -475 -154q-98 0 -184 30 t-139 87q-135 -117 -344 -117q-261 0 -391 136t-130 366zM416 492q0 -143 46 -206t136 -63q94 0 138 59.5t44 190.5q0 141 -40 200.5t-138 59.5q-90 0 -138 -61.5t-48 -179.5zM1110 604l266 6v21q0 45 -31.5 75.5t-87.5 30.5q-65 0 -104 -32.5t-43 -100.5z" />
<glyph unicode="&#x154;" horiz-adv-x="1411" d="M35 -2v190q105 3 137 19q22 10 29.5 33t7.5 98v713q0 63 -4.5 85.5t-16.5 34.5t-41.5 18t-111.5 9v186h559q231 0 354 -22q163 -31 249.5 -128.5t86.5 -258.5q0 -318 -270 -416q78 -124 176 -233q68 -81 121 -107q45 -22 90 -24v-195q-28 -4 -119 -4q-79 0 -142.5 11 t-107.5 32t-70.5 39.5t-54.5 44.5q-136 125 -268 399q-35 0 -59 4v-170q0 -64 4.5 -93t17.5 -42q18 -18 44.5 -25t101.5 -8v-190q-204 4 -392 4q-87 0 -321 -4zM455 1556l245 256q52 53 81.5 68.5t66.5 15.5q42 0 73 -35t31 -83q0 -69 -98 -125l-324 -187zM580 782 q33 -2 120 -2q195 0 195 174q0 54 -25 93.5t-71 54.5q-49 14 -172 14h-47v-334z" />
<glyph unicode="&#x155;" horiz-adv-x="917" d="M33 -2v186q65 7 88.5 13.5t36.5 19.5q16 16 16 111v250q0 105 -31 122q-21 13 -63 13q-31 0 -47 -2v184q166 80 336 80q120 0 141 -121q41 56 108 91.5t130 35.5q147 0 147 -139q0 -61 -23 -219h-204q-9 58 -25.5 81t-48.5 23q-39 0 -80 -33v-360q0 -100 24.5 -121.5 t124.5 -27.5q8 -1 13 -1v-186q-180 4 -318 4q-233 0 -325 -4zM324 1122l176 289q42 66 69.5 87.5t63.5 21.5q47 0 84 -32t37 -81q0 -30 -17.5 -58t-58.5 -69l-262 -231z" />
<glyph unicode="&#x156;" horiz-adv-x="1411" d="M35 -2v190q105 3 137 19q22 10 29.5 33t7.5 98v713q0 63 -4.5 85.5t-16.5 34.5t-41.5 18t-111.5 9v186h559q231 0 354 -22q163 -31 249.5 -128.5t86.5 -258.5q0 -318 -270 -416q78 -124 176 -233q68 -81 121 -107q45 -22 90 -24v-195q-28 -4 -119 -4q-79 0 -142.5 11 t-107.5 32t-70.5 39.5t-54.5 44.5q-136 125 -268 399q-35 0 -59 4v-170q0 -64 4.5 -93t17.5 -42q18 -18 44.5 -25t101.5 -8v-190q-204 4 -392 4q-87 0 -321 -4zM530 -586q146 114 146 185q0 35 -39 55q-40 17 -62 44t-22 77q0 51 42.5 92t111.5 41q78 0 121.5 -49t43.5 -129 q0 -110 -69.5 -207.5t-204.5 -194.5zM580 782q33 -2 120 -2q195 0 195 174q0 54 -25 93.5t-71 54.5q-49 14 -172 14h-47v-334z" />
<glyph unicode="&#x157;" horiz-adv-x="917" d="M33 -2v186q65 7 88.5 13.5t36.5 19.5q16 16 16 111v250q0 105 -31 122q-21 13 -63 13q-31 0 -47 -2v184q166 80 336 80q120 0 141 -121q41 56 108 91.5t130 35.5q147 0 147 -139q0 -61 -23 -219h-204q-9 58 -25.5 81t-48.5 23q-39 0 -80 -33v-360q0 -100 24.5 -121.5 t124.5 -27.5q8 -1 13 -1v-186q-180 4 -318 4q-233 0 -325 -4zM188 -586q146 114 146 185q0 35 -39 55q-40 17 -62 44t-22 77q0 51 42.5 92t111.5 41q78 0 121.5 -49t43.5 -129q0 -110 -69.5 -207.5t-204.5 -194.5z" />
<glyph unicode="&#x158;" horiz-adv-x="1411" d="M35 -2v190q105 3 137 19q22 10 29.5 33t7.5 98v713q0 63 -4.5 85.5t-16.5 34.5t-41.5 18t-111.5 9v186h559q231 0 354 -22q163 -31 249.5 -128.5t86.5 -258.5q0 -318 -270 -416q78 -124 176 -233q68 -81 121 -107q45 -22 90 -24v-195q-28 -4 -119 -4q-79 0 -142.5 11 t-107.5 32t-70.5 39.5t-54.5 44.5q-136 125 -268 399q-35 0 -59 4v-170q0 -64 4.5 -93t17.5 -42q18 -18 44.5 -25t101.5 -8v-190q-204 4 -392 4q-87 0 -321 -4zM285 1792l84 80l266 -172l268 172l78 -78l-248 -272q-51 -58 -102 -58q-54 0 -103 56zM580 782q33 -2 120 -2 q195 0 195 174q0 54 -25 93.5t-71 54.5q-49 14 -172 14h-47v-334z" />
<glyph unicode="&#x159;" horiz-adv-x="917" d="M33 -2v186q65 7 88.5 13.5t36.5 19.5q16 16 16 111v250q0 105 -31 122q-21 13 -63 13q-31 0 -47 -2v184q166 80 336 80q120 0 141 -121q41 56 108 91.5t130 35.5q147 0 147 -139q0 -61 -23 -219h-204q-9 58 -25.5 81t-48.5 23q-39 0 -80 -33v-360q0 -100 24.5 -121.5 t124.5 -27.5q8 -1 13 -1v-186q-180 4 -318 4q-233 0 -325 -4zM137 1419l101 74l225 -209l227 209l92 -72l-221 -321q-43 -60 -102 -60q-63 0 -103 56z" />
<glyph unicode="&#x15a;" horiz-adv-x="1261" d="M90 268q0 126 12 232h183q25 -143 77 -199q34 -36 103.5 -56t150.5 -20q95 0 145 33t50 92q0 36 -13 61.5t-32.5 39t-50.5 24.5l-266 92q-62 21 -112 47t-85 53t-60.5 58.5t-41 60.5t-24.5 63.5t-12 63.5t-3 64q0 95 34.5 173.5t103 138.5t180 93t257.5 33q251 0 363 -65 q44 -26 61.5 -65.5t17.5 -110.5q0 -82 -18 -248h-184q-8 53 -15.5 86.5t-21 62.5t-31 44.5t-46.5 27t-65 15t-90 3.5q-93 0 -134.5 -31.5t-41.5 -82.5q0 -94 92 -127l271 -93q173 -59 258.5 -154t85.5 -249q0 -115 -44 -203t-123.5 -143t-186 -83t-236.5 -28 q-94 0 -191.5 15t-154.5 39q-97 40 -129.5 94.5t-32.5 148.5zM500 1556l245 256q52 53 81.5 68.5t66.5 15.5q42 0 73 -35t31 -83q0 -31 -24.5 -64t-73.5 -61l-324 -187z" />
<glyph unicode="&#x15b;" horiz-adv-x="991" d="M63 182q0 131 11 199h178q14 -94 63 -133q54 -51 166 -51q109 0 109 51q0 25 -11 36t-40 23l-189 70q-89 33 -144 64t-83 68t-37.5 73t-9.5 90q0 134 122 222.5t341 88.5q73 0 150 -12.5t124 -34.5q72 -38 72 -135q0 -87 -17 -187h-174q-10 54 -22 78.5t-33 38.5 q-46 27 -143 27q-84 0 -84 -53q0 -39 49 -54l192 -69q86 -30 139.5 -59t84 -64.5t42 -74.5t11.5 -95q0 -106 -64 -179t-166 -106t-233 -33q-158 0 -256 31q-87 28 -117.5 69t-30.5 111zM369 1122l176 289q42 66 69.5 87.5t63.5 21.5q47 0 84 -32t37 -81q0 -30 -17.5 -58 t-58.5 -69l-262 -231z" />
<glyph unicode="&#x15c;" horiz-adv-x="1261" d="M90 268q0 126 12 232h183q25 -143 77 -199q34 -36 103.5 -56t150.5 -20q95 0 145 33t50 92q0 36 -13 61.5t-32.5 39t-50.5 24.5l-266 92q-62 21 -112 47t-85 53t-60.5 58.5t-41 60.5t-24.5 63.5t-12 63.5t-3 64q0 95 34.5 173.5t103 138.5t180 93t257.5 33q251 0 363 -65 q44 -26 61.5 -65.5t17.5 -110.5q0 -82 -18 -248h-184q-8 53 -15.5 86.5t-21 62.5t-31 44.5t-46.5 27t-65 15t-90 3.5q-93 0 -134.5 -31.5t-41.5 -82.5q0 -94 92 -127l271 -93q173 -59 258.5 -154t85.5 -249q0 -115 -44 -203t-123.5 -143t-186 -83t-236.5 -28 q-94 0 -191.5 15t-154.5 39q-97 40 -129.5 94.5t-32.5 148.5zM336 1542l248 275q45 55 100 55q32 0 55.5 -13t48.5 -40l244 -275l-84 -80l-268 174l-266 -174z" />
<glyph unicode="&#x15d;" horiz-adv-x="991" d="M63 182q0 131 11 199h178q14 -94 63 -133q54 -51 166 -51q109 0 109 51q0 25 -11 36t-40 23l-189 70q-89 33 -144 64t-83 68t-37.5 73t-9.5 90q0 134 122 222.5t341 88.5q73 0 150 -12.5t124 -34.5q72 -38 72 -135q0 -87 -17 -187h-174q-10 54 -22 78.5t-33 38.5 q-46 27 -143 27q-84 0 -84 -53q0 -39 49 -54l192 -69q86 -30 139.5 -59t84 -64.5t42 -74.5t11.5 -95q0 -106 -64 -179t-166 -106t-233 -33q-158 0 -256 31q-87 28 -117.5 69t-30.5 111zM190 1106l224 321q39 60 100 60q62 0 104 -55l218 -324l-99 -74l-227 209l-225 -209z " />
<glyph unicode="&#x15e;" horiz-adv-x="1261" d="M90 268q0 126 12 232h183q25 -143 77 -199q34 -36 103.5 -56t150.5 -20q95 0 145 33t50 92q0 36 -13 61.5t-32.5 39t-50.5 24.5l-266 92q-62 21 -112 47t-85 53t-60.5 58.5t-41 60.5t-24.5 63.5t-12 63.5t-3 64q0 95 34.5 173.5t103 138.5t180 93t257.5 33q251 0 363 -65 q44 -26 61.5 -65.5t17.5 -110.5q0 -82 -18 -248h-184q-8 53 -15.5 86.5t-21 62.5t-31 44.5t-46.5 27t-65 15t-90 3.5q-93 0 -134.5 -31.5t-41.5 -82.5q0 -94 92 -127l271 -93q173 -59 258.5 -154t85.5 -249q0 -207 -136.5 -321t-369.5 -132q-16 -46 -16 -65q0 -28 41 -51 q81 -46 110 -83.5t29 -97.5q0 -115 -111 -187.5t-299 -98.5l-24 133q109 22 160 55.5t51 85.5q0 61 -84 105q-45 25 -45 65q0 48 38 137q-183 10 -280 52q-97 40 -129.5 94.5t-32.5 148.5z" />
<glyph unicode="&#x15f;" horiz-adv-x="991" d="M63 182q0 131 11 199h178q14 -94 63 -133q54 -51 166 -51q109 0 109 51q0 25 -11 36t-40 23l-189 70q-89 33 -144 64t-83 68t-37.5 73t-9.5 90q0 134 122 222.5t341 88.5q73 0 150 -12.5t124 -34.5q72 -38 72 -135q0 -87 -17 -187h-174q-10 54 -22 78.5t-33 38.5 q-46 27 -143 27q-84 0 -84 -53q0 -39 49 -54l192 -69q86 -30 139.5 -59t84 -64.5t42 -74.5t11.5 -95q0 -97 -54.5 -167t-143 -105.5t-204.5 -43.5q-16 -40 -16 -59q0 -29 39 -51q78 -44 105.5 -79.5t27.5 -92.5q0 -111 -107 -182t-286 -95l-25 127q106 22 154.5 54.5 t48.5 82.5q0 56 -80 103q-43 21 -43 61q0 38 39 133q-102 6 -174 27q-87 28 -117.5 69t-30.5 111z" />
<glyph unicode="&#x160;" horiz-adv-x="1261" d="M90 268q0 126 12 232h183q25 -143 77 -199q34 -36 103.5 -56t150.5 -20q95 0 145 33t50 92q0 36 -13 61.5t-32.5 39t-50.5 24.5l-266 92q-62 21 -112 47t-85 53t-60.5 58.5t-41 60.5t-24.5 63.5t-12 63.5t-3 64q0 95 34.5 173.5t103 138.5t180 93t257.5 33q251 0 363 -65 q44 -26 61.5 -65.5t17.5 -110.5q0 -82 -18 -248h-184q-8 53 -15.5 86.5t-21 62.5t-31 44.5t-46.5 27t-65 15t-90 3.5q-93 0 -134.5 -31.5t-41.5 -82.5q0 -94 92 -127l271 -93q173 -59 258.5 -154t85.5 -249q0 -115 -44 -203t-123.5 -143t-186 -83t-236.5 -28 q-94 0 -191.5 15t-154.5 39q-97 40 -129.5 94.5t-32.5 148.5zM307 1792l84 80l266 -172l269 172l78 -78l-248 -272q-51 -58 -103 -58q-31 0 -54 14t-48 42z" />
<glyph unicode="&#x161;" horiz-adv-x="991" d="M63 182q0 131 11 199h178q14 -94 63 -133q54 -51 166 -51q109 0 109 51q0 25 -11 36t-40 23l-189 70q-89 33 -144 64t-83 68t-37.5 73t-9.5 90q0 134 122 222.5t341 88.5q73 0 150 -12.5t124 -34.5q72 -38 72 -135q0 -87 -17 -187h-174q-10 54 -22 78.5t-33 38.5 q-46 27 -143 27q-84 0 -84 -53q0 -39 49 -54l192 -69q86 -30 139.5 -59t84 -64.5t42 -74.5t11.5 -95q0 -106 -64 -179t-166 -106t-233 -33q-158 0 -256 31q-87 28 -117.5 69t-30.5 111zM186 1419l101 74l225 -209l227 209l92 -72l-221 -321q-43 -60 -102 -60q-62 0 -102 56z " />
<glyph unicode="&#x162;" horiz-adv-x="1427" d="M57 1235q0 68 34 108.5t108 40.5h1028q73 0 108 -35t35 -94q0 -219 -10 -366h-168q-11 109 -23 151.5t-39 63.5q-23 19 -71 24t-152 5v-773q0 -115 17 -135q16 -16 49 -24.5t127 -12.5v-190q-36 1 -149.5 2t-157.5 2q-29 -74 -29 -92q0 -28 41 -51q81 -46 110 -83.5 t29 -97.5q0 -115 -110.5 -187.5t-298.5 -98.5l-25 133q109 22 160 55.5t51 85.5q0 61 -84 105q-45 25 -45 65q0 49 51 166q-44 -1 -154 -2t-145 -2v190q94 3 127.5 10.5t48.5 22.5q17 20 17 129v783q-186 0 -232 -25q-26 -17 -43.5 -62t-25.5 -157h-166q-13 191 -13 346z " />
<glyph unicode="&#x163;" horiz-adv-x="772" d="M-10 707v180q133 23 166 92q18 41 45 139q16 56 51.5 84.5t101.5 28.5q65 0 98 -28.5t33 -96.5v-184q116 0 230 -7v-204q-156 -4 -230 -4v-209v-36q-1 -41 -0.5 -61.5t3.5 -53t9.5 -49t18.5 -34.5t31.5 -25.5t46.5 -7.5q73 0 129 13l39 -203q-111 -58 -311 -66 q-17 -46 -17 -61q0 -29 39 -51q78 -44 105.5 -79.5t27.5 -92.5q0 -111 -107 -182t-286 -95l-25 127q106 22 154.5 54.5t48.5 82.5q0 56 -80 103q-43 21 -43 61q0 37 45 146q-174 48 -174 276q0 119 8 443h-157z" />
<glyph unicode="&#x164;" horiz-adv-x="1427" d="M57 1235q0 68 34 108.5t108 40.5h1028q73 0 108 -35t35 -94q0 -219 -10 -366h-168q-11 109 -23 151.5t-39 63.5q-23 19 -71 24t-152 5v-773q0 -115 17 -135q16 -16 49 -24.5t127 -12.5v-190q-180 4 -375 4q-197 0 -381 -4v190q94 3 127.5 10.5t48.5 22.5q17 20 17 129 v783q-186 0 -232 -25q-26 -17 -43.5 -62t-25.5 -157h-166q-13 191 -13 346zM381 1792l84 80l266 -172l268 172l78 -78l-248 -272q-51 -58 -102 -58q-53 0 -102 56z" />
<glyph unicode="&#x165;" horiz-adv-x="772" d="M-10 707v180q133 23 166 92q18 41 45 139q16 56 51.5 84.5t101.5 28.5q65 0 98 -28.5t33 -96.5v-184q116 0 230 -7v-204q-156 -4 -230 -4v-209v-36q-1 -41 -0.5 -61.5t3.5 -53t9.5 -49t18.5 -34.5t31.5 -25.5t46.5 -7.5q73 0 129 13l39 -203q-60 -33 -158 -49.5 t-188 -16.5q-277 0 -277 289q0 119 8 443h-157zM537 1057q48 37 79 68t48.5 60.5t17.5 55.5q0 35 -39 55q-26 11 -43 24t-29 37.5t-12 57.5q0 53 42 94t112 41q78 0 122 -49t44 -129q0 -74 -33.5 -144.5t-93 -131.5t-148.5 -125z" />
<glyph unicode="&#x166;" horiz-adv-x="1427" d="M59 1235q0 68 34 108.5t108 40.5h1028q73 0 108 -35t35 -94q0 -219 -10 -366h-168q-11 110 -22.5 152t-38.5 63q-23 19 -71 24t-153 5v-322h271v-166h-271v-285q0 -115 17 -135q16 -16 49 -24.5t127 -12.5v-190q-180 4 -375 4q-197 0 -381 -4v190q94 3 127.5 10.5 t48.5 22.5q17 20 17 129v295h-277v166h277v322q-186 0 -232 -25q-26 -17 -43.5 -62t-25.5 -157h-166q-13 191 -13 346z" />
<glyph unicode="&#x167;" horiz-adv-x="772" d="M-10 707v180q133 23 166 92q18 41 45 139q16 56 51.5 84.5t101.5 28.5q65 0 98 -28.5t33 -96.5v-184q116 0 230 -7v-204q-156 -4 -230 -4v-115h209v-137h-209q0 -88 4 -119q9 -105 105 -105q73 0 129 13l39 -203q-60 -33 -158 -49.5t-188 -16.5q-277 0 -277 289 q0 128 2 191h-131v137h133l4 115h-157z" />
<glyph unicode="&#x168;" horiz-adv-x="1630" d="M27 1198v188q164 -4 317 -4q274 0 434 4v-188q-153 -2 -176 -35q-17 -17 -20 -102q-2 -76 -2 -416q0 -195 34 -283q48 -129 256 -129q214 0 277 99q25 38 37.5 95.5t15 102t2.5 117.5q0 200 -8 391q-4 65 -8.5 91.5t-20.5 37.5q-17 16 -52.5 22t-111.5 9v188 q76 -2 359 -2q20 0 114.5 1t133.5 1v-188q-86 -7 -118.5 -18t-43.5 -29q-19 -36 -19 -129v-420q0 -188 -28 -290t-96 -179q-68 -79 -198.5 -122.5t-287.5 -43.5q-186 0 -323 51.5t-201 147.5q-45 69 -65.5 170t-20.5 297q0 107 1 253.5t1 155.5q0 92 -12 113 q-13 20 -47.5 29.5t-122.5 13.5zM514 1532q16 68 41 126t67 102t91 44q47 0 125 -35l88 -34q7 -3 24 -9.5t26.5 -10t23 -6.5t24.5 -3q26 0 46 23.5t48 82.5l105 -28q-21 -125 -70 -201t-119 -76q-46 0 -145 39l-82 35q-52 23 -84 23q-33 0 -57 -22.5t-52 -80.5z" />
<glyph unicode="&#x169;" horiz-adv-x="1241" d="M-4 711v184q166 80 336 80q68 0 108.5 -38t40.5 -134q0 -47 -4 -194.5t-4 -217.5q0 -49 11 -80t32.5 -44t39 -17t42.5 -4q83 0 145 35v297q0 107 -30 122q-21 13 -64 13q-29 0 -47 -2v184q166 80 340 80q67 0 106 -38t39 -134q0 -56 -3 -243.5t-3 -211.5q0 -83 14 -110 t66 -27q35 0 64 4v-190q-130 -50 -291 -50q-61 0 -112.5 33t-63.5 103q-51 -62 -133 -99t-176 -37q-170 0 -243 91.5t-73 277.5v234q0 105 -27 122q-26 13 -57 13q-6 0 -26 -1t-27 -1zM270 1098q13 51 30 95.5t41.5 86t58 66t71.5 24.5q47 0 129 -35l59 -28q63 -29 99 -29 q26 0 46 23.5t48 82.5l102 -28q-20 -124 -68 -199.5t-118 -75.5q-63 0 -145 39l-58 25q-56 22 -88 22q-33 0 -55.5 -21t-50.5 -79z" />
<glyph unicode="&#x16a;" horiz-adv-x="1630" d="M27 1198v188q164 -4 317 -4q274 0 434 4v-188q-153 -2 -176 -35q-17 -17 -20 -102q-2 -76 -2 -416q0 -195 34 -283q48 -129 256 -129q214 0 277 99q25 38 37.5 95.5t15 102t2.5 117.5q0 200 -8 391q-4 65 -8.5 91.5t-20.5 37.5q-17 16 -52.5 22t-111.5 9v188 q76 -2 359 -2q20 0 114.5 1t133.5 1v-188q-86 -7 -118.5 -18t-43.5 -29q-19 -36 -19 -129v-420q0 -188 -28 -290t-96 -179q-68 -79 -198.5 -122.5t-287.5 -43.5q-186 0 -323 51.5t-201 147.5q-45 69 -65.5 170t-20.5 297q0 107 1 253.5t1 155.5q0 92 -12 113 q-13 20 -47.5 29.5t-122.5 13.5zM535 1528v180h587v-180h-587z" />
<glyph unicode="&#x16b;" horiz-adv-x="1241" d="M-4 711v184q166 80 336 80q68 0 108.5 -38t40.5 -134q0 -47 -4 -194.5t-4 -217.5q0 -49 11 -80t32.5 -44t39 -17t42.5 -4q83 0 145 35v297q0 107 -30 122q-21 13 -64 13q-29 0 -47 -2v184q166 80 340 80q67 0 106 -38t39 -134q0 -56 -3 -243.5t-3 -211.5q0 -83 14 -110 t66 -27q35 0 64 4v-190q-130 -50 -291 -50q-61 0 -112.5 33t-63.5 103q-51 -62 -133 -99t-176 -37q-170 0 -243 91.5t-73 277.5v234q0 105 -27 122q-26 13 -57 13q-6 0 -26 -1t-27 -1zM322 1116v180h559v-180h-559z" />
<glyph unicode="&#x16c;" horiz-adv-x="1630" d="M27 1198v188q164 -4 317 -4q274 0 434 4v-188q-153 -2 -176 -35q-17 -17 -20 -102q-2 -76 -2 -416q0 -195 34 -283q48 -129 256 -129q214 0 277 99q25 38 37.5 95.5t15 102t2.5 117.5q0 200 -8 391q-4 65 -8.5 91.5t-20.5 37.5q-17 16 -52.5 22t-111.5 9v188 q76 -2 359 -2q20 0 114.5 1t133.5 1v-188q-86 -7 -118.5 -18t-43.5 -29q-19 -36 -19 -129v-420q0 -188 -28 -290t-96 -179q-68 -79 -198.5 -122.5t-287.5 -43.5q-186 0 -323 51.5t-201 147.5q-45 69 -65.5 170t-20.5 297q0 107 1 253.5t1 155.5q0 92 -12 113 q-13 20 -47.5 29.5t-122.5 13.5zM510 1819l104 8q12 -74 64.5 -117t140.5 -43q90 0 141 39t68 121l105 -6q0 -162 -82.5 -250t-233.5 -88q-150 0 -228.5 80.5t-78.5 255.5z" />
<glyph unicode="&#x16d;" horiz-adv-x="1241" d="M-4 711v184q166 80 336 80q68 0 108.5 -38t40.5 -134q0 -47 -4 -194.5t-4 -217.5q0 -49 11 -80t32.5 -44t39 -17t42.5 -4q83 0 145 35v297q0 107 -30 122q-21 13 -64 13q-29 0 -47 -2v184q166 80 340 80q67 0 106 -38t39 -134q0 -56 -3 -243.5t-3 -211.5q0 -83 14 -110 t66 -27q35 0 64 4v-190q-130 -50 -291 -50q-61 0 -112.5 33t-63.5 103q-51 -62 -133 -99t-176 -37q-170 0 -243 91.5t-73 277.5v234q0 105 -27 122q-26 13 -57 13q-6 0 -26 -1t-27 -1zM309 1399l107 8q11 -74 60.5 -117t129.5 -43q82 0 130 39t67 121l102 -6 q0 -163 -77.5 -250.5t-223.5 -87.5q-295 0 -295 336z" />
<glyph unicode="&#x16e;" horiz-adv-x="1630" d="M27 1198v188q164 -4 317 -4q274 0 434 4v-188q-153 -2 -176 -35q-17 -17 -20 -102q-2 -76 -2 -416q0 -195 34 -283q48 -129 256 -129q214 0 277 99q25 38 37.5 95.5t15 102t2.5 117.5q0 200 -8 391q-4 65 -8.5 91.5t-20.5 37.5q-17 16 -52.5 22t-111.5 9v188 q76 -2 359 -2q20 0 114.5 1t133.5 1v-188q-86 -7 -118.5 -18t-43.5 -29q-19 -36 -19 -129v-420q0 -188 -28 -290t-96 -179q-68 -79 -198.5 -122.5t-287.5 -43.5q-186 0 -323 51.5t-201 147.5q-45 69 -65.5 170t-20.5 297q0 107 1 253.5t1 155.5q0 92 -12 113 q-13 20 -47.5 29.5t-122.5 13.5zM649 1647q0 84 59.5 141t143.5 57q88 0 142.5 -54t54.5 -140t-57.5 -143.5t-141.5 -57.5q-85 0 -143 55.5t-58 141.5zM756 1651q0 -46 26.5 -75.5t67.5 -29.5q38 0 64 28.5t26 76.5q0 47 -26 73.5t-64 26.5q-39 0 -66.5 -27.5t-27.5 -72.5z " />
<glyph unicode="&#x16f;" horiz-adv-x="1241" d="M-4 711v184q166 80 336 80q68 0 108.5 -38t40.5 -134q0 -47 -4 -194.5t-4 -217.5q0 -49 11 -80t32.5 -44t39 -17t42.5 -4q83 0 145 35v297q0 107 -30 122q-21 13 -64 13q-29 0 -47 -2v184q166 80 340 80q67 0 106 -38t39 -134q0 -56 -3 -243.5t-3 -211.5q0 -83 14 -110 t66 -27q35 0 64 4v-190q-130 -50 -291 -50q-61 0 -112.5 33t-63.5 103q-51 -62 -133 -99t-176 -37q-170 0 -243 91.5t-73 277.5v234q0 105 -27 122q-26 13 -57 13q-6 0 -26 -1t-27 -1zM395 1255q0 85 59.5 142t143.5 57q88 0 142.5 -54t54.5 -140q0 -84 -57.5 -141.5 t-141.5 -57.5q-85 0 -143 54.5t-58 139.5zM502 1260q0 -44 26.5 -73.5t67.5 -29.5q38 0 64 28.5t26 74.5q0 49 -26 75.5t-64 26.5q-39 0 -66.5 -27.5t-27.5 -74.5z" />
<glyph unicode="&#x170;" horiz-adv-x="1630" d="M27 1198v188q164 -4 317 -4q274 0 434 4v-188q-153 -2 -176 -35q-17 -17 -20 -102q-2 -76 -2 -416q0 -195 34 -283q48 -129 256 -129q214 0 277 99q25 38 37.5 95.5t15 102t2.5 117.5q0 200 -8 391q-4 65 -8.5 91.5t-20.5 37.5q-17 16 -52.5 22t-111.5 9v188 q76 -2 359 -2q20 0 114.5 1t133.5 1v-188q-86 -7 -118.5 -18t-43.5 -29q-19 -36 -19 -129v-420q0 -188 -28 -290t-96 -179q-68 -79 -198.5 -122.5t-287.5 -43.5q-186 0 -323 51.5t-201 147.5q-45 69 -65.5 170t-20.5 297q0 107 1 253.5t1 155.5q0 92 -12 113 q-13 20 -47.5 29.5t-122.5 13.5zM477 1556l230 267q42 50 72.5 68t66.5 18q45 0 74.5 -30t29.5 -79q0 -67 -98 -131l-299 -203zM860 1556l232 267q40 49 70 67.5t67 18.5q46 0 76 -30t30 -79q0 -66 -100 -131l-299 -203z" />
<glyph unicode="&#x171;" horiz-adv-x="1241" d="M-4 711v184q166 80 336 80q68 0 108.5 -38t40.5 -134q0 -47 -4 -194.5t-4 -217.5q0 -49 11 -80t32.5 -44t39 -17t42.5 -4q83 0 145 35v297q0 107 -30 122q-21 13 -64 13q-29 0 -47 -2v184q166 80 340 80q67 0 106 -38t39 -134q0 -56 -3 -243.5t-3 -211.5q0 -83 14 -110 t66 -27q35 0 64 4v-190q-130 -50 -291 -50q-61 0 -112.5 33t-63.5 103q-51 -62 -133 -99t-176 -37q-170 0 -243 91.5t-73 277.5v234q0 105 -27 122q-26 13 -57 13q-6 0 -26 -1t-27 -1zM315 1122l170 289q40 65 68 87t63 22q42 0 75.5 -28.5t33.5 -72.5q0 -30 -17 -58.5 t-59 -68.5l-239 -241zM645 1122l170 289q40 65 67 87t64 22q42 0 75.5 -28.5t33.5 -72.5q0 -30 -17 -58.5t-59 -68.5l-240 -241z" />
<glyph unicode="&#x172;" horiz-adv-x="1630" d="M27 1198v188q164 -4 317 -4q274 0 434 4v-188q-153 -2 -176 -35q-17 -17 -20 -102q-2 -76 -2 -416q0 -195 34 -283q48 -129 256 -129q214 0 277 99q25 38 37.5 95.5t15 102t2.5 117.5q0 200 -8 391q-4 65 -8.5 91.5t-20.5 37.5q-17 16 -52.5 22t-111.5 9v188 q76 -2 359 -2q20 0 114.5 1t133.5 1v-188q-86 -7 -118.5 -18t-43.5 -29q-19 -36 -19 -129v-420q0 -188 -28 -290t-96 -179q-106 -123 -353 -156q-155 -166 -155 -303q0 -48 26 -81t80 -33q71 0 146 30l38 -98q-44 -33 -115.5 -58.5t-135.5 -25.5q-120 0 -184 61.5t-64 153.5 q0 171 200 344q-176 5 -304 55.5t-189 143.5q-45 69 -65.5 170t-20.5 297q0 107 1 253.5t1 155.5q0 92 -12 113q-13 20 -47.5 29.5t-122.5 13.5z" />
<glyph unicode="&#x173;" horiz-adv-x="1241" d="M-4 711v184q166 80 336 80q68 0 108.5 -38t40.5 -134q0 -47 -4 -194.5t-4 -217.5q0 -49 11 -80t32.5 -44t39 -17t42.5 -4q83 0 145 35v297q0 107 -30 122q-21 13 -64 13q-29 0 -47 -2v184q166 80 340 80q67 0 106 -38t39 -134q0 -56 -3 -243.5t-3 -211.5q0 -83 14 -110 t66 -27q35 0 64 4v-190q-71 -28 -187 -43q-155 -160 -155 -295q0 -46 25.5 -77.5t78.5 -31.5q73 0 143 31l37 -98q-43 -31 -112.5 -55.5t-132.5 -24.5q-117 0 -179.5 59.5t-62.5 147.5q0 173 209 342q-50 10 -85.5 42t-45.5 89q-51 -62 -133 -99t-176 -37q-170 0 -243 91.5 t-73 277.5v234q0 105 -27 122q-26 13 -57 13q-6 0 -26 -1t-27 -1z" />
<glyph unicode="&#x174;" horiz-adv-x="2224" d="M25 1198v188q262 -4 391 -4q295 0 381 4v-188q-61 0 -102 -7t-60.5 -21t-27 -28.5t-7.5 -35.5q0 -46 16 -111q26 -114 64 -272t59 -254q20 79 46 170.5t73.5 256.5t93.5 329q45 166 217 166q50 0 84.5 -10t56.5 -33t35 -49t27 -70q180 -580 225 -766q19 94 58.5 270 t56.5 258q19 88 19 119t-11 47t-53.5 27.5t-126.5 13.5v188q200 -4 371 -4q137 0 289 4v-188q-97 -5 -132 -31q-21 -14 -34.5 -46t-33.5 -98q-3 -11 -5 -17l-248 -859q-27 -92 -75 -132t-140 -40q-94 0 -138 34.5t-69 121.5q-191 650 -225 782q-48 -216 -213 -766 q-27 -90 -77 -131t-140 -41q-91 0 -137 36.5t-68 119.5l-256 936q-23 90 -68 109q-34 19 -116 22zM809 1542l248 275q45 55 100 55t105 -53l243 -275l-84 -80l-268 174l-266 -174z" />
<glyph unicode="&#x175;" horiz-adv-x="1730" d="M27 764v190q94 -4 297 -4q248 0 352 4v-190q-7 0 -27.5 -1t-30 -1.5t-26.5 -2.5t-26 -6t-19 -10t-14.5 -15.5t-4.5 -22.5q0 -11 13 -76q11 -48 39 -153t34 -130q52 156 177 498q20 56 55 86.5t106 30.5q68 0 97 -27t51 -88q12 -34 53 -149t69 -197.5t50 -153.5 q8 33 32.5 130.5t34.5 141.5q11 45 11 87q0 43 -35 49q-54 8 -96 10v190q88 -4 284 -4q125 0 203 4v-190q-73 -4 -94.5 -22.5t-44.5 -92.5l-201 -596q-30 -94 -166 -94t-170 94q-70 202 -153 473q-8 -23 -40.5 -116.5t-62 -170t-76.5 -190.5q-19 -43 -61 -66.5t-102 -23.5 q-143 0 -173 94l-194 606q-18 57 -41 80q-12 12 -33 17t-67 8zM614 1106l224 321q39 60 100 60q62 0 104 -55l218 -324l-99 -74l-227 209l-225 -209z" />
<glyph unicode="&#x176;" horiz-adv-x="1423" d="M12 1198v188q234 -4 324 -4q175 0 383 4v-188q-73 -4 -99 -19t-26 -42q0 -31 31 -90q110 -187 161 -283q29 55 86 155.5t78 139.5q29 56 29 86q0 24 -25.5 38t-101.5 15v188q96 -4 360 -4q113 0 199 4v-188q-65 -3 -96 -31q-31 -22 -144 -198l-284 -432v-207 q0 -58 10 -88q7 -23 44.5 -36.5t139.5 -17.5v-190q-222 4 -372 4q-169 0 -377 -4v190q103 7 132.5 15t39.5 26q12 17 12 101v205l-309 507q-34 57 -54 84t-44 43q-40 25 -97 29zM408 1542l247 275q45 55 101 55q54 0 104 -53l244 -275l-84 -80l-268 174l-267 -174z" />
<glyph unicode="&#x177;" horiz-adv-x="1210" d="M12 764v190q140 -4 383 -4q108 0 260 4v-190q-68 -7 -75 -8q-26 -4 -34.5 -16t-8.5 -35q0 -37 38 -123q68 -146 123 -291q16 49 50.5 145t52.5 150q30 86 30 127q0 17 -8 27.5t-25.5 15t-30.5 6t-38 2t-33 0.5v190q132 -4 248 -4q128 0 254 4v-190q-39 -3 -62.5 -10 t-41 -28t-26 -40t-26.5 -65l-219 -578q-88 -230 -134.5 -336.5t-92.5 -163.5q-41 -52 -106.5 -78t-124.5 -26q-82 0 -150 22q-50 19 -85.5 66t-35.5 113q0 67 12 137h191q4 -57 18 -80t56 -23q36 0 73 50q48 79 117 270q-50 0 -79.5 25t-57.5 83l-242 525q-42 90 -76 114 q-32 19 -94 23zM311 1106l224 321q39 60 100 60q62 0 104 -55l217 -324l-98 -74l-227 209l-225 -209z" />
<glyph unicode="&#x178;" horiz-adv-x="1423" d="M12 1198v188q234 -4 324 -4q175 0 383 4v-188q-73 -4 -99 -19t-26 -42q0 -31 31 -90q110 -187 161 -283q29 55 86 155.5t78 139.5q29 56 29 86q0 24 -25.5 38t-101.5 15v188q96 -4 360 -4q113 0 199 4v-188q-65 -3 -96 -31q-31 -22 -144 -198l-284 -432v-207 q0 -58 10 -88q7 -23 44.5 -36.5t139.5 -17.5v-190q-222 4 -372 4q-169 0 -377 -4v190q103 7 132.5 15t39.5 26q12 17 12 101v205l-309 507q-34 57 -54 84t-44 43q-40 25 -97 29zM389 1661q0 59 38.5 99t102.5 40q60 0 99 -40.5t39 -98.5q0 -59 -40 -100t-104 -41 q-58 0 -96.5 39.5t-38.5 101.5zM778 1661q0 59 38.5 99t101.5 40q60 0 98.5 -40.5t38.5 -98.5q0 -59 -39.5 -100t-102.5 -41q-59 0 -97 39t-38 102z" />
<glyph unicode="&#x179;" horiz-adv-x="1423" d="M66 0v106l692 1037q-185 0 -270.5 -5t-118.5 -20q-45 -20 -72 -172h-191q-16 153 -16 307q0 131 127 131h1083v-108l-696 -1030q73 -6 180 -6q159 0 222 12.5t90 48.5q29 41 55 141h192q-4 -241 -24 -354q-14 -88 -168 -88h-1085zM569 1556l246 256q52 53 81.5 68.5 t66.5 15.5q42 0 73 -35t31 -83q0 -69 -98 -125l-324 -187z" />
<glyph unicode="&#x17a;" horiz-adv-x="1089" d="M39 0v119l493 643q-118 0 -167 -4q-61 -3 -78 -45q-19 -35 -35 -133h-186q-17 113 -17 231q0 65 37 103t109 38h800v-127l-491 -641q59 -2 137 -2q77 0 133 23q16 7 34 30t28 46q29 66 41 116h172q0 -143 -19 -301q-11 -96 -143 -96h-848zM444 1122l177 289 q42 66 69.5 87.5t63.5 21.5q47 0 83.5 -32t36.5 -81q0 -30 -17 -58t-58 -69l-262 -231z" />
<glyph unicode="&#x17b;" horiz-adv-x="1423" d="M66 0v106l692 1037q-185 0 -270.5 -5t-118.5 -20q-45 -20 -72 -172h-191q-16 153 -16 307q0 131 127 131h1083v-108l-696 -1030q73 -6 180 -6q159 0 222 12.5t90 48.5q29 41 55 141h192q-4 -241 -24 -354q-14 -88 -168 -88h-1085zM573 1661q0 59 38.5 99t101.5 40 q60 0 99.5 -40.5t39.5 -98.5q0 -59 -40 -100t-103 -41q-59 0 -97.5 39.5t-38.5 101.5z" />
<glyph unicode="&#x17c;" horiz-adv-x="1089" d="M39 0v119l493 643q-118 0 -167 -4q-61 -3 -78 -45q-19 -35 -35 -133h-186q-17 113 -17 231q0 65 37 103t109 38h800v-127l-491 -641q59 -2 137 -2q77 0 133 23q16 7 34 30t28 46q29 66 41 116h172q0 -143 -19 -301q-11 -96 -143 -96h-848zM412 1260q0 59 38 100t101 41 q60 0 99.5 -41.5t39.5 -99.5t-40 -100t-103 -42q-59 0 -97 39.5t-38 102.5z" />
<glyph unicode="&#x17d;" horiz-adv-x="1423" d="M66 0v106l692 1037q-185 0 -270.5 -5t-118.5 -20q-45 -20 -72 -172h-191q-16 153 -16 307q0 131 127 131h1083v-108l-696 -1030q73 -6 180 -6q159 0 222 12.5t90 48.5q29 41 55 141h192q-4 -241 -24 -354q-14 -88 -168 -88h-1085zM348 1792l84 80l266 -172l269 172 l77 -78l-247 -272q-51 -58 -103 -58q-53 0 -102 56z" />
<glyph unicode="&#x17e;" horiz-adv-x="1089" d="M39 0v119l493 643q-118 0 -167 -4q-61 -3 -78 -45q-19 -35 -35 -133h-186q-17 113 -17 231q0 65 37 103t109 38h800v-127l-491 -641q59 -2 137 -2q77 0 133 23q16 7 34 30t28 46q29 66 41 116h172q0 -143 -19 -301q-11 -96 -143 -96h-848zM223 1419l101 74l225 -209 l227 209l92 -72l-221 -321q-43 -60 -102 -60q-63 0 -103 56z" />
<glyph unicode="&#x17f;" horiz-adv-x="708" d="M14 707v180q64 12 103 39q25 20 35.5 47t15.5 80q11 129 56 211t126 143q58 43 139 66.5t160 23.5q117 0 199 -31q50 -18 73 -49.5t23 -87.5q0 -111 -16 -213h-197q-3 72 -20 101.5t-70 29.5q-51 0 -80 -29t-38 -72t-9 -110v-671q0 -112 25 -148q22 -25 155 -33v-184 q-180 4 -327 4q-146 0 -334 -4v184q40 4 59 6t38.5 9t25.5 13t11.5 24.5t6 35t0.5 52.5v383h-160z" />
<glyph unicode="&#x192;" horiz-adv-x="1196" d="M-78 -201q0 86 23 191h172q2 -66 18.5 -92.5t63.5 -26.5t69 31q25 30 40 106t28 258l29 375h-203v186h215q8 119 24 187.5t43 122.5q55 117 163.5 176t248.5 59q118 0 219 -37q52 -18 75.5 -49.5t23.5 -87.5q0 -114 -11 -207h-194q-7 93 -33 111q-24 12 -57 12 q-49 0 -80 -33q-49 -54 -60 -221l-2 -33h271v-186h-287l-31 -424q-9 -124 -34.5 -234.5t-53.5 -160.5q-57 -102 -154.5 -152.5t-222.5 -50.5q-112 0 -202 33q-46 15 -73.5 54t-27.5 93z" />
<glyph unicode="&#x1fa;" horiz-adv-x="1568" d="M10 -2v190q102 3 140 41q22 20 39 55t55 138l311 813q39 99 98 141q-59 56 -59 146q0 84 59 140t144 56q86 0 140 -53t54 -139q0 -87 -55 -142q57 -39 94 -133l324 -891q23 -65 42 -95t50 -52q36 -23 113 -25v-190q-200 4 -287 4q-243 0 -473 -4v190q81 3 125 19 q25 10 33 24t8 35q0 29 -25 109l-12 41h-398l-10 -29q-31 -86 -31 -123q0 -13 1 -20t10 -18t26 -17q50 -18 150 -21v-190q-208 4 -412 4q-66 0 -254 -4zM600 670h240q-82 239 -115 364q-94 -280 -125 -364zM625 1833l219 242q42 50 69 64.5t60 14.5q39 0 69.5 -32.5 t30.5 -77.5q0 -61 -92 -119l-289 -176zM698 1526q0 -46 27 -75.5t68 -29.5q39 0 65.5 28.5t26.5 76.5q0 47 -26.5 73.5t-65.5 26.5t-67 -27.5t-28 -72.5z" />
<glyph unicode="&#x1fb;" horiz-adv-x="1114" d="M49 272q0 151 116.5 224t383.5 73q53 0 69 -2v47q0 73 -25.5 102t-100.5 29q-84 0 -115.5 -28t-36.5 -115h-197q-16 86 -16 176q0 110 98 152q50 22 133.5 37.5t153.5 15.5q119 0 199 -15.5t115 -35t61 -49.5q65 -68 65 -234q0 -45 -1 -183.5t-1 -143.5q0 -62 18.5 -86.5 t53.5 -24.5q43 0 70 4v-197q-48 -16 -119 -26t-121 -10q-35 0 -59 3t-54 13t-51 34t-33 62q-117 -117 -282 -117q-61 0 -117 17t-103 51.5t-75.5 93t-28.5 133.5zM346 1255q0 85 59.5 142t143.5 57q88 0 142 -54t54 -140q0 -84 -57.5 -141.5t-140.5 -57.5q-85 0 -143 54.5 t-58 139.5zM389 289q0 -43 28.5 -64.5t65.5 -21.5q74 0 135 26v146q-20 4 -63 4q-90 0 -128 -22t-38 -68zM416 1571l176 289q39 64 67 85t64 21q48 0 85.5 -31.5t37.5 -79.5q0 -61 -76 -126l-262 -232zM453 1260q0 -44 26.5 -73.5t67.5 -29.5q38 0 64 28.5t26 74.5 q0 49 -26 75.5t-64 26.5q-39 0 -66.5 -27.5t-27.5 -74.5z" />
<glyph unicode="&#x1fc;" horiz-adv-x="2217" d="M25 -2v190q39 1 69.5 5.5t53.5 10t43.5 18.5t34 23t30.5 33t28 39.5t31 49.5l416 677q27 52 27 97q0 21 -10.5 31t-34.5 16q-51 10 -160 10v186h1384q76 0 118 -28t42 -78q0 -110 -29 -295h-204q-14 95 -52 125q-27 18 -112 18h-238v-309h51q98 0 127 29q18 23 43 112 h179q-2 -51 -2 -256q0 -172 4 -258h-174q-13 89 -39 117q-20 18 -51 23.5t-87 5.5h-51v-242q0 -80 58 -88q53 -8 149 -8q185 0 248 53q10 9 20.5 27.5t16.5 32.5t15.5 39t12.5 32h187q-6 -271 -39 -358q-28 -78 -199 -78h-1013v188q95 6 118 14q43 14 51 54q5 31 5 94v70 h-439l-41 -70q-37 -55 -37 -104q0 -13 8 -26t21 -17q36 -13 125 -15v-190q-204 4 -371 4q-141 0 -333 -4zM799 670h293v415q0 39 -19 39q-11 0 -20.5 -10.5t-22.5 -36.5q-23 -40 -57 -101t-78 -139t-96 -167zM1178 1556l245 256q52 53 81.5 68.5t66.5 15.5q42 0 73 -35 t31 -83q0 -31 -24.5 -64t-73.5 -61l-324 -187z" />
<glyph unicode="&#x1fd;" horiz-adv-x="1603" d="M49 285q0 155 120 226t392 71h47v32q0 70 -24.5 100.5t-91.5 30.5q-81 0 -113.5 -27.5t-38.5 -107.5h-201q-16 86 -16 168q0 110 98 152q50 23 129.5 38t155.5 15q138 0 216 -25.5t118 -78.5q30 43 107.5 73.5t164.5 30.5q110 0 193 -34t132.5 -95t74 -139t24.5 -172 q0 -83 -31 -119q-30 -37 -106 -37h-459v-10q0 -61 53 -100t152 -39q150 0 319 79l99 -192q-91 -71 -214.5 -112.5t-267.5 -41.5q-203 0 -329 117q-72 -54 -158.5 -83.5t-220.5 -29.5q-61 0 -117 18.5t-103 55t-75.5 98t-28.5 138.5zM389 293q0 -86 109 -86q83 0 151 37 q-24 44 -28 143h-60q-95 0 -133.5 -22.5t-38.5 -71.5zM727 1122l176 289q42 66 69.5 87.5t63.5 21.5q47 0 84 -32t37 -81q0 -30 -17.5 -58t-58.5 -69l-262 -231zM944 586l268 6v29q0 55 -30 85.5t-88 30.5q-142 0 -150 -151z" />
<glyph unicode="&#x1fe;" horiz-adv-x="1552" d="M72 686q0 225 91.5 391t254.5 252t377 86q204 0 354 -67l121 168l125 -89l-117 -159q205 -179 205 -553q0 -185 -55 -329t-152 -233.5t-224 -135.5t-278 -46q-224 0 -379 82l-116 -159l-125 83l118 164q-200 188 -200 545zM463 715q0 -152 33 -264l471 647 q-68 59 -187 59q-154 0 -235.5 -114t-81.5 -328zM580 307q72 -69 196 -69q307 0 307 464q0 155 -30 254zM643 1556l246 256q52 54 81 69t66 15q43 0 74 -35.5t31 -82.5q0 -68 -99 -125l-323 -187z" />
<glyph unicode="&#x1ff;" horiz-adv-x="1196" d="M63 473q0 234 151.5 372t395.5 138q133 0 236 -39l98 135l113 -80l-88 -122q164 -129 164 -385q0 -124 -41.5 -224t-114.5 -164.5t-171 -98.5t-212 -34q-139 0 -250 43l-92 -127l-115 78l86 119q-160 132 -160 389zM406 492q0 -84 14 -136l264 365q-40 16 -88 16 q-92 0 -141 -62.5t-49 -182.5zM463 1122l176 289q42 66 69.5 87.5t63.5 21.5q47 0 84 -32t37 -81q0 -30 -17.5 -58t-58.5 -69l-262 -231zM506 238q34 -19 90 -19q98 0 146.5 61t48.5 193q0 72 -17 135z" />
<glyph unicode="&#x218;" horiz-adv-x="1261" d="M90 268q0 126 12 232h183q25 -143 77 -199q34 -36 103.5 -56t150.5 -20q95 0 145 33t50 92q0 36 -13 61.5t-32.5 39t-50.5 24.5l-266 92q-62 21 -112 47t-85 53t-60.5 58.5t-41 60.5t-24.5 63.5t-12 63.5t-3 64q0 95 34.5 173.5t103 138.5t180 93t257.5 33q251 0 363 -65 q44 -26 61.5 -65.5t17.5 -110.5q0 -82 -18 -248h-184q-8 53 -15.5 86.5t-21 62.5t-31 44.5t-46.5 27t-65 15t-90 3.5q-93 0 -134.5 -31.5t-41.5 -82.5q0 -94 92 -127l271 -93q173 -59 258.5 -154t85.5 -249q0 -115 -44 -203t-123.5 -143t-186 -83t-236.5 -28 q-94 0 -191.5 15t-154.5 39q-97 40 -129.5 94.5t-32.5 148.5zM455 -586q145 113 145 185q0 35 -39 55q-26 11 -43 24t-29 38t-12 59q0 32 17.5 62t53.5 50.5t83 20.5q78 0 122 -49t44 -129q0 -110 -70 -207.5t-205 -194.5z" />
<glyph unicode="&#x219;" horiz-adv-x="991" d="M63 182q0 131 11 199h178q14 -94 63 -133q54 -51 166 -51q109 0 109 51q0 25 -11 36t-40 23l-189 70q-89 33 -144 64t-83 68t-37.5 73t-9.5 90q0 134 122 222.5t341 88.5q73 0 150 -12.5t124 -34.5q72 -38 72 -135q0 -87 -17 -187h-174q-10 54 -22 78.5t-33 38.5 q-46 27 -143 27q-84 0 -84 -53q0 -39 49 -54l192 -69q86 -30 139.5 -59t84 -64.5t42 -74.5t11.5 -95q0 -106 -64 -179t-166 -106t-233 -33q-158 0 -256 31q-87 28 -117.5 69t-30.5 111zM315 -586q146 114 146 185q0 35 -39 55q-40 17 -62 44t-22 77q0 51 42.5 92t111.5 41 q78 0 121.5 -49t43.5 -129q0 -110 -69.5 -207.5t-204.5 -194.5z" />
<glyph unicode="&#x21a;" horiz-adv-x="1427" d="M57 1235q0 68 34 108.5t108 40.5h1028q73 0 108 -35t35 -94q0 -219 -10 -366h-168q-11 109 -23 151.5t-39 63.5q-23 19 -71 24t-152 5v-773q0 -115 17 -135q16 -16 49 -24.5t127 -12.5v-190q-180 4 -375 4q-197 0 -381 -4v190q94 3 127.5 10.5t48.5 22.5q17 20 17 129 v783q-186 0 -232 -25q-26 -17 -43.5 -62t-25.5 -157h-166q-13 191 -13 346zM545 -586q145 113 145 185q0 35 -39 55q-40 17 -62 44t-22 77q0 51 42.5 92t111.5 41q78 0 122 -49t44 -129q0 -110 -70 -207.5t-205 -194.5z" />
<glyph unicode="&#x21b;" horiz-adv-x="772" d="M-10 707v180q133 23 166 92q18 41 45 139q16 56 51.5 84.5t101.5 28.5q65 0 98 -28.5t33 -96.5v-184q116 0 230 -7v-204q-156 -4 -230 -4v-209v-36q-1 -41 -0.5 -61.5t3.5 -53t9.5 -49t18.5 -34.5t31.5 -25.5t46.5 -7.5q73 0 129 13l39 -203q-60 -33 -158 -49.5 t-188 -16.5q-277 0 -277 289q0 119 8 443h-157zM211 -586q145 113 145 185q0 35 -39 55q-40 17 -62 44t-22 77q0 51 42.5 92t111.5 41q78 0 122 -49t44 -129q0 -110 -69.5 -207.5t-204.5 -194.5z" />
<glyph unicode="&#x2c6;" horiz-adv-x="595" d="M-25 1106l224 321q39 60 100 60q62 0 104 -55l218 -324l-99 -74l-227 209l-225 -209z" />
<glyph unicode="&#x2c7;" horiz-adv-x="595" d="M-25 1419l101 74l225 -209l227 209l93 -72l-222 -321q-43 -60 -102 -60q-62 0 -102 56z" />
<glyph unicode="&#x2d8;" horiz-adv-x="595" d="M0 1399l106 8q11 -73 61 -116.5t130 -43.5q82 0 130 39t67 121l102 -6q0 -163 -77.5 -250.5t-223.5 -87.5q-295 0 -295 336z" />
<glyph unicode="&#x2d9;" horiz-adv-x="595" d="M160 1260q0 59 38 100t101 41q60 0 99.5 -41.5t39.5 -99.5t-40 -100t-103 -42q-59 0 -97 39.5t-38 102.5z" />
<glyph unicode="&#x2da;" horiz-adv-x="595" d="M98 1255q0 85 59.5 142t143.5 57q88 0 142.5 -54t54.5 -140q0 -84 -57.5 -141.5t-141.5 -57.5q-85 0 -143 54.5t-58 139.5zM205 1260q0 -44 26.5 -73.5t67.5 -29.5q38 0 64 28.5t26 74.5q0 49 -26 75.5t-64 26.5q-39 0 -66.5 -27.5t-27.5 -74.5z" />
<glyph unicode="&#x2db;" horiz-adv-x="595" d="M53 -362q0 93 67 191.5t193 188.5h138q-195 -187 -195 -331q0 -46 25.5 -77.5t78.5 -31.5q74 0 144 31l37 -98q-42 -31 -112.5 -55.5t-133.5 -24.5q-117 0 -179.5 59.5t-62.5 147.5z" />
<glyph unicode="&#x2dc;" horiz-adv-x="595" d="M-43 1120q18 70 42 127t66.5 101.5t92.5 44.5q46 0 129 -35l59 -29q63 -29 98 -29q26 0 46.5 24.5t48.5 82.5l102 -29q-20 -123 -68 -198.5t-118 -75.5q-64 0 -146 39l-57 24q-59 23 -88 23q-34 0 -56.5 -21.5t-50.5 -78.5z" />
<glyph unicode="&#x2dd;" horiz-adv-x="604" d="M-68 1122l170 289q40 65 68 87t63 22q42 0 75.5 -28.5t33.5 -72.5q0 -30 -17 -58.5t-59 -68.5l-239 -241zM262 1122l170 289q40 65 67 87t64 22q42 0 75.5 -28.5t33.5 -72.5q0 -30 -17 -58.5t-59 -68.5l-240 -241z" />
<glyph unicode="&#x394;" horiz-adv-x="1529" d="M25 0v88l544 1186q36 79 85.5 113t133.5 34q40 0 63.5 -4t50 -17.5t47 -42.5t40.5 -77l510 -1192v-88h-1474zM401 303h611l-297 707z" />
<glyph unicode="&#x3a9;" horiz-adv-x="1697" d="M96 481h133q27 -92 46.5 -130t43.5 -58q33 -30 78 -38.5t193 -8.5v18q-180 65 -286.5 216.5t-106.5 344.5q0 120 35 219t96 167t145 114.5t181 68t206 21.5q111 0 206 -19.5t177 -63.5t140 -109.5t91 -163t33 -219.5q0 -192 -108 -339t-289 -237v-18q137 0 189 9t81 38 q52 52 93 188h131q0 -201 -15 -366q-8 -115 -157 -115h-527v416q125 39 183.5 134t58.5 275q0 88 -23.5 154t-64.5 105t-92 58t-111 19q-57 0 -108.5 -18.5t-97 -57.5t-72.5 -110.5t-27 -167.5q0 -317 244 -393v-414h-545q-73 0 -104 33t-37 102q-13 122 -13 346z" />
<glyph unicode="&#x3bc;" horiz-adv-x="1298" d="M51 711v184q171 80 336 80q69 0 109.5 -38t40.5 -134q0 -47 -3.5 -194.5t-3.5 -217.5q0 -49 11 -80t32.5 -44t39 -17t42.5 -4q82 0 144 35v297q0 106 -29 122q-23 13 -65 13q-30 0 -48 -2v184q166 80 340 80q148 0 148 -172q0 -56 -4 -243.5t-4 -211.5q0 -83 14.5 -110 t65.5 -27q34 0 63 4v-190q-127 -50 -291 -50q-61 0 -112 33t-62 103q-47 -63 -97 -92t-126 -29q-55 0 -92 26q5 -87 12.5 -179t12.5 -145.5t5 -68.5q0 -62 -47 -96.5t-123 -34.5q-52 0 -88 12.5t-52.5 35t-23 45t-6.5 50.5v943q0 104 -28 122q-26 13 -56 13q-7 0 -27 -1 t-28 -1z" />
<glyph unicode="&#x3c0;" horiz-adv-x="1357" d="M66 -2v190q47 1 75 6.5t35.5 10.5t18.5 16q14 20 14 101v290q0 90 -14 111q-11 13 -33 18t-94 9v202h1208v-200q-76 -3 -106.5 -9t-39.5 -20q-12 -19 -12 -102v-244q0 -35 1 -56t6 -45.5t13.5 -37.5t25 -22t40.5 -9q56 0 80 8l31 -180q-37 -19 -117 -32t-166 -13 q-70 0 -123.5 27t-81.5 71q-23 37 -32 93t-9 173v383h-239v-411q0 -54 3 -74.5t13 -32.5q1 -1 5 -6t6.5 -6.5t11.5 -5t21 -5.5t33.5 -4.5t51.5 -3.5v-190q-168 4 -323 4q-139 0 -303 -4z" />
<glyph unicode="&#x1e80;" horiz-adv-x="2224" d="M25 1198v188q262 -4 391 -4q295 0 381 4v-188q-61 0 -102 -7t-60.5 -21t-27 -28.5t-7.5 -35.5q0 -46 16 -111q26 -114 64 -272t59 -254q20 79 46 170.5t73.5 256.5t93.5 329q45 166 217 166q50 0 84.5 -10t56.5 -33t35 -49t27 -70q180 -580 225 -766q19 94 58.5 270 t56.5 258q19 88 19 119t-11 47t-53.5 27.5t-126.5 13.5v188q200 -4 371 -4q137 0 289 4v-188q-97 -5 -132 -31q-21 -14 -34.5 -46t-33.5 -98q-3 -11 -5 -17l-248 -859q-27 -92 -75 -132t-140 -40q-94 0 -138 34.5t-69 121.5q-191 650 -225 782q-48 -216 -213 -766 q-27 -90 -77 -131t-140 -41q-91 0 -137 36.5t-68 119.5l-256 936q-23 90 -68 109q-34 19 -116 22zM885 1778q0 48 31 83t75 35q37 0 66 -15.5t80 -68.5l245 -256l-75 -90l-322 187q-49 28 -74.5 61t-25.5 64z" />
<glyph unicode="&#x1e81;" horiz-adv-x="1730" d="M27 764v190q94 -4 297 -4q248 0 352 4v-190q-7 0 -27.5 -1t-30 -1.5t-26.5 -2.5t-26 -6t-19 -10t-14.5 -15.5t-4.5 -22.5q0 -11 13 -76q11 -48 39 -153t34 -130q52 156 177 498q20 56 55 86.5t106 30.5q68 0 97 -27t51 -88q12 -34 53 -149t69 -197.5t50 -153.5 q8 33 32.5 130.5t34.5 141.5q11 45 11 87q0 43 -35 49q-54 8 -96 10v190q88 -4 284 -4q125 0 203 4v-190q-73 -4 -94.5 -22.5t-44.5 -92.5l-201 -596q-30 -94 -166 -94t-170 94q-70 202 -153 473q-8 -23 -40.5 -116.5t-62 -170t-76.5 -190.5q-19 -43 -61 -66.5t-102 -23.5 q-143 0 -173 94l-194 606q-18 57 -41 80q-12 12 -33 17t-67 8zM647 1407q0 49 38 81t85 32q35 0 63 -22t68 -87l176 -289l-92 -73l-260 231q-42 42 -60 70t-18 57z" />
<glyph unicode="&#x1e82;" horiz-adv-x="2224" d="M25 1198v188q262 -4 391 -4q295 0 381 4v-188q-61 0 -102 -7t-60.5 -21t-27 -28.5t-7.5 -35.5q0 -46 16 -111q26 -114 64 -272t59 -254q20 79 46 170.5t73.5 256.5t93.5 329q45 166 217 166q50 0 84.5 -10t56.5 -33t35 -49t27 -70q180 -580 225 -766q19 94 58.5 270 t56.5 258q19 88 19 119t-11 47t-53.5 27.5t-126.5 13.5v188q200 -4 371 -4q137 0 289 4v-188q-97 -5 -132 -31q-21 -14 -34.5 -46t-33.5 -98q-3 -11 -5 -17l-248 -859q-27 -92 -75 -132t-140 -40q-94 0 -138 34.5t-69 121.5q-191 650 -225 782q-48 -216 -213 -766 q-27 -90 -77 -131t-140 -41q-91 0 -137 36.5t-68 119.5l-256 936q-23 90 -68 109q-34 19 -116 22zM989 1556l246 256q52 54 81 69t66 15q43 0 74 -35.5t31 -82.5q0 -69 -98 -125l-324 -187z" />
<glyph unicode="&#x1e83;" horiz-adv-x="1730" d="M27 764v190q94 -4 297 -4q248 0 352 4v-190q-7 0 -27.5 -1t-30 -1.5t-26.5 -2.5t-26 -6t-19 -10t-14.5 -15.5t-4.5 -22.5q0 -11 13 -76q11 -48 39 -153t34 -130q52 156 177 498q20 56 55 86.5t106 30.5q68 0 97 -27t51 -88q12 -34 53 -149t69 -197.5t50 -153.5 q8 33 32.5 130.5t34.5 141.5q11 45 11 87q0 43 -35 49q-54 8 -96 10v190q88 -4 284 -4q125 0 203 4v-190q-73 -4 -94.5 -22.5t-44.5 -92.5l-201 -596q-30 -94 -166 -94t-170 94q-70 202 -153 473q-8 -23 -40.5 -116.5t-62 -170t-76.5 -190.5q-19 -43 -61 -66.5t-102 -23.5 q-143 0 -173 94l-194 606q-18 57 -41 80q-12 12 -33 17t-67 8zM788 1122l177 289q40 65 68 87t65 22q47 0 84 -32t37 -81q0 -30 -17.5 -58t-58.5 -69l-262 -231z" />
<glyph unicode="&#x1e84;" horiz-adv-x="2224" d="M25 1198v188q262 -4 391 -4q295 0 381 4v-188q-61 0 -102 -7t-60.5 -21t-27 -28.5t-7.5 -35.5q0 -46 16 -111q26 -114 64 -272t59 -254q20 79 46 170.5t73.5 256.5t93.5 329q45 166 217 166q50 0 84.5 -10t56.5 -33t35 -49t27 -70q180 -580 225 -766q19 94 58.5 270 t56.5 258q19 88 19 119t-11 47t-53.5 27.5t-126.5 13.5v188q200 -4 371 -4q137 0 289 4v-188q-97 -5 -132 -31q-21 -14 -34.5 -46t-33.5 -98q-3 -11 -5 -17l-248 -859q-27 -92 -75 -132t-140 -40q-94 0 -138 34.5t-69 121.5q-191 650 -225 782q-48 -216 -213 -766 q-27 -90 -77 -131t-140 -41q-91 0 -137 36.5t-68 119.5l-256 936q-23 90 -68 109q-34 19 -116 22zM850 1661q0 59 38.5 99t102.5 40q60 0 98.5 -40.5t38.5 -98.5q0 -59 -39.5 -100t-103.5 -41q-58 0 -96.5 39.5t-38.5 101.5zM1239 1661q0 59 38 99t101 40q60 0 99 -40.5 t39 -98.5q0 -59 -39.5 -100t-102.5 -41q-59 0 -97 39t-38 102z" />
<glyph unicode="&#x1e85;" horiz-adv-x="1730" d="M27 764v190q94 -4 297 -4q248 0 352 4v-190q-7 0 -27.5 -1t-30 -1.5t-26.5 -2.5t-26 -6t-19 -10t-14.5 -15.5t-4.5 -22.5q0 -11 13 -76q11 -48 39 -153t34 -130q52 156 177 498q20 56 55 86.5t106 30.5q68 0 97 -27t51 -88q12 -34 53 -149t69 -197.5t50 -153.5 q8 33 32.5 130.5t34.5 141.5q11 45 11 87q0 43 -35 49q-54 8 -96 10v190q88 -4 284 -4q125 0 203 4v-190q-73 -4 -94.5 -22.5t-44.5 -92.5l-201 -596q-30 -94 -166 -94t-170 94q-70 202 -153 473q-8 -23 -40.5 -116.5t-62 -170t-76.5 -190.5q-19 -43 -61 -66.5t-102 -23.5 q-143 0 -173 94l-194 606q-18 57 -41 80q-12 12 -33 17t-67 8zM596 1260q0 59 38 100t101 41q60 0 98.5 -41.5t38.5 -99.5t-39.5 -100t-101.5 -42q-59 0 -97 39.5t-38 102.5zM961 1260q0 59 39 100t102 41q60 0 98.5 -41.5t38.5 -99.5t-39.5 -100t-101.5 -42q-59 0 -98 40 t-39 102z" />
<glyph unicode="&#x1ef2;" horiz-adv-x="1423" d="M12 1198v188q234 -4 324 -4q175 0 383 4v-188q-73 -4 -99 -19t-26 -42q0 -31 31 -90q110 -187 161 -283q29 55 86 155.5t78 139.5q29 56 29 86q0 24 -25.5 38t-101.5 15v188q96 -4 360 -4q113 0 199 4v-188q-65 -3 -96 -31q-31 -22 -144 -198l-284 -432v-207 q0 -58 10 -88q7 -23 44.5 -36.5t139.5 -17.5v-190q-222 4 -372 4q-169 0 -377 -4v190q103 7 132.5 15t39.5 26q12 17 12 101v205l-309 507q-34 57 -54 84t-44 43q-40 25 -97 29zM465 1778q0 48 31 83t75 35q37 0 66 -15.5t80 -68.5l246 -256l-76 -90l-322 187 q-49 28 -74.5 61t-25.5 64z" />
<glyph unicode="&#x1ef3;" horiz-adv-x="1210" d="M12 764v190q140 -4 383 -4q108 0 260 4v-190q-68 -7 -75 -8q-26 -4 -34.5 -16t-8.5 -35q0 -37 38 -123q68 -146 123 -291q16 49 50.5 145t52.5 150q30 86 30 127q0 17 -8 27.5t-25.5 15t-30.5 6t-38 2t-33 0.5v190q132 -4 248 -4q128 0 254 4v-190q-39 -3 -62.5 -10 t-41 -28t-26 -40t-26.5 -65l-219 -578q-88 -230 -134.5 -336.5t-92.5 -163.5q-41 -52 -106.5 -78t-124.5 -26q-82 0 -150 22q-50 19 -85.5 66t-35.5 113q0 67 12 137h191q4 -57 18 -80t56 -23q36 0 73 50q48 79 117 270q-50 0 -79.5 25t-57.5 83l-242 525q-42 90 -76 114 q-32 19 -94 23zM365 1407q0 49 37.5 81t84.5 32q35 0 63 -22t68 -87l177 -289l-93 -73l-260 231q-42 42 -59.5 70t-17.5 57z" />
<glyph unicode="&#x2000;" horiz-adv-x="1077" />
<glyph unicode="&#x2001;" horiz-adv-x="2154" />
<glyph unicode="&#x2002;" horiz-adv-x="1077" />
<glyph unicode="&#x2003;" horiz-adv-x="2154" />
<glyph unicode="&#x2004;" horiz-adv-x="718" />
<glyph unicode="&#x2005;" horiz-adv-x="538" />
<glyph unicode="&#x2006;" horiz-adv-x="359" />
<glyph unicode="&#x2007;" horiz-adv-x="359" />
<glyph unicode="&#x2008;" horiz-adv-x="269" />
<glyph unicode="&#x2009;" horiz-adv-x="430" />
<glyph unicode="&#x200a;" horiz-adv-x="119" />
<glyph unicode="&#x2010;" horiz-adv-x="585" d="M57 406v212h469v-212h-469z" />
<glyph unicode="&#x2011;" horiz-adv-x="585" d="M57 406v212h469v-212h-469z" />
<glyph unicode="&#x2012;" horiz-adv-x="585" d="M57 406v212h469v-212h-469z" />
<glyph unicode="&#x2013;" horiz-adv-x="1155" d="M57 418v198h1039v-198h-1039z" />
<glyph unicode="&#x2014;" horiz-adv-x="1681" d="M57 418v198h1565v-198h-1565z" />
</font>
</defs>
</svg>
