<?xml version="1.0" standalone="no"?>
<!DOCTYPE svg PUBLIC "-//W3C//DTD SVG 1.1//EN" "http://www.w3.org/Graphics/SVG/1.1/DTD/svg11.dtd" >
<svg xmlns="http://www.w3.org/2000/svg">
<metadata></metadata>
<defs>
<font id="capitamedium_italic" horiz-adv-x="813" >
<font-face units-per-em="2048" ascent="1485" descent="-563" />
<missing-glyph horiz-adv-x="448" />
<glyph unicode="ff" horiz-adv-x="1390" d="M-330 -436q0 61 31 178h121q0 -81 17 -110t77 -29q34 0 66.5 18t52.5 49q43 61 71 228l150 866h-172l25 125q93 15 135 41q22 13 33.5 36t25.5 78q37 146 85 222.5t124 124.5q106 65 258 65q74 0 141 -24q68 -27 68 -99q0 -65 -29 -196h-116q0 10 -1.5 28.5t-1.5 28.5 q0 52 -24 70t-78 18q-80 0 -125 -63q-58 -83 -82 -254l-8 -58h289q89 0 127 23q40 24 61 114q42 165 89.5 249.5t121.5 131.5q114 72 268 72q94 0 160 -27q58 -24 58 -98q0 -69 -31 -209h-127q0 31 -1.5 52.5t-8 43.5t-17 35t-30 21t-46.5 8q-86 0 -133 -66 q-21 -29 -37 -81.5t-40 -169.5l-19 -88q124 0 238 -7l-27 -145q-126 -6 -240 -6l-153 -807q-28 -146 -66 -231.5t-100 -141.5q-106 -100 -272 -100q-90 0 -158 33q-55 28 -55 94q0 68 30 170h111q0 -76 19.5 -103.5t78.5 -27.5q35 0 69 18t52 49q45 70 72 228l143 823h-455 l-161 -854q-27 -146 -66.5 -232t-101.5 -141q-112 -100 -275 -100q-87 0 -155 33q-56 29 -56 94z" />
<glyph unicode="fi" horiz-adv-x="1290" d="M-334 -455q0 62 31 179h121q0 -75 18 -105.5t76 -30.5q71 0 117 62q45 57 73 231l154 883h-172l25 125q93 15 135 41q23 13 34 36.5t25 82.5q21 82 46.5 144t57 104.5t61.5 70t71 53.5q59 37 145 56.5t184 19.5q47 0 111 -10.5t98 -24.5q29 -12 45.5 -38t16.5 -62 q0 -74 -37 -211h-144q0 58 -2 78q-3 54 -40.5 74t-104.5 20q-124 0 -186 -74q-58 -68 -97 -258l-14 -78h352q89 39 162 39q60 0 87.5 -21t27.5 -89q0 -21 -2.5 -45.5t-8.5 -55.5t-10.5 -50.5l-13.5 -58.5l-12 -52l-45 -191q-31 -135 -31 -172q0 -35 17 -50t55 -15 q55 0 122 18l-30 -135q-119 -53 -252 -53q-158 0 -158 129q0 55 29 184l53 231q29 126 29 166q0 20 -6.5 33.5t-14.5 20.5t-27 10t-30 3.5t-39 0.5h-283l-163 -869q-31 -164 -76.5 -253t-118.5 -144q-104 -76 -256 -76q-55 0 -99 11.5t-75 41t-31 74.5z" />
<glyph unicode="fl" horiz-adv-x="1292" d="M-334 -455q0 62 31 179h121q0 -75 18 -105.5t76 -30.5q73 0 119 62q42 54 71 231l156 883h-172l25 125q93 15 135 41q23 13 35 36.5t24 77.5q40 157 95.5 242t134.5 133q125 78 315 78q94 0 188 -27q67 29 121 29q60 0 85.5 -24t25.5 -86q0 -72 -53 -302l-154 -698 q-31 -135 -31 -172q0 -35 16.5 -50t53.5 -15q58 0 125 18l-31 -135q-119 -53 -252 -53q-158 0 -158 129q0 35 29 176l156 725q28 124 30 196q0 63 -41 90t-118 27q-86 0 -134.5 -19t-82.5 -61q-28 -36 -49 -86t-41 -153l-19 -88q124 0 238 -7l-27 -145q-126 -6 -240 -6 l-165 -862q-31 -166 -77.5 -257.5t-119.5 -146.5q-104 -76 -256 -76q-84 0 -143.5 31t-59.5 96z" />
<glyph unicode="ffi" horiz-adv-x="1972" d="M-330 -436q0 61 31 178h121q0 -81 17 -110t77 -29q34 0 66.5 18t52.5 49q43 61 71 228l150 866h-172l25 125q93 15 135 41q22 13 33.5 36t25.5 78q37 146 85 222.5t124 122.5q109 67 258 67q74 0 141 -24q68 -27 68 -99q0 -65 -29 -196h-116q0 10 -1.5 27.5t-1.5 27.5 q0 52 -25 71t-79 19q-75 0 -123 -63q-43 -61 -80 -250l-12 -62h287q93 0 131 23q39 23 63 114q40 159 94.5 242t135.5 135q119 76 327 76q48 0 111.5 -10.5t97.5 -24.5q62 -27 62 -100q0 -72 -37 -213h-144q2 23 2 74q0 100 -147 100q-124 0 -186 -74q-57 -63 -97 -258 l-16 -78h354q97 39 160 39q61 0 89 -21t28 -89q0 -65 -47 -258l-45 -195q-31 -135 -31 -172q0 -35 16 -50t54 -15q55 0 122 18l-28 -135q-119 -53 -252 -53q-158 0 -158 129q0 47 29 176l53 239q29 126 29 166q0 20 -7 33.5t-15 20.5t-27 10t-30 3.5t-38 0.5h-283l-153 -807 q-27 -143 -67.5 -230.5t-102.5 -142.5q-112 -100 -268 -100q-90 0 -158 33q-55 28 -55 94q0 68 30 170h111q0 -76 19.5 -103.5t78.5 -27.5q35 0 69 18t52 49q45 70 72 228l143 823h-455l-161 -854q-27 -146 -66.5 -232t-101.5 -141q-112 -100 -275 -100q-87 0 -155 33 q-56 29 -56 94z" />
<glyph unicode="ffl" horiz-adv-x="1974" d="M-330 -436q0 61 31 178h121q0 -81 17 -110t77 -29q34 0 66.5 18t52.5 49q43 61 71 228l150 866h-172l25 125q93 15 135 41q22 13 33.5 36t25.5 78q37 146 85 222.5t124 124.5q106 65 258 65q74 0 141 -24q68 -27 68 -99q0 -65 -29 -196h-116q0 104 -33 129q-18 16 -72 16 q-80 0 -125 -63q-50 -73 -82 -263l-8 -49h289q89 0 127 23q42 25 63 114q40 158 95 242.5t133 130.5q129 80 311 80q94 0 188 -27q59 27 123 27q59 0 84 -23.5t25 -84.5q0 -63 -56 -302l-151 -698q-31 -135 -31 -172q0 -35 16 -50t54 -15q58 0 125 18l-31 -135 q-119 -53 -252 -53q-158 0 -158 129q0 35 29 176l156 725q28 124 30 196q0 117 -157 117q-87 0 -136 -19t-83 -61q-28 -36 -49 -86t-41 -153l-19 -88q124 0 238 -7l-27 -145q-126 -6 -240 -6l-153 -807q-27 -145 -65.5 -230.5t-100.5 -144.5q-104 -98 -272 -98 q-90 0 -158 33q-55 28 -55 94q0 68 30 170h111q0 -76 19.5 -103.5t78.5 -27.5q35 0 69 18t52 49q45 70 72 228l143 823h-455l-161 -854q-27 -146 -66.5 -232t-101.5 -141q-112 -100 -275 -100q-87 0 -155 33q-56 29 -56 94z" />
<glyph unicode="&#x17f;t" horiz-adv-x="1335" d="M-348 -436q0 73 31 178h118q0 -80 18.5 -109.5t78.5 -29.5q33 0 65.5 18.5t52.5 48.5q41 60 70 228l180 1063q58 333 254 456q131 80 326 80q183 0 265.5 -70.5t82.5 -183.5q0 -114 -68 -325q124 0 238 -7l-27 -145q-126 -6 -241 -6l-62 -299q-26 -134 -26 -203 q0 -46 24 -72t72 -26q60 0 143 24l29 -141q-139 -68 -301 -68q-97 0 -153 50.5t-56 150.5q0 45 16 139q44 223 92 449h-172l23 123q77 15 123 35q61 28 95 99t34 150q0 77 -47 114.5t-119 37.5q-128 0 -199 -78q-70 -82 -100 -241l-205 -1092q-27 -144 -67.5 -232 t-102.5 -143q-112 -100 -276 -100q-86 0 -154 33q-55 28 -55 94z" />
<glyph unicode="Th" horiz-adv-x="2369" d="M188 977q10 105 37 280q11 64 43 95.5t101 31.5h1151q109 86 176 86q46 0 68 -20.5t22 -71.5q0 -35 -21 -137q-44 -223 -104 -455q71 82 166 129.5t192 47.5q201 0 201 -187q0 -69 -27 -180l-51 -205q-31 -118 -31 -174q0 -35 17 -50t55 -15q58 0 121 18l-29 -135 q-119 -53 -252 -53q-155 0 -155 127q0 74 26 178l64 266q18 85 18 121q0 86 -94 86q-120 0 -246 -113l-147 -647h-219l215 983q18 85 18 135q0 31 -8.5 46.5t-28.5 23.5q-49 22 -510 22l-176 -905q-14 -69 -14 -108t41 -50q34 -8 143 -14l-24 -135q-164 4 -318 4 q-139 0 -315 -4l24 135q96 5 127.5 13t49.5 24q20 17 41 129l176 911q-165 0 -219 -5t-82 -23q-57 -31 -103 -205h-119z" />
<glyph unicode="&#x164;h" horiz-adv-x="2369" d="M188 977q10 105 37 280q11 64 43 95.5t101 31.5h1151q109 86 176 86q46 0 68 -20.5t22 -71.5q0 -35 -21 -137q-44 -223 -104 -455q71 82 166 129.5t192 47.5q201 0 201 -187q0 -69 -27 -180l-51 -205q-31 -118 -31 -174q0 -35 17 -50t55 -15q58 0 121 18l-29 -135 q-119 -53 -252 -53q-155 0 -155 127q0 74 26 178l64 266q18 85 18 121q0 86 -94 86q-120 0 -246 -113l-147 -647h-219l215 983q18 85 18 135q0 31 -8.5 46.5t-28.5 23.5q-49 22 -510 22l-176 -905q-14 -69 -14 -108t41 -50q34 -8 143 -14l-24 -135q-164 4 -318 4 q-139 0 -315 -4l24 135q96 5 127.5 13t49.5 24q20 17 41 129l176 911q-165 0 -219 -5t-82 -23q-57 -31 -103 -205h-119zM586 1790l65 61l223 -192l291 192l58 -67l-279 -271q-50 -47 -94 -47q-25 0 -42.5 12t-35.5 38z" />
<glyph unicode="fb" horiz-adv-x="1832" d="M-334 -455q0 62 31 179h121q0 -73 18 -104.5t76 -31.5q67 0 115 64q48 61 75 229l156 883h-172l25 125q93 15 135 41q23 13 35 36.5t24 77.5q40 157 95.5 242t134.5 133q125 78 315 78q94 0 188 -27q59 27 123 27q59 0 84 -22.5t25 -83.5q0 -46 -17 -129 q-38 -200 -106 -461q70 76 158 121t184 45q274 0 274 -301q0 -322 -178 -516q-151 -170 -434 -170q-101 0 -213.5 18t-179.5 51q31 117 61 264l158 725q24 118 24 172q0 62 -41 88.5t-118 26.5q-86 0 -134.5 -19t-82.5 -61q-28 -36 -49 -86t-41 -153l-19 -88q124 0 238 -7 l-27 -145q-126 -6 -240 -6l-165 -862q-31 -165 -78.5 -255.5t-122.5 -146.5q-107 -78 -252 -78q-69 0 -148 33q-25 12 -40 38.5t-15 55.5zM1016 190q64 -26 172 -26q153 0 239 123q45 64 68 149t23 160q0 87 -37.5 128.5t-122.5 41.5q-53 0 -117 -27t-121 -71z" />
<glyph unicode="ffb" horiz-adv-x="2514" d="M-330 -436q0 61 31 178h121q0 -81 17 -110t77 -29q34 0 66.5 18t52.5 49q43 61 71 228l150 866h-172l25 125q93 15 135 41q22 13 33.5 36t25.5 78q37 146 85 222.5t124 124.5q106 65 258 65q74 0 141 -24q68 -27 68 -99q0 -65 -29 -196h-116q0 10 -1.5 27.5t-1.5 27.5 q0 53 -24 71.5t-78 18.5q-80 0 -125 -63q-47 -67 -80 -254l-10 -58h289q89 0 127 23q42 25 63 114q41 159 94 243.5t130 131.5q125 78 315 78q94 0 188 -27q59 27 123 27q59 0 84 -22.5t25 -83.5q0 -46 -17 -129q-50 -247 -106 -461q69 76 157.5 121t182.5 45 q276 0 276 -301q0 -317 -180 -516q-150 -170 -432 -170q-103 0 -214 18t-179 51q40 149 63 264l156 725q24 118 24 172q0 115 -157 115q-87 0 -136 -19t-83 -61q-28 -36 -49 -86t-41 -153l-19 -88q124 0 238 -7l-27 -145q-126 -6 -240 -6l-153 -807q-28 -146 -66 -231.5 t-100 -141.5q-106 -100 -272 -100q-90 0 -158 33q-55 28 -55 94q0 68 30 170h111q0 -76 19.5 -103.5t78.5 -27.5q35 0 69 18t52 49q45 70 72 228l143 823h-455l-161 -854q-27 -146 -66.5 -232t-101.5 -141q-112 -100 -275 -100q-87 0 -155 33q-56 29 -56 94zM1698 190 q64 -26 172 -26q153 0 239 123q45 64 68 149t23 160q0 87 -37.5 128.5t-122.5 41.5q-53 0 -117 -27t-121 -71z" />
<glyph unicode="ffh" horiz-adv-x="2533" d="M-330 -436q0 61 31 178h121q0 -81 17 -110t77 -29q34 0 66.5 18t52.5 49q43 61 71 228l150 866h-172l25 125q93 15 135 41q22 13 33.5 36t25.5 78q37 146 85 222.5t124 124.5q106 65 258 65q74 0 141 -24q68 -27 68 -99q0 -65 -29 -196h-116q0 10 -1.5 27.5t-1.5 27.5 q0 52 -25 71t-79 19q-78 0 -123 -63q-46 -66 -80 -254l-10 -58h289q83 0 127 23q43 29 63 114q41 159 94 243.5t130 131.5q125 78 315 78q94 0 188 -27q59 27 123 27q59 0 84 -23.5t25 -84.5q0 -40 -17 -127q-56 -259 -110 -476q71 82 166.5 129.5t193.5 47.5 q199 0 199 -187q0 -69 -27 -180l-51 -205q-31 -135 -31 -174q0 -35 17.5 -50t54.5 -15q60 0 123 18l-31 -135q-119 -53 -252 -53q-153 0 -153 127q0 71 24 178l64 266q20 78 20 121q0 86 -96 86q-118 0 -244 -113l-147 -647h-221l225 1038q24 113 24 170q0 117 -157 117 q-87 0 -136 -19t-83 -61q-28 -36 -49 -86t-41 -153l-19 -88q124 0 238 -7l-27 -145q-126 -6 -240 -6l-153 -807q-28 -146 -66 -231.5t-100 -141.5q-106 -100 -272 -100q-90 0 -158 33q-55 28 -55 94q0 68 30 170h111q0 -76 19.5 -103.5t78.5 -27.5q35 0 69 18t52 49 q45 70 72 228l143 823h-455l-161 -854q-27 -146 -66.5 -232t-101.5 -141q-112 -100 -275 -100q-87 0 -155 33q-56 29 -56 94z" />
<glyph unicode="ffj" horiz-adv-x="1966" d="M-330 -436q0 61 31 178h121q0 -81 17 -110t77 -29q34 0 66.5 18t52.5 49q43 61 71 228l150 866h-172l25 125q93 15 135 41q22 13 33.5 36t25.5 78q37 146 85 222.5t124 124.5q39 24 80.5 38.5t83.5 20.5t94 6q74 0 141 -24q68 -27 68 -99q0 -74 -27 -196h-116 q0 104 -33 129q-18 16 -74 16q-80 0 -125 -63q-58 -83 -82 -254l-8 -58h289q89 0 127 23q39 23 63 114q40 160 94.5 243.5t135.5 135.5q116 74 327 74q48 0 111.5 -10.5t97.5 -24.5q62 -27 62 -100q0 -74 -37 -211h-144q2 23 2 66q0 62 -37.5 84t-109.5 22q-124 0 -186 -74 q-57 -63 -97 -258l-16 -78h354q97 39 160 39q61 0 89 -21t28 -89q0 -46 -33 -219q-107 -519 -111 -537q-34 -161 -72.5 -255.5t-94.5 -162.5q-54 -65 -159 -116.5t-210 -63.5l-33 133q77 15 138.5 53t93.5 90q55 87 112 324q17 77 31 147t29 151.5t26 135.5q25 119 25 174 q0 19 -7 31.5t-16 19t-27.5 9.5t-30.5 3.5t-36 0.5h-283l-157 -828q-27 -146 -65.5 -231t-100.5 -141q-107 -101 -273 -101q-93 0 -157 33q-58 30 -58 94q0 56 33 168h111q0 -74 19.5 -101.5t78.5 -27.5q34 0 67.5 18t53.5 48q46 75 72 229l147 844h-455l-161 -854 q-27 -146 -66.5 -232t-101.5 -141q-112 -100 -275 -100q-87 0 -155 33q-56 29 -56 94z" />
<glyph unicode="ffk" horiz-adv-x="2480" d="M-330 -436q0 61 31 178h121q0 -81 17 -110t77 -29q34 0 66.5 18t52.5 49q43 61 71 228l150 866h-172l25 125q93 15 135 41q22 13 33.5 36t25.5 78q37 146 85 222.5t124 124.5q106 65 258 65q74 0 141 -24q68 -27 68 -99q0 -65 -29 -196h-116q0 104 -33 129q-18 16 -74 16 q-78 0 -123 -63q-47 -67 -80 -254l-10 -58h289q86 0 127 25q43 25 63 112q41 159 94 243.5t130 131.5q125 78 315 78q94 0 188 -27q59 27 123 27q59 0 84 -23t25 -83t-19 -142q-89 -418 -278 -1249h-221l225 1036q24 102 24 174q0 115 -157 115q-154 0 -219 -80 q-28 -36 -49 -86t-41 -153l-19 -88q124 0 238 -7l-27 -145q-126 -6 -240 -6l-153 -807q-28 -146 -66 -231.5t-100 -141.5q-106 -100 -272 -100q-90 0 -158 33q-55 28 -55 94q0 68 30 170h111q0 -76 19.5 -103.5t78.5 -27.5q35 0 69 18t52 49q45 70 72 228l143 823h-455 l-161 -854q-27 -146 -66.5 -232t-101.5 -141q-112 -100 -275 -100q-87 0 -155 33q-56 29 -56 94zM1796 518q144 196 254 303q148 142 287 142q59 0 92 -28t33 -79q0 -62 -27 -158h-108q-5 58 -52 58q-58 0 -135 -64q-84 -71 -143 -137q80 -177 196 -328q24 -30 61 -52.5 t77 -22.5q49 0 110 14l-31 -137q-25 -15 -72.5 -29t-88.5 -14q-77 0 -127.5 21t-89.5 69q-59 72 -124 196.5t-112 245.5z" />
<glyph unicode="fft" horiz-adv-x="2086" d="M-330 -436q0 61 31 178h121q0 -81 17 -110t77 -29q34 0 66.5 18t52.5 49q43 61 71 228l150 866h-172l25 125q93 15 135 41q22 13 33.5 36t25.5 78q37 146 85 222.5t124 124.5q106 65 258 65q74 0 141 -24q68 -27 68 -99q0 -65 -29 -196h-116q0 25 -3 55q-5 56 -30 74 q-18 16 -72 16q-80 0 -125 -63q-21 -31 -38.5 -84.5t-41.5 -167.5l-12 -60h291q89 0 127 23q42 25 63 114q40 161 90 246t125 133q114 74 277 74q86 0 162 -31q55 -25 55 -94q0 -78 -29 -209h-121q0 12 -1 32t-1 28q-2 49 -30 77q-20 23 -82 23q-86 0 -135 -68 q-50 -70 -86 -251l-19 -95h281q71 0 116 11q48 15 74 61q32 51 78 152q37 73 104 73q70 0 70 -59q0 -42 -43 -229q124 0 238 -7l-27 -145q-126 -6 -242 -6l-61 -299q-27 -139 -27 -203q0 -46 24 -72t72 -26q61 0 144 24l29 -141q-142 -68 -302 -68q-97 0 -152.5 50.5 t-55.5 150.5q0 57 14 139q6 31 92 449h-453l-155 -811q-28 -146 -66 -231.5t-100 -141.5q-106 -100 -272 -100q-90 0 -158 33q-55 28 -55 94q0 68 30 170h111q0 -76 19.5 -103.5t78.5 -27.5q35 0 69 18t52 49q45 70 72 228l143 823h-455l-161 -854q-27 -146 -66.5 -232 t-101.5 -141q-112 -100 -275 -100q-87 0 -155 33q-56 29 -56 94z" />
<glyph unicode="fh" horiz-adv-x="1853" d="M-334 -455q0 62 31 179h121q0 -72 18 -104t76 -32q67 0 115 64q48 61 75 229l156 883h-172l25 125q93 15 135 41q23 13 35 36.5t24 77.5q40 157 95.5 242t134.5 133q125 78 315 78q94 0 188 -27q59 27 123 27q59 0 84 -23.5t25 -84.5q0 -40 -17 -127q-56 -259 -110 -476 q71 82 166.5 129.5t193.5 47.5q201 0 201 -187q0 -61 -29 -180l-51 -205q-29 -126 -29 -174q0 -35 16.5 -50t53.5 -15q56 0 123 18l-31 -135q-116 -53 -252 -53q-155 0 -155 127q0 62 26 178l64 266q20 78 20 121q0 86 -96 86q-121 0 -244 -113l-147 -647h-219l223 1038 q24 113 24 170q0 64 -41 90.5t-118 26.5q-86 0 -134.5 -19t-82.5 -61q-28 -36 -49 -86t-41 -153l-19 -88q124 0 238 -7l-27 -145q-126 -6 -240 -6l-165 -862q-31 -165 -78.5 -255.5t-122.5 -146.5q-107 -78 -252 -78q-84 0 -143.5 30.5t-59.5 96.5z" />
<glyph unicode="fj" horiz-adv-x="1282" d="M-334 -455q0 62 31 179h121q0 -75 18 -105.5t76 -30.5q69 0 117 64q45 58 73 229l154 883h-172l25 125q93 15 135 41q23 13 34 36.5t25 82.5q27 108 66 183.5t77 114.5t93 74q119 76 329 76q47 0 111 -10.5t98 -24.5q62 -27 62 -100q0 -74 -37 -211h-144q0 12 -1 39 t-1 35q0 55 -38.5 76.5t-106.5 21.5q-124 0 -186 -74q-58 -68 -97 -258l-14 -78h352q97 39 162 39q60 0 87.5 -21t27.5 -89q0 -46 -33 -219q-70 -357 -123 -580q-38 -167 -75.5 -259.5t-92.5 -158.5q-53 -65 -157 -116.5t-209 -63.5l-33 133q157 31 229 143q62 98 113 324 q19 78 34 151.5t36.5 184.5t27.5 141q25 142 25 174q0 19 -7 31.5t-15.5 19t-27 9.5t-30.5 3.5t-37 0.5h-283l-163 -869q-31 -163 -76.5 -251.5t-118.5 -143.5q-107 -78 -258 -78q-53 0 -96.5 11.5t-75 41t-31.5 74.5z" />
<glyph unicode="fk" horiz-adv-x="1798" d="M-334 -455q0 62 31 179h121q0 -73 17.5 -104.5t76.5 -31.5q67 0 115 64q48 61 75 229l156 883h-172l25 125q93 15 135 41q23 13 35 36.5t24 77.5q40 157 95.5 242t134.5 133q125 78 315 78q94 0 188 -27q59 27 123 27q59 0 84 -23t25 -83q0 -42 -19 -144 q-66 -312 -278 -1247h-219l223 1038q24 122 24 174q0 113 -159 113q-86 0 -134.5 -19t-82.5 -61q-28 -36 -49 -86t-41 -153l-19 -88q124 0 238 -7l-27 -145q-126 -6 -240 -6l-165 -862q-31 -165 -78.5 -255.5t-122.5 -146.5q-107 -78 -252 -78q-73 0 -148 33 q-25 12 -40 38.5t-15 55.5zM1116 518q130 185 252 303q148 142 285 142q60 0 93.5 -28t33.5 -79q0 -62 -27 -158h-111q-3 32 -14 45t-35 13q-58 0 -135 -64q-84 -71 -143 -137q83 -185 198 -328q62 -75 138 -75q50 0 108 14l-30 -137q-25 -15 -73 -29t-89 -14 q-77 0 -127.5 21t-89.5 69q-60 72 -125 197.5t-109 244.5z" />
<glyph unicode="ft" horiz-adv-x="1402" d="M-330 -436q0 61 31 178h121q0 -81 17 -110t77 -29q34 0 66.5 18t52.5 49q43 61 71 228l150 866h-172l25 125q93 15 135 41q23 13 35 36.5t24 77.5q39 160 91 245.5t128 133.5q117 74 277 74q89 0 162 -31q57 -26 57 -94q0 -69 -31 -209h-123q0 103 -30 137q-23 23 -84 23 q-84 0 -134 -66q-55 -75 -86 -253l-16 -95h279q77 0 118 15q47 15 74 57q30 51 76 152q37 73 106 73q70 0 70 -59q0 -34 -45 -229q124 0 238 -7l-25 -145q-126 -6 -244 -6l-61 -301q-27 -139 -27 -201q0 -46 24.5 -72t73.5 -26q63 0 142 24l28 -141q-139 -68 -299 -68 q-98 0 -154.5 50.5t-56.5 150.5q0 51 15 139q64 311 94 449h-455l-161 -854q-27 -146 -66.5 -232t-101.5 -141q-112 -100 -275 -100q-87 0 -155 33q-56 29 -56 94z" />
<glyph unicode="&#x17f;b" horiz-adv-x="1785" d="M-350 -436q0 61 31 178h120q0 -76 18 -105.5t77 -29.5q70 0 118 61q44 60 72 230l186 1087q57 326 242 436q122 76 289 76q93 0 188 -27q63 29 123 29q58 0 83.5 -24t25.5 -86q0 -44 -17 -127q-77 -356 -106 -461q69 76 158 121t184 45q276 0 276 -301q0 -317 -180 -516 q-153 -170 -432 -170q-103 0 -214 18t-179 51q29 110 61 266l150 697q30 131 30 198q0 115 -157 115q-78 0 -119 -18.5t-74 -61.5q-30 -35 -51 -85t-41 -154l-203 -1088q-31 -165 -79 -257t-121 -148q-104 -76 -256 -76q-84 0 -143.5 31t-59.5 96zM971 190q64 -26 170 -26 q152 0 241 123q44 63 66 147.5t22 161.5q0 87 -36.5 128.5t-120.5 41.5q-54 0 -118 -27t-120 -71z" />
<glyph unicode="&#x17f;h" horiz-adv-x="1808" d="M-352 -436q0 65 30 178h121q0 -76 18 -105.5t77 -29.5q70 0 118 61q44 60 72 230l188 1083q30 177 86 278.5t150 161.5q121 76 299 76q90 0 188 -27q63 29 121 29q60 0 84.5 -24t24.5 -86q0 -50 -15 -127q-24 -126 -110 -476q69 82 165.5 129.5t194.5 47.5 q199 0 199 -183q0 -73 -27 -184l-51 -205q-31 -122 -31 -174q0 -35 17 -50t55 -15q58 0 121 18l-29 -135q-119 -53 -252 -53q-155 0 -155 127q0 62 26 178l64 266q18 85 18 121q0 86 -94 86q-120 0 -246 -113l-147 -647h-219l219 1012q28 126 28 198q0 115 -157 115 q-74 0 -119.5 -19.5t-77.5 -60.5q-30 -35 -51 -85t-41 -154l-203 -1088q-31 -165 -79 -257t-122 -148q-104 -76 -256 -76q-84 0 -143 31t-59 96z" />
<glyph unicode="&#x17f;i" horiz-adv-x="1241" d="M-348 -436q0 73 31 178h118q0 -80 18.5 -109.5t78.5 -29.5q33 0 65.5 18.5t52.5 48.5q41 60 70 228l178 1050q31 180 91 297.5t165 177.5q132 74 318 74q130 0 200 -33q62 -29 62 -100q0 -76 -37 -213h-143q0 119 -37 149q-29 23 -101 23q-110 0 -174 -76 q-58 -65 -96 -256l-205 -1079q-27 -144 -67.5 -232t-102.5 -143q-112 -100 -276 -100q-86 0 -154 33q-55 28 -55 94zM684 764l25 123q139 71 245 71q72 0 106 -31.5t34 -103.5q0 -55 -43 -243l-45 -191q-31 -139 -31 -172q0 -35 15.5 -50t53.5 -15q56 0 123 18l-28 -135 q-119 -53 -252 -53q-158 0 -158 129q0 58 27 178l55 237q31 134 31 179q0 36 -16.5 50.5t-55.5 14.5q-52 0 -86 -6z" />
<glyph unicode="&#x17f;j" horiz-adv-x="1210" d="M-348 -436q0 73 31 178h118q0 -80 18.5 -109.5t78.5 -29.5q33 0 65.5 18.5t52.5 48.5q41 60 70 228l178 1050q31 180 90.5 296.5t165.5 176.5q129 76 318 76q130 0 200 -33q62 -29 62 -100q0 -76 -37 -213h-143q0 43 -1 62.5t-8.5 45t-23.5 39.5q-31 25 -105 25 q-114 0 -176 -74q-55 -61 -94 -258l-205 -1079q-27 -144 -67.5 -232t-102.5 -143q-112 -100 -276 -100q-86 0 -154 33q-55 28 -55 94zM389 -424q157 43 217 137q30 46 54 122.5t55 205.5q17 69 104 481q27 118 27 180q0 38 -16.5 53t-53.5 15q-50 0 -88 -6l27 123 q60 31 128 51t120 20q69 0 102 -30.5t33 -102.5q0 -38 -31 -202q-28 -152 -125 -586q-37 -165 -75 -258.5t-95 -159.5q-51 -60 -151.5 -111.5t-200.5 -64.5z" />
<glyph unicode="&#x17f;k" horiz-adv-x="1753" d="M-352 -436q0 65 30 178h121q0 -76 18 -105.5t77 -29.5q70 0 118 61q44 60 72 230l188 1089q56 320 238 434q116 76 297 76q90 0 188 -27q63 29 121 29q60 0 84.5 -24t24.5 -86q0 -63 -17 -140q-37 -181 -139.5 -635t-140.5 -614h-219l219 1012q28 126 28 198 q0 115 -157 115q-133 0 -197 -80q-30 -35 -51 -85t-41 -154l-203 -1088q-31 -165 -79 -257t-122 -148q-104 -76 -256 -76q-84 0 -143 31t-59 96zM1071 518q139 193 252 303q148 142 287 142q60 0 93.5 -28t33.5 -79q0 -66 -29 -158h-109q-5 58 -49 58q-58 0 -135 -64 q-71 -57 -145 -137q95 -206 198 -328q23 -30 60 -52.5t78 -22.5q50 0 108 14l-31 -137q-25 -15 -72.5 -29t-88.5 -14q-76 0 -126.5 21t-90.5 69q-59 71 -124 196.5t-110 245.5z" />
<glyph unicode="&#x17f;l" horiz-adv-x="1236" d="M-352 -434q0 67 33 176h118q0 -75 18.5 -105t78.5 -30q71 0 116 63q43 55 72 230l186 1081q57 330 242 440q122 76 289 76q86 0 184 -27q63 29 121 29t83 -24t25 -86q0 -76 -53 -302l-153 -698q-29 -147 -29 -172q0 -35 16 -50t54 -15q58 0 125 18l-31 -135 q-122 -53 -252 -53q-158 0 -158 129q0 44 27 176l158 725q28 126 28 198q0 115 -153 115q-124 0 -191 -80q-29 -34 -50.5 -85t-41.5 -154l-203 -1088q-31 -165 -79 -257.5t-122 -147.5q-101 -76 -256 -76q-84 0 -143 32t-59 97z" />
<glyph unicode="&#x17f;&#x17f;" horiz-adv-x="1288" d="M-346 -436q0 66 33 178h118q0 -79 18 -109t77 -30q32 0 63 18t53 49q41 60 70 228l178 1040q58 332 232 442q119 74 274 74q78 0 141 -24q58 -24 58 -95q0 -35 -9.5 -101.5t-21.5 -113.5h-121q2 10 2 45q0 68 -31 95q-23 20 -71 20q-82 0 -129 -70q-46 -62 -84 -252 l-197 -1046q-27 -146 -67.5 -233t-102.5 -142q-109 -100 -274 -100q-84 0 -152 33q-57 29 -57 94zM330 -395q0 71 28 174h119q0 -93 27 -115q27 -20 67 -20q37 0 70 19.5t55 53.5q44 65 72 228l178 1036q58 331 230 440q122 76 276 76q97 0 170 -31q57 -23 57 -94 q0 -91 -30 -209h-127q2 23 2 49q0 60 -33 88q-26 23 -82 23q-84 0 -137 -70q-47 -56 -86 -252l-197 -1042q-27 -145 -67.5 -231t-102.5 -144q-109 -106 -282 -106q-64 0 -107 9.5t-71.5 38.5t-28.5 79z" />
<glyph unicode="&#x17f;&#x17f;b" horiz-adv-x="2459" d="M-346 -436q0 66 33 178h118q0 -79 18 -109t77 -30q32 0 63 18t53 49q41 60 70 228l178 1040q58 332 232 442q119 74 274 74q78 0 141 -24q58 -24 58 -95q0 -35 -9.5 -101.5t-21.5 -113.5h-121q2 14 2 33q0 82 -31 107q-23 20 -71 20q-82 0 -129 -70q-46 -62 -84 -252 l-197 -1046q-27 -146 -67.5 -233t-102.5 -142q-109 -100 -274 -100q-84 0 -152 33q-57 29 -57 94zM328 -397q0 70 32 176h117q0 -76 19 -104.5t82 -28.5q69 0 114 63q50 72 76 230l178 1046q57 326 242 436q122 76 289 76q93 0 188 -27q63 29 123 29q58 0 83 -24t25 -86 q0 -49 -16 -127q-77 -356 -106 -461q69 76 158 121t184 45q276 0 276 -301q0 -317 -180 -516q-153 -170 -432 -170q-103 0 -214.5 18t-179.5 51q34 126 62 266l149 697q31 135 31 198q0 115 -158 115q-77 0 -118 -18.5t-74 -61.5q-30 -35 -51 -85t-41 -154l-195 -1047 q-31 -166 -79.5 -258.5t-123.5 -146.5q-104 -76 -251 -76q-44 0 -78.5 5t-65.5 18t-48 39t-17 63zM1645 190q64 -26 170 -26q152 0 241 123q44 63 66 147.5t22 161.5q0 87 -36.5 128.5t-120.5 41.5q-54 0 -118 -27t-120 -71z" />
<glyph unicode="&#x17f;&#x17f;h" horiz-adv-x="2486" d="M-346 -436q0 66 33 178h118q0 -79 18 -109t77 -30q32 0 63 18t53 49q41 60 70 228l178 1040q58 332 232 442q119 74 274 74q78 0 141 -24q58 -24 58 -95q0 -35 -9.5 -101.5t-21.5 -113.5h-121q2 12 2 37q0 76 -31 105q-21 18 -71 18q-82 0 -129 -70q-46 -62 -84 -252 l-197 -1046q-27 -146 -67.5 -233t-102.5 -142q-109 -100 -274 -100q-84 0 -152 33q-57 29 -57 94zM328 -397q0 70 32 176h117q0 -75 18.5 -104t79.5 -29q73 0 119 65q44 61 72 228l182 1042q31 177 87 277.5t151 162.5q113 76 295 76q92 0 190 -27q63 29 121 29 q60 0 84.5 -24t24.5 -86q0 -45 -17 -132q-38 -187 -108 -471q69 82 165.5 129.5t194.5 47.5q199 0 199 -183q0 -73 -27 -184l-51 -205q-31 -122 -31 -174q0 -35 17 -50t55 -15q58 0 121 18l-29 -135q-119 -53 -252 -53q-156 0 -156 127q0 58 27 178l64 266q18 85 18 121 q0 86 -94 86q-120 0 -246 -113l-147 -647h-220l220 1012q28 126 28 198q0 115 -157 115q-74 0 -119.5 -19.5t-77.5 -60.5q-30 -35 -51 -85t-41 -154l-197 -1047q-31 -166 -78 -257.5t-120 -147.5q-104 -76 -265 -76q-198 0 -198 125z" />
<glyph unicode="&#x17f;&#x17f;i" horiz-adv-x="1914" d="M-346 -436q0 66 33 178h118q0 -79 18 -109t77 -30q32 0 63 18t53 49q41 60 70 228l178 1040q58 332 232 442q119 74 274 74q78 0 141 -24q58 -24 58 -95q0 -35 -9.5 -101.5t-21.5 -113.5h-121q0 43 -2 68q-6 51 -27 71.5t-71 20.5q-82 0 -129 -70q-46 -62 -84 -252 l-197 -1046q-27 -146 -67.5 -233t-102.5 -142q-109 -100 -274 -100q-84 0 -152 33q-57 29 -57 94zM330 -393q0 73 30 172h117q0 -77 19 -106t79 -29q28 0 62 18t55 49q47 70 74 230l172 1007q31 182 90 298.5t166 176.5q132 74 317 74q39 0 70.5 -2t69.5 -10t63 -22 t42.5 -39t17.5 -60q0 -76 -37 -213h-144q0 120 -34 147q-32 25 -105 25q-107 0 -174 -76q-58 -65 -96 -256l-197 -1038q-27 -143 -68 -230t-104 -145q-112 -100 -278 -100q-92 0 -156 33q-51 28 -51 96zM1356 764l26 123q139 71 244 71q72 0 106.5 -31.5t34.5 -103.5 q0 -46 -45 -243l-45 -191q-30 -135 -30 -172q0 -35 16.5 -50t54.5 -15q56 0 123 18l-31 -135q-119 -53 -251 -53q-158 0 -158 129q0 49 29 178l55 237q31 134 31 179q0 36 -17 50.5t-55 14.5q-50 0 -88 -6z" />
<glyph unicode="&#x17f;&#x17f;j" horiz-adv-x="1886" d="M-346 -436q0 66 33 178h118q0 -79 18 -109t77 -30q32 0 63 18t53 49q41 60 70 228l178 1040q58 332 232 442q119 74 274 74q78 0 141 -24q58 -24 58 -95q0 -35 -9.5 -101.5t-21.5 -113.5h-121q0 111 -29 140q-20 20 -71 20q-82 0 -129 -70q-46 -62 -84 -252l-197 -1046 q-27 -146 -67.5 -233t-102.5 -142q-109 -100 -274 -100q-84 0 -152 33q-57 29 -57 94zM324 -418q0 69 28 172h119q0 -76 20.5 -105.5t81.5 -29.5q31 0 64.5 18.5t52.5 49.5q47 81 72 229l176 1032q31 180 90.5 296.5t165.5 176.5q138 76 317 76q131 0 201 -33 q62 -29 62 -100q0 -76 -37 -213h-144q0 5 1 18t1 21q0 40 -6 63.5t-26 42.5q-27 27 -107 27q-114 0 -176 -74q-55 -61 -94 -258l-203 -1061q-27 -144 -68 -231t-104 -143q-109 -103 -276 -103q-90 0 -154 29q-57 28 -57 100zM1075 -369q159 47 217 138q48 72 109 327 q47 203 92 426q27 137 27 180q0 38 -16.5 53t-53.5 15q-50 0 -88 -6l27 123q60 31 127.5 51t119.5 20q70 0 103 -30.5t33 -102.5q0 -38 -31 -202q-45 -240 -113 -531q-37 -165 -75 -258.5t-95 -159.5q-51 -60 -151.5 -111.5t-200.5 -64.5z" />
<glyph unicode="&#x17f;&#x17f;k" horiz-adv-x="2426" d="M-346 -436q0 66 33 178h118q0 -79 18 -109t77 -30q32 0 63 18t53 49q41 60 70 228l178 1040q58 332 232 442q119 74 274 74q78 0 141 -24q58 -24 58 -95q0 -35 -9.5 -101.5t-21.5 -113.5h-121q2 18 2 39q0 74 -31 101q-23 20 -71 20q-82 0 -129 -70q-46 -62 -84 -252 l-197 -1046q-27 -146 -67.5 -233t-102.5 -142q-109 -100 -274 -100q-84 0 -152 33q-57 29 -57 94zM328 -397q0 70 32 176h117q0 -76 19 -104.5t82 -28.5q70 0 116 65q44 61 72 228l180 1048q56 320 238 434q116 76 297 76q90 0 188 -27q63 29 121 29q59 0 83.5 -24t24.5 -86 q0 -68 -16 -140q-41 -193 -144.5 -653t-135.5 -596h-220l220 1012q28 126 28 198q0 115 -157 115q-133 0 -197 -80q-30 -35 -51 -85t-41 -154l-195 -1047q-31 -166 -78 -257.5t-120 -147.5q-104 -76 -254 -76q-96 0 -152.5 27t-56.5 98zM1745 518q139 193 252 303 q148 142 287 142q60 0 93 -28t33 -79q0 -69 -28 -158h-109q-5 58 -49 58q-58 0 -135 -64q-71 -57 -145 -137q95 -206 198 -328q23 -30 59.5 -52.5t77.5 -22.5q51 0 109 14l-31 -137q-25 -15 -73 -29t-89 -14q-76 0 -126.5 21t-90.5 69q-59 70 -123.5 195.5t-109.5 246.5z " />
<glyph unicode="&#x17f;&#x17f;l" horiz-adv-x="1912" d="M-346 -436q0 66 33 178h118q0 -79 18 -109t77 -30q32 0 63 18t53 49q41 60 70 228l178 1040q58 332 232 442q119 74 274 74q78 0 141 -24q58 -24 58 -95q0 -35 -9.5 -101.5t-21.5 -113.5h-121q0 1 1 13t1 18q0 78 -31 109q-20 20 -71 20q-82 0 -129 -70q-46 -62 -84 -252 l-197 -1046q-27 -146 -67.5 -233t-102.5 -142q-109 -100 -274 -100q-84 0 -152 33q-57 29 -57 94zM330 -399q0 72 28 178h119q0 -77 18 -105t78 -28q72 0 123 67q41 53 70 228l180 1040q57 329 240 440q122 76 289 76q89 0 184 -27q67 29 121 29q60 0 85 -24t25 -86 q0 -76 -53 -302l-154 -698q-30 -131 -30 -172q0 -35 16 -50t53 -15q58 0 125 18l-30 -135q-119 -53 -252 -53q-158 0 -158 129q0 35 29 176l155 725q31 135 31 198q0 115 -154 115q-71 0 -114.5 -19t-77.5 -61q-28 -36 -49 -86t-41 -153l-197 -1047q-31 -165 -78 -256.5 t-120 -146.5q-107 -78 -248 -78q-47 0 -81.5 4.5t-66.5 17t-48.5 38t-16.5 63.5z" />
<glyph unicode="&#x17f;&#x17f;t" horiz-adv-x="2011" d="M-346 -436q0 66 33 178h118q0 -79 18 -109t77 -30q32 0 63 18t53 49q41 60 70 228l178 1040q58 332 232 442q119 74 274 74q78 0 141 -24q58 -24 58 -95q0 -35 -9.5 -101.5t-21.5 -113.5h-121q2 12 2 41q0 70 -31 101q-18 18 -71 18q-82 0 -129 -70q-46 -62 -84 -252 l-197 -1046q-27 -146 -67.5 -233t-102.5 -142q-109 -100 -274 -100q-84 0 -152 33q-57 29 -57 94zM330 -399q0 76 30 178h117q0 -76 18.5 -105.5t75.5 -29.5q35 0 68 18t53 49q49 71 76 228l174 1022q31 179 94 287.5t158 166.5q60 37 150 59.5t180 22.5q183 0 264.5 -70.5 t81.5 -183.5q0 -114 -68 -325q124 0 238 -7l-27 -145q-126 -6 -241 -6l-62 -299q-27 -139 -27 -203q0 -46 24.5 -72t72.5 -26q60 0 143 24l29 -141q-139 -68 -301 -68q-97 0 -153 50.5t-56 150.5q0 45 16 139q44 223 92 449h-172l23 123q80 16 123 35q61 28 95 99t34 150 q0 77 -47 114.5t-119 37.5q-129 0 -199 -80q-70 -82 -100 -239l-199 -1051q-27 -144 -69 -231.5t-105 -143.5q-115 -100 -285 -100q-93 0 -146.5 27t-53.5 96z" />
<glyph unicode="&#x162;h" horiz-adv-x="2369" d="M188 977q10 105 37 280q11 64 43 95.5t101 31.5h1151q109 86 176 86q46 0 68 -20.5t22 -71.5q0 -35 -21 -137q-44 -223 -104 -455q71 82 166 129.5t192 47.5q201 0 201 -187q0 -69 -27 -180l-51 -205q-31 -118 -31 -174q0 -35 17 -50t55 -15q58 0 121 18l-29 -135 q-119 -53 -252 -53q-155 0 -155 127q0 74 26 178l64 266q18 85 18 121q0 86 -94 86q-120 0 -246 -113l-147 -647h-219l215 983q18 85 18 135q0 31 -8.5 46.5t-28.5 23.5q-49 22 -510 22l-176 -905q-14 -69 -14 -108t41 -50q34 -8 143 -14l-24 -135q-32 1 -124.5 2t-129.5 2 q-43 -75 -43 -100q0 -30 28 -47q64 -38 89.5 -73.5t25.5 -86.5q0 -65 -36.5 -118t-98 -86.5t-130.5 -54.5t-145 -30l-4 105q120 27 180 60t60 93q0 61 -74 109q-32 22 -32 57q0 48 75 172l-274 -4l24 135q96 5 127.5 13t49.5 24q20 17 41 129l176 911q-165 0 -219 -5 t-82 -23q-57 -31 -103 -205h-119z" />
<glyph unicode="&#x21a;h" horiz-adv-x="2369" d="M188 977q10 105 37 280q11 64 43 95.5t101 31.5h1151q109 86 176 86q46 0 68 -20.5t22 -71.5q0 -35 -21 -137q-44 -223 -104 -455q71 82 166 129.5t192 47.5q201 0 201 -187q0 -69 -27 -180l-51 -205q-31 -118 -31 -174q0 -35 17 -50t55 -15q58 0 121 18l-29 -135 q-119 -53 -252 -53q-155 0 -155 127q0 74 26 178l64 266q18 85 18 121q0 86 -94 86q-120 0 -246 -113l-147 -647h-219l215 983q18 85 18 135q0 31 -8.5 46.5t-28.5 23.5q-49 22 -510 22l-176 -905q-14 -69 -14 -108t41 -50q34 -8 143 -14l-24 -135q-164 4 -318 4 q-139 0 -315 -4l24 135q96 5 127.5 13t49.5 24q20 17 41 129l176 911q-165 0 -219 -5t-82 -23q-57 -31 -103 -205h-119zM375 -512q174 81 174 158q0 33 -35 61q-45 33 -45 84q0 48 32.5 82.5t90.5 34.5q64 0 100.5 -41t36.5 -105q0 -217 -317 -354z" />
<glyph unicode=" "  horiz-adv-x="448" />
<glyph unicode="&#x09;" horiz-adv-x="448" />
<glyph unicode="&#xa0;" horiz-adv-x="448" />
<glyph unicode="!" horiz-adv-x="606" d="M141 123q0 64 42.5 111t109.5 47q63 0 103 -38.5t40 -99.5q0 -73 -43 -118t-114 -45q-62 0 -100 39.5t-38 103.5zM281 451q53 668 79 847q12 67 48 104.5t110 37.5q60 0 92.5 -28.5t32.5 -74.5q0 -21 -10 -71q-11 -42 -246 -815h-106z" />
<glyph unicode="&#x22;" horiz-adv-x="675" d="M201 866q22 412 37 490q10 53 38 76.5t80 23.5q47 0 68.5 -22.5t21.5 -57.5q0 -27 -14 -78q-30 -117 -141 -432h-90zM526 866q23 427 35 490q19 100 119 100q47 0 69.5 -23t22.5 -57q0 -22 -16 -80q-28 -107 -142 -430h-88z" />
<glyph unicode="#" horiz-adv-x="1155" d="M117 418l30 174h228l65 211h-225l33 176h239l115 393h109l-117 -393h242l116 393h105l-113 -393h203l-33 -176h-223l-64 -211h213l-30 -174h-234l-129 -445h-104l127 445h-240l-133 -445h-100l127 445h-207zM479 592h244l61 211h-241z" />
<glyph unicode="$" horiz-adv-x="1132" d="M76 186q0 88 24 234h123q8 -130 70 -197q52 -52 172 -61l80 411l-107 58q-211 111 -211 305q0 184 124.5 292.5t346.5 125.5l41 211h107l-41 -209q129 -3 227 -39q38 -13 60 -41.5t22 -63.5q0 -97 -39 -247h-123q-6 130 -45 172q-35 41 -137 47l-76 -396l127 -65 q207 -108 207 -297q0 -103 -38 -183t-105.5 -130.5t-153.5 -79t-190 -35.5l-45 -234h-109l45 230q-186 6 -272 57q-84 47 -84 135zM471 1004q0 -49 28.5 -89t96.5 -77l68 344q-90 -11 -141.5 -56.5t-51.5 -121.5zM573 166q93 11 148 56.5t55 127.5q0 106 -108 160l-25 12z " />
<glyph unicode="%" horiz-adv-x="1794" d="M125 797q0 113 33 234.5t102 203.5q108 131 297 131q285 0 285 -279q0 -110 -33 -234.5t-98 -209.5q-112 -143 -293 -143q-140 0 -216.5 74.5t-76.5 222.5zM311 805q0 -166 123 -166q59 0 104 46.5t69 118t36 141.5t12 132q0 81 -29 118.5t-89 37.5q-61 0 -107.5 -45 t-71 -114.5t-36 -138t-11.5 -130.5zM516 45l746 1329l102 -51l-748 -1333zM1032 281q0 113 33.5 233.5t103.5 204.5q112 133 295 133q285 0 285 -281q0 -112 -32.5 -235.5t-100.5 -208.5q-110 -141 -291 -141q-139 0 -216 74.5t-77 220.5zM1219 289q0 -166 122 -166 q58 0 103.5 47t69.5 118t36.5 141.5t12.5 131.5q0 81 -29 118.5t-90 37.5q-49 0 -89.5 -30.5t-65 -77t-41 -105.5t-23 -112.5t-6.5 -102.5z" />
<glyph unicode="&#x26;" horiz-adv-x="1613" d="M92 354q0 87 26.5 155.5t79.5 119t116.5 86.5t154.5 71q-63 123 -63 246q0 190 120.5 286.5t329.5 96.5q153 0 243.5 -72.5t90.5 -185.5q0 -49 -13.5 -92t-34 -76t-56 -65t-67 -53.5t-81.5 -46.5t-84.5 -39.5t-89.5 -36.5q90 -175 285 -367q61 58 110 145q27 44 27 76 q0 21 -9.5 30.5t-33.5 14.5q-35 6 -105 10l27 131q118 -4 260 -4q186 0 256 4l-27 -131q-83 -3 -120 -26q-28 -19 -93 -121q-83 -129 -180 -234q121 -106 279 -106q35 0 53 4l-33 -182q-41 -8 -106 -8q-121 0 -216 33.5t-155 86.5q-206 -131 -434 -131q-209 0 -333 110 t-124 271zM348 395q0 -107 67 -175t183 -68q127 0 240 75q-192 204 -303 410q-86 -43 -136.5 -99.5t-50.5 -142.5zM653 1067q0 -96 52 -190q278 107 278 245q0 55 -41 90t-108 35q-80 0 -130.5 -48t-50.5 -132z" />
<glyph unicode="'" horiz-adv-x="352" d="M201 866q22 412 37 490q10 53 38 76.5t80 23.5q47 0 68.5 -22.5t21.5 -57.5q0 -31 -16 -90q-42 -143 -139 -420h-90z" />
<glyph unicode="(" horiz-adv-x="657" d="M80 385q0 392 182 699.5t524 510.5l58 -88q-122 -83 -225 -198.5t-181.5 -257t-123 -314t-44.5 -354.5q0 -212 60 -395.5t159 -311.5l-71 -71q-159 124 -248.5 325.5t-89.5 454.5z" />
<glyph unicode=")" horiz-adv-x="657" d="M-150 -309q121 83 224 198.5t181.5 257.5t122.5 314.5t44 353.5q0 213 -59.5 396.5t-157.5 312.5l71 71q158 -124 248 -327t90 -455q0 -392 -182 -699t-524 -509z" />
<glyph unicode="*" horiz-adv-x="835" d="M223 1176q0 42 25 73t67 31q27 0 68 -32.5t145 -135.5l-10 70q-16 110 -16 139q0 111 90 111q38 0 62 -19.5t24 -58.5q0 -67 -66 -213l-18 -41q106 58 153 79t76 21q40 0 60 -22t20 -58q0 -98 -92 -98q-37 0 -219 14q102 -103 137 -150.5t35 -82.5q0 -37 -29 -59.5 t-63 -22.5q-19 0 -33 4.5t-26 19.5t-20 31t-17.5 52.5t-16.5 69.5t-20 97q-69 -136 -109 -181.5t-82 -45.5q-32 0 -59 21.5t-27 62.5q0 19 7.5 35.5t31 40t74 53.5t129.5 68q-181 40 -231 61.5t-50 65.5z" />
<glyph unicode="+" horiz-adv-x="1206" d="M145 561l37 156h391l95 420h155l-98 -420h387l-35 -156h-387l-96 -420h-152l97 420h-394z" />
<glyph unicode="," horiz-adv-x="466" d="M-117 -262q242 118 242 229q0 44 -41 62q-72 32 -72 114q0 58 42 98t110 40q76 0 123 -49.5t47 -131.5q0 -79 -35 -151t-95.5 -128t-129.5 -98.5t-150 -76.5z" />
<glyph unicode="-" horiz-adv-x="559" d="M53 422l33 168h440l-32 -168h-441z" />
<glyph unicode="." horiz-adv-x="448" d="M16 123q0 64 43.5 111t110.5 47q63 0 102 -38t39 -100q0 -73 -42 -118t-113 -45q-62 0 -101 39.5t-39 103.5z" />
<glyph unicode="/" horiz-adv-x="681" d="M-47 -127l711 1632l120 -47l-712 -1632z" />
<glyph unicode="0" horiz-adv-x="1177" d="M96 430q0 124 24 256.5t84 276t148 239.5q157 170 393 170q205 0 312.5 -111t107.5 -329q0 -190 -58.5 -407t-176.5 -361q-162 -193 -410 -193q-210 0 -317 117t-107 342zM346 440q0 -45 3.5 -81t16 -76.5t33.5 -67t58 -44t88 -17.5q131 0 219 145q71 121 111 307.5 t40 323.5q0 127 -42.5 195.5t-151.5 68.5q-127 0 -213 -127q-74 -111 -118 -293.5t-44 -333.5z" />
<glyph unicode="1" horiz-adv-x="1177" d="M184 -2l27 135q161 5 201 37q11 8 19 26t12 34.5t12 54.5l104 528q41 205 41 262q0 25 -9.5 35t-31.5 10q-51 0 -170 -28l-31 137q31 15 78.5 33.5t80.5 30.5t94 33t75 26q73 22 129 22q74 0 74 -80q0 -15 -6 -57q-10 -52 -40 -199t-44 -215l-107 -538q-10 -51 -10 -86 q0 -43 47 -52q39 -7 174 -14l-26 -135q-164 4 -359 4q-158 0 -334 -4z" />
<glyph unicode="2" horiz-adv-x="1177" d="M-8 0l26 143q361 260 475 353q209 169 281 299q55 99 55 206q0 81 -48 136t-150 55q-130 0 -182 -55q-40 -40 -72 -162h-133q4 134 14 186q9 57 39.5 93.5t93.5 64.5q120 53 311 53q188 0 288 -88t100 -233q0 -80 -26 -158.5t-66 -144t-105 -134.5t-123.5 -120 t-143.5 -111t-143.5 -97.5t-142.5 -88.5q46 0 170.5 1t151.5 1q92 0 138 10.5t72 36.5q33 38 76 125h121q-5 -22 -16.5 -73.5t-18.5 -81t-18 -68t-21 -64.5q-34 -84 -153 -84h-850z" />
<glyph unicode="3" horiz-adv-x="1177" d="M84 147q0 83 41 226h135q0 -105 33 -154q42 -61 199 -61q129 0 215 60.5t86 182.5q0 81 -62 135.5t-184 61.5q-94 4 -146 4l29 168q13 1 44 1.5t55 1.5t49 5q111 19 183.5 84t72.5 172q0 67 -46.5 112.5t-138.5 45.5q-113 0 -170 -47q-43 -37 -76 -154h-133q3 72 13 170 q8 53 33.5 86t80.5 62q46 26 130 44.5t182 18.5q102 0 177.5 -24t117.5 -66t61.5 -92t19.5 -109q0 -151 -87 -239t-253 -137q145 -18 221 -94.5t76 -188.5q0 -114 -47.5 -202.5t-130 -141.5t-184.5 -80t-219 -27q-194 0 -293 45q-46 20 -65 50t-19 81z" />
<glyph unicode="4" horiz-adv-x="1177" d="M66 360l22 127l684 773q57 65 96 89.5t95 24.5q43 0 72.5 -23.5t29.5 -74.5q0 -28 -12 -102q-3 -17 -7 -38.5t-13.5 -67.5t-21 -103t-34.5 -171.5t-49 -246.5h205l-35 -185h-205l-16 -79q-13 -76 -13 -82q0 -43 49 -56q24 -5 142 -16l-27 -131q-164 4 -342 4 q-113 0 -289 -4l27 131q154 10 182 41q19 21 41 117l17 73h-598zM328 541h368q88 418 123 559z" />
<glyph unicode="5" horiz-adv-x="1177" d="M96 139q0 61 33 219h137q6 -118 35 -151q53 -60 186 -60q143 0 234.5 75.5t91.5 213.5q0 102 -63 169t-191 67q-53 0 -117 -15q-58 -16 -96 -16q-80 0 -80 76q0 40 19 114l123 508h718l-30 -198h-557l-76 -305q94 24 213 24q171 0 282 -96t111 -270q0 -250 -165 -386.5 t-441 -136.5q-188 0 -279 43q-88 40 -88 125z" />
<glyph unicode="6" horiz-adv-x="1177" d="M141 428q0 198 62 402.5t184 343.5q176 198 479 198q125 0 226 -37q40 -17 57.5 -42.5t17.5 -69.5q0 -86 -37 -211h-126q-7 100 -46 145q-30 35 -129 35q-154 0 -245 -96q-110 -120 -162 -365q50 63 138.5 100t184.5 37q178 0 268.5 -97.5t90.5 -250.5q0 -115 -37 -215 t-104.5 -174.5t-169.5 -117t-226 -42.5q-197 0 -311.5 118.5t-114.5 338.5zM377 401q0 -113 55 -181t156 -68q131 0 204.5 89t73.5 224q0 104 -55.5 160.5t-155.5 56.5q-157 0 -260 -133q-18 -92 -18 -148z" />
<glyph unicode="7" horiz-adv-x="1177" d="M199 958q10 171 26 265q8 56 40.5 86t101.5 30h843l-24 -137l-697 -1194q-15 -25 -24.5 -37t-29.5 -23t-48 -11q-47 0 -73.5 18.5t-26.5 54.5q0 35 26 78l643 1053h-292q-202 0 -258 -19q-32 -10 -52.5 -47.5t-44.5 -116.5h-110z" />
<glyph unicode="8" horiz-adv-x="1177" d="M94 322q0 253 346 372q-90 61 -130 139.5t-40 159.5q0 165 126 272t356 107q194 0 300.5 -82.5t106.5 -216.5q0 -70 -24 -127t-69.5 -98.5t-96.5 -70t-119 -54.5q225 -135 225 -334q0 -184 -139.5 -300t-390.5 -116q-211 0 -331 95t-120 254zM330 340q0 -81 61 -135.5 t166 -54.5q114 0 185 51t71 147q0 74 -57.5 136.5t-190.5 121.5q-123 -57 -179 -116.5t-56 -149.5zM522 1028q0 -67 44.5 -120.5t150.5 -106.5q211 112 211 237q0 67 -50.5 114.5t-138.5 47.5q-101 0 -159 -45.5t-58 -126.5z" />
<glyph unicode="9" horiz-adv-x="1177" d="M98 127q0 106 29 207h129q7 -100 53 -146q36 -36 144 -36q161 0 249 100q94 105 150 362q-50 -62 -137.5 -97.5t-182.5 -35.5q-180 0 -272 97t-92 251q0 115 36 214t102.5 172.5t168.5 115t227 41.5q199 0 312.5 -116t113.5 -336q0 -206 -53 -406t-170 -340 q-170 -203 -481 -203q-71 0 -141.5 12.5t-108.5 28.5q-41 19 -58.5 44.5t-17.5 70.5zM406 883q0 -211 210 -211q166 0 263 127q16 78 16 147q0 113 -55.5 180.5t-157.5 67.5q-131 0 -203.5 -88.5t-72.5 -222.5z" />
<glyph unicode=":" horiz-adv-x="491" d="M59 123q0 64 43.5 111t110.5 47q63 0 102 -38t39 -100q0 -73 -42 -118t-113 -45q-62 0 -101 39.5t-39 103.5zM182 756q0 64 42.5 110.5t109.5 46.5q63 0 103 -37.5t40 -97.5q0 -73 -43.5 -118.5t-114.5 -45.5q-61 0 -99 39.5t-38 102.5z" />
<glyph unicode=";" horiz-adv-x="499" d="M-78 -262q242 118 242 229q0 44 -41 62q-72 32 -72 114q0 58 42 98t110 40q76 0 123 -49.5t47 -131.5q0 -64 -24 -124t-63 -107t-93.5 -90t-110.5 -74.5t-119 -58.5zM182 756q0 64 42.5 110.5t109.5 46.5q63 0 103 -37.5t40 -97.5q0 -73 -43.5 -118.5t-114.5 -45.5 q-61 0 -99 39.5t-38 102.5z" />
<glyph unicode="&#x3c;" horiz-adv-x="1204" d="M215 549l41 166l885 411l-41 -190l-707 -313l563 -314l-41 -172z" />
<glyph unicode="=" horiz-adv-x="1204" d="M115 373l37 157h909l-33 -157h-913zM201 750l32 155h914l-37 -155h-909z" />
<glyph unicode="&#x3e;" horiz-adv-x="1204" d="M139 137l41 189l705 315l-557 309l39 176l694 -409l-35 -166z" />
<glyph unicode="?" horiz-adv-x="913" d="M205 123q0 64 42 111t109 47q64 0 104 -38t40 -100q0 -73 -42.5 -118t-113.5 -45q-63 0 -101 39t-38 104zM231 1090q0 77 13 163q17 97 127 136q115 41 258 41q179 -1 268.5 -82.5t89.5 -208.5q0 -75 -23.5 -138.5t-59 -108.5t-95.5 -87.5t-115 -71t-135 -63.5 q-26 -12 -44.5 -28.5t-31 -43.5t-18.5 -45.5t-16 -58t-15 -58.5h-121q8 127 25 223q12 60 49 96t113 68q108 47 171.5 111t63.5 164q0 39 -13 73.5t-49.5 61.5t-92.5 27q-109 0 -147.5 -31.5t-63.5 -138.5h-138z" />
<glyph unicode="@" horiz-adv-x="1662" d="M96 399q0 139 41 272t119 245.5t184 198t245 133.5t292 48q127 0 232.5 -30t177 -81.5t121 -121.5t72 -148t22.5 -163q0 -168 -65.5 -310.5t-190.5 -244.5q-55 -44 -125 -72.5t-127 -28.5q-73 0 -105.5 35t-32.5 109q-141 -144 -297 -144q-110 0 -171.5 67t-61.5 193 q0 121 57.5 246.5t153.5 216.5q72 69 146.5 98t168.5 29q101 0 181 -45l36 62h129l-122 -424q-50 -172 -50 -242q0 -53 45 -53q25 0 62 19.5t70 51.5q75 73 116 184t41 240q0 211 -134.5 326t-356.5 115q-156 0 -292 -62.5t-230 -168t-147.5 -249t-53.5 -301.5 q0 -250 165 -405.5t431 -155.5q328 0 598 189l55 -99q-143 -106 -315 -163.5t-357 -57.5q-328 0 -527.5 189t-199.5 503zM602 379q0 -74 33.5 -106.5t97.5 -32.5q48 0 114 30t114 72q17 76 40 160l78 272q-80 37 -149 37q-103 0 -176 -76q-66 -68 -109 -163.5t-43 -192.5z " />
<glyph unicode="A" horiz-adv-x="1503" d="M-74 -2l27 137q93 5 137 37q24 19 47.5 51.5t75.5 122.5l555 950q38 65 78.5 94t99.5 29q116 0 133 -114l162 -1002q10 -61 22 -90.5t33 -50.5q24 -24 129 -27l-26 -137q-164 4 -281 4q-154 0 -338 -4l27 137q75 3 125 15q34 7 47.5 24.5t13.5 50.5q0 45 -8 97l-20 141 h-467l-78 -129q-58 -97 -58 -133q0 -29 23 -43q32 -17 164 -23l-27 -137q-160 4 -358 4q-78 0 -238 -4zM582 639h356q-46 294 -72 508q-102 -190 -284 -508z" />
<glyph unicode="B" horiz-adv-x="1306" d="M-20 -2l26 135q123 5 150 25q22 13 32 34t23 89l158 819q14 66 14 92q0 38 -45 47q-34 8 -129 14l24 131h431q235 0 348 -24q241 -59 241 -260q0 -299 -331 -363q145 -17 222 -96t77 -199q0 -263 -248 -381q-60 -28 -158.5 -45.5t-208.5 -17.5q-39 0 -175.5 2t-192.5 2 q-102 0 -258 -4zM444 209q0 -34 39 -43q29 -6 127 -6q144 0 241 68t97 192q0 60 -21.5 104.5t-56.5 65.5q-39 26 -101 36.5t-173 10.5h-72l-73 -381q0 -1 -3.5 -20t-3.5 -27zM559 809h76q129 0 176 12q85 23 133.5 78t48.5 141q0 54 -25 93.5t-73 56.5q-65 20 -180 20h-80z " />
<glyph unicode="C" horiz-adv-x="1378" d="M125 549q0 187 66 357t198 298q226 213 592 213q200 0 315 -53q80 -37 80 -121q0 -72 -35 -250h-139q0 126 -37 176q-50 62 -223 62q-122 0 -228 -48t-179 -143q-72 -93 -111 -218.5t-39 -248.5q0 -108 30.5 -189.5t84.5 -130t123 -72t151 -23.5q176 0 256 65 q52 42 111 168h139q-35 -193 -74 -260q-45 -76 -145 -111q-134 -49 -334 -49q-282 0 -442 155t-160 423z" />
<glyph unicode="D" horiz-adv-x="1495" d="M-20 0l26 133q88 6 120.5 13t47.5 22q11 12 18 35.5t19 85.5l158 803q12 64 12 100q0 38 -41 47q-38 8 -131 14l24 131h369q300 0 445.5 -32t236.5 -101q81 -61 127.5 -166t46.5 -221q0 -541 -362 -751q-191 -113 -598 -113h-518zM449 238q0 -44 51 -56q47 -8 131 -8 q143 0 252.5 49t177 137.5t101.5 205.5t34 259q0 101 -38 186t-103 126q-104 69 -326 69h-96l-178 -921q-6 -30 -6 -47z" />
<glyph unicode="E" horiz-adv-x="1263" d="M-20 0l26 133q127 2 166 33q13 11 19.5 33t17.5 78q3 13 4 20l156 797q14 68 14 100q0 13 -5.5 22.5t-17.5 15t-23 9.5t-30.5 6t-31.5 2.5t-35 1t-31 0.5l24 133h885q69 0 100 -22.5t31 -67.5q0 -84 -41 -268h-127q0 34 -4 84q-5 45 -35 70q-21 13 -60 19.5t-126 6.5 h-221l-80 -411h113q33 0 57 1t44.5 5.5t33.5 7.5t25 14t19 18.5t15.5 27t13.5 33t15 42.5h123q-44 -179 -88 -463h-119q2 20 2 58q-5 72 -51 84q-34 10 -121 10h-113l-69 -352q-6 -42 -6 -48q0 -45 43 -51q53 -8 190 -8q218 0 291 59q41 34 104 156h129q-12 -85 -40 -179 t-56 -144q-41 -66 -188 -66h-942z" />
<glyph unicode="F" horiz-adv-x="1196" d="M-20 -2l26 135q85 4 119.5 11.5t48.5 23.5q10 10 17.5 35.5t21.5 95.5l156 799q14 68 14 90t-10.5 34.5t-34.5 16.5q-33 8 -129 12l24 133h906q47 0 75 -11t39 -30t11 -49q0 -44 -14 -123t-31 -145h-123q-4 128 -37 154q-18 14 -57 20t-130 6h-237l-86 -442h145 q70 0 105 6.5t55 26.5q39 36 66 125h118q-40 -171 -92 -480h-115v14v36t-2.5 30.5t-7 28.5t-13.5 20.5t-22 16.5q-32 12 -124 12h-144l-57 -287q-15 -88 -15 -108q0 -44 46 -58q27 -7 161 -14l-26 -135q-172 4 -344 4q-123 0 -303 -4z" />
<glyph unicode="G" horiz-adv-x="1468" d="M125 555q0 202 77.5 386.5t225.5 303.5q212 172 528 172q232 0 359 -57q43 -18 61.5 -47.5t18.5 -75.5q0 -36 -11.5 -111.5t-25.5 -134.5h-141q-3 130 -33 172q-54 68 -248 68q-106 0 -205 -40t-172 -122q-82 -89 -128 -216t-46 -265q0 -96 22 -171t59.5 -123t90 -79.5 t109 -44t122.5 -12.5q159 0 213 43q23 20 35 78l23 118q8 54 8 68q0 34 -33 43q-31 10 -141 18l22 136q143 -5 291 -5q170 0 262 5l-22 -136q-31 -2 -43 -2.5t-31.5 -4t-24.5 -5t-16 -9.5t-13 -13t-7.5 -20.5t-7.5 -27.5t-7 -38l-47 -244q-16 -92 -86 -119 q-184 -74 -432 -74q-283 0 -444.5 151.5t-161.5 434.5z" />
<glyph unicode="H" horiz-adv-x="1560" d="M-20 -2l26 135q83 4 116 12t52 23q4 4 7.5 9.5t7 14.5t7 23.5t7.5 33.5t10 48l156 801q14 82 14 94q0 38 -43 47q-27 7 -131 14l24 133q129 -6 306 -6q29 0 311 6l-27 -133q-64 -4 -99.5 -9t-49.5 -11t-23 -16q-17 -17 -37 -121l-55 -281h576l57 281q14 69 14 98 q0 13 -5.5 23t-18.5 16t-24.5 9.5t-33 5.5t-34.5 3t-38 1q-13 1 -20 1l25 133q258 -6 311 -6q35 0 305 6l-26 -133q-92 -6 -124.5 -13.5t-47.5 -22.5q-21 -21 -39 -119l-154 -797q-16 -91 -16 -106q0 -41 49 -50q26 -5 129 -12l-27 -135q-172 4 -311 4q-121 0 -305 -4 l28 135q137 7 166 33q22 22 41 131l66 338h-578l-65 -334q-17 -81 -17 -104q0 -40 50 -50q46 -8 129 -14l-27 -135q-172 4 -315 4q-119 0 -299 -4z" />
<glyph unicode="I" horiz-adv-x="741" d="M-20 -2l26 135q132 7 168 35q17 14 39 129l156 801q14 82 14 96q0 20 -10 30t-33 15q-27 7 -131 14l24 133q258 -6 310 -6q35 0 311 6l-27 -133q-92 -6 -125.5 -13.5t-46.5 -22.5q-21 -21 -39 -119l-153 -797q-17 -81 -17 -106q0 -38 46 -48q27 -7 133 -14l-29 -135 q-172 4 -317 4q-119 0 -299 -4z" />
<glyph unicode="J" horiz-adv-x="700" d="M-164 -205q233 85 303 266q45 113 84 308l139 729q15 77 15 98q0 35 -47 45q-38 6 -129 12l26 133q189 -6 308 -6q43 0 301 6l-27 -133q-84 -6 -116 -13t-46 -21q-22 -22 -39 -121l-135 -715q-31 -163 -61.5 -256t-79.5 -170q-57 -91 -177.5 -169t-277.5 -120z" />
<glyph unicode="K" horiz-adv-x="1441" d="M-20 -2l26 135q84 4 116.5 11.5t49.5 21.5q20 20 41 129l156 805q14 75 14 94q0 34 -41 45q-31 8 -133 14l24 133q258 -6 306 -6q37 0 307 6l-27 -133q-87 -4 -120.5 -12.5t-47.5 -23.5q-19 -19 -37 -117l-155 -797q-17 -90 -17 -106q0 -40 47 -50q61 -9 132 -14 l-27 -135q-172 4 -315 4q-119 0 -299 -4zM563 698q164 138 418 387q84 84 84 125q0 15 -11.5 23t-37 12.5t-76.5 7.5l27 133q86 -4 315 -4q154 0 244 4l-27 -133q-52 -4 -88 -16q-55 -21 -168 -131q-42 -42 -213.5 -200t-206.5 -191q69 -136 166.5 -276.5t167.5 -213.5 q48 -51 107 -73q51 -18 102 -21l-25 -131q-68 -8 -149 -8q-158 0 -244 92q-79 88 -192.5 266t-192.5 348z" />
<glyph unicode="L" horiz-adv-x="1245" d="M-20 0l26 133q131 5 164 31q14 13 23 41t20 90l156 803q14 75 14 94q0 35 -45 47q-52 11 -129 14l24 133q189 -6 308 -6q179 0 311 6l-27 -133q-147 -5 -172 -36q-22 -25 -39 -121l-157 -799q-8 -48 -8 -64q0 -45 43 -51q53 -6 174 -6q126 0 187.5 12.5t94.5 40.5 q45 40 105 166h118q-59 -253 -102 -329q-37 -66 -174 -66h-915z" />
<glyph unicode="M" horiz-adv-x="1832" d="M-23 -2l27 135q134 6 156 31q32 37 59 170q165 762 174 807q6 37 6 51q0 25 -11.5 35.5t-37.5 15.5q-26 7 -127 10l29 133q90 -4 280 -4q156 0 213 4q135 -613 177 -849q7 13 44.5 79.5t65 113.5t82.5 139.5t134.5 222t183.5 294.5q136 -4 247 -4q168 0 240 4l-27 -135 q-85 -3 -115.5 -10t-43.5 -22q-21 -21 -39 -115q-2 -10 -10 -61.5t-39.5 -237.5t-81.5 -481q-15 -90 -15 -127q0 -41 51 -52q37 -9 123 -12l-26 -135q-192 4 -307 4q-72 0 -314 -4l27 135q137 4 170 37q20 23 35 106q3 15 32.5 178.5t67 373.5t53.5 296q-160 -290 -510 -852 q-24 -37 -49 -54t-65 -17q-78 0 -95 80q-142 635 -184 845q-147 -731 -170 -864q-8 -46 -8 -63q0 -26 12.5 -38.5t42.5 -17.5q41 -7 121 -10l-29 -135q-168 4 -241 4q-96 0 -308 -4z" />
<glyph unicode="N" horiz-adv-x="1542" d="M-23 -2l29 135q83 4 118 13t52 26q17 24 45 170q14 71 45 227.5t56.5 284t37.5 182.5q21 111 21 148q0 49 -55 57q-40 7 -123 12l26 133q86 -4 256 -4q113 0 185 4q54 -115 119 -252t100 -212t77 -164t65 -138t47.5 -102.5t40 -89t28.5 -66.5q25 147 69.5 394t49.5 280 q14 109 14 144q0 46 -41 57q-62 14 -133 16l27 133q218 -4 288 -4q32 0 258 4l-26 -133q-85 -4 -115.5 -11t-46.5 -23q-12 -12 -22 -47t-31 -132q-101 -508 -181 -942q-11 -62 -39 -90t-90 -28q-48 0 -72.5 19.5t-43.5 61.5q-139 305 -248 540.5t-153 331t-76 167.5 q-71 -375 -140 -756q-20 -114 -20 -147q0 -45 55 -52q32 -5 123 -12l-27 -135q-208 4 -284 4q-47 0 -265 -4z" />
<glyph unicode="O" horiz-adv-x="1482" d="M127 532q0 190 65 374t193 308q207 201 518 201q274 0 409.5 -140.5t135.5 -383.5q0 -192 -55 -377t-174 -317q-98 -109 -234.5 -166.5t-286.5 -57.5q-173 0 -299 59t-199 186t-73 314zM385 545q0 -387 328 -387q199 0 313 159q78 107 117 262.5t39 303.5q0 348 -316 348 q-201 0 -321 -158q-75 -99 -117.5 -246t-42.5 -282z" />
<glyph unicode="P" horiz-adv-x="1251" d="M-20 -2l26 135q120 7 154 25q18 9 28 34.5t25 98.5l156 803q12 58 12 94q0 24 -11.5 35t-37.5 16q-38 9 -123 12l24 133h453q225 0 352 -26q68 -15 118.5 -46.5t79.5 -75t42.5 -92.5t13.5 -106q0 -171 -78 -285t-213.5 -166t-324.5 -52q-127 0 -172 2l-45 -234 q-17 -87 -17 -104q0 -43 45 -52q36 -7 156 -14l-27 -135q-184 4 -358 4q-74 0 -278 -4zM539 709q31 -2 116 -2q62 0 112.5 6.5t101.5 26.5t86 52t57 86.5t22 127.5q0 62 -21.5 102.5t-65.5 61.5t-96 28.5t-128 7.5h-90z" />
<glyph unicode="Q" horiz-adv-x="1482" d="M127 532q0 190 65 374t193 308q207 201 518 201q274 0 409.5 -140.5t135.5 -383.5q0 -192 -55 -377t-174 -317q-122 -137 -310 -193q80 -83 197 -143q61 -31 152.5 -50.5t166.5 -19.5q38 0 50 2l-27 -135q-59 -10 -154 -10q-98 0 -193 16t-151 41q-98 42 -174 102 t-182 173q-219 26 -343 164t-124 388zM385 545q0 -387 328 -387q199 0 313 159q78 107 117 262.5t39 303.5q0 348 -316 348q-201 0 -321 -158q-75 -99 -117.5 -246t-42.5 -282z" />
<glyph unicode="R" horiz-adv-x="1366" d="M-20 -2l26 135q125 8 156 27q17 10 27.5 35.5t23.5 95.5l158 815q12 68 12 86q0 21 -12 32t-39 17q-25 4 -123 12l24 131h441q230 0 342 -28q122 -33 186 -117t64 -197q0 -185 -97.5 -296t-271.5 -154q62 -137 105.5 -215t89.5 -131q56 -62 106 -86q44 -18 100 -25 l-28 -137q-14 -2 -99 -2q-177 0 -272 102q-63 66 -119 177t-125 292q-69 0 -145 6l-51 -274q-17 -87 -17 -102q0 -14 5 -24t16 -16.5t22.5 -10.5t30 -6t32.5 -3t35.5 -2t34.5 -2l-28 -135q-184 4 -334 4q-72 0 -276 -4zM545 745q31 -2 117 -2q346 0 346 269q0 56 -29 101.5 t-76 64.5q-68 24 -188 24h-80z" />
<glyph unicode="S" horiz-adv-x="1183" d="M72 195q3 109 30 243h127q6 -137 60 -202q31 -38 97.5 -62t158.5 -24q142 0 208 56.5t66 141.5q0 59 -32.5 103t-102.5 79l-231 117q-224 112 -224 330q0 209 152.5 323.5t419.5 114.5q352 0 352 -160q0 -118 -35 -258h-127q0 91 -20 138t-58 71q-53 33 -172 33 q-129 0 -193.5 -56t-64.5 -141q0 -56 31.5 -99.5t110.5 -82.5l225 -110q227 -114 227 -324q0 -116 -43.5 -204.5t-122 -142.5t-182 -81t-229.5 -27q-63 0 -122 7t-115.5 24t-98 42t-67 64t-25.5 87z" />
<glyph unicode="T" horiz-adv-x="1363" d="M188 977q10 105 37 280q11 64 43 95.5t101 31.5h952q68 0 97.5 -21.5t29.5 -70.5q0 -36 -17.5 -134.5t-39.5 -180.5h-115q0 101 -7.5 145t-25.5 60q-21 20 -68 24t-219 4l-176 -905q-14 -69 -14 -108t41 -50q34 -8 143 -14l-24 -135q-164 4 -318 4q-139 0 -315 -4l24 135 q66 4 103.5 10t49.5 12t24 17q20 18 41 127l176 911q-165 0 -219 -5t-82 -23q-57 -31 -103 -205h-119z" />
<glyph unicode="U" horiz-adv-x="1576" d="M190 1253l27 133q160 -4 303 -4q162 0 326 4l-25 -133q-95 -4 -125 -11.5t-47 -24.5q-19 -19 -39 -107q-53 -240 -96 -473q-31 -162 -31 -240q0 -126 77.5 -183.5t213.5 -57.5q107 0 192.5 30.5t131.5 87.5q34 40 60.5 105.5t40.5 118t36 153.5q8 38 80 443q8 57 8 88 q0 26 -9.5 37.5t-33.5 17.5q-33 9 -141 16l24 133q74 -2 310 -2q21 0 110 1t129 1l-26 -133q-143 -7 -166 -45q-18 -30 -39 -131l-92 -467q-38 -198 -79 -303t-114 -176q-165 -162 -485 -162q-74 0 -140.5 10.5t-130.5 36.5t-110 66t-74.5 103.5t-28.5 144.5q0 107 39 299 q14 66 36.5 173t37.5 180.5t22 115.5q13 73 13 86q0 41 -41 53q-39 12 -144 16z" />
<glyph unicode="V" horiz-adv-x="1505" d="M174 1253l25 133q164 -4 331 -4q116 0 304 4l-27 -133q-87 -3 -133 -14q-29 -6 -43.5 -20.5t-14.5 -42.5q0 -37 13 -113q110 -726 123 -815q190 362 434 811q49 85 49 139q0 46 -114 53q-16 1 -46 1l-20 1l26 133q160 -4 277 -4q149 0 305 4l-27 -133q-61 -3 -90.5 -9.5 t-50.5 -22.5q-22 -16 -42 -46.5t-60 -101.5l-555 -991q-34 -61 -74 -87t-100 -26q-120 0 -138 115l-170 1003q-11 69 -23 101t-34 43q-28 19 -125 22z" />
<glyph unicode="W" horiz-adv-x="2097" d="M180 1253l25 133q258 -4 305 -4q229 0 315 4l-26 -133q-106 -3 -150 -18q-13 -6 -22.5 -13.5t-15.5 -19.5t-9.5 -20.5t-4.5 -27t-1.5 -28t0 -33.5t0.5 -34q23 -682 25 -754q144 316 473 971q29 57 61.5 86t93.5 29t88 -26t33 -85q68 -695 84 -979q30 75 71 170.5 t111.5 260.5t137.5 325q41 108 41 137q0 55 -162 58q-17 1 -25 1l27 133q196 -4 297 -4q114 0 270 4l-24 -133q-89 -5 -130 -32q-22 -17 -41 -50t-49 -98l-450 -985q-28 -62 -67 -90.5t-99 -28.5q-61 0 -90 24.5t-33 84.5q-15 173 -33 377.5t-25.5 286t-14 167.5t-9.5 144 q-111 -245 -467 -965q-31 -62 -70 -90.5t-96 -28.5q-60 0 -91 25.5t-34 83.5l-59 1026q-3 52 -12 82t-31 41q-33 20 -117 26z" />
<glyph unicode="X" horiz-adv-x="1509" d="M-45 -2l25 135q105 4 149 31q10 6 19.5 13.5t15.5 11.5t17 15l13.5 13.5t16.5 17.5t16 17l428 473l-231 418q-40 72 -66 86q-33 20 -133 24l27 133q127 -4 321 -4q246 0 316 4l-27 -133q-92 -5 -120 -16q-34 -15 -35 -43q0 -22 30 -84l140 -270l225 256q57 63 57 104 q0 17 -11.5 28t-37.5 16t-42.5 6t-51.5 3l28 133q72 -4 310 -4q153 0 241 4l-26 -133q-79 -2 -123 -30q-30 -17 -105 -99l-389 -413l254 -467q27 -49 45 -68t55 -29t115 -14l-24 -135q-262 4 -328 4q-65 0 -319 -4l22 135q65 2 117 14q47 13 47 50q0 20 -25 65l-176 324 l-262 -303q-59 -67 -59 -99q0 -16 9 -25.5t32 -13.5q44 -9 131 -12l-25 -135q-226 4 -330 4q-153 0 -276 -4z" />
<glyph unicode="Y" horiz-adv-x="1325" d="M154 1253l26 133q226 -4 281 -4q83 0 301 4l-29 -133q-89 -3 -123 -14q-39 -12 -39 -51q0 -31 23 -92q131 -341 145 -379q88 117 301 387q54 68 54 102q0 30 -36.5 38.5t-101.5 8.5l27 133q94 -4 313 -4q105 0 193 4l-27 -133q-57 -3 -100 -30q-8 -5 -18 -15t-24 -26 t-26.5 -30.5t-34 -40.5t-36.5 -44l-426 -512l-54 -270q-12 -59 -12 -88q0 -11 3 -19t9.5 -14t13 -10.5t18.5 -7.5t22 -5t26 -3.5t27 -2t30 -1t31 -1.5l-24 -135q-218 4 -312 4q-117 0 -313 -4l27 135q95 4 126.5 12t45.5 25q17 17 35 104l55 279l-219 539q-20 49 -29 69.5 t-21.5 39.5t-25.5 28q-30 21 -102 24z" />
<glyph unicode="Z" horiz-adv-x="1316" d="M-10 0l8 78l971 1134q-305 0 -377 -3t-105 -15q-32 -12 -57 -60t-51 -151h-143q15 209 28 291q19 110 158 110h944l-12 -77l-969 -1123q63 -6 256 -6q284 0 344 51q56 41 115 185h149q-16 -93 -40 -193.5t-42 -142.5q-15 -40 -45 -59t-92 -19h-1040z" />
<glyph unicode="[" horiz-adv-x="638" d="M18 -348l369 1894h418l-21 -108h-237l-324 -1676h236l-21 -110h-420z" />
<glyph unicode="\" horiz-adv-x="743" d="M238 1470l122 23l242 -1634l-127 -19z" />
<glyph unicode="]" horiz-adv-x="638" d="M-123 -348l23 108h235l326 1676h-238l21 110h422l-369 -1894h-420z" />
<glyph unicode="^" horiz-adv-x="1175" d="M221 750l494 733h168l155 -731h-159l-117 544l-359 -546h-182z" />
<glyph unicode="_" horiz-adv-x="1005" d="M-119 -283l23 119h1011l-22 -119h-1012z" />
<glyph unicode="`" horiz-adv-x="604" d="M106 1419q0 39 31 65.5t68 26.5q31 0 54.5 -19.5t57.5 -78.5l177 -297l-74 -53l-244 244q-39 39 -54.5 62.5t-15.5 49.5z" />
<glyph unicode="a" horiz-adv-x="1193" d="M72 299q0 127 58 268.5t155 235.5q157 151 409 151q47 0 105 -11.5t96 -33.5l39 70h172l-129 -522q-41 -165 -41 -240q0 -33 16 -49t56 -16q62 0 120 18l-30 -135q-122 -53 -238 -53q-81 0 -113 40t-32 123q-141 -170 -334 -170q-155 0 -232 85.5t-77 238.5zM311 330 q0 -172 154 -172q125 0 248 123q7 62 37 180l75 278q-65 39 -155 39q-121 0 -209 -82q-64 -58 -107 -163.5t-43 -202.5z" />
<glyph unicode="b" horiz-adv-x="1148" d="M74 49q31 117 61 264l158 725q33 151 33 209q0 37 -18.5 51.5t-57.5 14.5q-41 0 -86 -10l26 124q149 70 281 70q115 0 115 -104q0 -40 -19 -133q-59 -288 -104 -459q69 76 158 121t184 45q274 0 274 -301q0 -322 -178 -516q-151 -170 -432 -170q-103 0 -215 18t-180 51z M332 190q64 -26 172 -26q150 0 239 123q45 64 68 149t23 160q0 87 -37.5 128.5t-122.5 41.5q-53 0 -118 -27t-120 -71z" />
<glyph unicode="c" horiz-adv-x="968" d="M74 350q0 146 53 279.5t160 218.5q148 119 350 119q107 0 180 -25q52 -19 72 -45t20 -76q0 -80 -32 -198h-132q-3 110 -34 137q-39 31 -103 31q-93 0 -163.5 -62.5t-104 -152.5t-33.5 -187q0 -118 51 -174.5t154 -56.5q140 0 297 94l68 -129q-197 -152 -424 -152 q-177 0 -278 101t-101 278z" />
<glyph unicode="d" horiz-adv-x="1206" d="M72 309q0 135 52.5 270.5t147.5 227.5q163 154 410 154q112 0 182 -37l31 133q31 142 31 188q0 36 -18 52t-58 16q-34 0 -84 -10l25 124q155 70 280 70q115 0 115 -111q0 -20 -4 -49t-14 -78t-16.5 -79.5t-24 -105t-23.5 -101.5l-129 -563q-29 -121 -29 -193 q0 -32 16 -48.5t54 -16.5q62 0 121 18l-31 -135q-116 -53 -238 -53q-61 0 -99 26t-44 80q-2 14 -2 59q-134 -172 -332 -172q-162 0 -240.5 89.5t-78.5 244.5zM311 352q0 -194 164 -194q64 0 132.5 36t117.5 89q8 51 39 184l63 276q-71 41 -170 41q-130 0 -208 -84 q-59 -60 -98.5 -160t-39.5 -188z" />
<glyph unicode="e" horiz-adv-x="966" d="M74 344q0 177 67.5 318.5t193 223t288.5 81.5q155 0 231 -67t76 -171q0 -78 -32 -136.5t-103 -102.5t-192.5 -67t-293.5 -24q-4 -16 -4 -47q0 -84 51.5 -139t159.5 -55q77 0 151 23.5t175 80.5l67 -131q-217 -160 -469 -160q-161 0 -263.5 96.5t-102.5 276.5zM328 555 q393 5 393 158q0 46 -26.5 66t-86.5 20q-97 0 -173.5 -65t-106.5 -179z" />
<glyph unicode="f" horiz-adv-x="706" d="M-330 -436q0 61 31 178h121q0 -81 17 -110t77 -29q34 0 66.5 18t52.5 49q43 61 71 228l150 866h-172l25 125q93 15 135 41q23 13 35 36.5t24 77.5q35 160 86 246t127 135q114 72 270 72q94 0 160 -27q58 -24 58 -98q0 -69 -31 -209h-127q0 31 -1.5 52.5t-8 43.5t-17 35 t-30 21t-46.5 8q-86 0 -133 -66q-22 -29 -38 -82.5t-40 -168.5l-18 -88q124 0 238 -7l-27 -145q-126 -6 -240 -6l-161 -850q-27 -146 -66.5 -232t-101.5 -141q-112 -100 -275 -100q-87 0 -155 33q-56 29 -56 94z" />
<glyph unicode="g" horiz-adv-x="1075" d="M-47 -295q0 43 17 80.5t39 63t62 51t68 39.5t74 34q-41 19 -61.5 51t-20.5 66q0 117 148 207q-156 73 -156 252q0 209 162 330q118 88 295 88q161 0 241 -54q232 0 295 -2l-29 -149q-85 -6 -159 -6q9 -13 15.5 -44.5t6.5 -56.5q0 -185 -139 -299q-128 -102 -319 -102 q-60 0 -95 6q-61 -42 -61 -84q0 -25 22 -41t76 -26q300 -58 320 -62q112 -21 165.5 -82.5t53.5 -152.5q0 -96 -42 -169.5t-116.5 -117.5t-170.5 -66t-210 -22q-241 0 -361 75.5t-120 192.5zM168 -244q0 -63 72 -104t227 -41q132 0 198 39.5t66 101.5q0 47 -35 72.5 t-123 42.5q-227 41 -256 53q-60 -26 -104.5 -68.5t-44.5 -95.5zM344 567q0 -77 48.5 -114t123.5 -37q98 0 158.5 63t60.5 164q0 162 -166 162q-99 0 -162 -68t-63 -170z" />
<glyph unicode="h" horiz-adv-x="1167" d="M68 0l225 1038q33 151 33 209q0 37 -18.5 51.5t-57.5 14.5q-41 0 -86 -10l26 124q149 70 281 70q115 0 115 -104q0 -40 -19 -133q-57 -276 -108 -474q71 82 166 129.5t192 47.5q201 0 201 -187q0 -69 -27 -180l-51 -205q-31 -118 -31 -174q0 -35 17 -50t55 -15 q58 0 121 18l-29 -135q-119 -53 -252 -53q-155 0 -155 127q0 74 26 178l64 266q18 85 18 121q0 86 -94 86q-120 0 -246 -113l-147 -647h-219z" />
<glyph unicode="i" horiz-adv-x="641" d="M88 764l27 123q139 71 243 71q72 0 107 -31.5t35 -103.5q0 -55 -47 -243l-50 -191q-32 -122 -32 -172q0 -35 16.5 -50t54.5 -15q56 0 123 18l-30 -135q-119 -53 -252 -53q-158 0 -158 129q0 54 29 176l57 237q4 18 13 54.5t13 54t7.5 39t3.5 33.5q0 36 -17 50.5t-55 14.5 q-51 0 -88 -6zM274 1303q0 69 44.5 116t111.5 47q64 0 97.5 -36.5t33.5 -96.5q0 -70 -42.5 -117t-110.5 -47q-60 0 -97 38t-37 96z" />
<glyph unicode="j" horiz-adv-x="612" d="M-209 -430q157 43 217 137q48 77 109 328q18 75 35.5 156.5t38 182.5t30.5 148q27 137 27 180q0 38 -16.5 53t-55.5 15q-49 0 -86 -6l25 123q139 71 250 71q69 0 102 -31.5t33 -103.5q0 -37 -31 -200q-27 -147 -127 -590q-35 -166 -73 -260t-97 -160 q-51 -60 -150.5 -111.5t-199.5 -64.5zM281 1303q0 69 44.5 116t110.5 47q65 0 99 -36.5t34 -96.5q0 -70 -42.5 -117t-110.5 -47q-62 0 -98.5 38t-36.5 96z" />
<glyph unicode="k" horiz-adv-x="1112" d="M68 0l225 1038q33 151 33 209q0 37 -18.5 51.5t-57.5 14.5q-41 0 -86 -10l26 124q149 70 281 70q115 0 115 -104q0 -51 -19 -144q-31 -133 -145 -648t-135 -601h-219zM430 518q134 187 254 303q148 142 285 142q59 0 93 -28t34 -79q0 -48 -27 -158h-111q-5 58 -53 58 q-59 0 -127 -62q-82 -73 -141 -149q89 -198 190 -318q58 -75 138 -75q49 0 110 14l-33 -137q-22 -14 -70.5 -28.5t-90.5 -14.5q-77 0 -127 21t-90 69q-58 70 -122 194t-112 248z" />
<glyph unicode="l" horiz-adv-x="608" d="M102 111q0 41 27 176l160 725q39 176 39 231q0 37 -16.5 53.5t-53.5 16.5q-30 0 -92 -10l27 124q61 30 137 50t129 20q68 0 97.5 -25.5t29.5 -87.5q0 -67 -54 -297l-155 -698q-29 -126 -29 -172q0 -35 16 -50t54 -15q58 0 125 18l-33 -135q-119 -53 -252 -53 q-156 0 -156 129z" />
<glyph unicode="m" horiz-adv-x="1728" d="M84 764l27 123q60 32 130 51.5t124 19.5q116 0 116 -118q0 -16 -6 -64q74 84 171 135.5t190 51.5q89 0 137 -43t49 -140q72 85 168 134t192 49q197 0 197 -185q0 -69 -25 -172l-51 -215q-30 -131 -30 -172q0 -36 15.5 -51.5t51.5 -15.5q62 0 125 18l-31 -135 q-58 -28 -128.5 -40.5t-121.5 -12.5q-157 0 -157 127q0 54 28 178l66 274q16 66 16 111q0 48 -22.5 68t-65.5 20q-110 0 -233 -105q-13 -70 -23 -112l-127 -543h-223l129 561q16 66 16 111q0 48 -21.5 68t-66.5 20q-104 0 -237 -113q-12 -81 -33 -170l-113 -477h-219 l109 492q35 156 35 208q0 39 -20.5 55.5t-61.5 16.5q-36 0 -76 -8z" />
<glyph unicode="n" horiz-adv-x="1196" d="M84 764l27 123q59 31 130 51t124 20q116 0 116 -114q0 -44 -6 -68q72 83 173.5 135t199.5 52q199 0 199 -187q0 -77 -25 -180l-51 -205q-31 -118 -31 -174q0 -35 16.5 -50t53.5 -15q60 0 123 18l-31 -135q-116 -53 -252 -53q-154 0 -154 127q0 70 27 178l63 266 q17 80 17 121q0 47 -24 66.5t-70 19.5q-120 0 -246 -113q-8 -63 -33 -170l-113 -477h-219l105 479q39 176 39 219q0 40 -19.5 57t-60.5 17q-38 0 -78 -8z" />
<glyph unicode="o" horiz-adv-x="1093" d="M74 358q0 121 36.5 240t114.5 207q143 162 391 162q186 0 298 -92.5t112 -272.5q0 -128 -39.5 -255t-120.5 -218q-68 -75 -170 -116.5t-211 -41.5q-187 0 -299 96.5t-112 290.5zM307 375q0 -225 203 -225q125 0 195 102q42 61 64 153.5t22 180.5q0 205 -197 205 q-127 0 -199 -95q-44 -60 -66 -147t-22 -174z" />
<glyph unicode="p" horiz-adv-x="1179" d="M-23 -535l230 1029q33 153 33 204q0 40 -19.5 57t-60.5 17q-38 0 -78 -8l27 123q139 71 253 71q115 0 115 -116q0 -38 -4 -62q66 76 166 130.5t201 54.5q268 0 268 -297q0 -140 -44 -276t-134 -238q-153 -172 -432 -172q-100 0 -183 18l-116 -535h-222zM360 193 q76 -27 172 -27q152 0 240 125q43 59 66.5 145t23.5 160q0 85 -38 127.5t-122 42.5q-96 0 -241 -119q-5 -48 -29 -145z" />
<glyph unicode="q" horiz-adv-x="1183" d="M70 309q0 135 52.5 271.5t147.5 228.5q83 78 190 119t261 41q67 0 171.5 -18.5t192.5 -59.5q-29 -110 -84 -350l-239 -1076h-221l147 648q-58 -68 -139 -103t-164 -35q-162 0 -238.5 89t-76.5 245zM311 352q0 -95 39.5 -142.5t124.5 -47.5q65 0 131.5 33.5t112.5 85.5 l106 475q-56 30 -174 30q-124 0 -205 -84q-58 -61 -96.5 -161.5t-38.5 -188.5z" />
<glyph unicode="r" horiz-adv-x="874" d="M72 764l26 123q139 71 256 71q113 0 113 -114q0 -48 -4 -68q48 71 127.5 129t169.5 58q55 0 87 -24.5t32 -70.5q0 -89 -39 -202h-125q-3 47 -20 67.5t-56 20.5q-49 0 -98 -37.5t-84 -89.5q-40 -195 -45 -217l-95 -410h-219l101 457q30 150 30 239q0 40 -19 58t-60 18 q-38 0 -78 -8z" />
<glyph unicode="s" horiz-adv-x="944" d="M61 147q3 85 25 193h117q1 -42 9.5 -72.5t16 -42.5t21.5 -28q52 -52 168 -52q86 0 130 23.5t44 64.5q0 33 -17.5 56.5t-60.5 46.5l-166 84q-184 94 -184 244q0 81 35 141.5t96.5 95t135 50.5t159.5 16q146 0 225 -43q55 -28 55 -107q0 -68 -24 -182h-117q-8 107 -47 133 q-42 29 -133 29q-157 0 -160 -95q0 -31 19.5 -53t68.5 -45l162 -78q182 -89 182 -239q0 -70 -24 -125.5t-64 -90.5t-97 -58t-118 -32.5t-131 -9.5q-143 0 -235 43q-52 22 -71.5 54.5t-19.5 78.5z" />
<glyph unicode="t" horiz-adv-x="708" d="M76 764l22 123q97 22 123 33q42 17 66 61q23 41 78 154q36 71 108 71t72 -59q0 -21 -45 -229q123 0 237 -7l-26 -145q-126 -6 -242 -6l-61 -299q-27 -139 -27 -203q0 -46 24 -72t72 -26q61 0 144 24l28 -141q-139 -68 -301 -68q-97 0 -153 50.5t-56 150.5q0 39 17 139 q44 223 92 449h-172z" />
<glyph unicode="u" horiz-adv-x="1212" d="M90 762l27 123q61 32 134.5 51.5t119.5 19.5q71 0 103 -27t32 -89q0 -53 -33 -189l-65 -266q-19 -86 -19 -119q0 -88 96 -88q116 0 246 113q5 36 33 170l110 477h222l-105 -477q-3 -14 -12.5 -58.5t-15 -72.5t-10.5 -61.5t-5 -51.5q0 -37 17 -53.5t55 -16.5q48 0 121 19 l-31 -133q-130 -56 -242 -56q-54 0 -92.5 26t-46.5 81q-2 18 -2 63q-71 -81 -169.5 -126.5t-199.5 -45.5q-99 0 -155 49t-56 140q0 74 25 180l53 209q23 100 23 149q0 38 -18 53t-58 15q-32 0 -82 -8z" />
<glyph unicode="v" horiz-adv-x="1138" d="M72 764l26 123q58 33 133 52t121 19q68 0 97.5 -26.5t29.5 -89.5q0 -57 -26 -187l-52 -276q-16 -98 -16 -125q0 -84 82 -84q59 0 122.5 33.5t108.5 85.5q67 81 108.5 196t41.5 191q0 56 -24 78t-81 22q-38 0 -84 -8l25 127q105 63 221 63q85 0 118.5 -46.5t33.5 -133.5 q0 -144 -68 -312.5t-170 -279.5q-105 -112 -224.5 -162.5t-229.5 -50.5q-99 0 -156 50t-57 141q0 63 20 176l39 211q18 99 18 154q0 39 -18 53t-57 14q-36 0 -82 -8z" />
<glyph unicode="w" horiz-adv-x="1652" d="M72 764l26 123q61 32 134 51.5t118 19.5q71 0 101 -26.5t30 -89.5q0 -57 -26 -187l-52 -276q-16 -98 -16 -125q0 -44 16.5 -64t59.5 -20q40 0 87.5 30t88.5 76q54 65 80 119l88 508h217l-82 -487q-16 -101 -16 -162q0 -84 82 -84q99 0 206 119q69 78 108.5 192.5 t39.5 194.5q0 56 -23.5 78t-78.5 22q-34 0 -80 -8l24 127q105 63 213 63q89 0 122.5 -47t33.5 -135q0 -148 -66.5 -313.5t-169.5 -274.5q-107 -112 -222 -163.5t-220 -51.5q-147 0 -172 119q-8 36 -8 121q-75 -123 -173.5 -181.5t-185.5 -58.5q-95 0 -149.5 50t-54.5 141 q0 77 18 176l41 211q18 99 18 154q0 39 -18 53t-57 14q-36 0 -82 -8z" />
<glyph unicode="x" horiz-adv-x="1122" d="M-4 94q0 35 6 96.5t6 67.5h121q6 -74 51 -74t96 60q86 110 177 248q-34 94 -76 192q-28 59 -50 76.5t-59 17.5q-46 0 -108 -30l20 126q120 82 223 82q63 0 95.5 -29t60.5 -98q18 -41 66 -182q100 154 153 209q88 98 203 98q145 0 145 -112q0 -91 -14 -160h-125 q-8 59 -51 59q-50 0 -100 -57q-74 -81 -154 -207q10 -24 32 -80.5t42 -104t37 -81.5q20 -41 45.5 -57.5t64.5 -16.5q59 0 127 33l-22 -131q-43 -30 -101 -46t-112 -16q-79 0 -127.5 36t-79.5 106q-42 99 -70 194q-94 -158 -164 -241q-49 -57 -100.5 -78t-114.5 -21 q-72 0 -107.5 36.5t-35.5 84.5z" />
<glyph unicode="y" horiz-adv-x="1202" d="M59 -416q0 85 29 199h129q0 -41 2 -59q2 -42 27 -70q41 -41 133 -41q59 0 109.5 21t78.5 61q58 82 105 268q6 25 20.5 91t20.5 87q-163 -166 -359 -166q-100 0 -152 48.5t-52 140.5q0 60 26 180l49 209q23 100 23 149q0 38 -18 53t-58 15q-32 0 -82 -8l27 123 q61 32 134.5 51.5t119.5 19.5q71 0 103 -27t32 -89q0 -33 -33 -189l-61 -266q-19 -86 -19 -119q0 -48 21 -68t67 -20q115 0 252 123l139 637h224q-28 -134 -183 -928q-33 -170 -77 -272.5t-105 -163.5q-130 -133 -383 -133q-160 0 -233 49q-53 35 -56 94z" />
<glyph unicode="z" horiz-adv-x="1056" d="M6 0l12 82l637 713q-164 0 -260 -7q-59 -3 -82 -40q-26 -37 -51 -134h-127q5 137 15 199q8 59 36.5 92t89.5 33h721l-14 -88l-629 -705q68 -4 164 -4q142 0 209 23q26 10 45.5 27t35 47t24 51t22.5 63h123q-18 -152 -47 -256q-23 -96 -137 -96h-787z" />
<glyph unicode="{" horiz-adv-x="636" d="M27 571l18 107q120 10 168.5 72t79.5 235l43 234q14 72 33.5 124t55 99t86.5 76t128 46t178 17l-20 -106q-136 0 -193.5 -58.5t-91.5 -230.5l-55 -281q-18 -96 -52.5 -154t-84 -87t-130.5 -48q84 -20 125 -61.5t41 -122.5q0 -43 -12 -110l-61 -312q-15 -77 -15 -127 q0 -80 43.5 -114.5t145.5 -34.5l-21 -109q-181 0 -264.5 59.5t-83.5 184.5q0 45 12 106l60 310q16 82 16 131q0 73 -34.5 110.5t-114.5 44.5z" />
<glyph unicode="|" horiz-adv-x="544" d="M18 -375l381 1950h160l-381 -1950h-160z" />
<glyph unicode="}" horiz-adv-x="636" d="M-139 -375l18 107q138 0 194.5 58t90.5 230l55 281q28 141 87 201.5t179 87.5q-84 20 -125 61.5t-41 122.5q0 38 13 111l61 313q15 74 15 125q0 80 -43 115t-144 35l21 108q179 0 262.5 -59t83.5 -183q0 -43 -13 -106l-59 -311q-16 -82 -16 -131q0 -74 34.5 -111.5 t116.5 -44.5l-20 -107q-120 -10 -168.5 -72t-79.5 -235l-43 -233q-14 -72 -33.5 -124t-55 -99.5t-86.5 -76.5t-127 -46t-177 -17z" />
<glyph unicode="~" horiz-adv-x="1193" d="M127 537q82 104 157.5 151t155.5 47q49 0 94 -16.5t140 -75.5q92 -61 151 -61q52 0 100 31t111 112l92 -107q-153 -202 -307 -202q-90 0 -198 69q-75 49 -116.5 66.5t-76.5 17.5q-57 0 -104.5 -32t-104.5 -109z" />
<glyph unicode="&#xa1;" horiz-adv-x="606" d="M-4 -313q0 31 12 71q6 26 18 69t35.5 121t46 151.5t66 215.5t78.5 258h108q-56 -675 -81 -847q-12 -67 -48 -104.5t-110 -37.5q-60 0 -92.5 28.5t-32.5 74.5zM203 881q0 73 42.5 118t112.5 45q63 0 101.5 -39.5t38.5 -103.5q0 -63 -43 -110.5t-109 -47.5q-63 0 -103 38.5 t-40 99.5z" />
<glyph unicode="&#xa2;" horiz-adv-x="1019" d="M131 354q0 130 50 251t143 206q127 115 307 129l41 211h108l-41 -209q80 -3 144 -22q90 -26 90 -113q0 -72 -37 -189h-127q0 92 -31 127q-23 20 -71 27l-119 -602q127 6 258 82l55 -123q-70 -54 -162 -89t-184 -44l-45 -232h-107l43 230q-143 11 -229 108t-86 252z M362 381q0 -160 121 -199l115 586q-91 -19 -145 -88q-44 -55 -67.5 -134.5t-23.5 -164.5z" />
<glyph unicode="&#xa3;" horiz-adv-x="1241" d="M10 0l27 145q165 31 243.5 130t94.5 270h-203l31 143h178q-4 70 -4 168q0 247 142 381.5t409 134.5q133 0 219 -33q43 -19 61.5 -47t18.5 -78q0 -70 -37 -221h-123q0 113 -35 158q-37 43 -149 43q-125 0 -188 -71.5t-74 -219.5q-7 -96 -7 -215h316l-29 -143h-297 q-11 -112 -62.5 -199.5t-164.5 -155.5q230 5 334 5q115 0 175.5 7t82.5 27q33 31 80 133h116q-35 -219 -63 -290q-25 -72 -133 -72h-959z" />
<glyph unicode="&#xa4;" horiz-adv-x="1212" d="M131 256l137 137q-86 114 -86 273q0 154 86 272l-137 139l115 121l137 -139q113 84 264 84q148 0 266 -84l134 139l114 -121l-133 -139q84 -109 84 -272q0 -154 -84 -269l135 -141l-116 -121l-134 139q-114 -81 -268 -81q-158 0 -264 79l-135 -137zM344 672 q0 -140 85.5 -232t217.5 -92q129 0 214 91.5t85 226.5q0 134 -85.5 225.5t-213.5 91.5q-130 0 -216.5 -89.5t-86.5 -221.5z" />
<glyph unicode="&#xa5;" horiz-adv-x="1351" d="M174 1204l27 137q113 -2 264 -2q189 0 293 2l-27 -137q-63 -2 -96 -9.5t-43 -19t-10 -32.5q0 -39 34 -129q9 -23 56 -139.5t71 -180.5q99 137 258 338q70 86 70 127q0 24 -27.5 34t-105.5 11l27 137q90 -2 274 -2q141 0 227 2l-26 -137q-63 -3 -101 -28 q-21 -13 -55.5 -52t-114.5 -137l-204 -246h225l-23 -108h-290l-82 -98l-7 -39h353l-21 -109h-352l-23 -113q-8 -41 -8 -73q0 -17 5 -26.5t23 -18.5t55 -14t98 -7l-27 -137q-208 4 -309 4q-116 0 -308 -4l25 137q71 5 107 11t47.5 12.5t21.5 19.5q16 19 31 92l24 117h-337 l22 109h336l6 39l-41 98h-274l20 108h209l-125 312q-5 11 -13 32q-9 24 -13.5 34.5t-12 25.5t-14.5 21t-18 14.5t-25 11.5t-32 6.5t-44 5.5z" />
<glyph unicode="&#xa6;" horiz-adv-x="544" d="M45 -244l135 690h158l-133 -690h-160zM238 752l135 692h159l-135 -692h-159z" />
<glyph unicode="&#xa7;" horiz-adv-x="1009" d="M12 -248q0 74 25 195h127q2 -95 47 -146q15 -18 50 -29.5t73 -11.5q81 0 138.5 40.5t57.5 113.5q0 46 -31.5 99.5t-107.5 138.5l-153 170q-127 141 -127 270q0 116 74 198t225 140q-36 46 -54 105t-18 108q0 64 25 122t74.5 106t132 76t188.5 28q141 0 215 -41 q49 -25 49 -84q0 -26 -10 -90t-23 -107h-121q-5 90 -34 125t-109 35q-76 0 -125 -36t-49 -110q0 -42 25.5 -88t91.5 -110l112 -113q105 -105 141.5 -170.5t36.5 -138.5q0 -96 -70.5 -185t-228.5 -155q101 -116 101 -244q0 -70 -29 -134t-84 -115.5t-144 -82t-200 -30.5 q-75 0 -137 12.5t-108 48t-46 90.5zM322 657q0 -73 92 -170l90 -100q55 -58 82 -94q77 37 118 81.5t41 106.5q0 40 -25 83t-89 108l-94 94q-50 54 -66 74q-74 -34 -111.5 -75.5t-37.5 -107.5z" />
<glyph unicode="&#xa8;" horiz-adv-x="595" d="M20 1262q0 49 33 85.5t84 36.5q47 0 77 -30.5t30 -75.5q0 -56 -33 -92.5t-88 -36.5q-46 0 -74.5 31t-28.5 82zM352 1262q0 49 33.5 85.5t83.5 36.5q48 0 77 -30t29 -76q0 -56 -32.5 -92.5t-85.5 -36.5q-47 0 -76 31t-29 82z" />
<glyph unicode="&#xa9;" horiz-adv-x="1609" d="M121 694q0 197 96 362t262.5 261t366.5 96q146 0 279 -56.5t229 -151.5t152.5 -227t56.5 -278q0 -153 -55.5 -289t-151 -233t-227.5 -154t-279 -57q-206 0 -373 95.5t-261.5 262t-94.5 369.5zM225 694q0 -176 82.5 -322.5t226.5 -231.5t318 -85q169 0 308 83.5 t217.5 228.5t78.5 321q0 179 -77.5 325.5t-217 231t-313.5 84.5q-175 0 -318 -84t-224 -229.5t-81 -321.5zM422 612q0 102 34.5 196.5t100.5 166.5q133 145 371 145q148 0 213 -28q53 -21 53 -80q0 -64 -25 -156h-100q0 79 -22 105q-32 38 -138 38q-141 0 -221 -102 q-82 -104 -82 -266q0 -129 66 -193.5t166 -64.5q107 0 153 39q35 35 60 102h104q-19 -120 -39 -166q-20 -42 -92 -65q-97 -33 -225 -33q-177 0 -277 97.5t-100 264.5z" />
<glyph unicode="&#xaa;" horiz-adv-x="739" d="M96 764q0 82 37 171.5t100 149.5q104 101 265 101q71 0 127 -29l24 43h117l-84 -332q-29 -122 -29 -155q0 -41 49 -41q40 0 78 12l-18 -94q-90 -35 -158 -35q-54 0 -76 26.5t-22 80.5q-93 -109 -211 -109q-101 0 -150 55.5t-49 155.5zM256 784q0 -47 24.5 -76.5 t67.5 -29.5q41 0 83 22t75 56q2 12 26 112l48 170q-50 27 -99 27q-73 0 -125 -47q-41 -36 -70.5 -103.5t-29.5 -130.5z" />
<glyph unicode="&#xab;" horiz-adv-x="958" d="M41 451q0 49 63 100l412 315l70 -86l-336 -327l196 -334l-92 -72l-284 332q-29 33 -29 72zM430 451q0 28 15.5 50.5t48.5 49.5l409 315l72 -86l-336 -327l197 -334l-93 -72l-284 332q-29 37 -29 72z" />
<glyph unicode="&#xac;" horiz-adv-x="1206" d="M147 563l35 162h910l-129 -569h-152l94 407h-758z" />
<glyph unicode="&#xad;" horiz-adv-x="559" d="M53 422l33 168h440l-32 -168h-441z" />
<glyph unicode="&#xae;" horiz-adv-x="1609" d="M121 694q0 197 96 362t262.5 261t366.5 96q146 0 279 -56.5t229 -151.5t152.5 -227t56.5 -278q0 -153 -55.5 -289t-151 -233t-227.5 -154t-279 -57q-206 0 -373 95.5t-261.5 262t-94.5 369.5zM225 694q0 -176 82.5 -322.5t226.5 -231.5t318 -85q169 0 308 83.5 t217.5 228.5t78.5 321q0 179 -77.5 325.5t-217 231t-313.5 84.5q-175 0 -318 -84t-224 -229.5t-81 -321.5zM414 303l18 92q65 0 88 13q8 5 12.5 10.5t9 20.5t9.5 44l88 461q6 38 6 51t-8 20.5t-25 10.5t-29.5 3.5t-35.5 0.5h-8l18 88h277q153 0 221 -20q153 -44 153 -187 q0 -105 -59.5 -169.5t-161.5 -92.5q61 -118 115 -184q21 -25 35.5 -37.5t37 -21t56.5 -11.5l-17 -92q-3 0 -27 -1t-38 -1q-116 0 -182 66q-65 65 -142 264q-64 0 -80 2l-26 -141q-8 -58 -8 -60q0 -13 8 -21.5t27 -11.5t31.5 -3.5t39.5 -0.5l-18 -92q-33 0 -117.5 1t-95.5 1 q-16 0 -77 -1t-95 -1zM766 748q27 -3 72 -3q24 0 46.5 3t45 9t41 17t33 26t22.5 37.5t8 49.5q0 22 -6 40.5t-19 32.5t-32 21q-43 16 -119 16h-43z" />
<glyph unicode="&#xaf;" horiz-adv-x="595" d="M18 1133l29 147h528l-28 -147h-529z" />
<glyph unicode="&#xb0;" horiz-adv-x="710" d="M215 1159q0 126 80.5 202.5t198.5 76.5q113 0 187.5 -70t74.5 -197q0 -125 -78.5 -199.5t-196.5 -74.5q-115 0 -190.5 70t-75.5 192zM322 1165q0 -77 42 -125.5t119 -48.5q78 0 124 49t46 123q0 80 -43 129t-123 49q-72 0 -118.5 -49.5t-46.5 -126.5z" />
<glyph unicode="&#xb1;" horiz-adv-x="1206" d="M57 57l39 158h912l-39 -158h-912zM203 756l35 153h380l93 400h151l-92 -400h379l-35 -153h-377l-92 -400h-151l90 400h-381z" />
<glyph unicode="&#xb2;" d="M145 862l19 109q30 20 89 60t87.5 60t77.5 55t74 55.5t61 51.5t54 54t37 50.5t26.5 53.5t7.5 53q0 51 -28 82t-91 31q-74 0 -108 -27q-28 -24 -45 -102h-101q4 91 10 131q6 34 28 56.5t67 43.5q80 35 198 35q136 0 199 -58t63 -153q0 -60 -25.5 -117.5t-66.5 -106 t-103.5 -98t-126 -89.5t-145.5 -84q150 0 191 2q66 2 95.5 7.5t43.5 22.5q26 26 43 76h90q-3 -15 -10.5 -49.5t-12 -56.5t-12 -49t-14.5 -43q-22 -56 -102 -56h-570z" />
<glyph unicode="&#xb3;" d="M207 952q0 67 24 158h99q3 -79 32 -102t115 -23q76 0 130.5 30.5t54.5 96.5q0 45 -36.5 75t-109.5 34q-31 2 -96 2l24 123q91 6 95 6q64 8 107.5 41.5t43.5 93.5q0 41 -25 65.5t-77 24.5q-84 0 -115 -25q-29 -23 -49 -94h-102q0 38 12 119q11 60 78 96q89 41 206 41 q132 0 196.5 -54t64.5 -132q0 -178 -213 -230q89 -12 136.5 -59.5t47.5 -114.5q0 -75 -32.5 -130.5t-89 -86.5t-124 -46t-145.5 -15q-121 0 -199 31q-53 24 -53 75z" />
<glyph unicode="&#xb4;" horiz-adv-x="604" d="M88 1128l219 273q38 45 64 63.5t51 18.5q37 0 65.5 -26.5t28.5 -65.5q0 -30 -20.5 -56t-67.5 -61l-276 -211z" />
<glyph unicode="&#xb5;" horiz-adv-x="1255" d="M35 -418q0 14 10 64l205 907q22 96 22 149q0 38 -17.5 53t-57.5 15q-36 0 -82 -8l26 123q61 32 135 51.5t119 19.5q71 0 103 -27t32 -89q0 -55 -32 -187l-66 -270q-18 -71 -18 -121q0 -86 94 -86q118 0 246 111q20 111 34 174l113 477h219l-104 -477q-3 -13 -10.5 -47.5 t-12 -56t-10 -50.5t-8 -51.5t-2.5 -38.5q0 -37 16.5 -53.5t54.5 -16.5q48 0 121 19l-32 -133q-127 -56 -240 -56q-54 0 -93.5 28t-45.5 83q-2 18 -2 59q-126 -157 -295 -157q-87 0 -119 43q-65 -419 -68 -432q-11 -52 -42 -76.5t-89 -24.5q-104 0 -104 82z" />
<glyph unicode="&#xb6;" horiz-adv-x="1128" d="M150 778q0 191 92.5 329.5t252 207.5t367.5 69h373l-25 -137q-87 -3 -117 -8.5t-44 -19.5q-17 -13 -27.5 -44t-22.5 -100q-22 -117 -52.5 -285.5t-53 -291.5t-45.5 -232q-65 -310 -80 -352q-57 -170 -178.5 -275.5t-349.5 -160.5l-27 116q162 53 251.5 134.5t125.5 214.5 q31 116 78 352l8 43q-23 -2 -70 -2q-199 0 -327.5 119.5t-128.5 322.5z" />
<glyph unicode="&#xb7;" horiz-adv-x="448" d="M80 498q0 63 42.5 110t108.5 47q64 0 104 -38.5t40 -100.5q0 -72 -42.5 -118t-113.5 -46q-63 0 -101 40.5t-38 105.5z" />
<glyph unicode="&#xb8;" horiz-adv-x="595" d="M94 -467q118 25 177 57t59 91q0 56 -72 102q-31 19 -31 53q0 18 13 50t25.5 54.5t39.5 69.5h105q-48 -73 -48 -104q0 -28 29 -43q61 -34 86 -69.5t25 -84.5q0 -62 -36 -113t-96 -83.5t-128 -52t-142 -27.5z" />
<glyph unicode="&#xb9;" d="M281 860l18 101q108 7 135 26q15 12 27 74l61 301q21 107 21 139q0 33 -31 33q-32 0 -104 -14l-19 106q91 38 211 70q67 20 96 20q60 0 60 -57q0 -29 -8 -76q-5 -29 -22 -104.5t-24 -112.5l-59 -299q-8 -39 -8 -59q0 -15 9 -24t33 -14t34.5 -6t45.5 -2q11 -1 17 -1 l-18 -101q-114 4 -240 4q-125 0 -235 -4z" />
<glyph unicode="&#xba;" horiz-adv-x="802" d="M150 809q0 83 29.5 162.5t90.5 134.5q104 90 260 90q127 0 198 -62.5t71 -177.5q0 -176 -101 -288q-103 -115 -266 -115q-118 0 -200 67t-82 189zM307 823q0 -66 36 -104.5t101 -38.5q63 0 108.5 40.5t66 99t20.5 124.5q0 129 -133 129q-80 0 -129 -55q-70 -83 -70 -195z " />
<glyph unicode="&#xbb;" horiz-adv-x="958" d="M-8 133l334 328l-197 334l92 71l285 -331q29 -37 29 -72q0 -52 -64 -101l-410 -315zM379 133l336 328l-197 334l92 71l285 -331q29 -37 29 -72q0 -49 -64 -101l-409 -315z" />
<glyph unicode="&#xbc;" horiz-adv-x="1779" d="M172 514l18 102q107 5 136 25q16 14 28 74l60 299q20 105 20 141q0 33 -28 33q-48 0 -109 -14l-16 106q76 32 211 72q60 18 98 18q57 0 57 -57q0 -41 -8 -74q-40 -194 -43 -213l-59 -303q-11 -50 -11 -59q0 -11 4 -19t13.5 -12.5t18.5 -7.5t24 -5t25.5 -2.5t28.5 -1 t26 -0.5l-19 -102q-165 6 -239 6q-71 0 -236 -6zM489 45l748 1329l100 -51l-745 -1333zM889 225l16 90l424 455q46 49 76 67.5t76 18.5q14 0 26 -4t21.5 -11.5t15.5 -21t6 -31.5q0 -33 -77 -432h133l-27 -131h-133l-8 -39q-6 -30 -6 -45q0 -32 28 -35q28 -5 94 -8l-18 -98 q-110 4 -236 4q-86 0 -196 -4l16 98q99 5 119 25q16 16 25 63l10 39h-385zM1075 352h221q40 196 70 314z" />
<glyph unicode="&#xbd;" horiz-adv-x="1779" d="M150 514l18 102q106 5 135 25q17 15 29 74l59 299q21 110 21 141q0 33 -29 33q-48 0 -109 -14l-16 106q76 32 211 72q60 18 98 18q58 0 58 -57q0 -37 -9 -74q-40 -194 -43 -213l-59 -303q-10 -45 -10 -59q0 -11 4 -18.5t13.5 -12.5t18 -8t24 -4.5t25.5 -2.5t28 -1.5 t26 -0.5l-18 -102q-165 6 -240 6q-70 0 -235 -6zM459 45l747 1329l101 -51l-746 -1333zM928 2l18 109q30 20 89 60t87.5 60t77.5 55t74 55.5t61 51.5t54 54t37 50.5t26.5 53.5t7.5 53q0 51 -28 82t-91 31q-74 0 -108 -27q-28 -24 -45 -102h-101q4 79 11 131q6 35 27.5 57 t66.5 43q80 35 199 35q136 0 199 -58t63 -153q0 -74 -36 -143.5t-105 -132t-146 -113.5t-180 -107q128 0 190 3q66 2 96 7.5t44 22.5q26 26 43 76h90q-3 -12 -10.5 -49t-12.5 -58t-12.5 -48.5t-14.5 -43.5q-21 -55 -102 -55h-569z" />
<glyph unicode="&#xbe;" horiz-adv-x="1779" d="M166 606q0 67 24 158h99q3 -79 32.5 -102t116.5 -23q75 0 129 31t54 98q0 44 -36.5 73.5t-109.5 32.5q-44 3 -96 3l27 124q75 5 94 7q63 8 106 41.5t43 91.5q0 41 -25.5 66.5t-76.5 25.5q-79 0 -113 -27q-31 -22 -51 -92h-100q0 95 16 140.5t74 72.5q89 41 207 41 q132 0 196 -53.5t64 -130.5q0 -96 -55.5 -150.5t-159.5 -81.5q90 -12 137 -59t47 -113q0 -75 -32 -131t-88.5 -87.5t-124 -46.5t-146.5 -15q-117 0 -197 32q-55 22 -55 74zM545 45l747 1329l101 -51l-746 -1333zM926 225l16 90l424 455q46 49 76 67.5t76 18.5q29 0 49 -17 t20 -51q0 -28 -78 -432h133l-26 -131h-133l-8 -39q-7 -35 -7 -45q0 -32 29 -35q28 -5 94 -8l-18 -98q-110 4 -236 4q-86 0 -196 -4l16 98q99 5 119 25q15 15 24 63l11 39h-385zM1112 352h221q40 196 70 314z" />
<glyph unicode="&#xbf;" horiz-adv-x="886" d="M-16 -113q0 85 28.5 155.5t81.5 123t112.5 89.5t137.5 71q79 34 113.5 61.5t50.5 83.5q3 10 13 50.5t18 68.5h120q-7 -118 -26 -223q-12 -60 -48 -96t-112 -68q-108 -47 -171.5 -111t-63.5 -164q0 -63 37 -112t118 -49q104 0 146 26q38 26 65 141h137q0 -92 -14 -163 q-9 -51 -39.5 -82t-85.5 -51q-115 -41 -258 -41q-179 1 -269.5 82.5t-90.5 207.5zM473 881q0 73 43.5 118t114.5 45q62 0 99.5 -38.5t37.5 -102.5t-43 -111t-111 -47q-62 0 -101.5 38t-39.5 98z" />
<glyph unicode="&#xc0;" horiz-adv-x="1503" d="M-74 -2l27 137q93 5 137 37q24 19 47.5 51.5t75.5 122.5l555 950q38 65 78.5 94t99.5 29q116 0 133 -114l162 -1002q10 -61 22 -90.5t33 -50.5q24 -24 129 -27l-26 -137q-164 4 -281 4q-154 0 -338 -4l27 137q75 3 125 15q34 7 47.5 24.5t13.5 50.5q0 45 -8 97l-20 141 h-467l-78 -129q-58 -97 -58 -133q0 -29 23 -43q32 -17 164 -23l-27 -137q-160 4 -358 4q-78 0 -238 -4zM582 639h356q-46 294 -72 508q-102 -190 -284 -508zM672 1786q0 40 29 68t67 28q28 0 52 -17.5t67 -68.5l213 -260l-64 -63l-280 200q-84 60 -84 113z" />
<glyph unicode="&#xc1;" horiz-adv-x="1503" d="M-74 -2l27 137q93 5 137 37q24 19 47.5 51.5t75.5 122.5l555 950q38 65 78.5 94t99.5 29q116 0 133 -114l162 -1002q10 -61 22 -90.5t33 -50.5q24 -24 129 -27l-26 -137q-164 4 -281 4q-154 0 -338 -4l27 137q75 3 125 15q34 7 47.5 24.5t13.5 50.5q0 45 -8 97l-20 141 h-467l-78 -129q-58 -97 -58 -133q0 -29 23 -43q32 -17 164 -23l-27 -137q-160 4 -358 4q-78 0 -238 -4zM582 639h356q-46 294 -72 508q-102 -190 -284 -508zM754 1546l266 230q44 37 69.5 50t51.5 13q37 0 61.5 -26.5t24.5 -67.5q0 -59 -101 -113l-319 -164z" />
<glyph unicode="&#xc2;" horiz-adv-x="1503" d="M-74 -2l27 137q93 5 137 37q24 19 47.5 51.5t75.5 122.5l555 950q38 65 78.5 94t99.5 29q116 0 133 -114l162 -1002q10 -61 22 -90.5t33 -50.5q24 -24 129 -27l-26 -137q-164 4 -281 4q-154 0 -338 -4l27 137q75 3 125 15q34 7 47.5 24.5t13.5 50.5q0 45 -8 97l-20 141 h-467l-78 -129q-58 -97 -58 -133q0 -29 23 -43q32 -17 164 -23l-27 -137q-160 4 -358 4q-78 0 -238 -4zM582 639h356q-46 294 -72 508q-102 -190 -284 -508zM614 1532l281 270q50 47 92 47q26 0 43 -11t35 -38l186 -274l-65 -62l-223 193l-291 -193z" />
<glyph unicode="&#xc3;" horiz-adv-x="1503" d="M-74 -2l27 137q93 5 137 37q24 19 47.5 51.5t75.5 122.5l555 950q38 65 78.5 94t99.5 29q116 0 133 -114l162 -1002q10 -61 22 -90.5t33 -50.5q24 -24 129 -27l-26 -137q-164 4 -281 4q-154 0 -338 -4l27 137q75 3 125 15q34 7 47.5 24.5t13.5 50.5q0 45 -8 97l-20 141 h-467l-78 -129q-58 -97 -58 -133q0 -29 23 -43q32 -17 164 -23l-27 -137q-160 4 -358 4q-78 0 -238 -4zM582 639h356q-46 294 -72 508q-102 -190 -284 -508zM616 1528q37 100 91 166.5t122 66.5q33 0 113 -32l66 -29q60 -27 92 -27q31 0 55 26t55 85l82 -29 q-80 -239 -200 -239q-56 0 -136 38l-57 27q-54 25 -82 25q-34 0 -62 -25t-61 -84z" />
<glyph unicode="&#xc4;" horiz-adv-x="1503" d="M-74 -2l27 137q93 5 137 37q24 19 47.5 51.5t75.5 122.5l555 950q38 65 78.5 94t99.5 29q116 0 133 -114l162 -1002q10 -61 22 -90.5t33 -50.5q24 -24 129 -27l-26 -137q-164 4 -281 4q-154 0 -338 -4l27 137q75 3 125 15q34 7 47.5 24.5t13.5 50.5q0 45 -8 97l-20 141 h-467l-78 -129q-58 -97 -58 -133q0 -29 23 -43q32 -17 164 -23l-27 -137q-160 4 -358 4q-78 0 -238 -4zM582 639h356q-46 294 -72 508q-102 -190 -284 -508zM662 1632q0 49 32.5 85t83.5 36q47 0 77 -29.5t30 -74.5q0 -56 -33 -92.5t-88 -36.5q-46 0 -74 31t-28 81z M1028 1632q0 49 33 85t84 36q48 0 77 -29.5t29 -74.5q0 -57 -32 -93t-86 -36q-47 0 -76 31t-29 81z" />
<glyph unicode="&#xc5;" horiz-adv-x="1503" d="M-74 -2l27 137q93 5 137 37q24 19 47.5 51.5t75.5 122.5l555 950q38 65 78.5 94t99.5 29q116 0 133 -114l162 -1002q10 -61 22 -90.5t33 -50.5q24 -24 129 -27l-26 -137q-164 4 -281 4q-154 0 -338 -4l27 137q75 3 125 15q34 7 47.5 24.5t13.5 50.5q0 45 -8 97l-20 141 h-467l-78 -129q-58 -97 -58 -133q0 -29 23 -43q32 -17 164 -23l-27 -137q-160 4 -358 4q-78 0 -238 -4zM582 639h356q-46 294 -72 508q-102 -190 -284 -508zM768 1624q0 90 61 149.5t148 59.5q79 0 128.5 -47.5t49.5 -126.5q0 -88 -58 -148.5t-149 -60.5q-77 0 -128.5 48 t-51.5 126zM860 1634q0 -46 25.5 -74t68.5 -28q47 0 78 33.5t31 91.5q0 44 -27 69t-67 25q-46 0 -77.5 -31.5t-31.5 -85.5z" />
<glyph unicode="&#xc6;" horiz-adv-x="2138" d="M-29 -2l27 137q118 6 162 37q64 44 145 145l645 779q60 74 60 108q0 17 -10 25.5t-35 13.5q-26 4 -146 10l25 131h1151q125 0 125 -88q0 -96 -41 -270h-127q0 78 -8.5 107.5t-28.5 44.5q-21 15 -59.5 21.5t-135.5 6.5h-213l-82 -411h115q44 0 72.5 2t52 9.5t36 15.5 t24.5 28t18.5 38.5t17.5 55.5h123q-46 -191 -88 -463h-117q0 48 -12 84q-13 44 -41.5 56t-112.5 12h-118l-64 -326q-10 -60 -10 -71q0 -49 41 -54q53 -8 176 -8q228 0 301 55q45 33 111 160h129q-53 -249 -97 -323q-41 -66 -186 -66h-946l27 133q89 3 139 19q34 8 45 45 q4 11 26 114l33 162h-461l-135 -162q-41 -49 -55 -73.5t-14 -53.5q0 -9 3 -15.5t10 -11.5t14 -9t19.5 -6.5t21.5 -4t25 -2t25.5 -1t27.5 -1t26 -0.5l-25 -135q-196 4 -336 4q-99 0 -295 -4zM793 647h358l102 514q4 24 4 29q0 12 -12 12q-2 0 -4 -0.5t-4 -2t-3.5 -3 l-4.5 -4.5t-5.5 -6t-7 -8.5t-8.5 -10.5q-70 -90 -415 -520z" />
<glyph unicode="&#xc7;" horiz-adv-x="1378" d="M125 549q0 187 66 357t198 298q226 213 592 213q200 0 315 -53q80 -37 80 -121q0 -72 -35 -250h-139q0 126 -37 176q-50 62 -223 62q-122 0 -228 -48t-179 -143q-72 -93 -111 -218.5t-39 -248.5q0 -108 30.5 -189.5t84.5 -130t123 -72t151 -23.5q176 0 256 65 q52 42 111 168h139q-35 -193 -74 -260q-45 -76 -145 -111q-127 -46 -326 -49q-26 -50 -26 -69q0 -30 28 -47q64 -38 89.5 -73.5t25.5 -86.5q0 -65 -36.5 -118t-98 -86.5t-130.5 -54.5t-145 -30l-4 105q120 27 180 60t60 93q0 61 -74 109q-33 23 -33 57q0 42 62 147 q-239 25 -373.5 176t-134.5 396z" />
<glyph unicode="&#xc8;" horiz-adv-x="1263" d="M-20 0l26 133q127 2 166 33q13 11 19.5 33t17.5 78q3 13 4 20l156 797q14 68 14 100q0 13 -5.5 22.5t-17.5 15t-23 9.5t-30.5 6t-31.5 2.5t-35 1t-31 0.5l24 133h885q69 0 100 -22.5t31 -67.5q0 -84 -41 -268h-127q0 34 -4 84q-5 45 -35 70q-21 13 -60 19.5t-126 6.5 h-221l-80 -411h113q33 0 57 1t44.5 5.5t33.5 7.5t25 14t19 18.5t15.5 27t13.5 33t15 42.5h123q-44 -179 -88 -463h-119q2 20 2 58q-5 72 -51 84q-34 10 -121 10h-113l-69 -352q-6 -42 -6 -48q0 -45 43 -51q53 -8 190 -8q218 0 291 59q41 34 104 156h129q-12 -85 -40 -179 t-56 -144q-41 -66 -188 -66h-942zM492 1784q0 40 29 68t67 28q28 0 52 -17.5t67 -68.5l213 -260l-64 -64l-281 201q-83 59 -83 113z" />
<glyph unicode="&#xc9;" horiz-adv-x="1263" d="M-20 0l26 133q127 2 166 33q13 11 19.5 33t17.5 78q3 13 4 20l156 797q14 68 14 100q0 13 -5.5 22.5t-17.5 15t-23 9.5t-30.5 6t-31.5 2.5t-35 1t-31 0.5l24 133h885q69 0 100 -22.5t31 -67.5q0 -84 -41 -268h-127q0 34 -4 84q-5 45 -35 70q-21 13 -60 19.5t-126 6.5 h-221l-80 -411h113q33 0 57 1t44.5 5.5t33.5 7.5t25 14t19 18.5t15.5 27t13.5 33t15 42.5h123q-44 -179 -88 -463h-119q2 20 2 58q-5 72 -51 84q-34 10 -121 10h-113l-69 -352q-6 -42 -6 -48q0 -45 43 -51q53 -8 190 -8q218 0 291 59q41 34 104 156h129q-12 -85 -40 -179 t-56 -144q-41 -66 -188 -66h-942zM639 1546l266 230q44 37 69.5 50t51.5 13q37 0 61.5 -26.5t24.5 -67.5q0 -60 -100 -113l-320 -164z" />
<glyph unicode="&#xca;" horiz-adv-x="1263" d="M-20 0l26 133q127 2 166 33q13 11 19.5 33t17.5 78q3 13 4 20l156 797q14 68 14 100q0 13 -5.5 22.5t-17.5 15t-23 9.5t-30.5 6t-31.5 2.5t-35 1t-31 0.5l24 133h885q69 0 100 -22.5t31 -67.5q0 -84 -41 -268h-127q0 34 -4 84q-5 45 -35 70q-21 13 -60 19.5t-126 6.5 h-221l-80 -411h113q33 0 57 1t44.5 5.5t33.5 7.5t25 14t19 18.5t15.5 27t13.5 33t15 42.5h123q-44 -179 -88 -463h-119q2 20 2 58q-5 72 -51 84q-34 10 -121 10h-113l-69 -352q-6 -42 -6 -48q0 -45 43 -51q53 -8 190 -8q218 0 291 59q41 34 104 156h129q-12 -85 -40 -179 t-56 -144q-41 -66 -188 -66h-942zM446 1532l281 270q50 47 92 47q18 0 31 -5t24 -15.5t23 -28.5l186 -274l-65 -62l-223 193l-291 -193z" />
<glyph unicode="&#xcb;" horiz-adv-x="1263" d="M-20 0l26 133q127 2 166 33q13 11 19.5 33t17.5 78q3 13 4 20l156 797q14 68 14 100q0 13 -5.5 22.5t-17.5 15t-23 9.5t-30.5 6t-31.5 2.5t-35 1t-31 0.5l24 133h885q69 0 100 -22.5t31 -67.5q0 -84 -41 -268h-127q0 34 -4 84q-5 45 -35 70q-21 13 -60 19.5t-126 6.5 h-221l-80 -411h113q33 0 57 1t44.5 5.5t33.5 7.5t25 14t19 18.5t15.5 27t13.5 33t15 42.5h123q-44 -179 -88 -463h-119q2 20 2 58q-5 72 -51 84q-34 10 -121 10h-113l-69 -352q-6 -42 -6 -48q0 -45 43 -51q53 -8 190 -8q218 0 291 59q41 34 104 156h129q-12 -85 -40 -179 t-56 -144q-41 -66 -188 -66h-942zM485 1634q0 49 33 85t84 36q47 0 77 -29.5t30 -74.5q0 -56 -33 -92.5t-88 -36.5q-46 0 -74.5 31t-28.5 81zM852 1634q0 49 33 85t84 36q48 0 77 -29.5t29 -74.5q0 -57 -32.5 -93t-86.5 -36q-47 0 -75.5 31t-28.5 81z" />
<glyph unicode="&#xcc;" horiz-adv-x="741" d="M-20 -2l26 135q132 7 168 35q17 14 39 129l156 801q14 82 14 96q0 20 -10 30t-33 15q-27 7 -131 14l24 133q258 -6 310 -6q35 0 311 6l-27 -133q-92 -6 -125.5 -13.5t-46.5 -22.5q-21 -21 -39 -119l-153 -797q-17 -81 -17 -106q0 -38 46 -48q27 -7 133 -14l-29 -135 q-172 4 -317 4q-119 0 -299 -4zM276 1784q0 40 29.5 68t67.5 28q28 0 52 -17.5t67 -68.5l213 -260l-64 -64l-281 201q-84 60 -84 113z" />
<glyph unicode="&#xcd;" horiz-adv-x="741" d="M-20 -2l26 135q132 7 168 35q17 14 39 129l156 801q14 82 14 96q0 20 -10 30t-33 15q-27 7 -131 14l24 133q258 -6 310 -6q35 0 311 6l-27 -133q-92 -6 -125.5 -13.5t-46.5 -22.5q-21 -21 -39 -119l-153 -797q-17 -81 -17 -106q0 -38 46 -48q27 -7 133 -14l-29 -135 q-172 4 -317 4q-119 0 -299 -4zM389 1546l266 230q44 37 69.5 50t51.5 13q37 0 61.5 -26.5t24.5 -67.5q0 -60 -100 -113l-320 -164z" />
<glyph unicode="&#xce;" horiz-adv-x="741" d="M-20 -2l26 135q132 7 168 35q17 14 39 129l156 801q14 82 14 96q0 20 -10 30t-33 15q-27 7 -131 14l24 133q258 -6 310 -6q35 0 311 6l-27 -133q-92 -6 -125.5 -13.5t-46.5 -22.5q-21 -21 -39 -119l-153 -797q-17 -81 -17 -106q0 -38 46 -48q27 -7 133 -14l-29 -135 q-172 4 -317 4q-119 0 -299 -4zM242 1532l280 270q50 47 92 47q26 0 43 -11t35 -38l187 -274l-66 -62l-223 193l-291 -193z" />
<glyph unicode="&#xcf;" horiz-adv-x="741" d="M-20 -2l26 135q132 7 168 35q17 14 39 129l156 801q14 82 14 96q0 20 -10 30t-33 15q-27 7 -131 14l24 133q258 -6 310 -6q35 0 311 6l-27 -133q-92 -6 -125.5 -13.5t-46.5 -22.5q-21 -21 -39 -119l-153 -797q-17 -81 -17 -106q0 -38 46 -48q27 -7 133 -14l-29 -135 q-172 4 -317 4q-119 0 -299 -4zM283 1634q0 49 32.5 85t83.5 36q47 0 77 -29.5t30 -74.5q0 -56 -33 -92.5t-88 -36.5q-46 0 -74 31t-28 81zM649 1634q0 49 33 85t84 36q48 0 77 -29.5t29 -74.5q0 -57 -32 -93t-86 -36q-47 0 -76 31t-29 81z" />
<glyph unicode="&#xd0;" horiz-adv-x="1495" d="M-20 0l26 133q88 6 120.5 13t47.5 22q11 12 18 35.5t19 85.5l72 368h-203l26 134h203l60 301q12 64 12 100q0 38 -41 47q-38 8 -131 14l24 131h369q300 0 445.5 -32t236.5 -101q81 -61 127.5 -166t46.5 -221q0 -541 -362 -751q-191 -113 -598 -113h-518zM449 238 q0 -44 51 -56q47 -8 131 -8q143 0 252.5 49t177 137.5t101.5 205.5t34 259q0 101 -38 186t-103 126q-104 69 -326 69h-96l-82 -415h340l-29 -134h-336l-71 -372q-6 -30 -6 -47z" />
<glyph unicode="&#xd1;" horiz-adv-x="1542" d="M-23 -2l29 135q83 4 118 13t52 26q17 24 45 170q14 71 45 227.5t56.5 284t37.5 182.5q21 111 21 148q0 49 -55 57q-40 7 -123 12l26 133q86 -4 256 -4q113 0 185 4q54 -115 119 -252t100 -212t77 -164t65 -138t47.5 -102.5t40 -89t28.5 -66.5q25 147 69.5 394t49.5 280 q14 109 14 144q0 46 -41 57q-62 14 -133 16l27 133q218 -4 288 -4q32 0 258 4l-26 -133q-85 -4 -115.5 -11t-46.5 -23q-12 -12 -22 -47t-31 -132q-101 -508 -181 -942q-11 -62 -39 -90t-90 -28q-48 0 -72.5 19.5t-43.5 61.5q-139 305 -248 540.5t-153 331t-76 167.5 q-71 -375 -140 -756q-20 -114 -20 -147q0 -45 55 -52q32 -5 123 -12l-27 -135q-208 4 -284 4q-47 0 -265 -4zM662 1528q37 101 90.5 167t121.5 66q33 0 113 -32l66 -29q60 -27 92 -27q31 0 55 26t55 85l82 -29q-80 -239 -200 -239q-56 0 -136 38l-57 27q-54 25 -82 25 q-34 0 -62 -25t-61 -84z" />
<glyph unicode="&#xd2;" horiz-adv-x="1482" d="M127 532q0 190 65 374t193 308q207 201 518 201q274 0 409.5 -140.5t135.5 -383.5q0 -192 -55 -377t-174 -317q-98 -109 -234.5 -166.5t-286.5 -57.5q-173 0 -299 59t-199 186t-73 314zM385 545q0 -387 328 -387q199 0 313 159q78 107 117 262.5t39 303.5q0 348 -316 348 q-201 0 -321 -158q-75 -99 -117.5 -246t-42.5 -282zM657 1784q0 40 29.5 68t67.5 28q28 0 51.5 -17.5t66.5 -68.5l213 -260l-63 -64l-281 201q-84 60 -84 113z" />
<glyph unicode="&#xd3;" horiz-adv-x="1482" d="M127 532q0 190 65 374t193 308q207 201 518 201q274 0 409.5 -140.5t135.5 -383.5q0 -192 -55 -377t-174 -317q-98 -109 -234.5 -166.5t-286.5 -57.5q-173 0 -299 59t-199 186t-73 314zM385 545q0 -387 328 -387q199 0 313 159q78 107 117 262.5t39 303.5q0 348 -316 348 q-201 0 -321 -158q-75 -99 -117.5 -246t-42.5 -282zM731 1546l266 230q44 37 69.5 50t51.5 13q37 0 61.5 -26.5t24.5 -67.5q0 -60 -100 -113l-320 -164z" />
<glyph unicode="&#xd4;" horiz-adv-x="1482" d="M127 532q0 190 65 374t193 308q207 201 518 201q274 0 409.5 -140.5t135.5 -383.5q0 -192 -55 -377t-174 -317q-98 -109 -234.5 -166.5t-286.5 -57.5q-173 0 -299 59t-199 186t-73 314zM385 545q0 -387 328 -387q199 0 313 159q78 107 117 262.5t39 303.5q0 348 -316 348 q-201 0 -321 -158q-75 -99 -117.5 -246t-42.5 -282zM604 1532l281 270q50 47 92 47q26 0 43 -11t35 -38l186 -274l-65 -62l-224 193l-290 -193z" />
<glyph unicode="&#xd5;" horiz-adv-x="1482" d="M127 532q0 190 65 374t193 308q207 201 518 201q274 0 409.5 -140.5t135.5 -383.5q0 -192 -55 -377t-174 -317q-98 -109 -234.5 -166.5t-286.5 -57.5q-173 0 -299 59t-199 186t-73 314zM385 545q0 -387 328 -387q199 0 313 159q78 107 117 262.5t39 303.5q0 348 -316 348 q-201 0 -321 -158q-75 -99 -117.5 -246t-42.5 -282zM594 1528q37 100 91 166.5t122 66.5q33 0 113 -32l65 -29q60 -27 92 -27t56 26.5t55 84.5l82 -29q-80 -239 -201 -239q-55 0 -135 38l-57 27q-54 25 -82 25q-34 0 -62 -25t-61 -84z" />
<glyph unicode="&#xd6;" horiz-adv-x="1482" d="M127 532q0 190 65 374t193 308q207 201 518 201q274 0 409.5 -140.5t135.5 -383.5q0 -192 -55 -377t-174 -317q-98 -109 -234.5 -166.5t-286.5 -57.5q-173 0 -299 59t-199 186t-73 314zM385 545q0 -387 328 -387q199 0 313 159q78 107 117 262.5t39 303.5q0 348 -316 348 q-201 0 -321 -158q-75 -99 -117.5 -246t-42.5 -282zM645 1634q0 49 33 85t84 36q47 0 76.5 -29.5t29.5 -74.5q0 -57 -32.5 -93t-87.5 -36q-46 0 -74.5 31t-28.5 81zM1012 1634q0 49 32.5 85t83.5 36q49 0 78 -29.5t29 -74.5q0 -57 -32.5 -93t-86.5 -36q-47 0 -75.5 31 t-28.5 81z" />
<glyph unicode="&#xd7;" horiz-adv-x="1228" d="M209 354l332 295l-224 291l123 111l219 -289l326 291l90 -117l-332 -293l224 -293l-121 -108l-223 290l-330 -292z" />
<glyph unicode="&#xd8;" horiz-adv-x="1482" d="M106 8l130 154q-109 140 -109 370q0 190 65 374t193 308q207 201 518 201q194 0 328 -78l123 146l92 -78l-121 -143q123 -135 123 -371q0 -192 -55 -377t-174 -317q-98 -109 -234.5 -166.5t-286.5 -57.5q-233 0 -376 105l-123 -146zM385 545q0 -96 23 -180l675 798 q-82 70 -217 70q-199 0 -321 -160q-75 -99 -117.5 -246t-42.5 -282zM469 252q82 -94 244 -94q199 0 313 159q78 107 117 262.5t39 303.5q0 97 -29 176z" />
<glyph unicode="&#xd9;" horiz-adv-x="1576" d="M190 1253l27 133q160 -4 303 -4q162 0 326 4l-25 -133q-95 -4 -125 -11.5t-47 -24.5q-19 -19 -39 -107q-53 -240 -96 -473q-31 -162 -31 -240q0 -126 77.5 -183.5t213.5 -57.5q107 0 192.5 30.5t131.5 87.5q34 40 60.5 105.5t40.5 118t36 153.5q8 38 80 443q8 57 8 88 q0 26 -9.5 37.5t-33.5 17.5q-33 9 -141 16l24 133q74 -2 310 -2q21 0 110 1t129 1l-26 -133q-143 -7 -166 -45q-18 -30 -39 -131l-92 -467q-38 -198 -79 -303t-114 -176q-165 -162 -485 -162q-74 0 -140.5 10.5t-130.5 36.5t-110 66t-74.5 103.5t-28.5 144.5q0 107 39 299 q14 66 36.5 173t37.5 180.5t22 115.5q13 73 13 86q0 41 -41 53q-39 12 -144 16zM678 1784q0 40 29 68t67 28q28 0 52 -17.5t67 -68.5l213 -260l-64 -64l-280 201q-84 60 -84 113z" />
<glyph unicode="&#xda;" horiz-adv-x="1576" d="M190 1253l27 133q160 -4 303 -4q162 0 326 4l-25 -133q-95 -4 -125 -11.5t-47 -24.5q-19 -19 -39 -107q-53 -240 -96 -473q-31 -162 -31 -240q0 -126 77.5 -183.5t213.5 -57.5q107 0 192.5 30.5t131.5 87.5q34 40 60.5 105.5t40.5 118t36 153.5q8 38 80 443q8 57 8 88 q0 26 -9.5 37.5t-33.5 17.5q-33 9 -141 16l24 133q74 -2 310 -2q21 0 110 1t129 1l-26 -133q-143 -7 -166 -45q-18 -30 -39 -131l-92 -467q-38 -198 -79 -303t-114 -176q-165 -162 -485 -162q-74 0 -140.5 10.5t-130.5 36.5t-110 66t-74.5 103.5t-28.5 144.5q0 107 39 299 q14 66 36.5 173t37.5 180.5t22 115.5q13 73 13 86q0 41 -41 53q-39 12 -144 16zM819 1546l266 230q44 37 69.5 50t51.5 13q37 0 61.5 -26.5t24.5 -67.5q0 -60 -100 -113l-320 -164z" />
<glyph unicode="&#xdb;" horiz-adv-x="1576" d="M190 1253l27 133q160 -4 303 -4q162 0 326 4l-25 -133q-95 -4 -125 -11.5t-47 -24.5q-19 -19 -39 -107q-53 -240 -96 -473q-31 -162 -31 -240q0 -126 77.5 -183.5t213.5 -57.5q107 0 192.5 30.5t131.5 87.5q34 40 60.5 105.5t40.5 118t36 153.5q8 38 80 443q8 57 8 88 q0 26 -9.5 37.5t-33.5 17.5q-33 9 -141 16l24 133q74 -2 310 -2q21 0 110 1t129 1l-26 -133q-143 -7 -166 -45q-18 -30 -39 -131l-92 -467q-38 -198 -79 -303t-114 -176q-165 -162 -485 -162q-74 0 -140.5 10.5t-130.5 36.5t-110 66t-74.5 103.5t-28.5 144.5q0 107 39 299 q14 66 36.5 173t37.5 180.5t22 115.5q13 73 13 86q0 41 -41 53q-39 12 -144 16zM664 1532l280 270q50 47 92 47q26 0 43 -11t35 -38l186 -274l-65 -62l-223 193l-291 -193z" />
<glyph unicode="&#xdc;" horiz-adv-x="1576" d="M190 1253l27 133q160 -4 303 -4q162 0 326 4l-25 -133q-95 -4 -125 -11.5t-47 -24.5q-19 -19 -39 -107q-53 -240 -96 -473q-31 -162 -31 -240q0 -126 77.5 -183.5t213.5 -57.5q107 0 192.5 30.5t131.5 87.5q34 40 60.5 105.5t40.5 118t36 153.5q8 38 80 443q8 57 8 88 q0 26 -9.5 37.5t-33.5 17.5q-33 9 -141 16l24 133q74 -2 310 -2q21 0 110 1t129 1l-26 -133q-143 -7 -166 -45q-18 -30 -39 -131l-92 -467q-38 -198 -79 -303t-114 -176q-165 -162 -485 -162q-74 0 -140.5 10.5t-130.5 36.5t-110 66t-74.5 103.5t-28.5 144.5q0 107 39 299 q14 66 36.5 173t37.5 180.5t22 115.5q13 73 13 86q0 41 -41 53q-39 12 -144 16zM684 1634q0 49 33 85t84 36q47 0 76.5 -29.5t29.5 -74.5q0 -56 -33 -92.5t-88 -36.5q-46 0 -74 31t-28 81zM1051 1634q0 49 32.5 85t83.5 36q49 0 78 -29.5t29 -74.5q0 -57 -32.5 -93 t-86.5 -36q-47 0 -75.5 31t-28.5 81z" />
<glyph unicode="&#xdd;" horiz-adv-x="1325" d="M154 1253l26 133q226 -4 281 -4q83 0 301 4l-29 -133q-89 -3 -123 -14q-39 -12 -39 -51q0 -31 23 -92q131 -341 145 -379q88 117 301 387q54 68 54 102q0 30 -36.5 38.5t-101.5 8.5l27 133q94 -4 313 -4q105 0 193 4l-27 -133q-57 -3 -100 -30q-8 -5 -18 -15t-24 -26 t-26.5 -30.5t-34 -40.5t-36.5 -44l-426 -512l-54 -270q-12 -59 -12 -88q0 -11 3 -19t9.5 -14t13 -10.5t18.5 -7.5t22 -5t26 -3.5t27 -2t30 -1t31 -1.5l-24 -135q-218 4 -312 4q-117 0 -313 -4l27 135q95 4 126.5 12t45.5 25q17 17 35 104l55 279l-219 539q-20 49 -29 69.5 t-21.5 39.5t-25.5 28q-30 21 -102 24zM700 1546l267 230q44 37 69 50t51 13q37 0 62 -26.5t25 -67.5q0 -59 -101 -113l-319 -164z" />
<glyph unicode="&#xde;" horiz-adv-x="1251" d="M-20 -2l26 137q60 3 95 8t47 10t24 15q12 9 19.5 34t21.5 97l156 799q14 82 14 94q0 22 -13 33t-40 16q-44 7 -121 10l24 135q189 -6 306 -6q47 0 311 6l-27 -135q-93 -4 -127 -10.5t-47 -19.5q-16 -14 -28 -78l-7 -33q278 0 373 -18q127 -24 190.5 -105t63.5 -194 q0 -127 -46.5 -222.5t-131.5 -152.5t-195.5 -85t-246.5 -28q-115 0 -162 2l-6 -35q-11 -61 -11 -69q0 -24 10 -37t37 -19q41 -9 156 -12l-27 -137q-172 4 -339 4q-119 0 -299 -4zM489 467q33 -2 113 -2q60 0 109 6t101.5 24t87.5 48.5t58 83.5t23 125q0 48 -15.5 82t-41 55 t-67 33t-85 16t-102.5 4h-86z" />
<glyph unicode="&#xdf;" horiz-adv-x="1273" d="M-303 -434q0 67 31 176h120q0 -42 2.5 -64.5t12 -41.5t29 -26t51.5 -7q33 0 64.5 17.5t51.5 47.5q44 62 72 228l152 868h-172l24 125q93 16 133 41q23 13 35.5 37.5t26.5 81.5q27 108 64 184t74.5 117t88.5 73q116 74 295 74q89 0 158 -21t110 -58t61.5 -84t20.5 -103 q0 -36 -7 -68t-22 -60.5t-31.5 -52t-43.5 -49t-49.5 -44.5t-57.5 -46q-57 -44 -82.5 -70.5t-25.5 -49.5q0 -27 26 -60q25 -33 135 -143q138 -144 138 -271q0 -109 -57.5 -188.5t-152 -118.5t-214.5 -39q-154 0 -223 49q-48 32 -48 101q0 70 33 178h107q3 -85 42.5 -121.5 t125.5 -36.5q75 0 117 33.5t42 87.5q0 71 -106 180q-63 65 -127 138q-57 60 -57 137q0 62 32 113.5t107 115.5q51 43 77 67t55 56t40.5 60.5t11.5 58.5q0 135 -162 135q-116 0 -178 -74q-62 -72 -92 -243l-201 -1088q-28 -147 -67 -236t-101 -145q-112 -100 -282 -100 q-84 0 -152 33q-55 25 -55 96z" />
<glyph unicode="&#xe0;" horiz-adv-x="1193" d="M72 299q0 127 58 268.5t155 235.5q157 151 409 151q47 0 105 -11.5t96 -33.5l39 70h172l-129 -522q-41 -165 -41 -240q0 -33 16 -49t56 -16q62 0 120 18l-30 -135q-122 -53 -238 -53q-81 0 -113 40t-32 123q-141 -170 -334 -170q-155 0 -232 85.5t-77 238.5zM311 330 q0 -172 154 -172q125 0 248 123q7 62 37 180l75 278q-65 39 -155 39q-121 0 -209 -82q-64 -58 -107 -163.5t-43 -202.5zM485 1419q0 39 31 65.5t68 26.5q31 0 54.5 -19.5t57.5 -78.5l176 -297l-73 -53l-244 244q-39 39 -54.5 62.5t-15.5 49.5z" />
<glyph unicode="&#xe1;" horiz-adv-x="1193" d="M72 299q0 127 58 268.5t155 235.5q157 151 409 151q47 0 105 -11.5t96 -33.5l39 70h172l-129 -522q-41 -165 -41 -240q0 -33 16 -49t56 -16q62 0 120 18l-30 -135q-122 -53 -238 -53q-81 0 -113 40t-32 123q-141 -170 -334 -170q-155 0 -232 85.5t-77 238.5zM311 330 q0 -172 154 -172q125 0 248 123q7 62 37 180l75 278q-65 39 -155 39q-121 0 -209 -82q-64 -58 -107 -163.5t-43 -202.5zM602 1128l219 273q38 45 64 63.5t51 18.5q37 0 65.5 -26.5t28.5 -65.5q0 -30 -20.5 -56t-67.5 -61l-276 -211z" />
<glyph unicode="&#xe2;" horiz-adv-x="1193" d="M72 299q0 127 58 268.5t155 235.5q157 151 409 151q47 0 105 -11.5t96 -33.5l39 70h172l-129 -522q-41 -165 -41 -240q0 -33 16 -49t56 -16q62 0 120 18l-30 -135q-122 -53 -238 -53q-81 0 -113 40t-32 123q-141 -170 -334 -170q-155 0 -232 85.5t-77 238.5zM311 330 q0 -172 154 -172q125 0 248 123q7 62 37 180l75 278q-65 39 -155 39q-121 0 -209 -82q-64 -58 -107 -163.5t-43 -202.5zM444 1104l265 307q41 49 90 49q58 0 80 -45l151 -328l-80 -47l-176 224l-264 -224z" />
<glyph unicode="&#xe3;" horiz-adv-x="1193" d="M72 299q0 127 58 268.5t155 235.5q157 151 409 151q47 0 105 -11.5t96 -33.5l39 70h172l-129 -522q-41 -165 -41 -240q0 -33 16 -49t56 -16q62 0 120 18l-30 -135q-122 -53 -238 -53q-81 0 -113 40t-32 123q-141 -170 -334 -170q-155 0 -232 85.5t-77 238.5zM311 330 q0 -172 154 -172q125 0 248 123q7 62 37 180l75 278q-65 39 -155 39q-121 0 -209 -82q-64 -58 -107 -163.5t-43 -202.5zM455 1130q75 238 194 238q49 0 117 -31l51 -24q60 -29 90 -29q27 0 50.5 25.5t52.5 81.5l82 -25q-30 -115 -76.5 -178.5t-104.5 -63.5q-54 0 -133 39 l-47 21q-61 22 -86 22q-33 0 -55.5 -22t-52.5 -80z" />
<glyph unicode="&#xe4;" horiz-adv-x="1193" d="M72 299q0 127 58 268.5t155 235.5q157 151 409 151q47 0 105 -11.5t96 -33.5l39 70h172l-129 -522q-41 -165 -41 -240q0 -33 16 -49t56 -16q62 0 120 18l-30 -135q-122 -53 -238 -53q-81 0 -113 40t-32 123q-141 -170 -334 -170q-155 0 -232 85.5t-77 238.5zM311 330 q0 -172 154 -172q125 0 248 123q7 62 37 180l75 278q-65 39 -155 39q-121 0 -209 -82q-64 -58 -107 -163.5t-43 -202.5zM518 1262q0 49 33 85.5t84 36.5q47 0 76.5 -30.5t29.5 -75.5q0 -57 -32.5 -93t-87.5 -36q-46 0 -74.5 31t-28.5 82zM850 1262q0 49 33.5 85.5t83.5 36.5 q48 0 77 -30t29 -76q0 -56 -33 -92.5t-86 -36.5q-47 0 -75.5 31t-28.5 82z" />
<glyph unicode="&#xe5;" horiz-adv-x="1193" d="M72 299q0 127 58 268.5t155 235.5q157 151 409 151q47 0 105 -11.5t96 -33.5l39 70h172l-129 -522q-41 -165 -41 -240q0 -33 16 -49t56 -16q62 0 120 18l-30 -135q-122 -53 -238 -53q-81 0 -113 40t-32 123q-141 -170 -334 -170q-155 0 -232 85.5t-77 238.5zM311 330 q0 -172 154 -172q125 0 248 123q7 62 37 180l75 278q-65 39 -155 39q-121 0 -209 -82q-64 -58 -107 -163.5t-43 -202.5zM582 1243q0 88 61 147.5t148 59.5q79 0 128.5 -47.5t49.5 -126.5q0 -88 -58 -148.5t-149 -60.5q-77 0 -128.5 47.5t-51.5 128.5zM674 1251 q0 -46 25.5 -73t68.5 -27q47 0 78 33t31 90q0 44 -27.5 70t-67.5 26q-46 0 -77 -32.5t-31 -86.5z" />
<glyph unicode="&#xe6;" horiz-adv-x="1632" d="M72 299q0 127 58 268.5t155 235.5q157 151 409 151q49 0 105 -11t88 -32l41 82h151l-30 -129q48 51 121 77t135 26q142 0 216 -67.5t74 -170.5q0 -108 -57 -178t-197 -110.5t-368 -41.5q-4 -16 -4 -53q0 -81 56 -134.5t157 -53.5q144 0 325 102l68 -129 q-209 -160 -471 -160q-118 0 -208 53t-122 158q-175 -207 -395 -207q-156 0 -231.5 85t-75.5 239zM311 326q0 -81 38.5 -124.5t113.5 -43.5q70 0 147 46.5t142 123.5q7 113 75 411q-73 39 -159 39q-119 0 -207 -82q-64 -58 -107 -164.5t-43 -205.5zM993 555q393 5 393 156 q0 45 -24.5 66.5t-91.5 21.5q-40 0 -86 -15t-76 -43q-93 -81 -115 -186z" />
<glyph unicode="&#xe7;" horiz-adv-x="968" d="M74 350q0 146 53 279.5t160 218.5q148 119 350 119q107 0 180 -25q52 -19 72 -45t20 -76q0 -80 -32 -198h-132q-3 110 -34 137q-39 31 -103 31q-93 0 -163.5 -62.5t-104 -152.5t-33.5 -187q0 -118 51 -174.5t154 -56.5q140 0 297 94l68 -129q-171 -135 -377 -150 q-25 -45 -25 -67q0 -28 29 -43q61 -34 85.5 -69.5t24.5 -84.5q0 -62 -36 -113t-95.5 -83.5t-127.5 -52t-142 -27.5l-6 100q118 25 176.5 57t58.5 91q0 57 -71 102q-31 19 -31 53q0 41 55 139q-151 15 -236 114t-85 261z" />
<glyph unicode="&#xe8;" horiz-adv-x="966" d="M74 344q0 177 67.5 318.5t193 223t288.5 81.5q155 0 231 -67t76 -171q0 -78 -32 -136.5t-103 -102.5t-192.5 -67t-293.5 -24q-4 -16 -4 -47q0 -84 51.5 -139t159.5 -55q77 0 151 23.5t175 80.5l67 -131q-217 -160 -469 -160q-161 0 -263.5 96.5t-102.5 276.5zM328 555 q393 5 393 158q0 46 -26.5 66t-86.5 20q-97 0 -173.5 -65t-106.5 -179zM336 1419q0 39 30.5 65.5t67.5 26.5q31 0 55 -19.5t58 -78.5l176 -297l-74 -53l-243 244q-39 39 -54.5 62.5t-15.5 49.5z" />
<glyph unicode="&#xe9;" horiz-adv-x="966" d="M74 344q0 177 67.5 318.5t193 223t288.5 81.5q155 0 231 -67t76 -171q0 -78 -32 -136.5t-103 -102.5t-192.5 -67t-293.5 -24q-4 -16 -4 -47q0 -84 51.5 -139t159.5 -55q77 0 151 23.5t175 80.5l67 -131q-217 -160 -469 -160q-161 0 -263.5 96.5t-102.5 276.5zM328 555 q393 5 393 158q0 46 -26.5 66t-86.5 20q-97 0 -173.5 -65t-106.5 -179zM479 1128l219 273q38 45 64 63.5t51 18.5q37 0 65.5 -26.5t28.5 -65.5q0 -30 -20.5 -56t-67.5 -61l-276 -211z" />
<glyph unicode="&#xea;" horiz-adv-x="966" d="M74 344q0 177 67.5 318.5t193 223t288.5 81.5q155 0 231 -67t76 -171q0 -78 -32 -136.5t-103 -102.5t-192.5 -67t-293.5 -24q-4 -16 -4 -47q0 -84 51.5 -139t159.5 -55q77 0 151 23.5t175 80.5l67 -131q-217 -160 -469 -160q-161 0 -263.5 96.5t-102.5 276.5zM328 555 q393 5 393 158q0 46 -26.5 66t-86.5 20q-97 0 -173.5 -65t-106.5 -179zM340 1104l264 307q41 49 90 49q58 0 80 -45l152 -328l-80 -47l-176 224l-264 -224z" />
<glyph unicode="&#xeb;" horiz-adv-x="966" d="M74 344q0 177 67.5 318.5t193 223t288.5 81.5q155 0 231 -67t76 -171q0 -78 -32 -136.5t-103 -102.5t-192.5 -67t-293.5 -24q-4 -16 -4 -47q0 -84 51.5 -139t159.5 -55q77 0 151 23.5t175 80.5l67 -131q-217 -160 -469 -160q-161 0 -263.5 96.5t-102.5 276.5zM328 555 q393 5 393 158q0 46 -26.5 66t-86.5 20q-97 0 -173.5 -65t-106.5 -179zM401 1262q0 49 33 85.5t84 36.5q47 0 77 -30.5t30 -75.5q0 -56 -33 -92.5t-88 -36.5q-46 0 -74.5 31t-28.5 82zM733 1262q0 49 33.5 85.5t83.5 36.5q48 0 77 -30t29 -76q0 -56 -32.5 -92.5t-85.5 -36.5 q-47 0 -76 31t-29 82z" />
<glyph unicode="&#xec;" horiz-adv-x="641" d="M88 764l27 123q139 71 243 71q72 0 107 -31.5t35 -103.5q0 -55 -47 -243l-50 -191q-32 -122 -32 -172q0 -35 16.5 -50t54.5 -15q56 0 123 18l-30 -135q-119 -53 -252 -53q-158 0 -158 129q0 54 29 176l57 237q4 18 13 54.5t13 54t7.5 39t3.5 33.5q0 36 -17 50.5t-55 14.5 q-51 0 -88 -6zM100 1419q0 39 31 65.5t68 26.5q31 0 54.5 -19.5t57.5 -78.5l176 -297l-73 -53l-244 244q-39 39 -54.5 62.5t-15.5 49.5z" />
<glyph unicode="&#xed;" horiz-adv-x="641" d="M88 764l27 123q139 71 243 71q72 0 107 -31.5t35 -103.5q0 -55 -47 -243l-50 -191q-32 -122 -32 -172q0 -35 16.5 -50t54.5 -15q56 0 123 18l-30 -135q-119 -53 -252 -53q-158 0 -158 129q0 54 29 176l57 237q4 18 13 54.5t13 54t7.5 39t3.5 33.5q0 36 -17 50.5t-55 14.5 q-51 0 -88 -6zM231 1128l220 273q38 45 63.5 63.5t50.5 18.5q37 0 65.5 -26.5t28.5 -65.5q0 -30 -20.5 -56t-67.5 -61l-276 -211z" />
<glyph unicode="&#xee;" horiz-adv-x="641" d="M86 1104l264 307q41 49 90 49q58 0 80 -45l152 -328l-80 -47l-176 224l-264 -224zM88 764l27 123q139 71 243 71q72 0 107 -31.5t35 -103.5q0 -55 -47 -243l-50 -191q-32 -122 -32 -172q0 -35 16.5 -50t54.5 -15q56 0 123 18l-30 -135q-119 -53 -252 -53q-158 0 -158 129 q0 54 29 176l57 237q4 18 13 54.5t13 54t7.5 39t3.5 33.5q0 36 -17 50.5t-55 14.5q-51 0 -88 -6z" />
<glyph unicode="&#xef;" horiz-adv-x="641" d="M88 764l27 123q139 71 243 71q72 0 107 -31.5t35 -103.5q0 -55 -47 -243l-50 -191q-32 -122 -32 -172q0 -35 16.5 -50t54.5 -15q56 0 123 18l-30 -135q-119 -53 -252 -53q-158 0 -158 129q0 54 29 176l57 237q4 18 13 54.5t13 54t7.5 39t3.5 33.5q0 36 -17 50.5t-55 14.5 q-51 0 -88 -6zM121 1262q0 49 33 85.5t84 36.5q47 0 76.5 -30.5t29.5 -75.5q0 -56 -33 -92.5t-88 -36.5q-46 0 -74 31t-28 82zM453 1262q0 49 33 85.5t83 36.5q48 0 77.5 -30.5t29.5 -75.5q0 -56 -33 -92.5t-86 -36.5q-47 0 -75.5 31t-28.5 82z" />
<glyph unicode="&#xf0;" horiz-adv-x="1095" d="M74 358q0 251 141 418q60 70 153.5 111t202.5 41q123 0 193 -64q-11 59 -38.5 127.5t-61.5 112.5l-234 -129l-53 92l225 127q-90 118 -248 199l78 118q207 -83 334 -213l182 101l53 -96l-163 -91q97 -125 141.5 -263.5t44.5 -311.5q0 -332 -160 -510 q-66 -75 -167.5 -115.5t-211.5 -40.5q-187 0 -299 96.5t-112 290.5zM307 375q0 -223 203 -223q127 0 195 100q86 125 86 313q0 203 -197 203q-74 0 -130.5 -33.5t-90 -91t-50 -125.5t-16.5 -143z" />
<glyph unicode="&#xf1;" horiz-adv-x="1196" d="M84 764l27 123q59 31 130 51t124 20q116 0 116 -114q0 -44 -6 -68q72 83 173.5 135t199.5 52q199 0 199 -187q0 -77 -25 -180l-51 -205q-31 -118 -31 -174q0 -35 16.5 -50t53.5 -15q60 0 123 18l-31 -135q-116 -53 -252 -53q-154 0 -154 127q0 70 27 178l63 266 q17 80 17 121q0 47 -24 66.5t-70 19.5q-120 0 -246 -113q-8 -63 -33 -170l-113 -477h-219l105 479q39 176 39 219q0 40 -19.5 57t-60.5 17q-38 0 -78 -8zM379 1130q75 238 194 238q49 0 117 -31l51 -24q60 -29 90 -29q27 0 50.5 25.5t52.5 81.5l82 -25q-30 -116 -76 -179 t-104 -63q-55 0 -134 39l-47 21q-61 22 -86 22q-33 0 -55.5 -22t-52.5 -80z" />
<glyph unicode="&#xf2;" horiz-adv-x="1093" d="M70 358q0 121 36.5 240t114.5 207q143 162 391 162q186 0 298 -92.5t112 -272.5q0 -128 -39.5 -255t-120.5 -218q-68 -75 -170 -116.5t-211 -41.5q-187 0 -299 96.5t-112 290.5zM303 375q0 -225 203 -225q124 0 194 102q42 61 64 153.5t22 180.5q0 205 -196 205 q-127 0 -199 -95q-44 -60 -66 -147t-22 -174zM383 1419q0 39 30.5 65.5t67.5 26.5q31 0 55 -19.5t58 -78.5l176 -297l-74 -53l-243 244q-39 39 -54.5 62.5t-15.5 49.5z" />
<glyph unicode="&#xf3;" horiz-adv-x="1093" d="M70 358q0 121 36.5 240t114.5 207q143 162 391 162q186 0 298 -92.5t112 -272.5q0 -128 -39.5 -255t-120.5 -218q-68 -75 -170 -116.5t-211 -41.5q-187 0 -299 96.5t-112 290.5zM303 375q0 -225 203 -225q124 0 194 102q42 61 64 153.5t22 180.5q0 205 -196 205 q-127 0 -199 -95q-44 -60 -66 -147t-22 -174zM498 1128l219 273q38 45 63.5 63.5t50.5 18.5q37 0 66 -26.5t29 -65.5q0 -30 -20.5 -56t-67.5 -61l-277 -211z" />
<glyph unicode="&#xf4;" horiz-adv-x="1093" d="M70 358q0 121 36.5 240t114.5 207q143 162 391 162q186 0 298 -92.5t112 -272.5q0 -128 -39.5 -255t-120.5 -218q-68 -75 -170 -116.5t-211 -41.5q-187 0 -299 96.5t-112 290.5zM303 375q0 -225 203 -225q124 0 194 102q42 61 64 153.5t22 180.5q0 205 -196 205 q-127 0 -199 -95q-44 -60 -66 -147t-22 -174zM358 1104l265 307q41 49 90 49q58 0 80 -45l151 -328l-80 -47l-176 224l-264 -224z" />
<glyph unicode="&#xf5;" horiz-adv-x="1093" d="M70 358q0 121 36.5 240t114.5 207q143 162 391 162q186 0 298 -92.5t112 -272.5q0 -128 -39.5 -255t-120.5 -218q-68 -75 -170 -116.5t-211 -41.5q-187 0 -299 96.5t-112 290.5zM303 375q0 -225 203 -225q124 0 194 102q42 61 64 153.5t22 180.5q0 205 -196 205 q-127 0 -199 -95q-44 -60 -66 -147t-22 -174zM338 1130q75 238 194 238q49 0 117 -31l51 -24q60 -29 91 -29q27 0 50 25t52 82l82 -25q-30 -116 -76 -179t-104 -63q-54 0 -133 39l-48 21q-61 22 -86 22q-33 0 -55.5 -22t-52.5 -80z" />
<glyph unicode="&#xf6;" horiz-adv-x="1093" d="M70 358q0 121 36.5 240t114.5 207q143 162 391 162q186 0 298 -92.5t112 -272.5q0 -128 -39.5 -255t-120.5 -218q-68 -75 -170 -116.5t-211 -41.5q-187 0 -299 96.5t-112 290.5zM303 375q0 -225 203 -225q124 0 194 102q42 61 64 153.5t22 180.5q0 205 -196 205 q-127 0 -199 -95q-44 -60 -66 -147t-22 -174zM406 1262q0 49 32.5 85.5t83.5 36.5q47 0 77 -30.5t30 -75.5q0 -56 -33 -92.5t-88 -36.5q-46 0 -74 31t-28 82zM737 1262q0 49 33.5 85.5t83.5 36.5q48 0 77.5 -30.5t29.5 -75.5q0 -56 -33 -92.5t-86 -36.5q-47 0 -76 31t-29 82 z" />
<glyph unicode="&#xf7;" horiz-adv-x="1204" d="M162 559l35 164h907l-33 -164h-909zM449 299q2 59 36 97t86 38q45 0 70 -29.5t25 -82.5t-35 -90t-86 -37q-43 0 -69.5 29.5t-26.5 74.5zM598 952q0 56 36.5 94.5t88.5 38.5q46 0 70 -30t24 -82q0 -53 -37 -89t-88 -36q-42 0 -68 29t-26 75z" />
<glyph unicode="&#xf8;" horiz-adv-x="1093" d="M43 -8l102 119q-71 96 -71 249q0 120 36.5 238.5t114.5 206.5q143 162 391 162q132 0 230 -49l102 118l82 -75l-94 -109q90 -93 90 -250q0 -128 -40 -256t-122 -219q-66 -73 -169.5 -113.5t-209.5 -40.5q-157 0 -260 66l-100 -117zM307 377q0 -39 6 -74l398 461 q-47 27 -117 27q-127 0 -199 -95q-43 -60 -65.5 -147t-22.5 -172zM367 199q50 -47 143 -47q125 0 195 100q42 63 64 154.5t22 179.5q0 45 -13 86z" />
<glyph unicode="&#xf9;" horiz-adv-x="1212" d="M90 762l27 123q61 32 134.5 51.5t119.5 19.5q71 0 103 -27t32 -89q0 -53 -33 -189l-65 -266q-19 -86 -19 -119q0 -88 96 -88q116 0 246 113q5 36 33 170l110 477h222l-105 -477q-3 -14 -12.5 -58.5t-15 -72.5t-10.5 -61.5t-5 -51.5q0 -37 17 -53.5t55 -16.5q48 0 121 19 l-31 -133q-130 -56 -242 -56q-54 0 -92.5 26t-46.5 81q-2 18 -2 63q-71 -81 -169.5 -126.5t-199.5 -45.5q-99 0 -155 49t-56 140q0 74 25 180l53 209q23 100 23 149q0 38 -18 53t-58 15q-32 0 -82 -8zM403 1419q0 39 31 65.5t68 26.5q31 0 54.5 -19.5t57.5 -78.5l177 -297 l-74 -53l-244 244q-39 39 -54.5 62.5t-15.5 49.5z" />
<glyph unicode="&#xfa;" horiz-adv-x="1212" d="M90 762l27 123q61 32 134.5 51.5t119.5 19.5q71 0 103 -27t32 -89q0 -53 -33 -189l-65 -266q-19 -86 -19 -119q0 -88 96 -88q116 0 246 113q5 36 33 170l110 477h222l-105 -477q-3 -14 -12.5 -58.5t-15 -72.5t-10.5 -61.5t-5 -51.5q0 -37 17 -53.5t55 -16.5q48 0 121 19 l-31 -133q-130 -56 -242 -56q-54 0 -92.5 26t-46.5 81q-2 18 -2 63q-71 -81 -169.5 -126.5t-199.5 -45.5q-99 0 -155 49t-56 140q0 74 25 180l53 209q23 100 23 149q0 38 -18 53t-58 15q-32 0 -82 -8zM543 1128l219 273q38 45 64 63.5t51 18.5q37 0 65.5 -26.5t28.5 -65.5 q0 -30 -20.5 -56t-67.5 -61l-277 -211z" />
<glyph unicode="&#xfb;" horiz-adv-x="1212" d="M90 762l27 123q61 32 134.5 51.5t119.5 19.5q71 0 103 -27t32 -89q0 -53 -33 -189l-65 -266q-19 -86 -19 -119q0 -88 96 -88q116 0 246 113q5 36 33 170l110 477h222l-105 -477q-3 -14 -12.5 -58.5t-15 -72.5t-10.5 -61.5t-5 -51.5q0 -37 17 -53.5t55 -16.5q48 0 121 19 l-31 -133q-130 -56 -242 -56q-54 0 -92.5 26t-46.5 81q-2 18 -2 63q-71 -81 -169.5 -126.5t-199.5 -45.5q-99 0 -155 49t-56 140q0 74 25 180l53 209q23 100 23 149q0 38 -18 53t-58 15q-32 0 -82 -8zM397 1104l265 307q41 49 90 49q57 0 79 -45l152 -328l-80 -47l-176 224 l-264 -224z" />
<glyph unicode="&#xfc;" horiz-adv-x="1212" d="M90 762l27 123q61 32 134.5 51.5t119.5 19.5q71 0 103 -27t32 -89q0 -53 -33 -189l-65 -266q-19 -86 -19 -119q0 -88 96 -88q116 0 246 113q5 36 33 170l110 477h222l-105 -477q-3 -14 -12.5 -58.5t-15 -72.5t-10.5 -61.5t-5 -51.5q0 -37 17 -53.5t55 -16.5q48 0 121 19 l-31 -133q-130 -56 -242 -56q-54 0 -92.5 26t-46.5 81q-2 18 -2 63q-71 -81 -169.5 -126.5t-199.5 -45.5q-99 0 -155 49t-56 140q0 74 25 180l53 209q23 100 23 149q0 38 -18 53t-58 15q-32 0 -82 -8zM430 1262q0 49 33 85.5t84 36.5q47 0 76.5 -30.5t29.5 -75.5 q0 -56 -33 -92.5t-88 -36.5q-46 0 -74 31t-28 82zM762 1262q0 49 33.5 85.5t83.5 36.5q48 0 77 -30t29 -76q0 -56 -33 -92.5t-86 -36.5q-47 0 -75.5 31t-28.5 82z" />
<glyph unicode="&#xfd;" horiz-adv-x="1202" d="M59 -416q0 85 29 199h129q0 -41 2 -59q2 -42 27 -70q41 -41 133 -41q59 0 109.5 21t78.5 61q58 82 105 268q6 25 20.5 91t20.5 87q-163 -166 -359 -166q-100 0 -152 48.5t-52 140.5q0 60 26 180l49 209q23 100 23 149q0 38 -18 53t-58 15q-32 0 -82 -8l27 123 q61 32 134.5 51.5t119.5 19.5q71 0 103 -27t32 -89q0 -33 -33 -189l-61 -266q-19 -86 -19 -119q0 -48 21 -68t67 -20q115 0 252 123l139 637h224q-28 -134 -183 -928q-33 -170 -77 -272.5t-105 -163.5q-130 -133 -383 -133q-160 0 -233 49q-53 35 -56 94zM541 1128l219 273 q38 45 63.5 63.5t50.5 18.5q37 0 66 -26.5t29 -65.5q0 -30 -20.5 -56t-67.5 -61l-277 -211z" />
<glyph unicode="&#xfe;" horiz-adv-x="1179" d="M-27 -535l351 1600q26 115 26 182q0 36 -18 51t-58 15q-34 0 -84 -10l27 124q152 70 279 70q116 0 116 -111q0 -25 -20 -131q-67 -296 -109 -456q65 70 160 118t193 48q268 0 268 -297q0 -141 -44 -276.5t-136 -237.5q-153 -172 -432 -172q-100 0 -183 18l-114 -535h-222 zM356 193q73 -27 170 -27q154 0 242 125q42 59 65 145.5t23 159.5q0 86 -35 128t-116 42q-58 0 -123.5 -33.5t-122.5 -85.5z" />
<glyph unicode="&#xff;" horiz-adv-x="1202" d="M59 -416q0 85 29 199h129q0 -41 2 -59q2 -42 27 -70q41 -41 133 -41q59 0 109.5 21t78.5 61q58 82 105 268q6 25 20.5 91t20.5 87q-163 -166 -359 -166q-100 0 -152 48.5t-52 140.5q0 60 26 180l49 209q23 100 23 149q0 38 -18 53t-58 15q-32 0 -82 -8l27 123 q61 32 134.5 51.5t119.5 19.5q71 0 103 -27t32 -89q0 -33 -33 -189l-61 -266q-19 -86 -19 -119q0 -48 21 -68t67 -20q115 0 252 123l139 637h224q-28 -134 -183 -928q-33 -170 -77 -272.5t-105 -163.5q-130 -133 -383 -133q-160 0 -233 49q-53 35 -56 94zM440 1262 q0 49 33 85.5t84 36.5q47 0 77 -30.5t30 -75.5q0 -56 -33 -92.5t-88 -36.5q-46 0 -74.5 31t-28.5 82zM772 1262q0 49 33.5 85.5t83.5 36.5q48 0 77 -30t29 -76q0 -56 -32.5 -92.5t-85.5 -36.5q-47 0 -76 31t-29 82z" />
<glyph unicode="&#x100;" horiz-adv-x="1503" d="M-74 -2l27 137q93 5 137 37q24 19 47.5 51.5t75.5 122.5l555 950q38 65 78.5 94t99.5 29q116 0 133 -114l162 -1002q10 -61 22 -90.5t33 -50.5q24 -24 129 -27l-26 -137q-164 4 -281 4q-154 0 -338 -4l27 137q75 3 125 15q34 7 47.5 24.5t13.5 50.5q0 45 -8 97l-20 141 h-467l-78 -129q-58 -97 -58 -133q0 -29 23 -43q32 -17 164 -23l-27 -137q-160 4 -358 4q-78 0 -238 -4zM582 639h356q-46 294 -72 508q-102 -190 -284 -508zM653 1542l31 148h569l-28 -148h-572z" />
<glyph unicode="&#x101;" horiz-adv-x="1193" d="M72 299q0 127 58 268.5t155 235.5q157 151 409 151q47 0 105 -11.5t96 -33.5l39 70h172l-129 -522q-41 -165 -41 -240q0 -33 16 -49t56 -16q62 0 120 18l-30 -135q-122 -53 -238 -53q-81 0 -113 40t-32 123q-141 -170 -334 -170q-155 0 -232 85.5t-77 238.5zM311 330 q0 -172 154 -172q125 0 248 123q7 62 37 180l75 278q-65 39 -155 39q-121 0 -209 -82q-64 -58 -107 -163.5t-43 -202.5zM512 1133l29 147h528l-29 -147h-528z" />
<glyph unicode="&#x102;" horiz-adv-x="1503" d="M-74 -2l27 137q93 5 137 37q24 19 47.5 51.5t75.5 122.5l555 950q38 65 78.5 94t99.5 29q116 0 133 -114l162 -1002q10 -61 22 -90.5t33 -50.5q24 -24 129 -27l-26 -137q-164 4 -281 4q-154 0 -338 -4l27 137q75 3 125 15q34 7 47.5 24.5t13.5 50.5q0 45 -8 97l-20 141 h-467l-78 -129q-58 -97 -58 -133q0 -29 23 -43q32 -17 164 -23l-27 -137q-160 4 -358 4q-78 0 -238 -4zM582 639h356q-46 294 -72 508q-102 -190 -284 -508zM678 1741q0 19 4 65l86 6q2 -80 50 -126t140 -46q182 0 236 172l86 -4q-20 -152 -112 -234.5t-230 -82.5 q-123 0 -191.5 60.5t-68.5 189.5z" />
<glyph unicode="&#x103;" horiz-adv-x="1193" d="M72 299q0 127 58 268.5t155 235.5q157 151 409 151q47 0 105 -11.5t96 -33.5l39 70h172l-129 -522q-41 -165 -41 -240q0 -33 16 -49t56 -16q62 0 120 18l-30 -135q-122 -53 -238 -53q-81 0 -113 40t-32 123q-141 -170 -334 -170q-155 0 -232 85.5t-77 238.5zM311 330 q0 -172 154 -172q125 0 248 123q7 62 37 180l75 278q-65 39 -155 39q-121 0 -209 -82q-64 -58 -107 -163.5t-43 -202.5zM479 1321q0 22 4 72l86 8q2 -82 42.5 -127t121.5 -45q161 0 217 172l86 -6q-20 -155 -101.5 -236.5t-211.5 -81.5q-244 0 -244 244z" />
<glyph unicode="&#x104;" horiz-adv-x="1503" d="M-74 -2l27 137q93 5 137 37q24 19 47.5 51.5t75.5 122.5l555 950q38 65 78.5 94t99.5 29q116 0 133 -114l162 -1002q10 -61 22 -90.5t33 -50.5q24 -24 129 -27l-26 -137l-209 4q-207 -198 -207 -338q0 -48 27.5 -79t79.5 -31q64 0 141 30l33 -80q-45 -33 -110 -57.5 t-128 -24.5q-101 0 -153 56t-52 139q0 181 254 385l-295 -4l27 137q75 3 125 15q34 7 47.5 24.5t13.5 50.5q0 45 -8 97l-20 141h-467l-78 -129q-58 -97 -58 -133q0 -29 23 -43q32 -17 164 -23l-27 -137q-160 4 -358 4q-78 0 -238 -4zM582 639h356q-46 294 -72 508 q-102 -190 -284 -508z" />
<glyph unicode="&#x105;" horiz-adv-x="1193" d="M72 299q0 127 58 268.5t155 235.5q157 151 409 151q47 0 105 -11.5t96 -33.5l39 70h172l-129 -522q-41 -165 -41 -240q0 -33 16 -49t56 -16q62 0 120 18l-30 -135q-102 -45 -217 -53q-197 -181 -197 -312q0 -43 27 -71.5t75 -28.5q67 0 138 31l28 -78q-112 -78 -229 -78 q-96 0 -146.5 51.5t-50.5 128.5q0 95 66 185.5t192 185.5q-40 16 -54.5 51.5t-14.5 97.5q-141 -170 -334 -170q-155 0 -232 85.5t-77 238.5zM311 330q0 -172 154 -172q125 0 248 123q7 62 37 180l75 278q-65 39 -155 39q-121 0 -209 -82q-64 -58 -107 -163.5t-43 -202.5z " />
<glyph unicode="&#x106;" horiz-adv-x="1378" d="M125 549q0 187 66 357t198 298q226 213 592 213q200 0 315 -53q80 -37 80 -121q0 -72 -35 -250h-139q0 126 -37 176q-50 62 -223 62q-122 0 -228 -48t-179 -143q-72 -93 -111 -218.5t-39 -248.5q0 -108 30.5 -189.5t84.5 -130t123 -72t151 -23.5q176 0 256 65 q52 42 111 168h139q-35 -193 -74 -260q-45 -76 -145 -111q-134 -49 -334 -49q-282 0 -442 155t-160 423zM748 1546l266 230q44 37 69.5 50t51.5 13q37 0 61.5 -26.5t24.5 -67.5q0 -59 -101 -113l-319 -164z" />
<glyph unicode="&#x107;" horiz-adv-x="968" d="M74 350q0 146 53 279.5t160 218.5q148 119 350 119q107 0 180 -25q52 -19 72 -45t20 -76q0 -80 -32 -198h-132q-3 110 -34 137q-39 31 -103 31q-93 0 -163.5 -62.5t-104 -152.5t-33.5 -187q0 -118 51 -174.5t154 -56.5q140 0 297 94l68 -129q-197 -152 -424 -152 q-177 0 -278 101t-101 278zM500 1128l219 273q38 45 64 63.5t51 18.5q37 0 65.5 -26.5t28.5 -65.5q0 -30 -20.5 -56t-67.5 -61l-277 -211z" />
<glyph unicode="&#x108;" horiz-adv-x="1378" d="M125 549q0 187 66 357t198 298q226 213 592 213q200 0 315 -53q80 -37 80 -121q0 -72 -35 -250h-139q0 126 -37 176q-50 62 -223 62q-122 0 -228 -48t-179 -143q-72 -93 -111 -218.5t-39 -248.5q0 -108 30.5 -189.5t84.5 -130t123 -72t151 -23.5q176 0 256 65 q52 42 111 168h139q-35 -193 -74 -260q-45 -76 -145 -111q-134 -49 -334 -49q-282 0 -442 155t-160 423zM643 1532l281 270q50 47 92 47q26 0 43 -11t35 -38l186 -274l-66 -62l-223 193l-291 -193z" />
<glyph unicode="&#x109;" horiz-adv-x="968" d="M74 350q0 146 53 279.5t160 218.5q148 119 350 119q107 0 180 -25q52 -19 72 -45t20 -76q0 -80 -32 -198h-132q-3 110 -34 137q-39 31 -103 31q-93 0 -163.5 -62.5t-104 -152.5t-33.5 -187q0 -118 51 -174.5t154 -56.5q140 0 297 94l68 -129q-197 -152 -424 -152 q-177 0 -278 101t-101 278zM356 1104l265 307q41 49 90 49q58 0 80 -45l151 -328l-80 -47l-176 224l-264 -224z" />
<glyph unicode="&#x10a;" horiz-adv-x="1378" d="M125 549q0 187 66 357t198 298q226 213 592 213q200 0 315 -53q80 -37 80 -121q0 -72 -35 -250h-139q0 126 -37 176q-50 62 -223 62q-122 0 -228 -48t-179 -143q-72 -93 -111 -218.5t-39 -248.5q0 -108 30.5 -189.5t84.5 -130t123 -72t151 -23.5q176 0 256 65 q52 42 111 168h139q-35 -193 -74 -260q-45 -76 -145 -111q-134 -49 -334 -49q-282 0 -442 155t-160 423zM862 1634q0 49 32.5 85t82.5 36q49 0 78.5 -29.5t29.5 -74.5q0 -57 -32.5 -93t-87.5 -36q-46 0 -74.5 31t-28.5 81z" />
<glyph unicode="&#x10b;" horiz-adv-x="968" d="M74 350q0 146 53 279.5t160 218.5q148 119 350 119q107 0 180 -25q52 -19 72 -45t20 -76q0 -80 -32 -198h-132q-3 110 -34 137q-39 31 -103 31q-93 0 -163.5 -62.5t-104 -152.5t-33.5 -187q0 -118 51 -174.5t154 -56.5q140 0 297 94l68 -129q-197 -152 -424 -152 q-177 0 -278 101t-101 278zM561 1262q0 49 32.5 85.5t82.5 36.5q48 0 78 -30.5t30 -75.5q0 -57 -32.5 -93t-87.5 -36q-46 0 -74.5 31t-28.5 82z" />
<glyph unicode="&#x10c;" horiz-adv-x="1378" d="M125 549q0 187 66 357t198 298q226 213 592 213q200 0 315 -53q80 -37 80 -121q0 -72 -35 -250h-139q0 126 -37 176q-50 62 -223 62q-122 0 -228 -48t-179 -143q-72 -93 -111 -218.5t-39 -248.5q0 -108 30.5 -189.5t84.5 -130t123 -72t151 -23.5q176 0 256 65 q52 42 111 168h139q-35 -193 -74 -260q-45 -76 -145 -111q-134 -49 -334 -49q-282 0 -442 155t-160 423zM682 1790l66 61l223 -192l291 192l57 -67l-279 -271q-50 -47 -94 -47q-25 0 -42.5 12t-35.5 38z" />
<glyph unicode="&#x10d;" horiz-adv-x="968" d="M74 350q0 146 53 279.5t160 218.5q148 119 350 119q107 0 180 -25q52 -19 72 -45t20 -76q0 -80 -32 -198h-132q-3 110 -34 137q-39 31 -103 31q-93 0 -163.5 -62.5t-104 -152.5t-33.5 -187q0 -118 51 -174.5t154 -56.5q140 0 297 94l68 -129q-197 -152 -424 -152 q-177 0 -278 101t-101 278zM379 1413l80 47l176 -223l264 223l66 -63l-265 -310q-38 -47 -90 -47q-59 0 -80 47z" />
<glyph unicode="&#x10e;" horiz-adv-x="1495" d="M-20 0l26 133q88 6 120.5 13t47.5 22q11 12 18 35.5t19 85.5l158 803q12 64 12 100q0 38 -41 47q-38 8 -131 14l24 131h369q300 0 445.5 -32t236.5 -101q81 -61 127.5 -166t46.5 -221q0 -541 -362 -751q-191 -113 -598 -113h-518zM449 238q0 -44 51 -56q47 -8 131 -8 q143 0 252.5 49t177 137.5t101.5 205.5t34 259q0 101 -38 186t-103 126q-104 69 -326 69h-96l-178 -921q-6 -30 -6 -47zM530 1790l66 61l223 -192l291 192l57 -67l-278 -271q-50 -47 -94 -47q-25 0 -42.5 12t-35.5 38z" />
<glyph unicode="&#x10f;" horiz-adv-x="1206" d="M72 309q0 135 52.5 270.5t147.5 227.5q163 154 410 154q112 0 182 -37l31 133q31 142 31 188q0 36 -18 52t-58 16q-34 0 -84 -10l25 124q155 70 280 70q115 0 115 -111q0 -20 -4 -49t-14 -78t-16.5 -79.5t-24 -105t-23.5 -101.5l-129 -563q-29 -121 -29 -193 q0 -32 16 -48.5t54 -16.5q62 0 121 18l-31 -135q-116 -53 -238 -53q-61 0 -99 26t-44 80q-2 14 -2 59q-134 -172 -332 -172q-162 0 -240.5 89.5t-78.5 244.5zM311 352q0 -194 164 -194q64 0 132.5 36t117.5 89q8 51 39 184l63 276q-71 41 -170 41q-130 0 -208 -84 q-59 -60 -98.5 -160t-39.5 -188zM1198 1081q174 85 174 160q0 35 -35 59q-45 38 -45 86t32.5 82.5t90.5 34.5q64 0 100.5 -40.5t36.5 -104.5q0 -217 -317 -354z" />
<glyph unicode="&#x110;" horiz-adv-x="1495" d="M-20 0l26 133q88 6 120.5 13t47.5 22q11 12 18 35.5t19 85.5l72 368h-203l26 134h203l60 301q12 64 12 100q0 38 -41 47q-38 8 -131 14l24 131h369q300 0 445.5 -32t236.5 -101q81 -61 127.5 -166t46.5 -221q0 -541 -362 -751q-191 -113 -598 -113h-518zM449 238 q0 -44 51 -56q47 -8 131 -8q143 0 252.5 49t177 137.5t101.5 205.5t34 259q0 101 -38 186t-103 126q-104 69 -326 69h-96l-82 -415h340l-29 -134h-336l-71 -372q-6 -30 -6 -47z" />
<glyph unicode="&#x111;" horiz-adv-x="1206" d="M72 309q0 135 52.5 270.5t147.5 227.5q163 154 410 154q112 0 182 -37l31 131h-283l25 108h278q11 61 11 82q0 36 -18 52t-58 16q-34 0 -84 -10l25 124q155 70 280 70q115 0 115 -111q0 -57 -39 -223h143l-24 -108h-144q-28 -126 -82 -360t-65 -285q-29 -121 -29 -193 q0 -32 16 -48.5t54 -16.5q62 0 121 18l-31 -135q-116 -53 -238 -53q-61 0 -99 26t-44 80q-2 14 -2 59q-134 -172 -332 -172q-162 0 -240.5 89.5t-78.5 244.5zM311 352q0 -194 164 -194q64 0 132.5 36t117.5 89q8 51 39 184l63 276q-71 41 -170 41q-130 0 -208 -84 q-59 -60 -98.5 -160t-39.5 -188z" />
<glyph unicode="&#x112;" horiz-adv-x="1263" d="M-20 0l26 133q127 2 166 33q13 11 19.5 33t17.5 78q3 13 4 20l156 797q14 68 14 100q0 13 -5.5 22.5t-17.5 15t-23 9.5t-30.5 6t-31.5 2.5t-35 1t-31 0.5l24 133h885q69 0 100 -22.5t31 -67.5q0 -84 -41 -268h-127q0 34 -4 84q-5 45 -35 70q-21 13 -60 19.5t-126 6.5 h-221l-80 -411h113q33 0 57 1t44.5 5.5t33.5 7.5t25 14t19 18.5t15.5 27t13.5 33t15 42.5h123q-44 -179 -88 -463h-119q2 20 2 58q-5 72 -51 84q-34 10 -121 10h-113l-69 -352q-6 -42 -6 -48q0 -45 43 -51q53 -8 190 -8q218 0 291 59q41 34 104 156h129q-12 -85 -40 -179 t-56 -144q-41 -66 -188 -66h-942zM479 1542l31 148h569l-28 -148h-572z" />
<glyph unicode="&#x113;" horiz-adv-x="966" d="M74 344q0 177 67.5 318.5t193 223t288.5 81.5q155 0 231 -67t76 -171q0 -78 -32 -136.5t-103 -102.5t-192.5 -67t-293.5 -24q-4 -16 -4 -47q0 -84 51.5 -139t159.5 -55q77 0 151 23.5t175 80.5l67 -131q-217 -160 -469 -160q-161 0 -263.5 96.5t-102.5 276.5zM328 555 q393 5 393 158q0 46 -26.5 66t-86.5 20q-97 0 -173.5 -65t-106.5 -179zM385 1133l29 147h528l-29 -147h-528z" />
<glyph unicode="&#x114;" horiz-adv-x="1263" d="M-20 0l26 133q127 2 166 33q13 11 19.5 33t17.5 78q3 13 4 20l156 797q14 68 14 100q0 13 -5.5 22.5t-17.5 15t-23 9.5t-30.5 6t-31.5 2.5t-35 1t-31 0.5l24 133h885q69 0 100 -22.5t31 -67.5q0 -84 -41 -268h-127q0 34 -4 84q-5 45 -35 70q-21 13 -60 19.5t-126 6.5 h-221l-80 -411h113q33 0 57 1t44.5 5.5t33.5 7.5t25 14t19 18.5t15.5 27t13.5 33t15 42.5h123q-44 -179 -88 -463h-119q2 20 2 58q-5 72 -51 84q-34 10 -121 10h-113l-69 -352q-6 -42 -6 -48q0 -45 43 -51q53 -8 190 -8q218 0 291 59q41 34 104 156h129q-12 -85 -40 -179 t-56 -144q-41 -66 -188 -66h-942zM510 1741q0 19 4 65l86 6q2 -80 50.5 -126t140.5 -46q181 0 235 172l86 -4q-20 -152 -112 -234.5t-230 -82.5q-123 0 -191.5 60.5t-68.5 189.5z" />
<glyph unicode="&#x115;" horiz-adv-x="966" d="M74 344q0 177 67.5 318.5t193 223t288.5 81.5q155 0 231 -67t76 -171q0 -78 -32 -136.5t-103 -102.5t-192.5 -67t-293.5 -24q-4 -16 -4 -47q0 -84 51.5 -139t159.5 -55q77 0 151 23.5t175 80.5l67 -131q-217 -160 -469 -160q-161 0 -263.5 96.5t-102.5 276.5zM328 555 q393 5 393 158q0 46 -26.5 66t-86.5 20q-97 0 -173.5 -65t-106.5 -179zM387 1321q0 22 4 72l86 8q2 -82 42.5 -127t121.5 -45q161 0 217 172l86 -6q-20 -155 -101.5 -236.5t-211.5 -81.5q-244 0 -244 244z" />
<glyph unicode="&#x116;" horiz-adv-x="1263" d="M-20 0l26 133q127 2 166 33q13 11 19.5 33t17.5 78q3 13 4 20l156 797q14 68 14 100q0 13 -5.5 22.5t-17.5 15t-23 9.5t-30.5 6t-31.5 2.5t-35 1t-31 0.5l24 133h885q69 0 100 -22.5t31 -67.5q0 -84 -41 -268h-127q0 34 -4 84q-5 45 -35 70q-21 13 -60 19.5t-126 6.5 h-221l-80 -411h113q33 0 57 1t44.5 5.5t33.5 7.5t25 14t19 18.5t15.5 27t13.5 33t15 42.5h123q-44 -179 -88 -463h-119q2 20 2 58q-5 72 -51 84q-34 10 -121 10h-113l-69 -352q-6 -42 -6 -48q0 -45 43 -51q53 -8 190 -8q218 0 291 59q41 34 104 156h129q-12 -85 -40 -179 t-56 -144q-41 -66 -188 -66h-942zM668 1634q0 49 32 85t82 36q49 0 79 -29.5t30 -74.5q0 -56 -33 -92.5t-88 -36.5q-46 0 -74 31t-28 81z" />
<glyph unicode="&#x117;" horiz-adv-x="966" d="M74 344q0 177 67.5 318.5t193 223t288.5 81.5q155 0 231 -67t76 -171q0 -78 -32 -136.5t-103 -102.5t-192.5 -67t-293.5 -24q-4 -16 -4 -47q0 -84 51.5 -139t159.5 -55q77 0 151 23.5t175 80.5l67 -131q-217 -160 -469 -160q-161 0 -263.5 96.5t-102.5 276.5zM328 555 q393 5 393 158q0 46 -26.5 66t-86.5 20q-97 0 -173.5 -65t-106.5 -179zM559 1262q0 49 32.5 85.5t82.5 36.5q48 0 78 -30.5t30 -75.5q0 -57 -32.5 -93t-87.5 -36q-46 0 -74.5 31t-28.5 82z" />
<glyph unicode="&#x118;" horiz-adv-x="1263" d="M-20 0l26 133q127 2 166 33q13 11 19.5 33t17.5 78q3 13 4 20l156 797q14 68 14 100q0 13 -5.5 22.5t-17.5 15t-23 9.5t-30.5 6t-31.5 2.5t-35 1t-31 0.5l24 133h885q69 0 100 -22.5t31 -67.5q0 -84 -41 -268h-127q0 34 -4 84q-5 45 -35 70q-21 13 -60 19.5t-126 6.5 h-221l-80 -411h113q33 0 57 1t44.5 5.5t33.5 7.5t25 14t19 18.5t15.5 27t13.5 33t15 42.5h123q-44 -179 -88 -463h-119q2 20 2 58q-5 72 -51 84q-34 10 -121 10h-113l-69 -352q-6 -42 -6 -48q0 -45 43 -51q53 -8 190 -8q218 0 291 59q41 34 104 156h129q-12 -85 -40 -179 t-56 -144q-28 -48 -111 -60q-211 -202 -211 -342q0 -48 27.5 -79t79.5 -31q64 0 141 30l33 -80q-45 -33 -110 -57.5t-128 -24.5q-101 0 -152.5 56t-51.5 139q0 181 252 383h-899z" />
<glyph unicode="&#x119;" horiz-adv-x="966" d="M74 344q0 177 67.5 318.5t193 223t288.5 81.5q155 0 231 -67t76 -171q0 -78 -32 -136.5t-103 -102.5t-192.5 -67t-293.5 -24q-4 -16 -4 -47q0 -84 51.5 -139t159.5 -55q77 0 151 23.5t175 80.5l67 -131q-129 -93 -254 -131q-105 -93 -162 -173t-57 -157q0 -43 27.5 -71.5 t75.5 -28.5q66 0 137 31l29 -78q-112 -78 -230 -78q-96 0 -146 51.5t-50 128.5q0 170 229 350q-46 -4 -68 -4q-161 0 -263.5 96.5t-102.5 276.5zM328 555q393 5 393 158q0 46 -26.5 66t-86.5 20q-97 0 -173.5 -65t-106.5 -179z" />
<glyph unicode="&#x11a;" horiz-adv-x="1263" d="M-20 0l26 133q127 2 166 33q13 11 19.5 33t17.5 78q3 13 4 20l156 797q14 68 14 100q0 13 -5.5 22.5t-17.5 15t-23 9.5t-30.5 6t-31.5 2.5t-35 1t-31 0.5l24 133h885q69 0 100 -22.5t31 -67.5q0 -84 -41 -268h-127q0 34 -4 84q-5 45 -35 70q-21 13 -60 19.5t-126 6.5 h-221l-80 -411h113q33 0 57 1t44.5 5.5t33.5 7.5t25 14t19 18.5t15.5 27t13.5 33t15 42.5h123q-44 -179 -88 -463h-119q2 20 2 58q-5 72 -51 84q-34 10 -121 10h-113l-69 -352q-6 -42 -6 -48q0 -45 43 -51q53 -8 190 -8q218 0 291 59q41 34 104 156h129q-12 -85 -40 -179 t-56 -144q-41 -66 -188 -66h-942zM508 1790l65 61l224 -192l290 192l58 -67l-279 -271q-50 -47 -94 -47q-25 0 -42.5 12t-35.5 38z" />
<glyph unicode="&#x11b;" horiz-adv-x="966" d="M74 344q0 177 67.5 318.5t193 223t288.5 81.5q155 0 231 -67t76 -171q0 -78 -32 -136.5t-103 -102.5t-192.5 -67t-293.5 -24q-4 -16 -4 -47q0 -84 51.5 -139t159.5 -55q77 0 151 23.5t175 80.5l67 -131q-217 -160 -469 -160q-161 0 -263.5 96.5t-102.5 276.5zM328 555 q393 5 393 158q0 46 -26.5 66t-86.5 20q-97 0 -173.5 -65t-106.5 -179zM391 1413l80 47l176 -223l264 223l66 -63l-264 -310q-38 -47 -90 -47q-59 0 -80 47z" />
<glyph unicode="&#x11c;" horiz-adv-x="1468" d="M125 555q0 202 77.5 386.5t225.5 303.5q212 172 528 172q232 0 359 -57q43 -18 61.5 -47.5t18.5 -75.5q0 -36 -11.5 -111.5t-25.5 -134.5h-141q-3 130 -33 172q-54 68 -248 68q-106 0 -205 -40t-172 -122q-82 -89 -128 -216t-46 -265q0 -96 22 -171t59.5 -123t90 -79.5 t109 -44t122.5 -12.5q159 0 213 43q23 20 35 78l23 118q8 54 8 68q0 34 -33 43q-31 10 -141 18l22 136q143 -5 291 -5q170 0 262 5l-22 -136q-31 -2 -43 -2.5t-31.5 -4t-24.5 -5t-16 -9.5t-13 -13t-7.5 -20.5t-7.5 -27.5t-7 -38l-47 -244q-16 -92 -86 -119 q-184 -74 -432 -74q-283 0 -444.5 151.5t-161.5 434.5zM618 1532l281 270q50 47 92 47q18 0 31 -5t24 -15.5t23 -28.5l186 -274l-65 -62l-223 193l-291 -193z" />
<glyph unicode="&#x11d;" horiz-adv-x="1075" d="M-47 -295q0 43 17 80.5t39 63t62 51t68 39.5t74 34q-41 19 -61.5 51t-20.5 66q0 117 148 207q-156 73 -156 252q0 209 162 330q118 88 295 88q161 0 241 -54q232 0 295 -2l-29 -149q-85 -6 -159 -6q9 -13 15.5 -44.5t6.5 -56.5q0 -185 -139 -299q-128 -102 -319 -102 q-60 0 -95 6q-61 -42 -61 -84q0 -25 22 -41t76 -26q300 -58 320 -62q112 -21 165.5 -82.5t53.5 -152.5q0 -96 -42 -169.5t-116.5 -117.5t-170.5 -66t-210 -22q-241 0 -361 75.5t-120 192.5zM168 -244q0 -63 72 -104t227 -41q132 0 198 39.5t66 101.5q0 47 -35 72.5 t-123 42.5q-227 41 -256 53q-60 -26 -104.5 -68.5t-44.5 -95.5zM311 1104l264 307q41 49 91 49q57 0 79 -45l152 -328l-80 -47l-176 224l-264 -224zM344 567q0 -77 48.5 -114t123.5 -37q98 0 158.5 63t60.5 164q0 162 -166 162q-99 0 -162 -68t-63 -170z" />
<glyph unicode="&#x11e;" horiz-adv-x="1468" d="M125 555q0 202 77.5 386.5t225.5 303.5q212 172 528 172q232 0 359 -57q43 -18 61.5 -47.5t18.5 -75.5q0 -36 -11.5 -111.5t-25.5 -134.5h-141q-3 130 -33 172q-54 68 -248 68q-106 0 -205 -40t-172 -122q-82 -89 -128 -216t-46 -265q0 -96 22 -171t59.5 -123t90 -79.5 t109 -44t122.5 -12.5q159 0 213 43q23 20 35 78l23 118q8 54 8 68q0 34 -33 43q-31 10 -141 18l22 136q143 -5 291 -5q170 0 262 5l-22 -136q-31 -2 -43 -2.5t-31.5 -4t-24.5 -5t-16 -9.5t-13 -13t-7.5 -20.5t-7.5 -27.5t-7 -38l-47 -244q-16 -92 -86 -119 q-184 -74 -432 -74q-283 0 -444.5 151.5t-161.5 434.5zM684 1741q0 19 4 65l86 6q2 -80 50.5 -126t140.5 -46q181 0 235 172l86 -4q-20 -152 -112 -234.5t-230 -82.5q-123 0 -191.5 60.5t-68.5 189.5z" />
<glyph unicode="&#x11f;" horiz-adv-x="1075" d="M-47 -295q0 43 17 80.5t39 63t62 51t68 39.5t74 34q-41 19 -61.5 51t-20.5 66q0 117 148 207q-156 73 -156 252q0 209 162 330q118 88 295 88q161 0 241 -54q232 0 295 -2l-29 -149q-85 -6 -159 -6q9 -13 15.5 -44.5t6.5 -56.5q0 -185 -139 -299q-128 -102 -319 -102 q-60 0 -95 6q-61 -42 -61 -84q0 -25 22 -41t76 -26q300 -58 320 -62q112 -21 165.5 -82.5t53.5 -152.5q0 -96 -42 -169.5t-116.5 -117.5t-170.5 -66t-210 -22q-241 0 -361 75.5t-120 192.5zM168 -244q0 -63 72 -104t227 -41q132 0 198 39.5t66 101.5q0 47 -35 72.5 t-123 42.5q-227 41 -256 53q-60 -26 -104.5 -68.5t-44.5 -95.5zM344 567q0 -77 48.5 -114t123.5 -37q98 0 158.5 63t60.5 164q0 162 -166 162q-99 0 -162 -68t-63 -170zM358 1321q0 22 4 72l87 8q2 -82 42 -127t121 -45q161 0 217 172l86 -6q-20 -155 -101.5 -236.5 t-211.5 -81.5q-244 0 -244 244z" />
<glyph unicode="&#x120;" horiz-adv-x="1468" d="M125 555q0 202 77.5 386.5t225.5 303.5q212 172 528 172q232 0 359 -57q43 -18 61.5 -47.5t18.5 -75.5q0 -36 -11.5 -111.5t-25.5 -134.5h-141q-3 130 -33 172q-54 68 -248 68q-106 0 -205 -40t-172 -122q-82 -89 -128 -216t-46 -265q0 -96 22 -171t59.5 -123t90 -79.5 t109 -44t122.5 -12.5q159 0 213 43q23 20 35 78l23 118q8 54 8 68q0 34 -33 43q-31 10 -141 18l22 136q143 -5 291 -5q170 0 262 5l-22 -136q-31 -2 -43 -2.5t-31.5 -4t-24.5 -5t-16 -9.5t-13 -13t-7.5 -20.5t-7.5 -27.5t-7 -38l-47 -244q-16 -92 -86 -119 q-184 -74 -432 -74q-283 0 -444.5 151.5t-161.5 434.5zM823 1634q0 49 32.5 85t82.5 36q49 0 79 -29.5t30 -74.5q0 -56 -33 -92.5t-88 -36.5q-46 0 -74.5 31t-28.5 81z" />
<glyph unicode="&#x121;" horiz-adv-x="1075" d="M-47 -295q0 43 17 80.5t39 63t62 51t68 39.5t74 34q-41 19 -61.5 51t-20.5 66q0 117 148 207q-156 73 -156 252q0 209 162 330q118 88 295 88q161 0 241 -54q232 0 295 -2l-29 -149q-85 -6 -159 -6q9 -13 15.5 -44.5t6.5 -56.5q0 -185 -139 -299q-128 -102 -319 -102 q-60 0 -95 6q-61 -42 -61 -84q0 -25 22 -41t76 -26q300 -58 320 -62q112 -21 165.5 -82.5t53.5 -152.5q0 -96 -42 -169.5t-116.5 -117.5t-170.5 -66t-210 -22q-241 0 -361 75.5t-120 192.5zM168 -244q0 -63 72 -104t227 -41q132 0 198 39.5t66 101.5q0 47 -35 72.5 t-123 42.5q-227 41 -256 53q-60 -26 -104.5 -68.5t-44.5 -95.5zM344 567q0 -77 48.5 -114t123.5 -37q98 0 158.5 63t60.5 164q0 162 -166 162q-99 0 -162 -68t-63 -170zM500 1262q0 49 32.5 85.5t81.5 36.5t79 -30.5t30 -75.5q0 -56 -33 -92.5t-88 -36.5q-46 0 -74 31 t-28 82z" />
<glyph unicode="&#x122;" horiz-adv-x="1468" d="M125 555q0 202 77.5 386.5t225.5 303.5q212 172 528 172q232 0 359 -57q43 -18 61.5 -47.5t18.5 -75.5q0 -36 -11.5 -111.5t-25.5 -134.5h-141q-3 130 -33 172q-54 68 -248 68q-106 0 -205 -40t-172 -122q-82 -89 -128 -216t-46 -265q0 -96 22 -171t59.5 -123t90 -79.5 t109 -44t122.5 -12.5q159 0 213 43q23 20 35 78l23 118q8 54 8 68q0 34 -33 43q-31 10 -141 18l22 136q143 -5 291 -5q170 0 262 5l-22 -136q-31 -2 -43 -2.5t-31.5 -4t-24.5 -5t-16 -9.5t-13 -13t-7.5 -20.5t-7.5 -27.5t-7 -38l-47 -244q-16 -92 -86 -119 q-184 -74 -432 -74q-283 0 -444.5 151.5t-161.5 434.5zM475 -512q174 81 174 158q0 33 -35 61q-45 33 -45 84q0 48 32.5 82.5t90.5 34.5q64 0 100.5 -41t36.5 -105q0 -217 -317 -354z" />
<glyph unicode="&#x123;" horiz-adv-x="1075" d="M-47 -295q0 108 104 182q48 38 156 86q-41 19 -61.5 51t-20.5 66q0 117 148 207q-156 73 -156 252q0 209 162 330q118 88 295 88q161 0 241 -54q232 0 295 -2l-29 -149q-85 -6 -159 -6q9 -13 15.5 -44.5t6.5 -56.5q0 -188 -139 -297q-124 -104 -319 -104q-60 0 -95 6 q-61 -42 -61 -84q0 -24 21.5 -39.5t76.5 -27.5q84 -19 320 -62q219 -44 219 -235q0 -96 -42 -169.5t-116.5 -117.5t-170.5 -66t-210 -22q-241 0 -361 75.5t-120 192.5zM168 -244q0 -63 72 -104t227 -41q132 0 198 39.5t66 101.5q0 47 -35 72.5t-123 42.5q-227 41 -256 53 q-60 -26 -104.5 -68.5t-44.5 -95.5zM344 567q0 -77 48.5 -114t123.5 -37q98 0 158.5 63t60.5 164q0 162 -166 162q-99 0 -162 -68t-63 -170zM463 1237q0 219 319 352l37 -78q-174 -85 -174 -157q0 -39 33 -62q47 -37 47 -84q0 -48 -32.5 -82t-90.5 -34q-66 0 -102.5 40.5 t-36.5 104.5z" />
<glyph unicode="&#x124;" horiz-adv-x="1560" d="M-20 -2l26 135q83 4 116 12t52 23q4 4 7.5 9.5t7 14.5t7 23.5t7.5 33.5t10 48l156 801q14 82 14 94q0 38 -43 47q-27 7 -131 14l24 133q129 -6 306 -6q29 0 311 6l-27 -133q-64 -4 -99.5 -9t-49.5 -11t-23 -16q-17 -17 -37 -121l-55 -281h576l57 281q14 69 14 98 q0 13 -5.5 23t-18.5 16t-24.5 9.5t-33 5.5t-34.5 3t-38 1q-13 1 -20 1l25 133q258 -6 311 -6q35 0 305 6l-26 -133q-92 -6 -124.5 -13.5t-47.5 -22.5q-21 -21 -39 -119l-154 -797q-16 -91 -16 -106q0 -41 49 -50q26 -5 129 -12l-27 -135q-172 4 -311 4q-121 0 -305 -4 l28 135q137 7 166 33q22 22 41 131l66 338h-578l-65 -334q-17 -81 -17 -104q0 -40 50 -50q46 -8 129 -14l-27 -135q-172 4 -315 4q-119 0 -299 -4zM657 1532l281 270q50 47 92 47q18 0 31 -5t24 -15.5t23 -28.5l186 -274l-65 -62l-223 193l-291 -193z" />
<glyph unicode="&#x125;" horiz-adv-x="1167" d="M68 0l225 1038q33 151 33 209q0 37 -18.5 51.5t-57.5 14.5q-41 0 -86 -10l26 124q149 70 281 70q115 0 115 -104q0 -40 -19 -133q-57 -276 -108 -474q71 82 166 129.5t192 47.5q201 0 201 -187q0 -69 -27 -180l-51 -205q-31 -118 -31 -174q0 -35 17 -50t55 -15 q58 0 121 18l-29 -135q-119 -53 -252 -53q-155 0 -155 127q0 74 26 178l64 266q18 85 18 121q0 86 -94 86q-120 0 -246 -113l-147 -647h-219zM180 1575l281 270q50 47 92 47q26 0 43 -11t35 -38l186 -274l-65 -62l-224 193l-290 -193z" />
<glyph unicode="&#x126;" horiz-adv-x="1560" d="M-20 -2l26 135q83 4 116 12t52 23q4 4 7.5 9.5t7 14.5t7 23.5t7.5 33.5t10 48l123 639h-184l28 131h182l7 31q14 82 14 94q0 38 -43 47q-27 7 -131 14l24 133q129 -6 306 -6q29 0 311 6l-27 -133q-64 -4 -99.5 -9t-49.5 -11t-23 -16q-17 -17 -37 -121l-6 -29h578l6 31 q14 69 14 96q0 13 -5.5 23t-18.5 16t-24.5 9.5t-33 5.5t-34.5 3t-38 1q-13 1 -20 1l25 133q258 -6 311 -6q35 0 305 6l-26 -133q-92 -6 -124.5 -13.5t-47.5 -22.5q-22 -22 -39 -117l-6 -33h180l-27 -131h-180l-121 -635q-16 -91 -16 -106q0 -41 49 -50q26 -5 129 -12 l-27 -135q-172 4 -311 4q-121 0 -305 -4l28 135q137 7 166 33q22 22 41 131l66 338h-578l-65 -334q-17 -81 -17 -104q0 -40 50 -50q46 -8 129 -14l-27 -135q-172 4 -315 4q-119 0 -299 -4zM557 811h578l24 125h-577z" />
<glyph unicode="&#x127;" horiz-adv-x="1167" d="M68 0l225 1038q0 5 4 17h-176l24 108h172q9 70 9 84q0 37 -18.5 51.5t-57.5 14.5q-41 0 -86 -10l26 124q149 70 281 70q115 0 115 -104q0 -40 -19 -133q-14 -72 -20 -97h252l-25 -108h-252q-24 -114 -63 -269q71 82 166 129.5t192 47.5q201 0 201 -187q0 -65 -27 -176 l-51 -209q-31 -135 -31 -174q0 -35 17 -50t55 -15q58 0 121 18l-29 -135q-119 -53 -252 -53q-155 0 -155 127q0 74 26 178l64 266q18 85 18 121q0 86 -94 86q-120 0 -246 -113l-147 -647h-219z" />
<glyph unicode="&#x128;" horiz-adv-x="741" d="M-20 -2l26 135q132 7 168 35q17 14 39 129l156 801q14 82 14 96q0 20 -10 30t-33 15q-27 7 -131 14l24 133q258 -6 310 -6q35 0 311 6l-27 -133q-92 -6 -125.5 -13.5t-46.5 -22.5q-21 -21 -39 -119l-153 -797q-17 -81 -17 -106q0 -38 46 -48q27 -7 133 -14l-29 -135 q-172 4 -317 4q-119 0 -299 -4zM238 1528q37 100 91 166.5t122 66.5q32 0 112 -32l66 -29q60 -27 92 -27q31 0 55 26t55 85l82 -29q-80 -239 -200 -239q-55 0 -135 38l-58 27q-54 25 -82 25q-34 0 -62 -25t-61 -84z" />
<glyph unicode="&#x129;" horiz-adv-x="641" d="M41 1130q75 238 195 238q48 0 116 -31l51 -24q60 -29 91 -29q27 0 50 25t52 82l82 -25q-30 -116 -76 -179t-104 -63q-54 0 -133 39l-48 21q-61 22 -86 22q-33 0 -55.5 -22t-52.5 -80zM88 764l27 123q139 71 243 71q72 0 107 -31.5t35 -103.5q0 -55 -47 -243l-50 -191 q-32 -122 -32 -172q0 -35 16.5 -50t54.5 -15q56 0 123 18l-30 -135q-119 -53 -252 -53q-158 0 -158 129q0 54 29 176l57 237q4 18 13 54.5t13 54t7.5 39t3.5 33.5q0 36 -17 50.5t-55 14.5q-51 0 -88 -6z" />
<glyph unicode="&#x12a;" horiz-adv-x="741" d="M-20 -2l26 135q132 7 168 35q17 14 39 129l156 801q14 82 14 96q0 20 -10 30t-33 15q-27 7 -131 14l24 133q258 -6 310 -6q35 0 311 6l-27 -133q-92 -6 -125.5 -13.5t-46.5 -22.5q-21 -21 -39 -119l-153 -797q-17 -81 -17 -106q0 -38 46 -48q27 -7 133 -14l-29 -135 q-172 4 -317 4q-119 0 -299 -4zM305 1593l29 148h528l-28 -148h-529z" />
<glyph unicode="&#x12b;" horiz-adv-x="641" d="M88 764l27 123q139 71 243 71q72 0 107 -31.5t35 -103.5q0 -55 -47 -243l-50 -191q-32 -122 -32 -172q0 -35 16.5 -50t54.5 -15q56 0 123 18l-30 -135q-119 -53 -252 -53q-158 0 -158 129q0 54 29 176l57 237q4 18 13 54.5t13 54t7.5 39t3.5 33.5q0 36 -17 50.5t-55 14.5 q-51 0 -88 -6zM106 1133l29 147h529l-29 -147h-529z" />
<glyph unicode="&#x12c;" horiz-adv-x="741" d="M-20 -2l26 135q132 7 168 35q17 14 39 129l156 801q14 82 14 96q0 20 -10 30t-33 15q-27 7 -131 14l24 133q258 -6 310 -6q35 0 311 6l-27 -133q-92 -6 -125.5 -13.5t-46.5 -22.5q-21 -21 -39 -119l-153 -797q-17 -81 -17 -106q0 -38 46 -48q27 -7 133 -14l-29 -135 q-172 4 -317 4q-119 0 -299 -4zM285 1741q0 19 4 65l86 6q2 -80 50 -126t140 -46q182 0 236 172l86 -4q-20 -152 -112 -234.5t-230 -82.5q-123 0 -191.5 60.5t-68.5 189.5z" />
<glyph unicode="&#x12d;" horiz-adv-x="641" d="M88 764l27 123q139 71 243 71q72 0 107 -31.5t35 -103.5q0 -55 -47 -243l-50 -191q-32 -122 -32 -172q0 -35 16.5 -50t54.5 -15q56 0 123 18l-30 -135q-119 -53 -252 -53q-158 0 -158 129q0 54 29 176l57 237q4 18 13 54.5t13 54t7.5 39t3.5 33.5q0 36 -17 50.5t-55 14.5 q-51 0 -88 -6zM113 1321q0 22 4 72l86 8q2 -82 42.5 -127t121.5 -45q161 0 217 172l86 -6q-20 -155 -102 -236.5t-212 -81.5q-243 0 -243 244z" />
<glyph unicode="&#x12e;" horiz-adv-x="741" d="M-20 -2l26 135q132 7 168 35q17 14 39 129l156 801q14 82 14 96q0 20 -10 30t-33 15q-27 7 -131 14l24 133q258 -6 310 -6q35 0 311 6l-27 -133q-92 -6 -125.5 -13.5t-46.5 -22.5q-21 -21 -39 -119l-153 -797q-17 -81 -17 -106q0 -38 46 -48q27 -7 133 -14l-29 -135 l-213 4q-207 -198 -207 -338q0 -48 27.5 -79t79.5 -31q64 0 141 30l33 -80q-45 -33 -110 -57.5t-128 -24.5q-101 0 -153 56t-52 139q0 181 254 385q-116 0 -288 -4z" />
<glyph unicode="&#x12f;" horiz-adv-x="641" d="M12 -375q0 92 61.5 179.5t178.5 179.5q-127 10 -127 127q0 54 29 176l57 237q4 18 13 54.5t13 54t7.5 39t3.5 33.5q0 36 -17 50.5t-55 14.5q-51 0 -88 -6l27 123q139 71 243 71q72 0 107 -31.5t35 -103.5q0 -55 -47 -243l-50 -191q-32 -122 -32 -172q0 -35 16.5 -50 t54.5 -15q56 0 123 18l-30 -135q-62 -29 -158 -45q-101 -92 -154 -168t-53 -152q0 -43 27 -71.5t75 -28.5q67 0 138 31l28 -78q-112 -78 -229 -78q-96 0 -146.5 51.5t-50.5 128.5zM274 1303q0 69 44.5 116t111.5 47q64 0 97.5 -36.5t33.5 -96.5q0 -70 -42.5 -117t-110.5 -47 q-60 0 -97 38t-37 96z" />
<glyph unicode="&#x130;" horiz-adv-x="741" d="M-20 -2l26 135q132 7 168 35q17 14 39 129l156 801q14 82 14 96q0 20 -10 30t-33 15q-27 7 -131 14l24 133q258 -6 310 -6q35 0 311 6l-27 -133q-92 -6 -125.5 -13.5t-46.5 -22.5q-21 -21 -39 -119l-153 -797q-17 -81 -17 -106q0 -38 46 -48q27 -7 133 -14l-29 -135 q-172 4 -317 4q-119 0 -299 -4zM463 1634q0 49 32.5 85t82.5 36q49 0 78.5 -29.5t29.5 -74.5q0 -56 -33 -92.5t-88 -36.5q-46 0 -74 31t-28 81z" />
<glyph unicode="&#x131;" horiz-adv-x="641" d="M88 764l27 123q139 71 243 71q72 0 107 -31.5t35 -103.5q0 -55 -47 -243l-50 -191q-32 -122 -32 -172q0 -35 16.5 -50t54.5 -15q56 0 123 18l-30 -135q-119 -53 -252 -53q-158 0 -158 129q0 54 29 176l57 237q4 18 13 54.5t13 54t7.5 39t3.5 33.5q0 36 -17 50.5t-55 14.5 q-51 0 -88 -6z" />
<glyph unicode="&#x132;" horiz-adv-x="1443" d="M-20 -2l26 135q132 7 168 35q17 14 39 129l156 801q14 82 14 96q0 20 -10 30t-33 15q-27 7 -131 14l24 133q258 -6 310 -6q35 0 311 6l-27 -133q-92 -6 -125.5 -13.5t-46.5 -22.5q-21 -21 -39 -119l-153 -797q-17 -81 -17 -106q0 -38 46 -48q27 -7 133 -14l-29 -135 q-172 4 -317 4q-119 0 -299 -4zM578 -205q233 85 303 266q45 113 84 308l139 729q14 72 14 98q0 35 -47 45q-37 6 -129 12l27 133q189 -6 307 -6q43 0 301 6l-27 -133q-84 -6 -115.5 -13t-45.5 -21q-22 -22 -39 -121l-136 -715q-31 -163 -61.5 -256t-79.5 -170 q-57 -91 -177.5 -169t-277.5 -120z" />
<glyph unicode="&#x133;" horiz-adv-x="1255" d="M88 764l27 123q139 71 243 71q72 0 107 -31.5t35 -103.5q0 -55 -47 -243l-50 -191q-32 -122 -32 -172q0 -35 16.5 -50t54.5 -15q56 0 123 18l-30 -135q-119 -53 -252 -53q-158 0 -158 129q0 54 29 176l57 237q4 18 13 54.5t13 54t7.5 39t3.5 33.5q0 36 -17 50.5t-55 14.5 q-51 0 -88 -6zM274 1303q0 69 44.5 116t111.5 47q64 0 97.5 -36.5t33.5 -96.5q0 -70 -42.5 -117t-110.5 -47q-60 0 -97 38t-37 96zM432 -430q157 43 217 137q48 77 109 328q18 75 35.5 156.5t38 182.5t30.5 148q27 137 27 180q0 38 -16.5 53t-55.5 15q-49 0 -86 -6l25 123 q139 71 250 71q69 0 102 -31.5t33 -103.5q0 -37 -31 -200q-27 -147 -127 -590q-35 -166 -73 -260t-97 -160q-51 -60 -150.5 -111.5t-199.5 -64.5zM922 1303q0 69 44.5 116t110.5 47q65 0 99 -36.5t34 -96.5q0 -70 -42.5 -117t-110.5 -47q-62 0 -98.5 38t-36.5 96z" />
<glyph unicode="&#x134;" horiz-adv-x="700" d="M-164 -205q233 85 303 266q45 113 84 308l139 729q15 77 15 98q0 35 -47 45q-38 6 -129 12l26 133q189 -6 308 -6q43 0 301 6l-27 -133q-84 -6 -116 -13t-46 -21q-22 -22 -39 -121l-135 -715q-31 -163 -61.5 -256t-79.5 -170q-57 -91 -177.5 -169t-277.5 -120zM252 1565 l264 307q41 49 90 49q58 0 80 -45l152 -328l-80 -47l-176 223l-265 -223z" />
<glyph unicode="&#x135;" horiz-adv-x="612" d="M-209 -430q157 43 217 137q48 77 109 328q39 159 104 487q27 118 27 180q0 38 -16.5 53t-55.5 15q-49 0 -86 -6l25 123q139 71 250 71q69 0 102 -31.5t33 -103.5q0 -13 -5 -46.5t-14 -84t-12 -69.5q-58 -282 -127 -590q-35 -166 -73 -260t-97 -160q-51 -60 -150.5 -111.5 t-199.5 -64.5zM80 1104l264 307q41 49 88 49q60 0 82 -45l154 -328l-82 -47l-176 224l-265 -224z" />
<glyph unicode="&#x136;" horiz-adv-x="1441" d="M-20 -2l26 135q84 4 116.5 11.5t49.5 21.5q20 20 41 129l156 805q14 75 14 94q0 34 -41 45q-31 8 -133 14l24 133q258 -6 306 -6q37 0 307 6l-27 -133q-87 -4 -120.5 -12.5t-47.5 -23.5q-19 -19 -37 -117l-155 -797q-17 -90 -17 -106q0 -40 47 -50q61 -9 132 -14 l-27 -135q-172 4 -315 4q-119 0 -299 -4zM479 -512q174 81 174 158q0 33 -35 61q-45 33 -45 84q0 48 32.5 82.5t90.5 34.5q64 0 101 -41t37 -105q0 -216 -318 -354zM563 698q164 138 418 387q84 84 84 125q0 15 -11.5 23t-37 12.5t-76.5 7.5l27 133q86 -4 315 -4 q154 0 244 4l-27 -133q-52 -4 -88 -16q-55 -21 -168 -131q-42 -42 -213.5 -200t-206.5 -191q69 -136 166.5 -276.5t167.5 -213.5q48 -51 107 -73q51 -18 102 -21l-25 -131q-68 -8 -149 -8q-158 0 -244 92q-79 88 -192.5 266t-192.5 348z" />
<glyph unicode="&#x137;" horiz-adv-x="1112" d="M68 0l225 1038q33 151 33 209q0 37 -18.5 51.5t-57.5 14.5q-41 0 -86 -10l26 124q149 70 281 70q115 0 115 -104q0 -51 -19 -144q-31 -133 -145 -648t-135 -601h-219zM309 -512q174 81 174 158q0 34 -34 61q-46 34 -46 84q0 48 32.5 82.5t90.5 34.5q64 0 101 -41t37 -105 q0 -216 -318 -354zM430 518q134 187 254 303q148 142 285 142q59 0 93 -28t34 -79q0 -48 -27 -158h-111q-5 58 -53 58q-59 0 -127 -62q-82 -73 -141 -149q89 -198 190 -318q58 -75 138 -75q49 0 110 14l-33 -137q-22 -14 -70.5 -28.5t-90.5 -14.5q-77 0 -127 21t-90 69 q-58 70 -122 194t-112 248z" />
<glyph unicode="&#x138;" horiz-adv-x="1112" d="M51 768l27 127q149 70 276 70q52 0 84.5 -25t32.5 -80t-20 -149q-41 -188 -98.5 -435t-65.5 -276h-219l108 504q33 151 33 209q0 37 -18.5 51t-57.5 14q-40 0 -82 -10zM430 504q152 219 252 317q148 142 287 142q59 0 93 -28t34 -79q0 -48 -27 -158h-111q-3 32 -14 45 t-35 13q-57 0 -135 -68q-62 -50 -145 -147q81 -170 192 -314q22 -29 61 -52t81 -23q47 0 108 14l-31 -137q-24 -14 -72.5 -28.5t-90.5 -14.5q-76 0 -127 21t-91 69q-114 136 -229 428z" />
<glyph unicode="&#x139;" horiz-adv-x="1245" d="M-20 0l26 133q131 5 164 31q14 13 23 41t20 90l156 803q14 75 14 94q0 35 -45 47q-52 11 -129 14l24 133q189 -6 308 -6q179 0 311 6l-27 -133q-147 -5 -172 -36q-22 -25 -39 -121l-157 -799q-8 -48 -8 -64q0 -45 43 -51q53 -6 174 -6q126 0 187.5 12.5t94.5 40.5 q45 40 105 166h118q-59 -253 -102 -329q-37 -66 -174 -66h-915zM418 1546l266 230q44 37 69.5 50t51.5 13q37 0 61.5 -26.5t24.5 -67.5q0 -60 -100 -113l-320 -164z" />
<glyph unicode="&#x13a;" horiz-adv-x="608" d="M102 111q0 41 27 176l160 725q39 176 39 231q0 37 -16.5 53.5t-53.5 16.5q-30 0 -92 -10l27 124q61 30 137 50t129 20q68 0 97.5 -25.5t29.5 -87.5q0 -67 -54 -297l-155 -698q-29 -126 -29 -172q0 -35 16 -50t54 -15q58 0 125 18l-33 -135q-119 -53 -252 -53 q-156 0 -156 129zM291 1681l266 230q44 37 69.5 50t51.5 13q37 0 61.5 -26.5t24.5 -67.5q0 -60 -100 -113l-320 -163z" />
<glyph unicode="&#x13b;" horiz-adv-x="1245" d="M-20 0l26 133q131 5 164 31q14 13 23 41t20 90l156 803q14 75 14 94q0 35 -45 47q-52 11 -129 14l24 133q189 -6 308 -6q179 0 311 6l-27 -133q-147 -5 -172 -36q-22 -25 -39 -121l-157 -799q-8 -48 -8 -64q0 -45 43 -51q53 -6 174 -6q126 0 187.5 12.5t94.5 40.5 q45 40 105 166h118q-59 -253 -102 -329q-37 -66 -174 -66h-915zM324 -512q174 81 174 158q0 33 -35 61q-45 33 -45 84q0 48 32.5 82.5t90.5 34.5q64 0 100.5 -41t36.5 -105q0 -216 -318 -354z" />
<glyph unicode="&#x13c;" horiz-adv-x="608" d="M39 -512q174 81 174 158q0 33 -35 61q-45 33 -45 84q0 48 32.5 82.5t90.5 34.5q64 0 100.5 -41t36.5 -105q0 -217 -317 -354zM102 111q0 41 27 176l160 725q39 176 39 231q0 37 -16.5 53.5t-53.5 16.5q-30 0 -92 -10l27 124q61 30 137 50t129 20q68 0 97.5 -25.5 t29.5 -87.5q0 -67 -54 -297l-155 -698q-29 -126 -29 -172q0 -35 16 -50t54 -15q58 0 125 18l-33 -135q-119 -53 -252 -53q-156 0 -156 129z" />
<glyph unicode="&#x13d;" horiz-adv-x="1245" d="M-20 0l26 133q131 5 164 31q14 13 23 41t20 90l156 803q14 75 14 94q0 35 -45 47q-52 11 -129 14l24 133q189 -6 308 -6q179 0 311 6l-27 -133q-147 -5 -172 -36q-22 -25 -39 -121l-157 -799q-8 -48 -8 -64q0 -45 43 -51q53 -6 174 -6q126 0 187.5 12.5t94.5 40.5 q45 40 105 166h118q-59 -253 -102 -329q-37 -66 -174 -66h-915zM850 1010q174 81 174 157q0 34 -35 62q-45 33 -45 84q0 48 32.5 82.5t90.5 34.5q64 0 100.5 -41t36.5 -105q0 -217 -317 -354z" />
<glyph unicode="&#x13e;" horiz-adv-x="608" d="M102 111q0 41 27 176l160 725q39 176 39 231q0 37 -16.5 53.5t-53.5 16.5q-30 0 -92 -10l27 124q61 30 137 50t129 20q68 0 97.5 -25.5t29.5 -87.5q0 -67 -54 -297l-155 -698q-29 -126 -29 -172q0 -35 16 -50t54 -15q58 0 125 18l-33 -135q-119 -53 -252 -53 q-156 0 -156 129zM596 1081q174 85 174 160q0 35 -35 59q-45 38 -45 86t32.5 82.5t90.5 34.5q64 0 100.5 -40.5t36.5 -104.5q0 -217 -317 -354z" />
<glyph unicode="&#x13f;" horiz-adv-x="1245" d="M-20 0l26 133q131 5 164 31q14 13 23 41t20 90l156 803q14 75 14 94q0 35 -45 47q-52 11 -129 14l24 133q189 -6 308 -6q179 0 311 6l-27 -133q-147 -5 -172 -36q-22 -25 -39 -121l-157 -799q-8 -48 -8 -64q0 -45 43 -51q53 -6 174 -6q126 0 187.5 12.5t94.5 40.5 q45 40 105 166h118q-59 -253 -102 -329q-37 -66 -174 -66h-915zM864 702q0 64 42.5 111t109.5 47q63 0 103 -38t40 -99q0 -73 -42.5 -118.5t-112.5 -45.5q-63 0 -101.5 39.5t-38.5 103.5z" />
<glyph unicode="&#x140;" horiz-adv-x="772" d="M102 111q0 41 27 176l160 725q39 176 39 231q0 37 -16.5 53.5t-53.5 16.5q-30 0 -92 -10l27 124q61 30 137 50t129 20q68 0 97.5 -25.5t29.5 -87.5q0 -67 -54 -297l-155 -696q-29 -126 -29 -174q0 -35 16 -50t54 -15q58 0 125 18l-33 -135q-119 -53 -252 -53 q-156 0 -156 129zM588 727q0 62 41.5 108t107.5 46q60 0 98.5 -37.5t38.5 -95.5q0 -71 -41.5 -115.5t-109.5 -44.5q-61 0 -98 38t-37 101z" />
<glyph unicode="&#x141;" horiz-adv-x="1245" d="M-20 0l26 133q131 5 164 31q14 13 23 41t20 90l45 233l-172 -96l-59 113l262 147l80 406q14 75 14 94q0 35 -45 47q-52 11 -129 14l24 133q189 -6 308 -6q179 0 311 6l-27 -133q-147 -5 -172 -36q-22 -25 -39 -121l-49 -250l279 158l59 -113l-371 -209l-75 -385 q-8 -48 -8 -64q0 -45 43 -51q53 -6 174 -6q126 0 187.5 12.5t94.5 40.5q45 40 105 166h118q-59 -253 -102 -329q-37 -66 -174 -66h-915z" />
<glyph unicode="&#x142;" horiz-adv-x="608" d="M27 594l198 135l64 283q39 176 39 231q0 37 -16.5 53.5t-53.5 16.5q-30 0 -92 -10l27 124q61 30 137 50t129 20q68 0 97.5 -25.5t29.5 -87.5q0 -67 -54 -297l-40 -180l118 80l58 -92l-209 -139l-82 -367q-29 -126 -29 -172q0 -35 16 -50t54 -15q58 0 125 18l-33 -135 q-119 -53 -252 -53q-156 0 -156 129q0 41 27 176l64 291l-109 -72z" />
<glyph unicode="&#x143;" horiz-adv-x="1542" d="M-23 -2l29 135q83 4 118 13t52 26q17 24 45 170q14 71 45 227.5t56.5 284t37.5 182.5q21 111 21 148q0 49 -55 57q-40 7 -123 12l26 133q86 -4 256 -4q113 0 185 4q54 -115 119 -252t100 -212t77 -164t65 -138t47.5 -102.5t40 -89t28.5 -66.5q25 147 69.5 394t49.5 280 q14 109 14 144q0 46 -41 57q-62 14 -133 16l27 133q218 -4 288 -4q32 0 258 4l-26 -133q-85 -4 -115.5 -11t-46.5 -23q-12 -12 -22 -47t-31 -132q-101 -508 -181 -942q-11 -62 -39 -90t-90 -28q-48 0 -72.5 19.5t-43.5 61.5q-139 305 -248 540.5t-153 331t-76 167.5 q-71 -375 -140 -756q-20 -114 -20 -147q0 -45 55 -52q32 -5 123 -12l-27 -135q-208 4 -284 4q-47 0 -265 -4zM801 1546l266 230q44 37 69.5 50t51.5 13q37 0 61.5 -26.5t24.5 -67.5q0 -60 -100 -113l-320 -164z" />
<glyph unicode="&#x144;" horiz-adv-x="1196" d="M84 764l27 123q59 31 130 51t124 20q116 0 116 -114q0 -44 -6 -68q72 83 173.5 135t199.5 52q199 0 199 -187q0 -77 -25 -180l-51 -205q-31 -118 -31 -174q0 -35 16.5 -50t53.5 -15q60 0 123 18l-31 -135q-116 -53 -252 -53q-154 0 -154 127q0 70 27 178l63 266 q17 80 17 121q0 47 -24 66.5t-70 19.5q-120 0 -246 -113q-8 -63 -33 -170l-113 -477h-219l105 479q39 176 39 219q0 40 -19.5 57t-60.5 17q-38 0 -78 -8zM553 1128l219 273q38 45 64 63.5t51 18.5q37 0 65.5 -26.5t28.5 -65.5q0 -30 -20.5 -56t-67.5 -61l-277 -211z" />
<glyph unicode="&#x145;" horiz-adv-x="1542" d="M-23 -2l29 135q83 4 118 13t52 26q17 24 45 170q14 71 45 227.5t56.5 284t37.5 182.5q21 111 21 148q0 49 -55 57q-40 7 -123 12l26 133q86 -4 256 -4q113 0 185 4q54 -115 119 -252t100 -212t77 -164t65 -138t47.5 -102.5t40 -89t28.5 -66.5q25 147 69.5 394t49.5 280 q14 109 14 144q0 46 -41 57q-62 14 -133 16l27 133q218 -4 288 -4q32 0 258 4l-26 -133q-85 -4 -115.5 -11t-46.5 -23q-12 -12 -22 -47t-31 -132q-101 -508 -181 -942q-11 -62 -39 -90t-90 -28q-48 0 -72.5 19.5t-43.5 61.5q-139 305 -248 540.5t-153 331t-76 167.5 q-71 -375 -140 -756q-20 -114 -20 -147q0 -45 55 -52q32 -5 123 -12l-27 -135q-208 4 -284 4q-47 0 -265 -4zM502 -512q174 81 174 158q0 33 -35 61q-45 33 -45 84q0 48 32.5 82.5t90.5 34.5q64 0 100.5 -41t36.5 -105q0 -217 -317 -354z" />
<glyph unicode="&#x146;" horiz-adv-x="1196" d="M84 764l27 123q59 31 130 51t124 20q116 0 116 -114q0 -44 -6 -68q72 83 173.5 135t199.5 52q199 0 199 -187q0 -77 -25 -180l-51 -205q-31 -118 -31 -174q0 -35 16.5 -50t53.5 -15q60 0 123 18l-31 -135q-116 -53 -252 -53q-154 0 -154 127q0 70 27 178l63 266 q17 80 17 121q0 47 -24 66.5t-70 19.5q-120 0 -246 -113q-8 -63 -33 -170l-113 -477h-219l105 479q39 176 39 219q0 40 -19.5 57t-60.5 17q-38 0 -78 -8zM313 -512q174 81 174 158q0 34 -34 61q-45 33 -45 84q0 48 32 82.5t90 34.5q64 0 101 -41t37 -105q0 -216 -318 -354z " />
<glyph unicode="&#x147;" horiz-adv-x="1542" d="M-23 -2l29 135q83 4 118 13t52 26q17 24 45 170q14 71 45 227.5t56.5 284t37.5 182.5q21 111 21 148q0 49 -55 57q-40 7 -123 12l26 133q86 -4 256 -4q113 0 185 4q54 -115 119 -252t100 -212t77 -164t65 -138t47.5 -102.5t40 -89t28.5 -66.5q25 147 69.5 394t49.5 280 q14 109 14 144q0 46 -41 57q-62 14 -133 16l27 133q218 -4 288 -4q32 0 258 4l-26 -133q-85 -4 -115.5 -11t-46.5 -23q-12 -12 -22 -47t-31 -132q-101 -508 -181 -942q-11 -62 -39 -90t-90 -28q-48 0 -72.5 19.5t-43.5 61.5q-139 305 -248 540.5t-153 331t-76 167.5 q-71 -375 -140 -756q-20 -114 -20 -147q0 -45 55 -52q32 -5 123 -12l-27 -135q-208 4 -284 4q-47 0 -265 -4zM670 1790l65 61l223 -192l291 192l58 -67l-279 -271q-50 -47 -94 -47q-25 0 -42.5 12t-35.5 38z" />
<glyph unicode="&#x148;" horiz-adv-x="1196" d="M84 764l27 123q59 31 130 51t124 20q116 0 116 -114q0 -44 -6 -68q72 83 173.5 135t199.5 52q199 0 199 -187q0 -77 -25 -180l-51 -205q-31 -118 -31 -174q0 -35 16.5 -50t53.5 -15q60 0 123 18l-31 -135q-116 -53 -252 -53q-154 0 -154 127q0 70 27 178l63 266 q17 80 17 121q0 47 -24 66.5t-70 19.5q-120 0 -246 -113q-8 -63 -33 -170l-113 -477h-219l105 479q39 176 39 219q0 40 -19.5 57t-60.5 17q-38 0 -78 -8zM426 1413l80 47l176 -223l264 223l66 -63l-264 -310q-38 -47 -91 -47q-58 0 -79 47z" />
<glyph unicode="&#x149;" horiz-adv-x="1196" d="M84 764l27 123q59 31 130 51t124 20q116 0 116 -114q0 -44 -6 -68q72 83 173.5 135t199.5 52q199 0 199 -187q0 -77 -25 -180l-51 -205q-31 -118 -31 -174q0 -35 16.5 -50t53.5 -15q60 0 123 18l-31 -135q-116 -53 -252 -53q-154 0 -154 127q0 70 27 178l63 266 q17 80 17 121q0 47 -24 66.5t-70 19.5q-120 0 -246 -113q-8 -63 -33 -170l-113 -477h-219l105 479q39 176 39 219q0 40 -19.5 57t-60.5 17q-38 0 -78 -8zM133 1108q174 81 174 158q0 33 -35 61q-45 33 -45 84q0 48 32.5 82.5t90.5 34.5q64 0 100.5 -41t36.5 -105 q0 -217 -317 -354z" />
<glyph unicode="&#x14a;" horiz-adv-x="1542" d="M-23 -2l29 135q87 4 121.5 12.5t48.5 26.5q4 4 7.5 12t6 16.5t6.5 24.5t7 30t8 40t10 47q45 217 139 692q21 111 21 150q0 49 -55 57q-40 7 -123 12l26 133q86 -4 267 -4q110 0 184 4q87 -188 182 -385.5t169.5 -351.5t119.5 -252q25 148 67.5 376.5t47.5 262.5 q16 125 16 150q0 40 -43 51q-62 14 -133 16l27 133q218 -4 288 -4q32 0 258 4l-26 -133q-85 -4 -114 -11t-48 -23q-12 -12 -23.5 -49t-29.5 -130q-85 -415 -174 -899q-32 -172 -59.5 -264t-78.5 -162q-65 -89 -169.5 -157.5t-225.5 -104.5l-51 133q88 34 163 91t107 120 q25 44 46.5 117t27.5 141q-123 278 -225 493t-267 550q-135 -746 -137 -754q-20 -100 -20 -147q0 -15 5 -25.5t16 -17t23 -10t30 -5.5t32.5 -2.5t36 -1.5t35.5 -2l-27 -135q-208 4 -284 4q-47 0 -265 -4z" />
<glyph unicode="&#x14b;" horiz-adv-x="1196" d="M84 764l27 123q59 31 130 51t124 20q116 0 116 -114q0 -44 -6 -68q72 83 173.5 135t199.5 52q199 0 199 -187q0 -61 -25 -180l-113 -533q-31 -151 -59.5 -236t-83.5 -153q-116 -144 -352 -225l-49 125q65 31 108.5 61.5t75 64.5t54 85.5t38.5 107.5t35 148l110 512 q17 80 17 121q0 47 -24 66.5t-70 19.5q-120 0 -246 -113q-8 -63 -33 -170l-113 -477h-219l105 479q39 176 39 219q0 40 -19.5 57t-60.5 17q-38 0 -78 -8z" />
<glyph unicode="&#x14c;" horiz-adv-x="1482" d="M127 532q0 190 65 374t193 308q207 201 518 201q274 0 409.5 -140.5t135.5 -383.5q0 -192 -55 -377t-174 -317q-98 -109 -234.5 -166.5t-286.5 -57.5q-173 0 -299 59t-199 186t-73 314zM385 545q0 -387 328 -387q199 0 313 159q78 107 117 262.5t39 303.5q0 348 -316 348 q-201 0 -321 -158q-75 -99 -117.5 -246t-42.5 -282zM637 1542l31 148h569l-29 -148h-571z" />
<glyph unicode="&#x14d;" horiz-adv-x="1093" d="M74 358q0 121 36.5 240t114.5 207q143 162 391 162q186 0 298 -92.5t112 -272.5q0 -128 -39.5 -255t-120.5 -218q-68 -75 -170 -116.5t-211 -41.5q-187 0 -299 96.5t-112 290.5zM307 375q0 -225 203 -225q125 0 195 102q42 61 64 153.5t22 180.5q0 205 -197 205 q-127 0 -199 -95q-44 -60 -66 -147t-22 -174zM399 1133l29 147h528l-28 -147h-529z" />
<glyph unicode="&#x14e;" horiz-adv-x="1482" d="M127 532q0 190 65 374t193 308q207 201 518 201q274 0 409.5 -140.5t135.5 -383.5q0 -192 -55 -377t-174 -317q-98 -109 -234.5 -166.5t-286.5 -57.5q-173 0 -299 59t-199 186t-73 314zM385 545q0 -387 328 -387q199 0 313 159q78 107 117 262.5t39 303.5q0 348 -316 348 q-201 0 -321 -158q-75 -99 -117.5 -246t-42.5 -282zM664 1741q0 19 4 65l86 6q2 -80 50 -126t140 -46q182 0 236 172l86 -4q-20 -152 -112 -234.5t-230 -82.5q-123 0 -191.5 60.5t-68.5 189.5z" />
<glyph unicode="&#x14f;" horiz-adv-x="1093" d="M74 358q0 121 36.5 240t114.5 207q143 162 391 162q186 0 298 -92.5t112 -272.5q0 -128 -39.5 -255t-120.5 -218q-68 -75 -170 -116.5t-211 -41.5q-187 0 -299 96.5t-112 290.5zM307 375q0 -225 203 -225q125 0 195 102q42 61 64 153.5t22 180.5q0 205 -197 205 q-127 0 -199 -95q-44 -60 -66 -147t-22 -174zM412 1321q0 22 4 72l86 8q2 -82 42.5 -127t121.5 -45q161 0 217 172l86 -6q-20 -155 -102 -236.5t-212 -81.5q-243 0 -243 244z" />
<glyph unicode="&#x150;" horiz-adv-x="1482" d="M127 532q0 190 65 374t193 308q207 201 518 201q274 0 409.5 -140.5t135.5 -383.5q0 -192 -55 -377t-174 -317q-98 -109 -234.5 -166.5t-286.5 -57.5q-173 0 -299 59t-199 186t-73 314zM385 545q0 -387 328 -387q199 0 313 159q78 107 117 262.5t39 303.5q0 348 -316 348 q-201 0 -321 -158q-75 -99 -117.5 -246t-42.5 -282zM629 1540l237 254q41 43 66 58.5t55 15.5q35 0 58.5 -26t23.5 -64q0 -55 -94 -115l-293 -195zM971 1540l239 254q41 42 65.5 58t53.5 16q37 0 60.5 -25.5t23.5 -64.5q0 -53 -94 -115l-293 -195z" />
<glyph unicode="&#x151;" horiz-adv-x="1093" d="M74 358q0 121 36.5 240t114.5 207q143 162 391 162q186 0 298 -92.5t112 -272.5q0 -128 -39.5 -255t-120.5 -218q-68 -75 -170 -116.5t-211 -41.5q-187 0 -299 96.5t-112 290.5zM307 375q0 -225 203 -225q125 0 195 102q42 61 64 153.5t22 180.5q0 205 -197 205 q-127 0 -199 -95q-44 -60 -66 -147t-22 -174zM393 1124l187 281q33 51 57 67.5t53 16.5q33 0 59.5 -22t26.5 -58q0 -47 -74 -115l-239 -229zM707 1124l186 281q33 51 56 67.5t52 16.5q35 0 62 -22t27 -58q0 -47 -74 -115l-242 -229z" />
<glyph unicode="&#x152;" horiz-adv-x="2060" d="M127 530q0 403 268 668q203 203 578 203q58 0 190.5 -8.5t186.5 -8.5h565q131 0 131 -90q0 -84 -41 -268h-129q0 59 -2 84q-5 47 -37 70q-37 26 -184 26h-221l-80 -411h112q66 0 101 4.5t59.5 24t35 43t26.5 77.5h124q-40 -160 -90 -463h-116q0 11 -1 31t-1 27 q0 72 -48 84q-34 10 -122 10h-113l-70 -352q-4 -28 -4 -48q0 -45 41 -51q53 -8 193 -8q217 0 290 59q43 36 105 156h127q-11 -84 -38.5 -178.5t-57.5 -144.5q-38 -66 -189 -66h-641q-43 0 -181 -6t-212 -6q-114 0 -207 28t-157 77t-107.5 117.5t-63.5 148.5t-20 171z M389 563q0 -181 89.5 -290t266.5 -109q191 0 236 63q18 22 37 111l135 694q14 75 14 107q0 55 -61 71q-62 15 -152 15q-119 0 -219 -43t-168 -123q-85 -98 -131.5 -232t-46.5 -264z" />
<glyph unicode="&#x153;" horiz-adv-x="1650" d="M74 360q0 120 36.5 238.5t114.5 206.5q143 162 391 162q243 0 324 -172q63 79 160.5 125.5t210.5 46.5q154 0 230.5 -67.5t76.5 -170.5q0 -78 -32 -136.5t-103 -102.5t-192.5 -67t-293.5 -24q-4 -16 -4 -47q0 -85 50.5 -139.5t158.5 -54.5q146 0 328 104l67 -131 q-209 -160 -469 -160q-97 0 -175.5 41t-116.5 125q-60 -80 -151.5 -122t-199.5 -42q-187 0 -299 96t-112 291zM307 377q0 -225 203 -225q74 0 129.5 40.5t86 106.5t45.5 138.5t15 148.5q0 205 -192 205q-127 0 -199 -95q-43 -60 -65.5 -147t-22.5 -172zM1016 555 q393 5 393 158q0 43 -27.5 64.5t-89.5 21.5q-37 0 -82 -15.5t-77 -42.5q-80 -64 -117 -186z" />
<glyph unicode="&#x154;" horiz-adv-x="1366" d="M-20 -2l26 135q125 8 156 27q17 10 27.5 35.5t23.5 95.5l158 815q12 68 12 86q0 21 -12 32t-39 17q-25 4 -123 12l24 131h441q230 0 342 -28q122 -33 186 -117t64 -197q0 -185 -97.5 -296t-271.5 -154q62 -137 105.5 -215t89.5 -131q56 -62 106 -86q44 -18 100 -25 l-28 -137q-14 -2 -99 -2q-177 0 -272 102q-63 66 -119 177t-125 292q-69 0 -145 6l-51 -274q-17 -87 -17 -102q0 -14 5 -24t16 -16.5t22.5 -10.5t30 -6t32.5 -3t35.5 -2t34.5 -2l-28 -135q-184 4 -334 4q-72 0 -276 -4zM545 745q31 -2 117 -2q346 0 346 269q0 56 -29 101.5 t-76 64.5q-68 24 -188 24h-80zM629 1546l266 230q44 37 69.5 50t51.5 13q37 0 61.5 -26.5t24.5 -67.5q0 -59 -101 -113l-319 -164z" />
<glyph unicode="&#x155;" horiz-adv-x="874" d="M72 764l26 123q139 71 256 71q113 0 113 -114q0 -48 -4 -68q48 71 127.5 129t169.5 58q55 0 87 -24.5t32 -70.5q0 -89 -39 -202h-125q-3 47 -20 67.5t-56 20.5q-49 0 -98 -37.5t-84 -89.5q-40 -195 -45 -217l-95 -410h-219l101 457q30 150 30 239q0 40 -19 58t-60 18 q-38 0 -78 -8zM422 1128l219 273q38 45 64 63.5t51 18.5q37 0 65.5 -26.5t28.5 -65.5q0 -30 -20.5 -56t-67.5 -61l-277 -211z" />
<glyph unicode="&#x156;" horiz-adv-x="1366" d="M-20 -2l26 135q125 8 156 27q17 10 27.5 35.5t23.5 95.5l158 815q12 68 12 86q0 21 -12 32t-39 17q-25 4 -123 12l24 131h441q230 0 342 -28q122 -33 186 -117t64 -197q0 -185 -97.5 -296t-271.5 -154q62 -137 105.5 -215t89.5 -131q56 -62 106 -86q44 -18 100 -25 l-28 -137q-14 -2 -99 -2q-177 0 -272 102q-63 66 -119 177t-125 292q-69 0 -145 6l-51 -274q-17 -87 -17 -102q0 -14 5 -24t16 -16.5t22.5 -10.5t30 -6t32.5 -3t35.5 -2t34.5 -2l-28 -135q-184 4 -334 4q-72 0 -276 -4zM446 -512q175 82 175 158q0 33 -35 61q-45 33 -45 84 q0 48 32.5 82.5t90.5 34.5q64 0 100.5 -41t36.5 -105q0 -216 -318 -354zM545 745q31 -2 117 -2q346 0 346 269q0 56 -29 101.5t-76 64.5q-68 24 -188 24h-80z" />
<glyph unicode="&#x157;" horiz-adv-x="874" d="M-31 -512q174 81 174 158q0 34 -34 61q-46 34 -46 84q0 48 32.5 82.5t90.5 34.5q64 0 101 -41t37 -105q0 -216 -318 -354zM72 764l26 123q139 71 256 71q113 0 113 -114q0 -48 -4 -68q48 71 127.5 129t169.5 58q55 0 87 -24.5t32 -70.5q0 -89 -39 -202h-125 q-3 47 -20 67.5t-56 20.5q-49 0 -98 -37.5t-84 -89.5q-40 -195 -45 -217l-95 -410h-219l101 457q30 150 30 239q0 40 -19 58t-60 18q-38 0 -78 -8z" />
<glyph unicode="&#x158;" horiz-adv-x="1366" d="M-20 -2l26 135q125 8 156 27q17 10 27.5 35.5t23.5 95.5l158 815q12 68 12 86q0 21 -12 32t-39 17q-25 4 -123 12l24 131h441q230 0 342 -28q122 -33 186 -117t64 -197q0 -185 -97.5 -296t-271.5 -154q62 -137 105.5 -215t89.5 -131q56 -62 106 -86q44 -18 100 -25 l-28 -137q-14 -2 -99 -2q-177 0 -272 102q-63 66 -119 177t-125 292q-69 0 -145 6l-51 -274q-17 -87 -17 -102q0 -14 5 -24t16 -16.5t22.5 -10.5t30 -6t32.5 -3t35.5 -2t34.5 -2l-28 -135q-184 4 -334 4q-72 0 -276 -4zM487 1790l66 61l223 -192l291 192l57 -67l-278 -271 q-50 -47 -94 -47q-25 0 -42.5 12t-35.5 38zM545 745q31 -2 117 -2q346 0 346 269q0 56 -29 101.5t-76 64.5q-68 24 -188 24h-80z" />
<glyph unicode="&#x159;" horiz-adv-x="874" d="M72 764l26 123q139 71 256 71q113 0 113 -114q0 -48 -4 -68q48 71 127.5 129t169.5 58q55 0 87 -24.5t32 -70.5q0 -89 -39 -202h-125q-3 47 -20 67.5t-56 20.5q-49 0 -98 -37.5t-84 -89.5q-40 -195 -45 -217l-95 -410h-219l101 457q30 150 30 239q0 40 -19 58t-60 18 q-38 0 -78 -8zM266 1413l80 47l176 -223l264 223l66 -63l-264 -310q-38 -47 -90 -47q-59 0 -80 47z" />
<glyph unicode="&#x15a;" horiz-adv-x="1183" d="M72 195q3 109 30 243h127q6 -137 60 -202q31 -38 97.5 -62t158.5 -24q142 0 208 56.5t66 141.5q0 59 -32.5 103t-102.5 79l-231 117q-224 112 -224 330q0 209 152.5 323.5t419.5 114.5q352 0 352 -160q0 -118 -35 -258h-127q0 91 -20 138t-58 71q-53 33 -172 33 q-129 0 -193.5 -56t-64.5 -141q0 -56 31.5 -99.5t110.5 -82.5l225 -110q227 -114 227 -324q0 -116 -43.5 -204.5t-122 -142.5t-182 -81t-229.5 -27q-63 0 -122 7t-115.5 24t-98 42t-67 64t-25.5 87zM618 1546l267 230q44 37 69.5 50t51.5 13q37 0 61.5 -26.5t24.5 -67.5 q0 -59 -101 -113l-319 -164z" />
<glyph unicode="&#x15b;" horiz-adv-x="944" d="M61 147q3 85 25 193h117q1 -42 9.5 -72.5t16 -42.5t21.5 -28q52 -52 168 -52q86 0 130 23.5t44 64.5q0 33 -17.5 56.5t-60.5 46.5l-166 84q-184 94 -184 244q0 81 35 141.5t96.5 95t135 50.5t159.5 16q146 0 225 -43q55 -28 55 -107q0 -68 -24 -182h-117q-8 107 -47 133 q-42 29 -133 29q-157 0 -160 -95q0 -31 19.5 -53t68.5 -45l162 -78q182 -89 182 -239q0 -70 -24 -125.5t-64 -90.5t-97 -58t-118 -32.5t-131 -9.5q-143 0 -235 43q-52 22 -71.5 54.5t-19.5 78.5zM446 1128l220 273q38 45 63.5 63.5t50.5 18.5q37 0 65.5 -26.5t28.5 -65.5 q0 -30 -20.5 -56t-67.5 -61l-276 -211z" />
<glyph unicode="&#x15c;" horiz-adv-x="1183" d="M72 195q3 109 30 243h127q6 -137 60 -202q31 -38 97.5 -62t158.5 -24q142 0 208 56.5t66 141.5q0 59 -32.5 103t-102.5 79l-231 117q-224 112 -224 330q0 209 152.5 323.5t419.5 114.5q352 0 352 -160q0 -118 -35 -258h-127q0 91 -20 138t-58 71q-53 33 -172 33 q-129 0 -193.5 -56t-64.5 -141q0 -56 31.5 -99.5t110.5 -82.5l225 -110q227 -114 227 -324q0 -116 -43.5 -204.5t-122 -142.5t-182 -81t-229.5 -27q-63 0 -122 7t-115.5 24t-98 42t-67 64t-25.5 87zM473 1532l281 270q50 47 92 47q26 0 43 -11t35 -38l186 -274l-66 -62 l-223 193l-291 -193z" />
<glyph unicode="&#x15d;" horiz-adv-x="944" d="M61 147q3 85 25 193h117q1 -42 9.5 -72.5t16 -42.5t21.5 -28q52 -52 168 -52q86 0 130 23.5t44 64.5q0 33 -17.5 56.5t-60.5 46.5l-166 84q-184 94 -184 244q0 81 35 141.5t96.5 95t135 50.5t159.5 16q146 0 225 -43q55 -28 55 -107q0 -68 -24 -182h-117q-8 107 -47 133 q-42 29 -133 29q-157 0 -160 -95q0 -31 19.5 -53t68.5 -45l162 -78q182 -89 182 -239q0 -70 -24 -125.5t-64 -90.5t-97 -58t-118 -32.5t-131 -9.5q-143 0 -235 43q-52 22 -71.5 54.5t-19.5 78.5zM295 1104l264 307q41 49 90 49q58 0 80 -45l152 -328l-80 -47l-176 224 l-265 -224z" />
<glyph unicode="&#x15e;" horiz-adv-x="1183" d="M72 195q3 109 30 243h127q6 -137 60 -202q31 -38 97.5 -62t158.5 -24q142 0 208 56.5t66 141.5q0 59 -32.5 103t-102.5 79l-231 117q-224 112 -224 330q0 209 152.5 323.5t419.5 114.5q352 0 352 -160q0 -118 -35 -258h-127q0 91 -20 138t-58 71q-53 33 -172 33 q-129 0 -193.5 -56t-64.5 -141q0 -56 31.5 -99.5t110.5 -82.5l225 -110q227 -114 227 -324q0 -201 -124.5 -313.5t-336.5 -135.5q-28 -51 -28 -75q0 -30 28 -47q64 -38 89.5 -73.5t25.5 -86.5q0 -65 -36.5 -118t-97.5 -86.5t-130 -54.5t-145 -30l-5 105q120 27 180 60t60 93 q0 61 -74 109q-32 22 -32 57q0 43 57 141h-8q-63 0 -122 7t-115.5 24t-98 42t-67 64t-25.5 87z" />
<glyph unicode="&#x15f;" horiz-adv-x="944" d="M61 147q3 85 25 193h117q1 -42 9.5 -72.5t16 -42.5t21.5 -28q52 -52 168 -52q86 0 130 23.5t44 64.5q0 33 -17.5 56.5t-60.5 46.5l-166 84q-184 94 -184 244q0 81 35 141.5t96.5 95t135 50.5t159.5 16q146 0 225 -43q55 -28 55 -107q0 -68 -24 -182h-117q-8 107 -47 133 q-42 29 -133 29q-157 0 -160 -95q0 -31 19.5 -53t68.5 -45l162 -78q182 -89 182 -239q0 -80 -30 -140t-83.5 -96t-118 -54.5t-143.5 -23.5q-24 -43 -24 -67q0 -28 29 -43q61 -34 85.5 -69.5t24.5 -84.5q0 -62 -36 -113t-95.5 -83.5t-127.5 -52t-142 -27.5l-6 100 q118 25 176.5 57t58.5 91q0 56 -72 102q-30 18 -30 53q0 39 55 137q-109 6 -190 41q-52 22 -71.5 54.5t-19.5 78.5z" />
<glyph unicode="&#x160;" horiz-adv-x="1183" d="M72 195q3 109 30 243h127q6 -137 60 -202q31 -38 97.5 -62t158.5 -24q142 0 208 56.5t66 141.5q0 59 -32.5 103t-102.5 79l-231 117q-224 112 -224 330q0 209 152.5 323.5t419.5 114.5q352 0 352 -160q0 -118 -35 -258h-127q0 91 -20 138t-58 71q-53 33 -172 33 q-129 0 -193.5 -56t-64.5 -141q0 -56 31.5 -99.5t110.5 -82.5l225 -110q227 -114 227 -324q0 -116 -43.5 -204.5t-122 -142.5t-182 -81t-229.5 -27q-63 0 -122 7t-115.5 24t-98 42t-67 64t-25.5 87zM492 1790l65 61l223 -192l291 192l57 -67l-278 -271q-50 -47 -94 -47 q-25 0 -42.5 12t-35.5 38z" />
<glyph unicode="&#x161;" horiz-adv-x="944" d="M61 147q3 85 25 193h117q1 -42 9.5 -72.5t16 -42.5t21.5 -28q52 -52 168 -52q86 0 130 23.5t44 64.5q0 33 -17.5 56.5t-60.5 46.5l-166 84q-184 94 -184 244q0 81 35 141.5t96.5 95t135 50.5t159.5 16q146 0 225 -43q55 -28 55 -107q0 -68 -24 -182h-117q-8 107 -47 133 q-42 29 -133 29q-157 0 -160 -95q0 -31 19.5 -53t68.5 -45l162 -78q182 -89 182 -239q0 -70 -24 -125.5t-64 -90.5t-97 -58t-118 -32.5t-131 -9.5q-143 0 -235 43q-52 22 -71.5 54.5t-19.5 78.5zM330 1413l80 47l176 -223l264 223l65 -63l-264 -310q-38 -47 -90 -47 q-59 0 -80 47z" />
<glyph unicode="&#x162;" horiz-adv-x="1363" d="M188 977q10 105 37 280q11 64 43 95.5t101 31.5h952q68 0 97.5 -21.5t29.5 -70.5q0 -36 -17.5 -134.5t-39.5 -180.5h-115q0 101 -7.5 145t-25.5 60q-21 20 -68 24t-219 4l-176 -905q-14 -69 -14 -108t41 -50q34 -8 143 -14l-24 -135q-32 1 -124.5 2t-129.5 2 q-43 -75 -43 -100q0 -30 28 -47q64 -38 89.5 -73.5t25.5 -86.5q0 -65 -36.5 -118t-98 -86.5t-130.5 -54.5t-145 -30l-4 105q120 27 180 60t60 93q0 61 -74 109q-32 22 -32 57q0 48 75 172l-274 -4l24 135q66 4 103.5 10t49.5 12t24 17q20 18 41 127l176 911q-165 0 -219 -5 t-82 -23q-57 -31 -103 -205h-119z" />
<glyph unicode="&#x163;" horiz-adv-x="708" d="M72 -467q118 25 176.5 57t58.5 91q0 57 -71 102q-31 19 -31 53q0 46 63 152q-129 37 -129 188q0 39 17 139q44 223 92 449h-172l22 123q97 22 123 33q42 17 66 61q23 41 78 154q36 71 108 71t72 -59q0 -21 -45 -229q123 0 237 -7l-26 -145q-126 -6 -242 -6l-61 -299 q-27 -139 -27 -203q0 -46 24 -72t72 -26q61 0 144 24l28 -141q-125 -61 -284 -68q-25 -48 -25 -69q0 -28 29 -43q61 -34 85.5 -69.5t24.5 -84.5q0 -62 -36 -113t-95.5 -83.5t-127.5 -52t-142 -27.5z" />
<glyph unicode="&#x164;" horiz-adv-x="1363" d="M188 977q10 105 37 280q11 64 43 95.5t101 31.5h952q68 0 97.5 -21.5t29.5 -70.5q0 -36 -17.5 -134.5t-39.5 -180.5h-115q0 101 -7.5 145t-25.5 60q-21 20 -68 24t-219 4l-176 -905q-14 -69 -14 -108t41 -50q34 -8 143 -14l-24 -135q-164 4 -318 4q-139 0 -315 -4l24 135 q66 4 103.5 10t49.5 12t24 17q20 18 41 127l176 911q-165 0 -219 -5t-82 -23q-57 -31 -103 -205h-119zM586 1790l65 61l223 -192l291 192l58 -67l-279 -271q-50 -47 -94 -47q-25 0 -42.5 12t-35.5 38z" />
<glyph unicode="&#x165;" horiz-adv-x="708" d="M76 764l22 123q97 22 123 33q42 17 66 61q23 41 78 154q36 71 108 71t72 -59q0 -21 -45 -229q123 0 237 -7l-26 -145q-126 -6 -242 -6l-61 -299q-27 -139 -27 -203q0 -46 24 -72t72 -26q61 0 144 24l28 -141q-139 -68 -301 -68q-97 0 -153 50.5t-56 150.5q0 39 17 139 q44 223 92 449h-172zM573 1047q175 86 175 159q0 36 -35 60q-45 38 -45 86t32.5 82t90.5 34q64 0 100.5 -40.5t36.5 -104.5q0 -216 -318 -354z" />
<glyph unicode="&#x166;" horiz-adv-x="1363" d="M188 977q12 135 35 280q11 63 44 95t102 32h952q68 0 97.5 -21.5t29.5 -70.5q0 -36 -17.5 -134.5t-39.5 -180.5h-115q0 101 -7.5 145t-25.5 60q-21 20 -68 24t-219 4l-77 -393h311l-27 -131h-309l-74 -381q-14 -69 -14 -108t41 -50q34 -8 143 -14l-24 -135q-164 4 -318 4 q-139 0 -315 -4l24 135q96 5 127.5 13t49.5 24q20 17 41 129l73 387h-293l27 131h293l76 393q-165 0 -219 -5t-82 -23q-57 -31 -103 -205h-119z" />
<glyph unicode="&#x167;" horiz-adv-x="708" d="M57 494l21 112h147l35 158h-172l23 123q3 1 9 2q28 6 43 9.5t40.5 11.5t40.5 17t31 23t24 31q38 69 78 154q32 71 108 71q72 0 72 -59q0 -30 -43 -229q124 0 236 -7l-25 -145q-126 -6 -244 -6l-32 -154h223l-21 -112h-225l-6 -33q-27 -139 -27 -203q0 -46 24 -72t72 -26 q65 0 144 24l29 -141q-139 -68 -302 -68q-96 0 -152 50.5t-56 150.5q0 45 16 139l35 179h-146z" />
<glyph unicode="&#x168;" horiz-adv-x="1576" d="M190 1253l27 133q160 -4 303 -4q162 0 326 4l-25 -133q-95 -4 -125 -11.5t-47 -24.5q-19 -19 -39 -107q-53 -240 -96 -473q-31 -162 -31 -240q0 -126 77.5 -183.5t213.5 -57.5q107 0 192.5 30.5t131.5 87.5q34 40 60.5 105.5t40.5 118t36 153.5q8 38 80 443q8 57 8 88 q0 26 -9.5 37.5t-33.5 17.5q-33 9 -141 16l24 133q74 -2 310 -2q21 0 110 1t129 1l-26 -133q-143 -7 -166 -45q-18 -30 -39 -131l-92 -467q-38 -198 -79 -303t-114 -176q-165 -162 -485 -162q-74 0 -140.5 10.5t-130.5 36.5t-110 66t-74.5 103.5t-28.5 144.5q0 107 39 299 q14 66 36.5 173t37.5 180.5t22 115.5q13 73 13 86q0 41 -41 53q-39 12 -144 16zM674 1528q37 100 91 166.5t122 66.5q32 0 112 -32l66 -29q60 -27 92 -27t56 26.5t55 84.5l82 -29q-80 -239 -201 -239q-55 0 -135 38l-58 27q-54 25 -82 25q-34 0 -61.5 -25t-60.5 -84z" />
<glyph unicode="&#x169;" horiz-adv-x="1212" d="M90 762l27 123q61 32 134.5 51.5t119.5 19.5q71 0 103 -27t32 -89q0 -53 -33 -189l-65 -266q-19 -86 -19 -119q0 -88 96 -88q116 0 246 113q5 36 33 170l110 477h222l-105 -477q-3 -14 -12.5 -58.5t-15 -72.5t-10.5 -61.5t-5 -51.5q0 -37 17 -53.5t55 -16.5q48 0 121 19 l-31 -133q-130 -56 -242 -56q-54 0 -92.5 26t-46.5 81q-2 18 -2 63q-71 -81 -169.5 -126.5t-199.5 -45.5q-99 0 -155 49t-56 140q0 74 25 180l53 209q23 100 23 149q0 38 -18 53t-58 15q-32 0 -82 -8zM387 1108q75 238 195 238q48 0 116 -31l52 -25q58 -28 90 -28 q27 0 50 25t52 81l82 -25q-30 -115 -76 -178t-104 -63q-54 0 -133 39l-47 20q-64 23 -86 23q-33 0 -56 -22.5t-53 -80.5z" />
<glyph unicode="&#x16a;" horiz-adv-x="1576" d="M190 1253l27 133q160 -4 303 -4q162 0 326 4l-25 -133q-95 -4 -125 -11.5t-47 -24.5q-19 -19 -39 -107q-53 -240 -96 -473q-31 -162 -31 -240q0 -126 77.5 -183.5t213.5 -57.5q107 0 192.5 30.5t131.5 87.5q34 40 60.5 105.5t40.5 118t36 153.5q8 38 80 443q8 57 8 88 q0 26 -9.5 37.5t-33.5 17.5q-33 9 -141 16l24 133q74 -2 310 -2q21 0 110 1t129 1l-26 -133q-143 -7 -166 -45q-18 -30 -39 -131l-92 -467q-38 -198 -79 -303t-114 -176q-165 -162 -485 -162q-74 0 -140.5 10.5t-130.5 36.5t-110 66t-74.5 103.5t-28.5 144.5q0 107 39 299 q14 66 36.5 173t37.5 180.5t22 115.5q13 73 13 86q0 41 -41 53q-39 12 -144 16zM678 1542l31 148h569l-29 -148h-571z" />
<glyph unicode="&#x16b;" horiz-adv-x="1212" d="M90 762l27 123q61 32 134.5 51.5t119.5 19.5q71 0 103 -27t32 -89q0 -53 -33 -189l-65 -266q-19 -86 -19 -119q0 -88 96 -88q116 0 246 113q5 36 33 170l110 477h222l-105 -477q-3 -14 -12.5 -58.5t-15 -72.5t-10.5 -61.5t-5 -51.5q0 -37 17 -53.5t55 -16.5q48 0 121 19 l-31 -133q-130 -56 -242 -56q-54 0 -92.5 26t-46.5 81q-2 18 -2 63q-71 -81 -169.5 -126.5t-199.5 -45.5q-99 0 -155 49t-56 140q0 74 25 180l53 209q23 100 23 149q0 38 -18 53t-58 15q-32 0 -82 -8zM422 1133l29 147h528l-29 -147h-528z" />
<glyph unicode="&#x16c;" horiz-adv-x="1576" d="M190 1253l27 133q160 -4 303 -4q162 0 326 4l-25 -133q-95 -4 -125 -11.5t-47 -24.5q-19 -19 -39 -107q-53 -240 -96 -473q-31 -162 -31 -240q0 -126 77.5 -183.5t213.5 -57.5q107 0 192.5 30.5t131.5 87.5q34 40 60.5 105.5t40.5 118t36 153.5q8 38 80 443q8 57 8 88 q0 26 -9.5 37.5t-33.5 17.5q-33 9 -141 16l24 133q74 -2 310 -2q21 0 110 1t129 1l-26 -133q-143 -7 -166 -45q-18 -30 -39 -131l-92 -467q-38 -198 -79 -303t-114 -176q-165 -162 -485 -162q-74 0 -140.5 10.5t-130.5 36.5t-110 66t-74.5 103.5t-28.5 144.5q0 107 39 299 q14 66 36.5 173t37.5 180.5t22 115.5q13 73 13 86q0 41 -41 53q-39 12 -144 16zM686 1741q0 19 4 65l86 6q2 -80 50.5 -126t140.5 -46q181 0 235 172l86 -4q-20 -152 -112 -234.5t-230 -82.5q-123 0 -191.5 60.5t-68.5 189.5z" />
<glyph unicode="&#x16d;" horiz-adv-x="1212" d="M90 762l27 123q61 32 134.5 51.5t119.5 19.5q71 0 103 -27t32 -89q0 -53 -33 -189l-65 -266q-19 -86 -19 -119q0 -88 96 -88q116 0 246 113q5 36 33 170l110 477h222l-105 -477q-3 -14 -12.5 -58.5t-15 -72.5t-10.5 -61.5t-5 -51.5q0 -37 17 -53.5t55 -16.5q48 0 121 19 l-31 -133q-130 -56 -242 -56q-54 0 -92.5 26t-46.5 81q-2 18 -2 63q-71 -81 -169.5 -126.5t-199.5 -45.5q-99 0 -155 49t-56 140q0 74 25 180l53 209q23 100 23 149q0 38 -18 53t-58 15q-32 0 -82 -8zM430 1321q0 22 4 72l86 8q2 -82 42.5 -127t121.5 -45q161 0 217 172 l86 -6q-20 -155 -101.5 -236.5t-211.5 -81.5q-244 0 -244 244z" />
<glyph unicode="&#x16e;" horiz-adv-x="1576" d="M190 1253l27 133q160 -4 303 -4q162 0 326 4l-25 -133q-95 -4 -125 -11.5t-47 -24.5q-19 -19 -39 -107q-53 -240 -96 -473q-31 -162 -31 -240q0 -126 77.5 -183.5t213.5 -57.5q107 0 192.5 30.5t131.5 87.5q34 40 60.5 105.5t40.5 118t36 153.5q8 38 80 443q8 57 8 88 q0 26 -9.5 37.5t-33.5 17.5q-33 9 -141 16l24 133q74 -2 310 -2q21 0 110 1t129 1l-26 -133q-143 -7 -166 -45q-18 -30 -39 -131l-92 -467q-38 -198 -79 -303t-114 -176q-165 -162 -485 -162q-74 0 -140.5 10.5t-130.5 36.5t-110 66t-74.5 103.5t-28.5 144.5q0 107 39 299 q14 66 36.5 173t37.5 180.5t22 115.5q13 73 13 86q0 41 -41 53q-39 12 -144 16zM797 1624q0 90 61 149.5t148 59.5q79 0 128.5 -47.5t49.5 -126.5q0 -88 -58 -148.5t-149 -60.5q-77 0 -128.5 48t-51.5 126zM889 1634q0 -46 25.5 -74t68.5 -28q47 0 78 33.5t31 91.5 q0 44 -27.5 69t-67.5 25q-46 0 -77 -31.5t-31 -85.5z" />
<glyph unicode="&#x16f;" horiz-adv-x="1212" d="M90 762l27 123q61 32 134.5 51.5t119.5 19.5q71 0 103 -27t32 -89q0 -53 -33 -189l-65 -266q-19 -86 -19 -119q0 -88 96 -88q116 0 246 113q5 36 33 170l110 477h222l-105 -477q-3 -14 -12.5 -58.5t-15 -72.5t-10.5 -61.5t-5 -51.5q0 -37 17 -53.5t55 -16.5q48 0 121 19 l-31 -133q-130 -56 -242 -56q-54 0 -92.5 26t-46.5 81q-2 18 -2 63q-71 -81 -169.5 -126.5t-199.5 -45.5q-99 0 -155 49t-56 140q0 74 25 180l53 209q23 100 23 149q0 38 -18 53t-58 15q-32 0 -82 -8zM500 1243q0 88 61 147.5t148 59.5q79 0 128.5 -47.5t49.5 -126.5 q0 -88 -58 -148.5t-149 -60.5q-77 0 -128.5 47.5t-51.5 128.5zM592 1251q0 -46 25.5 -73t68.5 -27q47 0 78 33t31 90q0 44 -27.5 70t-67.5 26q-46 0 -77 -32.5t-31 -86.5z" />
<glyph unicode="&#x170;" horiz-adv-x="1576" d="M190 1253l27 133q160 -4 303 -4q162 0 326 4l-25 -133q-95 -4 -125 -11.5t-47 -24.5q-19 -19 -39 -107q-53 -240 -96 -473q-31 -162 -31 -240q0 -126 77.5 -183.5t213.5 -57.5q107 0 192.5 30.5t131.5 87.5q34 40 60.5 105.5t40.5 118t36 153.5q8 38 80 443q8 57 8 88 q0 26 -9.5 37.5t-33.5 17.5q-33 9 -141 16l24 133q74 -2 310 -2q21 0 110 1t129 1l-26 -133q-143 -7 -166 -45q-18 -30 -39 -131l-92 -467q-38 -198 -79 -303t-114 -176q-165 -162 -485 -162q-74 0 -140.5 10.5t-130.5 36.5t-110 66t-74.5 103.5t-28.5 144.5q0 107 39 299 q14 66 36.5 173t37.5 180.5t22 115.5q13 73 13 86q0 41 -41 53q-39 12 -144 16zM655 1540l238 254q41 43 66 58.5t55 15.5q35 0 58.5 -26t23.5 -64q0 -54 -95 -115l-292 -195zM997 1540l240 254q41 42 65.5 58t53.5 16q37 0 60.5 -25.5t23.5 -64.5q0 -53 -94 -115l-293 -195 z" />
<glyph unicode="&#x171;" horiz-adv-x="1212" d="M90 762l27 123q61 32 134.5 51.5t119.5 19.5q71 0 103 -27t32 -89q0 -53 -33 -189l-65 -266q-19 -86 -19 -119q0 -88 96 -88q116 0 246 113q5 36 33 170l110 477h222l-105 -477q-3 -14 -12.5 -58.5t-15 -72.5t-10.5 -61.5t-5 -51.5q0 -37 17 -53.5t55 -16.5q48 0 121 19 l-31 -133q-130 -56 -242 -56q-54 0 -92.5 26t-46.5 81q-2 18 -2 63q-71 -81 -169.5 -126.5t-199.5 -45.5q-99 0 -155 49t-56 140q0 74 25 180l53 209q23 100 23 149q0 38 -18 53t-58 15q-32 0 -82 -8zM422 1124l186 281q33 50 57.5 67t53.5 17q33 0 59.5 -22t26.5 -58 q0 -47 -74 -115l-239 -229zM735 1124l187 281q33 51 56 67.5t52 16.5q35 0 61.5 -22t26.5 -58q0 -47 -74 -115l-241 -229z" />
<glyph unicode="&#x172;" horiz-adv-x="1576" d="M190 1253l27 133q160 -4 303 -4q162 0 326 4l-25 -133q-95 -4 -125 -11.5t-47 -24.5q-19 -19 -39 -107q-53 -240 -96 -473q-31 -162 -31 -240q0 -126 77.5 -183.5t213.5 -57.5q107 0 192.5 30.5t131.5 87.5q34 40 60.5 105.5t40.5 118t36 153.5q8 38 80 443q8 57 8 88 q0 26 -9.5 37.5t-33.5 17.5q-33 9 -141 16l24 133q74 -2 310 -2q21 0 110 1t129 1l-26 -133q-143 -7 -166 -45q-18 -30 -39 -131l-92 -467q-38 -198 -79 -303t-114 -176q-144 -141 -410 -160q-176 -179 -176 -307q0 -48 27.5 -79t79.5 -31q64 0 141 30l33 -80 q-45 -33 -110 -57.5t-128 -24.5q-101 0 -152.5 56t-51.5 139q0 167 217 354q-69 3 -130 16t-119 40t-99 67t-66 100.5t-25 135.5q0 107 39 299q14 66 36.5 173t37.5 180.5t22 115.5q13 73 13 86q0 41 -41 53q-39 12 -144 16z" />
<glyph unicode="&#x173;" horiz-adv-x="1212" d="M90 762l27 123q61 32 134.5 51.5t119.5 19.5q71 0 103 -27t32 -89q0 -53 -33 -189l-65 -266q-19 -86 -19 -119q0 -88 96 -88q116 0 246 113q5 36 33 170l110 477h222l-105 -477q-3 -14 -12.5 -58.5t-15 -72.5t-10.5 -61.5t-5 -51.5q0 -37 17 -53.5t55 -16.5q48 0 121 19 l-31 -133q-97 -43 -199 -53q-93 -86 -143.5 -161.5t-50.5 -148.5q0 -43 27 -71.5t75 -28.5q66 0 137 31l29 -78q-112 -78 -229 -78q-96 0 -146.5 51.5t-50.5 128.5q0 175 248 363q-67 24 -78 96q-2 18 -2 63q-71 -81 -169.5 -126.5t-199.5 -45.5q-99 0 -155 49t-56 140 q0 74 25 180l53 209q23 100 23 149q0 38 -18 53t-58 15q-32 0 -82 -8z" />
<glyph unicode="&#x174;" horiz-adv-x="2097" d="M180 1253l25 133q258 -4 305 -4q229 0 315 4l-26 -133q-106 -3 -150 -18q-13 -6 -22.5 -13.5t-15.5 -19.5t-9.5 -20.5t-4.5 -27t-1.5 -28t0 -33.5t0.5 -34q23 -682 25 -754q144 316 473 971q29 57 61.5 86t93.5 29t88 -26t33 -85q68 -695 84 -979q30 75 71 170.5 t111.5 260.5t137.5 325q41 108 41 137q0 55 -162 58q-17 1 -25 1l27 133q196 -4 297 -4q114 0 270 4l-24 -133q-89 -5 -130 -32q-22 -17 -41 -50t-49 -98l-450 -985q-28 -62 -67 -90.5t-99 -28.5q-61 0 -90 24.5t-33 84.5q-15 173 -33 377.5t-25.5 286t-14 167.5t-9.5 144 q-111 -245 -467 -965q-31 -62 -70 -90.5t-96 -28.5q-60 0 -91 25.5t-34 83.5l-59 1026q-3 52 -12 82t-31 41q-33 20 -117 26zM934 1532l280 270q50 47 93 47q26 0 42.5 -11t34.5 -38l187 -274l-66 -62l-223 193l-291 -193z" />
<glyph unicode="&#x175;" horiz-adv-x="1652" d="M72 764l26 123q61 32 134 51.5t118 19.5q71 0 101 -26.5t30 -89.5q0 -57 -26 -187l-52 -276q-16 -98 -16 -125q0 -44 16.5 -64t59.5 -20q40 0 87.5 30t88.5 76q54 65 80 119l88 508h217l-82 -487q-16 -101 -16 -162q0 -84 82 -84q99 0 206 119q69 78 108.5 192.5 t39.5 194.5q0 56 -23.5 78t-78.5 22q-34 0 -80 -8l24 127q105 63 213 63q89 0 122.5 -47t33.5 -135q0 -148 -66.5 -313.5t-169.5 -274.5q-107 -112 -222 -163.5t-220 -51.5q-147 0 -172 119q-8 36 -8 121q-75 -123 -173.5 -181.5t-185.5 -58.5q-95 0 -149.5 50t-54.5 141 q0 77 18 176l41 211q18 99 18 154q0 39 -18 53t-57 14q-36 0 -82 -8zM618 1104l265 307q41 49 90 49q58 0 80 -45l151 -328l-80 -47l-176 224l-264 -224z" />
<glyph unicode="&#x176;" horiz-adv-x="1325" d="M154 1253l26 133q226 -4 281 -4q83 0 301 4l-29 -133q-89 -3 -123 -14q-39 -12 -39 -51q0 -31 23 -92q131 -341 145 -379q88 117 301 387q54 68 54 102q0 30 -36.5 38.5t-101.5 8.5l27 133q94 -4 313 -4q105 0 193 4l-27 -133q-57 -3 -100 -30q-8 -5 -18 -15t-24 -26 t-26.5 -30.5t-34 -40.5t-36.5 -44l-426 -512l-54 -270q-12 -59 -12 -88q0 -11 3 -19t9.5 -14t13 -10.5t18.5 -7.5t22 -5t26 -3.5t27 -2t30 -1t31 -1.5l-24 -135q-218 4 -312 4q-117 0 -313 -4l27 135q95 4 126.5 12t45.5 25q17 17 35 104l55 279l-219 539q-20 49 -29 69.5 t-21.5 39.5t-25.5 28q-30 21 -102 24zM539 1532l280 270q50 47 92 47q26 0 43 -11t35 -38l187 -274l-66 -62l-223 193l-291 -193z" />
<glyph unicode="&#x177;" horiz-adv-x="1202" d="M59 -416q0 85 29 199h129q0 -41 2 -59q2 -42 27 -70q41 -41 133 -41q59 0 109.5 21t78.5 61q58 82 105 268q6 25 20.5 91t20.5 87q-163 -166 -359 -166q-100 0 -152 48.5t-52 140.5q0 60 26 180l49 209q23 100 23 149q0 38 -18 53t-58 15q-32 0 -82 -8l27 123 q61 32 134.5 51.5t119.5 19.5q71 0 103 -27t32 -89q0 -33 -33 -189l-61 -266q-19 -86 -19 -119q0 -48 21 -68t67 -20q115 0 252 123l139 637h224q-28 -134 -183 -928q-33 -170 -77 -272.5t-105 -163.5q-130 -133 -383 -133q-160 0 -233 49q-53 35 -56 94zM389 1104l264 307 q41 49 90 49q58 0 80 -45l152 -328l-80 -47l-176 224l-264 -224z" />
<glyph unicode="&#x178;" horiz-adv-x="1325" d="M154 1253l26 133q226 -4 281 -4q83 0 301 4l-29 -133q-89 -3 -123 -14q-39 -12 -39 -51q0 -31 23 -92q131 -341 145 -379q88 117 301 387q54 68 54 102q0 30 -36.5 38.5t-101.5 8.5l27 133q94 -4 313 -4q105 0 193 4l-27 -133q-57 -3 -100 -30q-8 -5 -18 -15t-24 -26 t-26.5 -30.5t-34 -40.5t-36.5 -44l-426 -512l-54 -270q-12 -59 -12 -88q0 -11 3 -19t9.5 -14t13 -10.5t18.5 -7.5t22 -5t26 -3.5t27 -2t30 -1t31 -1.5l-24 -135q-218 4 -312 4q-117 0 -313 -4l27 135q95 4 126.5 12t45.5 25q17 17 35 104l55 279l-219 539q-20 49 -29 69.5 t-21.5 39.5t-25.5 28q-30 21 -102 24zM578 1634q0 49 32.5 85t83.5 36q47 0 77 -29.5t30 -74.5q0 -56 -33 -92.5t-88 -36.5q-46 0 -74 31t-28 81zM944 1634q0 49 33 85t84 36q48 0 77 -29.5t29 -74.5q0 -57 -32 -93t-86 -36q-47 0 -76 31t-29 81z" />
<glyph unicode="&#x179;" horiz-adv-x="1316" d="M-10 0l8 78l971 1134q-305 0 -377 -3t-105 -15q-32 -12 -57 -60t-51 -151h-143q15 209 28 291q19 110 158 110h944l-12 -77l-969 -1123q63 -6 256 -6q284 0 344 51q56 41 115 185h149q-16 -93 -40 -193.5t-42 -142.5q-15 -40 -45 -59t-92 -19h-1040zM674 1546l266 230 q44 37 69.5 50t51.5 13q37 0 61.5 -26.5t24.5 -67.5q0 -60 -100 -113l-320 -164z" />
<glyph unicode="&#x17a;" horiz-adv-x="1056" d="M6 0l12 82l637 713q-164 0 -260 -7q-59 -3 -82 -40q-26 -37 -51 -134h-127q5 137 15 199q8 59 36.5 92t89.5 33h721l-14 -88l-629 -705q68 -4 164 -4q142 0 209 23q26 10 45.5 27t35 47t24 51t22.5 63h123q-18 -152 -47 -256q-23 -96 -137 -96h-787zM483 1128l219 273 q38 45 64 63.5t51 18.5q37 0 65.5 -26.5t28.5 -65.5q0 -30 -20.5 -56t-67.5 -61l-276 -211z" />
<glyph unicode="&#x17b;" horiz-adv-x="1316" d="M-10 0l8 78l971 1134q-305 0 -377 -3t-105 -15q-32 -12 -57 -60t-51 -151h-143q15 209 28 291q19 110 158 110h944l-12 -77l-969 -1123q63 -6 256 -6q284 0 344 51q56 41 115 185h149q-16 -93 -40 -193.5t-42 -142.5q-15 -40 -45 -59t-92 -19h-1040zM717 1634q0 49 32 85 t82 36q49 0 79 -29.5t30 -74.5q0 -56 -33 -92.5t-88 -36.5q-46 0 -74 31t-28 81z" />
<glyph unicode="&#x17c;" horiz-adv-x="1056" d="M6 0l12 82l637 713q-164 0 -260 -7q-59 -3 -82 -40q-26 -37 -51 -134h-127q5 137 15 199q8 59 36.5 92t89.5 33h721l-14 -88l-629 -705q68 -4 164 -4q142 0 209 23q26 10 45.5 27t35 47t24 51t22.5 63h123q-18 -152 -47 -256q-23 -96 -137 -96h-787zM512 1262 q0 49 32.5 85.5t82.5 36.5q48 0 78 -30.5t30 -75.5q0 -56 -33 -92.5t-88 -36.5q-46 0 -74 31t-28 82z" />
<glyph unicode="&#x17d;" horiz-adv-x="1316" d="M-10 0l8 78l971 1134q-305 0 -377 -3t-105 -15q-32 -12 -57 -60t-51 -151h-143q15 209 28 291q19 110 158 110h944l-12 -77l-969 -1123q63 -6 256 -6q284 0 344 51q56 41 115 185h149q-16 -93 -40 -193.5t-42 -142.5q-15 -40 -45 -59t-92 -19h-1040zM539 1790l65 61 l223 -192l291 192l58 -67l-279 -271q-50 -47 -94 -47q-25 0 -42.5 12t-35.5 38z" />
<glyph unicode="&#x17e;" horiz-adv-x="1056" d="M6 0l12 82l637 713q-164 0 -260 -7q-59 -3 -82 -40q-26 -37 -51 -134h-127q5 137 15 199q8 59 36.5 92t89.5 33h721l-14 -88l-629 -705q68 -4 164 -4q142 0 209 23q26 10 45.5 27t35 47t24 51t22.5 63h123q-18 -152 -47 -256q-23 -96 -137 -96h-787zM346 1413l80 47 l176 -223l264 223l66 -63l-264 -310q-38 -47 -90 -47q-59 0 -80 47z" />
<glyph unicode="&#x17f;" horiz-adv-x="614" d="M-346 -440q0 70 33 182h118q0 -79 18 -109t77 -30q32 0 63 18t53 49q41 60 70 228l186 1083q58 331 230 440q122 76 276 76q97 0 170 -31q58 -24 58 -94q0 -87 -31 -209h-127q0 12 -1 33t-1 29q0 54 -27.5 76t-83.5 22q-84 0 -137 -70q-47 -56 -86 -252l-205 -1089 q-27 -146 -66 -233t-100 -142q-112 -100 -278 -100q-209 0 -209 123z" />
<glyph unicode="&#x192;" horiz-adv-x="1134" d="M-129 -238q0 57 31 179h118q2 -85 21 -113.5t80 -28.5q48 0 81 25t60 74q42 78 94 376l66 381h-205l27 144h205q42 258 100 352q68 113 167 167t238 54q116 0 189 -33q40 -19 54.5 -44t14.5 -74q0 -67 -24 -185h-133q0 88 -27 121t-102 33q-97 0 -150 -82 q-50 -81 -80 -266l-8 -43h268l-24 -144h-268l-82 -454q-45 -253 -115 -373q-117 -209 -356 -209q-51 0 -89.5 5.5t-75 20t-56 44t-19.5 73.5z" />
<glyph unicode="&#x1fa;" horiz-adv-x="1503" d="M-74 -2l27 137q93 5 137 37q24 19 47.5 51.5t75.5 122.5l555 950q37 61 61 80q-63 47 -63 133q0 81 57 141t142 60q81 0 130.5 -45t49.5 -125q-3 -115 -92 -168q21 -27 26 -67l162 -1002q10 -61 22 -89.5t33 -49.5q11 -11 47 -19.5t82 -9.5l-26 -137q-164 4 -281 4 q-154 0 -338 -4l27 137q75 3 125 15q34 7 47.5 24.5t13.5 50.5q0 47 -8 99l-20 139h-467l-78 -129q-58 -97 -58 -133q0 -29 23 -43q32 -17 164 -23l-27 -137q-160 4 -358 4q-78 0 -238 -4zM582 639h356q-46 294 -72 508q-102 -190 -284 -508zM858 1522q0 -45 24.5 -72 t65.5 -27q44 0 74.5 34t30.5 83q0 44 -26.5 67t-65.5 23q-43 0 -73 -29.5t-30 -78.5zM862 1810l232 199q41 35 66 46t52 11q26 0 46 -23.5t20 -53.5q0 -31 -24.5 -55.5t-73.5 -49.5l-275 -139z" />
<glyph unicode="&#x1fb;" horiz-adv-x="1193" d="M72 299q0 127 58 268.5t155 235.5q157 151 409 151q47 0 105 -11.5t96 -33.5l39 70h172l-129 -522q-41 -163 -41 -240q0 -33 16 -49t56 -16q62 0 120 18l-30 -135q-122 -53 -238 -53q-81 0 -113 40t-32 123q-141 -170 -334 -170q-155 0 -232 85.5t-77 238.5zM311 330 q0 -172 154 -172q125 0 248 123q6 51 39 182l73 276q-65 39 -155 39q-121 0 -209 -82q-64 -58 -107 -163.5t-43 -202.5zM582 1243q0 89 59.5 148t146.5 59q79 0 129 -47.5t50 -126.5q0 -88 -58 -148.5t-149 -60.5q-76 0 -127 47.5t-51 128.5zM672 1251q0 -46 26 -73t70 -27 q47 0 76.5 33t29.5 90q0 44 -27 70t-65 26q-47 0 -78.5 -32.5t-31.5 -86.5zM700 1569l203 250q38 47 64 65.5t53 18.5q35 0 63.5 -26.5t28.5 -64.5q0 -30 -20.5 -55.5t-67.5 -60.5l-258 -193z" />
<glyph unicode="&#x1fc;" horiz-adv-x="2138" d="M-29 -2l27 137q118 6 162 37q64 44 145 145l645 779q60 74 60 108q0 17 -10 25.5t-35 13.5q-26 4 -146 10l25 131h1151q125 0 125 -88q0 -96 -41 -270h-127q0 78 -8.5 107.5t-28.5 44.5q-21 15 -59.5 21.5t-135.5 6.5h-213l-82 -411h115q44 0 72.5 2t52 9.5t36 15.5 t24.5 28t18.5 38.5t17.5 55.5h123q-46 -191 -88 -463h-117q0 48 -12 84q-13 44 -41.5 56t-112.5 12h-118l-64 -326q-10 -60 -10 -71q0 -49 41 -54q53 -8 176 -8q228 0 301 55q45 33 111 160h129q-53 -249 -97 -323q-41 -66 -186 -66h-946l27 133q89 3 139 19q34 8 45 45 q4 11 26 114l33 162h-461l-135 -162q-41 -49 -55 -73.5t-14 -53.5q0 -9 3 -15.5t10 -11.5t14 -9t19.5 -6.5t21.5 -4t25 -2t25.5 -1t27.5 -1t26 -0.5l-25 -135q-196 4 -336 4q-99 0 -295 -4zM793 647h358l102 514q4 24 4 29q0 12 -12 12q-2 0 -4 -0.5t-4 -2t-3.5 -3 l-4.5 -4.5t-5.5 -6t-7 -8.5t-8.5 -10.5q-70 -90 -415 -520zM1341 1546l267 230q44 37 69.5 50t51.5 13q37 0 61.5 -26.5t24.5 -67.5q0 -59 -101 -113l-319 -164z" />
<glyph unicode="&#x1fd;" horiz-adv-x="1632" d="M72 299q0 127 58 268.5t155 235.5q157 151 409 151q49 0 105 -11t88 -32l41 82h151l-30 -129q48 51 121 77t135 26q142 0 216 -67.5t74 -170.5q0 -108 -57 -178t-197 -110.5t-368 -41.5q-4 -16 -4 -53q0 -81 56 -134.5t157 -53.5q144 0 325 102l68 -129 q-209 -160 -471 -160q-118 0 -208 53t-122 158q-175 -207 -395 -207q-156 0 -231.5 85t-75.5 239zM311 326q0 -81 38.5 -124.5t113.5 -43.5q70 0 147 46.5t142 123.5q7 113 75 411q-73 39 -159 39q-119 0 -207 -82q-64 -58 -107 -164.5t-43 -205.5zM854 1128l219 273 q38 45 64 63.5t51 18.5q37 0 65.5 -26.5t28.5 -65.5q0 -30 -20.5 -56t-67.5 -61l-276 -211zM993 555q393 5 393 156q0 45 -24.5 66.5t-91.5 21.5q-40 0 -86 -15t-76 -43q-93 -81 -115 -186z" />
<glyph unicode="&#x1fe;" horiz-adv-x="1482" d="M106 8l130 154q-109 140 -109 370q0 190 65 374t193 308q207 201 518 201q194 0 328 -78l123 146l92 -78l-121 -143q123 -135 123 -371q0 -192 -55 -377t-174 -317q-98 -109 -234.5 -166.5t-286.5 -57.5q-233 0 -376 105l-123 -146zM385 545q0 -96 23 -180l675 798 q-82 70 -217 70q-199 0 -321 -160q-75 -99 -117.5 -246t-42.5 -282zM469 252q82 -94 244 -94q199 0 313 159q78 107 117 262.5t39 303.5q0 97 -29 176zM741 1546l267 230q44 37 69 50t51 13q37 0 61.5 -26.5t24.5 -67.5q0 -60 -100 -113l-319 -164z" />
<glyph unicode="&#x1ff;" horiz-adv-x="1093" d="M43 -8l102 119q-71 96 -71 249q0 120 36.5 238.5t114.5 206.5q143 162 391 162q132 0 230 -49l102 118l82 -75l-94 -109q90 -93 90 -250q0 -128 -40 -256t-122 -219q-66 -73 -169.5 -113.5t-209.5 -40.5q-157 0 -260 66l-100 -117zM307 377q0 -39 6 -74l398 461 q-47 27 -117 27q-127 0 -199 -95q-43 -60 -65.5 -147t-22.5 -172zM367 199q50 -47 143 -47q125 0 195 100q42 63 64 154.5t22 179.5q0 45 -13 86zM500 1128l219 273q38 45 64 63.5t51 18.5q37 0 65.5 -26.5t28.5 -65.5q0 -30 -20.5 -56t-67.5 -61l-277 -211z" />
<glyph unicode="&#x218;" horiz-adv-x="1183" d="M72 195q3 109 30 243h127q6 -137 60 -202q31 -38 97.5 -62t158.5 -24q142 0 208 56.5t66 141.5q0 59 -32.5 103t-102.5 79l-231 117q-224 112 -224 330q0 209 152.5 323.5t419.5 114.5q352 0 352 -160q0 -118 -35 -258h-127q0 91 -20 138t-58 71q-53 33 -172 33 q-129 0 -193.5 -56t-64.5 -141q0 -56 31.5 -99.5t110.5 -82.5l225 -110q227 -114 227 -324q0 -116 -43.5 -204.5t-122 -142.5t-182 -81t-229.5 -27q-63 0 -122 7t-115.5 24t-98 42t-67 64t-25.5 87zM297 -512q174 81 174 158q0 33 -35 61q-45 33 -45 84q0 48 32.5 82.5 t90.5 34.5q64 0 100.5 -41t36.5 -105q0 -217 -317 -354z" />
<glyph unicode="&#x219;" horiz-adv-x="944" d="M61 147q3 85 25 193h117q1 -42 9.5 -72.5t16 -42.5t21.5 -28q52 -52 168 -52q86 0 130 23.5t44 64.5q0 33 -17.5 56.5t-60.5 46.5l-166 84q-184 94 -184 244q0 81 35 141.5t96.5 95t135 50.5t159.5 16q146 0 225 -43q55 -28 55 -107q0 -68 -24 -182h-117q-8 107 -47 133 q-42 29 -133 29q-157 0 -160 -95q0 -31 19.5 -53t68.5 -45l162 -78q182 -89 182 -239q0 -70 -24 -125.5t-64 -90.5t-97 -58t-118 -32.5t-131 -9.5q-143 0 -235 43q-52 22 -71.5 54.5t-19.5 78.5zM168 -512q174 81 174 158q0 33 -35 61q-45 33 -45 84q0 48 32.5 82.5 t90.5 34.5q64 0 100.5 -41t36.5 -105q0 -217 -317 -354z" />
<glyph unicode="&#x21a;" horiz-adv-x="1363" d="M188 977q10 105 37 280q11 64 43 95.5t101 31.5h952q68 0 97.5 -21.5t29.5 -70.5q0 -36 -17.5 -134.5t-39.5 -180.5h-115q0 101 -7.5 145t-25.5 60q-21 20 -68 24t-219 4l-176 -905q-14 -69 -14 -108t41 -50q34 -8 143 -14l-24 -135q-164 4 -318 4q-139 0 -315 -4l24 135 q66 4 103.5 10t49.5 12t24 17q20 18 41 127l176 911q-165 0 -219 -5t-82 -23q-57 -31 -103 -205h-119zM375 -512q174 81 174 158q0 33 -35 61q-45 33 -45 84q0 48 32.5 82.5t90.5 34.5q64 0 100.5 -41t36.5 -105q0 -217 -317 -354z" />
<glyph unicode="&#x21b;" horiz-adv-x="708" d="M76 764l22 123q97 22 123 33q42 17 66 61q23 41 78 154q36 71 108 71t72 -59q0 -21 -45 -229q123 0 237 -7l-26 -145q-126 -6 -242 -6l-61 -299q-27 -139 -27 -203q0 -46 24 -72t72 -26q61 0 144 24l28 -141q-139 -68 -301 -68q-97 0 -153 50.5t-56 150.5q0 39 17 139 q44 223 92 449h-172zM84 -512q174 81 174 158q0 33 -35 61q-45 33 -45 84q0 48 32.5 82.5t90.5 34.5q64 0 100.5 -41t36.5 -105q0 -217 -317 -354z" />
<glyph unicode="&#x2c6;" horiz-adv-x="595" d="M6 1104l264 307q41 49 90 49q58 0 80 -45l152 -328l-80 -47l-176 224l-264 -224z" />
<glyph unicode="&#x2c7;" horiz-adv-x="595" d="M6 1413l80 47l176 -223l264 223l66 -63l-264 -310q-38 -47 -90 -47q-59 0 -80 47z" />
<glyph unicode="&#x2d8;" horiz-adv-x="595" d="M18 1321q0 9 5 72l86 8q2 -82 42 -127t121 -45q161 0 217 172l86 -6q-20 -155 -101.5 -236.5t-211.5 -81.5q-244 0 -244 244z" />
<glyph unicode="&#x2d9;" horiz-adv-x="595" d="M186 1262q0 49 32.5 85.5t82.5 36.5q49 0 79 -30.5t30 -75.5q0 -56 -33 -92.5t-88 -36.5q-46 0 -74.5 31t-28.5 82z" />
<glyph unicode="&#x2da;" horiz-adv-x="595" d="M104 1243q0 88 61 147.5t148 59.5q79 0 129 -47.5t50 -126.5q0 -88 -58 -148.5t-149 -60.5q-78 0 -129.5 47.5t-51.5 128.5zM197 1251q0 -46 25.5 -73t68.5 -27q47 0 77.5 33t30.5 90q0 44 -27 70t-67 26q-46 0 -77 -32.5t-31 -86.5z" />
<glyph unicode="&#x2db;" horiz-adv-x="595" d="M86 -375q0 99 72.5 194t208.5 193h108q-112 -100 -171.5 -181t-59.5 -161q0 -43 27 -71.5t75 -28.5q66 0 137 31l29 -78q-112 -78 -229 -78q-96 0 -146.5 51.5t-50.5 128.5z" />
<glyph unicode="&#x2dc;" horiz-adv-x="595" d="M-20 1130q75 238 194 238q49 0 117 -31l51 -24q60 -29 90 -29q27 0 50.5 25.5t52.5 81.5l81 -25q-30 -116 -76 -179t-104 -63q-54 0 -133 39l-47 21q-61 22 -86 22q-33 0 -56 -22.5t-53 -79.5z" />
<glyph unicode="&#x2dd;" horiz-adv-x="604" d="M-47 1124l186 281q33 50 57.5 67t53.5 17q33 0 59.5 -22t26.5 -58q0 -47 -74 -115l-239 -229zM266 1124l187 281q33 51 56 67.5t52 16.5q35 0 61.5 -22t26.5 -58q0 -47 -74 -115l-241 -229z" />
<glyph unicode="&#x394;" horiz-adv-x="1437" d="M-37 0l12 70l803 1247q36 56 72 80t88 24q51 0 80 -19t43 -81l297 -1251l-10 -70h-1385zM279 213h794l-215 911z" />
<glyph unicode="&#x3a9;" horiz-adv-x="1660" d="M109 106q0 108 26 306h103q10 -91 22.5 -130.5t30.5 -60.5q26 -28 75.5 -35.5t198.5 -7.5l4 25q-135 57 -221 192t-86 310q0 146 52 276t144 226t226.5 152t290.5 56q117 0 216 -30.5t174.5 -89.5t118 -153.5t42.5 -215.5q0 -247 -126 -431t-356 -292l-4 -25 q141 0 202.5 9.5t94.5 37.5q40 32 107 187h100q-3 -17 -9 -57.5t-8.5 -55.5t-8 -46.5t-10 -51t-10.5 -47t-13 -54.5q-26 -100 -144 -100h-477l41 305q371 156 371 580q0 170 -92 259t-228 89q-88 0 -163 -30t-128 -81.5t-91 -121.5t-56 -149.5t-18 -164.5 q0 -148 65.5 -241.5t171.5 -141.5l-41 -303h-481q-60 0 -83 26.5t-23 79.5z" />
<glyph unicode="&#x3bc;" horiz-adv-x="1255" d="M35 -418q0 12 10 62l205 909q22 96 22 149q0 38 -17.5 53t-57.5 15q-36 0 -82 -8l26 123q61 32 135 51.5t119 19.5q71 0 103 -27t32 -89q0 -57 -32 -189l-66 -268q-18 -71 -18 -121q0 -86 94 -86q118 0 246 111q20 111 34 174l113 477h219l-104 -477q-3 -13 -10.5 -47.5 t-12 -56t-10 -50.5t-8 -51.5t-2.5 -38.5q0 -37 16.5 -53.5t54.5 -16.5q48 0 121 19l-32 -133q-127 -56 -240 -56q-54 0 -93 28t-46 83q-2 18 -2 59q-126 -157 -295 -157q-87 0 -119 43q-50 -342 -68 -432q-11 -52 -42 -76.5t-89 -24.5q-104 0 -104 82z" />
<glyph unicode="&#x3c0;" horiz-adv-x="1294" d="M20 -2l25 137q110 2 143 35q18 16 35 98l76 387q12 61 12 84q0 37 -39 45q-42 8 -108 11l26 143h1106l-26 -141q-74 -4 -101.5 -10t-38.5 -19q-20 -22 -34 -104l-70 -345q-12 -61 -12 -92q0 -37 18.5 -58.5t54.5 -21.5q54 0 91 11l10 -125q-91 -43 -230 -43 q-78 0 -125 41.5t-47 118.5q0 55 19 155l94 479h-352l-101 -512q-10 -51 -10 -79q0 -42 45 -48q5 -1 23 -3t37.5 -4t38.5 -3l-27 -137q-160 4 -274 4q-91 0 -259 -4z" />
<glyph unicode="&#x1e80;" horiz-adv-x="2097" d="M180 1253l25 133q258 -4 305 -4q229 0 315 4l-26 -133q-106 -3 -150 -18q-13 -6 -22.5 -13.5t-15.5 -19.5t-9.5 -20.5t-4.5 -27t-1.5 -28t0 -33.5t0.5 -34q23 -682 25 -754q144 316 473 971q29 57 61.5 86t93.5 29t88 -26t33 -85q68 -695 84 -979q30 75 71 170.5 t111.5 260.5t137.5 325q41 108 41 137q0 55 -162 58q-17 1 -25 1l27 133q196 -4 297 -4q114 0 270 4l-24 -133q-89 -5 -130 -32q-22 -17 -41 -50t-49 -98l-450 -985q-28 -62 -67 -90.5t-99 -28.5q-61 0 -90 24.5t-33 84.5q-15 173 -33 377.5t-25.5 286t-14 167.5t-9.5 144 q-111 -245 -467 -965q-31 -62 -70 -90.5t-96 -28.5q-60 0 -91 25.5t-34 83.5l-59 1026q-3 52 -12 82t-31 41q-33 20 -117 26zM948 1784q0 40 29 68t67 28q28 0 52 -17.5t67 -68.5l213 -260l-63 -64l-281 201q-84 60 -84 113z" />
<glyph unicode="&#x1e81;" horiz-adv-x="1652" d="M72 764l26 123q61 32 134 51.5t118 19.5q71 0 101 -26.5t30 -89.5q0 -57 -26 -187l-52 -276q-16 -98 -16 -125q0 -44 16.5 -64t59.5 -20q40 0 87.5 30t88.5 76q54 65 80 119l88 508h217l-82 -487q-16 -101 -16 -162q0 -84 82 -84q99 0 206 119q69 78 108.5 192.5 t39.5 194.5q0 56 -23.5 78t-78.5 22q-34 0 -80 -8l24 127q105 63 213 63q89 0 122.5 -47t33.5 -135q0 -148 -66.5 -313.5t-169.5 -274.5q-107 -112 -222 -163.5t-220 -51.5q-147 0 -172 119q-8 36 -8 121q-75 -123 -173.5 -181.5t-185.5 -58.5q-95 0 -149.5 50t-54.5 141 q0 77 18 176l41 211q18 99 18 154q0 39 -18 53t-57 14q-36 0 -82 -8zM643 1419q0 39 30.5 65.5t67.5 26.5q31 0 55 -19.5t58 -78.5l176 -297l-74 -53l-243 244q-39 39 -54.5 62.5t-15.5 49.5z" />
<glyph unicode="&#x1e82;" horiz-adv-x="2097" d="M180 1253l25 133q258 -4 305 -4q229 0 315 4l-26 -133q-106 -3 -150 -18q-13 -6 -22.5 -13.5t-15.5 -19.5t-9.5 -20.5t-4.5 -27t-1.5 -28t0 -33.5t0.5 -34q23 -682 25 -754q144 316 473 971q29 57 61.5 86t93.5 29t88 -26t33 -85q68 -695 84 -979q30 75 71 170.5 t111.5 260.5t137.5 325q41 108 41 137q0 55 -162 58q-17 1 -25 1l27 133q196 -4 297 -4q114 0 270 4l-24 -133q-89 -5 -130 -32q-22 -17 -41 -50t-49 -98l-450 -985q-28 -62 -67 -90.5t-99 -28.5q-61 0 -90 24.5t-33 84.5q-15 173 -33 377.5t-25.5 286t-14 167.5t-9.5 144 q-111 -245 -467 -965q-31 -62 -70 -90.5t-96 -28.5q-60 0 -91 25.5t-34 83.5l-59 1026q-3 52 -12 82t-31 41q-33 20 -117 26zM1077 1546l266 230q44 37 69.5 50t51.5 13q37 0 61.5 -26.5t24.5 -67.5q0 -60 -100 -113l-320 -164z" />
<glyph unicode="&#x1e83;" horiz-adv-x="1652" d="M72 764l26 123q61 32 134 51.5t118 19.5q71 0 101 -26.5t30 -89.5q0 -57 -26 -187l-52 -276q-16 -98 -16 -125q0 -44 16.5 -64t59.5 -20q40 0 87.5 30t88.5 76q54 65 80 119l88 508h217l-82 -487q-16 -101 -16 -162q0 -84 82 -84q99 0 206 119q69 78 108.5 192.5 t39.5 194.5q0 56 -23.5 78t-78.5 22q-34 0 -80 -8l24 127q105 63 213 63q89 0 122.5 -47t33.5 -135q0 -148 -66.5 -313.5t-169.5 -274.5q-107 -112 -222 -163.5t-220 -51.5q-147 0 -172 119q-8 36 -8 121q-75 -123 -173.5 -181.5t-185.5 -58.5q-95 0 -149.5 50t-54.5 141 q0 77 18 176l41 211q18 99 18 154q0 39 -18 53t-57 14q-36 0 -82 -8zM782 1128l219 273q38 45 64 63.5t51 18.5q37 0 65.5 -26.5t28.5 -65.5q0 -30 -20.5 -56t-67.5 -61l-276 -211z" />
<glyph unicode="&#x1e84;" horiz-adv-x="2097" d="M180 1253l25 133q258 -4 305 -4q229 0 315 4l-26 -133q-106 -3 -150 -18q-13 -6 -22.5 -13.5t-15.5 -19.5t-9.5 -20.5t-4.5 -27t-1.5 -28t0 -33.5t0.5 -34q23 -682 25 -754q144 316 473 971q29 57 61.5 86t93.5 29t88 -26t33 -85q68 -695 84 -979q30 75 71 170.5 t111.5 260.5t137.5 325q41 108 41 137q0 55 -162 58q-17 1 -25 1l27 133q196 -4 297 -4q114 0 270 4l-24 -133q-89 -5 -130 -32q-22 -17 -41 -50t-49 -98l-450 -985q-28 -62 -67 -90.5t-99 -28.5q-61 0 -90 24.5t-33 84.5q-15 173 -33 377.5t-25.5 286t-14 167.5t-9.5 144 q-111 -245 -467 -965q-31 -62 -70 -90.5t-96 -28.5q-60 0 -91 25.5t-34 83.5l-59 1026q-3 52 -12 82t-31 41q-33 20 -117 26zM975 1634q0 49 33 85t84 36q47 0 76.5 -29.5t29.5 -74.5q0 -56 -33 -92.5t-88 -36.5q-46 0 -74 31t-28 81zM1341 1634q0 49 33 85t84 36 q49 0 78 -29.5t29 -74.5q0 -57 -32.5 -93t-86.5 -36q-47 0 -76 31t-29 81z" />
<glyph unicode="&#x1e85;" horiz-adv-x="1652" d="M72 764l26 123q61 32 134 51.5t118 19.5q71 0 101 -26.5t30 -89.5q0 -57 -26 -187l-52 -276q-16 -98 -16 -125q0 -44 16.5 -64t59.5 -20q40 0 87.5 30t88.5 76q54 65 80 119l88 508h217l-82 -487q-16 -101 -16 -162q0 -84 82 -84q99 0 206 119q69 78 108.5 192.5 t39.5 194.5q0 56 -23.5 78t-78.5 22q-34 0 -80 -8l24 127q105 63 213 63q89 0 122.5 -47t33.5 -135q0 -148 -66.5 -313.5t-169.5 -274.5q-107 -112 -222 -163.5t-220 -51.5q-147 0 -172 119q-8 36 -8 121q-75 -123 -173.5 -181.5t-185.5 -58.5q-95 0 -149.5 50t-54.5 141 q0 77 18 176l41 211q18 99 18 154q0 39 -18 53t-57 14q-36 0 -82 -8zM659 1262q0 49 33 85.5t84 36.5q47 0 77 -30.5t30 -75.5q0 -56 -33 -92.5t-88 -36.5q-46 0 -74.5 31t-28.5 82zM991 1262q0 49 33.5 85.5t83.5 36.5q48 0 77 -30t29 -76q0 -56 -32.5 -92.5t-85.5 -36.5 q-47 0 -76 31t-29 82z" />
</font>
</defs>
</svg>
