<?xml version="1.0" standalone="no"?>
<!DOCTYPE svg PUBLIC "-//W3C//DTD SVG 1.1//EN" "http://www.w3.org/Graphics/SVG/1.1/DTD/svg11.dtd" >
<svg xmlns="http://www.w3.org/2000/svg">
<metadata></metadata>
<defs>
<font id="capita-regularregular" horiz-adv-x="780" >
<font-face units-per-em="2048" ascent="1485" descent="-563" />
<missing-glyph horiz-adv-x="448" />
<glyph unicode="ff" horiz-adv-x="1370" d="M55 791v96q75 16 113 41q28 17 38 43.5t15 89.5q15 190 121 297.5t291 107.5q104 0 158 -20q65 -24 65 -103q0 -62 -18 -165h-95q-6 70 -15 97.5t-30 39.5q-23 14 -88 14q-122 0 -168 -82q-51 -88 -51 -243v-89h371q98 0 131 33q14 14 19 38t8 75q11 129 43 212.5 t96 135.5q110 88 256 88q96 0 164 -24q65 -22 65 -101q0 -36 -16 -172h-105q-6 68 -17.5 98.5t-33.5 42.5q-34 19 -84 19q-48 0 -91 -22t-67 -64q-40 -75 -40 -256v-96q151 0 251 -4v-121q-135 -6 -251 -6v-517q0 -63 3.5 -91t14.5 -42q10 -15 45 -21.5t145 -10.5v-111 q-188 4 -268 4q-78 0 -270 -4v111q75 4 105.5 11t41.5 21q15 23 15 103v547h-531v-517q0 -106 19 -133q10 -15 45.5 -21.5t146.5 -10.5v-111q-192 4 -270 4t-266 -4v111q73 4 103.5 11t41.5 21q14 21 14 103v547h-170z" />
<glyph unicode="fi" horiz-adv-x="1290" d="M55 791v96q75 16 113 41q28 17 38 43.5t15 89.5q15 211 164 336q57 45 146.5 72.5t191.5 27.5q147 0 227 -31q64 -23 64 -98q0 -70 -13 -180h-116q-9 108 -58 143q-41 25 -129 25q-70 0 -133 -25t-100 -71q-74 -85 -74 -269v-71h445q84 38 141 38q46 0 70 -26.5 t24 -100.5q0 -85 -2 -286.5t-2 -292.5q0 -60 2 -80t12 -33q9 -12 38 -18t104 -12v-111q-176 4 -258 4q-130 0 -222 -4v111q74 7 102 12t36 16q18 25 18 113v391q0 65 -5.5 89.5t-23.5 39.5q-25 21 -133 21h-346v-517q0 -106 19 -133q10 -15 43 -21.5t139 -10.5v-111 q-188 4 -260 4q-78 0 -266 -4v111q73 4 103.5 11t41.5 21q14 21 14 103v547h-170z" />
<glyph unicode="fl" horiz-adv-x="1302" d="M55 791v96q75 16 113 41q28 17 38 43.5t15 89.5q9 123 46 201.5t108 138.5q55 45 139.5 70.5t177.5 25.5q111 0 195 -20q58 20 100 20q48 0 71 -26t23 -103q0 -31 -1 -208t-1 -257v-651q0 -94 17 -113q17 -20 139 -30v-111q-176 4 -256 4q-137 0 -229 -4v111 q126 10 143 30q18 21 18 111v631q0 193 -4 293q-3 107 -43 139q-53 43 -176 43q-166 0 -235 -94q-62 -81 -62 -248v-92q113 0 277 -7v-118q-135 -6 -277 -6v-517q0 -101 19 -133q11 -15 44.5 -21.5t139.5 -10.5v-111q-188 4 -262 4q-78 0 -266 -4v111q73 4 103.5 11t41.5 21 q14 21 14 103v547h-170z" />
<glyph unicode="ffi" horiz-adv-x="1988" d="M55 791v96q75 16 113 41q28 17 38 43.5t15 89.5q15 190 121 297.5t291 107.5q104 0 158 -20q65 -24 65 -103q0 -39 -18 -167h-95q-6 70 -15.5 98.5t-29.5 40.5q-23 14 -88 14q-122 0 -168 -82q-51 -88 -51 -243v-89h371q98 0 131 33q3 3 6 7t5 9t3.5 9t3 11t2.5 12 t2 14.5t1.5 15t1.5 17t2 18.5q21 217 163 336q57 45 146.5 72.5t191.5 27.5q148 0 228 -31q63 -22 63 -98q0 -78 -12 -180h-117q-9 109 -57 143q-41 25 -129 25q-70 0 -133.5 -25t-100.5 -71q-73 -84 -73 -269v-71h444q84 38 141 38q46 0 70 -26.5t24 -100.5 q0 -85 -2 -286.5t-2 -292.5q0 -58 2.5 -79t12.5 -34q9 -12 38 -18t103 -12v-111q-176 4 -258 4q-129 0 -221 -4v111q74 7 101.5 12t35.5 16q18 25 18 113v391q0 66 -5.5 90t-22.5 39q-25 21 -133 21h-346v-517q0 -63 3.5 -91t14.5 -42q10 -14 45 -21t139 -11v-111 q-184 4 -262 4t-270 -4v111q75 4 105.5 11t41.5 21q15 23 15 103v547h-531v-517q0 -106 19 -133q10 -15 45.5 -21.5t146.5 -10.5v-111q-192 4 -270 4t-266 -4v111q73 4 103.5 11t41.5 21q14 21 14 103v547h-170z" />
<glyph unicode="ffl" horiz-adv-x="2000" d="M55 791v96q75 16 113 41q28 17 38 43.5t15 89.5q15 190 121 297.5t291 107.5q104 0 158 -20q65 -24 65 -103q0 -39 -18 -167h-95q-6 70 -15.5 98.5t-29.5 40.5q-23 14 -88 14q-122 0 -168 -82q-51 -88 -51 -243v-89h371q98 0 131 33q14 14 19 38t8 75q10 124 46.5 202.5 t106.5 137.5q55 45 140 70.5t178 25.5q110 0 194 -20q58 20 101 20q48 0 71 -26t23 -103q0 -31 -1 -211t-1 -258v-647q0 -95 16 -113q10 -12 38.5 -18t100.5 -12v-111q-184 4 -258 4q-135 0 -225 -4v111q72 6 100.5 12t38.5 18q19 22 19 111v631q0 193 -2 293 q-3 101 -45 137q-52 45 -179 45q-155 0 -231 -96q-61 -79 -61 -248v-90q112 0 276 -7v-118q-135 -6 -276 -6v-517q0 -63 3.5 -91t14.5 -42q10 -15 44.5 -21.5t143.5 -10.5v-111q-184 4 -266 4q-78 0 -270 -4v111q75 4 105.5 11t41.5 21q15 23 15 103v547h-531v-517 q0 -106 19 -133q10 -15 45.5 -21.5t146.5 -10.5v-111q-192 4 -270 4t-266 -4v111q73 4 103.5 11t41.5 21q14 21 14 103v547h-170z" />
<glyph unicode="&#x17f;t" horiz-adv-x="1339" d="M57 793v94q72 16 111 41q28 18 39.5 43.5t15.5 87.5q17 231 158 344q53 44 132.5 69t168.5 25q86 0 151 -19.5t103 -50.5t61 -75.5t31 -87.5t8 -95q0 -87 -20 -247q152 0 252 -4v-121q-168 -4 -254 -4v-363q0 -162 8 -205q9 -54 37.5 -79t81.5 -25q80 0 155 33l33 -113 q-58 -32 -127.5 -49t-124.5 -17q-111 0 -172 59t-61 206q0 155 4 553h-168v94q59 13 106 35q93 46 93 227q0 111 -59.5 161t-151.5 50q-128 0 -203 -90q-74 -86 -74 -277v-719q0 -107 19 -131q11 -16 44.5 -23t133.5 -11v-109q-184 4 -254 4q-83 0 -271 -4v109 q74 4 105 11.5t43 22.5q14 19 14 101v549h-168z" />
<glyph unicode="Th" horiz-adv-x="2383" d="M76 1274q0 54 25.5 82t97.5 28h1118q105 91 162 91q45 0 64.5 -28.5t19.5 -105.5q0 -61 -1 -228.5t-1 -291.5q68 68 164.5 108t195.5 40q59 0 109.5 -18.5t80.5 -49.5q35 -37 50.5 -100t15.5 -170v-381q0 -76 12 -100q8 -16 39 -25t111 -16v-111q-172 4 -236 4 q-65 0 -241 -4v111q115 11 131 32q18 22 18 113v338q0 118 -38 166.5t-144 48.5q-67 0 -141.5 -20t-126.5 -56v-479q0 -94 14 -113q11 -12 36.5 -18t94.5 -12v-111q-176 4 -248 4q-137 0 -227 -4v111q80 8 107 13.5t36 16.5q19 27 19 111v811q0 132 -41 158q-26 18 -120 23 t-470 5v-964q0 -106 14 -131q10 -16 46 -25t136 -16v-113q-164 4 -276 4q-129 0 -297 -4v113q98 6 132.5 14t47.5 25q13 15 13 129v968q-197 0 -252 -5.5t-82 -24.5q-44 -26 -62 -197h-96q-10 143 -10 254z" />
<glyph unicode="&#x164;h" horiz-adv-x="2383" d="M76 1274q0 54 25.5 82t97.5 28h1118q105 91 162 91q45 0 64.5 -28.5t19.5 -105.5q0 -61 -1 -228.5t-1 -291.5q68 68 164.5 108t195.5 40q59 0 109.5 -18.5t80.5 -49.5q35 -37 50.5 -100t15.5 -170v-381q0 -76 12 -100q8 -16 39 -25t111 -16v-111q-172 4 -236 4 q-65 0 -241 -4v111q115 11 131 32q18 22 18 113v338q0 118 -38 166.5t-144 48.5q-67 0 -141.5 -20t-126.5 -56v-479q0 -94 14 -113q11 -12 36.5 -18t94.5 -12v-111q-176 4 -248 4q-137 0 -227 -4v111q80 8 107 13.5t36 16.5q19 27 19 111v811q0 132 -41 158q-26 18 -120 23 t-470 5v-964q0 -106 14 -131q10 -16 46 -25t136 -16v-113q-164 4 -276 4q-129 0 -297 -4v113q98 6 132.5 14t47.5 25q13 15 13 129v968q-197 0 -252 -5.5t-82 -24.5q-44 -26 -62 -197h-96q-10 143 -10 254zM365 1786l57 53l250 -199l252 199l55 -51l-236 -279 q-40 -43 -75 -43q-46 0 -82 47z" />
<glyph unicode="fb" horiz-adv-x="1855" d="M55 791v96q67 14 113 41q27 19 38 45.5t15 87.5q9 123 46 201.5t108 138.5q55 46 137 71t174 25q96 0 180 -20q58 20 101 20q47 0 69.5 -25.5t22.5 -99.5q0 -79 -2.5 -260t-3.5 -276q66 59 154 97t184 38q186 0 279 -131.5t93 -352.5q0 -231 -130 -371.5t-373 -140.5 q-223 0 -375 70q2 96 2 264v828q0 83 -11 120t-36 56q-54 43 -160 43q-158 0 -227 -94q-62 -81 -62 -248v-92q113 0 277 -7v-118q-135 -6 -277 -6v-517q0 -101 19 -133q11 -15 45 -21.5t141 -10.5v-111q-184 4 -264 4q-78 0 -266 -4v111q73 4 103.5 11t41.5 21q14 21 14 103 v547h-170zM1055 156q76 -35 219 -35q151 0 229 95.5t78 254.5q0 73 -13.5 132t-43 109.5t-84.5 78.5t-131 28q-135 0 -254 -82v-581z" />
<glyph unicode="ffb" horiz-adv-x="2553" d="M55 791v96q75 16 113 41q28 17 38 43.5t15 89.5q15 190 121 297.5t291 107.5q104 0 158 -20q65 -24 65 -103q0 -39 -18 -167h-95q-6 70 -15.5 98.5t-29.5 40.5q-23 14 -88 14q-53 0 -98.5 -21.5t-69.5 -62.5q-51 -84 -51 -241v-89h371q98 0 131 33q14 14 19 38t8 75 q10 124 46.5 202.5t106.5 137.5q116 96 309 96q97 0 181 -20q62 20 102 20q47 0 68.5 -25t21.5 -100q0 -82 -4 -536q66 59 153.5 97t182.5 38q187 0 279 -131t92 -353q0 -231 -129.5 -371.5t-372.5 -140.5q-221 0 -373 70q2 96 2 264v828q0 83 -11 120t-36 56 q-58 43 -162 43q-149 0 -225 -96q-61 -79 -61 -248v-90q112 0 276 -7v-118q-135 -6 -276 -6v-517q0 -63 3.5 -91t14.5 -42q10 -15 45 -21.5t145 -10.5v-111q-188 4 -268 4q-78 0 -270 -4v111q75 4 105.5 11t41.5 21q15 23 15 103v547h-531v-517q0 -101 19 -133 q11 -15 46.5 -21.5t145.5 -10.5v-111q-192 4 -270 4t-266 -4v111q73 4 103.5 11t41.5 21q14 21 14 103v547h-170zM1753 156q76 -35 217 -35q153 0 231 95.5t78 254.5q0 73 -13.5 132t-43.5 109.5t-85 78.5t-132 28q-133 0 -252 -82v-581z" />
<glyph unicode="ffh" horiz-adv-x="2600" d="M55 791v96q75 16 113 41q28 17 38 43.5t15 89.5q15 190 121 297.5t291 107.5q104 0 158 -20q65 -24 65 -105q0 -20 -3 -47.5t-8 -63.5t-7 -54h-95q-6 70 -15.5 98.5t-29.5 40.5q-23 14 -88 14q-53 0 -98.5 -21.5t-69.5 -62.5q-51 -84 -51 -241v-89h371q101 0 131 33 q14 12 18.5 36.5t8.5 76.5q10 124 46.5 202.5t106.5 137.5q55 45 140 70.5t178 25.5q110 0 194 -20q58 20 101 20q48 0 71 -26t23 -103q0 -61 -2 -242t-2 -305q68 68 165.5 108t198.5 40q58 0 108.5 -18.5t78.5 -49.5q35 -37 50 -99.5t15 -170.5v-381q0 -76 12 -100 q8 -16 39.5 -25t114.5 -16v-111q-172 4 -240 4q-63 0 -239 -4v111q113 11 129 32q18 18 18 113v338q0 118 -37.5 166.5t-144.5 48.5q-66 0 -140 -20.5t-126 -55.5v-479q0 -94 14 -113q11 -12 36.5 -18t94.5 -12v-111q-180 4 -250 4q-133 0 -225 -4v111q80 8 106 13t35 17 q19 22 19 111v860q0 157 -47 201q-52 45 -179 45q-155 0 -231 -96q-61 -79 -61 -248v-90q112 0 276 -7v-118q-135 -6 -276 -6v-517q0 -63 3.5 -91t14.5 -42q10 -15 43.5 -21.5t142.5 -10.5v-111q-184 4 -264 4q-78 0 -270 -4v111q75 4 105.5 11t41.5 21q15 23 15 103v547 h-531v-517q0 -106 19 -133q10 -15 45.5 -21.5t146.5 -10.5v-111q-192 4 -270 4t-266 -4v111q73 4 103.5 11t41.5 21q14 21 14 103v547h-170z" />
<glyph unicode="ffj" horiz-adv-x="1935" d="M55 791v96q75 16 113 41q28 17 38 43.5t15 89.5q15 190 121 297.5t291 107.5q97 0 158 -20q65 -27 65 -103q0 -20 -3 -48t-8 -64.5t-7 -54.5h-95q-5 55 -10 81.5t-20 45t-37 22.5t-66 4q-53 0 -98.5 -21.5t-69.5 -62.5q-51 -84 -51 -241v-89h371q98 0 131 33q3 3 6 7t5 9 t3.5 9t3 11t2.5 12t2 14.5t1.5 15t1.5 17t2 18.5q18 215 163 336q56 45 144 72.5t180 27.5q132 0 215 -29q64 -20 64 -98q0 -99 -13 -182h-114q-8 65 -23 95.5t-39 47.5q-36 25 -121 25q-62 0 -119 -25t-94 -71q-73 -94 -73 -269v-71h419q88 38 144 38q45 0 68.5 -26.5 t23.5 -102.5q0 -87 2 -396t2 -402q0 -145 -9 -227t-44 -146q-85 -151 -310 -221l-36 98q161 76 196 170q18 45 24.5 107.5t6.5 189.5v645q0 59 -5 83.5t-22 39.5q-21 21 -135 21h-325v-517q0 -63 3.5 -91t14.5 -42q10 -15 45 -21.5t145 -10.5v-111q-188 4 -268 4 q-78 0 -270 -4v111q75 4 105.5 11t41.5 21q15 23 15 103v547h-531v-517q0 -106 19 -133q10 -15 45.5 -21.5t146.5 -10.5v-111q-192 4 -270 4t-266 -4v111q73 4 103.5 11t41.5 21q14 21 14 103v547h-170z" />
<glyph unicode="ffk" horiz-adv-x="2523" d="M55 791v96q67 14 113 41q27 19 38 45.5t15 87.5q15 190 121 297.5t291 107.5q104 0 158 -20q65 -24 65 -103q0 -39 -18 -167h-95q-6 70 -15.5 98.5t-29.5 40.5q-23 14 -88 14q-53 0 -98.5 -21.5t-69.5 -62.5q-51 -84 -51 -241v-89h371q101 0 131 33q14 12 18.5 36.5 t8.5 76.5q10 124 46.5 202.5t106.5 137.5q55 45 140 70.5t178 25.5q110 0 194 -20q58 20 101 20q48 0 71 -26t23 -103q0 -65 -1 -169.5t-1 -166.5v-780q0 -95 16 -113q11 -12 38.5 -18t100.5 -12v-111q-184 4 -260 4q-133 0 -223 -4v111q79 8 104.5 13t34.5 17q19 22 19 111 v854q0 166 -47 207q-57 45 -179 45q-161 0 -231 -96q-61 -75 -61 -248v-90q112 0 276 -7v-118q-135 -6 -276 -6v-517q0 -63 3.5 -91t14.5 -42q10 -14 45 -21t143 -11v-111q-188 4 -266 4t-270 -4v111q75 4 105.5 11t41.5 21q15 23 15 103v547h-531v-517q0 -101 19 -133 q11 -15 46.5 -21.5t145.5 -10.5v-111q-192 4 -270 4t-266 -4v111q73 4 103.5 11t41.5 21q14 21 14 103v547h-170zM1798 481q87 61 221 195q50 50 68 76.5t18 46.5t-25 29t-104 12v104q96 -4 238 -4q139 0 235 4v-104q-61 -4 -94 -19q-55 -25 -160 -121q-36 -32 -115 -107.5 t-93 -88.5q71 -90 131.5 -152t142.5 -135q100 -100 244 -106v-111q-46 -4 -105 -4q-145 0 -243 80q-29 24 -61.5 56.5t-56.5 58.5t-63 72t-57 68t-63 78t-58 72z" />
<glyph unicode="fft" horiz-adv-x="2080" d="M55 791v96q75 16 113 41q28 17 38 43.5t15 89.5q15 190 121 297.5t291 107.5q104 0 158 -20q65 -24 65 -103q0 -39 -18 -167h-95q-6 70 -15.5 98.5t-29.5 40.5q-23 14 -88 14q-53 0 -98.5 -21.5t-69.5 -62.5q-51 -84 -51 -244v-86h371q98 0 131 33q14 14 19 38t8 75 q11 127 44.5 211t98.5 137q50 42 121 65t145 23q100 0 160 -22q61 -24 61 -103q0 -70 -16 -172h-100q-13 118 -52 141q-32 19 -88 19q-51 0 -92.5 -23.5t-66.5 -66.5q-45 -77 -45 -256v-96h290q89 0 125 8q58 15 76 61q17 45 43 156q13 53 74 53t61 -61v-213q135 0 252 -7 v-118q-129 -6 -254 -6v-361q0 -162 8 -205q9 -54 37.5 -79t81.5 -25q81 0 156 33l33 -113q-57 -32 -126.5 -49t-125.5 -17q-110 0 -172 59t-62 206q0 64 1 255t1 296h-499v-517q0 -63 3.5 -91t14.5 -42q10 -15 45 -21.5t145 -10.5v-111q-188 4 -268 4q-78 0 -270 -4v111 q75 4 105.5 11t41.5 21q15 23 15 103v547h-531v-517q0 -106 19 -133q10 -15 45.5 -21.5t146.5 -10.5v-111q-192 4 -270 4t-266 -4v111q73 4 103.5 11t41.5 21q14 21 14 103v547h-170z" />
<glyph unicode="fh" horiz-adv-x="1902" d="M55 791v96q67 14 113 41q27 19 38 45.5t15 87.5q9 123 46 201.5t108 138.5q55 45 139.5 70.5t177.5 25.5q111 0 195 -20q58 20 100 20q48 0 71 -26t23 -103q0 -61 -2 -242t-2 -305q68 68 166.5 108t198.5 40q123 0 188 -68q36 -36 51 -98.5t15 -171.5v-381q0 -76 12 -100 q8 -16 39.5 -25t112.5 -16v-111q-172 4 -238 4t-242 -4v111q113 11 129 32q21 21 21 113v338q0 118 -37 166.5t-143 48.5q-68 0 -142.5 -20t-128.5 -56v-479q0 -93 15 -113q11 -12 36.5 -18t96.5 -12v-111q-184 4 -250 4q-137 0 -227 -4v111q81 8 108 13.5t37 16.5 q16 22 16 111v854q0 170 -47 207q-56 45 -176 45q-165 0 -235 -96q-62 -81 -62 -248v-90q113 0 277 -7v-118q-135 -6 -277 -6v-517q0 -101 19 -133q11 -15 44.5 -21.5t139.5 -10.5v-111q-188 4 -262 4q-78 0 -266 -4v111q73 4 103.5 11t41.5 21q14 21 14 103v547h-170z" />
<glyph unicode="fj" horiz-adv-x="1236" d="M55 791v96q75 16 113 41q27 17 36 41.5t17 91.5q24 225 164 336q57 46 144.5 73t179.5 27q132 0 215 -29q65 -20 65 -96q0 -82 -12 -184h-117q-9 107 -61 143q-36 25 -121 25q-60 0 -119 -24.5t-94 -69.5q-74 -90 -74 -271v-71h422q84 38 143 38q44 0 67.5 -27t23.5 -102 q0 -87 2 -398t2 -404q0 -156 -10.5 -236.5t-51.5 -146.5q-42 -69 -123 -122.5t-178 -84.5l-37 98q76 37 120 71.5t71 86.5q37 73 37 299v655q0 59 -5 83.5t-22 39.5q-21 21 -135 21h-326v-517q0 -106 19 -133q10 -15 43 -21.5t139 -10.5v-111q-188 4 -260 4q-78 0 -266 -4 v111q73 4 103.5 11t41.5 21q14 21 14 103v547h-170z" />
<glyph unicode="fk" horiz-adv-x="1824" d="M55 791v96q67 14 113 41q27 19 38 45.5t15 87.5q9 123 46 201.5t108 138.5q55 45 139.5 70.5t177.5 25.5q111 0 195 -20q58 20 100 20q48 0 71 -26t23 -103q0 -65 -1 -169.5t-1 -166.5v-780q0 -94 17 -113q11 -12 38.5 -18t100.5 -12v-111q-176 4 -258 4q-137 0 -227 -4 v111q81 8 108 13.5t37 16.5q16 22 16 111v854q0 170 -47 207q-56 45 -176 45q-165 0 -235 -96q-62 -81 -62 -248v-90q113 0 277 -7v-118q-135 -6 -277 -6v-517q0 -101 19 -133q11 -15 44.5 -21.5t139.5 -10.5v-111q-188 4 -262 4q-78 0 -266 -4v111q73 4 103.5 11t41.5 21 q14 21 14 103v547h-170zM1102 481q90 66 219 195q52 50 70 76.5t18 46.5q0 14 -8.5 21.5t-37.5 12.5t-85 7v104q96 -4 240 -4q139 0 233 4v-104q-67 -5 -94 -17q-62 -27 -160 -123q-93 -90 -209 -196q119 -145 275 -287q100 -100 245 -106v-111q-50 -4 -104 -4 q-148 0 -246 80q-34 29 -69 63.5t-77 83.5t-66 78.5t-76 94.5z" />
<glyph unicode="ft" horiz-adv-x="1384" d="M55 791v96q75 16 113 41q28 17 38 43.5t15 89.5q15 242 144 348q50 42 122 65t144 23q100 0 160 -22q63 -25 63 -103q0 -36 -16 -172h-103q-10 116 -49 141q-36 19 -90 19q-106 0 -158 -90q-47 -81 -47 -256v-96h291q89 0 125 8q58 15 76 61q6 16 43 156q13 53 73 53 q64 0 64 -61v-213q133 0 250 -7v-118q-126 -6 -252 -6v-361q0 -162 6 -205q9 -54 38 -79t83 -25q78 0 153 33l35 -113q-58 -32 -127.5 -49t-126.5 -17q-109 0 -171 59.5t-62 205.5q0 64 2 255t2 296h-502v-517q0 -106 19 -133q10 -15 45.5 -21.5t146.5 -10.5v-111 q-192 4 -270 4t-266 -4v111q73 4 103.5 11t41.5 21q14 21 14 103v547h-170z" />
<glyph unicode="&#x17f;b" horiz-adv-x="1816" d="M57 793v94q72 16 111 41q28 18 40 44.5t15 86.5q7 124 44.5 205t107.5 137q127 96 303 96q69 0 147 -22q58 22 101 22q47 0 70.5 -28t23.5 -103q0 -76 -4 -530q64 59 151.5 97t182.5 38q188 0 280 -131t92 -353q0 -232 -129 -372t-372 -140q-225 0 -375 70q2 96 2 264 v826q0 139 -47 180q-46 39 -127 39q-147 0 -219 -94q-64 -79 -64 -250v-736q0 -101 21 -131q11 -16 47.5 -23.5t134.5 -10.5v-111q-188 4 -260 4q-83 0 -271 -4v111q74 4 105 11.5t43 22.5q14 19 14 101v549h-168zM1018 156q80 -35 215 -35q152 0 231.5 96.5t79.5 255.5 q0 72 -13.5 131t-43.5 109.5t-85.5 79t-131.5 28.5q-135 0 -252 -86v-579z" />
<glyph unicode="&#x17f;h" horiz-adv-x="1855" d="M57 793v94q72 16 111 41q29 18 40.5 44t14.5 87q7 124 44.5 205t107.5 137q127 96 307 96q81 0 162 -22q58 22 100 22q48 0 71 -26.5t23 -104.5q0 -62 -2 -243.5t-2 -301.5q66 68 164 108t199 40q58 0 109 -18.5t79 -49.5q35 -38 50.5 -100.5t15.5 -169.5v-381 q0 -81 12 -100q8 -16 39.5 -25t112.5 -16v-111q-172 4 -238 4q-60 0 -236 -4v111q109 11 125 32q19 23 19 111v340q0 117 -37.5 167t-142.5 50q-66 0 -141.5 -21t-129.5 -57v-479q0 -96 17 -115q9 -11 33.5 -16.5t93.5 -11.5v-111q-176 4 -246 4q-131 0 -221 -4v111 q77 8 102.5 13.5t34.5 18.5q18 22 18 109v905q0 111 -40.5 155t-149.5 44q-147 0 -221 -94q-64 -83 -64 -250v-736q0 -99 19 -131q12 -17 44 -24t128 -10v-111q-188 4 -248 4q-83 0 -271 -4v111q74 4 105 11.5t43 22.5q14 19 14 101v549h-168z" />
<glyph unicode="&#x17f;i" horiz-adv-x="1243" d="M57 793v94q67 15 111 41q28 18 39.5 43.5t15.5 87.5q20 231 160 340q126 98 319 98q120 0 197 -31q64 -24 64 -98q0 -65 -13 -180h-116q-10 116 -56 143q-39 25 -106 25q-55 0 -113 -23.5t-96 -68.5q-72 -84 -72 -269v-721q0 -107 19 -131q11 -16 43 -23t129 -11v-111 q-180 4 -248 4q-83 0 -271 -4v111q74 4 105 11.5t43 22.5q14 19 14 101v549h-168zM690 795v102q112 64 225 64q53 0 81 -29t28 -113q0 -86 -3 -281t-3 -288q0 -54 3 -75.5t13 -33.5q10 -13 38.5 -19.5t103.5 -12.5v-111q-176 4 -258 4q-134 0 -224 -4v111q118 8 137 30 q19 27 19 109v391q0 95 -18.5 127.5t-86.5 32.5q-27 0 -55 -4z" />
<glyph unicode="&#x17f;j" horiz-adv-x="1202" d="M57 793v94q72 16 111 41q28 18 39.5 43.5t15.5 87.5q20 231 160 340q127 98 305 98q133 0 201 -29q63 -23 63 -100q0 -74 -12 -180h-117q-6 67 -19 98.5t-36 44.5q-39 25 -109 25q-126 0 -198 -90q-70 -90 -70 -271v-721q0 -107 19 -131q11 -16 43 -23t129 -11v-111 q-180 4 -248 4q-83 0 -271 -4v111q74 4 105 11.5t43 22.5q14 19 14 101v549h-168zM621 -465q145 67 190 158q39 74 39 301v649q0 95 -20.5 127.5t-88.5 32.5q-15 0 -57 -6v100q115 64 227 64q52 0 78.5 -29t26.5 -113q0 -88 2 -400.5t2 -395.5q0 -148 -12 -231.5t-50 -147.5 q-42 -68 -127 -124.5t-174 -82.5z" />
<glyph unicode="&#x17f;k" horiz-adv-x="1781" d="M57 793v94q67 15 111 41q29 18 40.5 44t14.5 87q7 124 44.5 205t107.5 137q127 96 307 96q81 0 162 -22q58 22 100 22q48 0 71 -26.5t23 -104.5q0 -65 -2 -233.5t-2 -229.5v-651q0 -86 19 -111q11 -12 39 -19t98 -13v-111q-180 4 -258 4q-131 0 -221 -4v111 q73 8 100.5 14t36.5 18q18 18 18 109v899q0 115 -40 160t-150 45q-147 0 -221 -94q-64 -83 -64 -250v-736q0 -99 19 -131q12 -17 44 -24t128 -10v-111q-188 4 -248 4q-83 0 -271 -4v111q74 4 105 11.5t43 22.5q14 19 14 101v549h-168zM1057 481q100 76 221 195 q50 50 68 76.5t18 46.5t-24.5 29.5t-106.5 13.5v102q98 -4 242 -4q137 0 231 4v-104q-46 0 -92 -21q-39 -17 -160 -123q-207 -187 -211 -190q51 -64 102.5 -119.5t84.5 -87.5t88 -82q59 -51 110 -76q56 -25 135 -32v-109q-50 -4 -104 -4q-149 0 -244 80q-35 29 -70 63.5 t-76.5 83t-66.5 78.5t-76 94t-69 86z" />
<glyph unicode="&#x17f;l" horiz-adv-x="1257" d="M57 793v94q72 16 111 41q29 18 40.5 44t14.5 87q7 124 44.5 205t107.5 137q127 96 307 96q81 0 162 -22q58 22 100 22q48 0 71 -26.5t23 -104.5q0 -29 -2 -206.5t-2 -258.5v-649q0 -86 19 -111q19 -22 137 -32v-111q-176 4 -256 4q-133 0 -223 -4v111q118 10 137 32 q18 25 18 109v633q0 193 -4 293q-3 102 -43 139q-45 39 -143 39q-147 0 -221 -94q-64 -83 -64 -250v-736q0 -107 19 -131q11 -18 42 -24.5t132 -9.5v-111q-192 4 -250 4q-83 0 -271 -4v111q74 4 105 11.5t43 22.5q14 19 14 101v549h-168z" />
<glyph unicode="&#x17f;&#x17f;" horiz-adv-x="1300" d="M57 793v94q67 15 111 41q29 18 40 43t15 88q9 117 41.5 194.5t97.5 130.5q106 84 256 84q87 0 152 -22q66 -25 66 -100q0 -60 -19 -164h-100q-6 68 -15.5 93.5t-31.5 39.5q-24 16 -76 16q-107 0 -154 -84q-49 -92 -49 -246v-727q0 -99 19 -131q11 -16 45 -23t141 -11 v-109q-188 4 -262 4q-83 0 -271 -4v109q74 4 105 11.5t43 22.5q14 19 14 101v549h-168zM723 793v94q69 15 115 41q27 15 39 42.5t16 88.5q15 244 141 350q104 88 260 88q100 0 156 -22q63 -25 63 -101q0 -36 -16 -172h-102q-8 67 -19 98t-33 43q-31 17 -83 17 q-106 0 -156 -90q-45 -77 -45 -254v-742q0 -104 18 -131q11 -16 44 -23t134 -11v-109q-180 4 -256 4q-80 0 -268 -4v109q73 4 103.5 11.5t42.5 22.5q14 19 14 101v549h-168z" />
<glyph unicode="&#x17f;&#x17f;b" horiz-adv-x="2482" d="M57 793v94q67 15 111 41q29 18 40 43t15 88q9 117 41.5 194.5t97.5 130.5q106 84 256 84q87 0 152 -22q66 -25 66 -100q0 -29 -19 -164h-100q-6 68 -15.5 93.5t-31.5 39.5q-24 16 -76 16q-107 0 -154 -84q-49 -92 -49 -246v-727q0 -99 19 -131q11 -16 45 -23t139 -11 v-109q-188 4 -260 4q-83 0 -271 -4v109q74 4 105 11.5t43 22.5q14 19 14 101v549h-168zM723 793v94q72 15 115 41q27 15 39 42.5t16 88.5q7 124 44.5 206t106.5 138q58 44 137.5 69t161.5 25q70 0 148 -22q58 22 100 22q47 0 71 -28t24 -103q0 -63 -1 -141.5t-2 -191 t-2 -197.5q66 59 153.5 97t182.5 38q187 0 279 -131t92 -353q0 -232 -129 -372t-371 -140q-225 0 -377 70q5 120 5 264v826q0 139 -48 180q-49 39 -129 39q-145 0 -219 -94q-61 -79 -61 -250v-736q0 -105 18 -131q11 -16 48 -23.5t135 -10.5v-111q-188 4 -261 4 q-78 0 -266 -4v111q71 5 101.5 12t42.5 22q14 19 14 101v549h-168zM1683 156q83 -35 218 -35q151 0 230 96.5t79 255.5q0 72 -14 131t-44 109.5t-85.5 79t-131.5 28.5q-132 0 -252 -86v-579z" />
<glyph unicode="&#x17f;&#x17f;h" horiz-adv-x="2523" d="M57 793v94q67 15 111 41q29 18 40 43t15 88q9 117 41.5 194.5t97.5 130.5q106 84 256 84q87 0 152 -22q66 -25 66 -100q0 -60 -19 -164h-100q-6 68 -15.5 93.5t-31.5 39.5q-24 16 -76 16q-107 0 -154 -84q-49 -92 -49 -246v-727q0 -99 19 -131q11 -16 44.5 -23t137.5 -11 v-109q-188 4 -258 4q-83 0 -271 -4v109q74 4 105 11.5t43 22.5q14 19 14 101v549h-168zM723 793v94q73 16 115 41q29 18 40.5 44t14.5 87q7 124 45 206.5t109 137.5q57 44 137.5 69t165.5 25q78 0 159 -22q58 22 101 22q48 0 71 -26.5t23 -104.5q0 -62 -2 -243.5t-2 -301.5 q68 68 165.5 108t196.5 40q59 0 110 -18.5t81 -49.5q35 -38 49 -99.5t14 -170.5v-381q0 -76 15 -100q8 -16 38.5 -25t112.5 -16v-111q-172 4 -239 4q-56 0 -236 -4v111q109 11 125 32q20 24 20 111v340q0 118 -38 167.5t-144 49.5q-66 0 -141 -21t-129 -57v-479 q0 -58 3 -80.5t15 -34.5q9 -11 33 -16.5t92 -11.5v-111q-176 4 -246 4q-129 0 -221 -4v111q77 8 103.5 13.5t36.5 18.5q16 19 16 109v905q0 113 -40 156t-149 43q-150 0 -221 -94q-63 -86 -63 -250v-736q0 -105 18 -131q12 -17 43.5 -24t128.5 -10v-111q-188 4 -250 4 q-80 0 -268 -4v111q74 4 104 11.5t42 22.5q14 19 14 101v549h-168z" />
<glyph unicode="&#x17f;&#x17f;i" horiz-adv-x="1908" d="M57 793v94q67 15 111 41q29 18 40 43t15 88q9 117 41.5 194.5t97.5 130.5q106 84 256 84q87 0 152 -22q66 -25 66 -100q0 -56 -19 -164h-100q-6 68 -15.5 93.5t-31.5 39.5q-24 16 -76 16q-107 0 -154 -84q-49 -92 -49 -246v-727q0 -99 19 -131q11 -16 44 -23t140 -11 v-109q-188 4 -260 4q-83 0 -271 -4v109q74 4 105 11.5t43 22.5q14 19 14 101v549h-168zM723 793v94q70 16 113 41q28 18 40.5 44.5t16.5 86.5q20 231 160 340q126 98 317 98q118 0 195 -31q65 -24 65 -98q0 -56 -14 -180h-117q-7 113 -55 145q-41 23 -105 23q-58 0 -116 -23 t-95 -69q-69 -80 -69 -269v-721q0 -108 18 -131q11 -16 43 -23t127 -11v-111q-180 4 -248 4q-80 0 -268 -4v111q73 4 103.5 11.5t42.5 22.5q14 19 14 101v549h-168zM1356 795v102q115 64 227 64q53 0 81 -29t28 -113q0 -86 -4.5 -281t-4.5 -288q0 -84 19 -109 q10 -13 37.5 -19.5t101.5 -12.5v-111q-176 4 -256 4q-135 0 -225 -4v111q120 8 139 30q19 27 19 109v391q0 94 -19.5 127t-87.5 33q-23 0 -55 -4z" />
<glyph unicode="&#x17f;&#x17f;j" horiz-adv-x="1869" d="M57 793v94q67 15 111 41q29 18 40 43t15 88q9 117 41.5 194.5t97.5 130.5q106 84 256 84q87 0 152 -22q66 -25 66 -100q0 -29 -19 -164h-100q-6 68 -15.5 93.5t-31.5 39.5q-24 16 -76 16q-107 0 -154 -84q-49 -92 -49 -246v-727q0 -99 19 -131q11 -16 45 -23t141 -11 v-109q-188 4 -262 4q-83 0 -271 -4v109q74 4 105 11.5t43 22.5q14 19 14 101v549h-168zM721 793v94q70 14 117 41q27 15 39 42.5t16 88.5q20 235 156 340q127 98 305 98q132 0 200 -29q64 -23 64 -100q0 -74 -12 -180h-115q-12 117 -57 143q-39 25 -109 25q-121 0 -197 -90 q-69 -80 -69 -271v-721q0 -105 18 -131q12 -15 44 -22.5t126 -11.5v-111q-180 4 -248 4q-80 0 -268 -4v111q73 4 103.5 11.5t42.5 22.5q14 19 14 101v549h-170zM1286 -465q145 66 191 158q39 74 39 301v649q0 95 -20.5 127.5t-88.5 32.5q-15 0 -57 -6v100q115 64 227 64 q52 0 78 -29t26 -113q0 -88 2.5 -400.5t2.5 -395.5q0 -152 -11 -233.5t-51 -145.5q-42 -68 -127 -124.5t-174 -82.5z" />
<glyph unicode="&#x17f;&#x17f;k" horiz-adv-x="2449" d="M57 793v94q67 15 111 41q29 18 40 43t15 88q9 117 41.5 194.5t97.5 130.5q106 84 256 84q87 0 152 -22q66 -25 66 -100q0 -60 -19 -164h-100q-6 68 -15.5 93.5t-31.5 39.5q-24 16 -76 16q-107 0 -154 -84q-49 -92 -49 -246v-727q0 -99 19 -131q11 -16 44.5 -23t137.5 -11 v-109q-188 4 -258 4q-83 0 -271 -4v109q74 4 105 11.5t43 22.5q14 19 14 101v549h-168zM723 793v94q73 16 115 41q27 18 39 44t16 87q7 124 44 205t107 137q127 96 306 96q78 0 159 -22q58 22 101 22q48 0 71 -26.5t23 -104.5q0 -65 -2 -233.5t-2 -229.5v-651q0 -93 18 -111 q10 -13 37.5 -19.5t99.5 -12.5v-111q-176 4 -258 4q-129 0 -221 -4v111q74 8 102 14t38 18q16 19 16 109v899q0 117 -39 161t-150 44q-152 0 -221 -92q-63 -86 -63 -252v-736q0 -105 18 -131q12 -17 43.5 -24t128.5 -10v-111q-188 4 -250 4q-80 0 -268 -4v111q74 4 104 11.5 t42 22.5q14 19 14 101v549h-168zM1722 481q101 74 222 195q50 50 68 76.5t18 46.5t-24.5 29.5t-104.5 13.5v102q98 -4 239 -4q138 0 232 4v-104q-46 0 -93 -21q-48 -21 -159 -121q-33 -28 -110.5 -100.5t-98.5 -91.5q72 -93 132 -154.5t142 -134.5q95 -95 246 -108v-109 q-50 -4 -104 -4q-148 0 -246 80q-35 29 -69.5 63t-78 84t-66 77t-77 95.5t-68.5 85.5z" />
<glyph unicode="&#x17f;&#x17f;l" horiz-adv-x="1925" d="M57 793v94q67 15 111 41q29 18 40 43t15 88q9 117 41.5 194.5t97.5 130.5q106 84 256 84q87 0 152 -22q66 -25 66 -100q0 -56 -19 -164h-100q-6 68 -15.5 93.5t-31.5 39.5q-24 16 -76 16q-107 0 -154 -84q-49 -92 -49 -246v-727q0 -99 19 -131q11 -16 45 -23t141 -11 v-109q-188 4 -262 4q-83 0 -271 -4v109q74 4 105 11.5t43 22.5q14 19 14 101v549h-168zM723 793v94q83 19 117 39q26 15 37.5 42.5t15.5 90.5q9 126 46 206.5t108 135.5q120 96 303 96q78 0 159 -22q58 22 101 22q48 0 71 -26.5t23 -104.5q0 -29 -2 -206.5t-2 -258.5v-649 q0 -90 18 -111q10 -13 38.5 -19.5t101.5 -12.5v-111q-176 4 -256 4q-134 0 -224 -4v111q71 6 99.5 12.5t38.5 19.5q16 19 16 109v633q0 193 -2 293q-3 100 -45 139t-142 39q-150 0 -221 -94q-63 -86 -63 -250v-736q0 -101 18 -131q12 -17 44 -24t128 -10v-111q-188 4 -250 4 q-80 0 -268 -4v111q74 4 104 11.5t42 22.5q14 19 14 101v549h-168z" />
<glyph unicode="&#x17f;&#x17f;t" horiz-adv-x="2004" d="M57 793v94q67 15 111 41q29 18 40 43t15 88q9 117 41.5 194.5t97.5 130.5q106 84 256 84q87 0 152 -22q66 -25 66 -100q0 -60 -19 -164h-100q-6 68 -15.5 93.5t-31.5 39.5q-24 16 -76 16q-107 0 -154 -84q-49 -92 -49 -246v-727q0 -99 19 -131q11 -16 45 -23t141 -11 v-109q-188 4 -262 4q-83 0 -271 -4v109q74 4 105 11.5t43 22.5q14 19 14 101v549h-168zM721 793v94q78 16 119 41q26 15 36.5 41t16.5 90q20 234 154 344q119 94 301 94q356 0 356 -328q0 -94 -23 -247q152 0 252 -4v-121q-168 -4 -254 -4v-363q0 -141 9 -205 q9 -54 37.5 -79t82.5 -25q79 0 154 33l33 -113q-57 -32 -126.5 -49t-125.5 -17q-110 0 -172 59t-62 206q0 155 4 553h-167v94q59 13 106 35q94 46 94 227q0 112 -60 161.5t-153 49.5q-127 0 -205 -90q-69 -85 -69 -277v-719q0 -105 18 -131q12 -15 45.5 -22.5t130.5 -11.5 v-109q-184 4 -254 4q-80 0 -268 -4v109q73 4 103.5 11.5t42.5 22.5q14 19 14 101v549h-170z" />
<glyph unicode="&#x162;h" horiz-adv-x="2383" d="M76 1274q0 54 25.5 82t97.5 28h1118q105 91 162 91q45 0 64.5 -28.5t19.5 -105.5q0 -61 -1 -228.5t-1 -291.5q68 68 164.5 108t195.5 40q59 0 109.5 -18.5t80.5 -49.5q35 -37 50.5 -100t15.5 -170v-381q0 -76 12 -100q8 -16 39 -25t111 -16v-111q-172 4 -236 4 q-65 0 -241 -4v111q115 11 131 32q18 22 18 113v338q0 118 -38 166.5t-144 48.5q-67 0 -141.5 -20t-126.5 -56v-479q0 -94 14 -113q11 -12 36.5 -18t94.5 -12v-111q-176 4 -248 4q-137 0 -227 -4v111q80 8 107 13.5t36 16.5q19 27 19 111v811q0 132 -41 158q-26 18 -120 23 t-470 5v-964q0 -106 14 -131q10 -16 46 -25t136 -16v-113q-140 4 -243 4q-31 -78 -31 -98q0 -30 37 -51q80 -39 112.5 -77.5t32.5 -97.5q0 -212 -358 -266l-21 92q115 25 170.5 60t55.5 94q0 62 -95 113q-43 24 -43 65q0 52 50 166q-150 0 -240 -4v113q98 6 132.5 14 t47.5 25q13 15 13 129v968q-197 0 -252 -5.5t-82 -24.5q-44 -26 -62 -197h-96q-10 143 -10 254z" />
<glyph unicode="&#x21a;h" horiz-adv-x="2383" d="M76 1274q0 54 25.5 82t97.5 28h1118q105 91 162 91q45 0 64.5 -28.5t19.5 -105.5q0 -61 -1 -228.5t-1 -291.5q68 68 164.5 108t195.5 40q59 0 109.5 -18.5t80.5 -49.5q35 -37 50.5 -100t15.5 -170v-381q0 -76 12 -100q8 -16 39 -25t111 -16v-111q-172 4 -236 4 q-65 0 -241 -4v111q115 11 131 32q18 22 18 113v338q0 118 -38 166.5t-144 48.5q-67 0 -141.5 -20t-126.5 -56v-479q0 -94 14 -113q11 -12 36.5 -18t94.5 -12v-111q-176 4 -248 4q-137 0 -227 -4v111q80 8 107 13.5t36 16.5q19 27 19 111v811q0 132 -41 158q-26 18 -120 23 t-470 5v-964q0 -106 14 -131q10 -16 46 -25t136 -16v-113q-164 4 -276 4q-129 0 -297 -4v113q98 6 132.5 14t47.5 25q13 15 13 129v968q-197 0 -252 -5.5t-82 -24.5q-44 -26 -62 -197h-96q-10 143 -10 254zM508 -522q147 95 147 168q0 46 -30 59q-66 30 -66 98q0 44 32 74.5 t81 30.5q64 0 98.5 -42.5t34.5 -113.5q0 -195 -252 -340z" />
<glyph unicode=" "  horiz-adv-x="448" />
<glyph unicode="&#x09;" horiz-adv-x="448" />
<glyph unicode="&#xa0;" horiz-adv-x="448" />
<glyph unicode="!" horiz-adv-x="591" d="M203 115q0 58 37.5 96.5t93.5 38.5q59 0 96 -36t37 -93q0 -65 -36 -102t-95 -37q-57 0 -95 37.5t-38 95.5zM229 1309q0 56 28 91.5t87 35.5q57 0 84 -35t27 -90q0 -87 -72 -869h-88q-66 799 -66 867z" />
<glyph unicode="&#x22;" horiz-adv-x="638" d="M74 1356q0 51 21.5 75.5t70.5 24.5q52 0 72 -25.5t20 -74.5q0 -52 -53 -479h-82q-49 412 -49 479zM383 1356q0 51 21.5 75.5t70.5 24.5q94 0 94 -100q0 -18 -1.5 -38.5t-6.5 -63t-9.5 -80.5t-16 -128.5t-21.5 -168.5h-82q-49 434 -49 479z" />
<glyph unicode="#" horiz-adv-x="1144" d="M90 426v156h240l47 231h-201v156h230l79 403h97l-84 -403h256l84 403h90l-80 -403h205v-156h-234l-47 -231h191v-156h-222l-88 -453h-96l90 453h-256l-92 -453h-90l88 453h-207zM420 582h260l43 231h-256z" />
<glyph unicode="$" horiz-adv-x="1130" d="M137 250q0 70 6 147h105q7 -57 21 -98.5t26.5 -58.5t32.5 -37q61 -61 202 -70v467l-108 45q-258 107 -258 336q0 143 93 243t273 124v217h101v-211h6q160 0 268 -47q72 -34 72 -123q0 -45 -19 -195h-100q-9 83 -24 122.5t-41 59.5q-52 40 -162 46v-453l131 -53 q258 -105 258 -334q0 -164 -105 -261.5t-284 -115.5v-236h-101v232q-175 3 -278 55q-66 32 -90.5 78t-24.5 121zM346 1014q0 -69 38.5 -116.5t145.5 -92.5v407q-94 -14 -139 -69t-45 -129zM631 137q100 13 152.5 68.5t52.5 130.5t-39 123t-133 86l-33 12v-420z" />
<glyph unicode="%" horiz-adv-x="1726" d="M63 930q0 211 88.5 324.5t247.5 113.5q170 0 243 -107t73 -313q0 -230 -90 -339t-238 -109q-167 0 -245.5 107.5t-78.5 322.5zM211 946q0 -177 45 -254.5t133 -77.5q178 0 178 326q0 169 -42.5 242t-133.5 73q-180 0 -180 -309zM526 18l594 1366l92 -38l-591 -1369z M1010 414q0 211 88.5 324.5t247.5 113.5q171 0 244 -107.5t73 -314.5q0 -229 -89.5 -337.5t-236.5 -108.5q-168 0 -247.5 107t-79.5 323zM1159 428q0 -177 45 -254.5t135 -77.5q87 0 132 83.5t45 242.5q0 170 -42.5 243.5t-132.5 73.5q-182 0 -182 -311z" />
<glyph unicode="&#x26;" horiz-adv-x="1560" d="M98 371q0 145 80 241t244 168q-96 157 -96 299q0 43 9.5 83.5t28.5 78.5t50.5 69t73.5 55t100 37t127 13q155 0 240 -76t85 -202q0 -68 -24.5 -123t-77 -101.5t-118.5 -84t-163 -80.5q59 -92 160 -203t207 -207q61 66 109 184q18 45 18 86q0 13 -5 22.5t-16 15.5t-21 9.5 t-28 5.5t-29 3t-32 1.5t-29 0.5v112q118 -4 240 -4q112 0 252 4v-112q-57 -2 -85.5 -8t-45.5 -23q-21 -18 -72 -127q-77 -161 -158 -254q59 -52 144.5 -89.5t165.5 -37.5q31 0 47 2v-141q-43 -6 -93 -6q-226 0 -387 131q-184 -140 -419 -140q-218 0 -350 113.5t-132 284.5z M295 401q0 -44 12.5 -85.5t39 -77t63.5 -61.5t89 -41t113 -15q156 0 269 86q-107 101 -215.5 228t-173.5 224q-73 -32 -117.5 -73t-62 -85t-17.5 -100zM506 1090q0 -101 90 -232q287 109 287 264q0 72 -45 114t-127 42q-54 0 -95 -15.5t-64 -42t-34.5 -59.5t-11.5 -71z" />
<glyph unicode="'" horiz-adv-x="331" d="M74 1356q0 51 21.5 75.5t70.5 24.5q52 0 72 -25.5t20 -74.5q0 -52 -53 -479h-82q-49 412 -49 479z" />
<glyph unicode="(" horiz-adv-x="638" d="M82 594q0 332 121 575t362 420l58 -65q-93 -91 -157.5 -178t-116.5 -197.5t-77.5 -248t-25.5 -306.5q0 -153 28.5 -289t82 -248.5t118.5 -203.5t150 -179l-58 -65q-231 160 -358 409.5t-127 575.5z" />
<glyph unicode=")" horiz-adv-x="638" d="M14 1526l58 63q229 -160 356 -409t127 -574q0 -333 -120 -576.5t-359 -420.5l-60 67q92 91 156 176.5t116 196.5t77.5 249t25.5 308q0 294 -99 514.5t-278 405.5z" />
<glyph unicode="*" horiz-adv-x="829" d="M78 1149q0 34 21.5 61t56.5 27q26 0 68.5 -23t164.5 -102q-53 170 -53 242q0 78 78 78t78 -78q0 -59 -41 -244q111 75 154.5 99t74.5 24q32 0 52 -22.5t20 -57.5t-15.5 -54t-58.5 -28q-53 -10 -215 -29q121 -98 157.5 -139.5t36.5 -81.5q0 -30 -26 -50.5t-53 -20.5 q-48 0 -74.5 43t-91.5 211q-42 -113 -70 -167.5t-48.5 -70.5t-51.5 -16q-24 0 -49 21.5t-25 51.5q0 35 40 83.5t159 140.5q-115 12 -211 28q-40 6 -59 22.5t-19 51.5z" />
<glyph unicode="+" horiz-adv-x="1210" d="M147 565v140h392v432h133v-432h391v-140h-391v-430h-133v430h-392z" />
<glyph unicode="," horiz-adv-x="450" d="M27 -301q194 127 194 248q0 52 -45 65q-43 14 -65.5 39.5t-22.5 77.5t37.5 86.5t95.5 34.5q76 0 119 -49.5t43 -134.5q0 -258 -309 -445z" />
<glyph unicode="-" horiz-adv-x="546" d="M57 430v148h428v-148h-428z" />
<glyph unicode="." horiz-adv-x="440" d="M88 115q0 58 36.5 96.5t92.5 38.5q59 0 98 -36t39 -93q0 -65 -37.5 -102t-97.5 -37q-57 0 -94 37.5t-37 95.5z" />
<glyph unicode="/" horiz-adv-x="690" d="M41 -133l485 1630l113 -31l-485 -1632z" />
<glyph unicode="0" horiz-adv-x="1124" d="M80 666q0 345 129 525.5t366 180.5q129 0 220 -44.5t145.5 -134t79 -211.5t24.5 -288q0 -195 -37 -338t-104 -225.5t-151.5 -121t-188.5 -38.5q-251 0 -367 171t-116 524zM266 694q0 -159 20 -271.5t59.5 -178.5t93 -95.5t126.5 -29.5q141 0 217 145t76 416 q0 200 -33.5 322t-95.5 173.5t-160 51.5q-150 0 -226.5 -137.5t-76.5 -395.5z" />
<glyph unicode="1" horiz-adv-x="1124" d="M236 1221q107 68 270 133q58 20 96 20q72 0 72 -100q0 -35 -1 -187.5t-1 -263.5v-573q0 -83 18 -107q17 -26 203 -34v-111q-172 4 -320 4q-129 0 -305 -4v111q179 8 203 32q21 21 21 109v573q0 205 -9 285q-5 51 -51 51q-33 0 -168 -37z" />
<glyph unicode="2" horiz-adv-x="1124" d="M68 0v115q353 284 518.5 482t165.5 370q0 260 -250 260q-141 0 -201 -64q-32 -41 -43 -157h-100q-19 140 -19 168q0 53 23 85.5t78 59.5q104 53 290 53q204 0 310 -97t106 -280q0 -384 -620 -833q46 0 170 1t155 1q100 0 148 8.5t69 32.5q33 36 58 129h96 q-7 -157 -23 -256q-13 -78 -131 -78h-800z" />
<glyph unicode="3" horiz-adv-x="1124" d="M123 154q0 84 14 184h107q8 -105 47 -150q69 -69 217 -69q152 0 227.5 67.5t75.5 184.5q0 107 -76 172.5t-235 77.5q-47 4 -146 4v131q94 4 144 12q126 21 192 90t66 162q0 42 -10.5 77.5t-34.5 66t-68.5 48t-105.5 17.5q-150 0 -205 -55q-35 -30 -47 -156h-105 q-12 98 -12 156q0 52 19.5 83.5t68.5 55.5q46 24 124.5 41.5t168.5 17.5q202 0 297.5 -88.5t95.5 -236.5q0 -121 -73.5 -210.5t-229.5 -127.5q178 -17 268 -102.5t90 -233.5q0 -192 -131.5 -297t-367.5 -105q-170 0 -275 43q-53 20 -76.5 53t-23.5 87z" />
<glyph unicode="4" horiz-adv-x="1124" d="M78 362v103l559 823q32 48 61.5 67t77.5 19q88 0 88 -117q0 -46 -1 -150.5t-1 -139.5v-453h205v-149h-205v-107q0 -90 17 -117q24 -31 180 -41v-102q-168 4 -307 4q-93 0 -265 -4v102q163 14 181 41q18 26 18 121v100h-608zM256 508h430q5 534 8 649z" />
<glyph unicode="5" horiz-adv-x="1124" d="M121 152q0 96 12 182h107q8 -112 45 -154q58 -65 209 -65q159 0 239 83.5t80 215.5q0 131 -77 208.5t-238 77.5q-62 0 -123 -18q-58 -16 -90 -16q-76 0 -76 82q0 25 4 83l47 508h684v-165h-561l-33 -349q113 33 221 33q125 0 219.5 -43t151.5 -138.5t57 -234.5 q0 -222 -138.5 -346.5t-371.5 -124.5q-167 0 -270 43q-54 23 -76 54.5t-22 83.5z" />
<glyph unicode="6" horiz-adv-x="1124" d="M113 590q0 204 41 355.5t118 244t180.5 137.5t233.5 45q134 0 213 -31q49 -18 71.5 -46t22.5 -78q0 -93 -14 -179h-107q-9 115 -45 148q-47 41 -151 41q-56 0 -104.5 -13.5t-96.5 -50t-83.5 -93t-60 -149t-30.5 -212.5q43 65 137.5 108t192.5 43q186 0 292.5 -116 t106.5 -295q0 -223 -128 -350.5t-327 -127.5q-214 0 -338 155.5t-124 463.5zM301 555q0 -86 6 -139q18 -141 86 -220t187 -79q122 0 195 79t73 226q0 143 -70 214t-194 71q-82 0 -158.5 -39t-124.5 -113z" />
<glyph unicode="7" horiz-adv-x="1124" d="M92 1231q0 50 27 79t96 29h807v-106l-524 -1233q-23 -55 -74 -55q-39 0 -64.5 16.5t-25.5 46.5q0 23 12 51l494 1115h-318q-212 0 -248 -11q-34 -8 -48.5 -46.5t-24.5 -125.5h-92q-17 147 -17 240z" />
<glyph unicode="8" horiz-adv-x="1124" d="M102 328q0 236 283 358q-229 133 -229 336q0 152 111.5 251t312.5 99q191 0 293 -88t102 -235q0 -105 -60.5 -185t-191.5 -149q89 -40 147.5 -81.5t89.5 -88.5t42.5 -93t11.5 -106q0 -162 -126 -269.5t-339 -107.5q-205 0 -326 98t-121 261zM281 340q0 -103 76.5 -165 t195.5 -62q125 0 196.5 59t71.5 158q0 95 -72.5 155.5t-254.5 135.5q-119 -69 -166 -131t-47 -150zM340 1047q0 -81 61 -143t207 -126q87 54 138 120t51 138q0 89 -58 143t-161 54q-109 0 -173.5 -50.5t-64.5 -135.5z" />
<glyph unicode="9" horiz-adv-x="1124" d="M96 899q0 221 129.5 347t329.5 126q216 0 335.5 -154t119.5 -462q0 -207 -39.5 -359t-114 -244.5t-176.5 -137t-234 -44.5q-112 0 -217 33q-100 35 -100 135q0 91 10 176h107q8 -102 49 -147q49 -49 164 -49q335 0 364 522q-45 -62 -138.5 -104.5t-192.5 -42.5 q-186 0 -291 112t-105 293zM279 924q0 -277 262 -277q82 0 157 37t123 109q0 106 -4 141q-38 293 -276 293q-120 0 -191 -78t-71 -225z" />
<glyph unicode=":" horiz-adv-x="483" d="M131 115q0 58 37.5 96.5t91.5 38.5q59 0 98 -36t39 -93q0 -65 -37.5 -102t-97.5 -37q-56 0 -93.5 37.5t-37.5 95.5zM131 774q0 59 37 98t92 39q59 0 98 -36.5t39 -94.5q0 -65 -37.5 -103t-97.5 -38q-56 0 -93.5 38.5t-37.5 96.5z" />
<glyph unicode=";" horiz-adv-x="487" d="M70 -301q194 129 194 248q0 52 -45 65q-43 14 -65.5 39.5t-22.5 77.5q0 51 38 86t95 35q76 0 119 -49.5t43 -134.5q0 -257 -309 -445zM131 774q0 59 37 98t92 39q59 0 98 -36.5t39 -94.5q0 -65 -37.5 -103t-97.5 -38q-56 0 -93.5 38.5t-37.5 96.5z" />
<glyph unicode="&#x3c;" horiz-adv-x="1210" d="M190 563v152l781 420v-160l-639 -336l639 -330v-168z" />
<glyph unicode="=" horiz-adv-x="1210" d="M139 395v142h930v-142h-930zM139 760v141h930v-141h-930z" />
<glyph unicode="&#x3e;" horiz-adv-x="1210" d="M240 141v166l639 332l-639 328v168l778 -418v-148z" />
<glyph unicode="?" horiz-adv-x="872" d="M123 1268q0 157 338 157q191 -1 285 -88t94 -245q0 -129 -72.5 -225t-253.5 -185q-59 -31 -70 -113q-6 -45 -12 -133h-92q-16 128 -16 213q0 51 31.5 85.5t90.5 64.5q201 106 201 276q0 29 -4 55.5t-16.5 56.5t-33 51.5t-56.5 36t-84 15.5q-124 0 -164 -33 q-35 -28 -41 -145h-107q-18 97 -18 156zM262 115q0 58 38.5 96.5t94.5 38.5q57 0 95 -36t38 -93q0 -65 -36.5 -102t-94.5 -37t-96.5 37.5t-38.5 95.5z" />
<glyph unicode="@" horiz-adv-x="1626" d="M78 420q0 174 61 332.5t169.5 277.5t268 189.5t345.5 70.5q134 0 242.5 -33.5t179 -88.5t118 -128t68 -147.5t20.5 -151.5q0 -179 -59.5 -308t-179.5 -234q-50 -43 -118.5 -73t-119.5 -30q-73 0 -100 36t-27 114q-140 -150 -299 -150q-121 0 -182.5 72.5t-61.5 208.5 q0 110 58 239t151 215q72 65 138.5 92t160.5 27q104 0 185 -47l32 64h111l-111 -420q-45 -163 -45 -266q0 -52 47 -52q25 0 61.5 20t70.5 52q75 70 119 181.5t44 248.5q0 212 -140 334.5t-365 122.5q-153 0 -285 -58.5t-225 -161t-146 -246t-53 -308.5q0 -174 82 -307.5 t224.5 -205t320.5 -71.5q346 0 608 209l59 -86q-140 -118 -315 -180t-363 -62q-219 0 -388.5 87t-265 248.5t-95.5 373.5zM549 385q0 -166 143 -166q57 0 128.5 36.5t127.5 86.5q12 81 35 168l76 283q-71 41 -170 41q-106 0 -182 -76q-66 -66 -112 -172.5t-46 -200.5z" />
<glyph unicode="A" horiz-adv-x="1460" d="M12 -2v113q111 6 144 32q19 14 33 43.5t49 122.5l383 1016q19 48 47 71t71 23q40 0 65 -20.5t44 -69.5l393 -1053q23 -63 39.5 -92t38.5 -47q26 -23 129 -26v-113q-152 4 -268 4q-148 0 -308 -4v113q104 5 140 14q47 11 47 49q0 40 -29 123l-72 190h-501l-68 -180 q-31 -91 -31 -131q0 -34 27 -45q30 -11 162 -20v-113q-144 4 -291 4q-108 0 -244 -4zM498 625h413q-180 486 -206 571q-60 -169 -207 -571z" />
<glyph unicode="B" horiz-adv-x="1280" d="M70 -2v113q127 5 153 20q21 9 27 30t6 95v870q0 100 -14 117q-13 17 -45 22.5t-127 10.5v110h387q212 0 344 -16q153 -23 228 -102.5t75 -204.5q0 -122 -70 -206.5t-205 -117.5q172 -20 260.5 -108.5t88.5 -229.5q0 -230 -195 -335q-122 -68 -330 -68q-39 0 -155 2 t-170 2q-110 0 -258 -4zM442 205q0 -36 11.5 -50t42.5 -20q33 -6 135 -6q167 0 253.5 67.5t86.5 200.5q0 71 -34.5 128.5t-88.5 84.5q-48 26 -118 35.5t-193 9.5h-95v-450zM442 793h93q147 0 198 14q172 53 172 223q0 75 -41 125.5t-112 71.5q-70 18 -215 18h-95v-452z" />
<glyph unicode="C" horiz-adv-x="1376" d="M98 668q0 348 197.5 548.5t531.5 200.5q204 0 328 -47q52 -20 75 -49.5t23 -75.5q0 -104 -18 -223h-109q-11 144 -47 180q-60 66 -266 66q-108 0 -201 -37t-164 -107.5t-112 -182.5t-41 -253q0 -148 42 -260t115 -177.5t164 -97.5t197 -32q94 0 163 20t103 49 q40 37 82 168h109q-3 -145 -27 -227q-24 -78 -127 -113q-148 -47 -332 -47q-152 0 -277.5 45.5t-216.5 132.5t-141.5 219.5t-50.5 299.5z" />
<glyph unicode="D" horiz-adv-x="1474" d="M70 0v111q90 5 125 11t47 19q9 12 11.5 34.5t2.5 86.5v858q0 94 -8 115q-10 22 -43 29t-135 12v108h348q309 0 458 -24t248 -86q129 -82 189.5 -219t60.5 -336q0 -421 -266 -598q-93 -63 -222 -92t-331 -29h-485zM442 223q0 -33 11 -46t41 -21q56 -15 168 -15 q255 0 385.5 142t130.5 424q0 179 -61.5 298t-174.5 173q-129 63 -375 63h-125v-1018z" />
<glyph unicode="E" horiz-adv-x="1228" d="M70 0v111q81 5 118 11t50 19q12 12 15 38t3 95v846q0 104 -12 121q-10 15 -45.5 22t-128.5 13v108h880q72 0 100.5 -26t28.5 -74q0 -80 -16 -237h-109q-15 142 -51 167q-23 17 -70 23t-165 6h-226v-461h144q83 0 117 7t51 28q31 40 37 123h102q-4 -53 -4 -219 q0 -143 4 -227h-96q-11 87 -39 127q-16 21 -51.5 25.5t-124.5 4.5h-140v-418q0 -44 12.5 -62.5t43.5 -23.5q71 -8 188 -8q138 0 201 13.5t92 42.5q37 39 76 172h102q-4 -220 -37 -308q-9 -27 -53 -43t-109 -16h-888z" />
<glyph unicode="F" horiz-adv-x="1185" d="M70 -2v113q91 6 125 12.5t47 19.5q9 10 11.5 35t2.5 96v846q0 104 -12 121q-10 15 -45.5 22t-128.5 13v108h895q74 0 104.5 -25t30.5 -73q0 -78 -17 -239h-108q-12 83 -24 119t-31 48q-22 17 -67 23t-161 6h-250v-487h170q80 0 114.5 7.5t53.5 29.5q31 45 37 127h101 q-3 -76 -3 -222q0 -105 3 -231h-95q-12 90 -39 129q-16 21 -52 26t-122 5h-168v-346q0 -102 21 -131q13 -16 60.5 -24t146.5 -15v-113q-176 4 -320 4q-104 0 -280 -4z" />
<glyph unicode="G" horiz-adv-x="1458" d="M98 668q0 171 53.5 312t150 236.5t232 148t297.5 52.5q225 0 357 -53q94 -35 94 -121q0 -107 -22 -223h-109q-10 134 -47 180q-59 68 -277 68q-108 0 -202 -35t-169 -103.5t-118 -182t-43 -259.5q0 -120 28.5 -217t76.5 -161t115.5 -107.5t142 -62.5t157.5 -19 q115 0 182 18q41 9 68 31q18 18 18 88v152q0 48 -4 69t-16 31q-26 18 -168 25v112q171 -6 272 -6q24 0 234 6v-112q-86 -5 -105 -14q-25 -13 -29 -61q-1 -18 -1 -52v-258q0 -87 -72 -113q-187 -68 -414 -68q-149 0 -274 46t-216 133t-141.5 220t-50.5 300z" />
<glyph unicode="H" horiz-adv-x="1544" d="M70 -2v113q89 6 124.5 12.5t47.5 19.5q9 12 11.5 36t2.5 95v846q0 101 -14 121q-19 25 -172 35v110q258 -6 268 -6q27 0 291 6v-110q-153 -9 -174 -37q-13 -18 -13 -119v-325h662v323q0 103 -17 123q-22 25 -172 35v110q258 -6 273 -6q19 0 289 6v-110q-153 -9 -177 -37 q-12 -17 -12 -119v-844q0 -115 12 -129q13 -15 48 -22.5t129 -13.5v-113q-180 4 -281 4q-109 0 -281 -4v113q89 6 124.5 12.5t47.5 19.5q11 12 14 36.5t3 94.5v379h-662v-377q0 -113 13 -129q11 -14 46.5 -22t127.5 -14v-113q-176 4 -285 4q-98 0 -274 -4z" />
<glyph unicode="I" horiz-adv-x="698" d="M70 -2v113q150 10 172 32q9 10 11.5 35t2.5 96v846q0 101 -14 121q-19 25 -172 35v110q216 -6 270 -6q31 0 289 6v-110q-153 -9 -174 -37q-13 -18 -13 -119v-844q0 -110 13 -126t49.5 -24.5t124.5 -14.5v-113q-176 4 -283 4q-100 0 -276 -4z" />
<glyph unicode="J" horiz-adv-x="663" d="M-12 -215q187 101 225 233q35 126 35 322v780q0 103 -15 121q-18 24 -178 35v110q228 -6 277 -6q24 0 282 6v-110q-90 -5 -123.5 -14t-44.5 -23q-14 -20 -14 -119v-776q0 -269 -59 -395q-37 -80 -127.5 -153t-202.5 -120z" />
<glyph unicode="K" horiz-adv-x="1380" d="M70 -2v113q17 1 36.5 2t31 2t25.5 2t22 1.5t17 2t14 3.5t10.5 4.5t9 5.5t6.5 7q9 12 11.5 36t2.5 95v848q0 104 -14 123q-16 23 -172 33v110q258 -6 268 -6q33 0 297 6v-110q-161 -10 -180 -35q-13 -18 -13 -121v-848q0 -73 2 -96t11 -33q19 -24 180 -32v-113 q-176 4 -291 4q-98 0 -274 -4zM473 705q153 142 408 417q65 74 65 111q0 21 -28.5 30t-110.5 13v110q92 -4 278 -4q156 0 246 4v-110q-68 -5 -102 -21q-66 -32 -154 -125q-14 -14 -186.5 -189t-212.5 -214q108 -144 245 -304t209 -222q41 -33 64 -47.5t53 -24.5 q52 -20 113 -20v-109q-44 -8 -119 -8q-69 0 -137.5 21.5t-116.5 62.5q-86 74 -245.5 270.5t-268.5 358.5z" />
<glyph unicode="L" horiz-adv-x="1224" d="M70 0v111q144 9 168 32q12 12 15 37.5t3 93.5v848q0 102 -14 121q-22 26 -172 33v110q216 -6 270 -6q39 0 297 6v-110q-162 -10 -182 -37q-13 -18 -13 -119v-887q0 -44 12.5 -62.5t43.5 -23.5q71 -8 188 -8q138 0 200 13.5t89 42.5q42 45 76 178h98q-2 -86 -13 -177 t-26 -137q-22 -59 -156 -59h-884z" />
<glyph unicode="M" horiz-adv-x="1806" d="M66 -2v111q135 6 159 30q26 26 29 170q5 309 9 520.5t5.5 269t1.5 72.5q0 62 -14 76q-14 12 -47 18.5t-129 10.5v110q92 -4 248 -4q139 0 182 4q297 -682 387 -921q96 243 403 921q122 -4 205 -4q153 0 219 4v-110q-96 -4 -130.5 -11.5t-45.5 -23.5q-16 -18 -16 -113 q0 -100 4 -829q0 -124 16 -152q13 -16 46 -23.5t137 -14.5v-111q-192 4 -281 4q-55 0 -293 -4v111q154 7 174 38q15 18 15 103q0 751 2 917q-70 -187 -402 -909q-12 -30 -30.5 -42.5t-51.5 -12.5q-58 0 -80 57q-315 738 -385 911q-4 -540 -4 -940q0 -74 23 -94 q12 -12 41 -17t127 -11v-111q-172 4 -238 4q-82 0 -286 -4z" />
<glyph unicode="N" horiz-adv-x="1517" d="M59 1276v110q90 -4 240 -4q92 0 164 4q593 -877 717 -1083q-5 149 -9 454t-4 306q-5 150 -18 174q-21 32 -174 39v110q218 -4 268 -4q36 0 254 4v-110q-84 -6 -115.5 -13t-50.5 -22q-12 -14 -16 -48t-4 -130q-2 -176 -2 -651q0 -46 1 -172.5t1 -165.5q0 -92 -90 -92 q-31 0 -51 14.5t-40 44.5q-717 1091 -735 1120q1 -121 3.5 -319.5t5 -348.5t2.5 -174q0 -90 4.5 -125t15.5 -49q14 -15 48.5 -22.5t125.5 -13.5v-111q-222 4 -270 4q-61 0 -269 -4v111q163 8 183 41q4 6 6 14.5t3 25.5t1.5 30.5t1.5 46t2 55.5q6 204 6 741q0 132 -16 160 q-10 17 -23.5 27t-38.5 14q-62 12 -127 12z" />
<glyph unicode="O" horiz-adv-x="1499" d="M98 686q0 339 182.5 534t483.5 195q166 0 288.5 -48.5t198.5 -141.5t113 -220t37 -290q0 -185 -50 -329t-139 -233.5t-206 -135.5t-256 -46q-162 0 -287 52t-204.5 147.5t-120 225.5t-40.5 290zM295 715q0 -594 459 -594q216 0 333 149.5t117 429.5q0 294 -112 431 t-336 137q-222 0 -341.5 -148t-119.5 -405z" />
<glyph unicode="P" horiz-adv-x="1200" d="M70 -2v113q142 8 166 26q12 11 16 34.5t4 94.5v856q0 64 -3 87.5t-13 33.5q-27 24 -170 33v108h389q252 0 356 -16q163 -28 241.5 -125.5t78.5 -243.5q0 -98 -28 -175t-76.5 -128t-119.5 -84.5t-153 -48t-180 -14.5q-91 0 -136 4v-281q0 -67 3 -92t12 -37q21 -24 180 -32 v-113q-180 4 -303 4q-76 0 -264 -4zM442 688q16 0 50 -1t49 -1q67 0 117.5 5t106.5 23.5t92 50t59.5 88t23.5 134.5q0 99 -49.5 160t-134.5 82q-78 16 -213 16h-101v-557z" />
<glyph unicode="Q" horiz-adv-x="1499" d="M98 686q0 339 182.5 534t483.5 195q166 0 288.5 -48.5t198.5 -141.5t113 -220t37 -290q0 -299 -126 -481.5t-337 -237.5q110 -96 252 -162q67 -31 154 -47t163 -16q26 0 58 4v-113q-71 -12 -152 -12q-210 0 -332 53q-102 44 -189 103t-216 169q-191 14 -322.5 108.5 t-193.5 247t-62 355.5zM295 715q0 -594 459 -594q216 0 333 149.5t117 429.5q0 294 -112 431t-336 137q-222 0 -341.5 -148t-119.5 -405z" />
<glyph unicode="R" horiz-adv-x="1341" d="M70 -2v113q141 8 166 28q12 11 16 33.5t4 93.5v862q0 59 -3 82t-13 33q-23 23 -170 33v108h389q235 0 352 -20q151 -24 227 -116t76 -234q0 -158 -81.5 -257t-227.5 -141q121 -188 181 -270.5t124 -136.5q5 -4 13 -11q58 -49 92.5 -66t103.5 -21v-111q-24 -4 -80 -4 q-150 0 -262 90q-78 64 -156 175t-205 327h-49q-51 0 -125 4v-320q0 -68 3 -91t12 -34q22 -28 172 -36v-113q-184 4 -295 4q-76 0 -264 -4zM442 727q16 0 56 -2t53 -2q77 0 137.5 12t115 41.5t84.5 87t30 140.5q0 59 -20 102.5t-52.5 69.5t-83 42t-103 21.5t-120.5 5.5h-97 v-518z" />
<glyph unicode="S" horiz-adv-x="1153" d="M121 244q0 72 6 151h102q14 -90 34.5 -133t51.5 -72q80 -73 267 -73q140 0 213 62t73 153q0 79 -43 129.5t-145 93.5l-256 109q-148 63 -208 152t-60 204q0 84 29.5 154.5t88.5 125t156 85t225 30.5q175 0 285 -51q38 -19 55 -49.5t17 -81.5q0 -68 -15 -207h-100 q-14 96 -30 138.5t-40 62.5q-51 43 -213 43q-140 0 -207 -61.5t-67 -153.5q0 -76 45 -129t168 -103l235 -94q145 -58 209 -145.5t64 -206.5q0 -193 -135.5 -299.5t-362.5 -106.5q-90 0 -177 16.5t-142 43.5q-74 36 -98.5 83.5t-24.5 129.5z" />
<glyph unicode="T" horiz-adv-x="1335" d="M76 1274q0 54 25.5 82t97.5 28h936q73 0 100 -26.5t27 -77.5q0 -102 -11 -260h-98q-15 166 -57 197q-25 19 -81.5 24.5t-252.5 5.5v-964q0 -106 14 -131q10 -16 46 -25t136 -16v-113q-164 4 -276 4q-129 0 -297 -4v113q98 6 132.5 14t47.5 25q13 15 13 129v968 q-197 0 -252 -5.5t-82 -24.5q-44 -26 -62 -197h-96q-10 143 -10 254z" />
<glyph unicode="U" horiz-adv-x="1556" d="M51 1276v110q164 -4 279 -4q133 0 293 4v-110q-94 -4 -130.5 -13t-48.5 -24q-15 -17 -18 -109q-2 -133 -2 -495q0 -252 35 -344q65 -170 342 -170q108 0 195 34t122 93q39 64 53.5 160.5t14.5 244.5q0 244 -8 463q-3 71 -7.5 95.5t-17.5 33.5q-28 20 -166 31v110 q76 -2 264 -2q21 0 118.5 1t135.5 1v-110q-158 -10 -176 -45q-10 -25 -10 -131v-486q0 -192 -25.5 -302.5t-85.5 -182.5q-130 -160 -444 -160q-161 0 -279 51.5t-172 139.5q-42 69 -58.5 166t-16.5 301q0 99 2 272.5t2 220.5q0 87 -13 113q-11 19 -50 29t-128 14z" />
<glyph unicode="V" horiz-adv-x="1456" d="M12 1276v110q148 -4 293 -4q125 0 281 4v-110q-13 -1 -36 -1t-37.5 -0.5t-34 -2t-31.5 -5.5t-23.5 -10.5t-17 -17t-5.5 -25.5q0 -33 31 -124q110 -310 201.5 -563t118.5 -330q139 400 311 884q29 85 29 131q0 36 -25 45q-8 3 -21.5 6t-33.5 5t-35.5 3t-39.5 2.5t-34 2.5 v110q148 -4 262 -4q139 0 279 4v-110q-114 -3 -146 -31q-17 -13 -31 -43t-42 -106l-387 -1045q-32 -84 -113 -84q-44 0 -71 18.5t-44 63.5l-393 1065q-23 63 -39.5 92t-38.5 47q-24 19 -127 23z" />
<glyph unicode="W" horiz-adv-x="2029" d="M39 1276v110q258 -4 278 -4q195 0 277 4v-110q-83 -1 -125 -11.5t-52.5 -25.5t-10.5 -43t14 -96q157 -657 201 -869q95 347 317 1067q28 93 106 93q46 0 68 -18.5t37 -69.5q261 -889 307 -1074q48 235 197 854q16 72 16 111q0 30 -9 44t-52 24.5t-133 13.5v110 q200 -4 280 -4q90 0 242 4v-110q-98 -6 -129 -35q-30 -25 -56 -137l-268 -1045q-23 -92 -110 -92q-45 0 -71.5 19t-39.5 67q-218 745 -303 1073q-84 -329 -315 -1067q-26 -92 -113 -92q-44 0 -71 19.5t-38 66.5l-262 1065q-12 53 -21.5 78t-29 45.5t-49 26.5t-82.5 8z" />
<glyph unicode="X" horiz-adv-x="1454" d="M29 -2v113q121 0 151 26q38 30 84 96l352 486l-319 444q-22 29 -32 42t-24.5 27t-29.5 23q-31 17 -127 21v110q127 -4 295 -4q231 0 297 4v-110q-101 -3 -132.5 -15.5t-31.5 -41.5q0 -32 37 -82l219 -310l203 287q47 70 47 107q0 18 -11 28t-46 17t-101 10v110 q68 -4 275 -4q159 0 241 4v-110q-58 -2 -84.5 -7t-46.5 -20q-27 -18 -90 -104l-311 -424l354 -498q38 -54 78 -86q36 -26 147 -26v-113q-270 4 -293 4q-49 0 -299 -4v113q98 4 130 15.5t32 39.5q0 7 -1.5 13t-6 14t-7 12.5t-10 15.5t-10.5 15l-262 374l-237 -350 q-45 -65 -45 -94q0 -31 36 -42.5t140 -12.5v-113q-234 4 -299 4q-137 0 -262 -4z" />
<glyph unicode="Y" horiz-adv-x="1280" d="M10 1276v110q234 -4 256 -4q67 0 275 4v-110q-72 -2 -108.5 -10t-45 -17.5t-8.5 -27.5q0 -26 43 -103q34 -57 246 -426q159 278 254 436q41 67 41 101q0 25 -32 35.5t-128 11.5v110q98 -4 272 -4q109 0 195 4v-110q-58 -3 -99 -31q-30 -23 -96 -131l-346 -549v-317 q0 -82 8 -98q9 -19 44.5 -27t140.5 -12v-113q-218 4 -275 4q-89 0 -289 -4v113q102 4 131.5 10t40.5 22q13 21 13 105v315l-330 549q-8 12 -20 32.5t-17 29t-13.5 21.5t-13 19t-10.5 13.5t-11 12t-11 7.5q-38 24 -107 29z" />
<glyph unicode="Z" horiz-adv-x="1269" d="M66 0v66l815 1177q-353 0 -440 -3t-115 -15q-33 -14 -49.5 -52t-26.5 -133h-113q-14 164 -14 244q0 100 135 100h899v-63l-823 -1178q74 -4 295 -4q194 0 260 9.5t98 35.5q52 44 92 191h113q-6 -172 -27 -293q-6 -38 -40.5 -60t-92.5 -22h-966z" />
<glyph unicode="[" horiz-adv-x="618" d="M193 -348v1894h391v-98h-242v-1698h242v-98h-391z" />
<glyph unicode="\" horiz-adv-x="690" d="M59 1466l113 33l487 -1632l-112 -33z" />
<glyph unicode="]" horiz-adv-x="618" d="M35 -250h241v1698h-241v98h389v-1894h-389v98z" />
<glyph unicode="^" horiz-adv-x="1210" d="M213 748l326 698h141l315 -696h-143l-248 534l-244 -536h-147z" />
<glyph unicode="_" horiz-adv-x="1005" d="M-4 -164h1014v-117h-1014v117z" />
<glyph unicode="`" horiz-adv-x="604" d="M119 1423q0 31 25.5 53.5t56.5 22.5q28 0 48.5 -17.5t55.5 -72.5l180 -287l-63 -51l-240 240q-35 36 -49 60.5t-14 51.5z" />
<glyph unicode="a" horiz-adv-x="1054" d="M92 258q0 64 21.5 112t72.5 86.5t143.5 58.5t225.5 20q84 0 123 -5v84q0 116 -27 158q-38 59 -172 59q-102 0 -151 -38q-35 -26 -41 -144h-105q-18 97 -18 158q0 47 24.5 75t75.5 48q45 17 114 29t128 12q209 0 280 -84q32 -36 45 -87.5t13 -135.5q0 -25 -1 -212.5 t-1 -197.5q0 -80 20 -107.5t68 -27.5q44 0 80 8v-111q-72 -32 -162 -32q-127 0 -152 116q-114 -123 -286 -123q-83 0 -153 28.5t-117.5 94t-47.5 158.5zM266 272q0 -56 28.5 -92.5t67.5 -49.5t87 -13q127 0 229 78v213q-66 4 -127 4q-82 0 -139.5 -10.5t-88.5 -30.5t-44 -44 t-13 -55z" />
<glyph unicode="b" horiz-adv-x="1163" d="M33 1333v103q117 61 227 61q55 0 80 -31t25 -114q0 -176 -3 -516q64 59 151.5 97t182.5 38q187 0 280 -131t93 -353q0 -231 -129.5 -371.5t-372.5 -140.5q-224 0 -374 70q2 96 2 264v758q0 217 -27 248q-22 22 -78 22q-17 0 -57 -4zM362 156q74 -35 218 -35 q152 0 230.5 95.5t78.5 254.5q0 72 -13.5 131.5t-43.5 110t-85 78.5t-131 28q-135 0 -254 -82v-581z" />
<glyph unicode="c" horiz-adv-x="985" d="M94 455q0 236 134.5 376t363.5 140q102 0 184 -21q54 -16 79.5 -44.5t25.5 -80.5q0 -83 -15 -168h-108q-8 107 -46 140.5t-141 33.5q-143 0 -223 -96.5t-80 -269.5q0 -160 79.5 -251t227.5 -91q149 0 293 102l62 -100q-76 -71 -178.5 -112.5t-214.5 -41.5 q-197 0 -320 129.5t-123 354.5z" />
<glyph unicode="d" horiz-adv-x="1206" d="M94 442q0 114 31.5 209.5t93 167t160 111t225.5 39.5q48 0 112.5 -11t108.5 -34q0 169 -2 243l-1.5 39t-2.5 33.5t-5 30t-8 23t-12.5 20t-18 13t-25 9t-33.5 2.5q-23 0 -55 -4v103q117 61 227 61q55 0 80.5 -31t25.5 -106q0 -27 -1 -213.5t-1 -263.5v-645q0 -65 18.5 -92 t65.5 -27q44 0 80 8v-111q-79 -32 -168 -32q-121 0 -145 116q-110 -125 -314 -125q-200 0 -318 131.5t-118 335.5zM268 465q0 -160 85.5 -252t221.5 -92q67 0 138.5 23t111.5 57v579q-35 20 -100 34.5t-123 14.5q-154 0 -244 -95.5t-90 -268.5z" />
<glyph unicode="e" horiz-adv-x="1030" d="M94 455q0 125 36.5 224.5t101 162.5t150 96t187.5 33q82 0 147.5 -21t107.5 -56t69.5 -83.5t39 -101t11.5 -111.5q0 -92 -26 -115q-20 -20 -89 -20h-561v-25q0 -139 80.5 -227t235.5 -88q158 0 317 110l66 -106q-177 -156 -412 -156q-148 0 -254 65t-156.5 172.5 t-50.5 246.5zM276 588l500 6v22q0 218 -227 218q-106 0 -183 -63t-90 -183z" />
<glyph unicode="f" horiz-adv-x="675" d="M55 791v96q75 16 113 41q28 17 38.5 42.5t14.5 88.5q15 244 144 350q105 88 260 88q101 0 161 -22q64 -23 64 -103q0 -70 -16 -172h-103q-10 113 -49 141q-25 19 -86 19q-47 0 -91 -24t-67 -66q-47 -88 -47 -252v-96q152 0 254 -4v-121q-138 -6 -254 -6v-517 q0 -106 19 -133q10 -15 45.5 -21.5t146.5 -10.5v-111q-192 4 -270 4t-266 -4v111q73 4 103.5 11t41.5 21q14 21 14 103v547h-170z" />
<glyph unicode="g" horiz-adv-x="1064" d="M31 -279q0 113 90 183q72 56 141 88q-94 40 -94 129q0 90 123 174q-197 92 -197 309q0 163 111.5 265t294.5 102q150 0 237 -49q202 0 291 -7v-118q-117 -6 -180 -6q24 -26 37.5 -76t13.5 -94q0 -176 -111.5 -271.5t-295.5 -95.5q-75 0 -105 6q-37 -27 -51 -45.5 t-14 -42.5q0 -15 19.5 -30t59.5 -25q46 -11 175.5 -32t193.5 -34q132 -24 190 -88.5t58 -173.5q0 -160 -140.5 -258t-369.5 -98t-353 81t-124 207zM197 -248q0 -72 81 -124t246 -52q87 0 151 17t98 46t49.5 60t15.5 65q0 33 -15 56.5t-67 47t-144 38.5q-198 30 -254 47 q-89 -52 -125 -99t-36 -102zM266 621q0 -121 64 -176.5t172 -55.5q101 0 166 56t65 159q0 230 -235 230q-110 0 -171 -59.5t-61 -153.5z" />
<glyph unicode="h" horiz-adv-x="1206" d="M49 1333v103q119 61 232 61q53 0 78.5 -31t25.5 -114q0 -62 -2 -234.5t-2 -296.5q68 68 166.5 108t197.5 40q58 0 109.5 -18.5t79.5 -49.5q35 -36 49 -98.5t14 -171.5v-381q0 -74 13 -100q10 -16 40.5 -25t112.5 -16v-111q-172 4 -239 4q-62 0 -238 -4v111q110 10 129 32 q16 19 16 113v338q0 117 -37 166t-143 49q-66 0 -141 -20.5t-127 -55.5v-479q0 -95 16 -113q9 -12 35 -18t96 -12v-111q-180 4 -249 4q-138 0 -228 -4v111q81 8 108.5 13.5t37.5 16.5q16 22 16 111v852q0 189 -27 213q-22 22 -77 22q-12 0 -62 -4z" />
<glyph unicode="i" horiz-adv-x="618" d="M66 -2v111q126 10 143 30q16 19 16 111v389q0 96 -18 128t-86 32q-27 0 -55 -4v102q112 64 225 64q51 0 79.5 -29.5t28.5 -112.5q0 -85 -4 -280.5t-4 -286.5q0 -84 19 -113q9 -12 37 -18t102 -12v-111q-176 4 -256 4q-137 0 -227 -4zM156 1327q0 56 34 91.5t89 35.5 q60 0 90 -33.5t30 -89.5q0 -55 -34.5 -90t-92.5 -35q-53 0 -84.5 34.5t-31.5 86.5z" />
<glyph unicode="j" horiz-adv-x="565" d="M-23 -465q74 35 121 71.5t72 86.5q37 73 37 301v647q0 113 -29 139q-30 23 -78 23q-21 0 -57 -6v100q115 64 225 64q53 0 80 -29t27 -113q0 -86 2 -398.5t2 -397.5q0 -149 -11.5 -231t-50.5 -148q-42 -69 -126.5 -124.5t-174.5 -82.5zM135 1327q0 56 33 91.5t88 35.5 q62 0 91.5 -33.5t29.5 -89.5q0 -55 -33 -90t-92 -35q-54 0 -85.5 34t-31.5 87z" />
<glyph unicode="k" horiz-adv-x="1132" d="M70 1335v101q117 61 227 61q54 0 79 -27t25 -108q0 -30 -1 -144t-1 -190v-776q0 -86 19 -115q8 -11 35.5 -16t101.5 -12v-111q-176 4 -256 4q-137 0 -227 -4v111q73 6 103 12t40 18q16 19 16 109v907v41.5t-1 34.5t-3 30.5t-5.5 24t-9 21t-13.5 14t-19 11t-25 5t-32 2.5 q-25 0 -53 -4zM422 481q120 92 223 195q86 84 86 123q0 20 -26 29t-107 12v104q100 -4 240 -4q143 0 237 4v-104q-63 -4 -96 -21q-45 -24 -154 -121q-177 -159 -213 -194q78 -102 134 -164.5t122 -122.5q80 -64 111 -80q42 -22 135 -26v-111q-50 -4 -104 -4q-151 0 -246 80 q-33 28 -67.5 63t-73.5 82.5t-63.5 79t-72 94t-65.5 86.5z" />
<glyph unicode="l" horiz-adv-x="622" d="M70 1335v101q114 61 227 61q54 0 79 -27t25 -108q0 -31 -1 -205t-1 -254v-651q0 -88 19 -113q9 -12 37 -18t100 -12v-111q-176 4 -256 4q-137 0 -227 -4v111q126 10 143 30q16 22 16 111v811q0 126 -5.5 184.5t-24.5 75.5q-18 18 -78 18q-25 0 -53 -4z" />
<glyph unicode="m" horiz-adv-x="1812" d="M66 -2v111q79 8 106 13.5t37 16.5q16 22 16 111v389q0 96 -18 128t-86 32q-27 0 -55 -4v102q112 64 217 64q47 0 75 -29t31 -111q71 69 162.5 108.5t189.5 39.5q84 0 146.5 -36t87.5 -116q72 69 169 110.5t195 41.5q127 0 189 -68q34 -37 48.5 -100t14.5 -170v-381 q0 -73 15 -100q10 -16 40 -25t111 -16v-111q-176 4 -239 4q-62 0 -238 -4v111q111 11 127 32q18 18 18 113v338q0 120 -35.5 167.5t-142.5 47.5q-63 0 -133.5 -21.5t-126.5 -56.5q4 -50 4 -100v-379q0 -77 13 -100q8 -16 36.5 -25t104.5 -16v-111q-164 4 -230 4 q-63 0 -239 -4v111q113 11 129 32q18 18 18 113v338q0 118 -35 166.5t-139 48.5q-143 0 -258 -76v-479q0 -91 19 -113q9 -12 34.5 -18t94.5 -12v-111q-180 4 -234 4q-149 0 -239 -4z" />
<glyph unicode="n" horiz-adv-x="1228" d="M66 -2v111q126 10 143 30q16 22 16 111v389q0 96 -18 128t-86 32q-27 0 -55 -4v102q112 64 217 64q47 0 75 -29t31 -111q69 68 167.5 108t197.5 40q59 0 109.5 -18.5t80.5 -49.5q34 -39 49 -101.5t15 -168.5v-381q0 -76 14 -100q10 -16 40 -25t112 -16v-111 q-172 4 -240 4q-66 0 -238 -4v111q65 6 91.5 12t35.5 18q17 20 17 115v338q0 124 -29 162q-39 53 -149 53q-66 0 -142 -20.5t-129 -55.5v-479q0 -91 19 -115q9 -12 33.5 -17t95.5 -11v-111q-176 4 -246 4q-137 0 -227 -4z" />
<glyph unicode="o" horiz-adv-x="1120" d="M94 467q0 233 132 368.5t349 135.5q230 0 340.5 -127t110.5 -357q0 -127 -36 -227t-99.5 -162.5t-147 -94.5t-182.5 -32q-229 0 -348 134t-119 362zM268 487q0 -372 295 -372q140 0 215.5 90t75.5 268q0 184 -72.5 271t-214.5 87q-145 0 -222 -89.5t-77 -254.5z" />
<glyph unicode="p" horiz-adv-x="1169" d="M41 795v102q115 64 219 64q48 0 76.5 -28t32.5 -108q63 62 152.5 104t183.5 42q186 0 279 -131.5t93 -352.5q0 -231 -130.5 -372.5t-373.5 -141.5q-75 0 -202 27v-250q0 -117 24 -141q8 -10 19.5 -15t51.5 -10.5t114 -9.5v-111q-235 5 -271 5q-31 0 -266 -5v111 q74 6 104.5 14t42.5 23q13 17 13 106v922q0 95 -18.5 127.5t-86.5 32.5q-25 0 -57 -4zM371 156q71 -35 215 -35q153 0 232 95t79 255q0 72 -13.5 131.5t-44 109t-85.5 77.5t-131 28q-61 0 -129 -25t-123 -65v-571z" />
<glyph unicode="q" horiz-adv-x="1200" d="M94 442q0 245 132.5 387t389.5 142q209 0 381 -58q-4 -94 -4 -280v-916q0 -89 13 -106q12 -16 41.5 -23.5t103.5 -13.5v-111q-240 5 -268 5q-32 0 -267 -5v111q73 4 112.5 9.5t51 10.5t19.5 15q24 24 24 141q0 283 2 332q-107 -107 -295 -107q-200 0 -318 131.5 t-118 335.5zM268 465q0 -159 85 -250.5t222 -91.5q68 0 139 22t111 56v592q-80 38 -223 38q-154 0 -244 -96.5t-90 -269.5z" />
<glyph unicode="r" horiz-adv-x="819" d="M66 -2v111q126 10 143 30q16 19 16 111v389q0 96 -18 128t-86 32q-27 0 -55 -4v102q112 64 217 64q48 0 75.5 -29.5t30.5 -116.5q42 63 114 107.5t144 44.5q53 0 82 -21.5t29 -77.5q0 -51 -21 -166h-96q-9 58 -27.5 76.5t-58.5 18.5t-85.5 -21t-78.5 -57v-467 q0 -91 19 -115q14 -18 168 -28v-111q-176 4 -285 4q-137 0 -227 -4z" />
<glyph unicode="s" horiz-adv-x="927" d="M102 164q0 22 7 151h100q5 -47 16.5 -80.5t21.5 -46.5t27 -28q55 -49 185 -49q94 0 144 33t50 85q0 44 -28.5 74.5t-96.5 56.5l-186 70q-121 47 -168 110.5t-47 151.5q0 125 96 202t289 77q138 0 215 -33q61 -25 61 -104q0 -56 -14 -166h-98q-7 65 -20 92t-35 41 q-42 33 -148 33q-182 0 -182 -125q0 -41 28.5 -68t108.5 -57l184 -70q121 -44 166 -107t45 -151q0 -133 -105.5 -209t-277.5 -76q-145 0 -237 37q-101 38 -101 156z" />
<glyph unicode="t" horiz-adv-x="708" d="M49 791v96q60 14 109 35q35 14 51 61q18 49 39 160q13 53 78 53q59 0 59 -61v-213q154 0 252 -4v-121q-126 -6 -254 -6v-361q0 -162 8 -205q17 -104 121 -104q76 0 156 31l32 -111q-56 -32 -126.5 -49t-124.5 -17q-111 0 -173.5 59.5t-62.5 205.5q0 64 2 255t2 296h-168z " />
<glyph unicode="u" horiz-adv-x="1200" d="M41 795v102q112 64 221 64q56 0 82.5 -30t26.5 -114q0 -22 -2 -210.5t-2 -268.5q0 -112 42.5 -160.5t145.5 -48.5q68 0 138.5 24t125.5 62v424q0 98 -19 129t-91 31q-28 0 -60 -4v102q110 64 236 64q52 0 78 -32t26 -118q0 -11 -2 -233.5t-2 -327.5q0 -79 18 -105t70 -26 q43 0 76 8v-111q-77 -32 -180 -32q-56 0 -96 30.5t-48 100.5q-139 -142 -340 -142q-71 0 -131 25.5t-94 69.5q-32 44 -45.5 100t-13.5 151v320q0 95 -18.5 127.5t-84.5 32.5q-8 0 -30 -2t-27 -2z" />
<glyph unicode="v" horiz-adv-x="1091" d="M8 834v110q140 -4 260 -4q67 0 199 4v-110q-45 -3 -86 -9q-45 -8 -45 -49q0 -33 22 -86q61 -139 215 -522q13 31 89.5 220t121.5 302q23 67 23 92q0 16 -9 26.5t-20 12.5q-34 8 -108 13v110q126 -4 211 -4q78 0 200 4v-110q-65 -3 -92 -27q-25 -23 -67 -115l-285 -655 q-26 -64 -88 -64q-70 0 -96 64l-283 657q-40 86 -56 106q-6 6 -12 11q-18 16 -94 23z" />
<glyph unicode="w" horiz-adv-x="1587" d="M25 834v110q90 -4 231 -4q134 0 236 4v-110q-31 0 -101 -9q-51 -7 -51 -47q0 -19 16 -86q9 -30 62.5 -214t77.5 -277q90 277 239 680q23 67 92 67q35 0 53 -16t29 -51q206 -605 230 -680q22 82 71.5 249.5t69.5 241.5q14 49 14 86q0 16 -9.5 28t-22.5 15q-34 10 -117 13 v110q82 -4 229 -4q115 0 193 4v-110q-64 -3 -94 -21q-18 -12 -30 -35.5t-30 -79.5l-207 -661q-19 -64 -88 -64q-70 0 -92 64q-194 571 -227 676q-148 -418 -244 -676q-25 -64 -86 -64q-73 0 -94 66l-203 666q-22 75 -41 96q-13 18 -35.5 24.5t-70.5 8.5z" />
<glyph unicode="x" horiz-adv-x="1157" d="M39 0v109q94 4 131 30t84 84l215 258l-223 269q-44 50 -71.5 65.5t-96.5 18.5v110q104 -4 229 -4q130 0 234 4v-110q-59 0 -80 -10t-21 -29q0 -25 33 -66l131 -158l117 150q33 42 33 74q0 20 -18.5 29t-80.5 10v110q160 -4 224 -4q72 0 190 4v-110q-65 -3 -102 -23 q-41 -29 -101 -100l-188 -226l223 -256q4 -5 14 -16.5t13.5 -15.5t11.5 -13t12.5 -13.5t11.5 -11t13.5 -12t13.5 -10.5q19 -14 45 -19.5t80 -8.5v-109q-59 0 -149 1t-115 1q-131 0 -242 -2v109q71 4 96 14.5t25 30.5q0 14 -13 33t-48 59l-125 145l-103 -133q-35 -45 -48 -66 t-13 -38q0 -40 125 -45v-109q-196 4 -248 4q-59 0 -219 -4z" />
<glyph unicode="y" horiz-adv-x="1089" d="M10 834v110q136 -4 258 -4q69 0 205 4v-110q-15 -1 -88 -11q-47 -8 -47 -51q0 -28 29 -94q158 -361 231 -545q30 85 89 254.5t89 253.5q31 89 31 141q0 14 -9 25t-22 14q-50 10 -108 13v110q132 -4 213 -4q78 0 200 4v-110q-62 -3 -90 -25q-19 -16 -32.5 -44t-43.5 -106 l-241 -653q-107 -287 -160 -391q-49 -96 -113.5 -136t-152.5 -40q-176 0 -176 135q0 64 12 123h98q13 -73 24 -90q20 -27 70 -27q68 0 115 86q53 89 144 332q-54 0 -84 68l-277 628q-44 96 -72 117q-20 16 -92 23z" />
<glyph unicode="z" horiz-adv-x="997" d="M53 0v63l606 762q-261 0 -337 -8q-59 -6 -76 -39q-19 -34 -31 -127h-106q-13 115 -13 185q0 52 21.5 79t79.5 27h704v-72l-604 -751q72 -4 184 -4q194 0 252 20q40 12 68 66q22 49 41 121h98q-6 -163 -14 -238q-3 -41 -29.5 -62.5t-89.5 -21.5h-754z" />
<glyph unicode="{" horiz-adv-x="624" d="M39 557v88q41 4 70 12t49.5 25.5t33 39.5t19.5 58.5t9.5 76.5t2.5 101v250q0 69 10 122.5t36 102t69 80t112 50t162 18.5v-96q-138 0 -188.5 -59.5t-50.5 -229.5v-307q0 -99 -16.5 -153.5t-56.5 -84.5t-118 -49q109 -24 150 -83t41 -206v-315q0 -152 52.5 -214.5 t186.5 -62.5v-94q-210 0 -296.5 79t-86.5 263v297q0 147 -39 214t-151 77z" />
<glyph unicode="|" horiz-adv-x="534" d="M201 -375v1950h133v-1950h-133z" />
<glyph unicode="}" horiz-adv-x="624" d="M31 -281q138 0 189.5 60.5t51.5 230.5v305q0 98 17.5 153t56.5 85.5t115 50.5q-109 22 -151 81.5t-42 207.5v313q0 153 -52 215t-185 62v98q209 0 296 -81t87 -265v-297q0 -147 39 -213.5t151 -75.5v-88q-49 -5 -81.5 -18t-54 -34t-32 -59.5t-14.5 -84t-4 -117.5v-252 q0 -69 -10 -122t-36 -101t-68.5 -79t-111.5 -49t-161 -18v92z" />
<glyph unicode="~" horiz-adv-x="1210" d="M119 549q69 102 138 148t153 46q46 0 92 -16.5t137 -75.5q106 -65 160 -65q53 0 98.5 31.5t101.5 113.5l93 -92q-132 -197 -291 -197q-85 0 -195 70q-84 52 -121.5 68t-74.5 16q-56 0 -101.5 -32t-91.5 -109z" />
<glyph unicode="&#xa1;" horiz-adv-x="591" d="M117 907q0 62 35.5 99.5t93.5 37.5q59 0 96 -37t37 -98q0 -58 -37 -95.5t-94 -37.5t-94 36.5t-37 94.5zM137 -283q0 70 70 867h88q70 -806 70 -869q0 -59 -29 -92t-86 -33q-60 0 -86.5 35.5t-26.5 91.5z" />
<glyph unicode="&#xa2;" horiz-adv-x="1026" d="M133 449q0 194 99.5 322t271.5 159v217h100v-207h2q96 0 176 -22q51 -14 77 -41.5t26 -75.5q0 -69 -17 -162h-104q-8 96 -43 131q-37 29 -117 33v-670q131 2 268 98l54 -94q-62 -59 -146 -96.5t-176 -44.5v-232h-100v230q-167 15 -269 136t-102 319zM307 459 q0 -130 50 -211.5t147 -106.5v652q-94 -26 -145.5 -112t-51.5 -222z" />
<glyph unicode="&#xa3;" horiz-adv-x="1206" d="M72 0v125q140 26 212 120.5t72 246.5q0 8 -1 27.5t-1 31.5h-200v123h186q-4 24 -16 89.5t-19.5 118t-7.5 85.5q0 191 119 298t332 107q135 0 219 -31q51 -18 72.5 -45.5t21.5 -81.5q0 -73 -17 -186h-98q-9 118 -43 152q-46 49 -174 49q-246 0 -246 -268q0 -36 17 -149 t20 -138h316v-123h-304v-25q0 -245 -184 -368q188 4 371 4q112 0 167.5 7t74.5 28q36 36 61 131h92q-4 -156 -24 -256q-15 -72 -123 -72h-895z" />
<glyph unicode="&#xa4;" horiz-adv-x="1175" d="M88 246l135 137q-90 111 -90 276q0 156 88 275l-133 137l94 100l137 -137q119 86 269 86q147 0 268 -86l133 137l96 -100l-133 -137q86 -114 86 -275q0 -152 -86 -272l135 -141l-98 -103l-133 142q-114 -84 -270 -84q-166 0 -267 82l-137 -140zM268 664q0 -146 90.5 -241 t229.5 -95q136 0 224.5 94t88.5 237q0 139 -89.5 234.5t-223.5 95.5q-138 0 -229 -92t-91 -233z" />
<glyph unicode="&#xa5;" horiz-adv-x="1308" d="M43 1231v110q117 -2 246 -2q172 0 278 2v-110q-69 -2 -103.5 -8.5t-43 -14.5t-8.5 -24q0 -38 73 -164q36 -66 108 -187.5t95 -160.5q93 177 211 368q62 106 62 148q0 24 -32 32.5t-116 10.5v110q88 -2 254 -2q111 0 195 2v-110q-64 -3 -99 -27q-17 -12 -43.5 -50 t-87.5 -136l-174 -279h250v-98h-309l-60 -98v-49h369v-97h-369v-157q0 -55 9 -82q8 -22 43.5 -32.5t138.5 -14.5v-113q-208 4 -271 4q-100 0 -284 -4v113q102 7 131 15.5t39 27.5q12 18 12 86v157h-342v97h342v47l-59 100h-283v98h225l-198 338q-37 63 -52 86.5t-34 40.5 q-30 24 -113 27z" />
<glyph unicode="&#xa6;" horiz-adv-x="534" d="M201 -244v690h133v-690h-133zM201 752v692h133v-692h-133z" />
<glyph unicode="&#xa7;" horiz-adv-x="974" d="M82 649q0 94 59 168t172 121q-63 63 -88.5 121.5t-25.5 126.5q0 120 94 204.5t260 84.5q120 0 201 -33q63 -25 63 -99q0 -26 -16 -167h-99q-7 68 -18 98t-33 45q-39 27 -104 27q-97 0 -141 -38t-44 -102q0 -59 33.5 -106.5t136.5 -136.5l136 -117q135 -120 182 -193.5 t47 -163.5q0 -84 -59.5 -162.5t-184.5 -136.5q86 -87 114 -146.5t28 -131.5q0 -134 -102 -222.5t-279 -88.5q-144 0 -217 41q-36 21 -52 45.5t-16 62.5q0 60 12 162h105q10 -113 57 -148q18 -14 52 -24t67 -10q101 0 152 40t51 107q0 54 -39 113.5t-148 163.5l-176 168 q-109 106 -144.5 176.5t-35.5 150.5zM240 694q0 -56 27.5 -103.5t97.5 -117.5l98 -98q24 -24 67 -64t54 -51q149 83 149 176q0 51 -31.5 107.5t-123.5 142.5l-105 94q-12 11 -46.5 39t-51.5 45q-135 -66 -135 -170z" />
<glyph unicode="&#xa8;" horiz-adv-x="595" d="M33 1272q0 43 28.5 72.5t73.5 29.5q46 0 74.5 -29t28.5 -73q0 -47 -29.5 -78t-77.5 -31q-42 0 -70 31t-28 78zM362 1272q0 44 29 73t76 29q44 0 73 -29.5t29 -72.5q0 -46 -29.5 -77.5t-76.5 -31.5q-42 0 -71.5 31t-29.5 78z" />
<glyph unicode="&#xa9;" horiz-adv-x="1609" d="M84 694q0 196 96 361.5t262.5 261.5t364.5 96q147 0 280 -56.5t229.5 -151.5t153 -227t56.5 -278q0 -152 -56 -288.5t-151.5 -233.5t-227 -154t-278.5 -57q-206 0 -373 95.5t-261.5 262t-94.5 369.5zM180 694q0 -177 83.5 -325t229.5 -234t322 -86q128 0 241 50t194 135 t128 203.5t47 250.5q0 135 -46.5 254.5t-127 205.5t-195 135.5t-245.5 49.5q-177 0 -322 -84.5t-227 -231t-82 -323.5zM379 674q0 211 122 332.5t333 121.5q132 0 208 -26q66 -25 66 -80q0 -78 -16 -148h-88q-9 88 -27 109q-39 39 -150 39q-128 0 -209 -86t-81 -248 q0 -88 23.5 -153t65 -102t91.5 -55t110 -18q105 0 150 41q24 21 49 101h90q-3 -114 -16 -154q-17 -45 -82 -67q-86 -31 -211 -31q-195 0 -311.5 113t-116.5 311z" />
<glyph unicode="&#xaa;" horiz-adv-x="710" d="M72 737q0 41 14.5 72t48.5 55.5t95 37.5t149 13q52 0 72 -2v52q0 79 -27 105t-100 26q-68 0 -90 -21t-25 -94h-78q-14 63 -14 106q0 58 65 82q83 31 164 31q142 0 193 -55q36 -38 36 -150q0 -20 -1 -133t-1 -119q0 -49 12.5 -67.5t41.5 -18.5q9 0 49 5v-82 q-55 -25 -119 -25q-73 0 -92 74q-36 -34 -86.5 -55t-102.5 -21q-84 0 -144 46.5t-60 137.5zM203 748q0 -47 33 -71t77 -24q76 0 140 41v135q-23 2 -76 2q-174 0 -174 -83z" />
<glyph unicode="&#xab;" horiz-adv-x="923" d="M63 459q0 43 37 76l340 321l72 -65l-272 -328l270 -340l-72 -70l-344 332q-31 27 -31 74zM422 459q0 37 39 76l338 321l73 -65l-276 -328l274 -340l-73 -70l-342 332q-33 29 -33 74z" />
<glyph unicode="&#xac;" horiz-adv-x="1210" d="M137 565v142h889v-555h-131v413h-758z" />
<glyph unicode="&#xad;" horiz-adv-x="546" d="M57 430v148h428v-148h-428z" />
<glyph unicode="&#xae;" horiz-adv-x="1609" d="M84 694q0 196 96 361.5t262.5 261.5t364.5 96q147 0 280 -56.5t229.5 -151.5t153 -227t56.5 -278q0 -152 -56 -288.5t-151.5 -233.5t-227 -154t-278.5 -57q-206 0 -373 95.5t-261.5 262t-94.5 369.5zM182 694q0 -177 83 -325t228.5 -234t321.5 -86q128 0 241 50t194 135 t128 203.5t47 250.5q0 135 -46.5 254.5t-127 205.5t-195 135.5t-245.5 49.5q-177 0 -321.5 -84.5t-226 -231t-81.5 -323.5zM444 303v84q81 3 99 16q9 6 11.5 18.5t2.5 55.5v479q0 60 -8 68q-20 13 -105 18v82h261q129 0 219 -12q95 -15 143.5 -71t48.5 -144 q0 -179 -182 -235q56 -83 93 -129t75 -80q36 -34 69 -52q27 -12 60 -12v-86q-2 0 -21 -1t-32 -1q-105 0 -181 61q-47 38 -92.5 100.5t-116.5 178.5q-74 0 -92 2v-160q0 -66 11 -75q19 -19 104 -21v-84q-33 0 -109 1t-88 1q-15 0 -76.5 -1t-93.5 -1zM696 743q25 -2 72 -2 q199 0 199 150q0 39 -17 65t-49.5 38.5t-67.5 17t-83 4.5h-54v-273z" />
<glyph unicode="&#xaf;" horiz-adv-x="595" d="M37 1143v129h526v-129h-526z" />
<glyph unicode="&#xb0;" horiz-adv-x="710" d="M86 1163q0 124 78 198.5t194 74.5q115 0 190 -70.5t75 -200.5q0 -123 -77 -195.5t-192 -72.5q-117 0 -192.5 70.5t-75.5 195.5zM184 1165q0 -78 45.5 -129t124.5 -51q82 0 128 50.5t46 127.5q0 83 -46 133t-128 50q-76 0 -123 -50.5t-47 -130.5z" />
<glyph unicode="&#xb1;" horiz-adv-x="1210" d="M147 0v137h916v-137h-916zM147 694v135h392v416h133v-416h391v-135h-391v-411h-133v411h-392z" />
<glyph unicode="&#xb2;" d="M51 860v88q157 122 247 204.5t140.5 158.5t50.5 143q0 145 -153 145q-81 0 -121 -32q-22 -26 -27 -101h-79q-13 63 -13 117q0 33 16 54t54 40q81 35 196 35q135 0 206 -61.5t71 -175.5q0 -232 -397 -494q29 0 107 1t97 1q38 0 59.5 0.5t41 6t28 10t17.5 19.5t13 28.5 t11 42.5h76q-10 -150 -16 -179q-11 -51 -90 -51h-535z" />
<glyph unicode="&#xb3;" d="M86 961q0 54 8 124h84q2 -61 31 -90q45 -39 133 -39q93 0 138.5 37t45.5 103q0 128 -186 137q-31 2 -94 2v100q16 2 46.5 4t47.5 4q74 12 113 50t39 92q0 51 -32.5 82.5t-101.5 31.5q-87 0 -125 -30q-24 -18 -30 -92h-82q-8 62 -8 104q0 64 59 90q90 41 201 41 q139 0 201.5 -56t62.5 -149q0 -159 -188 -209q225 -23 225 -204q0 -120 -89 -185t-247 -65q-106 0 -184 24q-68 27 -68 93z" />
<glyph unicode="&#xb4;" horiz-adv-x="604" d="M119 1122l178 287q35 54 56.5 72t49.5 18q29 0 55.5 -22.5t26.5 -53.5q0 -27 -14.5 -51t-50.5 -61l-242 -240z" />
<glyph unicode="&#xb5;" horiz-adv-x="1216" d="M72 795v102q112 64 221 64q56 0 82 -30t26 -114q0 -22 -2 -210.5t-2 -268.5q0 -112 43 -160.5t146 -48.5q67 0 138.5 24t127.5 62v424q0 96 -20.5 128t-90.5 32q-27 0 -63 -4v102q110 64 237 64q52 0 79.5 -32t27.5 -118q0 -11 -4 -233.5t-4 -327.5q0 -78 19 -104.5 t71 -26.5q43 0 74 8v-111q-74 -32 -179 -32q-55 0 -94 30.5t-49 100.5q-65 -68 -138.5 -103t-168.5 -35q-39 0 -88.5 20t-71.5 50q4 -63 10.5 -176.5t10.5 -181.5t4 -92q0 -45 -23.5 -70t-68.5 -25q-51 0 -71 25t-20 70v1042q0 96 -18 128t-84 32q-9 0 -30 -2t-27 -2z" />
<glyph unicode="&#xb6;" horiz-adv-x="1120" d="M106 860q0 232 163.5 378t453.5 146h338v-110q-85 -3 -116.5 -9.5t-43.5 -19.5q-13 -13 -16.5 -41.5t-3.5 -99.5q0 -174 3 -437t3 -376q0 -301 -23 -424q-55 -283 -418 -387l-28 108q156 59 225 147.5t80 221.5q12 136 12 358v43q-25 -2 -71 -2q-115 0 -213 29.5 t-176.5 88.5t-123.5 158t-45 228z" />
<glyph unicode="&#xb7;" horiz-adv-x="440" d="M88 502q0 58 36.5 96.5t92.5 38.5q59 0 98 -36.5t39 -94.5q0 -64 -38 -101.5t-97 -37.5q-57 0 -94 37.5t-37 97.5z" />
<glyph unicode="&#xb8;" horiz-adv-x="595" d="M119 -471q110 23 162.5 56t52.5 89q0 33 -22 58t-68 51q-41 21 -41 59q0 46 51 168h86q-33 -86 -33 -100q0 -30 35 -47q77 -40 108 -77.5t31 -92.5q0 -104 -92.5 -166.5t-249.5 -87.5z" />
<glyph unicode="&#xb9;" d="M156 1618q79 42 184 80q53 16 72 16q26 0 42.5 -18t16.5 -54q0 -28 -1 -117.5t-1 -154.5v-338q0 -55 12 -69q9 -15 131 -21v-84q-114 4 -217 4q-101 0 -215 -4v84q115 5 135 25q13 13 13 67v330q0 112 -6 162q-3 33 -33 33q-38 0 -109 -23z" />
<glyph unicode="&#xba;" horiz-adv-x="813" d="M82 874q0 151 86.5 238.5t230.5 87.5q152 0 226.5 -82.5t74.5 -230.5q0 -160 -86.5 -247t-224.5 -87q-151 0 -229 87.5t-78 233.5zM215 887q0 -223 174 -223q178 0 178 210q0 115 -42.5 166.5t-129.5 51.5q-89 0 -134.5 -52.5t-45.5 -152.5z" />
<glyph unicode="&#xbb;" horiz-adv-x="923" d="M53 121l275 325l-275 340l76 70l340 -332q33 -29 33 -75q0 -40 -39 -76l-338 -320zM412 121l276 325l-274 340l73 70l342 -332q33 -29 33 -75q0 -37 -39 -76l-338 -320z" />
<glyph unicode="&#xbc;" horiz-adv-x="1722" d="M139 1276q101 49 185 80q47 14 71 14q60 0 60 -72q0 -27 -1 -116t-1 -154v-338q0 -55 12 -69q12 -15 131 -23v-84q-171 6 -217 6q-44 0 -215 -6v84q116 8 135 27q12 12 12 67v330q0 112 -6 162q-3 30 -33 30t-108 -20zM506 18l592 1366l96 -38l-594 -1369zM889 223v76 l354 485q30 40 50 55t57 15q30 0 50.5 -20t20.5 -66q0 -29 -1 -97t-1 -89v-246h133v-113h-133v-53q0 -52 8 -68q16 -19 119 -24v-80q-106 4 -211 4q-74 0 -184 -4v80q105 8 115 24q14 14 14 70v51h-391zM1020 332h260q0 194 4 366z" />
<glyph unicode="&#xbd;" horiz-adv-x="1722" d="M119 1276q103 51 184 80q47 14 72 14q59 0 59 -72q0 -27 -1 -116t-1 -154v-338q0 -55 12 -69q12 -15 131 -23v-84q-171 6 -217 6q-44 0 -215 -6v84q117 8 136 27q12 12 12 67v330q0 112 -6 162q-3 30 -33 30q-32 0 -109 -20zM483 18l592 1366l96 -38l-593 -1369zM969 0 v88q157 122 247 204.5t140.5 158.5t50.5 143q0 145 -154 145q-80 0 -120 -32q-22 -26 -27 -101h-80q-12 59 -12 117q0 33 15.5 54t53.5 40q81 35 197 35q135 0 205.5 -62t70.5 -176q0 -231 -397 -493q29 0 107.5 1t97.5 1q66 0 96 5.5t41 21.5q18 21 33 79h76 q-9 -142 -17 -178q-11 -51 -90 -51h-534z" />
<glyph unicode="&#xbe;" horiz-adv-x="1722" d="M125 618q0 51 8 125h84q3 -66 31 -90q39 -39 133 -39q184 0 184 138q0 61 -40.5 94.5t-135.5 42.5q-62 4 -104 4v100q10 1 28.5 1t34 1t31.5 4q74 10 112.5 49.5t38.5 94.5q0 50 -32 81t-101 31q-85 0 -125 -28q-24 -21 -30 -94h-82q-8 62 -8 106q0 64 59 88 q90 41 201 41q139 0 201.5 -55.5t62.5 -149.5q0 -156 -189 -209q226 -21 226 -204q0 -120 -89 -185t-247 -65q-112 0 -184 26q-68 24 -68 92zM559 18l592 1366l96 -38l-594 -1369zM922 223v76l354 485q30 41 49.5 55.5t56.5 14.5q30 0 51 -20t21 -66q0 -29 -1 -97t-1 -89 v-246h133v-113h-133v-53q0 -52 8 -68q16 -19 119 -24v-80q-106 4 -211 4q-74 0 -184 -4v80q104 8 114 24q15 15 15 70v51h-391zM1053 332h260q0 194 4 366z" />
<glyph unicode="&#xbf;" horiz-adv-x="872" d="M31 -66q0 128 73 223.5t254 186.5q59 31 70 115q10 78 12 131h92q17 -163 17 -211q0 -54 -31.5 -88t-93.5 -66q-199 -103 -199 -272q0 -38 7.5 -71.5t26.5 -68t60 -55t101 -20.5q124 0 162 31q38 32 41 147h108q19 -102 19 -156q0 -39 -22 -68.5t-56 -46.5t-80.5 -28 t-89.5 -14.5t-90 -3.5q-192 1 -286.5 88.5t-94.5 246.5zM344 907q0 65 36 102.5t93 37.5q59 0 97 -38t38 -98q0 -58 -38 -96.5t-95 -38.5q-56 0 -93.5 36.5t-37.5 94.5z" />
<glyph unicode="&#xc0;" horiz-adv-x="1460" d="M12 -2v113q111 6 144 32q19 14 33 43.5t49 122.5l383 1016q19 48 47 71t71 23q40 0 65 -20.5t44 -69.5l393 -1053q23 -63 39.5 -92t38.5 -47q26 -23 129 -26v-113q-152 4 -268 4q-148 0 -308 -4v113q104 5 140 14q47 11 47 49q0 40 -29 123l-72 190h-501l-68 -180 q-31 -91 -31 -131q0 -34 27 -45q30 -11 162 -20v-113q-144 4 -291 4q-108 0 -244 -4zM459 1769q0 33 23.5 57.5t54.5 24.5q26 0 50 -14t62 -55l238 -250l-51 -62l-291 191q-86 57 -86 108zM498 625h413q-180 486 -206 571q-60 -169 -207 -571z" />
<glyph unicode="&#xc1;" horiz-adv-x="1460" d="M12 -2v113q111 6 144 32q19 14 33 43.5t49 122.5l383 1016q19 48 47 71t71 23q40 0 65 -20.5t44 -69.5l393 -1053q23 -63 39.5 -92t38.5 -47q26 -23 129 -26v-113q-152 4 -268 4q-148 0 -308 -4v113q104 5 140 14q47 11 47 49q0 40 -29 123l-72 190h-501l-68 -180 q-31 -91 -31 -131q0 -34 27 -45q30 -11 162 -20v-113q-144 4 -291 4q-108 0 -244 -4zM498 625h413q-180 486 -206 571q-60 -169 -207 -571zM559 1530l240 250q39 40 63 54.5t49 14.5q31 0 53.5 -24t22.5 -58q0 -53 -86 -108l-291 -191z" />
<glyph unicode="&#xc2;" horiz-adv-x="1460" d="M12 -2v113q111 6 144 32q19 14 33 43.5t49 122.5l383 1016q19 48 47 71t71 23q40 0 65 -20.5t44 -69.5l393 -1053q23 -63 39.5 -92t38.5 -47q26 -23 129 -26v-113q-152 4 -268 4q-148 0 -308 -4v113q104 5 140 14q47 11 47 49q0 40 -29 123l-72 190h-501l-68 -180 q-31 -91 -31 -131q0 -34 27 -45q30 -11 162 -20v-113q-144 4 -291 4q-108 0 -244 -4zM424 1518l233 276q37 43 76 43q44 0 80 -45l225 -272l-59 -56l-252 201l-250 -201zM498 625h413q-180 486 -206 571q-60 -169 -207 -571z" />
<glyph unicode="&#xc3;" horiz-adv-x="1460" d="M12 -2v113q111 6 144 32q19 14 33 43.5t49 122.5l383 1016q19 48 47 71t71 23q40 0 65 -20.5t44 -69.5l393 -1053q23 -63 39.5 -92t38.5 -47q26 -23 129 -26v-113q-152 4 -268 4q-148 0 -308 -4v113q104 5 140 14q47 11 47 49q0 40 -29 123l-72 190h-501l-68 -180 q-31 -91 -31 -131q0 -34 27 -45q30 -11 162 -20v-113q-144 4 -291 4q-108 0 -244 -4zM416 1526q24 97 70 160t112 63q41 0 117 -31l63 -26q63 -29 94 -29q48 0 99 111l76 -27q-57 -225 -168 -225q-54 0 -138 37l-59 22q-67 23 -88 23q-33 0 -54 -22t-53 -81zM498 625h413 q-180 486 -206 571q-60 -169 -207 -571z" />
<glyph unicode="&#xc4;" horiz-adv-x="1460" d="M12 -2v113q111 6 144 32q19 14 33 43.5t49 122.5l383 1016q19 48 47 71t71 23q40 0 65 -20.5t44 -69.5l393 -1053q23 -63 39.5 -92t38.5 -47q26 -23 129 -26v-113q-152 4 -268 4q-148 0 -308 -4v113q104 5 140 14q47 11 47 49q0 40 -29 123l-72 190h-501l-68 -180 q-31 -91 -31 -131q0 -34 27 -45q30 -11 162 -20v-113q-144 4 -291 4q-108 0 -244 -4zM440 1626q0 45 29 75t74 30q46 0 74 -30t28 -75q0 -44 -29 -75t-75 -31q-43 0 -72 30t-29 76zM498 625h413q-180 486 -206 571q-60 -169 -207 -571zM797 1626q0 45 29.5 75t76.5 30 q44 0 72.5 -30t28.5 -75q0 -44 -29.5 -75t-75.5 -31q-43 0 -72.5 30.5t-29.5 75.5z" />
<glyph unicode="&#xc5;" horiz-adv-x="1460" d="M12 -2v113q111 6 144 32q19 14 33 43.5t49 122.5l383 1016q19 48 47 71t71 23q40 0 65 -20.5t44 -69.5l393 -1053q23 -63 39.5 -92t38.5 -47q26 -23 129 -26v-113q-152 4 -268 4q-148 0 -308 -4v113q104 5 140 14q47 11 47 49q0 40 -29 123l-72 190h-501l-68 -180 q-31 -91 -31 -131q0 -34 27 -45q30 -11 162 -20v-113q-144 4 -291 4q-108 0 -244 -4zM498 625h413q-180 486 -206 571q-60 -169 -207 -571zM541 1638q0 80 56 134.5t134 54.5q85 0 138 -51.5t53 -133.5q0 -83 -56 -137.5t-137 -54.5q-79 0 -133.5 52t-54.5 136zM625 1642 q0 -53 28.5 -83.5t75.5 -30.5q48 0 77.5 29.5t29.5 84.5q0 53 -30.5 81t-76.5 28q-44 0 -74 -28.5t-30 -80.5z" />
<glyph unicode="&#xc6;" horiz-adv-x="2041" d="M12 -2v113q119 6 154 32q52 45 119 150l538 825q43 65 43 107q0 12 -6.5 20.5t-20 14t-27 8.5t-35 4.5t-36.5 2t-38.5 1t-34.5 0.5v108h1097q72 0 100.5 -26t28.5 -74q0 -40 -20 -237h-105q-7 55 -15 90t-17 52t-21 25q-22 17 -68.5 23t-164.5 6h-230v-461h148 q81 0 114.5 7t51.5 28q30 38 39 123h100q-2 -53 -2 -219q0 -143 2 -227h-96q-11 87 -39 127q-12 15 -38 21.5t-49.5 7.5t-86.5 1h-144v-418q0 -29 6 -47t18.5 -27t33.5 -12q71 -8 188 -8q137 0 199 14t92 42q41 38 80 172h100q-8 -237 -35 -308q-20 -59 -161 -59h-885v111 q108 7 139 18q13 5 22 14t13.5 17t6.5 25.5t2 27.5t-0.5 37t-0.5 41v209h-477l-135 -205q-51 -74 -51 -123q0 -10 3.5 -18.5t11.5 -14.5t15.5 -10.5t22 -7t24.5 -4.5t28.5 -3t28.5 -1.5t31 -0.5q4 0 6 -0.5t5.5 -0.5h6h5.5v-113q-200 4 -301 4q-91 0 -283 -4zM672 635h399 v575q0 25 -12 25q-8 0 -14.5 -7t-14.5 -24q-51 -88 -358 -569z" />
<glyph unicode="&#xc7;" horiz-adv-x="1376" d="M98 668q0 348 197.5 548.5t531.5 200.5q204 0 328 -47q52 -20 75 -49.5t23 -75.5q0 -104 -18 -223h-109q-11 144 -47 180q-60 66 -266 66q-108 0 -201 -37t-164 -107.5t-112 -182.5t-41 -253q0 -148 42 -260t115 -177.5t164 -97.5t197 -32q94 0 163 20t103 49 q40 37 82 168h109q-3 -145 -27 -227q-24 -78 -127 -113q-148 -47 -332 -47h-20q-19 -46 -19 -67q0 -30 37 -51q81 -39 113.5 -77.5t32.5 -97.5q0 -212 -359 -266l-20 92q115 25 170 60t55 94q0 34 -23 60.5t-71 52.5q-43 24 -43 65q0 52 39 141q-266 30 -422 209.5 t-156 481.5z" />
<glyph unicode="&#xc8;" horiz-adv-x="1228" d="M70 0v111q81 5 118 11t50 19q12 12 15 38t3 95v846q0 104 -12 121q-10 15 -45.5 22t-128.5 13v108h880q72 0 100.5 -26t28.5 -74q0 -80 -16 -237h-109q-15 142 -51 167q-23 17 -70 23t-165 6h-226v-461h144q83 0 117 7t51 28q31 40 37 123h102q-4 -53 -4 -219 q0 -143 4 -227h-96q-11 87 -39 127q-16 21 -51.5 25.5t-124.5 4.5h-140v-418q0 -44 12.5 -62.5t43.5 -23.5q71 -8 188 -8q138 0 201 13.5t92 42.5q37 39 76 172h102q-4 -220 -37 -308q-9 -27 -53 -43t-109 -16h-888zM330 1767q0 33 23.5 57.5t54.5 24.5q26 0 50 -14t62 -55 l238 -250l-51 -62l-291 191q-86 57 -86 108z" />
<glyph unicode="&#xc9;" horiz-adv-x="1228" d="M70 0v111q81 5 118 11t50 19q12 12 15 38t3 95v846q0 104 -12 121q-10 15 -45.5 22t-128.5 13v108h880q72 0 100.5 -26t28.5 -74q0 -80 -16 -237h-109q-15 142 -51 167q-23 17 -70 23t-165 6h-226v-461h144q83 0 117 7t51 28q31 40 37 123h102q-4 -53 -4 -219 q0 -143 4 -227h-96q-11 87 -39 127q-16 21 -51.5 25.5t-124.5 4.5h-140v-418q0 -44 12.5 -62.5t43.5 -23.5q71 -8 188 -8q138 0 201 13.5t92 42.5q37 39 76 172h102q-4 -220 -37 -308q-9 -27 -53 -43t-109 -16h-888zM451 1530l239 250q39 40 63 54.5t50 14.5q31 0 53.5 -24 t22.5 -58q0 -53 -86 -108l-291 -191z" />
<glyph unicode="&#xca;" horiz-adv-x="1228" d="M70 0v111q81 5 118 11t50 19q12 12 15 38t3 95v846q0 104 -12 121q-10 15 -45.5 22t-128.5 13v108h880q72 0 100.5 -26t28.5 -74q0 -80 -16 -237h-109q-15 142 -51 167q-23 17 -70 23t-165 6h-226v-461h144q83 0 117 7t51 28q31 40 37 123h102q-4 -53 -4 -219 q0 -143 4 -227h-96q-11 87 -39 127q-16 21 -51.5 25.5t-124.5 4.5h-140v-418q0 -44 12.5 -62.5t43.5 -23.5q71 -8 188 -8q138 0 201 13.5t92 42.5q37 39 76 172h102q-4 -220 -37 -308q-9 -27 -53 -43t-109 -16h-888zM305 1518l234 276q37 43 75 43q44 0 80 -45l226 -272 l-60 -56l-252 201l-250 -201z" />
<glyph unicode="&#xcb;" horiz-adv-x="1228" d="M70 0v111q81 5 118 11t50 19q12 12 15 38t3 95v846q0 104 -12 121q-10 15 -45.5 22t-128.5 13v108h880q72 0 100.5 -26t28.5 -74q0 -80 -16 -237h-109q-15 142 -51 167q-23 17 -70 23t-165 6h-226v-461h144q83 0 117 7t51 28q31 40 37 123h102q-4 -53 -4 -219 q0 -143 4 -227h-96q-11 87 -39 127q-16 21 -51.5 25.5t-124.5 4.5h-140v-418q0 -44 12.5 -62.5t43.5 -23.5q71 -8 188 -8q138 0 201 13.5t92 42.5q37 39 76 172h102q-4 -220 -37 -308q-9 -27 -53 -43t-109 -16h-888zM340 1628q0 45 28.5 75t73.5 30q46 0 74.5 -30t28.5 -75 q0 -44 -29.5 -75t-75.5 -31q-43 0 -71.5 30t-28.5 76zM696 1628q0 45 30 75t77 30q44 0 72 -30t28 -75q0 -44 -29 -75t-75 -31q-43 0 -73 30.5t-30 75.5z" />
<glyph unicode="&#xcc;" horiz-adv-x="698" d="M70 -2v113q150 10 172 32q9 10 11.5 35t2.5 96v846q0 101 -14 121q-19 25 -172 35v110q216 -6 270 -6q31 0 289 6v-110q-153 -9 -174 -37q-13 -18 -13 -119v-844q0 -110 13 -126t49.5 -24.5t124.5 -14.5v-113q-176 4 -283 4q-100 0 -276 -4zM84 1767q0 33 23.5 57.5 t54.5 24.5q26 0 50 -14t62 -55l238 -250l-51 -62l-291 191q-86 57 -86 108z" />
<glyph unicode="&#xcd;" horiz-adv-x="698" d="M70 -2v113q150 10 172 32q9 10 11.5 35t2.5 96v846q0 101 -14 121q-19 25 -172 35v110q216 -6 270 -6q31 0 289 6v-110q-153 -9 -174 -37q-13 -18 -13 -119v-844q0 -110 13 -126t49.5 -24.5t124.5 -14.5v-113q-176 4 -283 4q-100 0 -276 -4zM170 1530l240 250 q39 40 63 54.5t49 14.5q31 0 53.5 -24t22.5 -58q0 -53 -86 -108l-291 -191z" />
<glyph unicode="&#xce;" horiz-adv-x="698" d="M43 1518l233 276q37 43 76 43q44 0 80 -45l225 -272l-59 -56l-252 201l-250 -201zM70 -2v113q150 10 172 32q9 10 11.5 35t2.5 96v846q0 101 -14 121q-19 25 -172 35v110q216 -6 270 -6q31 0 289 6v-110q-153 -9 -174 -37q-13 -18 -13 -119v-844q0 -110 13 -126 t49.5 -24.5t124.5 -14.5v-113q-176 4 -283 4q-100 0 -276 -4z" />
<glyph unicode="&#xcf;" horiz-adv-x="698" d="M68 1628q0 45 28.5 75t73.5 30q46 0 74 -30t28 -75q0 -44 -29 -75t-75 -31q-43 0 -71.5 30t-28.5 76zM70 -2v113q150 10 172 32q9 10 11.5 35t2.5 96v846q0 101 -14 121q-19 25 -172 35v110q216 -6 270 -6q31 0 289 6v-110q-153 -9 -174 -37q-13 -18 -13 -119v-844 q0 -110 13 -126t49.5 -24.5t124.5 -14.5v-113q-176 4 -283 4q-100 0 -276 -4zM424 1628q0 45 29.5 75t76.5 30q44 0 72.5 -30t28.5 -75q0 -44 -29.5 -75t-75.5 -31q-43 0 -72.5 30.5t-29.5 75.5z" />
<glyph unicode="&#xd0;" horiz-adv-x="1474" d="M59 668v114h197v338q0 94 -8 115q-10 22 -43 29t-135 12v108h348q309 0 458 -24t248 -86q129 -82 189.5 -219t60.5 -336q0 -421 -266 -598q-93 -63 -222 -92t-331 -29h-485v111q90 5 125 11t47 19q9 12 11.5 34.5t2.5 86.5v406h-197zM442 229q0 -36 11 -50.5t41 -22.5 q64 -17 161 -17q256 0 389.5 143.5t133.5 424.5q0 179 -61.5 298t-174.5 173q-129 63 -375 63h-125v-459h381v-114h-381v-439z" />
<glyph unicode="&#xd1;" horiz-adv-x="1517" d="M59 1276v110q90 -4 240 -4q92 0 164 4q593 -877 717 -1083q-5 149 -9 454t-4 306q-5 150 -18 174q-21 32 -174 39v110q218 -4 268 -4q36 0 254 4v-110q-84 -6 -115.5 -13t-50.5 -22q-12 -14 -16 -48t-4 -130q-2 -176 -2 -651q0 -46 1 -172.5t1 -165.5q0 -92 -90 -92 q-31 0 -51 14.5t-40 44.5q-717 1091 -735 1120q1 -121 3.5 -319.5t5 -348.5t2.5 -174q0 -90 4.5 -125t15.5 -49q14 -15 48.5 -22.5t125.5 -13.5v-111q-222 4 -270 4q-61 0 -269 -4v111q163 8 183 41q4 6 6 14.5t3 25.5t1.5 30.5t1.5 46t2 55.5q6 204 6 741q0 132 -16 160 q-10 17 -23.5 27t-38.5 14q-62 12 -127 12zM477 1526q24 97 70 160t112 63q41 0 117 -31l64 -26q63 -29 94 -29q47 0 98 111l76 -27q-57 -225 -168 -225q-44 0 -137 37l-60 22q-67 23 -88 23q-33 0 -53.5 -21.5t-52.5 -81.5z" />
<glyph unicode="&#xd2;" horiz-adv-x="1499" d="M98 686q0 339 182.5 534t483.5 195q166 0 288.5 -48.5t198.5 -141.5t113 -220t37 -290q0 -185 -50 -329t-139 -233.5t-206 -135.5t-256 -46q-162 0 -287 52t-204.5 147.5t-120 225.5t-40.5 290zM295 715q0 -594 459 -594q216 0 333 149.5t117 429.5q0 294 -112 431 t-336 137q-222 0 -341.5 -148t-119.5 -405zM477 1767q0 33 23.5 57.5t54.5 24.5q26 0 50.5 -14t62.5 -55l237 -250l-51 -62l-291 191q-86 57 -86 108z" />
<glyph unicode="&#xd3;" horiz-adv-x="1499" d="M98 686q0 339 182.5 534t483.5 195q166 0 288.5 -48.5t198.5 -141.5t113 -220t37 -290q0 -185 -50 -329t-139 -233.5t-206 -135.5t-256 -46q-162 0 -287 52t-204.5 147.5t-120 225.5t-40.5 290zM295 715q0 -594 459 -594q216 0 333 149.5t117 429.5q0 294 -112 431 t-336 137q-222 0 -341.5 -148t-119.5 -405zM590 1530l239 250q39 40 63 54.5t50 14.5q31 0 53.5 -24t22.5 -58q0 -53 -86 -108l-291 -191z" />
<glyph unicode="&#xd4;" horiz-adv-x="1499" d="M98 686q0 339 182.5 534t483.5 195q166 0 288.5 -48.5t198.5 -141.5t113 -220t37 -290q0 -185 -50 -329t-139 -233.5t-206 -135.5t-256 -46q-162 0 -287 52t-204.5 147.5t-120 225.5t-40.5 290zM295 715q0 -594 459 -594q216 0 333 149.5t117 429.5q0 294 -112 431 t-336 137q-222 0 -341.5 -148t-119.5 -405zM455 1518l233 276q37 43 76 43q44 0 80 -45l225 -272l-59 -56l-252 201l-250 -201z" />
<glyph unicode="&#xd5;" horiz-adv-x="1499" d="M98 686q0 339 182.5 534t483.5 195q166 0 288.5 -48.5t198.5 -141.5t113 -220t37 -290q0 -185 -50 -329t-139 -233.5t-206 -135.5t-256 -46q-162 0 -287 52t-204.5 147.5t-120 225.5t-40.5 290zM295 715q0 -594 459 -594q216 0 333 149.5t117 429.5q0 294 -112 431 t-336 137q-222 0 -341.5 -148t-119.5 -405zM440 1526q24 96 70.5 159.5t112.5 63.5q40 0 116 -31l64 -26q63 -29 94 -29q47 0 98 111l76 -27q-57 -225 -168 -225q-53 0 -137 37l-59 22q-67 23 -89 23q-33 0 -53.5 -21.5t-52.5 -81.5z" />
<glyph unicode="&#xd6;" horiz-adv-x="1499" d="M98 686q0 339 182.5 534t483.5 195q166 0 288.5 -48.5t198.5 -141.5t113 -220t37 -290q0 -185 -50 -329t-139 -233.5t-206 -135.5t-256 -46q-162 0 -287 52t-204.5 147.5t-120 225.5t-40.5 290zM295 715q0 -594 459 -594q216 0 333 149.5t117 429.5q0 294 -112 431 t-336 137q-222 0 -341.5 -148t-119.5 -405zM477 1628q0 45 29 75t74 30q46 0 74 -30t28 -75q0 -44 -29 -75t-75 -31q-43 0 -72 30t-29 76zM834 1628q0 45 29.5 75t76.5 30q44 0 72 -30t28 -75q0 -44 -29 -75t-75 -31q-43 0 -72.5 30.5t-29.5 75.5z" />
<glyph unicode="&#xd7;" horiz-adv-x="1191" d="M201 965l94 100l303 -320l297 322l92 -92l-299 -328l301 -325l-92 -99l-301 320l-301 -322l-92 96l303 324z" />
<glyph unicode="&#xd8;" horiz-adv-x="1499" d="M98 686q0 339 182.5 534t483.5 195q216 0 360 -84l111 156l90 -64l-113 -159q189 -177 189 -549q0 -185 -50 -329t-139 -233.5t-206 -135.5t-256 -46q-231 0 -381 101l-113 -158l-90 61l119 166q-187 190 -187 545zM295 715q0 -271 96 -422l637 901q-107 76 -272 76 q-222 0 -341.5 -149t-119.5 -406zM465 209q112 -90 289 -90q216 0 333 150.5t117 430.5q0 269 -98 412z" />
<glyph unicode="&#xd9;" horiz-adv-x="1556" d="M51 1276v110q164 -4 279 -4q133 0 293 4v-110q-94 -4 -130.5 -13t-48.5 -24q-15 -17 -18 -109q-2 -133 -2 -495q0 -252 35 -344q65 -170 342 -170q108 0 195 34t122 93q39 64 53.5 160.5t14.5 244.5q0 244 -8 463q-3 71 -7.5 95.5t-17.5 33.5q-28 20 -166 31v110 q76 -2 264 -2q21 0 118.5 1t135.5 1v-110q-158 -10 -176 -45q-10 -25 -10 -131v-486q0 -192 -25.5 -302.5t-85.5 -182.5q-130 -160 -444 -160q-161 0 -279 51.5t-172 139.5q-42 69 -58.5 166t-16.5 301q0 99 2 272.5t2 220.5q0 87 -13 113q-11 19 -50 29t-128 14zM498 1767 q0 34 23 58t54 24q26 0 50.5 -14t62.5 -55l238 -250l-52 -62l-290 191q-86 57 -86 108z" />
<glyph unicode="&#xda;" horiz-adv-x="1556" d="M51 1276v110q164 -4 279 -4q133 0 293 4v-110q-94 -4 -130.5 -13t-48.5 -24q-15 -17 -18 -109q-2 -133 -2 -495q0 -252 35 -344q65 -170 342 -170q108 0 195 34t122 93q39 64 53.5 160.5t14.5 244.5q0 244 -8 463q-3 71 -7.5 95.5t-17.5 33.5q-28 20 -166 31v110 q76 -2 264 -2q21 0 118.5 1t135.5 1v-110q-158 -10 -176 -45q-10 -25 -10 -131v-486q0 -192 -25.5 -302.5t-85.5 -182.5q-130 -160 -444 -160q-161 0 -279 51.5t-172 139.5q-42 69 -58.5 166t-16.5 301q0 99 2 272.5t2 220.5q0 87 -13 113q-11 19 -50 29t-128 14zM635 1530 l239 250q39 40 63 54.5t50 14.5q31 0 53.5 -24t22.5 -58q0 -53 -86 -108l-291 -191z" />
<glyph unicode="&#xdb;" horiz-adv-x="1556" d="M51 1276v110q164 -4 279 -4q133 0 293 4v-110q-94 -4 -130.5 -13t-48.5 -24q-15 -17 -18 -109q-2 -133 -2 -495q0 -252 35 -344q65 -170 342 -170q108 0 195 34t122 93q39 64 53.5 160.5t14.5 244.5q0 244 -8 463q-3 71 -7.5 95.5t-17.5 33.5q-28 20 -166 31v110 q76 -2 264 -2q21 0 118.5 1t135.5 1v-110q-158 -10 -176 -45q-10 -25 -10 -131v-486q0 -192 -25.5 -302.5t-85.5 -182.5q-130 -160 -444 -160q-161 0 -279 51.5t-172 139.5q-42 69 -58.5 166t-16.5 301q0 99 2 272.5t2 220.5q0 87 -13 113q-11 19 -50 29t-128 14zM457 1518 l233 276q37 43 76 43q44 0 80 -45l225 -272l-59 -56l-252 201l-250 -201z" />
<glyph unicode="&#xdc;" horiz-adv-x="1556" d="M51 1276v110q164 -4 279 -4q133 0 293 4v-110q-94 -4 -130.5 -13t-48.5 -24q-15 -17 -18 -109q-2 -133 -2 -495q0 -252 35 -344q65 -170 342 -170q108 0 195 34t122 93q39 64 53.5 160.5t14.5 244.5q0 244 -8 463q-3 71 -7.5 95.5t-17.5 33.5q-28 20 -166 31v110 q76 -2 264 -2q21 0 118.5 1t135.5 1v-110q-158 -10 -176 -45q-10 -25 -10 -131v-486q0 -192 -25.5 -302.5t-85.5 -182.5q-130 -160 -444 -160q-161 0 -279 51.5t-172 139.5q-42 69 -58.5 166t-16.5 301q0 99 2 272.5t2 220.5q0 87 -13 113q-11 19 -50 29t-128 14zM489 1628 q0 45 29 75t74 30q46 0 74 -30t28 -75q0 -44 -29 -75t-75 -31q-43 0 -72 30t-29 76zM846 1628q0 45 29.5 75t76.5 30q44 0 72.5 -30t28.5 -75q0 -44 -29.5 -75t-75.5 -31q-43 0 -72.5 30.5t-29.5 75.5z" />
<glyph unicode="&#xdd;" horiz-adv-x="1280" d="M10 1276v110q234 -4 256 -4q67 0 275 4v-110q-72 -2 -108.5 -10t-45 -17.5t-8.5 -27.5q0 -26 43 -103q34 -57 246 -426q159 278 254 436q41 67 41 101q0 25 -32 35.5t-128 11.5v110q98 -4 272 -4q109 0 195 4v-110q-58 -3 -99 -31q-30 -23 -96 -131l-346 -549v-317 q0 -82 8 -98q9 -19 44.5 -27t140.5 -12v-113q-218 4 -275 4q-89 0 -289 -4v113q102 4 131.5 10t40.5 22q13 21 13 105v315l-330 549q-8 12 -20 32.5t-17 29t-13.5 21.5t-13 19t-10.5 13.5t-11 12t-11 7.5q-38 24 -107 29zM537 1530l239 250q39 40 63 54.5t50 14.5 q31 0 53.5 -24t22.5 -58q0 -53 -86 -108l-291 -191z" />
<glyph unicode="&#xde;" horiz-adv-x="1200" d="M70 -2v113q93 6 126.5 12t45.5 20q9 10 11.5 34.5t2.5 96.5v846q0 101 -14 121q-19 25 -172 35v110q216 -6 270 -6q31 0 289 6v-110q-94 -6 -129.5 -13.5t-44.5 -21.5q-13 -16 -13 -96v-33h74q194 0 299 -20q164 -30 241 -122.5t77 -232.5q0 -96 -28 -170.5t-76.5 -123.5 t-119.5 -81t-152 -45.5t-179 -13.5q-91 0 -136 2v-51q0 -91 13 -107q23 -26 182 -36v-113q-176 4 -293 4q-98 0 -274 -4zM442 432q31 -2 99 -2q46 0 83.5 2.5t80 10t75 20.5t63.5 35.5t51 53t32 75t12 100.5q0 97 -49 154t-135 77q-122 23 -226 23h-86v-549z" />
<glyph unicode="&#xdf;" horiz-adv-x="1212" d="M55 791v96q106 26 140 65q22 22 26 88q9 149 39.5 232.5t89.5 142.5q57 57 137 83t158 26q160 0 249 -78.5t89 -200.5q0 -155 -147 -291q-72 -69 -95.5 -100.5t-23.5 -56.5q0 -36 51 -78q26 -22 105 -81.5t126 -102.5q117 -103 117 -244q0 -151 -97 -235.5t-265 -84.5 q-103 0 -191 37q-71 35 -71 129q0 75 6 131h92q17 -95 59 -125q36 -32 121 -32q78 0 126 38t48 109q0 89 -86 158q-43 35 -123.5 98t-101.5 80q-84 70 -84 162q0 91 100 186q56 55 86 88.5t56 83.5t26 98q0 83 -52 127.5t-140 44.5q-96 0 -152 -57.5t-67 -155.5 q-15 -154 -15 -301v-604q0 -88 8 -268q-78 4 -123 4q-84 0 -210 -4v111q120 6 141 30q18 22 18 107v545h-170z" />
<glyph unicode="&#xe0;" horiz-adv-x="1054" d="M92 258q0 64 21.5 112t72.5 86.5t143.5 58.5t225.5 20q84 0 123 -5v84q0 116 -27 158q-38 59 -172 59q-102 0 -151 -38q-35 -26 -41 -144h-105q-18 97 -18 158q0 47 24.5 75t75.5 48q45 17 114 29t128 12q209 0 280 -84q32 -36 45 -87.5t13 -135.5q0 -25 -1 -212.5 t-1 -197.5q0 -80 20 -107.5t68 -27.5q44 0 80 8v-111q-72 -32 -162 -32q-127 0 -152 116q-114 -123 -286 -123q-83 0 -153 28.5t-117.5 94t-47.5 158.5zM250 1423q0 31 25.5 53.5t56.5 22.5q28 0 48.5 -17.5t55.5 -72.5l180 -287l-63 -51l-240 240q-35 36 -49 60.5t-14 51.5 zM266 272q0 -56 28.5 -92.5t67.5 -49.5t87 -13q127 0 229 78v213q-66 4 -127 4q-82 0 -139.5 -10.5t-88.5 -30.5t-44 -44t-13 -55z" />
<glyph unicode="&#xe1;" horiz-adv-x="1054" d="M92 258q0 64 21.5 112t72.5 86.5t143.5 58.5t225.5 20q84 0 123 -5v84q0 116 -27 158q-38 59 -172 59q-102 0 -151 -38q-35 -26 -41 -144h-105q-18 97 -18 158q0 47 24.5 75t75.5 48q45 17 114 29t128 12q209 0 280 -84q32 -36 45 -87.5t13 -135.5q0 -25 -1 -212.5 t-1 -197.5q0 -80 20 -107.5t68 -27.5q44 0 80 8v-111q-72 -32 -162 -32q-127 0 -152 116q-114 -123 -286 -123q-83 0 -153 28.5t-117.5 94t-47.5 158.5zM266 272q0 -56 28.5 -92.5t67.5 -49.5t87 -13q127 0 229 78v213q-66 4 -127 4q-82 0 -139.5 -10.5t-88.5 -30.5t-44 -44 t-13 -55zM379 1122l178 287q34 54 56 72t51 18t55 -22.5t26 -53.5q0 -27 -14.5 -51t-50.5 -61l-242 -240z" />
<glyph unicode="&#xe2;" horiz-adv-x="1054" d="M92 258q0 64 21.5 112t72.5 86.5t143.5 58.5t225.5 20q84 0 123 -5v84q0 116 -27 158q-38 59 -172 59q-102 0 -151 -38q-35 -26 -41 -144h-105q-18 97 -18 158q0 47 24.5 75t75.5 48q45 17 114 29t128 12q209 0 280 -84q32 -36 45 -87.5t13 -135.5q0 -25 -1 -212.5 t-1 -197.5q0 -80 20 -107.5t68 -27.5q44 0 80 8v-111q-72 -32 -162 -32q-127 0 -152 116q-114 -123 -286 -123q-83 0 -153 28.5t-117.5 94t-47.5 158.5zM221 1092l213 311q31 45 76 45q52 0 80 -43l203 -311l-64 -52l-225 232l-221 -232zM266 272q0 -56 28.5 -92.5 t67.5 -49.5t87 -13q127 0 229 78v213q-66 4 -127 4q-82 0 -139.5 -10.5t-88.5 -30.5t-44 -44t-13 -55z" />
<glyph unicode="&#xe3;" horiz-adv-x="1054" d="M92 258q0 64 21.5 112t72.5 86.5t143.5 58.5t225.5 20q84 0 123 -5v84q0 116 -27 158q-38 59 -172 59q-102 0 -151 -38q-35 -26 -41 -144h-105q-18 97 -18 158q0 47 24.5 75t75.5 48q45 17 114 29t128 12q209 0 280 -84q32 -36 45 -87.5t13 -135.5q0 -25 -1 -212.5 t-1 -197.5q0 -80 20 -107.5t68 -27.5q44 0 80 8v-111q-72 -32 -162 -32q-127 0 -152 116q-114 -123 -286 -123q-83 0 -153 28.5t-117.5 94t-47.5 158.5zM199 1135q26 98 71 161.5t107 63.5q47 0 115 -31l55 -26q59 -27 90 -27q27 0 49.5 25.5t48.5 80.5l74 -22 q-26 -111 -70 -170.5t-96 -59.5q-41 0 -131 37l-51 25q-45 22 -88 22q-32 0 -53.5 -23t-49.5 -81zM266 272q0 -56 28.5 -92.5t67.5 -49.5t87 -13q127 0 229 78v213q-66 4 -127 4q-82 0 -139.5 -10.5t-88.5 -30.5t-44 -44t-13 -55z" />
<glyph unicode="&#xe4;" horiz-adv-x="1054" d="M92 258q0 64 21.5 112t72.5 86.5t143.5 58.5t225.5 20q84 0 123 -5v84q0 116 -27 158q-38 59 -172 59q-102 0 -151 -38q-35 -26 -41 -144h-105q-18 97 -18 158q0 47 24.5 75t75.5 48q45 17 114 29t128 12q209 0 280 -84q32 -36 45 -87.5t13 -135.5q0 -25 -1 -212.5 t-1 -197.5q0 -80 20 -107.5t68 -27.5q44 0 80 8v-111q-72 -32 -162 -32q-127 0 -152 116q-114 -123 -286 -123q-83 0 -153 28.5t-117.5 94t-47.5 158.5zM233 1272q0 43 29 72.5t74 29.5q46 0 74 -29t28 -73q0 -47 -29 -78t-77 -31q-42 0 -70.5 31t-28.5 78zM266 272 q0 -56 28.5 -92.5t67.5 -49.5t87 -13q127 0 229 78v213q-66 4 -127 4q-82 0 -139.5 -10.5t-88.5 -30.5t-44 -44t-13 -55zM563 1272q0 44 29.5 73t75.5 29q44 0 73 -29.5t29 -72.5q0 -46 -29.5 -77.5t-76.5 -31.5q-42 0 -71.5 31t-29.5 78z" />
<glyph unicode="&#xe5;" horiz-adv-x="1054" d="M92 258q0 64 21.5 112t72.5 86.5t143.5 58.5t225.5 20q84 0 123 -5v84q0 116 -27 158q-38 59 -172 59q-102 0 -151 -38q-35 -26 -41 -144h-105q-18 97 -18 158q0 47 24.5 75t75.5 48q45 17 114 29t128 12q209 0 280 -84q32 -36 45 -87.5t13 -135.5q0 -25 -1 -212.5 t-1 -197.5q0 -80 20 -107.5t68 -27.5q44 0 80 8v-111q-72 -32 -162 -32q-127 0 -152 116q-114 -123 -286 -123q-83 0 -153 28.5t-117.5 94t-47.5 158.5zM266 272q0 -56 28.5 -92.5t67.5 -49.5t87 -13q127 0 229 78v213q-66 4 -127 4q-82 0 -139.5 -10.5t-88.5 -30.5t-44 -44 t-13 -55zM317 1255q0 84 56 138.5t135 54.5q85 0 137.5 -51t52.5 -137q0 -82 -55.5 -135.5t-136.5 -53.5q-79 0 -134 51t-55 133zM401 1260q0 -49 29.5 -80t75.5 -31q47 0 76.5 30t29.5 81q0 54 -30 83t-76 29q-44 0 -74.5 -29.5t-30.5 -82.5z" />
<glyph unicode="&#xe6;" horiz-adv-x="1579" d="M92 272q0 65 24 115t79 89.5t153 60t236 20.5h86v61q0 109 -29 154q-42 62 -162 62q-103 0 -151 -39q-35 -28 -41 -140h-107q-18 97 -18 152q0 86 102 123q112 41 234 41q121 0 195 -35.5t102 -120.5q53 76 139 116t190 40q81 0 145.5 -24t106 -63t69 -92t39 -108 t11.5 -115q0 -85 -29 -112q-19 -19 -86 -19h-549v-20q0 -128 79 -212.5t233 -84.5q86 0 154 27.5t155 84.5l64 -102q-192 -160 -398 -160q-222 0 -342 150q-158 -146 -358 -146q-62 0 -118.5 17.5t-104 52t-75.5 93.5t-28 134zM266 281q0 -87 56.5 -127.5t134.5 -40.5 q135 0 264 98q-47 83 -47 225h-103q-116 0 -185 -20t-94.5 -52.5t-25.5 -82.5zM840 563l487 6v15q0 247 -231 247q-105 0 -176.5 -66t-79.5 -202z" />
<glyph unicode="&#xe7;" horiz-adv-x="985" d="M94 455q0 236 134.5 376t363.5 140q102 0 184 -21q54 -16 79.5 -44.5t25.5 -80.5q0 -83 -15 -168h-108q-8 107 -46 140.5t-141 33.5q-143 0 -223 -96.5t-80 -269.5q0 -160 79.5 -251t227.5 -91q149 0 293 102l62 -100q-72 -68 -169.5 -109t-203.5 -45q-16 -43 -16 -61 q0 -30 34 -47q77 -40 108.5 -77.5t31.5 -92.5q0 -104 -92.5 -166.5t-249.5 -87.5l-21 90q110 23 162.5 56t52.5 89q0 33 -22 58t-68 51q-41 21 -41 59q0 43 37 133q-172 21 -275.5 147t-103.5 333z" />
<glyph unicode="&#xe8;" horiz-adv-x="1030" d="M94 455q0 125 36.5 224.5t101 162.5t150 96t187.5 33q82 0 147.5 -21t107.5 -56t69.5 -83.5t39 -101t11.5 -111.5q0 -92 -26 -115q-20 -20 -89 -20h-561v-25q0 -139 80.5 -227t235.5 -88q158 0 317 110l66 -106q-177 -156 -412 -156q-148 0 -254 65t-156.5 172.5 t-50.5 246.5zM276 588l500 6v22q0 218 -227 218q-106 0 -183 -63t-90 -183zM322 1423q0 31 25.5 53.5t55.5 22.5q28 0 49 -17.5t56 -72.5l180 -287l-63 -51l-240 240q-35 36 -49 60.5t-14 51.5z" />
<glyph unicode="&#xe9;" horiz-adv-x="1030" d="M94 455q0 125 36.5 224.5t101 162.5t150 96t187.5 33q82 0 147.5 -21t107.5 -56t69.5 -83.5t39 -101t11.5 -111.5q0 -92 -26 -115q-20 -20 -89 -20h-561v-25q0 -139 80.5 -227t235.5 -88q158 0 317 110l66 -106q-177 -156 -412 -156q-148 0 -254 65t-156.5 172.5 t-50.5 246.5zM276 588l500 6v22q0 218 -227 218q-106 0 -183 -63t-90 -183zM434 1122l178 287q34 54 56 72t51 18t55.5 -22.5t26.5 -53.5q0 -26 -15 -50t-51 -62l-241 -240z" />
<glyph unicode="&#xea;" horiz-adv-x="1030" d="M94 455q0 125 36.5 224.5t101 162.5t150 96t187.5 33q82 0 147.5 -21t107.5 -56t69.5 -83.5t39 -101t11.5 -111.5q0 -92 -26 -115q-20 -20 -89 -20h-561v-25q0 -139 80.5 -227t235.5 -88q158 0 317 110l66 -106q-177 -156 -412 -156q-148 0 -254 65t-156.5 172.5 t-50.5 246.5zM266 1092l213 311q31 45 76 45q52 0 80 -43l203 -311l-64 -52l-225 232l-221 -232zM276 588l500 6v22q0 218 -227 218q-106 0 -183 -63t-90 -183z" />
<glyph unicode="&#xeb;" horiz-adv-x="1030" d="M94 455q0 125 36.5 224.5t101 162.5t150 96t187.5 33q82 0 147.5 -21t107.5 -56t69.5 -83.5t39 -101t11.5 -111.5q0 -92 -26 -115q-20 -20 -89 -20h-561v-25q0 -139 80.5 -227t235.5 -88q158 0 317 110l66 -106q-177 -156 -412 -156q-148 0 -254 65t-156.5 172.5 t-50.5 246.5zM276 588l500 6v22q0 218 -227 218q-106 0 -183 -63t-90 -183zM283 1272q0 43 28.5 72.5t73.5 29.5q46 0 74 -29t28 -73q0 -47 -29 -78t-77 -31q-42 0 -70 31t-28 78zM612 1272q0 44 29 73t76 29q44 0 73 -29.5t29 -72.5q0 -46 -29.5 -77.5t-76.5 -31.5 q-42 0 -71.5 31t-29.5 78z" />
<glyph unicode="&#xec;" horiz-adv-x="618" d="M35 1423q0 31 25.5 53.5t56.5 22.5q28 0 48.5 -17.5t55.5 -72.5l180 -287l-63 -51l-240 240q-35 36 -49 60.5t-14 51.5zM66 -2v111q126 10 143 30q16 19 16 111v389q0 96 -18 128t-86 32q-27 0 -55 -4v102q112 64 225 64q51 0 79.5 -29.5t28.5 -112.5q0 -85 -4 -280.5 t-4 -286.5q0 -84 19 -113q9 -12 37 -18t102 -12v-111q-176 4 -256 4q-137 0 -227 -4z" />
<glyph unicode="&#xed;" horiz-adv-x="618" d="M66 -2v111q126 10 143 30q16 19 16 111v389q0 96 -18 128t-86 32q-27 0 -55 -4v102q112 64 225 64q51 0 79.5 -29.5t28.5 -112.5q0 -85 -4 -280.5t-4 -286.5q0 -84 19 -113q9 -12 37 -18t102 -12v-111q-176 4 -256 4q-137 0 -227 -4zM121 1122l178 287q34 54 56 72t51 18 t55 -22.5t26 -53.5q0 -27 -14.5 -51t-50.5 -61l-242 -240z" />
<glyph unicode="&#xee;" horiz-adv-x="618" d="M-14 1092l213 311q31 45 75 45q52 0 80 -43l203 -311l-63 -52l-226 232l-221 -232zM66 -2v111q126 10 143 30q16 19 16 111v389q0 96 -18 128t-86 32q-27 0 -55 -4v102q112 64 225 64q51 0 79.5 -29.5t28.5 -112.5q0 -85 -4 -280.5t-4 -286.5q0 -84 19 -113q9 -12 37 -18 t102 -12v-111q-176 4 -256 4q-137 0 -227 -4z" />
<glyph unicode="&#xef;" horiz-adv-x="618" d="M6 1272q0 43 29 72.5t74 29.5q46 0 74 -29t28 -73q0 -47 -29.5 -78t-77.5 -31q-42 0 -70 31t-28 78zM66 -2v111q126 10 143 30q16 19 16 111v389q0 96 -18 128t-86 32q-27 0 -55 -4v102q112 64 225 64q51 0 79.5 -29.5t28.5 -112.5q0 -85 -4 -280.5t-4 -286.5 q0 -84 19 -113q9 -12 37 -18t102 -12v-111q-176 4 -256 4q-137 0 -227 -4zM336 1272q0 44 29 73t75 29q44 0 73.5 -29.5t29.5 -72.5q0 -46 -30 -77.5t-77 -31.5q-42 0 -71 31t-29 78z" />
<glyph unicode="&#xf0;" horiz-adv-x="1093" d="M94 440q0 208 122 343t325 135q70 0 138.5 -29.5t104.5 -85.5q-54 183 -170 317l-237 -135l-49 82l223 131q-108 126 -293 209l61 102q202 -75 361 -225l176 100l49 -84l-157 -92q129 -144 191 -317.5t62 -396.5q0 -246 -126 -384.5t-336 -138.5q-206 0 -325.5 131.5 t-119.5 337.5zM268 475q0 -175 77 -266.5t202 -91.5q126 0 202 83t76 230q0 165 -70.5 259.5t-213.5 94.5q-118 0 -195.5 -84.5t-77.5 -224.5z" />
<glyph unicode="&#xf1;" horiz-adv-x="1228" d="M66 -2v111q126 10 143 30q16 22 16 111v389q0 96 -18 128t-86 32q-27 0 -55 -4v102q112 64 217 64q47 0 75 -29t31 -111q69 68 167.5 108t197.5 40q59 0 109.5 -18.5t80.5 -49.5q34 -39 49 -101.5t15 -168.5v-381q0 -76 14 -100q10 -16 40 -25t112 -16v-111 q-172 4 -240 4q-66 0 -238 -4v111q65 6 91.5 12t35.5 18q17 20 17 115v338q0 124 -29 162q-39 53 -149 53q-66 0 -142 -20.5t-129 -55.5v-479q0 -91 19 -115q9 -12 33.5 -17t95.5 -11v-111q-176 4 -246 4q-137 0 -227 -4zM303 1135q26 98 71 161.5t107 63.5q47 0 115 -31 l55 -26q59 -27 90 -27q27 0 50 25.5t49 80.5l73 -22q-26 -111 -69.5 -170.5t-95.5 -59.5q-42 0 -132 37l-51 25q-45 22 -88 22q-32 0 -53 -22.5t-49 -81.5z" />
<glyph unicode="&#xf2;" horiz-adv-x="1120" d="M94 467q0 233 132 368.5t349 135.5q230 0 340.5 -127t110.5 -357q0 -127 -36 -227t-99.5 -162.5t-147 -94.5t-182.5 -32q-229 0 -348 134t-119 362zM268 487q0 -372 295 -372q140 0 215.5 90t75.5 268q0 184 -72.5 271t-214.5 87q-145 0 -222 -89.5t-77 -254.5zM336 1423 q0 31 25.5 53.5t56.5 22.5q28 0 48.5 -17.5t55.5 -72.5l180 -287l-63 -51l-240 240q-35 36 -49 60.5t-14 51.5z" />
<glyph unicode="&#xf3;" horiz-adv-x="1120" d="M94 467q0 233 132 368.5t349 135.5q230 0 340.5 -127t110.5 -357q0 -127 -36 -227t-99.5 -162.5t-147 -94.5t-182.5 -32q-229 0 -348 134t-119 362zM268 487q0 -372 295 -372q140 0 215.5 90t75.5 268q0 184 -72.5 271t-214.5 87q-145 0 -222 -89.5t-77 -254.5zM444 1122 l179 287q35 54 56.5 72t49.5 18q29 0 55.5 -22.5t26.5 -53.5q0 -26 -15 -50t-51 -62l-241 -240z" />
<glyph unicode="&#xf4;" horiz-adv-x="1120" d="M94 467q0 233 132 368.5t349 135.5q230 0 340.5 -127t110.5 -357q0 -127 -36 -227t-99.5 -162.5t-147 -94.5t-182.5 -32q-229 0 -348 134t-119 362zM268 487q0 -372 295 -372q140 0 215.5 90t75.5 268q0 184 -72.5 271t-214.5 87q-145 0 -222 -89.5t-77 -254.5zM285 1092 l213 311q31 45 75 45q52 0 80 -43l203 -311l-63 -52l-226 232l-221 -232z" />
<glyph unicode="&#xf5;" horiz-adv-x="1120" d="M94 467q0 233 132 368.5t349 135.5q230 0 340.5 -127t110.5 -357q0 -127 -36 -227t-99.5 -162.5t-147 -94.5t-182.5 -32q-229 0 -348 134t-119 362zM258 1135q26 98 71 161.5t107 63.5q47 0 115 -31l55 -26q59 -27 90 -27q27 0 50 25.5t49 80.5l73 -22 q-26 -111 -70 -170.5t-96 -59.5q-41 0 -131 37l-51 25q-45 22 -88 22q-32 0 -53 -22.5t-49 -81.5zM268 487q0 -372 295 -372q140 0 215.5 90t75.5 268q0 184 -72.5 271t-214.5 87q-145 0 -222 -89.5t-77 -254.5z" />
<glyph unicode="&#xf6;" horiz-adv-x="1120" d="M94 467q0 233 132 368.5t349 135.5q230 0 340.5 -127t110.5 -357q0 -127 -36 -227t-99.5 -162.5t-147 -94.5t-182.5 -32q-229 0 -348 134t-119 362zM268 487q0 -372 295 -372q140 0 215.5 90t75.5 268q0 184 -72.5 271t-214.5 87q-145 0 -222 -89.5t-77 -254.5zM299 1272 q0 43 28.5 72.5t73.5 29.5q46 0 74.5 -29t28.5 -73q0 -47 -29.5 -78t-77.5 -31q-42 0 -70 31t-28 78zM629 1272q0 44 29 73t75 29q44 0 73.5 -29.5t29.5 -72.5q0 -46 -30 -77.5t-77 -31.5q-42 0 -71 31t-29 78z" />
<glyph unicode="&#xf7;" horiz-adv-x="1210" d="M139 573v144h930v-144h-930zM500 319q0 45 29.5 76t74.5 31q44 0 73.5 -31t29.5 -78q0 -46 -29.5 -78t-73.5 -32q-46 0 -75 32t-29 80zM500 975q0 44 29.5 76t74.5 32q44 0 73.5 -32.5t29.5 -79.5q0 -46 -29.5 -77.5t-73.5 -31.5q-47 0 -75.5 31.5t-28.5 81.5z" />
<glyph unicode="&#xf8;" horiz-adv-x="1120" d="M94 467q0 233 132 368.5t349 135.5q143 0 240 -51l92 131l82 -58l-92 -129q129 -123 129 -377q0 -127 -36 -227t-99.5 -162.5t-147 -94.5t-182.5 -32q-148 0 -256 60l-86 -123l-80 55l88 125q-133 130 -133 379zM268 487q0 -170 60 -258l395 562q-59 36 -156 36 q-145 0 -222 -88t-77 -252zM397 158q64 -41 166 -41q140 0 215.5 89.5t75.5 266.5q0 160 -57 248z" />
<glyph unicode="&#xf9;" horiz-adv-x="1200" d="M41 795v102q112 64 221 64q56 0 82.5 -30t26.5 -114q0 -22 -2 -210.5t-2 -268.5q0 -112 42.5 -160.5t145.5 -48.5q68 0 138.5 24t125.5 62v424q0 98 -19 129t-91 31q-28 0 -60 -4v102q110 64 236 64q52 0 78 -32t26 -118q0 -11 -2 -233.5t-2 -327.5q0 -79 18 -105t70 -26 q43 0 76 8v-111q-77 -32 -180 -32q-56 0 -96 30.5t-48 100.5q-139 -142 -340 -142q-71 0 -131 25.5t-94 69.5q-32 44 -45.5 100t-13.5 151v320q0 95 -18.5 127.5t-84.5 32.5q-8 0 -30 -2t-27 -2zM326 1423q0 31 25.5 53.5t56.5 22.5q28 0 48.5 -17.5t55.5 -72.5l180 -287 l-63 -51l-240 240q-35 36 -49 60.5t-14 51.5z" />
<glyph unicode="&#xfa;" horiz-adv-x="1200" d="M41 795v102q112 64 221 64q56 0 82.5 -30t26.5 -114q0 -22 -2 -210.5t-2 -268.5q0 -112 42.5 -160.5t145.5 -48.5q68 0 138.5 24t125.5 62v424q0 98 -19 129t-91 31q-28 0 -60 -4v102q110 64 236 64q52 0 78 -32t26 -118q0 -11 -2 -233.5t-2 -327.5q0 -79 18 -105t70 -26 q43 0 76 8v-111q-77 -32 -180 -32q-56 0 -96 30.5t-48 100.5q-139 -142 -340 -142q-71 0 -131 25.5t-94 69.5q-32 44 -45.5 100t-13.5 151v320q0 95 -18.5 127.5t-84.5 32.5q-8 0 -30 -2t-27 -2zM446 1122l179 287q35 54 56.5 72t49.5 18q29 0 55.5 -22.5t26.5 -53.5 q0 -27 -14.5 -51t-50.5 -61l-242 -240z" />
<glyph unicode="&#xfb;" horiz-adv-x="1200" d="M41 795v102q112 64 221 64q56 0 82.5 -30t26.5 -114q0 -22 -2 -210.5t-2 -268.5q0 -112 42.5 -160.5t145.5 -48.5q68 0 138.5 24t125.5 62v424q0 98 -19 129t-91 31q-28 0 -60 -4v102q110 64 236 64q52 0 78 -32t26 -118q0 -11 -2 -233.5t-2 -327.5q0 -79 18 -105t70 -26 q43 0 76 8v-111q-77 -32 -180 -32q-56 0 -96 30.5t-48 100.5q-139 -142 -340 -142q-71 0 -131 25.5t-94 69.5q-32 44 -45.5 100t-13.5 151v320q0 95 -18.5 127.5t-84.5 32.5q-8 0 -30 -2t-27 -2zM281 1092l213 311q31 45 75 45q52 0 80 -43l203 -311l-64 -52l-225 232 l-221 -232z" />
<glyph unicode="&#xfc;" horiz-adv-x="1200" d="M41 795v102q112 64 221 64q56 0 82.5 -30t26.5 -114q0 -22 -2 -210.5t-2 -268.5q0 -112 42.5 -160.5t145.5 -48.5q68 0 138.5 24t125.5 62v424q0 98 -19 129t-91 31q-28 0 -60 -4v102q110 64 236 64q52 0 78 -32t26 -118q0 -11 -2 -233.5t-2 -327.5q0 -79 18 -105t70 -26 q43 0 76 8v-111q-77 -32 -180 -32q-56 0 -96 30.5t-48 100.5q-139 -142 -340 -142q-71 0 -131 25.5t-94 69.5q-32 44 -45.5 100t-13.5 151v320q0 95 -18.5 127.5t-84.5 32.5q-8 0 -30 -2t-27 -2zM291 1272q0 43 28.5 72.5t73.5 29.5q46 0 74.5 -29t28.5 -73q0 -47 -29.5 -78 t-77.5 -31q-42 0 -70 31t-28 78zM621 1272q0 44 29 73t75 29q44 0 73 -29.5t29 -72.5q0 -46 -29.5 -77.5t-76.5 -31.5q-42 0 -71 31t-29 78z" />
<glyph unicode="&#xfd;" horiz-adv-x="1089" d="M10 834v110q136 -4 258 -4q69 0 205 4v-110q-15 -1 -88 -11q-47 -8 -47 -51q0 -28 29 -94q158 -361 231 -545q30 85 89 254.5t89 253.5q31 89 31 141q0 14 -9 25t-22 14q-50 10 -108 13v110q132 -4 213 -4q78 0 200 4v-110q-62 -3 -90 -25q-19 -16 -32.5 -44t-43.5 -106 l-241 -653q-107 -287 -160 -391q-49 -96 -113.5 -136t-152.5 -40q-176 0 -176 135q0 64 12 123h98q13 -73 24 -90q20 -27 70 -27q68 0 115 86q53 89 144 332q-54 0 -84 68l-277 628q-44 96 -72 117q-20 16 -92 23zM463 1122l178 287q34 54 56 72t51 18t55 -22.5t26 -53.5 q0 -27 -14.5 -51t-50.5 -61l-242 -240z" />
<glyph unicode="&#xfe;" horiz-adv-x="1169" d="M18 1333v103q119 61 230 61q56 0 81 -30.5t25 -114.5q0 -62 -3 -230t-3 -293q158 142 340 142q186 0 278.5 -131.5t92.5 -352.5q0 -230 -131 -370t-375 -140q-85 0 -203 25v-252q0 -113 25 -141q8 -10 19.5 -15t52 -10.5t114.5 -9.5v-111q-240 5 -270 5q-31 0 -266 -5 v111q74 6 104 14t41 23q12 16 12 106v1413q0 159 -26 185q-24 22 -76 22q-12 0 -62 -4zM350 154q72 -33 217 -33q153 0 231.5 95t78.5 255q0 72 -13.5 131.5t-43.5 109t-85 77.5t-131 28q-61 0 -130.5 -24t-123.5 -62v-577z" />
<glyph unicode="&#xff;" horiz-adv-x="1089" d="M10 834v110q136 -4 258 -4q69 0 205 4v-110q-15 -1 -88 -11q-47 -8 -47 -51q0 -28 29 -94q158 -361 231 -545q30 85 89 254.5t89 253.5q31 89 31 141q0 14 -9 25t-22 14q-50 10 -108 13v110q132 -4 213 -4q78 0 200 4v-110q-62 -3 -90 -25q-19 -16 -32.5 -44t-43.5 -106 l-241 -653q-107 -287 -160 -391q-49 -96 -113.5 -136t-152.5 -40q-176 0 -176 135q0 64 12 123h98q13 -73 24 -90q20 -27 70 -27q68 0 115 86q53 89 144 332q-54 0 -84 68l-277 628q-44 96 -72 117q-20 16 -92 23zM307 1272q0 43 29 72.5t74 29.5q46 0 74 -29t28 -73 q0 -47 -29 -78t-77 -31q-42 0 -70.5 31t-28.5 78zM637 1272q0 44 29 73t75 29q44 0 73.5 -29.5t29.5 -72.5q0 -46 -30 -77.5t-77 -31.5q-42 0 -71 31t-29 78z" />
<glyph unicode="&#x100;" horiz-adv-x="1460" d="M12 -2v113q111 6 144 32q19 14 33 43.5t49 122.5l383 1016q19 48 47 71t71 23q40 0 65 -20.5t44 -69.5l393 -1053q23 -63 39.5 -92t38.5 -47q26 -23 129 -26v-113q-152 4 -268 4q-148 0 -308 -4v113q104 5 140 14q47 11 47 49q0 40 -29 123l-72 190h-501l-68 -180 q-31 -91 -31 -131q0 -34 27 -45q30 -11 162 -20v-113q-144 4 -291 4q-108 0 -244 -4zM444 1546v135h564v-135h-564zM498 625h413q-180 486 -206 571q-60 -169 -207 -571z" />
<glyph unicode="&#x101;" horiz-adv-x="1054" d="M92 258q0 64 21.5 112t72.5 86.5t143.5 58.5t225.5 20q84 0 123 -5v84q0 116 -27 158q-38 59 -172 59q-102 0 -151 -38q-35 -26 -41 -144h-105q-18 97 -18 158q0 47 24.5 75t75.5 48q45 17 114 29t128 12q209 0 280 -84q32 -36 45 -87.5t13 -135.5q0 -25 -1 -212.5 t-1 -197.5q0 -80 20 -107.5t68 -27.5q44 0 80 8v-111q-72 -32 -162 -32q-127 0 -152 116q-114 -123 -286 -123q-83 0 -153 28.5t-117.5 94t-47.5 158.5zM254 1143v129h526v-129h-526zM266 272q0 -56 28.5 -92.5t67.5 -49.5t87 -13q127 0 229 78v213q-66 4 -127 4 q-82 0 -139.5 -10.5t-88.5 -30.5t-44 -44t-13 -55z" />
<glyph unicode="&#x102;" horiz-adv-x="1460" d="M12 -2v113q111 6 144 32q19 14 33 43.5t49 122.5l383 1016q19 48 47 71t71 23q40 0 65 -20.5t44 -69.5l393 -1053q23 -63 39.5 -92t38.5 -47q26 -23 129 -26v-113q-152 4 -268 4q-148 0 -308 -4v113q104 5 140 14q47 11 47 49q0 40 -29 123l-72 190h-501l-68 -180 q-31 -91 -31 -131q0 -34 27 -45q30 -11 162 -20v-113q-144 4 -291 4q-108 0 -244 -4zM444 1800l78 8q9 -85 63 -132.5t148 -47.5q183 0 217 180l78 -4q-1 -147 -84.5 -228t-210.5 -81q-133 0 -211 73.5t-78 231.5zM498 625h413q-180 486 -206 571q-60 -169 -207 -571z" />
<glyph unicode="&#x103;" horiz-adv-x="1054" d="M92 258q0 64 21.5 112t72.5 86.5t143.5 58.5t225.5 20q84 0 123 -5v84q0 116 -27 158q-38 59 -172 59q-102 0 -151 -38q-35 -26 -41 -144h-105q-18 97 -18 158q0 47 24.5 75t75.5 48q45 17 114 29t128 12q209 0 280 -84q32 -36 45 -87.5t13 -135.5q0 -25 -1 -212.5 t-1 -197.5q0 -80 20 -107.5t68 -27.5q44 0 80 8v-111q-72 -32 -162 -32q-127 0 -152 116q-114 -123 -286 -123q-83 0 -153 28.5t-117.5 94t-47.5 158.5zM248 1393l80 4q11 -86 58.5 -132t129.5 -46t130 43t67 135l78 -2q0 -149 -75.5 -229.5t-199.5 -80.5 q-130 0 -198.5 71.5t-69.5 236.5zM266 272q0 -56 28.5 -92.5t67.5 -49.5t87 -13q127 0 229 78v213q-66 4 -127 4q-82 0 -139.5 -10.5t-88.5 -30.5t-44 -44t-13 -55z" />
<glyph unicode="&#x104;" horiz-adv-x="1460" d="M12 -2v113q111 6 144 32q19 14 33 43.5t49 122.5l383 1016q19 48 47 71t71 23q40 0 65 -20.5t44 -69.5l393 -1053q23 -63 39.5 -92t38.5 -47q26 -23 129 -26v-113q-132 4 -236 4q-188 -199 -188 -330q0 -57 29.5 -89t85.5 -32q79 0 143 31l31 -74q-43 -31 -103.5 -54 t-117.5 -23q-102 0 -153.5 58.5t-51.5 145.5q0 91 53.5 177t169.5 190q-35 -1 -122 -2t-116 -2v113q104 5 140 14q47 11 47 49q0 40 -29 123l-72 190h-501l-68 -180q-31 -91 -31 -131q0 -34 27 -45q30 -11 162 -20v-113q-144 4 -291 4q-108 0 -244 -4zM498 625h413 q-180 486 -206 571q-60 -169 -207 -571z" />
<glyph unicode="&#x105;" horiz-adv-x="1054" d="M92 258q0 64 21.5 112t72.5 86.5t143.5 58.5t225.5 20q84 0 123 -5v84q0 116 -27 158q-38 59 -172 59q-102 0 -151 -38q-35 -26 -41 -144h-105q-18 97 -18 158q0 47 24.5 75t75.5 48q45 17 114 29t128 12q209 0 280 -84q32 -36 45 -87.5t13 -135.5q0 -25 -1 -212.5 t-1 -197.5q0 -80 20 -107.5t68 -27.5q44 0 80 8v-111q-51 -22 -113 -28q-88 -96 -128 -167.5t-40 -137.5q0 -53 28.5 -84t82.5 -31q66 0 139 29l31 -70q-43 -30 -101.5 -53t-113.5 -23q-99 0 -150 57.5t-51 141.5t49.5 163.5t155.5 176.5q-85 18 -103 110 q-114 -123 -286 -123q-83 0 -153 28.5t-117.5 94t-47.5 158.5zM266 272q0 -56 28.5 -92.5t67.5 -49.5t87 -13q127 0 229 78v213q-66 4 -127 4q-82 0 -139.5 -10.5t-88.5 -30.5t-44 -44t-13 -55z" />
<glyph unicode="&#x106;" horiz-adv-x="1376" d="M98 668q0 348 197.5 548.5t531.5 200.5q204 0 328 -47q52 -20 75 -49.5t23 -75.5q0 -104 -18 -223h-109q-11 144 -47 180q-60 66 -266 66q-108 0 -201 -37t-164 -107.5t-112 -182.5t-41 -253q0 -148 42 -260t115 -177.5t164 -97.5t197 -32q94 0 163 20t103 49 q40 37 82 168h109q-3 -145 -27 -227q-24 -78 -127 -113q-148 -47 -332 -47q-152 0 -277.5 45.5t-216.5 132.5t-141.5 219.5t-50.5 299.5zM651 1530l240 250q39 40 63 54.5t50 14.5q31 0 53 -24t22 -58q0 -53 -86 -108l-291 -191z" />
<glyph unicode="&#x107;" horiz-adv-x="985" d="M94 455q0 236 134.5 376t363.5 140q102 0 184 -21q54 -16 79.5 -44.5t25.5 -80.5q0 -83 -15 -168h-108q-8 107 -46 140.5t-141 33.5q-143 0 -223 -96.5t-80 -269.5q0 -160 79.5 -251t227.5 -91q149 0 293 102l62 -100q-76 -71 -178.5 -112.5t-214.5 -41.5 q-197 0 -320 129.5t-123 354.5zM451 1122l178 287q35 54 56.5 72t49.5 18q29 0 55.5 -22.5t26.5 -53.5q0 -27 -14.5 -51t-50.5 -61l-242 -240z" />
<glyph unicode="&#x108;" horiz-adv-x="1376" d="M98 668q0 348 197.5 548.5t531.5 200.5q204 0 328 -47q52 -20 75 -49.5t23 -75.5q0 -104 -18 -223h-109q-11 144 -47 180q-60 66 -266 66q-108 0 -201 -37t-164 -107.5t-112 -182.5t-41 -253q0 -148 42 -260t115 -177.5t164 -97.5t197 -32q94 0 163 20t103 49 q40 37 82 168h109q-3 -145 -27 -227q-24 -78 -127 -113q-148 -47 -332 -47q-152 0 -277.5 45.5t-216.5 132.5t-141.5 219.5t-50.5 299.5zM473 1518l234 276q37 43 75 43q44 0 80 -45l225 -272l-59 -56l-252 201l-250 -201z" />
<glyph unicode="&#x109;" horiz-adv-x="985" d="M94 455q0 236 134.5 376t363.5 140q102 0 184 -21q54 -16 79.5 -44.5t25.5 -80.5q0 -83 -15 -168h-108q-8 107 -46 140.5t-141 33.5q-143 0 -223 -96.5t-80 -269.5q0 -160 79.5 -251t227.5 -91q149 0 293 102l62 -100q-76 -71 -178.5 -112.5t-214.5 -41.5 q-197 0 -320 129.5t-123 354.5zM274 1092l213 311q31 45 76 45q52 0 80 -43l203 -311l-64 -52l-225 232l-221 -232z" />
<glyph unicode="&#x10a;" horiz-adv-x="1376" d="M98 668q0 348 197.5 548.5t531.5 200.5q204 0 328 -47q52 -20 75 -49.5t23 -75.5q0 -104 -18 -223h-109q-11 144 -47 180q-60 66 -266 66q-108 0 -201 -37t-164 -107.5t-112 -182.5t-41 -253q0 -148 42 -260t115 -177.5t164 -97.5t197 -32q94 0 163 20t103 49 q40 37 82 168h109q-3 -145 -27 -227q-24 -78 -127 -113q-148 -47 -332 -47q-152 0 -277.5 45.5t-216.5 132.5t-141.5 219.5t-50.5 299.5zM672 1628q0 45 28.5 75t73.5 30q46 0 74.5 -30t28.5 -75q0 -44 -29.5 -75t-77.5 -31q-41 0 -69.5 30.5t-28.5 75.5z" />
<glyph unicode="&#x10b;" horiz-adv-x="985" d="M94 455q0 236 134.5 376t363.5 140q102 0 184 -21q54 -16 79.5 -44.5t25.5 -80.5q0 -83 -15 -168h-108q-8 107 -46 140.5t-141 33.5q-143 0 -223 -96.5t-80 -269.5q0 -160 79.5 -251t227.5 -91q149 0 293 102l62 -100q-76 -71 -178.5 -112.5t-214.5 -41.5 q-197 0 -320 129.5t-123 354.5zM471 1272q0 43 28.5 72.5t73.5 29.5q46 0 74.5 -29t28.5 -73q0 -47 -29.5 -78t-77.5 -31q-42 0 -70 31t-28 78z" />
<glyph unicode="&#x10c;" horiz-adv-x="1376" d="M98 668q0 348 197.5 548.5t531.5 200.5q204 0 328 -47q52 -20 75 -49.5t23 -75.5q0 -104 -18 -223h-109q-11 144 -47 180q-60 66 -266 66q-108 0 -201 -37t-164 -107.5t-112 -182.5t-41 -253q0 -148 42 -260t115 -177.5t164 -97.5t197 -32q94 0 163 20t103 49 q40 37 82 168h109q-3 -145 -27 -227q-24 -78 -127 -113q-148 -47 -332 -47q-152 0 -277.5 45.5t-216.5 132.5t-141.5 219.5t-50.5 299.5zM477 1786l58 53l249 -199l252 199l56 -51l-236 -279q-40 -43 -76 -43q-46 0 -82 47z" />
<glyph unicode="&#x10d;" horiz-adv-x="985" d="M94 455q0 236 134.5 376t363.5 140q102 0 184 -21q54 -16 79.5 -44.5t25.5 -80.5q0 -83 -15 -168h-108q-8 107 -46 140.5t-141 33.5q-143 0 -223 -96.5t-80 -269.5q0 -160 79.5 -251t227.5 -91q149 0 293 102l62 -100q-76 -71 -178.5 -112.5t-214.5 -41.5 q-197 0 -320 129.5t-123 354.5zM274 1399l64 49l223 -229l225 229l60 -47l-213 -314q-28 -43 -76 -43q-52 0 -80 43z" />
<glyph unicode="&#x10e;" horiz-adv-x="1474" d="M70 0v111q90 5 125 11t47 19q9 12 11.5 34.5t2.5 86.5v858q0 94 -8 115q-10 22 -43 29t-135 12v108h348q309 0 458 -24t248 -86q129 -82 189.5 -219t60.5 -336q0 -421 -266 -598q-93 -63 -222 -92t-331 -29h-485zM354 1786l58 53l250 -199l251 199l56 -51l-236 -279 q-40 -43 -76 -43q-46 0 -82 47zM442 223q0 -33 11 -46t41 -21q56 -15 168 -15q255 0 385.5 142t130.5 424q0 179 -61.5 298t-174.5 173q-129 63 -375 63h-125v-1018z" />
<glyph unicode="&#x10f;" horiz-adv-x="1206" d="M94 442q0 114 31.5 209.5t93 167t160 111t225.5 39.5q48 0 112.5 -11t108.5 -34q0 169 -2 243l-1.5 39t-2.5 33.5t-5 30t-8 23t-12.5 20t-18 13t-25 9t-33.5 2.5q-23 0 -55 -4v103q117 61 227 61q55 0 80.5 -31t25.5 -106q0 -27 -1 -213.5t-1 -263.5v-645q0 -65 18.5 -92 t65.5 -27q44 0 80 8v-111q-79 -32 -168 -32q-121 0 -145 116q-110 -125 -314 -125q-200 0 -318 131.5t-118 335.5zM268 465q0 -160 85.5 -252t221.5 -92q67 0 138.5 23t111.5 57v579q-35 20 -100 34.5t-123 14.5q-154 0 -244 -95.5t-90 -268.5zM1067 1075q147 95 147 168 q0 18 -7 35.5t-23 24.5q-33 17 -49.5 38.5t-16.5 61.5q0 41 32.5 71.5t80.5 30.5q43 0 73.5 -19.5t45 -54t14.5 -81.5q0 -92 -58.5 -176.5t-193.5 -163.5z" />
<glyph unicode="&#x110;" horiz-adv-x="1474" d="M59 668v114h197v338q0 94 -8 115q-10 22 -43 29t-135 12v108h348q309 0 458 -24t248 -86q129 -82 189.5 -219t60.5 -336q0 -421 -266 -598q-93 -63 -222 -92t-331 -29h-485v111q90 5 125 11t47 19q9 12 11.5 34.5t2.5 86.5v406h-197zM442 229q0 -36 11 -50.5t41 -22.5 q64 -17 161 -17q256 0 389.5 143.5t133.5 424.5q0 179 -61.5 298t-174.5 173q-129 63 -375 63h-125v-459h381v-114h-381v-439z" />
<glyph unicode="&#x111;" horiz-adv-x="1206" d="M94 442q0 91 19.5 170.5t60.5 145t100.5 112.5t143.5 73t186 26q48 0 112.5 -11t108.5 -34v145h-303v98h301q-3 107 -24 142q-18 30 -82 30q-31 0 -55 -6v103q117 61 227 61q55 0 80.5 -31t25.5 -106q0 -10 -1 -77.5t-1 -115.5h154v-98h-154v-831q0 -65 18.5 -92 t65.5 -27q44 0 80 8v-111q-79 -32 -168 -32q-121 0 -145 116q-110 -125 -314 -125q-200 0 -318 131.5t-118 335.5zM268 465q0 -160 85.5 -252t221.5 -92q67 0 138.5 23t111.5 57v579q-35 20 -100 34.5t-123 14.5q-154 0 -244 -95.5t-90 -268.5z" />
<glyph unicode="&#x112;" horiz-adv-x="1228" d="M70 0v111q81 5 118 11t50 19q12 12 15 38t3 95v846q0 104 -12 121q-10 15 -45.5 22t-128.5 13v108h880q72 0 100.5 -26t28.5 -74q0 -80 -16 -237h-109q-15 142 -51 167q-23 17 -70 23t-165 6h-226v-461h144q83 0 117 7t51 28q31 40 37 123h102q-4 -53 -4 -219 q0 -143 4 -227h-96q-11 87 -39 127q-16 21 -51.5 25.5t-124.5 4.5h-140v-418q0 -44 12.5 -62.5t43.5 -23.5q71 -8 188 -8q138 0 201 13.5t92 42.5q37 39 76 172h102q-4 -220 -37 -308q-9 -27 -53 -43t-109 -16h-888zM344 1546v135h563v-135h-563z" />
<glyph unicode="&#x113;" horiz-adv-x="1030" d="M94 455q0 125 36.5 224.5t101 162.5t150 96t187.5 33q82 0 147.5 -21t107.5 -56t69.5 -83.5t39 -101t11.5 -111.5q0 -92 -26 -115q-20 -20 -89 -20h-561v-25q0 -139 80.5 -227t235.5 -88q158 0 317 110l66 -106q-177 -156 -412 -156q-148 0 -254 65t-156.5 172.5 t-50.5 246.5zM276 588l500 6v22q0 218 -227 218q-106 0 -183 -63t-90 -183zM293 1143v129h526v-129h-526z" />
<glyph unicode="&#x114;" horiz-adv-x="1228" d="M70 0v111q81 5 118 11t50 19q12 12 15 38t3 95v846q0 104 -12 121q-10 15 -45.5 22t-128.5 13v108h880q72 0 100.5 -26t28.5 -74q0 -80 -16 -237h-109q-15 142 -51 167q-23 17 -70 23t-165 6h-226v-461h144q83 0 117 7t51 28q31 40 37 123h102q-4 -53 -4 -219 q0 -143 4 -227h-96q-11 87 -39 127q-16 21 -51.5 25.5t-124.5 4.5h-140v-418q0 -44 12.5 -62.5t43.5 -23.5q71 -8 188 -8q138 0 201 13.5t92 42.5q37 39 76 172h102q-4 -220 -37 -308q-9 -27 -53 -43t-109 -16h-888zM336 1800l78 8q9 -85 63 -132.5t148 -47.5q183 0 217 180 l78 -4q-1 -147 -84.5 -228t-210.5 -81q-133 0 -211 73.5t-78 231.5z" />
<glyph unicode="&#x115;" horiz-adv-x="1030" d="M94 455q0 125 36.5 224.5t101 162.5t150 96t187.5 33q82 0 147.5 -21t107.5 -56t69.5 -83.5t39 -101t11.5 -111.5q0 -92 -26 -115q-20 -20 -89 -20h-561v-25q0 -139 80.5 -227t235.5 -88q158 0 317 110l66 -106q-177 -156 -412 -156q-148 0 -254 65t-156.5 172.5 t-50.5 246.5zM276 588l500 6v22q0 218 -227 218q-106 0 -183 -63t-90 -183zM285 1393l80 4q11 -86 58.5 -132t129.5 -46t130 43t67 135l77 -2q0 -150 -75 -230t-199 -80q-130 0 -198.5 71.5t-69.5 236.5z" />
<glyph unicode="&#x116;" horiz-adv-x="1228" d="M70 0v111q81 5 118 11t50 19q12 12 15 38t3 95v846q0 104 -12 121q-10 15 -45.5 22t-128.5 13v108h880q72 0 100.5 -26t28.5 -74q0 -80 -16 -237h-109q-15 142 -51 167q-23 17 -70 23t-165 6h-226v-461h144q83 0 117 7t51 28q31 40 37 123h102q-4 -53 -4 -219 q0 -143 4 -227h-96q-11 87 -39 127q-16 21 -51.5 25.5t-124.5 4.5h-140v-418q0 -44 12.5 -62.5t43.5 -23.5q71 -8 188 -8q138 0 201 13.5t92 42.5q37 39 76 172h102q-4 -220 -37 -308q-9 -27 -53 -43t-109 -16h-888zM526 1628q0 45 29 75t74 30q46 0 74 -30t28 -75 q0 -44 -29 -75t-77 -31q-42 0 -70.5 30.5t-28.5 75.5z" />
<glyph unicode="&#x117;" horiz-adv-x="1030" d="M94 455q0 125 36.5 224.5t101 162.5t150 96t187.5 33q82 0 147.5 -21t107.5 -56t69.5 -83.5t39 -101t11.5 -111.5q0 -92 -26 -115q-20 -20 -89 -20h-561v-25q0 -139 80.5 -227t235.5 -88q158 0 317 110l66 -106q-177 -156 -412 -156q-148 0 -254 65t-156.5 172.5 t-50.5 246.5zM276 588l500 6v22q0 218 -227 218q-106 0 -183 -63t-90 -183zM444 1272q0 43 29 72.5t74 29.5q46 0 74 -29t28 -73q0 -47 -29 -78t-77 -31q-42 0 -70.5 31t-28.5 78z" />
<glyph unicode="&#x118;" horiz-adv-x="1228" d="M70 0v111q81 5 118 11t50 19q12 12 15 38t3 95v846q0 104 -12 121q-10 15 -45.5 22t-128.5 13v108h880q72 0 100.5 -26t28.5 -74q0 -80 -16 -237h-109q-15 142 -51 167q-23 17 -70 23t-165 6h-226v-461h144q83 0 117 7t51 28q31 40 37 123h102q-4 -53 -4 -219 q0 -143 4 -227h-96q-11 87 -39 127q-16 21 -51.5 25.5t-124.5 4.5h-140v-418q0 -44 12.5 -62.5t43.5 -23.5q71 -8 188 -8q138 0 201 13.5t92 42.5q37 39 76 172h102q-4 -220 -37 -308q-15 -47 -119 -57q-188 -199 -188 -330q0 -57 29.5 -89t85.5 -32q79 0 143 31l31 -74 q-43 -31 -103.5 -54t-117.5 -23q-102 0 -153.5 58.5t-51.5 145.5q0 91 53.5 176.5t167.5 188.5h-827z" />
<glyph unicode="&#x119;" horiz-adv-x="1030" d="M94 455q0 125 36.5 224.5t101 162.5t150 96t187.5 33q82 0 147.5 -21t107.5 -56t69.5 -83.5t39 -101t11.5 -111.5q0 -92 -26 -115q-20 -20 -89 -20h-561v-25q0 -139 80.5 -227t235.5 -88q158 0 317 110l66 -106q-110 -98 -262 -137q-89 -95 -129.5 -168t-40.5 -139 q0 -53 28 -84t82 -31q67 0 139 29l31 -70q-43 -30 -101.5 -53t-113.5 -23q-99 0 -150 57.5t-51 141.5q0 81 45 156.5t142 166.5q-10 -2 -31 -2q-148 0 -254 65t-156.5 172.5t-50.5 246.5zM276 588l500 6v22q0 218 -227 218q-106 0 -183 -63t-90 -183z" />
<glyph unicode="&#x11a;" horiz-adv-x="1228" d="M70 0v111q81 5 118 11t50 19q12 12 15 38t3 95v846q0 104 -12 121q-10 15 -45.5 22t-128.5 13v108h880q72 0 100.5 -26t28.5 -74q0 -80 -16 -237h-109q-15 142 -51 167q-23 17 -70 23t-165 6h-226v-461h144q83 0 117 7t51 28q31 40 37 123h102q-4 -53 -4 -219 q0 -143 4 -227h-96q-11 87 -39 127q-16 21 -51.5 25.5t-124.5 4.5h-140v-418q0 -44 12.5 -62.5t43.5 -23.5q71 -8 188 -8q138 0 201 13.5t92 42.5q37 39 76 172h102q-4 -220 -37 -308q-9 -27 -53 -43t-109 -16h-888zM317 1786l58 53l250 -199l252 199l55 -51l-236 -279 q-40 -43 -75 -43q-46 0 -82 47z" />
<glyph unicode="&#x11b;" horiz-adv-x="1030" d="M94 455q0 125 36.5 224.5t101 162.5t150 96t187.5 33q82 0 147.5 -21t107.5 -56t69.5 -83.5t39 -101t11.5 -111.5q0 -92 -26 -115q-20 -20 -89 -20h-561v-25q0 -139 80.5 -227t235.5 -88q158 0 317 110l66 -106q-177 -156 -412 -156q-148 0 -254 65t-156.5 172.5 t-50.5 246.5zM276 588l500 6v22q0 218 -227 218q-106 0 -183 -63t-90 -183zM279 1399l63 49l223 -229l226 229l59 -47l-213 -314q-28 -43 -76 -43q-52 0 -80 43z" />
<glyph unicode="&#x11c;" horiz-adv-x="1458" d="M98 668q0 171 53.5 312t150 236.5t232 148t297.5 52.5q225 0 357 -53q94 -35 94 -121q0 -107 -22 -223h-109q-10 134 -47 180q-59 68 -277 68q-108 0 -202 -35t-169 -103.5t-118 -182t-43 -259.5q0 -120 28.5 -217t76.5 -161t115.5 -107.5t142 -62.5t157.5 -19 q115 0 182 18q41 9 68 31q18 18 18 88v152q0 48 -4 69t-16 31q-26 18 -168 25v112q171 -6 272 -6q24 0 234 6v-112q-86 -5 -105 -14q-25 -13 -29 -61q-1 -18 -1 -52v-258q0 -87 -72 -113q-187 -68 -414 -68q-149 0 -274 46t-216 133t-141.5 220t-50.5 300zM479 1518l234 276 q37 43 75 43q44 0 80 -45l226 -272l-60 -56l-252 201l-250 -201z" />
<glyph unicode="&#x11d;" horiz-adv-x="1064" d="M31 -279q0 113 90 183q72 56 141 88q-94 40 -94 129q0 90 123 174q-197 92 -197 309q0 163 111.5 265t294.5 102q150 0 237 -49q202 0 291 -7v-118q-117 -6 -180 -6q24 -26 37.5 -76t13.5 -94q0 -176 -111.5 -271.5t-295.5 -95.5q-75 0 -105 6q-37 -27 -51 -45.5 t-14 -42.5q0 -15 19.5 -30t59.5 -25q46 -11 175.5 -32t193.5 -34q132 -24 190 -88.5t58 -173.5q0 -160 -140.5 -258t-369.5 -98t-353 81t-124 207zM197 -248q0 -72 81 -124t246 -52q87 0 151 17t98 46t49.5 60t15.5 65q0 33 -15 56.5t-67 47t-144 38.5q-198 30 -254 47 q-89 -52 -125 -99t-36 -102zM227 1092l213 311q31 45 76 45q52 0 80 -43l203 -311l-64 -52l-225 232l-221 -232zM266 621q0 -121 64 -176.5t172 -55.5q101 0 166 56t65 159q0 230 -235 230q-110 0 -171 -59.5t-61 -153.5z" />
<glyph unicode="&#x11e;" horiz-adv-x="1458" d="M98 668q0 171 53.5 312t150 236.5t232 148t297.5 52.5q225 0 357 -53q94 -35 94 -121q0 -107 -22 -223h-109q-10 134 -47 180q-59 68 -277 68q-108 0 -202 -35t-169 -103.5t-118 -182t-43 -259.5q0 -120 28.5 -217t76.5 -161t115.5 -107.5t142 -62.5t157.5 -19 q115 0 182 18q41 9 68 31q18 18 18 88v152q0 48 -4 69t-16 31q-26 18 -168 25v112q171 -6 272 -6q24 0 234 6v-112q-86 -5 -105 -14q-25 -13 -29 -61q-1 -18 -1 -52v-258q0 -87 -72 -113q-187 -68 -414 -68q-149 0 -274 46t-216 133t-141.5 220t-50.5 300zM489 1800l78 8 q9 -85 63 -132.5t148 -47.5q183 0 217 180l78 -4q-1 -147 -84.5 -228t-210.5 -81q-133 0 -211 73.5t-78 231.5z" />
<glyph unicode="&#x11f;" horiz-adv-x="1064" d="M31 -279q0 113 90 183q72 56 141 88q-94 40 -94 129q0 90 123 174q-197 92 -197 309q0 163 111.5 265t294.5 102q150 0 237 -49q202 0 291 -7v-118q-117 -6 -180 -6q24 -26 37.5 -76t13.5 -94q0 -176 -111.5 -271.5t-295.5 -95.5q-75 0 -105 6q-37 -27 -51 -45.5 t-14 -42.5q0 -15 19.5 -30t59.5 -25q46 -11 175.5 -32t193.5 -34q132 -24 190 -88.5t58 -173.5q0 -160 -140.5 -258t-369.5 -98t-353 81t-124 207zM197 -248q0 -72 81 -124t246 -52q87 0 151 17t98 46t49.5 60t15.5 65q0 33 -15 56.5t-67 47t-144 38.5q-198 30 -254 47 q-89 -52 -125 -99t-36 -102zM240 1393l79 4q11 -86 59 -132t130 -46t130 43t67 135l77 -2q0 -150 -75 -230t-199 -80q-130 0 -198.5 71.5t-69.5 236.5zM266 621q0 -121 64 -176.5t172 -55.5q101 0 166 56t65 159q0 230 -235 230q-110 0 -171 -59.5t-61 -153.5z" />
<glyph unicode="&#x120;" horiz-adv-x="1458" d="M98 668q0 171 53.5 312t150 236.5t232 148t297.5 52.5q225 0 357 -53q94 -35 94 -121q0 -107 -22 -223h-109q-10 134 -47 180q-59 68 -277 68q-108 0 -202 -35t-169 -103.5t-118 -182t-43 -259.5q0 -120 28.5 -217t76.5 -161t115.5 -107.5t142 -62.5t157.5 -19 q115 0 182 18q41 9 68 31q18 18 18 88v152q0 48 -4 69t-16 31q-26 18 -168 25v112q171 -6 272 -6q24 0 234 6v-112q-86 -5 -105 -14q-25 -13 -29 -61q-1 -18 -1 -52v-258q0 -87 -72 -113q-187 -68 -414 -68q-149 0 -274 46t-216 133t-141.5 220t-50.5 300zM702 1628 q0 45 29 75t74 30q46 0 74 -30t28 -75q0 -44 -29 -75t-77 -31q-42 0 -70.5 30.5t-28.5 75.5z" />
<glyph unicode="&#x121;" horiz-adv-x="1064" d="M31 -279q0 113 90 183q72 56 141 88q-94 40 -94 129q0 90 123 174q-197 92 -197 309q0 163 111.5 265t294.5 102q150 0 237 -49q202 0 291 -7v-118q-117 -6 -180 -6q24 -26 37.5 -76t13.5 -94q0 -176 -111.5 -271.5t-295.5 -95.5q-75 0 -105 6q-37 -27 -51 -45.5 t-14 -42.5q0 -15 19.5 -30t59.5 -25q46 -11 175.5 -32t193.5 -34q132 -24 190 -88.5t58 -173.5q0 -160 -140.5 -258t-369.5 -98t-353 81t-124 207zM197 -248q0 -72 81 -124t246 -52q87 0 151 17t98 46t49.5 60t15.5 65q0 33 -15 56.5t-67 47t-144 38.5q-198 30 -254 47 q-89 -52 -125 -99t-36 -102zM266 621q0 -121 64 -176.5t172 -55.5q101 0 166 56t65 159q0 230 -235 230q-110 0 -171 -59.5t-61 -153.5zM414 1272q0 43 28.5 72.5t73.5 29.5q46 0 74 -29t28 -73q0 -47 -29 -78t-77 -31q-42 0 -70 31t-28 78z" />
<glyph unicode="&#x122;" horiz-adv-x="1458" d="M98 668q0 171 53.5 312t150 236.5t232 148t297.5 52.5q225 0 357 -53q94 -35 94 -121q0 -107 -22 -223h-109q-10 134 -47 180q-59 68 -277 68q-108 0 -202 -35t-169 -103.5t-118 -182t-43 -259.5q0 -120 28.5 -217t76.5 -161t115.5 -107.5t142 -62.5t157.5 -19 q115 0 182 18q41 9 68 31q18 18 18 88v152q0 48 -4 69t-16 31q-26 18 -168 25v112q171 -6 272 -6q24 0 234 6v-112q-86 -5 -105 -14q-25 -13 -29 -61q-1 -18 -1 -52v-258q0 -87 -72 -113q-187 -68 -414 -68q-149 0 -274 46t-216 133t-141.5 220t-50.5 300zM602 -522 q148 96 148 168q0 46 -31 59q-66 30 -66 98q0 44 32 74.5t81 30.5q64 0 98.5 -42.5t34.5 -113.5q0 -195 -252 -340z" />
<glyph unicode="&#x123;" horiz-adv-x="1064" d="M31 -279q0 107 86 183q66 51 149 88q-96 43 -96 129q0 91 121 174q-197 92 -197 309q0 163 111.5 265t294.5 102q150 0 237 -49q202 0 291 -7v-118q-117 -6 -180 -6q24 -26 37.5 -76t13.5 -94q0 -176 -111.5 -271.5t-295.5 -95.5q-75 0 -105 6q-65 -46 -65 -90 q0 -15 19.5 -31t59.5 -26q49 -14 181 -33.5t188 -30.5q132 -26 190 -89.5t58 -170.5q0 -162 -140 -259t-370 -97q-229 0 -353 81t-124 207zM197 -250q0 -71 81.5 -122.5t245.5 -51.5q162 0 238 54t76 124q0 41 -15 67.5t-66 50.5t-145 38q-33 5 -68.5 10t-55.5 8t-42 6.5 t-33 5.5t-23 4t-19 4t-13 5q-74 -35 -117.5 -87.5t-43.5 -115.5zM266 621q0 -123 64 -178.5t172 -55.5q102 0 166.5 55.5t64.5 161.5q0 234 -235 234q-111 0 -171.5 -61t-60.5 -156zM385 1253q0 194 252 340l45 -65q-150 -99 -150 -168q0 -45 35 -62q32 -17 48 -38t16 -60 q0 -40 -32 -70t-79 -30q-66 0 -100.5 41t-34.5 112z" />
<glyph unicode="&#x124;" horiz-adv-x="1544" d="M70 -2v113q89 6 124.5 12.5t47.5 19.5q9 12 11.5 36t2.5 95v846q0 101 -14 121q-19 25 -172 35v110q258 -6 268 -6q27 0 291 6v-110q-153 -9 -174 -37q-13 -18 -13 -119v-325h662v323q0 103 -17 123q-22 25 -172 35v110q258 -6 273 -6q19 0 289 6v-110q-153 -9 -177 -37 q-12 -17 -12 -119v-844q0 -115 12 -129q13 -15 48 -22.5t129 -13.5v-113q-180 4 -281 4q-109 0 -281 -4v113q89 6 124.5 12.5t47.5 19.5q11 12 14 36.5t3 94.5v379h-662v-377q0 -113 13 -129q11 -14 46.5 -22t127.5 -14v-113q-176 4 -285 4q-98 0 -274 -4zM461 1518l233 276 q37 43 76 43q44 0 80 -45l225 -272l-59 -56l-252 201l-250 -201z" />
<glyph unicode="&#x125;" horiz-adv-x="1206" d="M-8 1561l233 276q37 43 76 43q44 0 80 -45l225 -272l-59 -56l-252 201l-250 -201zM49 1333v103q119 61 232 61q53 0 78.5 -31t25.5 -114q0 -62 -2 -234.5t-2 -296.5q68 68 166.5 108t197.5 40q58 0 109.5 -18.5t79.5 -49.5q35 -36 49 -98.5t14 -171.5v-381q0 -74 13 -100 q10 -16 40.5 -25t112.5 -16v-111q-172 4 -239 4q-62 0 -238 -4v111q110 10 129 32q16 19 16 113v338q0 117 -37 166t-143 49q-66 0 -141 -20.5t-127 -55.5v-479q0 -95 16 -113q9 -12 35 -18t96 -12v-111q-180 4 -249 4q-138 0 -228 -4v111q81 8 108.5 13.5t37.5 16.5 q16 22 16 111v852q0 189 -27 213q-22 22 -77 22q-12 0 -62 -4z" />
<glyph unicode="&#x126;" horiz-adv-x="1544" d="M63 946v117h193v57q0 101 -14 121q-19 25 -172 35v110q258 -6 268 -6q27 0 291 6v-110q-153 -9 -174 -37q-13 -18 -13 -119v-57h662v55q0 103 -17 123q-22 25 -172 35v110q258 -6 273 -6q19 0 289 6v-110q-153 -9 -177 -37q-12 -17 -12 -119v-57h193v-117h-193v-670 q0 -115 12 -129q13 -15 48 -22.5t129 -13.5v-113q-180 4 -281 4q-109 0 -281 -4v113q89 6 124.5 12.5t47.5 19.5q11 12 14 36.5t3 94.5v379h-662v-377q0 -113 13 -129q11 -14 46.5 -22t127.5 -14v-113q-176 4 -285 4q-98 0 -274 -4v113q89 6 124.5 12.5t47.5 19.5 q9 12 11.5 36t2.5 95v672h-193zM442 791h662v155h-662v-155z" />
<glyph unicode="&#x127;" horiz-adv-x="1206" d="M49 1069v98h166q-2 107 -18.5 138.5t-85.5 31.5q-12 0 -62 -4v103q119 61 232 61q53 0 78.5 -31t25.5 -114q0 -119 -2 -185h291v-98h-293v-248q68 68 166.5 108t197.5 40q58 0 109.5 -18.5t79.5 -49.5q35 -36 49 -98.5t14 -171.5v-381q0 -74 13 -100q10 -16 40.5 -25 t112.5 -16v-111q-172 4 -239 4q-62 0 -238 -4v111q110 10 129 32q16 19 16 113v338q0 117 -37 166t-143 49q-66 0 -141 -20.5t-127 -55.5v-479q0 -95 16 -113q9 -12 35 -18t96 -12v-111q-180 4 -249 4q-138 0 -228 -4v111q81 8 108.5 13.5t37.5 16.5q16 22 16 111v819h-166z " />
<glyph unicode="&#x128;" horiz-adv-x="698" d="M33 1526q24 97 70 160t112 63q41 0 117 -31l63 -26q63 -29 94 -29q48 0 99 111l76 -27q-57 -225 -168 -225q-54 0 -138 37l-59 22q-67 23 -88 23q-33 0 -54 -22t-53 -81zM70 -2v113q150 10 172 32q9 10 11.5 35t2.5 96v846q0 101 -14 121q-19 25 -172 35v110 q216 -6 270 -6q31 0 289 6v-110q-153 -9 -174 -37q-13 -18 -13 -119v-844q0 -110 13 -126t49.5 -24.5t124.5 -14.5v-113q-176 4 -283 4q-100 0 -276 -4z" />
<glyph unicode="&#x129;" horiz-adv-x="618" d="M-18 1135q26 98 71 161.5t107 63.5q46 0 114 -31l56 -26q59 -27 90 -27q27 0 49.5 25.5t48.5 80.5l74 -22q-26 -111 -70 -170.5t-96 -59.5q-41 0 -131 37l-51 25q-45 22 -88 22q-32 0 -53.5 -23t-49.5 -81zM66 -2v111q126 10 143 30q16 19 16 111v389q0 96 -18 128 t-86 32q-27 0 -55 -4v102q112 64 225 64q51 0 79.5 -29.5t28.5 -112.5q0 -85 -4 -280.5t-4 -286.5q0 -84 19 -113q9 -12 37 -18t102 -12v-111q-176 4 -256 4q-137 0 -227 -4z" />
<glyph unicode="&#x12a;" horiz-adv-x="698" d="M70 -2v113q150 10 172 32q9 10 11.5 35t2.5 96v846q0 101 -14 121q-19 25 -172 35v110q216 -6 270 -6q31 0 289 6v-110q-153 -9 -174 -37q-13 -18 -13 -119v-844q0 -110 13 -126t49.5 -24.5t124.5 -14.5v-113q-176 4 -283 4q-100 0 -276 -4zM86 1604v129h526v-129h-526z " />
<glyph unicode="&#x12b;" horiz-adv-x="618" d="M25 1143v129h526v-129h-526zM66 -2v111q126 10 143 30q16 19 16 111v389q0 96 -18 128t-86 32q-27 0 -55 -4v102q112 64 225 64q51 0 79.5 -29.5t28.5 -112.5q0 -85 -4 -280.5t-4 -286.5q0 -84 19 -113q9 -12 37 -18t102 -12v-111q-176 4 -256 4q-137 0 -227 -4z" />
<glyph unicode="&#x12c;" horiz-adv-x="698" d="M57 1800l78 8q9 -85 63 -132.5t148 -47.5q183 0 217 180l78 -4q-1 -147 -84.5 -228t-210.5 -81q-133 0 -211 73.5t-78 231.5zM70 -2v113q150 10 172 32q9 10 11.5 35t2.5 96v846q0 101 -14 121q-19 25 -172 35v110q216 -6 270 -6q31 0 289 6v-110q-153 -9 -174 -37 q-13 -18 -13 -119v-844q0 -110 13 -126t49.5 -24.5t124.5 -14.5v-113q-176 4 -283 4q-100 0 -276 -4z" />
<glyph unicode="&#x12d;" horiz-adv-x="618" d="M27 1393l79 4q11 -86 59 -132t130 -46t130 43t67 135l77 -2q0 -150 -75 -230t-199 -80q-130 0 -198.5 71.5t-69.5 236.5zM66 -2v111q126 10 143 30q16 19 16 111v389q0 96 -18 128t-86 32q-27 0 -55 -4v102q112 64 225 64q51 0 79.5 -29.5t28.5 -112.5q0 -85 -4 -280.5 t-4 -286.5q0 -84 19 -113q9 -12 37 -18t102 -12v-111q-176 4 -256 4q-137 0 -227 -4z" />
<glyph unicode="&#x12e;" horiz-adv-x="698" d="M70 -2v113q150 10 172 32q9 10 11.5 35t2.5 96v846q0 101 -14 121q-19 25 -172 35v110q216 -6 270 -6q31 0 289 6v-110q-153 -9 -174 -37q-13 -18 -13 -119v-844q0 -110 13 -126t49.5 -24.5t124.5 -14.5v-113l-209 4q-98 -104 -143.5 -183.5t-45.5 -146.5q0 -57 29.5 -89 t85.5 -32q79 0 143 31l31 -74q-43 -31 -103.5 -54t-117.5 -23q-102 0 -153.5 58.5t-51.5 145.5q0 91 53.5 177t169.5 190q-95 0 -247 -4z" />
<glyph unicode="&#x12f;" horiz-adv-x="618" d="M66 -2v111q126 10 143 30q16 19 16 111v389q0 96 -18 128t-86 32q-27 0 -55 -4v102q112 64 225 64q51 0 79.5 -29.5t28.5 -112.5q0 -85 -4 -280.5t-4 -286.5q0 -84 19 -113q9 -12 37 -18t102 -12v-111q-49 2 -158 2q-95 -100 -137.5 -174.5t-42.5 -142.5q0 -53 28.5 -84 t82.5 -31q66 0 139 29l31 -70q-42 -30 -101.5 -53t-114.5 -23q-98 0 -149 57t-51 142q0 87 52.5 168.5t166.5 183.5h-2q-137 0 -227 -4zM156 1327q0 56 34 91.5t89 35.5q60 0 90 -33.5t30 -89.5q0 -55 -34.5 -90t-92.5 -35q-53 0 -84.5 34.5t-31.5 86.5z" />
<glyph unicode="&#x130;" horiz-adv-x="698" d="M70 -2v113q150 10 172 32q9 10 11.5 35t2.5 96v846q0 101 -14 121q-19 25 -172 35v110q216 -6 270 -6q31 0 289 6v-110q-153 -9 -174 -37q-13 -18 -13 -119v-844q0 -110 13 -126t49.5 -24.5t124.5 -14.5v-113q-176 4 -283 4q-100 0 -276 -4zM250 1628q0 45 28.5 75 t73.5 30q46 0 74.5 -30t28.5 -75q0 -44 -29.5 -75t-77.5 -31q-41 0 -69.5 30.5t-28.5 75.5z" />
<glyph unicode="&#x131;" horiz-adv-x="618" d="M66 -2v111q126 10 143 30q16 19 16 111v389q0 96 -18 128t-86 32q-27 0 -55 -4v102q112 64 225 64q51 0 79.5 -29.5t28.5 -112.5q0 -85 -4 -280.5t-4 -286.5q0 -84 19 -113q9 -12 37 -18t102 -12v-111q-176 4 -256 4q-137 0 -227 -4z" />
<glyph unicode="&#x132;" horiz-adv-x="1359" d="M70 -2v113q150 10 172 32q9 10 11.5 35t2.5 96v846q0 101 -14 121q-19 25 -172 35v110q216 -6 270 -6q31 0 289 6v-110q-153 -9 -174 -37q-13 -18 -13 -119v-844q0 -110 13 -126t49.5 -24.5t124.5 -14.5v-113q-176 4 -283 4q-100 0 -276 -4zM684 -215q187 101 225 233 q35 126 35 322v780q0 105 -14 121q-18 24 -178 35v110q228 -6 276 -6q25 0 283 6v-110q-90 -5 -123.5 -14t-44.5 -23q-15 -21 -15 -119v-776q0 -269 -59 -395q-37 -80 -127.5 -153t-202.5 -120z" />
<glyph unicode="&#x133;" horiz-adv-x="1179" d="M66 -2v111q126 10 143 30q16 19 16 111v389q0 96 -18 128t-86 32q-27 0 -55 -4v102q112 64 225 64q51 0 79.5 -29.5t28.5 -112.5q0 -85 -4 -280.5t-4 -286.5q0 -84 19 -113q9 -12 37 -18t102 -12v-111q-176 4 -256 4q-137 0 -227 -4zM156 1327q0 56 34 91.5t89 35.5 q60 0 90 -33.5t30 -89.5q0 -55 -34.5 -90t-92.5 -35q-53 0 -84.5 34.5t-31.5 86.5zM594 -465q74 35 120.5 71.5t71.5 86.5q37 73 37 301v647q0 114 -28 139q-30 23 -78 23q-22 0 -58 -6v100q115 64 226 64q53 0 79.5 -29t26.5 -113q0 -86 2 -398.5t2 -397.5 q0 -150 -11.5 -231.5t-49.5 -147.5q-42 -69 -126.5 -124.5t-174.5 -82.5zM752 1327q0 56 32.5 91.5t87.5 35.5q62 0 91.5 -33.5t29.5 -89.5q0 -55 -33 -90t-92 -35q-54 0 -85 34t-31 87z" />
<glyph unicode="&#x134;" horiz-adv-x="663" d="M-12 -215q187 101 225 233q35 126 35 322v780q0 103 -15 121q-18 24 -178 35v110q228 -6 277 -6q24 0 282 6v-110q-90 -5 -123.5 -14t-44.5 -23q-14 -20 -14 -119v-776q0 -269 -59 -395q-37 -80 -127.5 -153t-202.5 -120zM55 1552l213 312q31 45 76 45q52 0 80 -43 l203 -312l-64 -51l-225 232l-221 -232z" />
<glyph unicode="&#x135;" horiz-adv-x="565" d="M-29 1092l217 311q25 45 74 45q50 0 78 -43l205 -311l-64 -52l-225 232l-221 -232zM-23 -465q74 35 121 71.5t72 86.5q37 73 37 301v647q0 113 -29 139q-30 23 -78 23q-21 0 -57 -6v100q115 64 225 64q53 0 80 -29t27 -113q0 -86 2 -398.5t2 -397.5q0 -149 -11.5 -231 t-50.5 -148q-42 -69 -126.5 -124.5t-174.5 -82.5z" />
<glyph unicode="&#x136;" horiz-adv-x="1380" d="M70 -2v113q17 1 36.5 2t31 2t25.5 2t22 1.5t17 2t14 3.5t10.5 4.5t9 5.5t6.5 7q9 12 11.5 36t2.5 95v848q0 104 -14 123q-16 23 -172 33v110q258 -6 268 -6q33 0 297 6v-110q-161 -10 -180 -35q-13 -18 -13 -121v-848q0 -73 2 -96t11 -33q19 -24 180 -32v-113 q-176 4 -291 4q-98 0 -274 -4zM473 705q153 142 408 417q65 74 65 111q0 21 -28.5 30t-110.5 13v110q92 -4 278 -4q156 0 246 4v-110q-68 -5 -102 -21q-66 -32 -154 -125q-14 -14 -186.5 -189t-212.5 -214q108 -144 245 -304t209 -222q41 -33 64 -47.5t53 -24.5 q52 -20 113 -20v-109q-44 -8 -119 -8q-69 0 -137.5 21.5t-116.5 62.5q-86 74 -245.5 270.5t-268.5 358.5zM563 -522q148 96 148 168q0 46 -31 59q-66 30 -66 98q0 44 32 74.5t81 30.5q64 0 98.5 -42.5t34.5 -113.5q0 -195 -252 -340z" />
<glyph unicode="&#x137;" horiz-adv-x="1132" d="M70 1335v101q117 61 227 61q54 0 79 -27t25 -108q0 -30 -1 -144t-1 -190v-776q0 -86 19 -115q8 -11 35.5 -16t101.5 -12v-111q-176 4 -256 4q-137 0 -227 -4v111q73 6 103 12t40 18q16 19 16 109v907v41.5t-1 34.5t-3 30.5t-5.5 24t-9 21t-13.5 14t-19 11t-25 5t-32 2.5 q-25 0 -53 -4zM422 481q120 92 223 195q86 84 86 123q0 20 -26 29t-107 12v104q100 -4 240 -4q143 0 237 4v-104q-63 -4 -96 -21q-45 -24 -154 -121q-177 -159 -213 -194q78 -102 134 -164.5t122 -122.5q80 -64 111 -80q42 -22 135 -26v-111q-50 -4 -104 -4q-151 0 -246 80 q-33 28 -67.5 63t-73.5 82.5t-63.5 79t-72 94t-65.5 86.5zM430 -522q148 96 148 168q0 46 -31 59q-66 30 -66 98q0 44 32 74.5t81 30.5q64 0 98.5 -42.5t34.5 -113.5q0 -195 -252 -340z" />
<glyph unicode="&#x138;" horiz-adv-x="1132" d="M72 -2v111q73 6 103 12t40 18q16 19 16 109v370q0 47 -1 69.5t-6.5 49t-17 37t-31.5 18t-52 7.5q-35 0 -51 -4v102q118 64 225 64q52 0 78 -32.5t26 -113.5q0 -23 -1 -128t-1 -179v-256q0 -86 19 -115q8 -11 35.5 -16t101.5 -12v-111q-176 4 -256 4q-137 0 -227 -4z M422 481q86 62 219 195q51 52 69.5 78.5t18.5 44.5q0 20 -25.5 29t-107.5 12v104q100 -4 244 -4q139 0 233 4v-104q-58 -4 -92 -19q-66 -34 -160 -121q-28 -25 -107 -99.5t-104 -96.5q49 -62 100 -118t83.5 -86.5t89.5 -82.5q77 -62 110 -76q65 -27 135 -30v-111 q-46 -4 -104 -4q-149 0 -244 80q-35 29 -70 63.5t-76.5 83t-66.5 78.5t-76 94t-69 86z" />
<glyph unicode="&#x139;" horiz-adv-x="1224" d="M70 0v111q144 9 168 32q12 12 15 37.5t3 93.5v848q0 102 -14 121q-22 26 -172 33v110q216 -6 270 -6q39 0 297 6v-110q-162 -10 -182 -37q-13 -18 -13 -119v-887q0 -44 12.5 -62.5t43.5 -23.5q71 -8 188 -8q138 0 200 13.5t89 42.5q42 45 76 178h98q-2 -86 -13 -177 t-26 -137q-22 -59 -156 -59h-884zM240 1530l239 250q39 40 63 54.5t50 14.5q31 0 53.5 -24t22.5 -58q0 -53 -86 -108l-291 -191z" />
<glyph unicode="&#x13a;" horiz-adv-x="622" d="M70 1335v101q114 61 227 61q54 0 79 -27t25 -108q0 -31 -1 -205t-1 -254v-651q0 -88 19 -113q9 -12 37 -18t100 -12v-111q-176 4 -256 4q-137 0 -227 -4v111q126 10 143 30q16 22 16 111v811q0 126 -5.5 184.5t-24.5 75.5q-18 18 -78 18q-25 0 -53 -4zM113 1665l239 250 q39 40 63.5 55t49.5 15q31 0 53.5 -24t22.5 -58q0 -54 -86 -109l-291 -190z" />
<glyph unicode="&#x13b;" horiz-adv-x="1224" d="M70 0v111q144 9 168 32q12 12 15 37.5t3 93.5v848q0 102 -14 121q-22 26 -172 33v110q216 -6 270 -6q39 0 297 6v-110q-162 -10 -182 -37q-13 -18 -13 -119v-887q0 -44 12.5 -62.5t43.5 -23.5q71 -8 188 -8q138 0 200 13.5t89 42.5q42 45 76 178h98q-2 -86 -13 -177 t-26 -137q-22 -59 -156 -59h-884zM463 -522q147 95 147 168q0 46 -30 59q-66 30 -66 98q0 44 32 74.5t81 30.5q64 0 98.5 -42.5t34.5 -113.5q0 -195 -252 -340z" />
<glyph unicode="&#x13c;" horiz-adv-x="622" d="M70 1335v101q114 61 227 61q54 0 79 -27t25 -108q0 -31 -1 -205t-1 -254v-651q0 -88 19 -113q9 -12 37 -18t100 -12v-111q-176 4 -256 4q-137 0 -227 -4v111q126 10 143 30q16 22 16 111v811q0 126 -5.5 184.5t-24.5 75.5q-18 18 -78 18q-25 0 -53 -4zM162 -522 q147 95 147 168q0 46 -30 59q-66 30 -66 98q0 44 32 74.5t81 30.5q64 0 98.5 -42.5t34.5 -113.5q0 -195 -252 -340z" />
<glyph unicode="&#x13d;" horiz-adv-x="1224" d="M70 0v111q144 9 168 32q12 12 15 37.5t3 93.5v848q0 102 -14 121q-22 26 -172 33v110q216 -6 270 -6q39 0 297 6v-110q-162 -10 -182 -37q-13 -18 -13 -119v-887q0 -44 12.5 -62.5t43.5 -23.5q71 -8 188 -8q138 0 200 13.5t89 42.5q42 45 76 178h98q-2 -86 -13 -177 t-26 -137q-22 -59 -156 -59h-884zM700 1014q148 96 148 168q0 46 -31 59q-65 30 -65 98q0 44 31.5 74.5t80.5 30.5q64 0 98.5 -42.5t34.5 -113.5q0 -195 -252 -340z" />
<glyph unicode="&#x13e;" horiz-adv-x="622" d="M70 1335v101q114 61 227 61q54 0 79 -27t25 -108q0 -31 -1 -205t-1 -254v-651q0 -88 19 -113q9 -12 37 -18t100 -12v-111q-176 4 -256 4q-137 0 -227 -4v111q126 10 143 30q16 22 16 111v811q0 126 -5.5 184.5t-24.5 75.5q-18 18 -78 18q-25 0 -53 -4zM477 1075 q148 96 148 168q0 47 -31 60q-33 17 -49.5 38.5t-16.5 61.5q0 41 32.5 71.5t80.5 30.5q65 0 99 -41.5t34 -113.5q0 -193 -252 -340z" />
<glyph unicode="&#x13f;" horiz-adv-x="1224" d="M70 0v111q82 5 119.5 11t50.5 19q11 11 13.5 33t2.5 78v22v848q0 102 -14 121q-22 26 -172 33v110q216 -6 270 -6q39 0 297 6v-110q-162 -10 -182 -37q-13 -18 -13 -119v-887q0 -44 12.5 -62.5t43.5 -23.5q71 -8 188 -8q138 0 200 13.5t89 42.5q42 45 76 178h98 q-2 -86 -13 -177t-26 -137q-22 -59 -156 -59h-884zM797 702q0 59 38 98.5t93 39.5q59 0 97 -36.5t38 -94.5q0 -65 -37 -103.5t-96 -38.5q-56 0 -94.5 38.5t-38.5 96.5z" />
<glyph unicode="&#x140;" horiz-adv-x="753" d="M70 1335v101q114 61 227 61q54 0 79 -27t25 -108q0 -31 -1 -205t-1 -254v-651q0 -88 19 -113q9 -12 37 -18t100 -12v-111q-176 4 -256 4q-137 0 -227 -4v111q126 10 143 30q16 22 16 111v618q0 214 -4 316q-3 112 -28 137q-18 18 -76 18q-25 0 -53 -4zM571 727 q0 55 36 93t89 38q57 0 93 -35.5t36 -89.5q0 -64 -34.5 -100.5t-92.5 -36.5q-54 0 -90.5 37t-36.5 94z" />
<glyph unicode="&#x141;" horiz-adv-x="1224" d="M14 522l242 158v442q0 102 -14 121q-22 26 -172 33v110q216 -6 270 -6q39 0 297 6v-110q-162 -10 -182 -37q-13 -18 -13 -119v-317l334 221l58 -96l-392 -260v-435q0 -44 12.5 -62.5t43.5 -23.5q71 -8 188 -8q138 0 200 13.5t89 42.5q42 45 76 178h98q-2 -86 -13 -177 t-26 -137q-22 -59 -156 -59h-884v111q81 5 118 11t50 19q12 12 15 38t3 95v271l-182 -121z" />
<glyph unicode="&#x142;" horiz-adv-x="622" d="M29 575l202 158v135q0 214 -2 316q-3 112 -28 137q-18 18 -78 18q-25 0 -53 -4v101q117 61 227 61q54 0 79 -27t25 -108q0 -31 -1 -205t-1 -254v-37l154 121l57 -78l-211 -166v-491q0 -88 19 -113q9 -12 37 -18t100 -12v-111q-176 4 -256 4q-137 0 -227 -4v111 q126 10 143 30q16 22 16 111v360l-147 -114z" />
<glyph unicode="&#x143;" horiz-adv-x="1517" d="M59 1276v110q90 -4 240 -4q92 0 164 4q593 -877 717 -1083q-5 149 -9 454t-4 306q-5 150 -18 174q-21 32 -174 39v110q218 -4 268 -4q36 0 254 4v-110q-84 -6 -115.5 -13t-50.5 -22q-12 -14 -16 -48t-4 -130q-2 -176 -2 -651q0 -46 1 -172.5t1 -165.5q0 -92 -90 -92 q-31 0 -51 14.5t-40 44.5q-717 1091 -735 1120q1 -121 3.5 -319.5t5 -348.5t2.5 -174q0 -90 4.5 -125t15.5 -49q14 -15 48.5 -22.5t125.5 -13.5v-111q-222 4 -270 4q-61 0 -269 -4v111q163 8 183 41q4 6 6 14.5t3 25.5t1.5 30.5t1.5 46t2 55.5q6 204 6 741q0 132 -16 160 q-10 17 -23.5 27t-38.5 14q-62 12 -127 12zM647 1530l240 250q39 40 63 54.5t49 14.5q31 0 53.5 -24t22.5 -58q0 -53 -86 -108l-291 -191z" />
<glyph unicode="&#x144;" horiz-adv-x="1228" d="M66 -2v111q126 10 143 30q16 22 16 111v389q0 96 -18 128t-86 32q-27 0 -55 -4v102q112 64 217 64q47 0 75 -29t31 -111q69 68 167.5 108t197.5 40q59 0 109.5 -18.5t80.5 -49.5q34 -39 49 -101.5t15 -168.5v-381q0 -76 14 -100q10 -16 40 -25t112 -16v-111 q-172 4 -240 4q-66 0 -238 -4v111q65 6 91.5 12t35.5 18q17 20 17 115v338q0 124 -29 162q-39 53 -149 53q-66 0 -142 -20.5t-129 -55.5v-479q0 -91 19 -115q9 -12 33.5 -17t95.5 -11v-111q-176 4 -246 4q-137 0 -227 -4zM481 1122l178 287q34 54 56 72t51 18t55.5 -22.5 t26.5 -53.5q0 -26 -15 -50t-51 -62l-241 -240z" />
<glyph unicode="&#x145;" horiz-adv-x="1517" d="M59 1276v110q90 -4 240 -4q92 0 164 4q593 -877 717 -1083q-5 149 -9 454t-4 306q-5 150 -18 174q-21 32 -174 39v110q218 -4 268 -4q36 0 254 4v-110q-84 -6 -115.5 -13t-50.5 -22q-12 -14 -16 -48t-4 -130q-2 -176 -2 -651q0 -46 1 -172.5t1 -165.5q0 -92 -90 -92 q-31 0 -51 14.5t-40 44.5q-717 1091 -735 1120q1 -121 3.5 -319.5t5 -348.5t2.5 -174q0 -90 4.5 -125t15.5 -49q14 -15 48.5 -22.5t125.5 -13.5v-111q-222 4 -270 4q-61 0 -269 -4v111q163 8 183 41q4 6 6 14.5t3 25.5t1.5 30.5t1.5 46t2 55.5q6 204 6 741q0 132 -16 160 q-10 17 -23.5 27t-38.5 14q-62 12 -127 12zM606 -522q148 96 148 168q0 46 -31 59q-66 30 -66 98q0 44 32 74.5t81 30.5q64 0 98.5 -42.5t34.5 -113.5q0 -195 -252 -340z" />
<glyph unicode="&#x146;" horiz-adv-x="1228" d="M66 -2v111q126 10 143 30q16 22 16 111v389q0 96 -18 128t-86 32q-27 0 -55 -4v102q112 64 217 64q47 0 75 -29t31 -111q69 68 167.5 108t197.5 40q59 0 109.5 -18.5t80.5 -49.5q34 -39 49 -101.5t15 -168.5v-381q0 -76 14 -100q10 -16 40 -25t112 -16v-111 q-172 4 -240 4q-66 0 -238 -4v111q65 6 91.5 12t35.5 18q17 20 17 115v338q0 124 -29 162q-39 53 -149 53q-66 0 -142 -20.5t-129 -55.5v-479q0 -91 19 -115q9 -12 33.5 -17t95.5 -11v-111q-176 4 -246 4q-137 0 -227 -4zM440 -522q148 96 148 168q0 46 -31 59 q-65 30 -65 98q0 44 31.5 74.5t80.5 30.5q64 0 98.5 -42.5t34.5 -113.5q0 -195 -252 -340z" />
<glyph unicode="&#x147;" horiz-adv-x="1517" d="M59 1276v110q90 -4 240 -4q92 0 164 4q593 -877 717 -1083q-5 149 -9 454t-4 306q-5 150 -18 174q-21 32 -174 39v110q218 -4 268 -4q36 0 254 4v-110q-84 -6 -115.5 -13t-50.5 -22q-12 -14 -16 -48t-4 -130q-2 -176 -2 -651q0 -46 1 -172.5t1 -165.5q0 -92 -90 -92 q-31 0 -51 14.5t-40 44.5q-717 1091 -735 1120q1 -121 3.5 -319.5t5 -348.5t2.5 -174q0 -90 4.5 -125t15.5 -49q14 -15 48.5 -22.5t125.5 -13.5v-111q-222 4 -270 4q-61 0 -269 -4v111q163 8 183 41q4 6 6 14.5t3 25.5t1.5 30.5t1.5 46t2 55.5q6 204 6 741q0 132 -16 160 q-10 17 -23.5 27t-38.5 14q-62 12 -127 12zM475 1786l57 53l250 -199l252 199l56 -51l-236 -279q-40 -43 -76 -43q-46 0 -82 47z" />
<glyph unicode="&#x148;" horiz-adv-x="1228" d="M66 -2v111q126 10 143 30q16 22 16 111v389q0 96 -18 128t-86 32q-27 0 -55 -4v102q112 64 217 64q47 0 75 -29t31 -111q69 68 167.5 108t197.5 40q59 0 109.5 -18.5t80.5 -49.5q34 -39 49 -101.5t15 -168.5v-381q0 -76 14 -100q10 -16 40 -25t112 -16v-111 q-172 4 -240 4q-66 0 -238 -4v111q65 6 91.5 12t35.5 18q17 20 17 115v338q0 124 -29 162q-39 53 -149 53q-66 0 -142 -20.5t-129 -55.5v-479q0 -91 19 -115q9 -12 33.5 -17t95.5 -11v-111q-176 4 -246 4q-137 0 -227 -4zM301 1399l64 49l223 -229l225 229l59 -47l-213 -314 q-28 -43 -75 -43q-52 0 -80 43z" />
<glyph unicode="&#x149;" horiz-adv-x="1228" d="M45 1102q148 96 148 168q0 46 -31 59q-66 30 -66 98q0 44 32 74.5t81 30.5q64 0 98.5 -42.5t34.5 -113.5q0 -195 -252 -340zM66 -2v111q126 10 143 30q16 22 16 111v389q0 96 -18 128t-86 32q-27 0 -55 -4v102q112 64 217 64q47 0 75 -29t31 -111q69 68 167.5 108 t197.5 40q59 0 109.5 -18.5t80.5 -49.5q34 -39 49 -101.5t15 -168.5v-381q0 -76 14 -100q10 -16 40 -25t112 -16v-111q-172 4 -240 4q-66 0 -238 -4v111q65 6 91.5 12t35.5 18q17 20 17 115v338q0 124 -29 162q-39 53 -149 53q-66 0 -142 -20.5t-129 -55.5v-479 q0 -91 19 -115q9 -12 33.5 -17t95.5 -11v-111q-176 4 -246 4q-137 0 -227 -4z" />
<glyph unicode="&#x14a;" horiz-adv-x="1517" d="M57 1276v110q90 -4 242 -4q96 0 166 4q68 -100 244 -355.5t280 -409t189 -283.5q-3 157 -6.5 430t-4.5 297q-5 148 -18 172q-23 34 -168 39v110q218 -4 262 -4q38 0 256 4v-110q-87 -4 -119 -12t-49 -23q-12 -12 -16 -46.5t-4 -129.5q0 -81 -1 -261t-1 -310 q0 -27 1 -180.5t1 -184.5q0 -145 -13.5 -239.5t-46.5 -161.5q-43 -88 -135 -158.5t-213 -114.5l-51 109q93 42 162 100.5t94 130.5q27 83 27 193v57q-77 123 -175 269t-271 399t-292 430q1 -121 3 -316t4 -340t2 -168q0 -96 3 -129.5t13 -46.5q14 -15 47 -21.5t125 -10.5 v-113q-218 4 -264 4q-59 0 -271 -4v113q97 4 137.5 13.5t49.5 27.5q12 22 12 170q0 26 2 346t2 395q0 138 -12 162q-13 27 -66 41q-24 5 -127 10z" />
<glyph unicode="&#x14b;" horiz-adv-x="1228" d="M66 -2v111q126 10 143 30q16 22 16 111v389q0 96 -18 128t-86 32q-27 0 -55 -4v102q112 64 217 64q47 0 75 -29t31 -111q69 68 167.5 108t197.5 40q61 0 112 -18t78 -50q33 -36 47.5 -98.5t16.5 -171.5q4 -199 4 -582q0 -131 -12 -215t-48 -151q-73 -133 -280 -228 l-58 103q147 79 189 176q37 84 37 282v576q0 124 -29 162q-39 53 -149 53q-66 0 -142 -20.5t-129 -55.5v-479q0 -91 19 -115q9 -12 33.5 -17t95.5 -11v-111q-176 4 -246 4q-137 0 -227 -4z" />
<glyph unicode="&#x14c;" horiz-adv-x="1499" d="M98 686q0 339 182.5 534t483.5 195q166 0 288.5 -48.5t198.5 -141.5t113 -220t37 -290q0 -185 -50 -329t-139 -233.5t-206 -135.5t-256 -46q-162 0 -287 52t-204.5 147.5t-120 225.5t-40.5 290zM295 715q0 -594 459 -594q216 0 333 149.5t117 429.5q0 294 -112 431 t-336 137q-222 0 -341.5 -148t-119.5 -405zM477 1546v135h563v-135h-563z" />
<glyph unicode="&#x14d;" horiz-adv-x="1120" d="M94 467q0 233 132 368.5t349 135.5q230 0 340.5 -127t110.5 -357q0 -127 -36 -227t-99.5 -162.5t-147 -94.5t-182.5 -32q-229 0 -348 134t-119 362zM268 487q0 -372 295 -372q140 0 215.5 90t75.5 268q0 184 -72.5 271t-214.5 87q-145 0 -222 -89.5t-77 -254.5zM305 1143 v129h526v-129h-526z" />
<glyph unicode="&#x14e;" horiz-adv-x="1499" d="M98 686q0 339 182.5 534t483.5 195q166 0 288.5 -48.5t198.5 -141.5t113 -220t37 -290q0 -185 -50 -329t-139 -233.5t-206 -135.5t-256 -46q-162 0 -287 52t-204.5 147.5t-120 225.5t-40.5 290zM295 715q0 -594 459 -594q216 0 333 149.5t117 429.5q0 294 -112 431 t-336 137q-222 0 -341.5 -148t-119.5 -405zM473 1800l78 8q9 -85 63 -132.5t148 -47.5q183 0 217 180l78 -4q-1 -147 -84.5 -228t-210.5 -81q-133 0 -211 73.5t-78 231.5z" />
<glyph unicode="&#x14f;" horiz-adv-x="1120" d="M94 467q0 233 132 368.5t349 135.5q230 0 340.5 -127t110.5 -357q0 -127 -36 -227t-99.5 -162.5t-147 -94.5t-182.5 -32q-229 0 -348 134t-119 362zM268 487q0 -372 295 -372q140 0 215.5 90t75.5 268q0 184 -72.5 271t-214.5 87q-145 0 -222 -89.5t-77 -254.5zM299 1393 l80 4q11 -86 58.5 -132t129.5 -46t130 43t67 135l78 -2q0 -149 -75.5 -229.5t-199.5 -80.5q-130 0 -198.5 71.5t-69.5 236.5z" />
<glyph unicode="&#x150;" horiz-adv-x="1499" d="M98 686q0 339 182.5 534t483.5 195q166 0 288.5 -48.5t198.5 -141.5t113 -220t37 -290q0 -185 -50 -329t-139 -233.5t-206 -135.5t-256 -46q-162 0 -287 52t-204.5 147.5t-120 225.5t-40.5 290zM295 715q0 -594 459 -594q216 0 333 149.5t117 429.5q0 294 -112 431 t-336 137q-222 0 -341.5 -148t-119.5 -405zM522 1524l193 280q32 46 55.5 62t50.5 16q28 0 50 -20.5t22 -53.5q0 -24 -16.5 -46.5t-55.5 -61.5l-239 -232zM823 1524l193 280q32 47 55 62.5t53 15.5q28 0 48 -20t20 -54q0 -46 -68 -108l-241 -232z" />
<glyph unicode="&#x151;" horiz-adv-x="1120" d="M94 467q0 233 132 368.5t349 135.5q230 0 340.5 -127t110.5 -357q0 -127 -36 -227t-99.5 -162.5t-147 -94.5t-182.5 -32q-229 0 -348 134t-119 362zM268 487q0 -372 295 -372q140 0 215.5 90t75.5 268q0 184 -72.5 271t-214.5 87q-145 0 -222 -89.5t-77 -254.5zM340 1116 l162 295q29 55 50 72.5t50 17.5q30 0 52 -17t22 -50q0 -42 -60 -111l-213 -252zM629 1116l162 295q29 55 50 72.5t50 17.5q30 0 52 -17t22 -50q0 -42 -60 -111l-213 -252z" />
<glyph unicode="&#x152;" horiz-adv-x="2011" d="M98 674q0 152 44 283t127 230.5t214 156.5t295 57q57 0 201 -8.5t184 -8.5h568q74 0 101.5 -25.5t27.5 -74.5q0 -97 -19 -237h-106q-15 141 -52 167q-22 17 -68.5 23t-164.5 6h-229v-461h145q83 0 116 7t52 28q32 45 37 123h100q-2 -53 -2 -219q0 -143 2 -227h-94 q-10 80 -39 127q-8 11 -21 17.5t-40.5 9t-46 3t-66.5 0.5h-143v-418q0 -44 13 -62.5t44 -23.5q71 -8 188 -8q138 0 201 13.5t90 42.5q46 46 78 172h102q-4 -209 -36 -308q-19 -59 -158 -59h-588q-43 0 -187 -6t-218 -6q-133 0 -241 33.5t-184 94t-127.5 146.5t-75.5 189 t-24 223zM297 696q0 -260 121 -412.5t352 -152.5q220 0 254 66q12 24 12 120v742q0 68 -5 101.5t-21 51.5q-21 24 -75.5 33.5t-160.5 9.5q-150 0 -259 -74t-163.5 -199.5t-54.5 -285.5z" />
<glyph unicode="&#x153;" horiz-adv-x="1744" d="M94 467q0 234 129 369t344 135q276 0 371 -195q52 97 143.5 146t212.5 49q100 0 173.5 -30.5t114.5 -84.5t60 -118t19 -140q0 -92 -27 -115q-20 -20 -88 -20h-536v-25q0 -141 76 -229t227 -88q87 0 156 28t151 84l63 -102q-188 -160 -399 -160q-133 0 -225.5 54 t-138.5 149q-117 -203 -369 -203q-227 0 -342 133.5t-115 362.5zM268 487q0 -372 287 -372q137 0 210 90t73 268q0 185 -68 271.5t-209 86.5q-142 0 -217.5 -89.5t-75.5 -254.5zM1018 588l475 6v16q0 104 -51 164t-176 60q-102 0 -168.5 -62.5t-79.5 -183.5z" />
<glyph unicode="&#x154;" horiz-adv-x="1341" d="M70 -2v113q141 8 166 28q12 11 16 33.5t4 93.5v862q0 59 -3 82t-13 33q-23 23 -170 33v108h389q235 0 352 -20q151 -24 227 -116t76 -234q0 -158 -81.5 -257t-227.5 -141q121 -188 181 -270.5t124 -136.5q5 -4 13 -11q58 -49 92.5 -66t103.5 -21v-111q-24 -4 -80 -4 q-150 0 -262 90q-78 64 -156 175t-205 327h-49q-51 0 -125 4v-320q0 -68 3 -91t12 -34q22 -28 172 -36v-113q-184 4 -295 4q-76 0 -264 -4zM442 727q16 0 56 -2t53 -2q77 0 137.5 12t115 41.5t84.5 87t30 140.5q0 59 -20 102.5t-52.5 69.5t-83 42t-103 21.5t-120.5 5.5h-97 v-518zM444 1530l240 250q39 40 63 54.5t50 14.5q31 0 53 -24t22 -58q0 -53 -86 -108l-290 -191z" />
<glyph unicode="&#x155;" horiz-adv-x="819" d="M66 -2v111q126 10 143 30q16 19 16 111v389q0 96 -18 128t-86 32q-27 0 -55 -4v102q112 64 217 64q48 0 75.5 -29.5t30.5 -116.5q42 63 114 107.5t144 44.5q53 0 82 -21.5t29 -77.5q0 -51 -21 -166h-96q-9 58 -27.5 76.5t-58.5 18.5t-85.5 -21t-78.5 -57v-467 q0 -91 19 -115q14 -18 168 -28v-111q-176 4 -285 4q-137 0 -227 -4zM311 1122l178 287q34 54 56 72t51 18t55.5 -22.5t26.5 -53.5q0 -26 -15 -50t-51 -62l-241 -240z" />
<glyph unicode="&#x156;" horiz-adv-x="1341" d="M70 -2v113q141 8 166 28q12 11 16 33.5t4 93.5v862q0 59 -3 82t-13 33q-23 23 -170 33v108h389q235 0 352 -20q151 -24 227 -116t76 -234q0 -158 -81.5 -257t-227.5 -141q121 -188 181 -270.5t124 -136.5q5 -4 13 -11q58 -49 92.5 -66t103.5 -21v-111q-24 -4 -80 -4 q-150 0 -262 90q-78 64 -156 175t-205 327h-49q-51 0 -125 4v-320q0 -68 3 -91t12 -34q22 -28 172 -36v-113q-184 4 -295 4q-76 0 -264 -4zM442 727q16 0 56 -2t53 -2q77 0 137.5 12t115 41.5t84.5 87t30 140.5q0 59 -20 102.5t-52.5 69.5t-83 42t-103 21.5t-120.5 5.5h-97 v-518zM512 -522q147 95 147 168q0 46 -30 59q-66 30 -66 98q0 44 32 74.5t81 30.5q64 0 98.5 -42.5t34.5 -113.5q0 -195 -252 -340z" />
<glyph unicode="&#x157;" horiz-adv-x="819" d="M66 -2v111q126 10 143 30q16 19 16 111v389q0 96 -18 128t-86 32q-27 0 -55 -4v102q112 64 217 64q48 0 75.5 -29.5t30.5 -116.5q42 63 114 107.5t144 44.5q53 0 82 -21.5t29 -77.5q0 -51 -21 -166h-96q-9 58 -27.5 76.5t-58.5 18.5t-85.5 -21t-78.5 -57v-467 q0 -91 19 -115q14 -18 168 -28v-111q-176 4 -285 4q-137 0 -227 -4zM162 -522q147 95 147 168q0 46 -30 59q-66 30 -66 98q0 44 32 74.5t81 30.5q64 0 98.5 -42.5t34.5 -113.5q0 -195 -252 -340z" />
<glyph unicode="&#x158;" horiz-adv-x="1341" d="M70 -2v113q141 8 166 28q12 11 16 33.5t4 93.5v862q0 59 -3 82t-13 33q-23 23 -170 33v108h389q235 0 352 -20q151 -24 227 -116t76 -234q0 -158 -81.5 -257t-227.5 -141q121 -188 181 -270.5t124 -136.5q5 -4 13 -11q58 -49 92.5 -66t103.5 -21v-111q-24 -4 -80 -4 q-150 0 -262 90q-78 64 -156 175t-205 327h-49q-51 0 -125 4v-320q0 -68 3 -91t12 -34q22 -28 172 -36v-113q-184 4 -295 4q-76 0 -264 -4zM293 1786l57 53l250 -199l252 199l55 -51l-235 -279q-40 -43 -76 -43q-46 0 -82 47zM442 727q16 0 56 -2t53 -2q77 0 137.5 12 t115 41.5t84.5 87t30 140.5q0 59 -20 102.5t-52.5 69.5t-83 42t-103 21.5t-120.5 5.5h-97v-518z" />
<glyph unicode="&#x159;" horiz-adv-x="819" d="M66 -2v111q126 10 143 30q16 19 16 111v389q0 96 -18 128t-86 32q-27 0 -55 -4v102q112 64 217 64q48 0 75.5 -29.5t30.5 -116.5q42 63 114 107.5t144 44.5q53 0 82 -21.5t29 -77.5q0 -51 -21 -166h-96q-9 58 -27.5 76.5t-58.5 18.5t-85.5 -21t-78.5 -57v-467 q0 -91 19 -115q14 -18 168 -28v-111q-176 4 -285 4q-137 0 -227 -4zM127 1399l63 49l224 -229l225 229l59 -47l-213 -314q-28 -43 -75 -43q-52 0 -80 43z" />
<glyph unicode="&#x15a;" horiz-adv-x="1153" d="M121 244q0 72 6 151h102q14 -90 34.5 -133t51.5 -72q80 -73 267 -73q140 0 213 62t73 153q0 79 -43 129.5t-145 93.5l-256 109q-148 63 -208 152t-60 204q0 84 29.5 154.5t88.5 125t156 85t225 30.5q175 0 285 -51q38 -19 55 -49.5t17 -81.5q0 -68 -15 -207h-100 q-14 96 -30 138.5t-40 62.5q-51 43 -213 43q-140 0 -207 -61.5t-67 -153.5q0 -76 45 -129t168 -103l235 -94q145 -58 209 -145.5t64 -206.5q0 -193 -135.5 -299.5t-362.5 -106.5q-90 0 -177 16.5t-142 43.5q-74 36 -98.5 83.5t-24.5 129.5zM485 1530l240 250q39 40 63 54.5 t50 14.5q31 0 53 -24t22 -58q0 -53 -86 -108l-290 -191z" />
<glyph unicode="&#x15b;" horiz-adv-x="927" d="M102 164q0 22 7 151h100q5 -47 16.5 -80.5t21.5 -46.5t27 -28q55 -49 185 -49q94 0 144 33t50 85q0 44 -28.5 74.5t-96.5 56.5l-186 70q-121 47 -168 110.5t-47 151.5q0 125 96 202t289 77q138 0 215 -33q61 -25 61 -104q0 -56 -14 -166h-98q-7 65 -20 92t-35 41 q-42 33 -148 33q-182 0 -182 -125q0 -41 28.5 -68t108.5 -57l184 -70q121 -44 166 -107t45 -151q0 -133 -105.5 -209t-277.5 -76q-145 0 -237 37q-101 38 -101 156zM373 1122l178 287q35 54 56.5 72t49.5 18q29 0 55.5 -22.5t26.5 -53.5q0 -27 -14.5 -51t-50.5 -61 l-242 -240z" />
<glyph unicode="&#x15c;" horiz-adv-x="1153" d="M121 244q0 72 6 151h102q14 -90 34.5 -133t51.5 -72q80 -73 267 -73q140 0 213 62t73 153q0 79 -43 129.5t-145 93.5l-256 109q-148 63 -208 152t-60 204q0 84 29.5 154.5t88.5 125t156 85t225 30.5q175 0 285 -51q38 -19 55 -49.5t17 -81.5q0 -68 -15 -207h-100 q-14 96 -30 138.5t-40 62.5q-51 43 -213 43q-140 0 -207 -61.5t-67 -153.5q0 -76 45 -129t168 -103l235 -94q145 -58 209 -145.5t64 -206.5q0 -193 -135.5 -299.5t-362.5 -106.5q-90 0 -177 16.5t-142 43.5q-74 36 -98.5 83.5t-24.5 129.5zM311 1518l234 276q37 43 76 43 q43 0 79 -45l226 -272l-60 -56l-252 201l-249 -201z" />
<glyph unicode="&#x15d;" horiz-adv-x="927" d="M102 164q0 22 7 151h100q5 -47 16.5 -80.5t21.5 -46.5t27 -28q55 -49 185 -49q94 0 144 33t50 85q0 44 -28.5 74.5t-96.5 56.5l-186 70q-121 47 -168 110.5t-47 151.5q0 125 96 202t289 77q138 0 215 -33q61 -25 61 -104q0 -56 -14 -166h-98q-7 65 -20 92t-35 41 q-42 33 -148 33q-182 0 -182 -125q0 -41 28.5 -68t108.5 -57l184 -70q121 -44 166 -107t45 -151q0 -133 -105.5 -209t-277.5 -76q-145 0 -237 37q-101 38 -101 156zM188 1092l213 311q31 45 76 45q52 0 80 -43l203 -311l-64 -52l-225 232l-221 -232z" />
<glyph unicode="&#x15e;" horiz-adv-x="1153" d="M121 244q0 72 6 151h102q14 -90 34.5 -133t51.5 -72q80 -73 267 -73q140 0 213 62t73 153q0 79 -43 129.5t-145 93.5l-256 109q-148 63 -208 152t-60 204q0 84 29.5 154.5t88.5 125t156 85t225 30.5q175 0 285 -51q38 -19 55 -49.5t17 -81.5q0 -68 -15 -207h-100 q-14 96 -30 138.5t-40 62.5q-51 43 -213 43q-140 0 -207 -61.5t-67 -153.5q0 -76 45 -129t168 -103l235 -94q145 -58 209 -145.5t64 -206.5q0 -184 -123.5 -289.5t-333.5 -114.5q-18 -47 -18 -69q0 -30 37 -51q80 -39 112.5 -77.5t32.5 -97.5q0 -212 -358 -266l-21 92 q115 25 170 60t55 94q0 34 -23 60.5t-71 52.5q-43 24 -43 65q0 51 37 137q-78 3 -151 19t-119 39q-74 36 -98.5 83.5t-24.5 129.5z" />
<glyph unicode="&#x15f;" horiz-adv-x="927" d="M102 164q0 22 7 151h100q5 -47 16.5 -80.5t21.5 -46.5t27 -28q55 -49 185 -49q94 0 144 33t50 85q0 44 -28.5 74.5t-96.5 56.5l-186 70q-121 47 -168 110.5t-47 151.5q0 125 96 202t289 77q138 0 215 -33q61 -25 61 -104q0 -56 -14 -166h-98q-7 65 -20 92t-35 41 q-42 33 -148 33q-182 0 -182 -125q0 -41 28.5 -68t108.5 -57l184 -70q121 -44 166 -107t45 -151q0 -125 -93.5 -199.5t-250.5 -83.5q-16 -46 -16 -63q0 -30 35 -47q77 -40 108 -77.5t31 -92.5q0 -104 -92.5 -166.5t-249.5 -87.5l-21 90q110 23 162.5 56t52.5 89q0 33 -22 58 t-68 51q-41 21 -41 59q0 46 35 131q-115 6 -190 35q-101 38 -101 156z" />
<glyph unicode="&#x160;" horiz-adv-x="1153" d="M121 244q0 72 6 151h102q14 -90 34.5 -133t51.5 -72q80 -73 267 -73q140 0 213 62t73 153q0 79 -43 129.5t-145 93.5l-256 109q-148 63 -208 152t-60 204q0 84 29.5 154.5t88.5 125t156 85t225 30.5q175 0 285 -51q38 -19 55 -49.5t17 -81.5q0 -68 -15 -207h-100 q-14 96 -30 138.5t-40 62.5q-51 43 -213 43q-140 0 -207 -61.5t-67 -153.5q0 -76 45 -129t168 -103l235 -94q145 -58 209 -145.5t64 -206.5q0 -193 -135.5 -299.5t-362.5 -106.5q-90 0 -177 16.5t-142 43.5q-74 36 -98.5 83.5t-24.5 129.5zM309 1786l58 53l249 -199l252 199 l56 -51l-236 -279q-40 -43 -76 -43q-46 0 -82 47z" />
<glyph unicode="&#x161;" horiz-adv-x="927" d="M102 164q0 22 7 151h100q5 -47 16.5 -80.5t21.5 -46.5t27 -28q55 -49 185 -49q94 0 144 33t50 85q0 44 -28.5 74.5t-96.5 56.5l-186 70q-121 47 -168 110.5t-47 151.5q0 125 96 202t289 77q138 0 215 -33q61 -25 61 -104q0 -56 -14 -166h-98q-7 65 -20 92t-35 41 q-42 33 -148 33q-182 0 -182 -125q0 -41 28.5 -68t108.5 -57l184 -70q121 -44 166 -107t45 -151q0 -133 -105.5 -209t-277.5 -76q-145 0 -237 37q-101 38 -101 156zM186 1399l64 49l223 -229l225 229l60 -47l-213 -314q-28 -43 -76 -43q-52 0 -80 43z" />
<glyph unicode="&#x162;" horiz-adv-x="1335" d="M76 1274q0 54 25.5 82t97.5 28h936q73 0 100 -26.5t27 -77.5q0 -102 -11 -260h-98q-15 166 -57 197q-25 19 -81.5 24.5t-252.5 5.5v-964q0 -106 14 -131q10 -16 46 -25t136 -16v-113q-140 4 -243 4q-31 -78 -31 -98q0 -30 37 -51q80 -39 112.5 -77.5t32.5 -97.5 q0 -212 -358 -266l-21 92q115 25 170.5 60t55.5 94q0 62 -95 113q-43 24 -43 65q0 52 50 166l-240 -4v113q98 6 132.5 14t47.5 25q13 15 13 129v968q-197 0 -252 -5.5t-82 -24.5q-44 -26 -62 -197h-96q-10 143 -10 254z" />
<glyph unicode="&#x163;" horiz-adv-x="708" d="M49 791v96q60 14 109 35q35 14 51 61q18 49 39 160q13 53 78 53q59 0 59 -61v-213q154 0 252 -4v-121q-126 -6 -254 -6v-361q0 -162 8 -205q17 -104 121 -104q76 0 156 31l32 -111q-56 -32 -126.5 -49t-124.5 -17h-15q-18 -44 -18 -65q0 -30 35 -47q77 -40 108 -77.5 t31 -92.5q0 -104 -92.5 -166.5t-249.5 -87.5l-21 90q110 23 162.5 56t52.5 89q0 33 -22 58t-68 51q-41 21 -41 59q0 47 41 146q-139 41 -139 252q0 64 2 255t2 296h-168z" />
<glyph unicode="&#x164;" horiz-adv-x="1335" d="M76 1274q0 54 25.5 82t97.5 28h936q73 0 100 -26.5t27 -77.5q0 -102 -11 -260h-98q-15 166 -57 197q-25 19 -81.5 24.5t-252.5 5.5v-964q0 -106 14 -131q10 -16 46 -25t136 -16v-113q-164 4 -276 4q-129 0 -297 -4v113q98 6 132.5 14t47.5 25q13 15 13 129v968 q-197 0 -252 -5.5t-82 -24.5q-44 -26 -62 -197h-96q-10 143 -10 254zM365 1786l57 53l250 -199l252 199l55 -51l-236 -279q-40 -43 -75 -43q-46 0 -82 47z" />
<glyph unicode="&#x165;" horiz-adv-x="708" d="M49 791v96q60 14 109 35q35 14 51 61q18 49 39 160q13 53 78 53q59 0 59 -61v-213q154 0 252 -4v-121q-126 -6 -254 -6v-361q0 -162 8 -205q17 -104 121 -104q76 0 156 31l32 -111q-56 -32 -126.5 -49t-124.5 -17q-111 0 -173.5 59.5t-62.5 205.5q0 64 2 255t2 296h-168z M457 1067q147 95 147 168q0 46 -31 59q-33 17 -49 39t-16 62q0 41 32.5 71.5t80.5 30.5q65 0 99 -42t34 -114q0 -193 -252 -340z" />
<glyph unicode="&#x166;" horiz-adv-x="1335" d="M76 1274q0 54 25.5 82t97.5 28h936q73 0 100 -26.5t27 -77.5q0 -102 -11 -260h-98q-15 166 -57 197q-25 19 -81.5 24.5t-252.5 5.5v-426h325v-116h-325v-422q0 -106 14 -131q10 -16 46 -25t136 -16v-113q-164 4 -276 4q-129 0 -297 -4v113q98 6 132.5 14t47.5 25 q13 15 13 129v426h-318v116h318v426q-197 0 -252 -5.5t-82 -24.5q-44 -26 -62 -197h-96q-10 143 -10 254z" />
<glyph unicode="&#x167;" horiz-adv-x="708" d="M49 791v96q62 14 109 37q37 18 51 59q18 49 39 160q13 53 78 53q59 0 59 -61v-213q154 0 252 -4v-121q-126 -6 -254 -6v-179h235v-100h-235v-82q0 -162 8 -205q17 -104 121 -104q81 0 156 33l32 -113q-56 -32 -126.5 -49t-124.5 -17q-111 0 -173.5 59.5t-62.5 205.5 q0 34 1 126t1 146h-152v100h154v179h-168z" />
<glyph unicode="&#x168;" horiz-adv-x="1556" d="M51 1276v110q164 -4 279 -4q133 0 293 4v-110q-94 -4 -130.5 -13t-48.5 -24q-15 -17 -18 -109q-2 -133 -2 -495q0 -252 35 -344q65 -170 342 -170q108 0 195 34t122 93q39 64 53.5 160.5t14.5 244.5q0 244 -8 463q-3 71 -7.5 95.5t-17.5 33.5q-28 20 -166 31v110 q76 -2 264 -2q21 0 118.5 1t135.5 1v-110q-158 -10 -176 -45q-10 -25 -10 -131v-486q0 -192 -25.5 -302.5t-85.5 -182.5q-130 -160 -444 -160q-161 0 -279 51.5t-172 139.5q-42 69 -58.5 166t-16.5 301q0 99 2 272.5t2 220.5q0 87 -13 113q-11 19 -50 29t-128 14zM485 1526 q24 96 70.5 159.5t112.5 63.5q40 0 116 -31l64 -26q63 -29 94 -29q47 0 98 111l76 -27q-57 -225 -168 -225q-53 0 -137 37l-59 22q-67 23 -88 23q-33 0 -54 -22t-53 -81z" />
<glyph unicode="&#x169;" horiz-adv-x="1200" d="M41 795v102q112 64 221 64q56 0 82.5 -30t26.5 -114q0 -22 -2 -210.5t-2 -268.5q0 -112 42.5 -160.5t145.5 -48.5q68 0 138.5 24t125.5 62v424q0 98 -19 129t-91 31q-28 0 -60 -4v102q110 64 236 64q52 0 78 -32t26 -118q0 -11 -2 -233.5t-2 -327.5q0 -79 18 -105t70 -26 q43 0 76 8v-111q-77 -32 -180 -32q-56 0 -96 30.5t-48 100.5q-139 -142 -340 -142q-71 0 -131 25.5t-94 69.5q-32 44 -45.5 100t-13.5 151v320q0 95 -18.5 127.5t-84.5 32.5q-8 0 -30 -2t-27 -2zM281 1112q26 98 71 161.5t107 63.5q48 0 114 -30l56 -27q59 -27 90 -27 q27 0 49.5 26t48.5 81l74 -23q-26 -110 -70 -169.5t-96 -59.5q-41 0 -131 37l-51 24q-47 23 -88 23q-32 0 -53.5 -23t-49.5 -82z" />
<glyph unicode="&#x16a;" horiz-adv-x="1556" d="M51 1276v110q164 -4 279 -4q133 0 293 4v-110q-94 -4 -130.5 -13t-48.5 -24q-15 -17 -18 -109q-2 -133 -2 -495q0 -252 35 -344q65 -170 342 -170q108 0 195 34t122 93q39 64 53.5 160.5t14.5 244.5q0 244 -8 463q-3 71 -7.5 95.5t-17.5 33.5q-28 20 -166 31v110 q76 -2 264 -2q21 0 118.5 1t135.5 1v-110q-158 -10 -176 -45q-10 -25 -10 -131v-486q0 -192 -25.5 -302.5t-85.5 -182.5q-130 -160 -444 -160q-161 0 -279 51.5t-172 139.5q-42 69 -58.5 166t-16.5 301q0 99 2 272.5t2 220.5q0 87 -13 113q-11 19 -50 29t-128 14zM504 1546 v135h563v-135h-563z" />
<glyph unicode="&#x16b;" horiz-adv-x="1200" d="M41 795v102q112 64 221 64q56 0 82.5 -30t26.5 -114q0 -22 -2 -210.5t-2 -268.5q0 -112 42.5 -160.5t145.5 -48.5q68 0 138.5 24t125.5 62v424q0 98 -19 129t-91 31q-28 0 -60 -4v102q110 64 236 64q52 0 78 -32t26 -118q0 -11 -2 -233.5t-2 -327.5q0 -79 18 -105t70 -26 q43 0 76 8v-111q-77 -32 -180 -32q-56 0 -96 30.5t-48 100.5q-139 -142 -340 -142q-71 0 -131 25.5t-94 69.5q-32 44 -45.5 100t-13.5 151v320q0 95 -18.5 127.5t-84.5 32.5q-8 0 -30 -2t-27 -2zM315 1143v129h527v-129h-527z" />
<glyph unicode="&#x16c;" horiz-adv-x="1556" d="M51 1276v110q164 -4 279 -4q133 0 293 4v-110q-94 -4 -130.5 -13t-48.5 -24q-15 -17 -18 -109q-2 -133 -2 -495q0 -252 35 -344q65 -170 342 -170q108 0 195 34t122 93q39 64 53.5 160.5t14.5 244.5q0 244 -8 463q-3 71 -7.5 95.5t-17.5 33.5q-28 20 -166 31v110 q76 -2 264 -2q21 0 118.5 1t135.5 1v-110q-158 -10 -176 -45q-10 -25 -10 -131v-486q0 -192 -25.5 -302.5t-85.5 -182.5q-130 -160 -444 -160q-161 0 -279 51.5t-172 139.5q-42 69 -58.5 166t-16.5 301q0 99 2 272.5t2 220.5q0 87 -13 113q-11 19 -50 29t-128 14zM494 1800 l77 8q9 -85 63 -132.5t148 -47.5q183 0 217 180l78 -4q-1 -147 -84.5 -228t-210.5 -81q-133 0 -210.5 73.5t-77.5 231.5z" />
<glyph unicode="&#x16d;" horiz-adv-x="1200" d="M41 795v102q112 64 221 64q56 0 82.5 -30t26.5 -114q0 -22 -2 -210.5t-2 -268.5q0 -112 42.5 -160.5t145.5 -48.5q68 0 138.5 24t125.5 62v424q0 98 -19 129t-91 31q-28 0 -60 -4v102q110 64 236 64q52 0 78 -32t26 -118q0 -11 -2 -233.5t-2 -327.5q0 -79 18 -105t70 -26 q43 0 76 8v-111q-77 -32 -180 -32q-56 0 -96 30.5t-48 100.5q-139 -142 -340 -142q-71 0 -131 25.5t-94 69.5q-32 44 -45.5 100t-13.5 151v320q0 95 -18.5 127.5t-84.5 32.5q-8 0 -30 -2t-27 -2zM299 1393l80 4q11 -86 58.5 -132t129.5 -46t130 43t67 135l78 -2 q0 -149 -75.5 -229.5t-199.5 -80.5q-130 0 -198.5 71.5t-69.5 236.5z" />
<glyph unicode="&#x16e;" horiz-adv-x="1556" d="M51 1276v110q164 -4 279 -4q133 0 293 4v-110q-94 -4 -130.5 -13t-48.5 -24q-15 -17 -18 -109q-2 -133 -2 -495q0 -252 35 -344q65 -170 342 -170q108 0 195 34t122 93q39 64 53.5 160.5t14.5 244.5q0 244 -8 463q-3 71 -7.5 95.5t-17.5 33.5q-28 20 -166 31v110 q76 -2 264 -2q21 0 118.5 1t135.5 1v-110q-158 -10 -176 -45q-10 -25 -10 -131v-486q0 -192 -25.5 -302.5t-85.5 -182.5q-130 -160 -444 -160q-161 0 -279 51.5t-172 139.5q-42 69 -58.5 166t-16.5 301q0 99 2 272.5t2 220.5q0 87 -13 113q-11 19 -50 29t-128 14zM606 1638 q0 80 56.5 134.5t134.5 54.5q85 0 137.5 -51.5t52.5 -133.5q0 -84 -55.5 -138t-136.5 -54q-79 0 -134 52t-55 136zM690 1642q0 -53 29 -83.5t76 -30.5q48 0 77 29.5t29 84.5q0 53 -30 81t-76 28q-44 0 -74.5 -29t-30.5 -80z" />
<glyph unicode="&#x16f;" horiz-adv-x="1200" d="M41 795v102q112 64 221 64q56 0 82.5 -30t26.5 -114q0 -22 -2 -210.5t-2 -268.5q0 -112 42.5 -160.5t145.5 -48.5q68 0 138.5 24t125.5 62v424q0 98 -19 129t-91 31q-28 0 -60 -4v102q110 64 236 64q52 0 78 -32t26 -118q0 -11 -2 -233.5t-2 -327.5q0 -79 18 -105t70 -26 q43 0 76 8v-111q-77 -32 -180 -32q-56 0 -96 30.5t-48 100.5q-139 -142 -340 -142q-71 0 -131 25.5t-94 69.5q-32 44 -45.5 100t-13.5 151v320q0 95 -18.5 127.5t-84.5 32.5q-8 0 -30 -2t-27 -2zM383 1255q0 84 56 138.5t134 54.5q85 0 138 -51t53 -137q0 -82 -56 -135.5 t-137 -53.5q-79 0 -133.5 51t-54.5 133zM467 1260q0 -49 29 -80t75 -31q47 0 77 30t30 81q0 54 -30.5 83t-76.5 29q-44 0 -74 -29.5t-30 -82.5z" />
<glyph unicode="&#x170;" horiz-adv-x="1556" d="M51 1276v110q164 -4 279 -4q133 0 293 4v-110q-94 -4 -130.5 -13t-48.5 -24q-15 -17 -18 -109q-2 -133 -2 -495q0 -252 35 -344q65 -170 342 -170q108 0 195 34t122 93q39 64 53.5 160.5t14.5 244.5q0 244 -8 463q-3 71 -7.5 95.5t-17.5 33.5q-28 20 -166 31v110 q76 -2 264 -2q21 0 118.5 1t135.5 1v-110q-158 -10 -176 -45q-10 -25 -10 -131v-486q0 -192 -25.5 -302.5t-85.5 -182.5q-130 -160 -444 -160q-161 0 -279 51.5t-172 139.5q-42 69 -58.5 166t-16.5 301q0 99 2 272.5t2 220.5q0 87 -13 113q-11 19 -50 29t-128 14zM530 1524 l193 280q32 46 55.5 62t50.5 16q28 0 50 -20.5t22 -53.5q0 -24 -16.5 -46.5t-55.5 -61.5l-239 -232zM831 1524l193 280q32 47 55.5 62.5t53.5 15.5q28 0 47.5 -20t19.5 -54q0 -47 -67 -108l-242 -232z" />
<glyph unicode="&#x171;" horiz-adv-x="1200" d="M41 795v102q112 64 221 64q56 0 82.5 -30t26.5 -114q0 -22 -2 -210.5t-2 -268.5q0 -112 42.5 -160.5t145.5 -48.5q68 0 138.5 24t125.5 62v424q0 98 -19 129t-91 31q-28 0 -60 -4v102q110 64 236 64q52 0 78 -32t26 -118q0 -11 -2 -233.5t-2 -327.5q0 -79 18 -105t70 -26 q43 0 76 8v-111q-77 -32 -180 -32q-56 0 -96 30.5t-48 100.5q-139 -142 -340 -142q-71 0 -131 25.5t-94 69.5q-32 44 -45.5 100t-13.5 151v320q0 95 -18.5 127.5t-84.5 32.5q-8 0 -30 -2t-27 -2zM328 1116l161 295q29 55 50.5 72.5t50.5 17.5q30 0 52 -17t22 -50 q0 -42 -60 -111l-213 -252zM616 1116l162 295q29 55 50.5 72.5t50.5 17.5t51 -17t22 -50q0 -43 -59 -111l-213 -252z" />
<glyph unicode="&#x172;" horiz-adv-x="1556" d="M51 1276v110q164 -4 279 -4q133 0 293 4v-110q-94 -4 -130.5 -13t-48.5 -24q-15 -17 -18 -109q-2 -133 -2 -495q0 -252 35 -344q65 -170 342 -170q108 0 195 34t122 93q39 64 53.5 160.5t14.5 244.5q0 244 -8 463q-3 71 -7.5 95.5t-17.5 33.5q-28 20 -166 31v110 q76 -2 264 -2q21 0 118.5 1t135.5 1v-110q-158 -10 -176 -45q-10 -25 -10 -131v-486q0 -192 -25.5 -302.5t-85.5 -182.5q-110 -137 -356 -156q-162 -179 -162 -301q0 -57 29.5 -89t85.5 -32q79 0 143 31l31 -74q-43 -31 -103.5 -54t-117.5 -23q-102 0 -153.5 58.5 t-51.5 145.5q0 84 45.5 163t142.5 171q-153 4 -264.5 55t-163.5 136q-42 69 -58.5 166t-16.5 301q0 99 2 272.5t2 220.5q0 87 -13 113q-11 19 -50 29t-128 14z" />
<glyph unicode="&#x173;" horiz-adv-x="1200" d="M41 795v102q112 64 221 64q56 0 82.5 -30t26.5 -114q0 -22 -2 -210.5t-2 -268.5q0 -112 42.5 -160.5t145.5 -48.5q68 0 138.5 24t125.5 62v424q0 98 -19 129t-91 31q-28 0 -60 -4v102q110 64 236 64q52 0 78 -32t26 -118q0 -11 -2 -233.5t-2 -327.5q0 -79 18 -105t70 -26 q43 0 76 8v-111q-61 -24 -131 -30q-166 -180 -166 -303q0 -53 28.5 -84t82.5 -31q67 0 139 29l31 -70q-43 -30 -101.5 -53t-113.5 -23q-99 0 -150 57.5t-51 141.5t49.5 163.5t155.5 176.5q-38 8 -64.5 39t-32.5 86q-139 -142 -340 -142q-71 0 -131 25.5t-94 69.5 q-32 44 -45.5 100t-13.5 151v320q0 95 -18.5 127.5t-84.5 32.5q-8 0 -30 -2t-27 -2z" />
<glyph unicode="&#x174;" horiz-adv-x="2029" d="M39 1276v110q258 -4 278 -4q195 0 277 4v-110q-83 -1 -125 -11.5t-52.5 -25.5t-10.5 -43t14 -96q157 -657 201 -869q95 347 317 1067q28 93 106 93q46 0 68 -18.5t37 -69.5q261 -889 307 -1074q48 235 197 854q16 72 16 111q0 30 -9 44t-52 24.5t-133 13.5v110 q200 -4 280 -4q90 0 242 4v-110q-98 -6 -129 -35q-30 -25 -56 -137l-268 -1045q-23 -92 -110 -92q-45 0 -71.5 19t-39.5 67q-218 745 -303 1073q-84 -329 -315 -1067q-26 -92 -113 -92q-44 0 -71 19.5t-38 66.5l-262 1065q-12 53 -21.5 78t-29 45.5t-49 26.5t-82.5 8z M733 1518l234 276q37 43 75 43q44 0 80 -45l226 -272l-60 -56l-252 201l-250 -201z" />
<glyph unicode="&#x175;" horiz-adv-x="1587" d="M25 834v110q90 -4 231 -4q134 0 236 4v-110q-31 0 -101 -9q-51 -7 -51 -47q0 -19 16 -86q7 -25 61.5 -210t78.5 -281q90 277 239 680q23 67 92 67q35 0 53 -16t29 -51q206 -605 230 -680q25 92 76.5 268.5t64.5 222.5q14 49 14 86q0 16 -9.5 28t-22.5 15q-34 10 -117 13 v110q82 -4 229 -4q115 0 193 4v-110q-64 -3 -94 -21q-18 -12 -30 -35.5t-30 -79.5l-207 -661q-19 -64 -88 -64q-70 0 -92 64q-193 566 -225 670q-43 -122 -246 -670q-22 -64 -86 -64q-73 0 -94 66l-203 666q-22 75 -41 96q-13 18 -35.5 24.5t-70.5 8.5zM532 1092l213 311 q31 45 76 45q52 0 80 -43l203 -311l-64 -52l-225 232l-221 -232z" />
<glyph unicode="&#x176;" horiz-adv-x="1280" d="M10 1276v110q234 -4 256 -4q67 0 275 4v-110q-72 -2 -108.5 -10t-45 -17.5t-8.5 -27.5q0 -26 43 -103q34 -57 246 -426q159 278 254 436q41 67 41 101q0 25 -32 35.5t-128 11.5v110q98 -4 272 -4q109 0 195 4v-110q-58 -3 -99 -31q-30 -23 -96 -131l-346 -549v-317 q0 -82 8 -98q9 -19 44.5 -27t140.5 -12v-113q-218 4 -275 4q-89 0 -289 -4v113q102 4 131.5 10t40.5 22q13 21 13 105v315l-330 549q-8 12 -20 32.5t-17 29t-13.5 21.5t-13 19t-10.5 13.5t-11 12t-11 7.5q-38 24 -107 29zM362 1518l234 276q37 43 76 43q44 0 80 -45 l225 -272l-59 -56l-252 201l-250 -201z" />
<glyph unicode="&#x177;" horiz-adv-x="1089" d="M10 834v110q136 -4 258 -4q69 0 205 4v-110q-15 -1 -88 -11q-47 -8 -47 -51q0 -28 29 -94q158 -361 231 -545q30 85 89 254.5t89 253.5q31 89 31 141q0 14 -9 25t-22 14q-50 10 -108 13v110q132 -4 213 -4q78 0 200 4v-110q-62 -3 -90 -25q-19 -16 -32.5 -44t-43.5 -106 l-241 -653q-107 -287 -160 -391q-49 -96 -113.5 -136t-152.5 -40q-176 0 -176 135q0 64 12 123h98q13 -73 24 -90q20 -27 70 -27q68 0 115 86q53 89 144 332q-54 0 -84 68l-277 628q-44 96 -72 117q-20 16 -92 23zM272 1092l213 311q31 45 76 45q52 0 80 -43l203 -311 l-64 -52l-225 232l-221 -232z" />
<glyph unicode="&#x178;" horiz-adv-x="1280" d="M10 1276v110q234 -4 256 -4q67 0 275 4v-110q-72 -2 -108.5 -10t-45 -17.5t-8.5 -27.5q0 -26 43 -103q34 -57 246 -426q159 278 254 436q41 67 41 101q0 25 -32 35.5t-128 11.5v110q98 -4 272 -4q109 0 195 4v-110q-58 -3 -99 -31q-30 -23 -96 -131l-346 -549v-317 q0 -82 8 -98q9 -19 44.5 -27t140.5 -12v-113q-218 4 -275 4q-89 0 -289 -4v113q102 4 131.5 10t40.5 22q13 21 13 105v315l-330 549q-8 12 -20 32.5t-17 29t-13.5 21.5t-13 19t-10.5 13.5t-11 12t-11 7.5q-38 24 -107 29zM371 1628q0 45 28.5 75t73.5 30q46 0 74 -30t28 -75 q0 -44 -29 -75t-75 -31q-43 0 -71.5 30t-28.5 76zM727 1628q0 45 30 75t77 30q44 0 72 -30t28 -75q0 -44 -29.5 -75t-75.5 -31q-43 0 -72.5 30.5t-29.5 75.5z" />
<glyph unicode="&#x179;" horiz-adv-x="1269" d="M66 0v66l815 1177q-353 0 -440 -3t-115 -15q-33 -14 -49.5 -52t-26.5 -133h-113q-14 164 -14 244q0 100 135 100h899v-63l-823 -1178q74 -4 295 -4q194 0 260 9.5t98 35.5q52 44 92 191h113q-6 -172 -27 -293q-6 -38 -40.5 -60t-92.5 -22h-966zM543 1530l239 250 q39 40 63 54.5t50 14.5q31 0 53.5 -24t22.5 -58q0 -53 -86 -108l-291 -191z" />
<glyph unicode="&#x17a;" horiz-adv-x="997" d="M53 0v63l606 762q-261 0 -337 -8q-59 -6 -76 -39q-19 -34 -31 -127h-106q-13 115 -13 185q0 52 21.5 79t79.5 27h704v-72l-604 -751q72 -4 184 -4q194 0 252 20q40 12 68 66q22 49 41 121h98q-6 -163 -14 -238q-3 -41 -29.5 -62.5t-89.5 -21.5h-754zM399 1122l179 287 q35 54 56.5 72t49.5 18q29 0 55.5 -22.5t26.5 -53.5q0 -49 -66 -112l-241 -238z" />
<glyph unicode="&#x17b;" horiz-adv-x="1269" d="M66 0v66l815 1177q-353 0 -440 -3t-115 -15q-33 -14 -49.5 -52t-26.5 -133h-113q-14 164 -14 244q0 100 135 100h899v-63l-823 -1178q74 -4 295 -4q194 0 260 9.5t98 35.5q52 44 92 191h113q-6 -172 -27 -293q-6 -38 -40.5 -60t-92.5 -22h-966zM549 1628q0 45 28.5 75 t73.5 30q46 0 74.5 -30t28.5 -75q0 -44 -29.5 -75t-77.5 -31q-41 0 -69.5 30.5t-28.5 75.5z" />
<glyph unicode="&#x17c;" horiz-adv-x="997" d="M53 0v63l606 762q-261 0 -337 -8q-59 -6 -76 -39q-19 -34 -31 -127h-106q-13 115 -13 185q0 52 21.5 79t79.5 27h704v-72l-604 -751q72 -4 184 -4q194 0 252 20q40 12 68 66q22 49 41 121h98q-6 -163 -14 -238q-3 -41 -29.5 -62.5t-89.5 -21.5h-754zM408 1272 q0 43 28.5 72.5t73.5 29.5q46 0 74 -29t28 -73q0 -47 -29 -78t-77 -31q-42 0 -70 31t-28 78z" />
<glyph unicode="&#x17d;" horiz-adv-x="1269" d="M66 0v66l815 1177q-353 0 -440 -3t-115 -15q-33 -14 -49.5 -52t-26.5 -133h-113q-14 164 -14 244q0 100 135 100h899v-63l-823 -1178q74 -4 295 -4q194 0 260 9.5t98 35.5q52 44 92 191h113q-6 -172 -27 -293q-6 -38 -40.5 -60t-92.5 -22h-966zM330 1786l57 53l250 -199 l252 199l55 -51l-235 -279q-40 -43 -76 -43q-46 0 -82 47z" />
<glyph unicode="&#x17e;" horiz-adv-x="956" d="M31 0v63l606 762q-262 0 -338 -8q-25 -3 -42.5 -11t-28 -19.5t-17 -31t-9.5 -38.5t-7 -49q-1 -11 -2 -17h-107q-12 106 -12 185q0 52 21 79t79 27h705v-72l-605 -751q72 -4 185 -4q194 0 252 20q39 12 67 66q22 49 41 121h99q-5 -150 -15 -238q-3 -41 -29.5 -62.5 t-89.5 -21.5h-753zM201 1399l63 49l223 -229l226 229l59 -47l-213 -314q-28 -43 -76 -43q-52 0 -80 43z" />
<glyph unicode="&#x17f;" horiz-adv-x="632" d="M55 791v96q67 14 113 41q28 20 39 46t14 87q18 242 144 348q111 88 262 88q90 0 157 -22q62 -25 62 -103q0 -44 -15 -172h-102q-7 66 -18.5 97.5t-32.5 43.5q-32 19 -86 19q-107 0 -154 -90q-47 -81 -47 -256v-740q0 -101 19 -133q11 -14 46 -21t136 -11v-109 q-188 4 -260 4q-78 0 -266 -4v109q73 4 103.5 11t41.5 21q14 21 14 103v547h-170z" />
<glyph unicode="&#x192;" horiz-adv-x="1107" d="M-106 -238q0 52 16 154h98q7 -89 31.5 -121.5t91.5 -32.5q114 0 164 132q37 97 59 385l29 383h-199v122h213q19 248 72 367q51 108 143.5 164.5t214.5 56.5q103 0 193 -35q70 -27 70 -112q0 -68 -15 -164h-106q-9 114 -35 135q-36 31 -123 31q-42 0 -75.5 -14t-56.5 -43 t-39 -62t-27 -83.5t-17 -93t-12 -104.5l-4 -43h258v-122h-269l-41 -467q-22 -247 -71 -361q-99 -215 -326 -215q-237 0 -237 143z" />
<glyph unicode="&#x1fa;" horiz-adv-x="1460" d="M12 -2v113q111 6 144 32q19 14 33 43.5t49 122.5l383 1016q10 29 24 49q-41 21 -65.5 60.5t-24.5 91.5q0 76 54 127t128 51q78 0 128 -48t50 -126q0 -52 -24.5 -92.5t-65.5 -63.5q13 -19 23 -45l393 -1053q23 -63 39.5 -92t38.5 -47q26 -23 129 -26v-113q-152 4 -268 4 q-148 0 -308 -4v113q104 5 140 14q47 11 47 49q0 40 -29 123l-72 190h-501l-68 -178q-31 -91 -31 -131q0 -34 27 -45q32 -12 162 -22v-113q-144 4 -291 4q-108 0 -244 -4zM498 625h413q-8 27 -105.5 291.5t-100.5 279.5q-4 -14 -101 -278t-106 -293zM633 1792l186 195 q34 34 54 46.5t42 12.5q27 0 48.5 -21.5t21.5 -50.5q0 -27 -18.5 -47t-59.5 -47l-229 -141zM639 1530q0 -45 27 -74t69 -29t69 27.5t27 75.5q0 49 -27 74.5t-69 25.5q-41 0 -68.5 -26t-27.5 -74z" />
<glyph unicode="&#x1fb;" horiz-adv-x="1054" d="M92 258q0 62 21.5 109t72.5 85t143.5 58t225.5 20q92 0 123 -4v92q0 116 -27 158q-40 62 -172 62q-100 0 -151 -39q-35 -28 -41 -146h-105q-18 97 -18 154q0 47 25 76t75 47q118 41 242 41q209 0 280 -84q32 -36 45 -87.5t13 -135.5q0 -25 -1 -212.5t-1 -197.5 q0 -80 20 -107.5t68 -27.5q44 0 80 8v-111q-72 -32 -162 -32q-126 0 -148 116q-114 -123 -290 -123q-83 0 -153 28.5t-117.5 94t-47.5 158.5zM266 272q0 -82 53.5 -120.5t129.5 -38.5q66 0 128.5 22.5t102.5 54.5v220q-33 4 -129 4q-158 0 -221.5 -38t-63.5 -104zM319 1255 q0 84 56 138.5t133 54.5q85 0 137.5 -51t52.5 -137q0 -82 -55.5 -135.5t-136.5 -53.5q-79 0 -133 50.5t-54 133.5zM401 1260q0 -49 29.5 -80t75.5 -31q48 0 78 29.5t30 81.5q0 54 -30.5 83t-77.5 29q-44 0 -74.5 -29.5t-30.5 -82.5zM414 1556l166 269q34 54 56.5 72t51.5 18 q28 0 54 -22.5t26 -53.5q0 -44 -66 -110l-227 -226z" />
<glyph unicode="&#x1fc;" horiz-adv-x="2041" d="M12 -2v113q119 6 154 32q52 45 119 150l538 825q43 65 43 107q0 12 -6.5 20.5t-20 14t-27 8.5t-35 4.5t-36.5 2t-38.5 1t-34.5 0.5v108h1097q72 0 100.5 -26t28.5 -74q0 -40 -20 -237h-105q-7 55 -15 90t-17 52t-21 25q-22 17 -68.5 23t-164.5 6h-230v-461h148 q81 0 114.5 7t51.5 28q30 38 39 123h100q-2 -53 -2 -219q0 -143 2 -227h-96q-11 87 -39 127q-12 15 -38 21.5t-49.5 7.5t-86.5 1h-144v-418q0 -29 6 -47t18.5 -27t33.5 -12q71 -8 188 -8q137 0 199 14t92 42q41 38 80 172h100q-8 -237 -35 -308q-20 -59 -161 -59h-885v111 q108 7 139 18q13 5 22 14t13.5 17t6.5 25.5t2 27.5t-0.5 37t-0.5 41v209h-477l-135 -205q-51 -74 -51 -123q0 -10 3.5 -18.5t11.5 -14.5t15.5 -10.5t22 -7t24.5 -4.5t28.5 -3t28.5 -1.5t31 -0.5q4 0 6 -0.5t5.5 -0.5h6h5.5v-113q-200 4 -301 4q-91 0 -283 -4zM672 635h399 v575q0 25 -12 25q-8 0 -14.5 -7t-14.5 -24q-51 -88 -358 -569zM1176 1530l239 250q39 40 63 54.5t50 14.5q15 0 29 -6.5t24.5 -17.5t16.5 -26t6 -32q0 -53 -86 -108l-291 -191z" />
<glyph unicode="&#x1fd;" horiz-adv-x="1579" d="M92 272q0 65 24 115t79 89.5t153 60t236 20.5h86v61q0 109 -29 154q-42 62 -162 62q-103 0 -151 -39q-35 -28 -41 -140h-107q-18 97 -18 152q0 86 102 123q112 41 234 41q121 0 195 -35.5t102 -120.5q53 76 139 116t190 40q81 0 145.5 -24t106 -63t69 -92t39 -108 t11.5 -115q0 -85 -29 -112q-19 -19 -86 -19h-549v-20q0 -128 79 -212.5t233 -84.5q86 0 154 27.5t155 84.5l64 -102q-192 -160 -398 -160q-222 0 -342 150q-158 -146 -358 -146q-62 0 -118.5 17.5t-104 52t-75.5 93.5t-28 134zM266 281q0 -87 56.5 -127.5t134.5 -40.5 q135 0 264 98q-47 83 -47 225h-103q-116 0 -185 -20t-94.5 -52.5t-25.5 -82.5zM735 1122l178 287q34 54 56 72t51 18t55.5 -22.5t26.5 -53.5q0 -26 -15 -50t-51 -62l-241 -240zM840 563l487 6v15q0 247 -231 247q-105 0 -176.5 -66t-79.5 -202z" />
<glyph unicode="&#x1fe;" horiz-adv-x="1499" d="M98 686q0 339 182.5 534t483.5 195q216 0 360 -84l111 156l90 -64l-113 -159q189 -177 189 -549q0 -185 -50 -329t-139 -233.5t-206 -135.5t-256 -46q-231 0 -381 101l-113 -158l-90 61l119 166q-187 190 -187 545zM295 715q0 -271 96 -422l637 901q-107 76 -272 76 q-222 0 -341.5 -149t-119.5 -406zM465 209q112 -90 289 -90q216 0 333 150.5t117 430.5q0 269 -98 412zM625 1530l239 250q39 40 63 54.5t50 14.5q31 0 53.5 -24t22.5 -58q0 -53 -86 -108l-291 -191z" />
<glyph unicode="&#x1ff;" horiz-adv-x="1120" d="M94 467q0 233 132 368.5t349 135.5q143 0 240 -51l92 131l82 -58l-92 -129q129 -123 129 -377q0 -127 -36 -227t-99.5 -162.5t-147 -94.5t-182.5 -32q-148 0 -256 60l-86 -123l-80 55l88 125q-133 130 -133 379zM268 487q0 -170 60 -258l395 562q-59 36 -156 36 q-145 0 -222 -88t-77 -252zM397 158q64 -41 166 -41q140 0 215.5 89.5t75.5 266.5q0 160 -57 248zM473 1122l178 287q34 54 56 72t51 18t55.5 -22.5t26.5 -53.5q0 -26 -15 -50t-51 -62l-242 -240z" />
<glyph unicode="&#x218;" horiz-adv-x="1153" d="M121 244q0 72 6 151h102q14 -90 34.5 -133t51.5 -72q80 -73 267 -73q140 0 213 62t73 153q0 79 -43 129.5t-145 93.5l-256 109q-148 63 -208 152t-60 204q0 84 29.5 154.5t88.5 125t156 85t225 30.5q175 0 285 -51q38 -19 55 -49.5t17 -81.5q0 -68 -15 -207h-100 q-14 96 -30 138.5t-40 62.5q-51 43 -213 43q-140 0 -207 -61.5t-67 -153.5q0 -76 45 -129t168 -103l235 -94q145 -58 209 -145.5t64 -206.5q0 -193 -135.5 -299.5t-362.5 -106.5q-90 0 -177 16.5t-142 43.5q-74 36 -98.5 83.5t-24.5 129.5zM412 -522q147 95 147 168 q0 46 -31 59q-65 30 -65 98q0 44 31.5 74.5t80.5 30.5q64 0 99 -42.5t35 -113.5q0 -195 -252 -340z" />
<glyph unicode="&#x219;" horiz-adv-x="927" d="M102 164q0 22 7 151h100q5 -47 16.5 -80.5t21.5 -46.5t27 -28q55 -49 185 -49q94 0 144 33t50 85q0 44 -28.5 74.5t-96.5 56.5l-186 70q-121 47 -168 110.5t-47 151.5q0 125 96 202t289 77q138 0 215 -33q61 -25 61 -104q0 -56 -14 -166h-98q-7 65 -20 92t-35 41 q-42 33 -148 33q-182 0 -182 -125q0 -41 28.5 -68t108.5 -57l184 -70q121 -44 166 -107t45 -151q0 -133 -105.5 -209t-277.5 -76q-145 0 -237 37q-101 38 -101 156zM287 -522q147 95 147 168q0 46 -31 59q-65 30 -65 98q0 44 32 74.5t81 30.5q64 0 98.5 -42.5t34.5 -113.5 q0 -195 -252 -340z" />
<glyph unicode="&#x21a;" horiz-adv-x="1335" d="M76 1274q0 54 25.5 82t97.5 28h936q73 0 100 -26.5t27 -77.5q0 -102 -11 -260h-98q-15 166 -57 197q-25 19 -81.5 24.5t-252.5 5.5v-964q0 -106 14 -131q10 -16 46 -25t136 -16v-113q-164 4 -276 4q-129 0 -297 -4v113q98 6 132.5 14t47.5 25q13 15 13 129v968 q-197 0 -252 -5.5t-82 -24.5q-44 -26 -62 -197h-96q-10 143 -10 254zM508 -522q147 95 147 168q0 46 -30 59q-66 30 -66 98q0 44 32 74.5t81 30.5q64 0 98.5 -42.5t34.5 -113.5q0 -195 -252 -340z" />
<glyph unicode="&#x21b;" horiz-adv-x="708" d="M49 791v96q60 14 109 35q35 14 51 61q18 49 39 160q13 53 78 53q59 0 59 -61v-213q154 0 252 -4v-121q-126 -6 -254 -6v-361q0 -162 8 -205q17 -104 121 -104q76 0 156 31l32 -111q-56 -32 -126.5 -49t-124.5 -17q-111 0 -173.5 59.5t-62.5 205.5q0 64 2 255t2 296h-168z M233 -522q148 96 148 168q0 46 -31 59q-65 30 -65 98q0 44 31.5 74.5t80.5 30.5q64 0 98.5 -42.5t34.5 -113.5q0 -196 -251 -340z" />
<glyph unicode="&#x2c6;" horiz-adv-x="595" d="M12 1092l213 311q31 45 76 45q52 0 80 -43l203 -311l-64 -52l-225 232l-221 -232z" />
<glyph unicode="&#x2c7;" horiz-adv-x="595" d="M12 1399l64 49l223 -229l225 229l60 -47l-213 -314q-28 -43 -76 -43q-52 0 -80 43z" />
<glyph unicode="&#x2d8;" horiz-adv-x="595" d="M27 1393l79 4q11 -86 59 -132t130 -46t130 43t67 135l77 -2q0 -150 -75 -230t-199 -80q-130 0 -198.5 71.5t-69.5 236.5z" />
<glyph unicode="&#x2d9;" horiz-adv-x="595" d="M197 1272q0 43 28.5 72.5t73.5 29.5q46 0 74 -29t28 -73q0 -47 -29 -78t-77 -31q-42 0 -70 31t-28 78z" />
<glyph unicode="&#x2da;" horiz-adv-x="595" d="M109 1255q0 84 56 138.5t134 54.5q85 0 137.5 -51t52.5 -137q0 -82 -55.5 -135.5t-136.5 -53.5q-79 0 -133.5 51t-54.5 133zM193 1260q0 -49 29 -80t75 -31q47 0 76.5 30t29.5 81q0 54 -30 83t-76 29q-44 0 -74 -29.5t-30 -82.5z" />
<glyph unicode="&#x2db;" horiz-adv-x="595" d="M90 -350q0 88 54.5 171.5t174.5 188.5h97q-101 -105 -146 -182t-45 -145q0 -53 28.5 -84t82.5 -31q66 0 139 29l31 -70q-43 -30 -101.5 -53t-113.5 -23q-99 0 -150 57.5t-51 141.5z" />
<glyph unicode="&#x2dc;" horiz-adv-x="595" d="M-6 1135q26 98 71 161.5t107 63.5q47 0 115 -31l55 -26q59 -27 90 -27q27 0 49.5 25.5t48.5 80.5l74 -22q-26 -111 -70 -170.5t-96 -59.5q-41 0 -131 37l-51 25q-45 22 -88 22q-32 0 -53 -22.5t-49 -81.5z" />
<glyph unicode="&#x2dd;" horiz-adv-x="604" d="M-10 1116l162 295q29 55 50 72.5t50 17.5q30 0 52 -17t22 -50q0 -42 -60 -111l-213 -252zM279 1116l161 295q29 55 50.5 72.5t50.5 17.5t51 -17t22 -50q0 -43 -59 -111l-213 -252z" />
<glyph unicode="&#x394;" horiz-adv-x="1394" d="M25 0v59l567 1278q19 44 45.5 64t67.5 20q39 0 60.5 -15t41.5 -67l559 -1280v-59h-1341zM233 168h881l-440 1016z" />
<glyph unicode="&#x3a9;" horiz-adv-x="1644" d="M143 377h88q39 -156 72 -189q30 -28 87 -36.5t204 -8.5v29q-75 31 -142 85.5t-121 129.5t-86 175.5t-32 213.5q0 150 49.5 272.5t135 202t198.5 122t242 42.5q127 0 233 -38.5t185.5 -114t124 -195t44.5 -272.5q0 -414 -374 -623v-29q140 0 199.5 9t88.5 38 q17 15 33.5 55t42.5 132h84q-2 -119 -14 -285q-6 -92 -117 -92h-448v250q57 32 97.5 61t85.5 74.5t72.5 97t45.5 126.5t18 165q0 126 -34 224t-92 156t-128.5 87t-150.5 29q-64 0 -123.5 -16t-117 -54t-100 -94t-68.5 -143t-26 -195q0 -91 19 -167.5t49 -129.5t75 -97.5 t88 -71.5t97 -52v-250h-463q-98 0 -108 92q-13 146 -13 285z" />
<glyph unicode="&#x3bc;" horiz-adv-x="1216" d="M72 795v102q112 64 221 64q56 0 82 -30t26 -114q0 -22 -2 -210.5t-2 -268.5q0 -112 43 -160.5t146 -48.5q67 0 138.5 24t127.5 62v424q0 96 -20.5 128t-90.5 32q-27 0 -63 -4v102q110 64 237 64q52 0 79.5 -32t27.5 -118q0 -11 -4 -233.5t-4 -327.5q0 -78 19 -104.5 t71 -26.5q43 0 74 8v-111q-74 -32 -179 -32q-55 0 -94 30.5t-49 100.5q-65 -68 -138.5 -103t-168.5 -35q-39 0 -88.5 20t-71.5 50q4 -63 10.5 -176.5t10.5 -181.5t4 -92q0 -45 -23.5 -70t-68.5 -25q-51 0 -71 25t-20 70v1042q0 96 -18 128t-84 32q-9 0 -30 -2t-27 -2z" />
<glyph unicode="&#x3c0;" horiz-adv-x="1247" d="M98 -2v113q122 2 148 32q14 20 14 101v446q0 90 -14 111q-9 12 -38.5 16.5t-109.5 9.5v115h1065v-115q-76 -3 -108 -9t-41 -19q-13 -21 -13 -103v-411q0 -43 2 -68t10.5 -51t26.5 -37.5t47 -11.5q54 0 101 14l24 -96q-82 -45 -198 -45t-150 73q-17 31 -22.5 77.5 t-5.5 135.5v541h-408v-569q0 -54 3 -74.5t13 -32.5q8 -8 16 -12t40.5 -9.5t89.5 -8.5v-113q-168 4 -248 4t-244 -4z" />
<glyph unicode="&#x1e80;" horiz-adv-x="2029" d="M39 1276v110q258 -4 278 -4q195 0 277 4v-110q-83 -1 -125 -11.5t-52.5 -25.5t-10.5 -43t14 -96q157 -657 201 -869q95 347 317 1067q28 93 106 93q46 0 68 -18.5t37 -69.5q261 -889 307 -1074q48 235 197 854q16 72 16 111q0 30 -9 44t-52 24.5t-133 13.5v110 q200 -4 280 -4q90 0 242 4v-110q-98 -6 -129 -35q-30 -25 -56 -137l-268 -1045q-23 -92 -110 -92q-45 0 -71.5 19t-39.5 67q-218 745 -303 1073q-84 -329 -315 -1067q-26 -92 -113 -92q-44 0 -71 19.5t-38 66.5l-262 1065q-12 53 -21.5 78t-29 45.5t-49 26.5t-82.5 8z M764 1767q0 33 23.5 57.5t54.5 24.5q26 0 50 -14t62 -55l238 -250l-51 -62l-291 191q-86 57 -86 108z" />
<glyph unicode="&#x1e81;" horiz-adv-x="1587" d="M25 834v110q90 -4 231 -4q134 0 236 4v-110q-31 0 -101 -9q-51 -7 -51 -47q0 -19 16 -86q7 -25 61.5 -210t78.5 -281q90 277 239 680q23 67 92 67q35 0 53 -16t29 -51q206 -605 230 -680q25 92 76.5 268.5t64.5 222.5q14 49 14 86q0 16 -9.5 28t-22.5 15q-34 10 -117 13 v110q82 -4 229 -4q115 0 193 4v-110q-64 -3 -94 -21q-18 -12 -30 -35.5t-30 -79.5l-207 -661q-19 -64 -88 -64q-70 0 -92 64q-193 566 -225 670q-43 -122 -246 -670q-22 -64 -86 -64q-73 0 -94 66l-203 666q-22 75 -41 96q-13 18 -35.5 24.5t-70.5 8.5zM573 1423 q0 31 25.5 53.5t56.5 22.5q28 0 49 -17.5t56 -72.5l180 -287l-63 -51l-240 240q-35 37 -49.5 61t-14.5 51z" />
<glyph unicode="&#x1e82;" horiz-adv-x="2029" d="M39 1276v110q258 -4 278 -4q195 0 277 4v-110q-83 -1 -125 -11.5t-52.5 -25.5t-10.5 -43t14 -96q157 -657 201 -869q95 347 317 1067q28 93 106 93q46 0 68 -18.5t37 -69.5q261 -889 307 -1074q48 235 197 854q16 72 16 111q0 30 -9 44t-52 24.5t-133 13.5v110 q200 -4 280 -4q90 0 242 4v-110q-98 -6 -129 -35q-30 -25 -56 -137l-268 -1045q-23 -92 -110 -92q-45 0 -71.5 19t-39.5 67q-218 745 -303 1073q-84 -329 -315 -1067q-26 -92 -113 -92q-44 0 -71 19.5t-38 66.5l-262 1065q-12 53 -21.5 78t-29 45.5t-49 26.5t-82.5 8z M879 1530l239 250q39 40 63 54.5t50 14.5q31 0 53.5 -24t22.5 -58q0 -53 -86 -108l-291 -191z" />
<glyph unicode="&#x1e83;" horiz-adv-x="1587" d="M25 834v110q90 -4 231 -4q134 0 236 4v-110q-31 0 -101 -9q-51 -7 -51 -47q0 -19 16 -86q7 -25 61.5 -210t78.5 -281q90 277 239 680q23 67 92 67q35 0 53 -16t29 -51q206 -605 230 -680q25 92 76.5 268.5t64.5 222.5q14 49 14 86q0 16 -9.5 28t-22.5 15q-34 10 -117 13 v110q82 -4 229 -4q115 0 193 4v-110q-64 -3 -94 -21q-18 -12 -30 -35.5t-30 -79.5l-207 -661q-19 -64 -88 -64q-70 0 -92 64q-193 566 -225 670q-43 -122 -246 -670q-22 -64 -86 -64q-73 0 -94 66l-203 666q-22 75 -41 96q-13 18 -35.5 24.5t-70.5 8.5zM709 1122l178 287 q35 54 56.5 72t49.5 18q29 0 55.5 -22.5t26.5 -53.5q0 -50 -65 -112l-242 -240z" />
<glyph unicode="&#x1e84;" horiz-adv-x="2029" d="M39 1276v110q258 -4 278 -4q195 0 277 4v-110q-83 -1 -125 -11.5t-52.5 -25.5t-10.5 -43t14 -96q157 -657 201 -869q95 347 317 1067q28 93 106 93q46 0 68 -18.5t37 -69.5q261 -889 307 -1074q48 235 197 854q16 72 16 111q0 30 -9 44t-52 24.5t-133 13.5v110 q200 -4 280 -4q90 0 242 4v-110q-98 -6 -129 -35q-30 -25 -56 -137l-268 -1045q-23 -92 -110 -92q-45 0 -71.5 19t-39.5 67q-218 745 -303 1073q-84 -329 -315 -1067q-26 -92 -113 -92q-44 0 -71 19.5t-38 66.5l-262 1065q-12 53 -21.5 78t-29 45.5t-49 26.5t-82.5 8z M756 1628q0 45 28.5 75t73.5 30q46 0 74.5 -30t28.5 -75q0 -44 -29.5 -75t-75.5 -31q-43 0 -71.5 30t-28.5 76zM1112 1628q0 45 30 75t77 30q44 0 72 -30t28 -75q0 -44 -29.5 -75t-75.5 -31q-43 0 -72.5 30.5t-29.5 75.5z" />
<glyph unicode="&#x1e85;" horiz-adv-x="1587" d="M25 834v110q90 -4 231 -4q134 0 236 4v-110q-31 0 -101 -9q-51 -7 -51 -47q0 -19 16 -86q7 -25 61.5 -210t78.5 -281q90 277 239 680q23 67 92 67q35 0 53 -16t29 -51q206 -605 230 -680q25 92 76.5 268.5t64.5 222.5q14 49 14 86q0 16 -9.5 28t-22.5 15q-34 10 -117 13 v110q82 -4 229 -4q115 0 193 4v-110q-64 -3 -94 -21q-18 -12 -30 -35.5t-30 -79.5l-207 -661q-19 -64 -88 -64q-70 0 -92 64q-193 566 -225 670q-43 -122 -246 -670q-22 -64 -86 -64q-73 0 -94 66l-203 666q-22 75 -41 96q-13 18 -35.5 24.5t-70.5 8.5zM553 1272 q0 43 28.5 72.5t73.5 29.5q46 0 74.5 -29t28.5 -73q0 -47 -29.5 -78t-77.5 -31q-42 0 -70 31t-28 78zM883 1272q0 44 29 73t75 29q44 0 73.5 -29.5t29.5 -72.5q0 -46 -30 -77.5t-77 -31.5q-42 0 -71 31t-29 78z" />
<glyph unicode="&#x1ef2;" horiz-adv-x="1280" d="M10 1276v110q234 -4 256 -4q67 0 275 4v-110q-72 -2 -108.5 -10t-45 -17.5t-8.5 -27.5q0 -26 43 -103q34 -57 246 -426q159 278 254 436q41 67 41 101q0 25 -32 35.5t-128 11.5v110q98 -4 272 -4q109 0 195 4v-110q-58 -3 -99 -31q-30 -23 -96 -131l-346 -549v-317 q0 -82 8 -98q9 -19 44.5 -27t140.5 -12v-113q-218 4 -275 4q-89 0 -289 -4v113q102 4 131.5 10t40.5 22q13 21 13 105v315l-330 549q-8 12 -20 32.5t-17 29t-13.5 21.5t-13 19t-10.5 13.5t-11 12t-11 7.5q-38 24 -107 29zM381 1767q0 33 23.5 57.5t54.5 24.5q26 0 50 -14 t62 -55l238 -250l-51 -62l-291 191q-86 57 -86 108z" />
<glyph unicode="&#x1ef3;" horiz-adv-x="1089" d="M10 834v110q136 -4 258 -4q69 0 205 4v-110q-15 -1 -88 -11q-47 -8 -47 -51q0 -28 29 -94q158 -361 231 -545q30 85 89 254.5t89 253.5q31 89 31 141q0 14 -9 25t-22 14q-50 10 -108 13v110q132 -4 213 -4q78 0 200 4v-110q-62 -3 -90 -25q-19 -16 -32.5 -44t-43.5 -106 l-241 -653q-107 -287 -160 -391q-49 -96 -113.5 -136t-152.5 -40q-176 0 -176 135q0 64 12 123h98q13 -73 24 -90q20 -27 70 -27q68 0 115 86q53 89 144 332q-54 0 -84 68l-277 628q-44 96 -72 117q-20 16 -92 23zM311 1423q0 31 25.5 53.5t56.5 22.5q28 0 49 -17.5 t56 -72.5l180 -287l-64 -51l-239 240q-35 37 -49.5 61t-14.5 51z" />
<glyph unicode="&#x2000;" horiz-adv-x="1023" />
<glyph unicode="&#x2001;" horiz-adv-x="2046" />
<glyph unicode="&#x2002;" horiz-adv-x="1023" />
<glyph unicode="&#x2003;" horiz-adv-x="2046" />
<glyph unicode="&#x2004;" horiz-adv-x="682" />
<glyph unicode="&#x2005;" horiz-adv-x="511" />
<glyph unicode="&#x2006;" horiz-adv-x="341" />
<glyph unicode="&#x2007;" horiz-adv-x="341" />
<glyph unicode="&#x2008;" horiz-adv-x="255" />
<glyph unicode="&#x2009;" horiz-adv-x="409" />
<glyph unicode="&#x200a;" horiz-adv-x="113" />
<glyph unicode="&#x2010;" horiz-adv-x="546" d="M57 430v148h428v-148h-428z" />
<glyph unicode="&#x2011;" horiz-adv-x="546" d="M57 430v148h428v-148h-428z" />
<glyph unicode="&#x2012;" horiz-adv-x="546" d="M57 430v148h428v-148h-428z" />
<glyph unicode="&#x2013;" horiz-adv-x="1187" d="M90 438v133h1004v-133h-1004z" />
<glyph unicode="&#x2014;" horiz-adv-x="1681" d="M90 438v133h1497v-133h-1497z" />
<glyph unicode="&#x2018;" horiz-adv-x="425" d="M59 1055q0 235 303 422l50 -74q-193 -125 -193 -238q0 -46 45 -61q43 -14 64.5 -37t21.5 -72q0 -51 -37 -83.5t-94 -32.5q-72 0 -116 48.5t-44 127.5z" />
<glyph unicode="&#x2019;" horiz-adv-x="425" d="M12 930q193 128 193 237q0 50 -45 64q-42 14 -65 37t-23 71q0 50 38 83.5t93 33.5q72 0 115.5 -48.5t43.5 -129.5q0 -237 -299 -418z" />
<glyph unicode="&#x201a;" horiz-adv-x="425" d="M12 -309q193 122 193 235q0 46 -45 62q-42 14 -65 37t-23 71q0 51 37.5 84t93.5 33q74 0 116.5 -47t42.5 -131q0 -235 -299 -416z" />
<glyph unicode="&#x201c;" horiz-adv-x="788" d="M59 1055q0 235 303 422l50 -74q-193 -125 -193 -238q0 -46 45 -61q43 -14 64.5 -37t21.5 -72q0 -51 -37 -83.5t-94 -32.5q-72 0 -116 48.5t-44 127.5zM424 1055q0 236 303 422l47 -74q-190 -123 -190 -238q0 -47 45 -61q42 -15 64 -37.5t22 -71.5q0 -51 -37 -83.5 t-94 -32.5q-72 0 -116 48.5t-44 127.5z" />
<glyph unicode="&#x201d;" horiz-adv-x="788" d="M12 930q193 128 193 237q0 48 -45 64q-41 12 -64.5 36t-23.5 72q0 50 38 83.5t93 33.5q73 0 116 -48t43 -130q0 -237 -299 -418zM377 930q192 129 192 237q0 47 -47 64q-41 12 -63.5 36t-22.5 72q0 50 37 83.5t94 33.5q72 0 116 -48.5t44 -129.5q0 -238 -303 -418z" />
<glyph unicode="&#x201e;" horiz-adv-x="788" d="M12 -309q193 122 193 235q0 46 -45 62q-42 14 -65 37t-23 71q0 51 37.5 84t93.5 33q74 0 116.5 -47t42.5 -131q0 -235 -299 -416zM377 -309q192 123 192 235q0 45 -47 62q-42 14 -64 37t-22 71q0 51 37 84t94 33q74 0 117 -47t43 -131q0 -236 -303 -416z" />
<glyph unicode="&#x2020;" horiz-adv-x="942" d="M84 870v138q217 0 317 -4q-4 143 -4 421h140q0 -242 -5 -421q100 4 328 4v-138q-124 0 -328 4q5 -438 5 -1038h-140q0 688 4 1038q-100 -4 -317 -4z" />
<glyph unicode="&#x2021;" horiz-adv-x="940" d="M84 301v137q217 0 317 -6q-2 88 -2 230q0 158 2 215q-125 -5 -317 -5v136q217 0 317 -4q-4 137 -4 421h138q0 -250 -5 -421q102 4 328 4v-136q-68 0 -328 5q2 -57 2 -211q0 -146 -2 -234q102 6 328 6v-137q-120 0 -328 4q5 -115 5 -469h-138q0 281 4 469q-100 -4 -317 -4 z" />
<glyph unicode="&#x2022;" horiz-adv-x="710" d="M78 567q0 120 77 198.5t193 78.5q125 0 205 -77t80 -194q0 -131 -79 -211.5t-200 -80.5q-119 0 -197.5 82t-78.5 204z" />
<glyph unicode="&#x2026;" horiz-adv-x="1730" d="M158 115q0 58 36.5 96.5t92.5 38.5q59 0 97 -36t38 -93q0 -65 -36.5 -102t-96.5 -37q-57 0 -94 37.5t-37 95.5zM733 115q0 58 36.5 96.5t92.5 38.5q59 0 96 -36t37 -93q0 -65 -36 -102t-95 -37q-57 0 -94 37.5t-37 95.5zM1311 115q0 59 37 97t94 38q59 0 96 -36t37 -93 q0 -65 -36 -102t-95 -37q-58 0 -95.5 37t-37.5 96z" />
<glyph unicode="&#x202f;" horiz-adv-x="409" />
<glyph unicode="&#x2030;" horiz-adv-x="2498" d="M63 930q0 211 88.5 324.5t247.5 113.5q170 0 243 -107t73 -313q0 -230 -90 -339t-238 -109q-167 0 -245.5 107.5t-78.5 322.5zM211 946q0 -177 45 -254.5t133 -77.5q178 0 178 326q0 169 -42.5 242t-133.5 73q-180 0 -180 -309zM526 18l594 1366l92 -38l-591 -1369z M1010 414q0 211 88.5 324.5t247.5 113.5q171 0 244 -107.5t73 -314.5q0 -229 -89.5 -337.5t-236.5 -108.5q-168 0 -247.5 107t-79.5 323zM1159 428q0 -177 45 -254.5t135 -77.5q87 0 132 83.5t45 242.5q0 170 -42.5 243.5t-132.5 73.5q-182 0 -182 -311zM1784 414 q0 211 88.5 324.5t247.5 113.5q171 0 244 -107.5t73 -314.5q0 -228 -90 -337t-236 -109q-169 0 -248 106.5t-79 323.5zM1933 428q0 -178 45 -255t136 -77q86 0 130 83.5t44 242.5q0 170 -42 243.5t-130 73.5q-183 0 -183 -311z" />
<glyph unicode="&#x2039;" horiz-adv-x="565" d="M63 459q0 43 37 76l340 321l72 -65l-272 -328l270 -340l-72 -70l-344 332q-31 27 -31 74z" />
<glyph unicode="&#x203a;" horiz-adv-x="565" d="M53 121l275 325l-275 340l76 70l340 -332q33 -29 33 -75q0 -40 -39 -76l-338 -320z" />
<glyph unicode="&#x2044;" horiz-adv-x="198" d="M-244 18l592 1366l96 -38l-594 -1369z" />
<glyph unicode="&#x205f;" horiz-adv-x="511" />
<glyph unicode="&#x2070;" d="M63 1274q0 211 88.5 324.5t247.5 113.5q170 0 243 -107.5t73 -314.5q0 -229 -90 -337.5t-238 -108.5q-167 0 -245.5 107t-78.5 323zM211 1288q0 -177 45 -254.5t133 -77.5q178 0 178 326q0 170 -42.5 243.5t-133.5 73.5q-180 0 -180 -311z" />
<glyph unicode="&#x2074;" d="M53 1083v76l355 486q30 40 49.5 54.5t56.5 14.5q30 0 51 -20t21 -66q0 -29 -1 -97t-1 -89v-246h133v-113h-133v-53q0 -51 8 -67q17 -20 119 -25v-80q-106 4 -211 4q-75 0 -185 -4v80q105 8 115 25q14 14 14 69v51h-391zM184 1192h260q0 152 5 367z" />
<glyph unicode="&#x2075;" d="M84 956q0 88 8 125h82q5 -59 31 -90q41 -41 127 -41q92 0 143 44.5t51 119.5q0 166 -194 166q-18 0 -67.5 -10t-69.5 -10q-58 0 -58 61q0 24 4 70l33 301h459v-123h-367l-18 -193q67 19 141 19q125 0 205 -66t80 -192q0 -145 -94 -219t-252 -74q-52 0 -91.5 4.5t-76.5 16 t-56.5 34.5t-19.5 57z" />
<glyph unicode="&#x2076;" d="M78 1231q0 130 29 225t82 149.5t120 80.5t150 26q85 0 149 -22q62 -18 62 -80q0 -80 -8 -121h-82q-8 66 -31 86q-34 27 -98 27q-42 0 -79 -15t-70 -47.5t-54 -91.5t-25 -139q27 39 86.5 63.5t122.5 24.5q128 0 196 -74t68 -186q0 -134 -85 -213.5t-222 -79.5 q-144 0 -227.5 98t-83.5 289zM225 1202q0 -248 166 -248q73 0 117.5 45t44.5 125q0 158 -158 158q-52 0 -97.5 -20t-72.5 -60z" />
<glyph unicode="&#x2077;" d="M70 1620q0 72 80 72h538v-82l-332 -748q-21 -43 -57 -43q-30 0 -52 15.5t-22 35.5q0 15 13 41l309 658h-189q-140 0 -163 -8q-21 -6 -31.5 -30.5t-16.5 -74.5h-67q-10 110 -10 164z" />
<glyph unicode="&#x2078;" d="M74 1065q0 145 176 217q-83 47 -113.5 97t-30.5 112q0 93 73.5 157t211.5 64q129 0 198.5 -56.5t69.5 -146.5q0 -64 -39 -111.5t-120 -88.5q110 -51 148 -104t38 -130q0 -100 -84.5 -166.5t-232.5 -66.5q-138 0 -216.5 60.5t-78.5 162.5zM207 1075q0 -57 46.5 -92 t119.5 -35q75 0 118.5 33.5t43.5 87.5q0 55 -43.5 88.5t-159.5 79.5q-67 -40 -96 -77.5t-29 -84.5zM250 1501q0 -44 37 -79.5t125 -69.5q112 73 112 145q0 51 -36 80t-99 29q-65 0 -102 -29t-37 -76z" />
<glyph unicode="&#x2079;" d="M68 1417q0 134 84 214.5t219 80.5q147 0 228 -98.5t81 -290.5q0 -479 -377 -479q-78 0 -151 22q-66 23 -66 86q0 24 6 117h84q2 -57 31 -86q14 -12 45 -20.5t63 -8.5q204 0 217 291q-27 -37 -86 -60.5t-120 -23.5q-126 0 -192 72t-66 184zM205 1432q0 -156 160 -156 q47 0 93 21.5t74 60.5q0 53 -4 78q-6 77 -49.5 121.5t-113.5 44.5q-74 0 -117 -44t-43 -126z" />
<glyph unicode="&#x207d;" horiz-adv-x="460" d="M96 1257q0 179 80 343.5t240 287.5l49 -47q-125 -146 -179.5 -273t-54.5 -311q0 -298 234 -575l-47 -53q-152 114 -237 279.5t-85 348.5z" />
<glyph unicode="&#x207e;" horiz-adv-x="460" d="M-6 680q123 135 177 266t54 316q0 305 -231 577l49 49q152 -114 237 -278.5t85 -347.5q0 -178 -80.5 -342.5t-239.5 -290.5z" />
<glyph unicode="&#x2080;" d="M63 106q0 211 88.5 325t247.5 114q170 0 243 -107.5t73 -314.5q0 -229 -90 -338t-238 -109q-167 0 -245.5 107t-78.5 323zM211 121q0 -177 45 -254.5t133 -77.5q178 0 178 326q0 170 -42.5 243.5t-133.5 73.5q-180 0 -180 -311z" />
</font>
</defs>
</svg>
