<?xml version="1.0" standalone="no"?>
<!DOCTYPE svg PUBLIC "-//W3C//DTD SVG 1.1//EN" "http://www.w3.org/Graphics/SVG/1.1/DTD/svg11.dtd" >
<svg xmlns="http://www.w3.org/2000/svg">
<metadata></metadata>
<defs>
<font id="capitaextralight_italic" horiz-adv-x="743" >
<font-face units-per-em="2048" ascent="1485" descent="-563" />
<missing-glyph horiz-adv-x="448" />
<glyph unicode="ff" horiz-adv-x="1318" d="M-309 -463q0 65 26 148h68q0 -92 21 -126t92 -34q49 0 91.5 27t67.5 73q48 81 86 293l160 905h-178l14 62q98 13 146 41q23 14 34 34t23 72q41 160 83.5 235.5t106.5 118.5q99 68 250 68q79 0 140 -22q45 -19 45 -64q0 -68 -29 -182h-70q2 27 2 61q-3 71 -32.5 94 t-104.5 23q-133 0 -192 -107q-49 -81 -95 -317l-6 -31h381q99 0 125 21q20 16 31.5 36t21.5 66q28 129 58.5 208t60 116t74.5 69q98 72 248 72q71 0 129 -22q47 -20 47 -70q0 -64 -31 -186h-69q2 29 2 69q-2 65 -35 94q-28 25 -94 25q-124 0 -183 -107q-48 -86 -96 -321 l-12 -66q150 0 254 -4l-17 -80q-138 -6 -258 -6l-166 -878q-47 -243 -120 -340q-46 -59 -119 -92t-156 -33q-91 0 -141 26q-43 24 -43 74q0 58 28 137h66q0 -89 24.5 -119t98.5 -30q51 0 98 28t70 72q58 114 90 293l154 862h-541l-172 -921q-47 -247 -117 -340 q-46 -59 -115.5 -92t-150.5 -33q-38 0 -76.5 8t-54.5 18q-43 24 -43 74z" />
<glyph unicode="fi" horiz-adv-x="1228" d="M-309 -463q0 59 28 148h68q0 -77 23 -115.5t88 -38.5q96 0 157 92q49 70 90 295l158 905h-178l14 62q98 13 146 41q24 14 34 33.5t23 82.5q22 100 44.5 167t50.5 108.5t50 62t60 47.5q97 72 289 72q37 0 94 -9.5t84 -21.5q47 -21 47 -73q0 -68 -31 -189h-76q2 29 2 84 q-3 68 -50 92.5t-130 24.5q-155 0 -227 -115q-24 -39 -44.5 -102.5t-51.5 -208.5l-15 -72h389q111 39 148 39q42 0 61 -17.5t19 -72.5q0 -63 -51 -280l-58 -254q-28 -138 -28 -168q0 -37 17 -54.5t60 -17.5q79 0 146 18l-17 -67q-114 -53 -209 -53q-116 0 -116 108 q0 43 28 174l56 256q41 184 41 228q0 46 -24.5 60.5t-78.5 14.5h-399l-172 -921q-32 -171 -72.5 -258t-101.5 -136q-85 -71 -223 -71q-67 0 -114.5 24.5t-47.5 75.5z" />
<glyph unicode="fl" horiz-adv-x="1216" d="M-309 -463q0 59 28 148h68q0 -81 22.5 -117.5t88.5 -36.5q98 0 159 92q46 65 88 295l162 905h-178l14 62q98 13 146 41q24 14 35.5 33.5t21.5 70.5q20 96 45 165t55 112t55 67t60 47q55 38 126 57t185 19q62 0 134 -14q52 18 84 18q43 0 60 -16.5t17 -69.5 q0 -60 -63 -350l-158 -741q-28 -138 -28 -168q0 -37 17 -54.5t60 -17.5q79 0 146 18l-17 -67q-114 -53 -209 -53q-116 0 -116 108q0 31 28 174l168 799q33 165 33 219q0 69 -48.5 97t-137.5 28q-114 0 -175.5 -28.5t-101.5 -86.5q-20 -29 -33 -54.5t-34 -92.5t-41 -166 l-13 -66q150 0 254 -4l-16 -80q-138 -6 -258 -6l-172 -911q-34 -176 -74.5 -266t-99.5 -138q-85 -71 -228 -71q-66 0 -112.5 24.5t-46.5 75.5z" />
<glyph unicode="ffi" horiz-adv-x="1882" d="M-309 -463q0 65 26 148h68q0 -92 21 -126t92 -34q49 0 91.5 27t67.5 73q48 81 86 293l160 905h-178l14 62q98 13 146 41q23 14 34 34t23 72q41 159 83 234t107 118q102 70 250 70q79 0 140 -22q45 -19 45 -64q0 -68 -29 -182h-70q2 27 2 61q-3 71 -32.5 94t-104.5 23 q-126 0 -192 -109q-42 -66 -95 -309l-8 -37h377q105 0 131 21q19 15 30 35.5t21 66.5q23 101 46 169t49.5 111t50 66t59.5 49q97 72 289 72q38 0 94 -9t84 -22q45 -17 45 -73q0 -75 -28 -193h-76q2 29 2 88q-2 46 -28.5 73t-62.5 35.5t-89 8.5q-156 0 -228 -115 q-23 -36 -42.5 -98t-51.5 -213l-16 -72h389q111 39 145 39q44 0 63 -17.5t19 -72.5q0 -58 -51 -280l-57 -254q-29 -122 -29 -168q0 -37 17 -54.5t61 -17.5q76 0 143 18l-14 -67q-114 -53 -209 -53q-48 0 -82.5 23.5t-34.5 84.5q0 39 29 174l55 256q41 185 41 228 q0 44 -20 59q-21 16 -82 16h-400l-166 -878q-47 -243 -120 -340q-46 -59 -119 -92t-156 -33q-91 0 -141 26q-43 24 -43 74q0 58 28 137h66q0 -90 24 -119.5t99 -29.5q51 0 98 28t70 72q58 114 90 293l154 862h-541l-172 -921q-47 -247 -117 -340q-46 -59 -115.5 -92 t-150.5 -33q-38 0 -76.5 8t-54.5 18q-43 24 -43 74z" />
<glyph unicode="ffl" horiz-adv-x="1869" d="M-309 -463q0 65 26 148h68q0 -92 21 -126t92 -34q49 0 91.5 27t67.5 73q48 81 86 293l160 905h-178l14 62q98 13 146 41q23 14 34 34t23 72q41 160 83.5 235.5t106.5 118.5q99 68 250 68q79 0 140 -22q45 -19 45 -64q0 -68 -29 -182h-70q2 27 2 61q-3 71 -32.5 94 t-104.5 23q-133 0 -192 -107q-61 -101 -97 -323l-4 -25h381q99 0 125 21q20 16 31.5 36t21.5 66q22 96 47 164.5t53.5 111t53 66.5t59.5 47q57 38 128.5 57t185.5 19q61 0 133 -14q47 14 86 14q42 0 59 -15t17 -67q0 -46 -66 -350l-156 -741q-28 -138 -28 -168 q0 -37 17 -54.5t61 -17.5q76 0 143 18l-14 -67q-114 -53 -209 -53q-48 0 -82.5 23.5t-34.5 84.5q0 42 29 174l168 799q32 160 32 219q0 49 -32 86q-17 17 -63.5 28t-90.5 11q-114 0 -176.5 -28t-101.5 -87q-20 -28 -33 -54t-33.5 -92.5t-40.5 -166.5l-14 -66q152 0 256 -4 l-17 -80q-138 -6 -258 -6l-166 -878q-47 -243 -120 -340q-46 -59 -119 -92t-156 -33q-91 0 -141 26q-43 24 -43 74q0 58 28 137h66q0 -90 24 -119.5t99 -29.5q51 0 98 28t70 72q58 114 90 293l154 862h-541l-172 -921q-47 -247 -117 -340q-46 -59 -115.5 -92t-150.5 -33 q-38 0 -76.5 8t-54.5 18q-43 24 -43 74z" />
<glyph unicode="&#x17f;t" horiz-adv-x="1261" d="M-324 -463q0 62 27 148h68q0 -93 20.5 -126.5t91.5 -33.5q49 0 92 27t68 73q48 81 86 293l178 1024q35 201 96.5 310.5t147.5 168.5q116 78 274 78q77 0 133.5 -19t87 -53t44.5 -73t14 -86q0 -21 -2 -44t-4 -41t-8 -45t-9 -42t-11.5 -46t-12 -43l-14 -48t-13.5 -46 q156 0 254 -4l-14 -80q-132 -6 -262 -6l-80 -405q-1 -7 -9 -51t-11.5 -63t-7 -54t-3.5 -62q0 -110 104 -110q75 0 173 39l30 -74q-123 -68 -246 -68q-81 0 -130.5 41.5t-49.5 130.5q0 46 13 109q21 123 112 567h-178l14 62q75 16 123 37q67 32 100 119.5t33 179.5 q0 95 -53 141.5t-137 46.5q-83 0 -150.5 -30.5t-105.5 -86.5q-20 -29 -34 -53.5t-36.5 -94t-40.5 -165.5l-205 -1077q-25 -132 -51.5 -211t-64.5 -129q-46 -59 -116 -92t-151 -33q-38 0 -76.5 8t-54.5 18q-43 24 -43 74z" />
<glyph unicode="Th" horiz-adv-x="2273" d="M209 1075q13 110 33 213q9 50 33 73t90 23h1118q37 30 53 42.5t38.5 24t41.5 11.5q31 0 43 -13t12 -54q0 -22 -16 -121q-48 -263 -111 -500q73 83 171.5 131.5t199.5 48.5q86 0 138 -39t52 -122q0 -78 -24 -177l-68 -286q-28 -122 -28 -174q0 -37 17 -54.5t60 -17.5 q79 0 142 18l-15 -67q-111 -53 -209 -53q-112 0 -112 106q0 67 26 176l80 350q15 69 15 117q0 65 -33 90t-96 25q-150 0 -326 -152l-158 -694h-102l223 1032q25 109 25 172q0 56 -35 70q-55 20 -617 20l-202 -1050q-15 -76 -15 -111q0 -37 41 -45q29 -7 144 -14l-15 -76 q-152 4 -245 4q-99 0 -263 -4l15 76q99 7 132 15t48 24q20 22 39 129l203 1052q-229 0 -287.5 -5t-89.5 -23q-42 -26 -94 -191h-72z" />
<glyph unicode="&#x164;h" horiz-adv-x="2273" d="M209 1075q13 110 33 213q9 50 33 73t90 23h1118q37 30 53 42.5t38.5 24t41.5 11.5q31 0 43 -13t12 -54q0 -22 -16 -121q-48 -263 -111 -500q73 83 171.5 131.5t199.5 48.5q86 0 138 -39t52 -122q0 -78 -24 -177l-68 -286q-28 -122 -28 -174q0 -37 17 -54.5t60 -17.5 q79 0 142 18l-15 -67q-111 -53 -209 -53q-112 0 -112 106q0 67 26 176l80 350q15 69 15 117q0 65 -33 90t-96 25q-150 0 -326 -152l-158 -694h-102l223 1032q25 109 25 172q0 56 -35 70q-55 20 -617 20l-202 -1050q-15 -76 -15 -111q0 -37 41 -45q29 -7 144 -14l-15 -76 q-152 4 -245 4q-99 0 -263 -4l15 76q99 7 132 15t48 24q20 22 39 129l203 1052q-229 0 -287.5 -5t-89.5 -23q-42 -26 -94 -191h-72zM586 1786l47 41l207 -213l286 213l41 -49l-272 -273q-40 -37 -74 -37q-23 0 -37 7.5t-28 31.5z" />
<glyph unicode="fb" horiz-adv-x="1757" d="M-309 -461q0 59 28 148h68q0 -78 22.5 -116t88.5 -38q90 0 153 96q55 78 94 291l162 903h-178l14 62q98 13 146 41q24 14 35.5 34.5t21.5 71.5q20 95 45 164t55 111.5t54.5 66t60.5 47.5q55 38 126 57t185 19q62 0 134 -14q47 14 86 14q43 0 59 -15t16 -67 q0 -37 -14 -119q-95 -440 -109 -489q72 66 162.5 107.5t184.5 41.5q143 0 210.5 -81t67.5 -222q0 -302 -156 -495q-151 -187 -417 -187q-183 0 -318 70q28 119 58 264l159 754q33 162 33 223q0 69 -48.5 97t-137.5 28q-114 0 -175.5 -28.5t-101.5 -86.5q-20 -29 -33 -54.5 t-34 -92.5t-41 -166l-13 -66q150 0 254 -4l-16 -80q-138 -6 -258 -6l-172 -909q-33 -172 -76 -261t-104 -138q-91 -76 -222 -76q-55 0 -116 26q-18 7 -30.5 29.5t-12.5 44.5zM901 109q71 -41 225 -41q186 0 308 157q58 75 87 181t29 212q0 109 -48 169.5t-165 60.5 q-66 0 -152 -36.5t-157 -92.5z" />
<glyph unicode="ffb" horiz-adv-x="2410" d="M-309 -463q0 65 26 148h68q0 -92 21 -126t92 -34q49 0 91.5 27t67.5 73q48 81 86 293l160 905h-178l14 62q98 13 146 41q23 14 34 34t23 72q41 160 83.5 235.5t106.5 118.5q99 68 250 68q79 0 140 -22q45 -19 45 -64q0 -68 -29 -182h-70q2 27 2 61q-3 71 -32.5 94 t-104.5 23q-126 0 -192 -107q-52 -83 -97 -325l-4 -23h381q99 0 125 21q20 16 31.5 36t21.5 66q22 96 47 164.5t53.5 111t53 66.5t59.5 47q57 38 128.5 57t185.5 19q61 0 133 -14q47 14 86 14q42 0 59 -15t17 -67q0 -31 -15 -119q-11 -51 -36.5 -172t-42 -195.5 t-29.5 -121.5q72 66 162 107.5t182 41.5q144 0 212 -81t68 -222q0 -304 -157 -495q-148 -187 -416 -187q-182 0 -317 70q22 91 57 264l160 754q32 157 32 223q0 58 -32 86q-18 17 -64.5 28t-89.5 11q-114 0 -176.5 -28t-101.5 -87q-20 -28 -33 -54t-33.5 -92.5t-40.5 -166.5 l-14 -66q152 0 256 -4l-17 -80q-138 -6 -258 -6l-166 -878q-47 -243 -120 -340q-46 -59 -119 -92t-156 -33q-91 0 -141 26q-43 24 -43 74q0 58 28 137h66q0 -90 24 -119.5t99 -29.5q51 0 98 28t70 72q58 114 90 293l154 862h-541l-172 -921q-47 -247 -117 -340 q-46 -59 -115.5 -92t-150.5 -33q-38 0 -76.5 8t-54.5 18q-43 24 -43 74zM1552 109q73 -41 228 -41q186 0 305 157q59 76 89 182t30 211q0 109 -48 169.5t-165 60.5q-66 0 -152.5 -37t-157.5 -92z" />
<glyph unicode="ffh" horiz-adv-x="2418" d="M-309 -463q0 65 26 148h68q0 -92 21 -126t92 -34q49 0 91.5 27t67.5 73q48 81 86 293l160 905h-178l14 62q98 13 146 41q23 14 34 34t23 72q41 160 83.5 235.5t106.5 118.5q99 68 250 68q79 0 140 -22q45 -19 45 -64q0 -68 -29 -182h-70q2 27 2 61q-3 71 -32.5 94 t-104.5 23q-133 0 -192 -107q-47 -78 -97 -327l-4 -21h381q99 0 125 21q20 16 31.5 36t21.5 66q22 96 47 164.5t53.5 111t53 66.5t59.5 47q57 38 128.5 57t185.5 19q61 0 133 -14q47 14 86 14q42 0 59 -15t17 -67q0 -27 -15 -115q-24 -119 -114 -526q72 83 169.5 131.5 t200.5 48.5q85 0 137 -39t52 -122q0 -71 -23 -177l-69 -286q-29 -126 -29 -174q0 -36 18 -54t60 -18q80 0 143 18l-16 -67q-111 -53 -209 -53q-111 0 -111 106q0 59 25 176l80 350q16 74 16 117q0 65 -34 90t-97 25q-75 0 -159.5 -41t-164.5 -111l-157 -694h-105l230 1059 q32 147 32 223q0 49 -32 86q-17 17 -63.5 28t-90.5 11q-114 0 -176.5 -28t-101.5 -87q-20 -28 -33 -54t-33.5 -92.5t-40.5 -166.5l-14 -66q152 0 256 -4l-17 -80q-138 -6 -258 -6l-166 -878q-47 -243 -120 -340q-46 -59 -119 -92t-156 -33q-91 0 -141 26q-43 24 -43 74 q0 58 28 137h66q0 -90 24 -119.5t99 -29.5q51 0 98 28t70 72q58 114 90 293l154 862h-541l-172 -921q-47 -247 -117 -340q-46 -59 -115.5 -92t-150.5 -33q-38 0 -76.5 8t-54.5 18q-43 24 -43 74z" />
<glyph unicode="ffj" horiz-adv-x="1882" d="M-309 -463q0 65 26 148h68q0 -47 4 -74.5t15.5 -48.5t34 -29t59.5 -8q49 0 91.5 27t67.5 73q48 81 86 293l160 905h-178l14 62q98 13 146 41q16 9 25.5 20.5t16.5 30.5t15 55q41 160 83.5 235.5t106.5 118.5q99 68 250 68q79 0 140 -22q45 -19 45 -64q0 -68 -29 -182h-70 q2 27 2 61q-3 71 -32.5 94t-104.5 23q-126 0 -192 -107q-24 -38 -45.5 -108t-51.5 -219l-4 -21h381q99 0 125 21q19 15 30 35.5t21 66.5q23 101 46 169t49.5 111t50 66t59.5 49q97 72 289 72q38 0 94 -9t84 -22q21 -8 33 -27t12 -46q0 -80 -28 -189h-76q2 29 2 84 q-2 36 -16 60t-40 36t-55.5 16.5t-68.5 4.5q-156 0 -228 -115q-23 -36 -42.5 -98t-51.5 -213l-16 -72h389q111 39 145 39q44 0 63 -17.5t19 -72.5q0 -43 -24 -172q-60 -310 -136 -649q-48 -225 -118 -338q-46 -76 -140.5 -132t-210.5 -71l-16 76q90 17 161 64t103 106 q73 135 115 301q25 103 55.5 259t42.5 210q11 47 24 129.5t13 106.5q0 44 -20 59q-21 16 -82 16h-400l-170 -901q-46 -238 -121 -338q-47 -60 -118.5 -92.5t-155.5 -32.5q-102 0 -141 27q-43 24 -43 72q0 57 28 139h66q0 -90 24.5 -121t98.5 -31q51 0 98 28.5t70 72.5 q57 107 90 295l158 882h-541l-172 -921q-47 -247 -117 -340q-46 -59 -115.5 -92t-150.5 -33q-38 0 -76.5 8t-54.5 18q-43 24 -43 74z" />
<glyph unicode="ffk" horiz-adv-x="2310" d="M-309 -463q0 65 26 148h68q0 -92 21 -126t92 -34q49 0 91.5 27t67.5 73q48 81 86 293l160 905h-178l14 62q98 13 146 41q23 14 34 34t23 72q41 160 83.5 235.5t106.5 118.5q99 68 250 68q79 0 140 -22q45 -19 45 -64q0 -68 -29 -182h-70q2 27 2 61q-3 71 -32.5 94 t-104.5 23q-133 0 -192 -107q-46 -77 -97 -327l-4 -21h381q99 0 125 21q20 16 31.5 36t21.5 66q22 96 47 164.5t53.5 111t53 66.5t59.5 47q57 38 128.5 57t185.5 19q61 0 133 -14q47 14 86 14q42 0 59 -15t17 -67q0 -53 -15 -119q-88 -409 -282 -1296h-105l230 1061 q32 147 32 221q0 49 -32 86q-17 17 -63.5 28t-90.5 11q-114 0 -176.5 -28t-101.5 -87q-20 -28 -33 -54t-33.5 -92.5t-40.5 -166.5l-14 -66q152 0 256 -4l-17 -80q-138 -6 -258 -6l-166 -878q-47 -243 -120 -340q-46 -59 -119 -92t-156 -33q-91 0 -141 26q-43 24 -43 74 q0 58 28 137h66q0 -90 24 -119.5t99 -29.5q51 0 98 28t70 72q58 114 90 293l154 862h-541l-172 -921q-47 -247 -117 -340q-46 -59 -115.5 -92t-150.5 -33q-38 0 -76.5 8t-54.5 18q-43 24 -43 74zM1669 520q132 165 266 295q64 59 136 99t135 40q104 0 104 -80 q0 -46 -26 -120h-60q-4 41 -18.5 56t-44.5 15q-37 0 -85 -22.5t-83 -54.5q-125 -112 -211 -211q55 -109 121.5 -211.5t121.5 -163.5q24 -28 63 -53t81 -25q58 0 119 14l-19 -71q-21 -13 -59 -23t-68 -10q-62 0 -106 17t-82 61q-63 69 -141.5 196t-143.5 252z" />
<glyph unicode="fft" horiz-adv-x="1978" d="M-309 -463q0 65 26 148h68q0 -92 21 -126t92 -34q49 0 91.5 27t67.5 73q48 81 86 293l160 905h-178l14 62q98 13 146 41q23 14 34 34t23 72q41 160 83.5 235.5t106.5 118.5q99 68 250 68q79 0 140 -22q45 -19 45 -64q0 -68 -29 -182h-70q2 27 2 61q-3 71 -32.5 94 t-104.5 23q-128 0 -194 -107q-40 -61 -90 -305l-9 -43h381q99 0 125 21q20 16 31.5 36t21.5 66q28 128 59.5 207.5t60 116t73.5 69.5q102 72 258 72q76 0 137 -22q45 -19 45 -64q0 -82 -28 -192h-70q2 29 2 69q-2 65 -35 94q-28 25 -102 25q-134 0 -193 -107 q-46 -76 -96 -321l-14 -68h368q80 0 115 13q16 6 29 17t18 18t14 22q19 35 72 162q16 35 51 35q33 0 33 -27q0 -16 -49 -238q156 0 254 -4l-14 -80q-132 -6 -263 -6l-79 -407q-2 -10 -7.5 -40t-8.5 -47.5t-7 -44t-6 -50.5t-2 -46q0 -110 102 -110q76 0 174 39l29 -74 q-120 -68 -246 -68q-80 0 -129 41.5t-49 130.5q0 44 10 109q7 37 115 567h-543l-166 -878q-47 -243 -120 -340q-46 -59 -119 -92t-156 -33q-91 0 -141 26q-43 24 -43 74q0 58 28 137h66q0 -90 24 -119.5t99 -29.5q51 0 98 28t70 72q58 114 90 293l154 862h-541l-172 -921 q-47 -247 -117 -340q-46 -59 -115.5 -92t-150.5 -33q-38 0 -76.5 8t-54.5 18q-43 24 -43 74z" />
<glyph unicode="fh" horiz-adv-x="1767" d="M-309 -461q0 59 28 148h68q0 -98 33 -129q32 -25 78 -25q90 0 153 96q55 78 94 291l162 903h-178l14 62q98 13 146 41q25 14 36 33t21 69q20 95 44.5 164.5t54.5 113t55.5 68t60.5 47.5q55 38 126 57t185 19q62 0 134 -14q47 14 86 14q43 0 59 -15t16 -67q0 -33 -14 -115 q-57 -284 -115 -526q71 83 170 131.5t201 48.5q86 0 138 -39t52 -122q0 -66 -24 -177l-70 -286q-26 -113 -26 -174q0 -37 17 -54.5t60 -17.5q79 0 142 18l-15 -67q-111 -53 -208 -53q-113 0 -113 106q0 64 24 176l80 350q17 79 17 117q0 64 -33.5 89.5t-95.5 25.5 q-154 0 -326 -152l-158 -694h-102l227 1059q33 151 33 223q0 69 -48.5 97t-137.5 28q-114 0 -175.5 -28.5t-101.5 -86.5q-20 -29 -33 -54.5t-34 -92.5t-41 -166l-13 -66q150 0 254 -4l-16 -80q-138 -6 -258 -6l-172 -909q-33 -172 -76 -261t-104 -138q-91 -76 -222 -76 q-65 0 -112 23.5t-47 76.5z" />
<glyph unicode="fj" horiz-adv-x="1228" d="M-307 -461q0 59 28 148h68q0 -83 22.5 -118.5t88.5 -35.5q94 0 157 96q50 71 90 291l156 903h-178l14 62q98 13 146 41q24 14 34 33.5t23 82.5q22 100 44.5 167t50.5 108.5t50 62t60 47.5q97 72 289 72q37 0 94 -9.5t84 -21.5q47 -21 47 -73q0 -68 -31 -189h-76 q2 29 2 84q-3 68 -50 92.5t-130 24.5q-155 0 -227 -115q-24 -39 -44.5 -102.5t-51.5 -208.5l-15 -72h389q111 39 148 39q42 0 61 -17.5t19 -72.5q0 -38 -25 -172q-80 -416 -147 -692q-55 -230 -121 -338q-44 -76 -138 -132t-210 -71l-17 76q90 17 161.5 64t103.5 106 q33 62 61.5 136t53.5 171.5t39.5 160t39 184t33.5 161.5q35 178 35 236q0 46 -24.5 60.5t-78.5 14.5h-399l-170 -919q-32 -170 -72.5 -255t-101.5 -134q-91 -76 -225 -76q-65 0 -112.5 24t-47.5 76z" />
<glyph unicode="fk" horiz-adv-x="1656" d="M-311 -461q0 59 28 148h68q0 -76 22.5 -115t88.5 -39q90 0 153 96q55 78 94 291l164 903h-178l14 62q98 13 146 41q25 14 36 33t21 69q20 96 45 165t54.5 112.5t55 68t60.5 47.5q55 38 126 57t185 19q62 0 134 -14q47 14 86 14q43 0 59 -15t16 -67q0 -58 -14 -119 q-45 -210 -283 -1296h-102l227 1059q33 151 33 223q0 69 -48.5 97t-137.5 28q-114 0 -175.5 -28.5t-101.5 -86.5q-20 -29 -33 -54.5t-34 -92.5t-41 -166l-13 -66q150 0 254 -4l-16 -80q-138 -6 -258 -6l-174 -909q-33 -172 -76 -262t-104 -139q-89 -74 -222 -74 q-65 0 -112 24.5t-47 75.5zM1018 520q137 172 264 295q151 139 270 139q105 0 105 -80q0 -43 -27 -120h-59q-4 41 -18.5 56t-45.5 15q-37 0 -85 -22.5t-83 -54.5q-96 -84 -211 -211q54 -108 121.5 -211t122.5 -164q72 -78 146 -78q58 0 116 14l-18 -71q-21 -13 -59 -23 t-68 -10q-62 0 -105.5 17t-83.5 61q-63 70 -141.5 197.5t-140.5 250.5z" />
<glyph unicode="ft" horiz-adv-x="1320" d="M-309 -463q0 65 26 148h68q0 -92 21 -126t92 -34q49 0 91.5 27t67.5 73q48 81 86 293l160 905h-178l14 62q98 13 146 41q24 14 35.5 34.5t21.5 71.5q28 129 58.5 208t60 116t74.5 69q98 72 258 72q32 0 61 -3.5t58.5 -12.5t47 -27t17.5 -43q0 -70 -31 -192h-69q2 29 2 69 q-3 70 -34 94.5t-104 24.5q-133 0 -192 -107q-54 -97 -96 -323l-13 -66h367q74 0 115 13q35 14 61 57q32 66 72 164q18 33 51 33q35 0 35 -27q0 -6 -51 -238q155 0 253 -4l-14 -80q-132 -6 -262 -6l-80 -405q-31 -170 -31 -230q0 -110 105 -110q74 0 172 39l29 -74 q-62 -35 -128.5 -51.5t-115.5 -16.5q-81 0 -130.5 41.5t-49.5 130.5q0 44 10 109q7 37 115 567h-543l-172 -921q-47 -247 -117 -340q-46 -59 -115.5 -92t-150.5 -33q-38 0 -76.5 8t-54.5 18q-43 24 -43 74z" />
<glyph unicode="&#x17f;b" horiz-adv-x="1705" d="M-328 -463q0 56 29 148h68q0 -81 22 -117.5t88 -36.5q99 0 160 92q46 65 88 295l192 1075q58 320 226 428q60 39 121 57.5t161 18.5q57 0 129 -14q61 18 86 18q42 0 59 -16.5t17 -69.5q0 -37 -14 -119q-95 -440 -109 -489q72 66 162 107.5t184 41.5q143 0 211 -81 t68 -222q0 -302 -156 -495q-151 -187 -417 -187q-183 0 -318 70q22 91 57 264l160 758q33 165 33 219q0 69 -47.5 97t-134.5 28q-58 0 -98.5 -7t-68 -24t-43.5 -34.5t-38 -49.5q-21 -31 -34 -55t-34.5 -91.5t-40.5 -166.5l-202 -1065q-34 -174 -76.5 -266t-102.5 -140 q-85 -71 -227 -71q-66 0 -113 24t-47 76zM852 109q71 -41 225 -41q185 0 307 157q58 75 87.5 181t29.5 212q0 109 -48 169.5t-165 60.5q-66 0 -152 -36.5t-157 -92.5z" />
<glyph unicode="&#x17f;h" horiz-adv-x="1724" d="M-332 -463q0 56 29 148h67q0 -81 22.5 -117.5t88.5 -36.5q99 0 160 92q46 65 88 295l194 1069q24 134 55.5 217.5t66.5 127.5t93 87q109 78 302 78q57 0 129 -14q49 18 86 18q42 0 58.5 -16.5t16.5 -69.5q0 -33 -14 -115q-57 -284 -115 -526q71 83 170 131.5t201 48.5 q86 0 138 -39t52 -122q0 -66 -24 -177l-70 -286q-26 -113 -26 -174q0 -37 17 -54.5t60 -17.5q79 0 142 18l-15 -67q-111 -53 -208 -53q-113 0 -113 106q0 64 24 176l80 350q17 79 17 117q0 64 -33.5 89.5t-95.5 25.5q-154 0 -326 -152l-158 -694h-102l227 1063 q33 165 33 219q0 69 -47.5 97t-134.5 28q-104 0 -161 -28t-97 -87q-21 -31 -34 -55t-34.5 -91.5t-40.5 -166.5l-203 -1065q-34 -174 -76 -266t-102 -140q-85 -71 -227 -71q-66 0 -113 24t-47 76z" />
<glyph unicode="&#x17f;i" horiz-adv-x="1157" d="M-324 -463q0 62 27 148h68q0 -93 20.5 -126.5t91.5 -33.5q49 0 92 27t68 73q48 81 86 293l178 1024q35 203 89.5 319t135.5 166q117 72 269 72q209 0 209 -100q0 -72 -31 -193h-76q2 29 2 84q-3 68 -44 92.5t-120 24.5q-56 0 -113.5 -30t-92.5 -85q-17 -29 -29 -55.5 t-31 -93.5t-37 -164l-205 -1077q-25 -132 -51.5 -211t-64.5 -129q-46 -59 -116 -92t-151 -33q-38 0 -76.5 8t-54.5 18q-43 24 -43 74zM688 831l12 66q95 51 189 51q45 0 71.5 -19.5t26.5 -72.5q0 -30 -9 -79t-26 -122l-16 -73l-57 -258q-29 -143 -29 -168q0 -37 17 -54.5 t61 -17.5q76 0 143 18l-14 -67q-114 -53 -209 -53q-48 0 -82.5 23.5t-34.5 84.5q0 48 27 174l59 258q41 174 41 246q0 41 -17.5 56.5t-64.5 15.5q-43 0 -88 -9z" />
<glyph unicode="&#x17f;j" horiz-adv-x="1107" d="M-324 -463q0 62 27 148h68q0 -93 20.5 -126.5t91.5 -33.5q49 0 92 27t68 73q48 81 86 293l178 1024q35 203 89.5 319t135.5 166q117 72 269 72q209 0 209 -100q0 -72 -31 -193h-76q2 29 2 84q-3 68 -44 92.5t-120 24.5q-56 0 -113.5 -30t-92.5 -85q-17 -29 -29 -55.5 t-31 -93.5t-37 -164l-205 -1077q-25 -132 -51.5 -211t-64.5 -129q-46 -59 -116 -92t-151 -33q-38 0 -76.5 8t-54.5 18q-43 24 -43 74zM354 -487q79 23 142.5 64t93.5 93q52 92 108 307q22 81 41.5 167t44 206.5t33.5 161.5q13 58 26 141.5t13 108.5q0 46 -17.5 62t-64.5 16 q-36 0 -88 -9l12 66q95 51 189 51q45 0 71.5 -19.5t26.5 -72.5q0 -41 -24 -170q-28 -145 -156 -715q-53 -232 -123 -340q-42 -65 -125.5 -120t-189.5 -74z" />
<glyph unicode="&#x17f;k" horiz-adv-x="1613" d="M-332 -463q0 56 29 148h67q0 -81 22.5 -117.5t88.5 -36.5q99 0 160 92q46 65 88 295l194 1079q56 309 220 424q106 76 297 76q57 0 129 -14q49 18 86 18q42 0 58.5 -16.5t16.5 -69.5q0 -51 -14 -119q-53 -253 -102.5 -480t-104 -470.5t-76.5 -345.5h-102l227 1063 q33 165 33 219q0 69 -47.5 97t-134.5 28q-103 0 -161.5 -30t-96.5 -85q-21 -31 -34 -55t-34.5 -91.5t-40.5 -166.5l-203 -1065q-34 -174 -76 -266t-102 -140q-85 -71 -227 -71q-66 0 -113 24t-47 76zM975 520q137 172 264 295q151 139 270 139q105 0 105 -80q0 -43 -27 -120 h-59q-4 41 -18.5 56t-45.5 15q-37 0 -85 -22.5t-83 -54.5q-96 -84 -211 -211q54 -108 121.5 -211t122.5 -164q72 -78 146 -78q58 0 116 14l-18 -71q-21 -13 -59 -23t-68 -10q-62 0 -105.5 17t-83.5 61q-63 70 -141.5 197.5t-140.5 250.5z" />
<glyph unicode="&#x17f;l" horiz-adv-x="1161" d="M-330 -461q0 56 29 148h68q0 -81 22 -117.5t88 -36.5q99 0 160 92q46 65 88 295l190 1067q57 325 226 434q118 76 280 76q57 0 129 -14q52 18 84 18q43 0 60.5 -16.5t17.5 -69.5q0 -60 -63 -350l-158 -741q-29 -143 -29 -168q0 -37 17.5 -54.5t60.5 -17.5q78 0 145 18 l-16 -67q-114 -53 -209 -53q-48 0 -82.5 23.5t-34.5 84.5q0 15 2.5 35t5.5 35l10 50t11 54l168 799q33 165 33 219q0 69 -47.5 97t-134.5 28q-98 0 -152 -28t-94 -87q-21 -31 -34 -55t-34.5 -91.5t-40.5 -166.5l-200 -1063q-34 -173 -76.5 -264.5t-102.5 -140.5 q-86 -72 -227 -72q-66 0 -113 24t-47 76z" />
<glyph unicode="&#x17f;&#x17f;" horiz-adv-x="1210" d="M-317 -463q0 59 28 148h68q0 -91 19.5 -125.5t86.5 -34.5q101 0 158 100q48 81 86 293l182 1028q33 186 85 287.5t122 152.5q99 70 240 70q67 0 123 -20q45 -19 45 -66q0 -84 -31 -192h-68q2 29 2 69q-2 62 -34 94q-25 25 -90 25q-118 0 -177 -109q-52 -93 -98 -329 l-194 -1026q-25 -132 -52.5 -211t-66.5 -129q-95 -125 -264 -125q-77 0 -127 26q-43 26 -43 74zM297 -410q0 54 25 134h67q0 -106 31 -130q36 -28 94 -28q50 0 101.5 32.5t78.5 79.5q51 86 88 293l183 1016q33 187 83 286.5t119 149.5q104 74 250 74q77 0 133 -20 q45 -19 45 -66q0 -87 -30 -192h-68q2 29 2 69q-2 61 -35 94q-25 25 -100 25q-122 0 -182 -109q-51 -85 -99 -329l-194 -1014q-44 -230 -121 -340q-43 -63 -122.5 -100t-164.5 -37q-89 0 -151 35q-33 20 -33 77z" />
<glyph unicode="&#x17f;&#x17f;b" horiz-adv-x="2351" d="M-317 -463q0 59 28 148h68q0 -91 19.5 -125.5t86.5 -34.5q101 0 158 100q48 81 86 293l182 1028q33 186 85 287.5t122 152.5q99 70 240 70q67 0 123 -20q45 -19 45 -66q0 -84 -31 -192h-68q2 29 2 69q-2 62 -34 94q-25 25 -90 25q-118 0 -177 -109q-52 -93 -98 -329 l-194 -1026q-25 -132 -52.5 -211t-66.5 -129q-95 -125 -264 -125q-77 0 -127 26q-43 26 -43 74zM295 -422q0 54 29 146h67q0 -89 25.5 -122.5t105.5 -33.5q49 0 91.5 25.5t72.5 70.5q55 82 94 295l185 1034q59 320 225 428q60 39 121.5 57.5t161.5 18.5q57 0 129 -14 q61 18 86 18q42 0 58.5 -16.5t16.5 -69.5q0 -37 -14 -119q-95 -440 -109 -489q72 66 162.5 107.5t184.5 41.5q143 0 210.5 -81t67.5 -222q0 -302 -156 -495q-151 -187 -417 -187q-183 0 -318 70q28 119 58 264l159 758q33 165 33 219q0 69 -47.5 97t-134.5 28 q-58 0 -98.5 -7t-68 -24t-43.5 -34.5t-38 -49.5q-21 -31 -34 -55t-34.5 -91.5t-40.5 -166.5l-194 -1024q-34 -173 -78 -266t-106 -140q-92 -71 -232 -71q-47 0 -84.5 7.5t-66.5 31t-29 61.5zM1497 109q71 -41 225 -41q186 0 308 157q58 75 87 181t29 212q0 109 -48 169.5 t-165 60.5q-66 0 -152 -36.5t-157 -92.5z" />
<glyph unicode="&#x17f;&#x17f;h" horiz-adv-x="2373" d="M-317 -463q0 59 28 148h68q0 -91 19.5 -125.5t86.5 -34.5q101 0 158 100q48 81 86 293l182 1028q33 186 85 287.5t122 152.5q99 70 240 70q67 0 123 -20q45 -19 45 -66q0 -84 -31 -192h-68q2 29 2 69q-2 62 -34 94q-25 25 -90 25q-118 0 -177 -109q-52 -93 -98 -329 l-194 -1026q-25 -132 -52.5 -211t-66.5 -129q-95 -125 -264 -125q-77 0 -127 26q-43 26 -43 74zM295 -422q0 54 29 146h67q0 -99 33 -132q27 -24 96 -24q50 0 95 27.5t75 72.5q47 67 88 291l187 1028q25 136 57 219.5t66.5 126t95.5 88.5q100 76 295 76q59 0 131 -14 q49 18 86 18q42 0 59 -16.5t17 -69.5q0 -27 -15 -115q-57 -284 -115 -526q71 83 170 131.5t201 48.5q86 0 138.5 -39t52.5 -122q0 -61 -25 -177l-70 -286q-26 -113 -26 -174q0 -37 17.5 -54.5t60.5 -17.5q78 0 141 18l-14 -67q-111 -53 -209 -53q-113 0 -113 106 q0 59 25 176l80 350q16 74 16 117q0 64 -33.5 89.5t-95.5 25.5q-154 0 -326 -152l-157 -694h-103l227 1063q33 165 33 219q0 69 -47.5 97t-134.5 28q-104 0 -161 -28t-97 -87q-21 -31 -34 -55t-34.5 -91.5t-40.5 -166.5l-194 -1024q-34 -174 -76 -265t-102 -139 q-88 -73 -256 -73q-70 0 -117 26q-43 22 -43 74z" />
<glyph unicode="&#x17f;&#x17f;i" horiz-adv-x="1802" d="M-317 -463q0 59 28 148h68q0 -91 19.5 -125.5t86.5 -34.5q101 0 158 100q48 81 86 293l182 1028q33 186 85 287.5t122 152.5q99 70 240 70q67 0 123 -20q45 -19 45 -66q0 -84 -31 -192h-68q2 29 2 69q-2 62 -34 94q-25 25 -90 25q-118 0 -177 -109q-52 -93 -98 -329 l-194 -1026q-25 -132 -52.5 -211t-66.5 -129q-95 -125 -264 -125q-77 0 -127 26q-43 26 -43 74zM297 -420q0 64 25 144h67q0 -92 27 -125t104 -33q41 0 91.5 29.5t74.5 72.5q60 100 94 293l172 981q35 203 90 318.5t136 166.5q117 72 268 72q209 0 209 -100q0 -72 -31 -193 h-76q2 29 2 84q-3 68 -44 92.5t-120 24.5q-56 0 -113.5 -30t-92.5 -85q-17 -29 -29 -55.5t-31 -93.5t-37 -164l-196 -1034q-44 -229 -127 -340q-46 -59 -119.5 -93t-155.5 -34q-87 0 -143 28q-45 23 -45 74zM1333 831l13 66q95 51 188 51q45 0 71.5 -19.5t26.5 -72.5 q0 -30 -9 -79t-25 -122l-17 -73l-57 -258q-29 -143 -29 -168q0 -37 17 -54.5t61 -17.5q76 0 143 18l-14 -67q-114 -53 -209 -53q-48 0 -82.5 23.5t-34.5 84.5q0 48 27 174l59 258q41 174 41 246q0 41 -17.5 56.5t-64.5 15.5q-43 0 -88 -9z" />
<glyph unicode="&#x17f;&#x17f;j" horiz-adv-x="1753" d="M-317 -463q0 59 28 148h68q0 -91 19.5 -125.5t86.5 -34.5q101 0 158 100q48 81 86 293l182 1028q33 186 85 287.5t122 152.5q99 70 240 70q67 0 123 -20q45 -19 45 -66q0 -84 -31 -192h-68q2 29 2 69q-2 62 -34 94q-25 25 -90 25q-118 0 -177 -109q-52 -93 -98 -329 l-194 -1026q-25 -132 -52.5 -211t-66.5 -129q-95 -125 -264 -125q-77 0 -127 26q-43 26 -43 74zM293 -440q0 66 24 143h68q0 -91 27 -124.5t104 -33.5q46 0 94 28t72 75q63 119 94 293l176 1001q35 203 90 318.5t136 166.5q117 72 268 72q209 0 209 -100q0 -72 -31 -193h-76 q2 29 2 84q-3 68 -44 92.5t-120 24.5q-56 0 -113.5 -30t-92.5 -85q-17 -29 -29 -55.5t-31 -93.5t-37 -164l-200 -1055q-44 -229 -127 -340q-46 -59 -118.5 -93t-156.5 -34q-85 0 -143 29q-45 23 -45 74zM1008 -446q79 23 142 64t93 93q54 96 109 307q61 240 110 494 q39 206 39 250q0 46 -17.5 62t-64.5 16q-36 0 -88 -9l12 66q95 51 189 51q45 0 71.5 -19.5t26.5 -72.5q0 -41 -24 -170q-44 -227 -148 -674q-57 -239 -123 -340q-42 -65 -125.5 -120t-189.5 -74z" />
<glyph unicode="&#x17f;&#x17f;k" horiz-adv-x="2260" d="M-317 -463q0 59 28 148h68q0 -91 19.5 -125.5t86.5 -34.5q101 0 158 100q48 81 86 293l182 1028q33 186 85 287.5t122 152.5q99 70 240 70q67 0 123 -20q45 -19 45 -66q0 -84 -31 -192h-68q2 29 2 69q-2 62 -34 94q-25 25 -90 25q-118 0 -177 -109q-52 -93 -98 -329 l-194 -1026q-25 -132 -52.5 -211t-66.5 -129q-95 -125 -264 -125q-77 0 -127 26q-43 26 -43 74zM295 -422q0 54 29 146h67q0 -99 33 -132q27 -24 98 -24q49 0 93.5 27t74.5 71q47 66 88 293l187 1038q18 96 43.5 170.5t56 122.5t58.5 77.5t61 53.5q106 76 297 76 q57 0 129 -14q49 18 86 18q42 0 59 -16.5t17 -69.5q0 -46 -15 -119q-46 -221 -282 -1296h-103l227 1063q33 165 33 219q0 69 -47.5 97t-134.5 28q-103 0 -161.5 -30t-96.5 -85q-21 -31 -34 -55t-34.5 -91.5t-40.5 -166.5l-194 -1024q-34 -174 -76 -265t-102 -139 q-45 -38 -110 -55.5t-126 -17.5q-180 0 -180 100zM1622 520q137 172 264 295q64 59 136 99t135 40q104 0 104 -80q0 -43 -27 -120h-59q-4 41 -18.5 56t-45.5 15q-37 0 -84.5 -22.5t-82.5 -54.5q-96 -84 -211 -211q55 -109 121.5 -211.5t121.5 -163.5q72 -78 146 -78 q58 0 116 14l-18 -71q-21 -13 -59 -23t-68 -10q-61 0 -104.5 17t-83.5 61q-63 70 -142.5 198t-140.5 250z" />
<glyph unicode="&#x17f;&#x17f;l" horiz-adv-x="1808" d="M-317 -463q0 59 28 148h68q0 -91 19.5 -125.5t86.5 -34.5q101 0 158 100q48 81 86 293l182 1028q33 186 85 287.5t122 152.5q99 70 240 70q67 0 123 -20q45 -19 45 -66q0 -84 -31 -192h-68q2 29 2 69q-2 62 -34 94q-25 25 -90 25q-118 0 -177 -109q-52 -93 -98 -329 l-194 -1026q-25 -132 -52.5 -211t-66.5 -129q-95 -125 -264 -125q-77 0 -127 26q-43 26 -43 74zM297 -420q0 61 25 141h67q0 -87 25 -120t100 -33q50 0 98 29t78 75q48 67 88 289l185 1026q57 325 225 434q118 76 280 76q57 0 129 -14q52 18 84 18q43 0 60.5 -16.5 t17.5 -69.5q0 -60 -63 -350l-158 -741q-29 -143 -29 -168q0 -37 17.5 -54.5t60.5 -17.5q79 0 146 18l-17 -67q-114 -53 -209 -53q-116 0 -116 108q0 31 28 174l168 799q33 165 33 219q0 69 -47.5 97t-134.5 28q-98 0 -152 -28t-94 -87q-21 -31 -34 -55t-34.5 -91.5 t-40.5 -166.5l-194 -1022q-34 -173 -75.5 -262.5t-102.5 -138.5q-47 -39 -109 -58.5t-119 -19.5q-186 0 -186 102z" />
<glyph unicode="&#x17f;&#x17f;t" horiz-adv-x="1910" d="M-317 -463q0 59 28 148h68q0 -91 19.5 -125.5t86.5 -34.5q101 0 158 100q48 81 86 293l182 1028q33 186 85 287.5t122 152.5q99 70 240 70q67 0 123 -20q45 -19 45 -66q0 -84 -31 -192h-68q2 29 2 69q-2 62 -34 94q-25 25 -90 25q-118 0 -177 -109q-52 -93 -98 -329 l-194 -1026q-25 -132 -52.5 -211t-66.5 -129q-95 -125 -264 -125q-77 0 -127 26q-43 26 -43 74zM297 -422q0 64 27 146h67q0 -92 25 -125t100 -33q51 0 98 28t72 72q62 111 94 293l176 983q25 140 64 238t79.5 149.5t96.5 89.5q52 35 131.5 57.5t151.5 22.5q77 0 133 -19 t85.5 -53t42.5 -73t13 -86q0 -21 -2 -44t-4 -41t-8 -45t-9 -42t-11.5 -46t-12 -43l-14 -48t-13.5 -46q156 0 254 -4l-14 -80q-132 -6 -262 -6l-80 -405q-1 -7 -9 -51t-11.5 -63t-7 -54t-3.5 -62q0 -110 105 -110q74 0 172 39l30 -74q-123 -68 -245 -68q-81 0 -131 41.5 t-50 130.5q0 46 13 109q21 123 112 567h-178l15 62q73 16 122 37q67 32 100.5 120t33.5 179q0 94 -53.5 141t-137.5 47q-83 0 -150.5 -31.5t-105.5 -87.5q-69 -97 -111 -311l-200 -1036q-47 -244 -127 -340q-47 -56 -127 -90.5t-162 -34.5q-81 0 -131 26q-43 24 -43 74z" />
<glyph unicode="&#x162;h" horiz-adv-x="2273" d="M209 1075q13 110 33 213q9 50 33 73t90 23h1118q37 30 53 42.5t38.5 24t41.5 11.5q31 0 43 -13t12 -54q0 -22 -16 -121q-48 -263 -111 -500q73 83 171.5 131.5t199.5 48.5q86 0 138 -39t52 -122q0 -78 -24 -177l-68 -286q-28 -122 -28 -174q0 -37 17 -54.5t60 -17.5 q79 0 142 18l-15 -67q-111 -53 -209 -53q-112 0 -112 106q0 67 26 176l80 350q15 69 15 117q0 65 -33 90t-96 25q-150 0 -326 -152l-158 -694h-102l223 1032q25 109 25 172q0 56 -35 70q-55 20 -617 20l-202 -1050q-15 -76 -15 -111q0 -37 41 -45q29 -7 144 -14l-15 -76 l-211 4q-39 -73 -39 -100q0 -35 27 -52q71 -39 96 -72t25 -91q0 -104 -101 -174t-258 -91l-10 76q118 25 181 63t63 99q0 35 -18 56.5t-66 54.5q-18 12 -24.5 24.5t-6.5 36.5q0 50 66 170q-92 0 -232 -4l15 76q99 7 132 15t48 24q20 22 39 129l203 1052q-229 0 -287.5 -5 t-89.5 -23q-42 -26 -94 -191h-72z" />
<glyph unicode="&#x21a;h" horiz-adv-x="2273" d="M209 1075q13 110 33 213q9 50 33 73t90 23h1118q37 30 53 42.5t38.5 24t41.5 11.5q31 0 43 -13t12 -54q0 -22 -16 -121q-48 -263 -111 -500q73 83 171.5 131.5t199.5 48.5q86 0 138 -39t52 -122q0 -78 -24 -177l-68 -286q-28 -122 -28 -174q0 -37 17 -54.5t60 -17.5 q79 0 142 18l-15 -67q-111 -53 -209 -53q-112 0 -112 106q0 67 26 176l80 350q15 69 15 117q0 65 -33 90t-96 25q-150 0 -326 -152l-158 -694h-102l223 1032q25 109 25 172q0 56 -35 70q-55 20 -617 20l-202 -1050q-15 -76 -15 -111q0 -37 41 -45q29 -7 144 -14l-15 -76 q-152 4 -245 4q-99 0 -263 -4l15 76q99 7 132 15t48 24q20 22 39 129l203 1052q-229 0 -287.5 -5t-89.5 -23q-42 -26 -94 -191h-72zM340 -465q73 27 125.5 63.5t52.5 79.5q0 41 -24 60q-41 30 -41 72t26 70t76 28q49 0 78 -33.5t29 -89.5q0 -211 -297 -311z" />
<glyph unicode=" "  horiz-adv-x="448" />
<glyph unicode="&#x09;" horiz-adv-x="448" />
<glyph unicode="&#xa0;" horiz-adv-x="448" />
<glyph unicode="!" horiz-adv-x="577" d="M156 80q0 45 28.5 77.5t75.5 32.5q45 0 73.5 -27.5t28.5 -72.5t-30 -79t-78 -34q-42 0 -70 29t-28 74zM285 430q105 755 129 895q9 54 31 78t65 24q35 0 53.5 -18t18.5 -49q0 -13 -4 -37q-3 -21 -14 -66.5t-33 -130t-44.5 -171t-62.5 -239.5t-74 -286h-65z" />
<glyph unicode="&#x22;" horiz-adv-x="604" d="M188 893q37 403 52 483q8 46 30.5 64t59.5 18q32 0 48.5 -18t16.5 -45q0 -28 -16 -84q-20 -78 -121 -418h-70zM481 893q38 413 51 483q8 46 31 64t60 18q32 0 48.5 -18t16.5 -45q0 -22 -16 -88q-8 -32 -121 -414h-70z" />
<glyph unicode="#" horiz-adv-x="1132" d="M121 440l26 129h213l76 254h-215l27 133h219l119 414h84l-121 -414h272l121 414h78l-117 -414h199l-27 -133h-211l-76 -254h205l-26 -129h-217l-132 -467h-79l131 467h-269l-139 -467h-74l131 467h-198zM436 569h275l71 254h-272z" />
<glyph unicode="$" horiz-adv-x="1048" d="M76 176q0 51 14 189h78q5 -140 57 -205q44 -54 183 -66l108 549l-94 57q-172 105 -172 279q0 86 31 154t86.5 112.5t127.5 70t158 32.5l43 217h90l-43 -213q148 -4 242 -41q47 -20 47 -74q0 -77 -39 -213h-73q-1 93 -9 130.5t-28 55.5q-33 36 -158 43l-102 -526l125 -72 q165 -96 165 -274q0 -116 -58 -200.5t-153.5 -127.5t-220.5 -51l-45 -238h-92l45 236q-62 3 -113.5 12t-98.5 28.5t-74 54t-27 81.5zM369 1001q0 -65 39 -117t133 -110l94 479q-55 -4 -101 -19.5t-84 -44.5t-59.5 -77t-21.5 -111zM500 92q58 3 107.5 19t91 45.5t65.5 78.5 t24 113q0 148 -149 223l-41 25z" />
<glyph unicode="%" horiz-adv-x="1654" d="M121 782q0 113 33 242.5t102 216.5q102 127 254 127q127 0 188.5 -66t61.5 -200q0 -109 -28.5 -232t-86.5 -211q-104 -159 -276 -159q-125 0 -186.5 74t-61.5 208zM223 793q0 -211 160 -211q69 0 124 52t86.5 131.5t47.5 162.5t16 157q0 203 -153 203q-104 0 -172 -90 q-54 -74 -81.5 -192t-27.5 -213zM444 18l766 1366l70 -38l-766 -1364zM963 266q0 115 33.5 243.5t103.5 217.5q100 127 254 127q250 0 250 -268q0 -107 -29.5 -230t-87.5 -213q-105 -157 -277 -157q-125 0 -186 73.5t-61 206.5zM1067 279q0 -211 160 -211q69 0 123.5 52 t85.5 131.5t47 162.5t16 157q0 203 -153 203q-105 0 -172 -92q-54 -72 -80.5 -190t-26.5 -213z" />
<glyph unicode="&#x26;" horiz-adv-x="1497" d="M109 348q0 84 26 151t79.5 118t116.5 89t154 76q-33 62 -52 140.5t-19 138.5q0 159 101 256.5t271 97.5q131 0 213 -71.5t82 -184.5q0 -49 -15 -92.5t-37 -77.5t-60.5 -67t-72.5 -55.5t-86.5 -48.5t-89.5 -41.5t-93 -37.5q48 -101 145 -230.5t195 -232.5q50 48 98 118.5 t76 127.5q30 51 30 96q0 20 -9 30t-32 14q-39 8 -133 12l13 76q153 -5 233 -5q62 0 232 5l-15 -76q-94 -2 -131 -29q-11 -11 -86 -139q-40 -74 -102 -159.5t-109 -133.5q41 -53 134.5 -98t191.5 -45q23 0 35 2l-13 -86q-24 -4 -65 -4q-129 0 -212.5 39t-156.5 108 q-193 -156 -414 -156q-97 0 -178.5 32t-134 84.5t-81.5 119.5t-29 139zM233 377q0 -60 18.5 -113t55.5 -97t100 -69.5t144 -25.5q171 0 328 125q-94 101 -199.5 250.5t-155.5 250.5q-63 -23 -111.5 -50t-91 -65t-65.5 -90.5t-23 -115.5zM528 1081q0 -59 17.5 -132t46.5 -126 q379 132 379 332q0 76 -58 121t-145 45q-107 0 -173.5 -64t-66.5 -176z" />
<glyph unicode="'" horiz-adv-x="313" d="M188 893q37 403 52 483q8 46 30.5 64t59.5 18q32 0 48.5 -18t16.5 -45q0 -37 -20 -107q-8 -25 -45.5 -156t-71.5 -239h-70z" />
<glyph unicode="(" horiz-adv-x="618" d="M92 375q0 737 684 1210l43 -57q-126 -94 -232 -212.5t-191 -263t-133 -319.5t-48 -360q0 -200 65.5 -386t168.5 -333l-52 -41q-141 129 -223 326.5t-82 435.5z" />
<glyph unicode=")" horiz-adv-x="618" d="M-188 -330q126 94 232 212.5t191 263t133 319.5t48 360q0 200 -65.5 386t-168.5 333l54 41q140 -129 221.5 -326.5t81.5 -435.5q0 -736 -682 -1210z" />
<glyph unicode="*" horiz-adv-x="823" d="M233 1192q0 27 19 51.5t47 24.5q15 0 32.5 -7.5t40.5 -25t43.5 -34t55.5 -45.5t61 -50q-10 200 -10 207q0 39 2 53q6 32 22 44.5t44 12.5q67 0 67 -57q0 -65 -77 -266q10 4 45.5 19t55.5 22.5t49.5 18t52 15.5t38.5 5q33 0 48.5 -17.5t15.5 -44.5q0 -35 -16.5 -52.5 t-55.5 -18.5q-126 -3 -233 -3q94 -116 125.5 -165t31.5 -80q0 -27 -20 -43.5t-53 -16.5q-21 0 -38 16.5t-30 50.5t-21.5 64t-20.5 79t-19 75q-84 -139 -124 -184t-75 -45q-27 0 -44.5 19.5t-17.5 47.5q0 17 11 34t37 38t47.5 36.5t66.5 44.5t70 46q-28 9 -74.5 21.5t-77 22 t-63.5 23.5q-31 12 -44.5 26.5t-13.5 37.5z" />
<glyph unicode="+" horiz-adv-x="1179" d="M127 578l29 110h419l103 447h115l-105 -447h420l-29 -110h-417l-105 -449h-111l101 449h-420z" />
<glyph unicode="," horiz-adv-x="432" d="M-109 -279q104 42 175 105t71 139q0 17 -7 28t-28 21q-63 28 -63 88q0 39 29 65t73 26q55 0 90 -36.5t35 -103.5q0 -134 -103.5 -237.5t-252.5 -151.5z" />
<glyph unicode="-" horiz-adv-x="534" d="M55 440l25 117h409l-24 -117h-410z" />
<glyph unicode="." horiz-adv-x="428" d="M35 80q0 45 29 77.5t77 32.5q44 0 72.5 -27.5t28.5 -72.5t-30.5 -79t-78.5 -34q-41 0 -69.5 29t-28.5 74z" />
<glyph unicode="/" horiz-adv-x="663" d="M-49 -131l713 1632l88 -39l-713 -1632z" />
<glyph unicode="0" horiz-adv-x="1067" d="M96 410q0 192 53.5 407.5t165.5 362.5q144 192 373 192q354 0 354 -420q0 -109 -18.5 -237t-67.5 -278.5t-120 -254.5q-142 -211 -381 -211q-188 0 -273.5 117t-85.5 322zM219 430q0 -55 4.5 -100.5t20.5 -95.5t42.5 -84.5t73.5 -57t111 -22.5q80 0 148.5 45.5t116 121.5 t84.5 168t58 191.5t31.5 185.5t10.5 156q0 56 -5 99.5t-21 90t-43 77t-74 50t-111 19.5q-154 0 -263 -152q-90 -124 -137 -316.5t-47 -375.5z" />
<glyph unicode="1" horiz-adv-x="1067" d="M193 -2l14 76q150 3 192 28q16 12 24 34.5t17 66.5l123 631q53 288 53 329q0 24 -7.5 34.5t-28.5 10.5q-58 0 -179 -41l-22 60q66 37 287 131q43 16 71 16q39 0 39 -41q0 -11 -4 -39q-67 -322 -96 -471l-121 -618q-8 -47 -8 -76q0 -22 13 -32t38 -13q56 -7 164 -10 l-14 -76q-164 4 -308 4q-71 0 -247 -4z" />
<glyph unicode="2" horiz-adv-x="1067" d="M-31 0l13 76q333 242 448 337q245 200 336 364q72 128 72 263q0 47 -13 87.5t-40.5 74.5t-76 53t-112.5 19q-95 0 -144.5 -20t-82.5 -56q-40 -49 -70 -158h-63q0 113 6 150q7 47 30.5 74.5t75.5 52.5q108 55 279 55q163 0 253.5 -82.5t90.5 -222.5q0 -85 -27.5 -170.5 t-69.5 -157t-110.5 -149t-130 -134.5t-150.5 -126t-150 -111.5t-149 -101.5q49 0 190 1t171 1q109 0 162.5 7t78.5 28q36 29 86 129h68q-5 -19 -13.5 -54.5t-13.5 -55.5t-14 -48t-18 -53q-25 -72 -133 -72h-779z" />
<glyph unicode="3" horiz-adv-x="1067" d="M72 113q0 74 28 184h72q2 -101 33 -156q46 -73 211 -73q78 0 146.5 19.5t123 58.5t86 103t31.5 146q0 102 -76.5 174.5t-232.5 83.5q-71 6 -148 6l16 84q120 5 144 9q66 11 124 34t108 60t79 93.5t29 125.5q0 39 -10.5 73.5t-34 67t-70 51.5t-110.5 19q-142 0 -211 -62 q-39 -36 -72 -159h-66q0 74 7 139q6 47 27 73.5t75 53.5q100 51 258 51q86 0 151.5 -23t103.5 -63.5t56.5 -91t18.5 -109.5q0 -300 -375 -376q156 -9 244 -90.5t88 -206.5q0 -139 -67.5 -240t-181 -151t-257.5 -50q-179 0 -273 41q-75 31 -75 101z" />
<glyph unicode="4" horiz-adv-x="1067" d="M66 367l12 65l764 891q24 27 43 39t45 12q53 0 53 -53q0 -22 -16 -107q-20 -97 -146 -739h205l-20 -106h-205l-27 -138q-14 -66 -14 -96q0 -24 10.5 -35.5t36.5 -17.5q34 -7 141 -14l-14 -70q-164 4 -281 4q-51 0 -227 -4l16 70q147 8 174 38q18 22 41 127l29 134h-620z M233 469h472q94 471 153 731z" />
<glyph unicode="5" horiz-adv-x="1067" d="M53 113q0 66 31 184h72q3 -113 28 -154q21 -32 74.5 -53.5t138.5 -21.5q181 0 299.5 100t118.5 278q0 55 -18 105.5t-54 93.5t-96 68.5t-137 25.5q-65 0 -133 -22q-66 -17 -82 -17q-47 0 -47 45q0 27 16 89l133 505h637l-20 -118h-555l-105 -408q89 27 207 27 q163 0 271 -98t108 -259q0 -229 -144.5 -370.5t-396.5 -141.5q-81 0 -155.5 12.5t-114.5 28.5q-76 36 -76 101z" />
<glyph unicode="6" horiz-adv-x="1067" d="M131 399q0 209 72 435t205 368q161 170 428 170q247 0 247 -106q0 -32 -10.5 -91t-25.5 -102h-64q-5 124 -33 160q-31 39 -145 39q-92 0 -168 -30t-130 -81t-97 -128.5t-72 -162t-53 -192.5q56 74 157 121t209 47q153 0 247.5 -90.5t94.5 -241.5q0 -83 -20 -161.5 t-61 -148t-99 -121.5t-138 -82t-173 -30q-168 0 -269.5 111t-101.5 317zM250 387q0 -136 67.5 -226.5t196.5 -90.5q84 0 152 33t111 90t66 130.5t23 157.5q0 120 -69 191t-193 71q-195 0 -330 -174q-24 -90 -24 -182z" />
<glyph unicode="7" horiz-adv-x="1067" d="M180 1032q6 125 19 207q7 47 35.5 73.5t99.5 26.5h768l-12 -67l-736 -1280q-23 -39 -57 -39q-59 0 -59 43q0 15 12 39l690 1186h-344q-206 0 -240 -7q-36 -7 -55.5 -44.5t-48.5 -137.5h-72z" />
<glyph unicode="8" horiz-adv-x="1067" d="M90 313q0 146 95.5 240.5t273.5 161.5q-94 67 -134 150t-40 163q0 160 113.5 251t291.5 91q157 0 253.5 -75.5t96.5 -211.5q0 -72 -24.5 -131.5t-72 -106t-103 -81.5t-133.5 -70q235 -140 235 -340q0 -92 -36.5 -165t-99 -119.5t-143.5 -70.5t-174 -24q-180 0 -289.5 92 t-109.5 246zM213 328q0 -117 75.5 -186.5t207.5 -69.5q65 0 119.5 13.5t101 43t72.5 81.5t26 122q0 195 -287 334q-66 -30 -108.5 -52.5t-85.5 -53t-67 -62.5t-39 -75t-15 -95zM408 1044q0 -91 51 -163.5t170 -139.5q45 21 81 41t77 50.5t68.5 62.5t46 74.5t18.5 89.5 q0 94 -61.5 153.5t-178.5 59.5q-118 0 -195 -57.5t-77 -170.5z" />
<glyph unicode="9" horiz-adv-x="1067" d="M68 86q0 36 7 91t19 97h66q3 -49 9 -80t14 -47t20 -28q40 -45 155 -45q67 0 124.5 15.5t102.5 42.5t83.5 69t67.5 90t54.5 110.5t44 125t35.5 139.5q-57 -73 -153.5 -118.5t-204.5 -45.5q-156 0 -255 92.5t-99 245.5q0 105 31 199.5t90 169.5t154 119t214 44 q170 0 270.5 -107t100.5 -317q0 -217 -60 -434.5t-188 -361.5q-163 -181 -428 -181q-47 0 -107 9t-94 22q-38 14 -55.5 33.5t-17.5 50.5zM285 877q0 -128 68.5 -199.5t193.5 -71.5q202 0 334 170q22 83 22 180q0 52 -10 98.5t-31.5 87.5t-52.5 70.5t-75.5 46.5t-98.5 17 q-84 0 -151 -31.5t-110 -86t-66 -126.5t-23 -155z" />
<glyph unicode=":" horiz-adv-x="468" d="M78 80q0 45 29 77.5t77 32.5q44 0 72.5 -27.5t28.5 -72.5t-30.5 -79t-78.5 -34q-41 0 -69.5 29t-28.5 74zM207 758q0 45 29.5 78.5t76.5 33.5q44 0 72.5 -27.5t28.5 -72.5t-30.5 -79t-78.5 -34q-41 0 -69.5 28t-28.5 73z" />
<glyph unicode=";" horiz-adv-x="468" d="M-63 -285q104 42 176.5 107.5t72.5 142.5q0 33 -39 49q-29 15 -46 34.5t-17 53.5q0 39 29 65t73 26q55 0 90 -36.5t35 -103.5q0 -134 -103.5 -237.5t-252.5 -151.5zM207 758q0 45 29.5 78.5t76.5 33.5q44 0 72.5 -27.5t28.5 -72.5t-30.5 -79t-78.5 -34q-41 0 -69.5 28 t-28.5 73z" />
<glyph unicode="&#x3c;" horiz-adv-x="1177" d="M197 561l32 127l883 418l-31 -145l-755 -347l596 -340l-33 -124z" />
<glyph unicode="=" horiz-adv-x="1177" d="M117 403l26 113h908l-23 -113h-911zM199 754l22 112h909l-24 -112h-907z" />
<glyph unicode="&#x3e;" horiz-adv-x="1177" d="M143 150l33 143l754 346l-592 340l29 127l686 -412l-25 -125z" />
<glyph unicode="?" horiz-adv-x="825" d="M223 80q0 45 28.5 77.5t76.5 32.5q45 0 73.5 -27.5t28.5 -72.5t-30 -79t-78 -34q-42 0 -70.5 29t-28.5 74zM244 1137q0 98 8 145q11 77 121 113q98 28 209 28q145 -1 225 -72t80 -192q0 -68 -18 -126t-47.5 -102t-77.5 -86t-97.5 -73t-118.5 -67q-68 -38 -92 -117 q-24 -92 -39 -166h-78q7 112 19 203q8 51 41.5 83.5t95.5 67.5q62 34 106 65t85.5 74.5t62.5 98.5t21 121q0 34 -10 66t-30.5 61.5t-58.5 47.5t-88 19q-131 0 -180 -35q-42 -31 -66 -157h-73z" />
<glyph unicode="@" horiz-adv-x="1585" d="M68 391q0 135 40 266t116.5 243t180 198t239 135t284.5 49q138 0 246.5 -36.5t173 -91.5t107 -127.5t58 -137t15.5 -127.5q0 -184 -65.5 -318.5t-196.5 -242.5q-47 -40 -118 -71.5t-112 -31.5q-61 0 -85.5 28t-24.5 87q0 21 2 39q-152 -158 -312 -158q-231 0 -231 266 q0 131 64.5 265.5t173.5 220.5q74 60 137.5 84t159.5 24q97 0 180 -49l28 70h89l-121 -420q-57 -196 -60 -299q0 -49 45 -49q23 0 65 21.5t79 52.5q89 74 142.5 195.5t53.5 273.5q0 198 -137.5 321t-359.5 123q-156 0 -295.5 -65.5t-237 -175t-154.5 -257.5t-57 -309 q0 -172 83 -302.5t222.5 -198.5t313.5 -68q179 0 343.5 61.5t293.5 173.5l55 -67q-149 -134 -328.5 -201.5t-369.5 -67.5q-323 0 -524 183t-201 491zM500 358q0 -163 145 -163q65 0 148 44.5t143 100.5q10 47 49 184l86 295q-89 47 -190 47q-57 0 -100.5 -18.5t-92.5 -61.5 q-86 -74 -137 -189.5t-51 -238.5z" />
<glyph unicode="A" horiz-adv-x="1411" d="M-76 -2l19 78q101 5 137 30q20 13 39.5 40t70.5 114l641 1104q34 57 82 57q26 0 41 -12t21 -45l176 -1126q15 -108 43 -136q19 -22 141 -26l-16 -78q-126 4 -264 4q-104 0 -236 -4l17 78q87 0 133 12q37 9 51 26t14 50q0 36 -8 98l-39 254h-538l-142 -246 q-59 -98 -59 -137q0 -23 14 -35q23 -16 178 -22l-18 -78q-114 4 -268 4q-108 0 -230 -4zM498 606h477q-52 340 -101 670q-119 -224 -376 -670z" />
<glyph unicode="B" horiz-adv-x="1249" d="M2 -2l16 76q131 9 154 20q25 11 35 29.5t24 89.5l181 942q14 71 14 100q0 32 -41 41q-56 13 -139 17l14 71h334q215 0 328 -18q124 -20 189 -86.5t65 -163.5q0 -306 -330 -383q148 -17 222.5 -92.5t74.5 -200.5q0 -143 -77 -244t-209.5 -149.5t-307.5 -48.5q-39 0 -140 2 t-157 2q-94 0 -250 -4zM338 137q0 -22 10.5 -32.5t36.5 -16.5q33 -8 172 -8q67 0 129 11t119.5 36.5t100 63.5t68 96t25.5 129q0 75 -28.5 131t-73.5 82q-50 29 -125.5 40t-214.5 11h-117l-94 -477q-8 -46 -8 -66zM457 770h112q58 0 132 6t96 12q111 32 177 104.5t66 188.5 q0 153 -135 193q-94 24 -233 24h-115z" />
<glyph unicode="C" horiz-adv-x="1345" d="M135 543q0 340 211 600q113 135 272.5 203.5t352.5 68.5q183 0 297 -43q42 -14 58.5 -41.5t16.5 -73.5q0 -50 -28 -198h-72q0 135 -41 188q-51 68 -260 68q-151 0 -282 -59t-224 -175q-84 -103 -128 -240.5t-44 -279.5q0 -242 130.5 -365.5t353.5 -123.5q97 0 173 22 t119 53q57 40 121 170h74q-7 -41 -26 -99.5t-35 -88.5q-45 -88 -138 -115q-146 -43 -313 -43q-268 0 -428 152.5t-160 419.5z" />
<glyph unicode="D" horiz-adv-x="1474" d="M2 -2l16 76q90 4 126.5 11.5t52.5 23.5q11 10 17 30.5t19 89.5l179 926q14 75 14 100q0 20 -12.5 29t-36.5 14q-32 8 -131 15l14 71h318q207 0 338.5 -15.5t199.5 -41.5t129 -72q79 -61 124.5 -167.5t45.5 -227.5q0 -489 -330 -723q-102 -73 -243.5 -106t-358.5 -33h-481 zM340 160q0 -50 49 -58q53 -10 195 -10q168 0 302 55.5t220.5 154t132 231.5t45.5 290q0 134 -47.5 239t-130.5 152q-139 80 -406 80h-145l-209 -1093q-6 -30 -6 -41z" />
<glyph unicode="E" horiz-adv-x="1196" d="M2 0l16 76q150 5 177 30l6 6t5.5 8t4.5 9.5t4 12.5l3.5 14t4 17.5t4 19l4.5 22.5l5 25l176 915q14 75 14 98q0 37 -45 45q-47 10 -135 13l14 73h803q104 0 104 -69q0 -106 -32 -240h-70q0 78 -2 111q-5 58 -37 76q-26 18 -76 25t-188 7h-205l-100 -526h178q93 0 129.5 7 t60.5 28q33 36 60 131h73q-16 -60 -28.5 -124t-29 -158.5t-23.5 -131.5h-70q4 20 4 51q0 92 -57 103q-31 6 -140 6h-174l-96 -492q-4 -32 -4 -38q0 -47 41 -52q55 -6 215 -6q150 0 219.5 15t102.5 45q52 44 120 186h70q-30 -186 -84 -285q-29 -53 -162 -53h-860z" />
<glyph unicode="F" horiz-adv-x="1153" d="M2 -2l16 76q95 6 130.5 12.5t48.5 19.5q11 11 18.5 36.5t20.5 97.5l176 915q14 75 14 96q0 20 -10 30.5t-35 14.5q-53 12 -135 15l14 73h821q65 0 87 -21t22 -63q0 -65 -33 -227h-72q0 159 -41 187q-26 20 -76.5 27t-189.5 7h-221l-104 -544h202q92 0 128 7.5t59 28.5 q36 33 63 129h74q-41 -164 -82 -417h-70q2 23 2 51q-2 40 -10.5 63.5t-32.5 34.5q-31 12 -153 12h-197l-82 -421q-14 -75 -14 -101q0 -22 11 -33t36 -16q38 -6 166 -14l-14 -76q-172 4 -287 4q-74 0 -250 -4z" />
<glyph unicode="G" horiz-adv-x="1445" d="M135 553q0 200 74 379t211 299q213 184 522 184q208 0 328 -43q88 -28 88 -106q0 -51 -33 -211h-74q0 145 -34 188q-68 72 -308 72q-143 0 -266 -60t-205.5 -161t-129 -233t-46.5 -275q0 -136 38 -236.5t107.5 -160.5t160.5 -88.5t204 -28.5q98 0 211 24q54 13 80 35 q26 20 39 94l35 187q10 45 10 75q0 34 -45 45q-28 6 -139 13l16 76q143 -5 231 -5q138 0 226 5l-17 -76q-62 -2 -90 -7.5t-41 -21.5q-16 -22 -33 -110l-51 -267q-16 -86 -84 -108q-183 -60 -391 -60q-181 0 -312.5 62.5t-206.5 195t-75 324.5z" />
<glyph unicode="H" horiz-adv-x="1529" d="M2 -2l16 76q152 11 179 35q11 9 18.5 33.5t20.5 95.5l176 917q14 82 14 98q0 21 -12 30.5t-37 14.5q-56 10 -131 15l14 73q164 -4 240 -4q88 0 272 4l-16 -73q-98 -9 -137.5 -17t-51.5 -20q-18 -21 -37 -119l-73 -387h721l75 385q3 18 7.5 40.5t7 36t2.5 21.5 q0 20 -12.5 30t-38.5 15q-71 12 -132 15l17 73q164 -4 237 -4q93 0 273 4l-15 -73q-100 -7 -139.5 -15t-50.5 -22q-18 -21 -37 -119l-176 -921q-16 -82 -16 -103q0 -22 12.5 -31t40.5 -14q45 -7 139 -14l-16 -76q-172 4 -271 4q-61 0 -241 -4l18 76q152 11 176 35 q11 9 18.5 33.5t20.5 95.5l84 442h-721l-86 -444q-16 -79 -16 -103q0 -22 12.5 -31t38.5 -14q53 -8 141 -14l-18 -76q-172 4 -268 4q-66 0 -242 -4z" />
<glyph unicode="I" horiz-adv-x="692" d="M2 -2l16 76q152 11 179 35q11 9 18.5 33.5t20.5 95.5l176 917q14 82 14 98q0 21 -12 30.5t-37 14.5q-56 10 -131 15l14 73q164 -4 242 -4q88 0 272 4l-16 -73q-98 -9 -137.5 -17t-51.5 -20q-18 -21 -37 -119l-176 -921q-16 -79 -16 -103q0 -22 12.5 -31t38.5 -14 q53 -8 141 -14l-18 -76q-172 4 -270 4q-66 0 -242 -4z" />
<glyph unicode="J" horiz-adv-x="628" d="M-164 -236q117 45 195 108t121 157q55 120 90 307l155 819q15 77 15 100q0 37 -47 43q-77 11 -136 15l17 73q164 -4 241 -4q83 0 263 4l-17 -73q-98 -8 -132.5 -14.5t-47.5 -20.5q-20 -23 -39 -121l-152 -819q-27 -142 -50.5 -224.5t-59.5 -146.5q-49 -87 -147 -161 t-240 -119z" />
<glyph unicode="K" horiz-adv-x="1327" d="M2 -2l16 76q88 6 124.5 13t52.5 19q11 9 19.5 35.5t21.5 96.5l176 919q14 75 14 98q0 32 -39 41q-50 12 -141 17l14 73q164 -4 240 -4q88 0 272 4l-16 -73q-99 -7 -137.5 -15.5t-51.5 -23.5q-17 -17 -35 -111l-178 -927q-16 -82 -16 -101q0 -24 13.5 -33.5t39.5 -13.5 q52 -7 139 -14l-18 -76q-172 4 -268 4q-66 0 -242 -4zM485 711q228 186 514 456q45 44 62.5 67.5t17.5 41.5t-28.5 25t-114.5 12l16 73q88 -4 258 -4q123 0 215 4l-16 -73q-63 -4 -96 -19q-54 -19 -172 -129q-53 -49 -257 -226.5t-261 -225.5q86 -141 209.5 -315t185.5 -232 q7 -6 13.5 -12t11.5 -10t11.5 -8.5t10 -7.5t10.5 -6.5t9 -5t9.5 -5.5t9.5 -5t10.5 -5t10.5 -5q60 -25 119 -28l-14 -70q-24 -4 -80 -4q-127 0 -207 72t-226.5 284.5t-230.5 360.5z" />
<glyph unicode="L" horiz-adv-x="1191" d="M2 0l16 74q147 5 175 28q14 13 22 39t21 95l176 919q14 75 14 96q0 24 -13 34t-42 15q-46 10 -125 13l14 73q164 -4 242 -4q96 0 276 4l-18 -73q-166 -7 -193 -41q-16 -19 -35 -117l-184 -944q-8 -56 -8 -61q0 -46 43 -52q55 -6 201 -6q151 0 218 13t99 42q53 45 123 195 h68q-38 -189 -93 -289q-29 -53 -155 -53h-842z" />
<glyph unicode="M" horiz-adv-x="1783" d="M0 -2l16 76q137 6 162 28q20 15 33.5 51t32.5 123q126 587 196 930q6 30 6 51t-11.5 31t-37.5 15q-29 7 -133 10l19 73q88 -4 204 -4q109 0 138 2q176 -720 243 -1030q153 264 645 1032q90 -4 170 -4q42 0 164 4l-18 -77q-146 -7 -174 -35q-24 -30 -39 -113 q-2 -11 -5.5 -31t-13 -76.5t-24 -140t-45 -256t-68.5 -391.5q-16 -96 -16 -131q0 -43 65 -51q21 -3 123 -10l-14 -76q-180 4 -256 4q-16 0 -258 -4l14 76q91 4 127.5 13.5t50.5 25.5q14 14 33 100q3 13 87 482t97 532q-157 -258 -626 -989q-22 -33 -58 -33q-38 0 -47 35 q-60 247 -109.5 451t-68.5 284t-34.5 143t-28.5 113q-25 -132 -74.5 -378t-89.5 -441t-43 -213q-6 -30 -6 -58q0 -29 13 -40.5t46 -16.5q43 -6 129 -10l-18 -76q-168 4 -242 4q-44 0 -256 -4z" />
<glyph unicode="N" horiz-adv-x="1488" d="M2 -2l16 76q86 5 126 13.5t55 27.5q3 4 6 9t6 13.5t5 16t5.5 23.5t6 27.5t7.5 36t9 42.5q14 70 79 407t80 412q21 114 21 145q0 45 -57 53q-67 13 -134 13l17 73q86 -4 176 -4q73 0 147 4q470 -1006 551 -1200q155 837 166 908q19 127 19 155q0 37 -35 45q-76 17 -144 19 l17 73q106 -4 256 -4q9 0 235 4l-16 -73q-88 -4 -118.5 -11.5t-49.5 -23.5q-15 -12 -25.5 -46t-29.5 -130q-115 -581 -201 -1061q-9 -55 -68 -55q-40 0 -59 39q-372 817 -547 1192q-32 -166 -100.5 -545t-69.5 -385q-22 -113 -22 -150q0 -23 13.5 -33.5t41.5 -15.5 q52 -8 139 -14l-18 -76q-204 4 -268 4q-20 0 -238 -4z" />
<glyph unicode="O" horiz-adv-x="1415" d="M135 535q0 164 49.5 335t145.5 295q195 250 522 250q253 0 379.5 -137.5t126.5 -376.5q0 -453 -217 -713q-86 -103 -213.5 -160t-261.5 -57q-257 0 -394 144t-137 420zM260 541q0 -471 414 -471q118 0 214 50t158 131.5t104.5 190.5t60.5 222t18 231q0 206 -103.5 314 t-296.5 108q-128 0 -232.5 -57t-174.5 -156q-78 -113 -120 -262.5t-42 -300.5z" />
<glyph unicode="P" horiz-adv-x="1144" d="M2 -2l16 76q90 6 125 13t52 19q12 9 19.5 34.5t21.5 99.5l176 917q14 79 14 94q0 23 -12 31.5t-39 13.5q-41 9 -129 15l14 73h334q221 0 348 -20q68 -12 118.5 -41t78.5 -69.5t41.5 -86t13.5 -96.5q0 -134 -47.5 -232t-134 -155t-197 -84t-248.5 -27q-106 0 -149 2 l-64 -337q-16 -79 -16 -103q0 -37 41 -45q45 -9 166 -16l-17 -76q-172 4 -284 4q-66 0 -242 -4zM436 659q31 -2 115 -2q54 0 100 3.5t100 14t96.5 27.5t84 47.5t68.5 71t44 100t17 132.5q0 95 -40.5 147.5t-117.5 77.5q-74 22 -225 22h-121z" />
<glyph unicode="Q" horiz-adv-x="1415" d="M135 535q0 164 49.5 335t145.5 295q195 250 522 250q253 0 379.5 -137.5t126.5 -376.5q0 -453 -217 -713q-126 -153 -336 -200q120 -129 258 -191q62 -30 154 -44.5t174 -14.5q49 0 65 2l-16 -74q-60 -8 -144 -8q-193 0 -303 49q-91 40 -165 96t-189 168 q-245 8 -374.5 151t-129.5 413zM260 541q0 -471 414 -471q118 0 214 50t158 131.5t104.5 190.5t60.5 222t18 231q0 206 -103.5 314t-296.5 108q-128 0 -232.5 -57t-174.5 -156q-78 -113 -120 -262.5t-42 -300.5z" />
<glyph unicode="R" horiz-adv-x="1312" d="M2 -2l16 76q152 10 179 35q11 9 18.5 33.5t20.5 95.5l178 927q12 73 12 86q0 21 -11 31t-38 16q-22 6 -131 15l14 71h332q242 0 338 -22q123 -29 183.5 -106t60.5 -181q0 -95 -30 -171t-86 -128t-127 -86t-161 -53q98 -227 149 -324t107 -151q51 -49 96 -68 q43 -15 103 -18l-15 -76q-14 -2 -75 -2q-122 0 -199 74q-72 66 -132 184t-157 362q-26 0 -221 5l-72 -387q-16 -91 -16 -103q0 -34 47 -45q18 -4 145 -14l-18 -76q-172 4 -270 4q-64 0 -240 -4zM442 705q77 -5 113 -5q483 0 483 363q0 73 -37.5 129.5t-99.5 79.5 q-76 26 -229 26h-115z" />
<glyph unicode="S" horiz-adv-x="1105" d="M59 170q0 87 19 190h74q4 -152 78 -221t257 -69q174 0 260.5 78.5t86.5 193.5q0 152 -181 252l-229 129q-91 53 -136.5 131t-45.5 164t31.5 157.5t93.5 126t162 85t229 30.5q136 0 227 -37q41 -18 59.5 -40.5t18.5 -57.5q0 -66 -29 -205h-71q0 75 -13 122t-31.5 66 t-48.5 29q-62 23 -172 23q-87 0 -154 -23.5t-105.5 -64.5t-57.5 -89.5t-19 -103.5q0 -65 42 -123t157 -122l209 -119q191 -111 191 -287q0 -205 -137 -309.5t-369 -104.5q-69 0 -135.5 11t-126.5 33.5t-97 62.5t-37 92z" />
<glyph unicode="T" horiz-adv-x="1300" d="M209 1075q13 110 33 213q9 50 33 73t90 23h901q67 0 90.5 -19t23.5 -65q0 -40 -43 -225h-69q0 168 -29 191q-22 19 -78 23.5t-291 4.5l-202 -1050q-15 -76 -15 -111q0 -37 41 -45q29 -7 144 -14l-15 -76q-152 4 -245 4q-99 0 -263 -4l15 76q99 7 132 15t48 24 q20 22 39 129l203 1052q-229 0 -287.5 -5t-89.5 -23q-42 -26 -94 -191h-72z" />
<glyph unicode="U" horiz-adv-x="1525" d="M221 1313l17 73q160 -4 270 -4q71 0 235 4l-14 -73q-100 -7 -130 -14t-46 -23q-18 -21 -39 -111q-71 -320 -113 -534q-34 -162 -34 -281q0 -276 338 -276q114 0 212.5 38t149.5 101q51 64 84.5 165t69.5 277q18 79 92 500q10 56 10 90q0 19 -5 29t-12.5 13.5t-25.5 8.5 q-24 5 -139 17l14 73q148 -4 244 -4q98 0 246 4l-17 -73q-94 -3 -131 -13.5t-47 -29.5q-18 -36 -37 -133l-100 -519q-40 -203 -81 -312.5t-110 -178.5q-156 -156 -456 -156q-84 0 -156.5 18t-135 56t-98.5 106.5t-36 161.5q0 110 41 312q66 340 110 534q15 67 15 88 q0 20 -7.5 31t-29.5 18q-37 14 -148 17z" />
<glyph unicode="V" horiz-adv-x="1415" d="M170 1313l14 73q126 -4 262 -4q104 0 240 4l-16 -73q-21 -1 -135 -13q-32 -5 -47 -17t-15 -36q0 -39 12 -117q51 -325 99 -615.5t65 -403.5q144 276 551 1011q55 95 55 146q0 17 -11 24.5t-34 10.5q-29 5 -143 10l14 73q118 -4 269 -4q111 0 229 4l-14 -73 q-99 -5 -142 -29q-20 -13 -39.5 -42t-64.5 -109l-627 -1121q-29 -49 -80 -49q-25 0 -39 11t-20 40l-195 1143q-11 67 -21 95t-28 38q-30 19 -139 23z" />
<glyph unicode="W" horiz-adv-x="1943" d="M170 1313l14 73q51 -1 103.5 -2t82.5 -1.5t54 -0.5q149 0 231 4l-16 -73q-106 -2 -152 -23q-41 -20 -41 -90q0 -14 1.5 -52.5t1.5 -41.5q27 -762 32 -971q117 254 586 1196q30 62 74 62q56 0 61 -58q94 -1017 105 -1202q91 225 419 993q39 103 39 131q0 35 -47 43 q-73 11 -147 13l14 73q100 -4 264 -4q61 0 217 4l-14 -73q-51 -3 -77.5 -9.5t-49.5 -25.5q-14 -12 -29 -36t-21.5 -38.5t-25.5 -56.5l-493 -1122q-29 -62 -84 -62q-26 0 -41.5 13.5t-18.5 48.5q-87 967 -102 1196q-119 -256 -588 -1196q-30 -62 -84 -62q-57 0 -59 62 l-49 1118q-4 63 -11.5 98t-27.5 47q-30 18 -121 25z" />
<glyph unicode="X" horiz-adv-x="1392" d="M-57 -2l16 76q107 0 150 28q31 20 52.5 40.5t55.5 60.5l455 510l-254 487q-18 32 -26.5 46.5t-20 28t-23.5 19.5q-26 15 -129 19l21 73q246 -4 274 -4q104 0 244 4l-19 -73q-97 -9 -129 -15q-59 -9 -59 -49q0 -26 22 -69l195 -383l307 350q66 75 66 110q0 17 -10 26.5 t-44 16.5q-42 10 -122 13l20 73q118 -4 277 -4q75 0 227 4l-21 -73q-88 -2 -131 -29q-12 -8 -26.5 -22t-42.5 -44.5t-41 -43.5l-420 -447l270 -528q23 -41 35.5 -59.5t34.5 -37.5q25 -25 147 -28l-14 -76q-270 4 -274 4q-30 0 -59 -0.5t-77.5 -1.5t-99.5 -2l14 76 q74 3 125 14q47 13 47 47q0 24 -20 66l-221 436l-348 -406q-68 -78 -68 -112q0 -16 13.5 -26t43.5 -14t48.5 -4.5t57.5 -0.5h19l-16 -76q-222 4 -287 4q-24 0 -53 -0.5t-80.5 -1.5t-101.5 -2z" />
<glyph unicode="Y" horiz-adv-x="1228" d="M162 1313l16 73q230 -4 234 -4q17 0 235 4l-18 -73q-112 0 -146 -10q-39 -8 -39 -50q0 -29 27 -102q98 -255 184 -487q220 289 383 497q62 77 62 115q0 13 -12 21.5t-38 11.5t-42.5 3.5t-50.5 0.5h-5h-5h-5l16 73q94 -4 244 -4q99 0 189 4l-19 -73q-55 -3 -96 -29 q-27 -16 -98 -104l-484 -602l-71 -367q-13 -70 -13 -90q0 -29 31 -35q42 -6 154 -12l-15 -76q-218 4 -248 4q-65 0 -249 -4l14 76q99 4 128 11t44 24q20 24 35 102l69 364l-229 570q-11 26 -22 56.5t-16 43t-12 24t-15 17.5q-37 24 -117 27z" />
<glyph unicode="Z" horiz-adv-x="1210" d="M2 0l6 47l1082 1245q-384 0 -493.5 -3t-141.5 -11q-33 -9 -58 -54.5t-53 -146.5h-72q10 130 23 219q8 44 42.5 66t108.5 22h842l-8 -47l-1081 -1239q82 -4 327 -4q204 0 290.5 9.5t119.5 29.5q20 12 39.5 34t38.5 56t29.5 55t29.5 60h70q-29 -159 -76 -272 q-27 -66 -131 -66h-934z" />
<glyph unicode="[" horiz-adv-x="591" d="M29 -350l368 1898h367l-16 -86h-248l-334 -1724h248l-17 -88h-368z" />
<glyph unicode="\" horiz-adv-x="735" d="M246 1475l96 16l240 -1634l-99 -15z" />
<glyph unicode="]" horiz-adv-x="591" d="M-131 -350l16 88h248l334 1724h-250l19 86h368l-368 -1898h-367z" />
<glyph unicode="^" horiz-adv-x="1069" d="M209 770l479 686h119l158 -686h-111l-133 557l-381 -557h-131z" />
<glyph unicode="_" horiz-adv-x="1005" d="M-113 -276l23 112h1012l-21 -112h-1014z" />
<glyph unicode="`" horiz-adv-x="604" d="M123 1423q0 29 24 48.5t52 19.5q23 0 42 -16.5t50 -63.5l190 -293l-51 -39l-240 244q-38 38 -52.5 57.5t-14.5 42.5z" />
<glyph unicode="a" horiz-adv-x="1128" d="M98 281q0 133 67 289t175 249q154 129 360 129q111 0 201 -55l33 76h90l-123 -477q-57 -225 -57 -336q0 -34 20 -53t70 -19t129 18l-16 -67q-100 -53 -201 -53q-63 0 -89 33t-26 100q0 5 1 21.5t1 21.5q-160 -183 -356 -183q-141 0 -210 79.5t-69 226.5zM215 285 q0 -109 42.5 -160t139.5 -51q160 0 340 176q21 125 47 217l88 336q-83 53 -204 53q-136 0 -256 -104q-83 -70 -140 -202t-57 -265z" />
<glyph unicode="b" horiz-adv-x="1103" d="M123 41q15 58 57 264l160 754q39 195 39 258q0 44 -18 60t-66 16q-21 0 -84 -11l12 66q98 49 193 49q96 0 96 -90q0 -48 -14 -113q-89 -415 -109 -487q168 149 346 149q144 0 211.5 -81t67.5 -222q0 -305 -156 -495q-151 -187 -416 -187q-184 0 -319 70zM246 109 q71 -41 225 -41q185 0 307 157q59 76 89 182t30 211q0 109 -49 169.5t-166 60.5q-66 0 -152 -36.5t-157 -92.5z" />
<glyph unicode="c" horiz-adv-x="942" d="M100 336q0 149 53.5 283.5t161.5 222.5q137 114 332 114q96 0 152 -22q75 -31 75 -105q0 -28 -8.5 -77t-19.5 -80h-68q0 116 -33 149q-43 43 -131 43q-140 0 -241 -96q-70 -67 -114 -178.5t-44 -222.5q0 -291 256 -291q147 0 320 127l49 -66q-192 -166 -410 -166 q-155 0 -242.5 98t-87.5 267z" />
<glyph unicode="d" horiz-adv-x="1161" d="M98 301q0 144 61.5 290t168.5 236q148 127 381 127q107 0 194 -47l31 133q47 223 47 275q0 44 -19 61t-65 17q-21 0 -84 -11l12 66q98 49 193 49q45 0 70.5 -19.5t25.5 -70.5q0 -43 -63 -320l-150 -667q-37 -164 -37 -264q0 -72 86 -72q48 0 131 18l-16 -67 q-48 -26 -104 -39.5t-99 -13.5q-114 0 -114 116q0 27 2 62q-77 -89 -168.5 -137t-186.5 -48q-154 0 -225.5 87t-71.5 239zM215 322q0 -123 50 -185.5t161 -62.5q86 0 173.5 53t156.5 125q8 43 27.5 128t23.5 103l74 322q-93 59 -213 59q-165 0 -273 -108 q-75 -75 -127.5 -198t-52.5 -236z" />
<glyph unicode="e" horiz-adv-x="897" d="M100 319q0 278 146 458.5t364 180.5q65 0 115 -18.5t78.5 -49t42.5 -65.5t14 -73q0 -161 -164.5 -242.5t-478.5 -81.5q-4 -27 -4 -88q0 -113 61.5 -188.5t184.5 -75.5q91 0 164.5 28.5t175.5 98.5l47 -66q-100 -82 -197.5 -124t-232.5 -42q-60 0 -114.5 20.5t-100.5 60.5 t-73.5 109t-27.5 158zM229 504q259 9 386.5 71t127.5 162q0 131 -149 131q-123 0 -226 -97.5t-139 -266.5z" />
<glyph unicode="f" horiz-adv-x="661" d="M-309 -463q0 65 26 148h68q0 -92 21 -126t92 -34q49 0 91.5 27t67.5 73q48 81 86 293l160 905h-178l14 62q98 13 146 41q24 14 35.5 34.5t21.5 71.5q28 129 58.5 208t60 116t74.5 69q98 72 247 72q31 0 59 -4t56 -13t44.5 -26.5t16.5 -42.5q0 -74 -30 -192h-70q2 29 2 69 q-2 65 -35 94q-28 25 -94 25q-123 0 -182 -107q-48 -86 -96 -321l-13 -66q150 0 254 -4l-16 -80q-138 -6 -258 -6l-172 -921q-47 -247 -117 -340q-46 -59 -115.5 -92t-150.5 -33q-38 0 -76.5 8t-54.5 18q-43 24 -43 74z" />
<glyph unicode="g" horiz-adv-x="1044" d="M-14 -291q0 104 104 185q62 50 172 104q-86 38 -86 111q0 57 39.5 101t106.5 85q-144 78 -144 246q0 194 137 319q107 98 275 98q122 0 190 -45q232 0 283 -4l-14 -82q-63 -4 -185 -4q18 -21 29.5 -65t11.5 -82q0 -173 -92 -281q-56 -68 -138.5 -102.5t-178.5 -34.5 q-65 0 -105 8q-100 -67 -100 -123q0 -32 22.5 -52.5t75.5 -35.5q39 -11 147 -33t171 -36q107 -26 155.5 -79t48.5 -138q0 -154 -130.5 -244t-348.5 -90q-214 0 -330 76t-116 198zM100 -279q0 -85 89 -138.5t262 -53.5q160 0 252 61t92 154q0 67 -49 101t-173 61 q-191 40 -229 53q-91 -33 -167.5 -98.5t-76.5 -139.5zM285 553q0 -104 62.5 -154.5t162.5 -50.5q66 0 126 26t95 75q64 89 64 198q0 221 -211 221q-136 0 -217.5 -89t-81.5 -226z" />
<glyph unicode="h" horiz-adv-x="1112" d="M113 0l227 1059q39 201 39 258q0 44 -18 60t-66 16q-21 0 -84 -11l12 66q98 49 193 49q96 0 96 -90q0 -27 -14 -113q-60 -311 -115 -520q73 83 171.5 131.5t199.5 48.5q86 0 138 -39t52 -122q0 -78 -24 -177l-68 -286q-29 -126 -29 -174q0 -37 17.5 -54.5t60.5 -17.5 q78 0 141 18l-14 -67q-111 -53 -209 -53q-112 0 -112 106q0 67 26 176l80 350q14 65 14 117q0 65 -33 90t-96 25q-153 0 -325 -152l-158 -694h-102z" />
<glyph unicode="i" horiz-adv-x="593" d="M123 831l12 66q95 51 189 51q45 0 71.5 -19.5t26.5 -72.5q0 -30 -9 -79t-25 -122l-17 -73l-58 -258q-28 -138 -28 -168q0 -37 16.5 -54.5t60.5 -17.5q77 0 144 18l-14 -67q-114 -53 -209 -53q-48 0 -82.5 23.5t-34.5 84.5q0 48 27 174l59 258q41 174 41 246 q0 41 -17.5 56.5t-64.5 15.5q-43 0 -88 -9zM297 1327q0 56 32.5 89.5t78.5 33.5q41 0 65.5 -27t24.5 -73q0 -49 -32 -82t-77 -33q-42 0 -67 25t-25 67z" />
<glyph unicode="j" horiz-adv-x="548" d="M-205 -487q79 23 142.5 64t93.5 93q52 92 108 307q22 81 41.5 167t44 206.5t33.5 161.5q13 58 26 141.5t13 108.5q0 46 -17.5 62t-64.5 16q-36 0 -88 -9l12 66q95 51 189 51q45 0 71.5 -19.5t26.5 -72.5q0 -36 -25 -170q-34 -177 -155 -715q-53 -232 -123 -340 q-42 -65 -126 -120t-190 -74zM301 1327q0 56 33 89.5t78 33.5q41 0 65.5 -27t24.5 -73q0 -49 -31.5 -82t-75.5 -33q-43 0 -68.5 24.5t-25.5 67.5z" />
<glyph unicode="k" horiz-adv-x="1001" d="M113 0l227 1061q39 195 39 256q0 44 -18 60t-66 16q-21 0 -84 -11l12 66q98 49 193 49q96 0 96 -90q0 -52 -14 -113q-93 -434 -283 -1294h-102zM362 520q126 160 265 295q151 139 272 139q102 0 102 -80q0 -44 -24 -120h-62q-4 42 -17.5 56.5t-43.5 14.5 q-38 0 -85.5 -22.5t-82.5 -54.5q-134 -119 -213 -211q53 -106 121 -209t123 -166q72 -78 145 -78q58 0 119 14l-20 -71q-19 -12 -58 -22.5t-69 -10.5q-62 0 -105.5 17t-81.5 61q-63 71 -142.5 198.5t-142.5 249.5z" />
<glyph unicode="l" horiz-adv-x="561" d="M139 90q0 39 29 174l172 799q39 190 39 250q0 44 -16 62t-62 18q-27 0 -90 -11l12 66q95 49 191 49q45 0 71.5 -19.5t26.5 -72.5q0 -50 -63 -340l-162 -741q-29 -143 -29 -168q0 -37 17.5 -54.5t60.5 -17.5q78 0 145 18l-16 -67q-114 -53 -209 -53q-48 0 -82.5 23.5 t-34.5 84.5z" />
<glyph unicode="m" horiz-adv-x="1660" d="M119 831l14 66q92 51 172 51q96 0 96 -114q0 -26 -4 -66q72 87 169 136.5t202 49.5q83 0 131.5 -43t48.5 -135q70 83 166.5 130.5t200.5 47.5q82 0 130 -39t48 -122q0 -61 -25 -177l-67 -288q-27 -118 -27 -172q0 -37 17.5 -54.5t60.5 -17.5q78 0 141 18l-16 -67 q-111 -53 -207 -53q-115 0 -115 106q0 50 27 176l80 350q16 74 16 117q0 65 -30.5 90t-92.5 25q-146 0 -315 -152q-6 -34 -20 -90l-144 -604h-102l143 614q14 65 14 117q0 65 -29.5 90t-90.5 25q-144 0 -320 -152q-12 -84 -33 -178l-120 -516h-105l115 520q39 171 39 236 q0 45 -21 64.5t-67 19.5q-35 0 -80 -9z" />
<glyph unicode="n" horiz-adv-x="1132" d="M119 831l14 66q92 51 172 51q46 0 71 -26.5t25 -96.5q0 -37 -4 -57q71 85 172.5 135.5t206.5 50.5q85 0 137 -39t52 -122q0 -71 -23 -177l-70 -286q-28 -122 -28 -174q0 -36 18 -54t60 -18q80 0 143 18l-16 -67q-111 -53 -209 -53q-111 0 -111 106q0 62 25 176l80 350 q14 65 14 117q0 65 -33 90t-96 25q-152 0 -328 -152q-9 -70 -26 -147l-127 -547h-105l115 520q39 176 39 236q0 45 -20 64.5t-66 19.5q-37 0 -82 -9z" />
<glyph unicode="o" horiz-adv-x="1042" d="M100 356q0 111 34.5 227.5t101.5 204.5q63 82 157.5 126t208.5 44q176 0 264 -94t88 -258q0 -134 -37 -260.5t-116 -222.5q-60 -71 -150 -110.5t-180 -39.5q-178 0 -274.5 97t-96.5 286zM215 369q0 -297 270 -297q70 0 132 29.5t104 80.5q61 78 91 186t30 224 q0 270 -258 270q-173 0 -265 -129q-52 -70 -78 -167t-26 -197z" />
<glyph unicode="p" horiz-adv-x="1122" d="M14 -535l236 1067q35 162 35 224q0 45 -20 64.5t-66 19.5q-37 0 -82 -9l14 66q92 51 172 51q96 0 96 -114q0 -46 -4 -58q64 69 166.5 122.5t202.5 53.5q135 0 199.5 -78t64.5 -217q0 -131 -37 -261.5t-119 -231.5q-148 -187 -415 -187q-120 0 -219 29l-117 -541h-107z M262 113q70 -39 225 -39q185 0 306 159q55 69 85.5 176.5t30.5 208.5q0 230 -194 230q-78 0 -163.5 -42.5t-162.5 -109.5q-6 -68 -33 -184z" />
<glyph unicode="q" horiz-adv-x="1140" d="M96 301q0 145 61.5 293t166.5 237q148 127 378 127q63 0 149 -16.5t153 -56.5q-15 -52 -29 -110.5t-32 -140.5t-25 -112l-232 -1057h-106l149 674q-72 -79 -159.5 -121.5t-178.5 -42.5q-153 0 -224 87.5t-71 238.5zM213 322q0 -121 49.5 -180.5t161.5 -59.5 q87 0 173.5 47t152.5 113l124 583q-69 41 -217 41q-154 0 -266 -106q-75 -72 -126.5 -197.5t-51.5 -240.5z" />
<glyph unicode="r" horiz-adv-x="804" d="M109 831l14 66q92 51 172 51q96 0 96 -114q0 -46 -4 -66q50 71 128.5 128.5t164.5 57.5q111 0 111 -80q0 -52 -31 -143h-60q-6 50 -27 70t-63 20q-103 0 -225 -131q-2 -8 -7.5 -45t-14 -86t-19.5 -98l-106 -461h-105l111 492q35 161 35 256q0 49 -21.5 70.5t-67.5 21.5 q-36 0 -81 -9z" />
<glyph unicode="s" horiz-adv-x="899" d="M92 133q0 57 17 150h67q2 -97 43 -154q47 -59 187 -59q105 0 169 39t64 110q0 47 -26 84.5t-87 73.5l-172 102q-141 80 -141 211q0 134 102.5 201t259.5 67q117 0 193 -36q23 -10 37 -33t14 -51q0 -75 -22 -152h-66q-6 64 -15.5 95t-29.5 46q-55 39 -149 39 q-59 0 -105.5 -13.5t-79.5 -48.5t-33 -89q0 -46 32 -85t106 -83l155 -90q136 -77 136 -205q0 -74 -29.5 -129.5t-81.5 -87.5t-116 -47t-140 -15q-136 0 -231 56q-58 34 -58 104z" />
<glyph unicode="t" horiz-adv-x="659" d="M123 823l14 62q63 14 117 33q24 8 38 22.5t27 40.5q27 53 76 166q14 31 49 31t35 -27q0 -12 -51 -238q156 0 254 -4l-14 -80q-132 -6 -262 -6l-80 -405q-1 -7 -9 -51t-11.5 -63t-7 -54t-3.5 -62q0 -110 104 -110q74 0 172 39l31 -74q-123 -68 -246 -68q-81 0 -130.5 41.5 t-49.5 130.5q0 51 12 109q15 88 113 567h-178z" />
<glyph unicode="u" horiz-adv-x="1185" d="M143 831l15 66q95 51 186 51q47 0 73.5 -19t26.5 -73q0 -23 -34 -190l-82 -349q-15 -69 -15 -116q0 -65 33.5 -91t95.5 -26q150 0 328 154q7 52 33 176l119 516h106l-115 -518q-36 -167 -36 -246q0 -42 19.5 -62t64.5 -20q13 0 65 6.5t68 9.5l-17 -63q-51 -27 -107.5 -41 t-95.5 -14q-46 0 -80 29.5t-34 90.5q0 39 4 62q-72 -88 -168 -138.5t-199 -50.5q-85 0 -141.5 42t-56.5 124q0 81 20 174l72 299q24 101 24 150q0 45 -17.5 60.5t-64.5 15.5q-38 0 -90 -9z" />
<glyph unicode="v" horiz-adv-x="1110" d="M117 831l12 66q95 51 188 51q45 0 70 -19t25 -73q0 -59 -25 -190l-65 -357q-15 -92 -15 -114q0 -60 22.5 -88.5t76.5 -28.5q76 0 155.5 45t140.5 117q79 96 133 234.5t54 246.5q0 66 -24 93.5t-87 27.5q-50 0 -80 -6l13 65q87 47 166 47q71 0 97.5 -48.5t26.5 -137.5 q0 -124 -63.5 -286.5t-157.5 -278.5q-86 -108 -202.5 -165t-202.5 -57q-83 0 -131.5 41.5t-48.5 124.5q0 66 18 168l53 301q21 132 21 154q0 45 -17.5 60.5t-64.5 15.5q-43 0 -88 -9z" />
<glyph unicode="w" horiz-adv-x="1613" d="M117 831l12 66q95 51 188 51q45 0 70 -19t25 -73q0 -59 -25 -190l-65 -357q-15 -92 -15 -114q0 -63 17.5 -90t74.5 -27q116 0 252 182q60 85 107 184l80 449h106l-86 -506q-20 -118 -20 -192q0 -61 22 -89t76 -28q135 0 272 162q79 95 132 233.5t53 247.5q0 66 -25 93.5 t-88 27.5q-50 0 -80 -6l12 65q87 47 168 47q71 0 98 -48.5t27 -137.5q0 -125 -62 -286t-157 -277q-89 -110 -194.5 -167t-188.5 -57q-81 0 -125.5 42t-44.5 126q0 70 10 129q-74 -138 -182.5 -217.5t-189.5 -79.5q-176 0 -176 166q0 78 16 166l55 301q23 127 23 156 q0 45 -18.5 60.5t-65.5 15.5q-43 0 -88 -9z" />
<glyph unicode="x" horiz-adv-x="1091" d="M8 59q0 67 15 121h67q3 -86 68 -86q66 0 121 68q57 67 227 311q-20 57 -53.5 146.5t-46.5 125.5q-23 64 -43 79.5t-62 15.5q-17 0 -52.5 -8.5t-55.5 -16.5l12 64q99 69 170 69q47 0 72.5 -23t50.5 -89q17 -46 30.5 -88t29.5 -96t26 -85q143 217 204 281q93 98 197 98 q52 0 77 -21t25 -53q0 -50 -10 -118h-69q-5 65 -62 65q-54 0 -121 -67q-59 -61 -211 -283q10 -24 35 -90t47.5 -121.5t44.5 -105.5q20 -43 42.5 -55.5t60.5 -12.5q81 0 141 35l-16 -70q-81 -67 -189 -67q-104 0 -141 106q-78 227 -100 297q-144 -226 -226 -317 q-88 -95 -198 -95q-54 0 -80.5 25t-26.5 61z" />
<glyph unicode="y" horiz-adv-x="1189" d="M100 -446q0 60 27 163h70q-2 -23 -2 -59q3 -61 36 -88q47 -43 148 -43q82 0 144.5 33t94.5 96q54 107 115 371q6 30 19 84t14 57q-169 -193 -379 -193q-85 0 -133.5 41.5t-48.5 124.5q0 84 20 176l66 297q24 118 24 150q0 45 -17.5 60.5t-64.5 15.5q-38 0 -90 -9l15 66 q95 51 186 51q47 0 73.5 -19t26.5 -73q0 -23 -34 -190l-76 -349q-15 -69 -15 -116q0 -67 26.5 -92t90.5 -25q75 0 166 48.5t176 125.5l140 672h110q-39 -181 -102.5 -506.5t-94.5 -474.5q-32 -161 -67.5 -250t-89.5 -143q-119 -119 -320 -119q-142 0 -213 47q-41 26 -41 70z " />
<glyph unicode="z" horiz-adv-x="1019" d="M23 0l4 39l741 813q-320 0 -381 -8q-33 -3 -49.5 -10t-32.5 -27q-20 -28 -47 -133h-74q1 16 3 50.5t4 62.5t6 53q4 24 7.5 37t13 27t28 20t47.5 6h655l-6 -47l-739 -799q78 -4 205 -4q230 0 288 18q53 19 77 59.5t50 125.5h74q-20 -154 -33 -203q-10 -41 -35 -60.5 t-86 -19.5h-720z" />
<glyph unicode="{" horiz-adv-x="612" d="M35 586l12 69q50 4 84.5 17.5t59.5 35t43.5 61.5t31 86t27.5 120l45 233q15 77 32 128.5t48.5 101t76.5 78t115.5 46t165.5 17.5l-16 -82q-94 0 -149.5 -23t-92.5 -85.5t-59 -180.5l-60 -305q-30 -154 -71.5 -210t-151.5 -79q70 -18 97.5 -55t27.5 -102q0 -50 -16 -144 l-64 -327q-12 -65 -12 -113q0 -90 47 -127t156 -37l-15 -80q-164 0 -235.5 56t-71.5 174q0 64 12 123l62 309q16 82 16 135q0 75 -33.5 114t-111.5 46z" />
<glyph unicode="|" horiz-adv-x="526" d="M33 -377l381 1954h106l-383 -1954h-104z" />
<glyph unicode="}" horiz-adv-x="612" d="M-133 -371l14 82q95 0 150 23t91 85t60 181l62 305q16 80 30 125t39 81.5t60 54t92 28.5q-69 18 -97 55.5t-28 102.5q0 54 18 145l62 328q12 65 12 110q0 90 -47 127t-154 37l15 80q163 0 234 -55.5t71 -171.5q0 -52 -12 -123l-60 -311q-18 -92 -18 -136q0 -74 33.5 -113 t113.5 -46l-14 -70q-62 -5 -101.5 -22.5t-67 -57t-44 -92t-33.5 -143.5l-45 -238q-14 -76 -30.5 -128t-48 -101.5t-76.5 -78t-115.5 -46t-165.5 -17.5z" />
<glyph unicode="~" horiz-adv-x="1175" d="M137 557q76 107 147 152t152 45q46 0 91 -17.5t135 -77.5q100 -65 159 -65q53 0 102.5 33t112.5 114l74 -69q-144 -199 -293 -199q-89 0 -205 74q-75 51 -116 68.5t-76 17.5q-54 0 -100.5 -32t-110.5 -112z" />
<glyph unicode="&#xa1;" horiz-adv-x="577" d="M25 -334q0 13 4 37q3 21 14 66.5t32.5 130t43.5 170.5t61.5 239t73.5 285h68q-106 -757 -129 -893q-11 -55 -33.5 -79.5t-65.5 -24.5q-34 0 -51.5 18.5t-17.5 50.5zM238 932q0 45 28.5 77.5t75.5 32.5q45 0 73.5 -27.5t28.5 -72.5t-30 -79t-78 -34q-42 0 -70 29t-28 74z " />
<glyph unicode="&#xa2;" horiz-adv-x="1032" d="M162 342q0 140 46 258t134 201q112 109 276 129l41 207h91l-39 -201q77 0 159 -21q80 -20 80 -94q0 -64 -32 -155h-72q0 105 -27 139q-28 33 -127 41l-147 -760q150 5 301 117l39 -64q-74 -62 -168 -100.5t-191 -44.5l-43 -230h-90l45 232q-129 13 -202.5 105.5 t-73.5 240.5zM285 356q0 -223 172 -262l145 748q-103 -16 -176.5 -89t-107 -175t-33.5 -222z" />
<glyph unicode="&#xa3;" horiz-adv-x="1169" d="M-2 0l18 96q89 16 157.5 59t110.5 105.5t65.5 136t31.5 160.5h-201l25 98h182q0 17 -2 100t-2 111q0 234 122.5 370t368.5 136q107 0 181 -22q44 -14 61 -41t17 -72q0 -64 -29 -164h-68q0 123 -41 164t-164 41q-162 0 -243.5 -100t-81.5 -281q0 -33 1 -127.5t1 -114.5 h328l-23 -98h-311q-5 -65 -18.5 -121t-41 -115t-77 -112t-119.5 -94q184 4 418 4q109 0 163.5 7t79.5 28q40 32 80 129h68q-21 -132 -49 -211q-25 -72 -134 -72h-874z" />
<glyph unicode="&#xa4;" horiz-adv-x="1132" d="M117 233l135 136q-94 113 -94 282q0 164 92 275l-133 137l73 78l138 -140q54 45 126 69t144 24q155 0 270 -90l131 137l78 -76l-131 -139q90 -120 90 -275q0 -153 -90 -276l135 -142l-80 -75l-133 139q-119 -88 -274 -88q-162 0 -268 84l-136 -135zM262 655 q0 -154 94.5 -254t241.5 -100q144 0 237 98.5t93 251.5q0 147 -94 246.5t-236 99.5q-146 0 -241 -96.5t-95 -245.5z" />
<glyph unicode="&#xa5;" horiz-adv-x="1259" d="M176 1266l17 77q45 -1 89.5 -2t70.5 -1.5t50 -0.5q20 0 238 4l-14 -77q-81 -3 -118 -10t-44.5 -15.5t-7.5 -28.5q0 -45 51 -188q10 -28 62.5 -168t78.5 -219q95 135 314 416q59 78 81.5 114.5t22.5 57.5q0 12 -5 19t-23 11.5t-46 6.5t-80 4l15 77q172 -4 239 -4 q105 0 191 4l-17 -77q-37 -3 -56.5 -8t-39.5 -17q-6 -3 -12 -8t-15 -14.5t-16.5 -18t-22 -26.5t-25.5 -31.5t-33.5 -41t-39.5 -48.5l-256 -318h277l-19 -82h-323l-80 -102l-10 -62h383l-17 -81h-383l-37 -199q-10 -67 -10 -74q1 -12 3 -18.5t11.5 -14.5t28.5 -12.5t55 -8 t89 -5.5l-15 -78q-208 4 -250 4q-64 0 -252 -4l15 78q74 6 110 12t47.5 12t20.5 19q17 20 29 84l39 205h-353l19 81h350l12 60l-41 104h-291l17 82h242l-138 375q-6 15 -14 38.5t-11.5 32.5t-10.5 24.5t-11 20t-14 13.5t-18.5 11t-24 6.5t-32.5 6t-42 3.5z" />
<glyph unicode="&#xa6;" horiz-adv-x="526" d="M59 -244l136 690h104l-133 -690h-107zM252 752l135 692h107l-136 -692h-106z" />
<glyph unicode="&#xa7;" horiz-adv-x="933" d="M18 -260q0 35 21 158h72q0 -73 13 -109t40 -63q18 -17 58 -29t75 -12q60 0 114.5 21.5t94 70.5t39.5 117q0 118 -146 296l-145 177q-121 149 -121 266q0 64 22 116.5t64 91t89.5 66t111.5 51.5q-74 107 -74 209q0 96 51 167t133 105t183 34q46 0 102 -8t84 -21 q43 -22 43 -80q0 -15 -11 -68.5t-22 -89.5h-69q0 109 -29 144.5t-121 35.5q-104 0 -167.5 -46.5t-63.5 -149.5q0 -116 121 -250l118 -135q74 -82 110 -140.5t43 -89.5t7 -79q0 -60 -23 -111t-66 -91t-90.5 -70t-111.5 -60q95 -132 95 -232q0 -149 -104.5 -241t-272.5 -92 q-76 0 -139 17t-89 40q-39 35 -39 84zM248 647q0 -89 82 -186l92 -113q67 -82 102 -129q43 21 77 43t68 53.5t53 72t19 87.5q0 52 -22 100.5t-84 120.5l-98 111q-63 70 -78 94q-108 -49 -159.5 -109t-51.5 -145z" />
<glyph unicode="&#xa8;" horiz-adv-x="595" d="M57 1272q0 38 26.5 65t66.5 27q37 0 59 -22.5t22 -57.5q0 -41 -25 -70.5t-69 -29.5q-35 0 -57.5 24t-22.5 64zM365 1272q0 38 25.5 65t64.5 27q37 0 59.5 -22.5t22.5 -57.5q0 -41 -25.5 -70.5t-67.5 -29.5q-35 0 -57 24t-22 64z" />
<glyph unicode="&#xa9;" horiz-adv-x="1609" d="M106 694q0 197 95.5 362t261.5 261t366 96q147 0 280 -56.5t228.5 -151.5t152 -227t56.5 -278q0 -153 -55.5 -289t-150.5 -233t-227 -154t-279 -57q-206 0 -373 95.5t-261 262t-94 369.5zM197 692q0 -133 49.5 -253t134 -207t203.5 -138t252 -51q173 0 315 85 t222.5 232.5t80.5 325.5q0 183 -79.5 332t-222.5 235t-321 86q-179 0 -325 -86t-227.5 -234t-81.5 -327zM406 604q0 231 138 382t367 151q140 0 215 -27q30 -12 40 -27.5t10 -44.5q0 -16 -8 -64t-17 -77h-70q-3 96 -20 113q-38 41 -168 41q-113 0 -197 -61t-125 -159 t-41 -217q0 -135 75.5 -207.5t193.5 -72.5q132 0 176 47q41 45 63 104h74q-16 -108 -37 -147t-92 -62q-88 -30 -215 -30q-167 0 -264.5 97.5t-97.5 260.5z" />
<glyph unicode="&#xaa;" horiz-adv-x="696" d="M84 754q0 87 45.5 187t118.5 161q106 86 244 86q69 0 129 -35l20 49h74l-82 -313q-39 -147 -39 -209q0 -47 61 -47q32 0 86 14l-8 -55q-79 -35 -143 -35q-48 0 -69 20.5t-21 63.5q0 4 1 15t1 14q-114 -117 -228 -117q-190 0 -190 201zM180 762q0 -55 29 -91t80 -36 q57 0 116 31t103 75q4 26 33 133l57 203q-62 35 -131 35q-84 0 -148 -51q-56 -44 -97.5 -129t-41.5 -170z" />
<glyph unicode="&#xab;" horiz-adv-x="886" d="M74 455q0 36 49 77l387 310l45 -54l-344 -331l213 -344l-64 -43l-268 331q-18 22 -18 54zM408 455q0 36 49 77l387 310l45 -54l-344 -331l213 -344l-64 -43l-268 331q-18 22 -18 54z" />
<glyph unicode="&#xac;" horiz-adv-x="1179" d="M135 586l27 116h907l-125 -542h-113l99 426h-795z" />
<glyph unicode="&#xad;" horiz-adv-x="534" d="M55 440l25 117h409l-24 -117h-410z" />
<glyph unicode="&#xae;" horiz-adv-x="1609" d="M106 694q0 197 95.5 362t261.5 261t366 96q147 0 280 -56.5t228.5 -151.5t152 -227t56.5 -278q0 -153 -55.5 -289t-150.5 -233t-227 -154t-279 -57q-206 0 -373 95.5t-261 262t-94 369.5zM197 692q0 -133 49.5 -253t134 -207t203.5 -138t252 -51q173 0 315 85 t222.5 232.5t80.5 325.5q0 183 -79.5 332t-222.5 235t-321 86q-179 0 -325 -86t-227.5 -234t-81.5 -327zM412 305l12 70q83 5 102 16q8 8 13 22t12 54l96 514q6 41 6 55q0 7 -3.5 12t-10.5 8t-14 5t-19 3t-21 1.5t-23.5 1t-22.5 0.5l12 66h244q153 0 219 -17 q155 -39 155 -180q0 -207 -247 -262q51 -103 82 -153.5t65 -84.5q29 -29 61 -47q32 -14 72 -14l-12 -68q-10 -2 -53 -2q-96 0 -154 55q-43 39 -80 105.5t-92 193.5q-77 0 -111 3l-36 -191q-7 -36 -7 -55q0 -35 104 -40q9 -1 13 -1l-14 -70q-114 4 -191 4q-43 0 -157 -4z M713 737q20 -2 71 -2q39 0 72.5 4t70 16t62 31t42 52t16.5 77q0 41 -19 72.5t-57 42.5q-14 4 -38.5 8.5t-53 7.5t-48.5 3h-59z" />
<glyph unicode="&#xaf;" horiz-adv-x="595" d="M37 1151l20 111h500l-20 -111h-500z" />
<glyph unicode="&#xb0;" horiz-adv-x="710" d="M217 1155q0 125 81.5 202t197.5 77q112 0 183 -65t71 -189q0 -129 -78 -205t-197 -76q-112 0 -185 68t-73 188zM307 1165q0 -82 44.5 -134t127.5 -52q84 0 134.5 52.5t50.5 131.5q0 88 -44 139.5t-131 51.5q-79 0 -130.5 -53t-51.5 -136z" />
<glyph unicode="&#xb1;" horiz-adv-x="1179" d="M39 14l29 113h909l-29 -113h-909zM182 709l25 108h399l94 418h115l-96 -418h399l-28 -108h-394l-100 -420h-111l95 420h-398z" />
<glyph unicode="&#xb2;" d="M135 862l8 64q19 13 80.5 52t102 66t102 71.5t102.5 84.5t82 88t61.5 98t20.5 99q0 61 -34.5 103t-110.5 42q-100 0 -143 -37q-28 -28 -48 -100h-53q4 78 8 102q6 31 21.5 48t54.5 36q81 35 178 35q118 0 178 -57.5t60 -151.5q0 -71 -33.5 -142t-81 -125.5t-121 -113 t-129.5 -94.5t-131 -80q59 2 219 2q110 0 142 16.5t61 88.5h55q-24 -105 -41 -148q-15 -47 -90 -47h-520z" />
<glyph unicode="&#xb3;" d="M199 938q0 58 22 125h58q3 -67 24 -92q32 -43 135 -43q100 0 168 43t68 135q0 58 -47.5 98t-141.5 47q-58 4 -92 4l13 74q93 6 96 6q87 14 145 56.5t58 121.5q0 52 -31 85.5t-99 33.5q-88 0 -135 -35q-31 -27 -49 -96h-59q0 79 15 117t67 63q68 33 170 33 q112 0 169.5 -52.5t57.5 -127.5q0 -190 -238 -231q96 -7 149.5 -57t53.5 -124q0 -137 -98.5 -206.5t-251.5 -69.5q-114 0 -180 28q-47 23 -47 64z" />
<glyph unicode="&#xb4;" horiz-adv-x="604" d="M113 1122l215 279q35 42 55 58t41 16q26 0 48 -18.5t22 -47.5q0 -43 -72 -102l-262 -228z" />
<glyph unicode="&#xb5;" horiz-adv-x="1214" d="M57 -444q0 4 2 13t4 20.5t3 15.5l235 1009q25 109 25 150q0 45 -17.5 60.5t-64.5 15.5q-43 0 -88 -9l12 66q95 51 188 51q45 0 72 -19.5t27 -72.5q0 -19 -35 -190l-82 -349q-14 -65 -14 -116q0 -65 33.5 -91t95.5 -26q149 0 327 154q9 69 35 176l119 516h104l-114 -518 q-37 -171 -37 -246q0 -42 19.5 -62t64.5 -20q43 0 135 16l-19 -63q-51 -27 -107.5 -41t-94.5 -14q-46 0 -79.5 29.5t-33.5 90.5q0 39 4 62q-73 -87 -167 -134.5t-197 -47.5q-102 0 -140 53q-12 -63 -31.5 -171t-32.5 -179.5t-18 -96.5q-10 -40 -26.5 -58.5t-50.5 -18.5 q-56 0 -56 45z" />
<glyph unicode="&#xb6;" horiz-adv-x="1110" d="M172 815q0 178 86.5 308.5t235 195.5t340.5 65h366l-14 -75q-87 -4 -118.5 -10t-45.5 -19q-16 -14 -25 -42.5t-22 -100.5q-30 -157 -83.5 -449.5t-78.5 -419.5q-67 -320 -80 -360q-29 -82 -64.5 -142.5t-91.5 -114t-138.5 -93t-196.5 -68.5l-23 80q187 60 274 146 t123 221q44 161 91 401l8 43q-23 -2 -70 -2q-206 0 -339.5 119t-133.5 317z" />
<glyph unicode="&#xb7;" horiz-adv-x="428" d="M106 496q0 45 28.5 77.5t76.5 32.5q45 0 73.5 -27.5t28.5 -72.5t-30 -79t-78 -34q-42 0 -70.5 29t-28.5 74z" />
<glyph unicode="&#xb8;" horiz-adv-x="595" d="M117 -475q239 45 239 153q0 34 -18.5 56.5t-63.5 50.5q-18 11 -24 21.5t-6 31.5q0 49 69 172h66q-45 -76 -45 -102q0 -34 26 -47q69 -33 94 -66.5t25 -89.5q0 -99 -99.5 -166.5t-252.5 -85.5z" />
<glyph unicode="&#xb9;" d="M295 860l12 60q106 8 127 22q15 13 25 66l71 366q29 166 29 185q0 34 -27 34q-32 0 -106 -18l-14 53q94 41 178 72q48 16 61 16q37 0 37 -35q0 -1 -6 -49q-1 -3 -53 -260l-66 -346q-8 -54 -8 -63q0 -13 7.5 -21t24 -12t30 -5.5t38 -2.5t35.5 -2l-10 -60q-114 4 -207 4 q-64 0 -178 -4z" />
<glyph unicode="&#xba;" horiz-adv-x="821" d="M176 805q0 89 32.5 173.5t98.5 141.5q92 74 225 74q114 0 183 -57.5t69 -173.5q0 -184 -102 -299q-94 -111 -246 -111q-111 0 -185.5 68.5t-74.5 183.5zM268 817q0 -81 48 -131.5t135 -50.5q76 0 131.5 48t81.5 118.5t26 150.5q0 82 -46 123t-128 41q-92 0 -149 -51 q-46 -44 -72.5 -111t-26.5 -137z" />
<glyph unicode="&#xbb;" horiz-adv-x="886" d="M-2 123l344 332l-213 344l66 43l266 -332q20 -24 20 -53q0 -36 -51 -78l-387 -309zM332 123l344 332l-213 344l65 43l267 -332q20 -24 20 -53q0 -36 -51 -78l-387 -309z" />
<glyph unicode="&#xbc;" horiz-adv-x="1654" d="M203 514l10 61q107 5 127 21q18 15 27 66l71 368q27 154 27 182q0 19 -6 27t-19 8q-38 0 -108 -16l-13 51q58 29 177 72q53 16 63 16q16 0 26.5 -8.5t10.5 -26.5q0 -17 -8 -49q-44 -220 -117 -604q-10 -62 -10 -64q0 -16 8 -22.5t29 -11.5q34 -6 100 -9l-12 -61 q-165 6 -207 6q-11 0 -176 -6zM422 18l766 1366l69 -38l-763 -1364zM825 227l9 54l479 526q17 18 27 26.5t24 14.5t31 6q39 0 39 -43q0 -9 -9 -55.5t-35 -180.5t-51 -264h134l-17 -84h-133l-14 -73q-9 -44 -9 -56q0 -28 29 -32q4 0 20 -3t34 -5t36 -3l-10 -57q-159 6 -192 6 q-14 0 -40.5 -1t-63.5 -2.5t-56 -2.5l10 57q91 5 115 25l6 6t5 8t3.5 8.5t3 11t2.5 11.5t3 15t3 16l17 71h-400zM954 307h285q63 308 88 416z" />
<glyph unicode="&#xbd;" horiz-adv-x="1654" d="M184 514l11 61q107 5 127 21q17 14 26 66l72 368q26 149 26 182q0 35 -24 35q-39 0 -109 -16l-12 51q61 30 176 72q53 16 64 16q37 0 37 -35q0 -13 -9 -49q-44 -220 -116 -604q-2 -10 -4.5 -24.5t-4.5 -25t-2 -14.5q0 -16 8 -22.5t29 -11.5q34 -6 101 -9l-13 -61 q-165 6 -207 6q-11 0 -176 -6zM403 18l766 1366l70 -38l-764 -1364zM881 2l8 64q20 13 61.5 39.5t74.5 48t79 52.5t82.5 60t77 63.5t70.5 69.5t55 72t38 76.5t13 77.5q0 61 -35 103t-111 42q-100 0 -143 -37q-26 -26 -47 -100h-53q4 78 8 102q6 31 21.5 48t54.5 36 q81 35 178 35q118 0 177.5 -57.5t59.5 -151.5q0 -51 -17.5 -102.5t-44.5 -95t-69.5 -88t-83 -79t-94.5 -72t-94 -63t-92 -55.5q59 2 219 2q40 0 64 1t45.5 5.5t33 10.5t23.5 19t19 28t18 41h55q-24 -105 -41 -148q-15 -47 -90 -47h-520z" />
<glyph unicode="&#xbe;" horiz-adv-x="1654" d="M154 592q0 55 20 125h59q3 -61 23 -92q19 -23 50.5 -33t86.5 -10q46 0 85.5 9.5t74 29.5t54.5 55.5t20 83.5q0 28 -11 52.5t-33 45.5t-59 34t-84 15q-29 2 -94 2l14 76q95 6 97 6q40 6 73.5 18t63.5 32t47.5 52.5t17.5 73.5q0 52 -31 85.5t-98 33.5q-39 0 -65 -4 t-41.5 -11.5t-28.5 -19.5q-28 -22 -51 -94h-57q0 79 15 115.5t67 62.5q68 33 170 33q112 0 169.5 -52t57.5 -126q0 -189 -238 -234q95 -6 149 -55.5t54 -122.5q0 -139 -98.5 -208.5t-253.5 -69.5q-116 0 -178 30q-47 20 -47 62zM475 18l766 1366l70 -38l-764 -1364zM856 227 l8 54l479 526q17 18 27 26.5t24 14.5t31 6q39 0 39 -43q0 -6 -3.5 -26.5t-12 -64.5t-18 -94t-27 -139t-33.5 -176h133l-16 -84h-133l-15 -73q-8 -39 -8 -56q0 -28 29 -32q4 0 20 -3t34 -5t36 -3l-10 -57q-159 6 -193 6q-11 0 -31 -0.5t-39.5 -1.5t-46 -2t-43.5 -2l11 57 q90 5 114 25q10 9 14.5 22.5t10.5 44.5q1 6 2 9l16 71h-399zM985 307h285q63 308 88 416z" />
<glyph unicode="&#xbf;" horiz-adv-x="770" d="M-43 -133q0 83 25.5 151t77.5 122.5t111.5 95.5t145.5 86q74 38 93 116q4 13 9.5 38t14.5 64.5t15 63.5h77q-6 -98 -20 -203q-8 -51 -41.5 -84t-95.5 -67q-63 -34 -106.5 -65t-85 -74.5t-62.5 -99t-21 -122.5q0 -34 10 -65.5t30.5 -60.5t59 -47t89.5 -19q134 0 178 33 q39 27 67 157h74q0 -84 -10 -143q-7 -43 -36.5 -69t-84.5 -44q-102 -30 -209 -30q-143 1 -224 73t-81 193zM410 932q0 45 28.5 77.5t75.5 32.5q45 0 73.5 -27.5t28.5 -72.5t-30 -79t-78 -34q-42 0 -70 29t-28 74z" />
<glyph unicode="&#xc0;" horiz-adv-x="1411" d="M-76 -2l19 78q101 5 137 30q20 13 39.5 40t70.5 114l641 1104q34 57 82 57q26 0 41 -12t21 -45l176 -1126q15 -108 43 -136q19 -22 141 -26l-16 -78q-126 4 -264 4q-104 0 -236 -4l17 78q87 0 133 12q37 9 51 26t14 50q0 36 -8 98l-39 254h-538l-142 -246 q-59 -98 -59 -137q0 -23 14 -35q23 -16 178 -22l-18 -78q-114 4 -268 4q-108 0 -230 -4zM498 606h477q-52 340 -101 670q-119 -224 -376 -670zM672 1788q0 29 21.5 48t51.5 19q20 0 41 -17t54 -58l204 -260l-47 -45l-256 211q-69 60 -69 102z" />
<glyph unicode="&#xc1;" horiz-adv-x="1411" d="M-76 -2l19 78q101 5 137 30q20 13 39.5 40t70.5 114l641 1104q34 57 82 57q26 0 41 -12t21 -45l176 -1126q15 -108 43 -136q19 -22 141 -26l-16 -78q-126 4 -264 4q-104 0 -236 -4l17 78q87 0 133 12q37 9 51 26t14 50q0 36 -8 98l-39 254h-538l-142 -246 q-59 -98 -59 -137q0 -23 14 -35q23 -16 178 -22l-18 -78q-114 4 -268 4q-108 0 -230 -4zM498 606h477q-52 340 -101 670q-119 -224 -376 -670zM741 1524l256 229q37 34 59.5 46.5t47.5 12.5t41 -21t16 -50q0 -43 -88 -96l-293 -172z" />
<glyph unicode="&#xc2;" horiz-adv-x="1411" d="M-76 -2l19 78q101 5 137 30q20 13 39.5 40t70.5 114l641 1104q34 57 82 57q26 0 41 -12t21 -45l176 -1126q15 -108 43 -136q19 -22 141 -26l-16 -78q-126 4 -264 4q-104 0 -236 -4l17 78q87 0 133 12q37 9 51 26t14 50q0 36 -8 98l-39 254h-538l-142 -246 q-59 -98 -59 -137q0 -23 14 -35q23 -16 178 -22l-18 -78q-114 4 -268 4q-108 0 -230 -4zM498 606h477q-52 340 -101 670q-119 -224 -376 -670zM600 1516l274 270q40 37 74 37q22 0 36 -7.5t28 -31.5l170 -279l-47 -41l-207 215l-287 -215z" />
<glyph unicode="&#xc3;" horiz-adv-x="1411" d="M-76 -2l19 78q101 5 137 30q20 13 39.5 40t70.5 114l641 1104q34 57 82 57q26 0 41 -12t21 -45l176 -1126q15 -108 43 -136q19 -22 141 -26l-16 -78q-126 4 -264 4q-104 0 -236 -4l17 78q87 0 133 12q37 9 51 26t14 50q0 36 -8 98l-39 254h-538l-142 -246 q-59 -98 -59 -137q0 -23 14 -35q23 -16 178 -22l-18 -78q-114 4 -268 4q-108 0 -230 -4zM498 606h477q-52 340 -101 670q-119 -224 -376 -670zM610 1524q36 90 87 146t116 56q34 0 109 -32l53 -25q52 -22 86 -22q31 0 56.5 26t56.5 82l65 -22q-81 -207 -184 -207 q-43 0 -127 37l-49 18q-66 27 -88 27q-33 0 -59.5 -25.5t-59.5 -83.5z" />
<glyph unicode="&#xc4;" horiz-adv-x="1411" d="M-76 -2l19 78q101 5 137 30q20 13 39.5 40t70.5 114l641 1104q34 57 82 57q26 0 41 -12t21 -45l176 -1126q15 -108 43 -136q19 -22 141 -26l-16 -78q-126 4 -264 4q-104 0 -236 -4l17 78q87 0 133 12q37 9 51 26t14 50q0 36 -8 98l-39 254h-538l-142 -246 q-59 -98 -59 -137q0 -23 14 -35q23 -16 178 -22l-18 -78q-114 4 -268 4q-108 0 -230 -4zM498 606h477q-52 340 -101 670q-119 -224 -376 -670zM668 1610q0 38 25.5 65t64.5 27q37 0 59.5 -22.5t22.5 -57.5q0 -41 -25 -70.5t-67 -29.5q-35 0 -57.5 25t-22.5 63zM1012 1610 q0 38 25.5 65t64.5 27t60.5 -22.5t21.5 -57.5q0 -41 -24.5 -70.5t-67.5 -29.5q-35 0 -57.5 25t-22.5 63z" />
<glyph unicode="&#xc5;" horiz-adv-x="1411" d="M-76 -2l19 78q101 5 137 30q20 13 39.5 40t70.5 114l641 1104q34 57 82 57q26 0 41 -12t21 -45l176 -1126q15 -108 43 -136q19 -22 141 -26l-16 -78q-126 4 -264 4q-104 0 -236 -4l17 78q87 0 133 12q37 9 51 26t14 50q0 36 -8 98l-39 254h-538l-142 -246 q-59 -98 -59 -137q0 -23 14 -35q23 -16 178 -22l-18 -78q-114 4 -268 4q-108 0 -230 -4zM498 606h477q-52 340 -101 670q-119 -224 -376 -670zM743 1616q0 88 58.5 146.5t144.5 58.5q73 0 122.5 -46t49.5 -120q0 -85 -56.5 -145t-148.5 -60q-70 0 -120 46t-50 120zM819 1622 q0 -46 29.5 -75t71.5 -29q55 0 87.5 34.5t32.5 100.5q0 47 -29 73.5t-73 26.5q-53 0 -86 -35t-33 -96z" />
<glyph unicode="&#xc6;" horiz-adv-x="2058" d="M-6 -2l14 76q122 9 152 35q59 46 149 151l758 895q68 80 68 113q0 15 -9.5 23t-35.5 12q-55 8 -140 10l15 71h958q58 0 81.5 -19t23.5 -54q0 -82 -33 -236h-72q0 101 -8 136.5t-27 48.5q-26 20 -78.5 27t-191.5 7h-201l-100 -526h178q96 0 132.5 6.5t58.5 28.5 q27 25 59 131h74q-51 -195 -82 -414h-70q2 16 2 49q0 76 -31 93.5t-153 17.5h-187l-88 -455q-10 -70 -10 -73q0 -49 41 -54q53 -6 203 -6q259 0 332 58q52 42 122 188h68q-26 -178 -84 -285q-29 -53 -160 -53h-860l17 74q115 8 149 18q33 9 43 39q8 21 31 137l51 267h-489 l-220 -263q-54 -63 -69 -88.5t-15 -54.5q0 -9 3.5 -16.5t11.5 -12.5t16.5 -9t22.5 -7t24.5 -4.5t28 -2.5t28 -1.5t28.5 -1t26 -0.5l-14 -76q-196 4 -277 4q-72 0 -264 -4zM733 621h434l125 634q2 12 2 19q0 10 -8 10q-2 0 -4 -1t-4.5 -3t-4 -4t-5 -6.5t-6.5 -7.5 q-182 -225 -529 -641z" />
<glyph unicode="&#xc7;" horiz-adv-x="1345" d="M135 543q0 340 211 600q113 135 272.5 203.5t352.5 68.5q183 0 297 -43q42 -14 58.5 -41.5t16.5 -73.5q0 -50 -28 -198h-72q0 135 -41 188q-51 68 -260 68q-151 0 -282 -59t-224 -175q-84 -103 -128 -240.5t-44 -279.5q0 -242 130.5 -365.5t353.5 -123.5q97 0 173 22 t119 53q57 40 121 170h74q-7 -41 -26 -99.5t-35 -88.5q-45 -88 -138 -115q-146 -43 -313 -43q-27 0 -39 2q-25 -59 -25 -71q0 -35 27 -52q71 -39 96 -72t25 -91q0 -104 -100.5 -174t-257.5 -91l-11 76q118 25 181 63t63 99q0 35 -18 56.5t-66 54.5q-18 12 -24.5 24.5 t-6.5 36.5q0 43 54 145q-226 28 -356 176.5t-130 389.5z" />
<glyph unicode="&#xc8;" horiz-adv-x="1196" d="M2 0l16 76q150 5 177 30l6 6t5.5 8t4.5 9.5t4 12.5l3.5 14t4 17.5t4 19l4.5 22.5l5 25l176 915q14 75 14 98q0 37 -45 45q-47 10 -135 13l14 73h803q104 0 104 -69q0 -106 -32 -240h-70q0 78 -2 111q-5 58 -37 76q-26 18 -76 25t-188 7h-205l-100 -526h178q93 0 129.5 7 t60.5 28q33 36 60 131h73q-16 -60 -28.5 -124t-29 -158.5t-23.5 -131.5h-70q4 20 4 51q0 92 -57 103q-31 6 -140 6h-174l-96 -492q-4 -32 -4 -38q0 -47 41 -52q55 -6 215 -6q150 0 219.5 15t102.5 45q52 44 120 186h70q-30 -186 -84 -285q-29 -53 -162 -53h-860zM512 1786 q0 29 22 48t52 19q20 0 40 -17t54 -58l205 -260l-47 -45l-256 210q-70 61 -70 103z" />
<glyph unicode="&#xc9;" horiz-adv-x="1196" d="M2 0l16 76q150 5 177 30l6 6t5.5 8t4.5 9.5t4 12.5l3.5 14t4 17.5t4 19l4.5 22.5l5 25l176 915q14 75 14 98q0 37 -45 45q-47 10 -135 13l14 73h803q104 0 104 -69q0 -106 -32 -240h-70q0 78 -2 111q-5 58 -37 76q-26 18 -76 25t-188 7h-205l-100 -526h178q93 0 129.5 7 t60.5 28q33 36 60 131h73q-16 -60 -28.5 -124t-29 -158.5t-23.5 -131.5h-70q4 20 4 51q0 92 -57 103q-31 6 -140 6h-174l-96 -492q-4 -32 -4 -38q0 -47 41 -52q55 -6 215 -6q150 0 219.5 15t102.5 45q52 44 120 186h70q-30 -186 -84 -285q-29 -53 -162 -53h-860zM647 1524 l256 229q37 34 59.5 46.5t47.5 12.5t41 -21t16 -50q0 -43 -88 -96l-293 -172z" />
<glyph unicode="&#xca;" horiz-adv-x="1196" d="M2 0l16 76q150 5 177 30l6 6t5.5 8t4.5 9.5t4 12.5l3.5 14t4 17.5t4 19l4.5 22.5l5 25l176 915q14 75 14 98q0 37 -45 45q-47 10 -135 13l14 73h803q104 0 104 -69q0 -106 -32 -240h-70q0 78 -2 111q-5 58 -37 76q-26 18 -76 25t-188 7h-205l-100 -526h178q93 0 129.5 7 t60.5 28q33 36 60 131h73q-16 -60 -28.5 -124t-29 -158.5t-23.5 -131.5h-70q4 20 4 51q0 92 -57 103q-31 6 -140 6h-174l-96 -492q-4 -32 -4 -38q0 -47 41 -52q55 -6 215 -6q150 0 219.5 15t102.5 45q52 44 120 186h70q-30 -186 -84 -285q-29 -53 -162 -53h-860zM451 1516 l274 270q40 37 74 37q21 0 35 -7.5t28 -31.5l170 -279l-47 -41l-207 215l-286 -215z" />
<glyph unicode="&#xcb;" horiz-adv-x="1196" d="M2 0l16 76q150 5 177 30l6 6t5.5 8t4.5 9.5t4 12.5l3.5 14t4 17.5t4 19l4.5 22.5l5 25l176 915q14 75 14 98q0 37 -45 45q-47 10 -135 13l14 73h803q104 0 104 -69q0 -106 -32 -240h-70q0 78 -2 111q-5 58 -37 76q-26 18 -76 25t-188 7h-205l-100 -526h178q93 0 129.5 7 t60.5 28q33 36 60 131h73q-16 -60 -28.5 -124t-29 -158.5t-23.5 -131.5h-70q4 20 4 51q0 92 -57 103q-31 6 -140 6h-174l-96 -492q-4 -32 -4 -38q0 -47 41 -52q55 -6 215 -6q150 0 219.5 15t102.5 45q52 44 120 186h70q-30 -186 -84 -285q-29 -53 -162 -53h-860zM496 1612 q0 38 25.5 65t64.5 27q37 0 59.5 -22.5t22.5 -57.5q0 -41 -25.5 -70.5t-67.5 -29.5q-35 0 -57 25t-22 63zM840 1612q0 38 25.5 65t64.5 27t60.5 -22.5t21.5 -57.5q0 -41 -24.5 -70.5t-67.5 -29.5q-35 0 -57.5 25t-22.5 63z" />
<glyph unicode="&#xcc;" horiz-adv-x="692" d="M2 -2l16 76q152 11 179 35q11 9 18.5 33.5t20.5 95.5l176 917q14 82 14 98q0 21 -12 30.5t-37 14.5q-56 10 -131 15l14 73q164 -4 242 -4q88 0 272 4l-16 -73q-98 -9 -137.5 -17t-51.5 -20q-18 -21 -37 -119l-176 -921q-16 -79 -16 -103q0 -22 12.5 -31t38.5 -14 q53 -8 141 -14l-18 -76q-172 4 -270 4q-66 0 -242 -4zM274 1786q0 29 22 48t52 19q20 0 40 -17t54 -58l205 -260l-47 -45l-256 210q-70 61 -70 103z" />
<glyph unicode="&#xcd;" horiz-adv-x="692" d="M2 -2l16 76q152 11 179 35q11 9 18.5 33.5t20.5 95.5l176 917q14 82 14 98q0 21 -12 30.5t-37 14.5q-56 10 -131 15l14 73q164 -4 242 -4q88 0 272 4l-16 -73q-98 -9 -137.5 -17t-51.5 -20q-18 -21 -37 -119l-176 -921q-16 -79 -16 -103q0 -22 12.5 -31t38.5 -14 q53 -8 141 -14l-18 -76q-172 4 -270 4q-66 0 -242 -4zM412 1524l256 229q37 34 59 46.5t47 12.5t41 -21t16 -50q0 -43 -88 -96l-292 -172z" />
<glyph unicode="&#xce;" horiz-adv-x="692" d="M2 -2l16 76q152 11 179 35q11 9 18.5 33.5t20.5 95.5l176 917q14 82 14 98q0 21 -12 30.5t-37 14.5q-56 10 -131 15l14 73q164 -4 242 -4q88 0 272 4l-16 -73q-98 -9 -137.5 -17t-51.5 -20q-18 -21 -37 -119l-176 -921q-16 -79 -16 -103q0 -22 12.5 -31t38.5 -14 q53 -8 141 -14l-18 -76q-172 4 -270 4q-66 0 -242 -4zM256 1516l274 270q40 37 74 37q22 0 36 -7.5t28 -31.5l170 -279l-47 -41l-207 215l-287 -215z" />
<glyph unicode="&#xcf;" horiz-adv-x="692" d="M2 -2l16 76q152 11 179 35q11 9 18.5 33.5t20.5 95.5l176 917q14 82 14 98q0 21 -12 30.5t-37 14.5q-56 10 -131 15l14 73q164 -4 242 -4q88 0 272 4l-16 -73q-98 -9 -137.5 -17t-51.5 -20q-18 -21 -37 -119l-176 -921q-16 -79 -16 -103q0 -22 12.5 -31t38.5 -14 q53 -8 141 -14l-18 -76q-172 4 -270 4q-66 0 -242 -4zM293 1612q0 38 25.5 65t64.5 27q37 0 59.5 -22.5t22.5 -57.5q0 -41 -25 -70.5t-67 -29.5q-35 0 -57.5 25t-22.5 63zM637 1612q0 38 25.5 65t64.5 27t60.5 -22.5t21.5 -57.5q0 -41 -24.5 -70.5t-67.5 -29.5 q-35 0 -57.5 25t-22.5 63z" />
<glyph unicode="&#xd0;" horiz-adv-x="1474" d="M2 -2l16 76q96 8 130.5 14.5t48.5 20.5q11 10 17 30.5t19 89.5l86 449h-202l18 94h203l74 383q14 75 14 100q0 20 -12.5 29t-36.5 14q-32 8 -131 15l14 71h318q207 0 338.5 -15.5t199.5 -41.5t129 -72q79 -61 124.5 -167.5t45.5 -227.5q0 -489 -330 -723 q-102 -73 -243.5 -106t-358.5 -33h-481zM340 160q0 -49 49 -58q53 -10 195 -10q168 0 302 55.5t220.5 154t132 231.5t45.5 290q0 134 -47.5 239t-130.5 152q-139 80 -406 80h-145l-100 -522h407l-20 -94h-406l-90 -477q-6 -30 -6 -41z" />
<glyph unicode="&#xd1;" horiz-adv-x="1488" d="M2 -2l16 76q86 5 126 13.5t55 27.5q3 4 6 9t6 13.5t5 16t5.5 23.5t6 27.5t7.5 36t9 42.5q14 70 79 407t80 412q21 114 21 145q0 45 -57 53q-67 13 -134 13l17 73q86 -4 176 -4q73 0 147 4q470 -1006 551 -1200q155 837 166 908q19 127 19 155q0 37 -35 45q-76 17 -144 19 l17 73q106 -4 256 -4q9 0 235 4l-16 -73q-88 -4 -118.5 -11.5t-49.5 -23.5q-15 -12 -25.5 -46t-29.5 -130q-115 -581 -201 -1061q-9 -55 -68 -55q-40 0 -59 39q-372 817 -547 1192q-32 -166 -100.5 -545t-69.5 -385q-22 -113 -22 -150q0 -23 13.5 -33.5t41.5 -15.5 q52 -8 139 -14l-18 -76q-204 4 -268 4q-20 0 -238 -4zM688 1524q36 90 87 146t116 56q33 0 108 -32l54 -25q52 -22 86 -22q31 0 55.5 25.5t56.5 82.5l66 -22q-81 -207 -184 -207q-43 0 -127 37l-50 18q-66 27 -88 27q-33 0 -59 -25.5t-59 -83.5z" />
<glyph unicode="&#xd2;" horiz-adv-x="1415" d="M135 535q0 164 49.5 335t145.5 295q195 250 522 250q253 0 379.5 -137.5t126.5 -376.5q0 -453 -217 -713q-86 -103 -213.5 -160t-261.5 -57q-257 0 -394 144t-137 420zM260 541q0 -471 414 -471q118 0 214 50t158 131.5t104.5 190.5t60.5 222t18 231q0 206 -103.5 314 t-296.5 108q-128 0 -232.5 -57t-174.5 -156q-78 -113 -120 -262.5t-42 -300.5zM602 1786q0 29 22 48t52 19q20 0 40 -17t54 -58l205 -260l-47 -45l-256 210q-70 61 -70 103z" />
<glyph unicode="&#xd3;" horiz-adv-x="1415" d="M135 535q0 164 49.5 335t145.5 295q195 250 522 250q253 0 379.5 -137.5t126.5 -376.5q0 -453 -217 -713q-86 -103 -213.5 -160t-261.5 -57q-257 0 -394 144t-137 420zM260 541q0 -471 414 -471q118 0 214 50t158 131.5t104.5 190.5t60.5 222t18 231q0 206 -103.5 314 t-296.5 108q-128 0 -232.5 -57t-174.5 -156q-78 -113 -120 -262.5t-42 -300.5zM715 1524l256 229q37 34 59 46.5t47 12.5t41.5 -21t16.5 -50q0 -43 -88 -96l-293 -172z" />
<glyph unicode="&#xd4;" horiz-adv-x="1415" d="M135 535q0 164 49.5 335t145.5 295q195 250 522 250q253 0 379.5 -137.5t126.5 -376.5q0 -453 -217 -713q-86 -103 -213.5 -160t-261.5 -57q-257 0 -394 144t-137 420zM260 541q0 -471 414 -471q118 0 214 50t158 131.5t104.5 190.5t60.5 222t18 231q0 206 -103.5 314 t-296.5 108q-128 0 -232.5 -57t-174.5 -156q-78 -113 -120 -262.5t-42 -300.5zM582 1516l274 270q40 37 74 37q21 0 35 -7.5t28 -31.5l170 -279l-47 -41l-207 215l-286 -215z" />
<glyph unicode="&#xd5;" horiz-adv-x="1415" d="M135 535q0 164 49.5 335t145.5 295q195 250 522 250q253 0 379.5 -137.5t126.5 -376.5q0 -453 -217 -713q-86 -103 -213.5 -160t-261.5 -57q-257 0 -394 144t-137 420zM260 541q0 -471 414 -471q118 0 214 50t158 131.5t104.5 190.5t60.5 222t18 231q0 206 -103.5 314 t-296.5 108q-128 0 -232.5 -57t-174.5 -156q-78 -113 -120 -262.5t-42 -300.5zM580 1524q36 90 86.5 146t115.5 56q34 0 109 -32l53 -25q52 -22 86 -22q31 0 56.5 26t56.5 82l65 -22q-81 -207 -184 -207q-43 0 -127 37l-49 18q-66 27 -88 27q-33 0 -59.5 -25.5t-59.5 -83.5z " />
<glyph unicode="&#xd6;" horiz-adv-x="1415" d="M135 535q0 164 49.5 335t145.5 295q195 250 522 250q253 0 379.5 -137.5t126.5 -376.5q0 -453 -217 -713q-86 -103 -213.5 -160t-261.5 -57q-257 0 -394 144t-137 420zM260 541q0 -471 414 -471q118 0 214 50t158 131.5t104.5 190.5t60.5 222t18 231q0 206 -103.5 314 t-296.5 108q-128 0 -232.5 -57t-174.5 -156q-78 -113 -120 -262.5t-42 -300.5zM641 1612q0 38 25.5 65t64.5 27q37 0 59.5 -22.5t22.5 -57.5q0 -41 -25 -70.5t-67 -29.5q-35 0 -57.5 25t-22.5 63zM985 1612q0 38 25.5 65t64.5 27t60.5 -22.5t21.5 -57.5q0 -41 -24.5 -70.5 t-67.5 -29.5q-35 0 -57.5 25t-22.5 63z" />
<glyph unicode="&#xd7;" horiz-adv-x="1224" d="M217 340l358 311l-233 307l90 74l230 -305l348 305l67 -86l-356 -311l233 -311l-88 -74l-233 311l-350 -305z" />
<glyph unicode="&#xd8;" horiz-adv-x="1415" d="M80 2l145 172q-90 137 -90 361q0 164 49.5 335t145.5 295q195 250 522 250q212 0 336 -98l129 151l67 -57l-133 -158q107 -131 107 -352q0 -453 -217 -713q-86 -103 -213.5 -160t-261.5 -57q-247 0 -383 133l-136 -159zM260 541q0 -163 49 -269l801 953q-105 94 -281 94 q-112 0 -207 -45.5t-160.5 -121.5t-112 -177t-68 -211t-21.5 -223zM356 193q106 -125 318 -125q99 0 182.5 35t143 96.5t104.5 141t72 173.5t40 189t13 192q0 158 -62 258z" />
<glyph unicode="&#xd9;" horiz-adv-x="1525" d="M221 1313l17 73q160 -4 270 -4q71 0 235 4l-14 -73q-100 -7 -130 -14t-46 -23q-18 -21 -39 -111q-71 -320 -113 -534q-34 -162 -34 -281q0 -276 338 -276q114 0 212.5 38t149.5 101q51 64 84.5 165t69.5 277q18 79 92 500q10 56 10 90q0 19 -5 29t-12.5 13.5t-25.5 8.5 q-24 5 -139 17l14 73q148 -4 244 -4q98 0 246 4l-17 -73q-94 -3 -131 -13.5t-47 -29.5q-18 -36 -37 -133l-100 -519q-40 -203 -81 -312.5t-110 -178.5q-156 -156 -456 -156q-84 0 -156.5 18t-135 56t-98.5 106.5t-36 161.5q0 110 41 312q66 340 110 534q15 67 15 88 q0 20 -7.5 31t-29.5 18q-37 14 -148 17zM637 1786q0 29 22 48t52 19q20 0 40 -17t54 -58l205 -260l-47 -45l-256 210q-70 61 -70 103z" />
<glyph unicode="&#xda;" horiz-adv-x="1525" d="M221 1313l17 73q160 -4 270 -4q71 0 235 4l-14 -73q-100 -7 -130 -14t-46 -23q-18 -21 -39 -111q-71 -320 -113 -534q-34 -162 -34 -281q0 -276 338 -276q114 0 212.5 38t149.5 101q51 64 84.5 165t69.5 277q18 79 92 500q10 56 10 90q0 19 -5 29t-12.5 13.5t-25.5 8.5 q-24 5 -139 17l14 73q148 -4 244 -4q98 0 246 4l-17 -73q-94 -3 -131 -13.5t-47 -29.5q-18 -36 -37 -133l-100 -519q-40 -203 -81 -312.5t-110 -178.5q-156 -156 -456 -156q-84 0 -156.5 18t-135 56t-98.5 106.5t-36 161.5q0 110 41 312q66 340 110 534q15 67 15 88 q0 20 -7.5 31t-29.5 18q-37 14 -148 17zM791 1524l256 229q37 34 59 46.5t47 12.5t41 -21t16 -50q0 -43 -88 -96l-293 -172z" />
<glyph unicode="&#xdb;" horiz-adv-x="1525" d="M221 1313l17 73q160 -4 270 -4q71 0 235 4l-14 -73q-100 -7 -130 -14t-46 -23q-18 -21 -39 -111q-71 -320 -113 -534q-34 -162 -34 -281q0 -276 338 -276q114 0 212.5 38t149.5 101q51 64 84.5 165t69.5 277q18 79 92 500q10 56 10 90q0 19 -5 29t-12.5 13.5t-25.5 8.5 q-24 5 -139 17l14 73q148 -4 244 -4q98 0 246 4l-17 -73q-94 -3 -131 -13.5t-47 -29.5q-18 -36 -37 -133l-100 -519q-40 -203 -81 -312.5t-110 -178.5q-156 -156 -456 -156q-84 0 -156.5 18t-135 56t-98.5 106.5t-36 161.5q0 110 41 312q66 340 110 534q15 67 15 88 q0 20 -7.5 31t-29.5 18q-37 14 -148 17zM676 1516l274 270q40 37 74 37q21 0 35 -7.5t28 -31.5l170 -279l-47 -41l-206 215l-287 -215z" />
<glyph unicode="&#xdc;" horiz-adv-x="1525" d="M221 1313l17 73q160 -4 270 -4q71 0 235 4l-14 -73q-100 -7 -130 -14t-46 -23q-18 -21 -39 -111q-71 -320 -113 -534q-34 -162 -34 -281q0 -276 338 -276q114 0 212.5 38t149.5 101q51 64 84.5 165t69.5 277q18 79 92 500q10 56 10 90q0 19 -5 29t-12.5 13.5t-25.5 8.5 q-24 5 -139 17l14 73q148 -4 244 -4q98 0 246 4l-17 -73q-94 -3 -131 -13.5t-47 -29.5q-18 -36 -37 -133l-100 -519q-40 -203 -81 -312.5t-110 -178.5q-156 -156 -456 -156q-84 0 -156.5 18t-135 56t-98.5 106.5t-36 161.5q0 110 41 312q66 340 110 534q15 67 15 88 q0 20 -7.5 31t-29.5 18q-37 14 -148 17zM696 1612q0 38 25.5 65t64.5 27q37 0 59.5 -22.5t22.5 -57.5q0 -41 -25 -70.5t-67 -29.5q-35 0 -57.5 25t-22.5 63zM1040 1612q0 38 25.5 65t64.5 27t60.5 -22.5t21.5 -57.5q0 -41 -24.5 -70.5t-67.5 -29.5q-35 0 -57.5 25t-22.5 63z " />
<glyph unicode="&#xdd;" horiz-adv-x="1228" d="M162 1313l16 73q230 -4 234 -4q17 0 235 4l-18 -73q-112 0 -146 -10q-39 -8 -39 -50q0 -29 27 -102q98 -255 184 -487q220 289 383 497q62 77 62 115q0 13 -12 21.5t-38 11.5t-42.5 3.5t-50.5 0.5h-5h-5h-5l16 73q94 -4 244 -4q99 0 189 4l-19 -73q-55 -3 -96 -29 q-27 -16 -98 -104l-484 -602l-71 -367q-13 -70 -13 -90q0 -29 31 -35q42 -6 154 -12l-15 -76q-218 4 -248 4q-65 0 -249 -4l14 76q99 4 128 11t44 24q20 24 35 102l69 364l-229 570q-11 26 -22 56.5t-16 43t-12 24t-15 17.5q-37 24 -117 27zM666 1524l256 229q37 34 59 46.5 t47 12.5t41 -21t16 -50q0 -43 -88 -96l-292 -172z" />
<glyph unicode="&#xde;" horiz-adv-x="1144" d="M2 -2l16 76q90 6 125 13t52 19q12 9 19.5 34.5t21.5 99.5l176 917q14 82 14 96q0 21 -12 30.5t-37 14.5q-56 10 -131 15l14 73q164 -4 240 -4q88 0 272 4l-16 -73q-98 -9 -137.5 -17t-51.5 -20q-22 -25 -37 -119l-8 -43q279 0 365 -14q133 -23 194.5 -104t61.5 -193 q0 -133 -47.5 -231.5t-134.5 -156t-198 -85t-249 -27.5q-104 0 -147 2l-13 -67q-16 -79 -16 -103q0 -37 41 -45q45 -9 166 -16l-17 -76q-172 4 -284 4q-66 0 -242 -4zM383 389q33 -2 117 -2q54 0 100 3.5t99.5 14t96 28t83.5 48t68.5 71.5t44 100.5t16.5 133.5 q0 94 -40 146.5t-116 75.5q-67 22 -225 22h-121z" />
<glyph unicode="&#xdf;" horiz-adv-x="1193" d="M-258 -461q0 60 27 146h67q0 -92 21 -126t92 -34q49 0 92.5 27t69.5 73q52 93 86 287l159 911h-180l17 62q96 13 143 41q24 14 34 33.5t25 82.5q23 99 46 165.5t52 108t50.5 62t60.5 47.5q99 72 266 72q153 0 230.5 -73.5t77.5 -174.5q0 -59 -12.5 -104t-43 -84.5 t-65 -69.5t-94.5 -73q-15 -11 -40.5 -29.5t-38.5 -28t-31.5 -24t-27.5 -24t-19 -21.5t-14 -23t-4 -23q0 -30 23 -59q10 -15 28 -33.5t57 -57t67 -67.5q66 -67 97.5 -124t31.5 -125q0 -144 -102.5 -226t-262.5 -82q-145 0 -223 45q-55 34 -55 107q0 57 22 125h68 q3 -104 36 -133q55 -52 177 -52q103 0 165.5 48.5t63.5 134.5q0 100 -137 237q-82 81 -125 131q-45 53 -45 115q0 50 27 86.5t102 95.5q21 16 60 45t55 41t43.5 35t38.5 36t28 33.5t23 37.5t11 39t5 47q0 83 -54.5 132.5t-164.5 49.5q-156 0 -244 -113q-27 -35 -56 -123 t-48 -192l-201 -1077q-26 -134 -52 -212t-65 -128q-98 -125 -266 -125q-81 0 -131 26q-43 21 -43 76z" />
<glyph unicode="&#xe0;" horiz-adv-x="1128" d="M98 281q0 133 67 289t175 249q154 129 360 129q111 0 201 -55l33 76h90l-123 -477q-57 -225 -57 -336q0 -34 20 -53t70 -19t129 18l-16 -67q-100 -53 -201 -53q-63 0 -89 33t-26 100q0 5 1 21.5t1 21.5q-160 -183 -356 -183q-141 0 -210 79.5t-69 226.5zM215 285 q0 -109 42.5 -160t139.5 -51q160 0 340 176q21 125 47 217l88 336q-83 53 -204 53q-136 0 -256 -104q-83 -70 -140 -202t-57 -265zM500 1423q0 29 23.5 48.5t51.5 19.5q23 0 42.5 -17t50.5 -63l190 -293l-51 -39l-240 244q-38 38 -52.5 57.5t-14.5 42.5z" />
<glyph unicode="&#xe1;" horiz-adv-x="1128" d="M98 281q0 133 67 289t175 249q154 129 360 129q111 0 201 -55l33 76h90l-123 -477q-57 -225 -57 -336q0 -34 20 -53t70 -19t129 18l-16 -67q-100 -53 -201 -53q-63 0 -89 33t-26 100q0 5 1 21.5t1 21.5q-160 -183 -356 -183q-141 0 -210 79.5t-69 226.5zM215 285 q0 -109 42.5 -160t139.5 -51q160 0 340 176q21 125 47 217l88 336q-83 53 -204 53q-136 0 -256 -104q-83 -70 -140 -202t-57 -265zM629 1122l215 279q35 42 55 58t41 16q26 0 48 -18.5t22 -47.5q0 -43 -72 -102l-262 -228z" />
<glyph unicode="&#xe2;" horiz-adv-x="1128" d="M98 281q0 133 67 289t175 249q154 129 360 129q111 0 201 -55l33 76h90l-123 -477q-57 -225 -57 -336q0 -34 20 -53t70 -19t129 18l-16 -67q-100 -53 -201 -53q-63 0 -89 33t-26 100q0 5 1 21.5t1 21.5q-160 -183 -356 -183q-141 0 -210 79.5t-69 226.5zM215 285 q0 -109 42.5 -160t139.5 -51q160 0 340 176q21 125 47 217l88 336q-83 53 -204 53q-136 0 -256 -104q-83 -70 -140 -202t-57 -265zM444 1090l252 305q30 37 70 37q48 0 65 -37l144 -320l-60 -28l-165 239l-263 -239z" />
<glyph unicode="&#xe3;" horiz-adv-x="1128" d="M98 281q0 133 67 289t175 249q154 129 360 129q111 0 201 -55l33 76h90l-123 -477q-57 -225 -57 -336q0 -34 20 -53t70 -19t129 18l-16 -67q-100 -53 -201 -53q-63 0 -89 33t-26 100q0 5 1 21.5t1 21.5q-160 -183 -356 -183q-141 0 -210 79.5t-69 226.5zM215 285 q0 -109 42.5 -160t139.5 -51q160 0 340 176q21 125 47 217l88 336q-83 53 -204 53q-136 0 -256 -104q-83 -70 -140 -202t-57 -265zM446 1143q74 196 189 196q44 0 104 -26l41 -21q61 -26 84 -26q52 0 111 108l59 -22q-71 -203 -174 -203q-43 0 -121 37l-34 14q-70 25 -87 25 q-31 0 -52 -22.5t-58 -84.5z" />
<glyph unicode="&#xe4;" horiz-adv-x="1128" d="M98 281q0 133 67 289t175 249q154 129 360 129q111 0 201 -55l33 76h90l-123 -477q-57 -225 -57 -336q0 -34 20 -53t70 -19t129 18l-16 -67q-100 -53 -201 -53q-63 0 -89 33t-26 100q0 5 1 21.5t1 21.5q-160 -183 -356 -183q-141 0 -210 79.5t-69 226.5zM215 285 q0 -109 42.5 -160t139.5 -51q160 0 340 176q21 125 47 217l88 336q-83 53 -204 53q-136 0 -256 -104q-83 -70 -140 -202t-57 -265zM543 1272q0 38 26 65t66 27q37 0 59.5 -22.5t22.5 -57.5q0 -41 -25 -70.5t-69 -29.5q-35 0 -57.5 24t-22.5 64zM850 1272q0 38 25.5 65 t64.5 27q37 0 59.5 -22.5t22.5 -57.5q0 -41 -25 -70.5t-67 -29.5q-35 0 -57.5 24t-22.5 64z" />
<glyph unicode="&#xe5;" horiz-adv-x="1128" d="M98 281q0 133 67 289t175 249q154 129 360 129q111 0 201 -55l33 76h90l-123 -477q-57 -225 -57 -336q0 -34 20 -53t70 -19t129 18l-16 -67q-100 -53 -201 -53q-63 0 -89 33t-26 100q0 5 1 21.5t1 21.5q-160 -183 -356 -183q-141 0 -210 79.5t-69 226.5zM215 285 q0 -109 42.5 -160t139.5 -51q160 0 340 176q21 125 47 217l88 336q-83 53 -204 53q-136 0 -256 -104q-83 -70 -140 -202t-57 -265zM580 1241q0 89 58 147t144 58q73 0 122.5 -46t49.5 -120q0 -85 -56 -145t-148 -60q-71 0 -120.5 45.5t-49.5 120.5zM655 1247q0 -46 29.5 -75 t71.5 -29q56 0 88.5 34.5t32.5 100.5q0 47 -29.5 73.5t-73.5 26.5q-53 0 -86 -35t-33 -96z" />
<glyph unicode="&#xe6;" horiz-adv-x="1574" d="M98 281q0 133 67 289t175 249q154 129 360 129q45 0 98 -13t87 -38l35 80h86l-45 -170q67 78 158.5 114.5t168.5 36.5q127 0 188.5 -61.5t61.5 -144.5q0 -161 -168 -242.5t-483 -81.5q-6 -41 -6 -88q0 -54 14 -100.5t42 -84.5t76 -59.5t111 -21.5q157 0 342 127l37 -49 q-104 -91 -196 -136t-224 -45q-108 0 -190.5 59t-108.5 177q-80 -100 -184.5 -166t-224.5 -66q-277 0 -277 306zM215 285q0 -211 180 -211q82 0 183.5 60t191.5 161q0 97 86 512q-85 49 -188 49q-136 0 -256 -104q-83 -70 -140 -202t-57 -265zM899 504q255 9 388.5 71.5 t133.5 157.5q0 64 -33.5 99.5t-125.5 35.5q-40 0 -100.5 -24t-100.5 -58q-61 -49 -102.5 -112.5t-59.5 -169.5z" />
<glyph unicode="&#xe7;" horiz-adv-x="942" d="M100 336q0 149 53.5 283.5t161.5 222.5q137 114 332 114q96 0 152 -22q75 -31 75 -105q0 -28 -8.5 -77t-19.5 -80h-68q0 116 -33 149q-43 43 -131 43q-140 0 -241 -96q-70 -67 -114 -178.5t-44 -222.5q0 -291 256 -291q147 0 320 127l49 -66q-178 -157 -394 -166 q-22 -46 -22 -63q0 -34 27 -47q69 -33 93.5 -66t24.5 -90q0 -99 -99.5 -166.5t-252.5 -85.5l-10 72q239 45 239 153q0 34 -18 57t-63 50q-18 11 -24.5 21.5t-6.5 31.5q0 44 49 135q-134 15 -208.5 111t-74.5 252z" />
<glyph unicode="&#xe8;" horiz-adv-x="897" d="M100 319q0 278 146 458.5t364 180.5q65 0 115 -18.5t78.5 -49t42.5 -65.5t14 -73q0 -161 -164.5 -242.5t-478.5 -81.5q-4 -27 -4 -88q0 -113 61.5 -188.5t184.5 -75.5q91 0 164.5 28.5t175.5 98.5l47 -66q-100 -82 -197.5 -124t-232.5 -42q-60 0 -114.5 20.5t-100.5 60.5 t-73.5 109t-27.5 158zM229 504q259 9 386.5 71t127.5 162q0 131 -149 131q-123 0 -226 -97.5t-139 -266.5zM338 1423q0 29 24 48.5t52 19.5q23 0 42 -16.5t50 -63.5l190 -293l-51 -39l-239 244q-28 28 -38.5 39.5t-20 28t-9.5 32.5z" />
<glyph unicode="&#xe9;" horiz-adv-x="897" d="M100 319q0 278 146 458.5t364 180.5q65 0 115 -18.5t78.5 -49t42.5 -65.5t14 -73q0 -161 -164.5 -242.5t-478.5 -81.5q-4 -27 -4 -88q0 -113 61.5 -188.5t184.5 -75.5q91 0 164.5 28.5t175.5 98.5l47 -66q-100 -82 -197.5 -124t-232.5 -42q-60 0 -114.5 20.5t-100.5 60.5 t-73.5 109t-27.5 158zM229 504q259 9 386.5 71t127.5 162q0 131 -149 131q-123 0 -226 -97.5t-139 -266.5zM518 1122l215 279q35 42 55 58t41 16q26 0 48 -18.5t22 -47.5q0 -43 -72 -102l-262 -228z" />
<glyph unicode="&#xea;" horiz-adv-x="897" d="M100 319q0 278 146 458.5t364 180.5q65 0 115 -18.5t78.5 -49t42.5 -65.5t14 -73q0 -161 -164.5 -242.5t-478.5 -81.5q-4 -27 -4 -88q0 -113 61.5 -188.5t184.5 -75.5q91 0 164.5 28.5t175.5 98.5l47 -66q-100 -82 -197.5 -124t-232.5 -42q-60 0 -114.5 20.5t-100.5 60.5 t-73.5 109t-27.5 158zM229 504q259 9 386.5 71t127.5 162q0 131 -149 131q-123 0 -226 -97.5t-139 -266.5zM356 1090l252 305q30 37 70 37q48 0 65 -37l144 -320l-60 -28l-165 239l-263 -239z" />
<glyph unicode="&#xeb;" horiz-adv-x="897" d="M100 319q0 278 146 458.5t364 180.5q65 0 115 -18.5t78.5 -49t42.5 -65.5t14 -73q0 -161 -164.5 -242.5t-478.5 -81.5q-4 -27 -4 -88q0 -113 61.5 -188.5t184.5 -75.5q91 0 164.5 28.5t175.5 98.5l47 -66q-100 -82 -197.5 -124t-232.5 -42q-60 0 -114.5 20.5t-100.5 60.5 t-73.5 109t-27.5 158zM229 504q259 9 386.5 71t127.5 162q0 131 -149 131q-123 0 -226 -97.5t-139 -266.5zM430 1272q0 38 26 65t66 27q37 0 59.5 -22.5t22.5 -57.5q0 -41 -25 -70.5t-69 -29.5q-35 0 -57.5 24t-22.5 64zM737 1272q0 38 25.5 65t64.5 27q37 0 59.5 -22.5 t22.5 -57.5q0 -41 -25 -70.5t-67 -29.5q-35 0 -57.5 24t-22.5 64z" />
<glyph unicode="&#xec;" horiz-adv-x="593" d="M100 1423q0 29 24 48.5t52 19.5q23 0 42 -16.5t50 -63.5l191 -293l-51 -39l-240 244q-28 28 -38.5 39.5t-20 28t-9.5 32.5zM123 831l12 66q95 51 189 51q45 0 71.5 -19.5t26.5 -72.5q0 -23 -6.5 -65t-13 -73.5t-17.5 -80t-12 -55.5l-60 -258q-28 -118 -28 -168 q0 -37 16.5 -54.5t60.5 -17.5q77 0 144 18l-14 -67q-114 -53 -209 -53q-48 0 -82.5 23.5t-34.5 84.5q0 41 29 176l55 254q43 198 43 248q0 41 -17.5 56.5t-64.5 15.5q-43 0 -88 -9z" />
<glyph unicode="&#xed;" horiz-adv-x="593" d="M123 831l12 66q95 51 189 51q45 0 71.5 -19.5t26.5 -72.5q0 -23 -6.5 -65t-13 -73.5t-17.5 -80t-12 -55.5l-60 -258q-28 -118 -28 -168q0 -37 16.5 -54.5t60.5 -17.5q77 0 144 18l-14 -67q-114 -53 -209 -53q-48 0 -82.5 23.5t-34.5 84.5q0 41 29 176l55 254 q43 198 43 248q0 41 -17.5 56.5t-64.5 15.5q-43 0 -88 -9zM244 1122l215 279q35 42 55 58t41 16q26 0 48 -18.5t22 -47.5q0 -43 -72 -102l-262 -228z" />
<glyph unicode="&#xee;" horiz-adv-x="593" d="M88 1090l252 305q30 37 70 37q48 0 65 -37l143 -320l-59 -28l-166 239l-262 -239zM123 831l12 66q95 51 189 51q45 0 71.5 -19.5t26.5 -72.5q0 -23 -6.5 -65t-13 -73.5t-17.5 -80t-12 -55.5l-60 -258q-28 -118 -28 -168q0 -37 16.5 -54.5t60.5 -17.5q77 0 144 18l-14 -67 q-114 -53 -209 -53q-48 0 -82.5 23.5t-34.5 84.5q0 41 29 176l55 254q43 198 43 248q0 41 -17.5 56.5t-64.5 15.5q-43 0 -88 -9z" />
<glyph unicode="&#xef;" horiz-adv-x="593" d="M123 831l12 66q95 51 189 51q45 0 71.5 -19.5t26.5 -72.5q0 -23 -6.5 -65t-13 -73.5t-17.5 -80t-12 -55.5l-60 -258q-28 -118 -28 -168q0 -37 16.5 -54.5t60.5 -17.5q77 0 144 18l-14 -67q-114 -53 -209 -53q-48 0 -82.5 23.5t-34.5 84.5q0 41 29 176l55 254 q43 198 43 248q0 41 -17.5 56.5t-64.5 15.5q-43 0 -88 -9zM158 1272q0 38 26 65t66 27q37 0 59.5 -22.5t22.5 -57.5q0 -41 -25 -70.5t-69 -29.5q-35 0 -57.5 24t-22.5 64zM465 1272q0 38 25.5 65t64.5 27q37 0 59.5 -22.5t22.5 -57.5q0 -41 -25 -70.5t-67 -29.5 q-35 0 -57.5 24t-22.5 64z" />
<glyph unicode="&#xf0;" horiz-adv-x="1042" d="M100 356q0 112 33 222t103 196q64 79 160 121.5t206 42.5q159 0 238 -98q-11 73 -48.5 168.5t-74.5 140.5l-262 -145l-39 69l252 139q-43 67 -123.5 128t-161.5 98l43 65q204 -87 332 -235l200 106l39 -71l-190 -103q72 -109 109.5 -254.5t37.5 -294.5 q0 -166 -30.5 -290.5t-122.5 -237.5q-60 -71 -150 -110.5t-180 -39.5q-178 0 -274.5 97t-96.5 286zM215 369q0 -297 270 -297q70 0 132 29.5t104 80.5q121 153 121 400q0 264 -258 264q-173 0 -265 -129q-104 -139 -104 -348z" />
<glyph unicode="&#xf1;" horiz-adv-x="1132" d="M119 831l14 66q92 51 172 51q46 0 71 -26.5t25 -96.5q0 -37 -4 -57q71 85 172.5 135.5t206.5 50.5q85 0 137 -39t52 -122q0 -71 -23 -177l-70 -286q-28 -122 -28 -174q0 -36 18 -54t60 -18q80 0 143 18l-16 -67q-111 -53 -209 -53q-111 0 -111 106q0 62 25 176l80 350 q14 65 14 117q0 65 -33 90t-96 25q-152 0 -328 -152q-9 -70 -26 -147l-127 -547h-105l115 520q39 176 39 236q0 45 -20 64.5t-66 19.5q-37 0 -82 -9zM381 1143q74 196 188 196q45 0 105 -26l41 -21q61 -26 84 -26q51 0 110 108l60 -22q-71 -203 -174 -203q-43 0 -121 37 l-35 14q-70 25 -86 25q-31 0 -52.5 -23t-58.5 -84z" />
<glyph unicode="&#xf2;" horiz-adv-x="1042" d="M100 356q0 111 34.5 227.5t101.5 204.5q63 82 157.5 126t208.5 44q176 0 264 -94t88 -258q0 -134 -37 -260.5t-116 -222.5q-60 -71 -150 -110.5t-180 -39.5q-178 0 -274.5 97t-96.5 286zM215 369q0 -297 270 -297q70 0 132 29.5t104 80.5q61 78 91 186t30 224 q0 270 -258 270q-173 0 -265 -129q-52 -70 -78 -167t-26 -197zM401 1423q0 29 24 48.5t52 19.5q23 0 42 -16.5t50 -63.5l191 -293l-51 -39l-240 244q-28 28 -38.5 39.5t-20 28t-9.5 32.5z" />
<glyph unicode="&#xf3;" horiz-adv-x="1042" d="M100 356q0 111 34.5 227.5t101.5 204.5q63 82 157.5 126t208.5 44q176 0 264 -94t88 -258q0 -134 -37 -260.5t-116 -222.5q-60 -71 -150 -110.5t-180 -39.5q-178 0 -274.5 97t-96.5 286zM215 369q0 -297 270 -297q70 0 132 29.5t104 80.5q61 78 91 186t30 224 q0 270 -258 270q-173 0 -265 -129q-52 -70 -78 -167t-26 -197zM520 1122l215 279q35 42 55 58t41 16q26 0 48 -18.5t22 -47.5q0 -43 -72 -102l-262 -228z" />
<glyph unicode="&#xf4;" horiz-adv-x="1042" d="M100 356q0 111 34.5 227.5t101.5 204.5q63 82 157.5 126t208.5 44q176 0 264 -94t88 -258q0 -134 -37 -260.5t-116 -222.5q-60 -71 -150 -110.5t-180 -39.5q-178 0 -274.5 97t-96.5 286zM215 369q0 -297 270 -297q70 0 132 29.5t104 80.5q61 78 91 186t30 224 q0 270 -258 270q-173 0 -265 -129q-52 -70 -78 -167t-26 -197zM371 1090l252 305q30 37 69 37q49 0 66 -37l143 -320l-59 -28l-166 239l-262 -239z" />
<glyph unicode="&#xf5;" horiz-adv-x="1042" d="M100 356q0 111 34.5 227.5t101.5 204.5q63 82 157.5 126t208.5 44q176 0 264 -94t88 -258q0 -134 -37 -260.5t-116 -222.5q-60 -71 -150 -110.5t-180 -39.5q-178 0 -274.5 97t-96.5 286zM215 369q0 -297 270 -297q70 0 132 29.5t104 80.5q61 78 91 186t30 224 q0 270 -258 270q-173 0 -265 -129q-52 -70 -78 -167t-26 -197zM352 1143q74 196 189 196q44 0 104 -26l41 -21q61 -26 84 -26q52 0 111 108l59 -22q-71 -203 -174 -203q-43 0 -121 37l-35 14q-70 25 -86 25q-31 0 -52 -22.5t-58 -84.5z" />
<glyph unicode="&#xf6;" horiz-adv-x="1042" d="M100 356q0 111 34.5 227.5t101.5 204.5q63 82 157.5 126t208.5 44q176 0 264 -94t88 -258q0 -134 -37 -260.5t-116 -222.5q-60 -71 -150 -110.5t-180 -39.5q-178 0 -274.5 97t-96.5 286zM215 369q0 -297 270 -297q70 0 132 29.5t104 80.5q61 78 91 186t30 224 q0 270 -258 270q-173 0 -265 -129q-52 -70 -78 -167t-26 -197zM426 1272q0 38 26 65t66 27q37 0 59.5 -22.5t22.5 -57.5q0 -41 -25 -70.5t-69 -29.5q-35 0 -57.5 24t-22.5 64zM733 1272q0 38 25.5 65t64.5 27q37 0 59.5 -22.5t22.5 -57.5q0 -41 -25 -70.5t-67 -29.5 q-35 0 -57.5 24t-22.5 64z" />
<glyph unicode="&#xf7;" horiz-adv-x="1177" d="M154 580l22 116h909l-24 -116h-907zM459 307q2 46 29 76.5t67 30.5q36 0 56 -22t20 -58q-2 -45 -29.5 -77t-69.5 -32q-34 0 -53.5 23.5t-19.5 58.5zM604 942q0 44 29.5 74.5t68.5 30.5q36 0 56 -23.5t20 -62.5q0 -41 -30 -71t-70 -30q-32 0 -53 23.5t-21 58.5z" />
<glyph unicode="&#xf8;" horiz-adv-x="1042" d="M43 -6l113 127q-56 92 -56 235q0 111 34.5 227.5t101.5 204.5q63 82 157.5 126t208.5 44q145 0 234 -67l102 117l61 -56l-108 -121q63 -86 63 -225q0 -134 -37 -260.5t-116 -222.5q-60 -71 -150 -110.5t-180 -39.5q-172 0 -266 88l-103 -116zM215 369q0 -91 25 -154 l522 594q-65 53 -178 53q-173 0 -265 -129q-52 -70 -78 -167t-26 -197zM281 145q64 -73 204 -73q70 0 132 29.5t104 80.5q61 78 91 186t30 224q0 85 -29 151z" />
<glyph unicode="&#xf9;" horiz-adv-x="1185" d="M143 831l15 66q95 51 186 51q47 0 73.5 -19t26.5 -73q0 -23 -34 -190l-82 -349q-15 -69 -15 -116q0 -65 33.5 -91t95.5 -26q150 0 328 154q7 52 33 176l119 516h106l-115 -518q-36 -167 -36 -246q0 -42 19.5 -62t64.5 -20q13 0 65 6.5t68 9.5l-17 -63q-51 -27 -107.5 -41 t-95.5 -14q-46 0 -80 29.5t-34 90.5q0 39 4 62q-72 -88 -168 -138.5t-199 -50.5q-85 0 -141.5 42t-56.5 124q0 81 20 174l72 299q24 101 24 150q0 45 -17.5 60.5t-64.5 15.5q-38 0 -90 -9zM416 1423q0 29 24 48.5t52 19.5q23 0 42 -16.5t50 -63.5l190 -293l-51 -39l-240 244 q-38 38 -52.5 57.5t-14.5 42.5z" />
<glyph unicode="&#xfa;" horiz-adv-x="1185" d="M143 831l15 66q95 51 186 51q47 0 73.5 -19t26.5 -73q0 -23 -34 -190l-82 -349q-15 -69 -15 -116q0 -65 33.5 -91t95.5 -26q150 0 328 154q7 52 33 176l119 516h106l-115 -518q-36 -167 -36 -246q0 -42 19.5 -62t64.5 -20q13 0 65 6.5t68 9.5l-17 -63q-51 -27 -107.5 -41 t-95.5 -14q-46 0 -80 29.5t-34 90.5q0 39 4 62q-72 -88 -168 -138.5t-199 -50.5q-85 0 -141.5 42t-56.5 124q0 81 20 174l72 299q24 101 24 150q0 45 -17.5 60.5t-64.5 15.5q-38 0 -90 -9zM559 1122l215 279q35 42 55 58t41 16q26 0 48 -18.5t22 -47.5q0 -43 -72 -102 l-262 -228z" />
<glyph unicode="&#xfb;" horiz-adv-x="1185" d="M143 831l15 66q95 51 186 51q47 0 73.5 -19t26.5 -73q0 -23 -34 -190l-82 -349q-15 -69 -15 -116q0 -65 33.5 -91t95.5 -26q150 0 328 154q7 52 33 176l119 516h106l-115 -518q-36 -167 -36 -246q0 -42 19.5 -62t64.5 -20q13 0 65 6.5t68 9.5l-17 -63q-51 -27 -107.5 -41 t-95.5 -14q-46 0 -80 29.5t-34 90.5q0 39 4 62q-72 -88 -168 -138.5t-199 -50.5q-85 0 -141.5 42t-56.5 124q0 81 20 174l72 299q24 101 24 150q0 45 -17.5 60.5t-64.5 15.5q-38 0 -90 -9zM414 1090l252 305q30 37 69 37q49 0 66 -37l143 -320l-59 -28l-166 239l-262 -239z " />
<glyph unicode="&#xfc;" horiz-adv-x="1185" d="M143 831l15 66q95 51 186 51q47 0 73.5 -19t26.5 -73q0 -23 -34 -190l-82 -349q-15 -69 -15 -116q0 -65 33.5 -91t95.5 -26q150 0 328 154q7 52 33 176l119 516h106l-115 -518q-36 -167 -36 -246q0 -42 19.5 -62t64.5 -20q13 0 65 6.5t68 9.5l-17 -63q-51 -27 -107.5 -41 t-95.5 -14q-46 0 -80 29.5t-34 90.5q0 39 4 62q-72 -88 -168 -138.5t-199 -50.5q-85 0 -141.5 42t-56.5 124q0 81 20 174l72 299q24 101 24 150q0 45 -17.5 60.5t-64.5 15.5q-38 0 -90 -9zM459 1272q0 38 26 65t66 27q37 0 59.5 -22.5t22.5 -57.5q0 -41 -25 -70.5t-69 -29.5 q-35 0 -57.5 24t-22.5 64zM766 1272q0 38 25.5 65t64.5 27q37 0 59.5 -22.5t22.5 -57.5q0 -41 -25 -70.5t-67 -29.5q-35 0 -57.5 24t-22.5 64z" />
<glyph unicode="&#xfd;" horiz-adv-x="1189" d="M100 -446q0 60 27 163h70q-2 -23 -2 -59q3 -61 36 -88q47 -43 148 -43q82 0 144.5 33t94.5 96q54 107 115 371q6 30 19 84t14 57q-169 -193 -379 -193q-85 0 -133.5 41.5t-48.5 124.5q0 84 20 176l66 297q24 118 24 150q0 45 -17.5 60.5t-64.5 15.5q-38 0 -90 -9l15 66 q95 51 186 51q47 0 73.5 -19t26.5 -73q0 -23 -34 -190l-76 -349q-15 -69 -15 -116q0 -67 26.5 -92t90.5 -25q75 0 166 48.5t176 125.5l140 672h110q-39 -181 -102.5 -506.5t-94.5 -474.5q-32 -161 -67.5 -250t-89.5 -143q-119 -119 -320 -119q-142 0 -213 47q-41 26 -41 70z M553 1122l215 279q35 42 55 58t41 16q26 0 48 -18.5t22 -47.5q0 -43 -72 -102l-262 -228z" />
<glyph unicode="&#xfe;" horiz-adv-x="1122" d="M4 -535l350 1594q37 185 37 258q0 44 -18 60t-66 16q-21 0 -84 -11l15 66q95 49 190 49q46 0 72 -19.5t26 -70.5q0 -20 -16 -113q-78 -359 -123 -518q68 72 166 124t201 52q135 0 199.5 -78t64.5 -217q0 -131 -37 -261.5t-119 -231.5q-151 -187 -416 -187q-120 0 -221 29 l-114 -541h-107zM252 113q67 -39 223 -39q99 0 181 47t134 124t80.5 173.5t28.5 199.5q0 107 -45 168.5t-154 61.5q-72 0 -156.5 -43t-160.5 -109z" />
<glyph unicode="&#xff;" horiz-adv-x="1189" d="M100 -446q0 60 27 163h70q-2 -23 -2 -59q3 -61 36 -88q47 -43 148 -43q82 0 144.5 33t94.5 96q54 107 115 371q6 30 19 84t14 57q-169 -193 -379 -193q-85 0 -133.5 41.5t-48.5 124.5q0 84 20 176l66 297q24 118 24 150q0 45 -17.5 60.5t-64.5 15.5q-38 0 -90 -9l15 66 q95 51 186 51q47 0 73.5 -19t26.5 -73q0 -23 -34 -190l-76 -349q-15 -69 -15 -116q0 -67 26.5 -92t90.5 -25q75 0 166 48.5t176 125.5l140 672h110q-39 -181 -102.5 -506.5t-94.5 -474.5q-32 -161 -67.5 -250t-89.5 -143q-119 -119 -320 -119q-142 0 -213 47q-41 26 -41 70z M473 1272q0 38 26 65t66 27q37 0 59.5 -22.5t22.5 -57.5q0 -41 -25 -70.5t-69 -29.5q-35 0 -57.5 24t-22.5 64zM780 1272q0 38 25.5 65t64.5 27q37 0 59.5 -22.5t22.5 -57.5q0 -41 -25 -70.5t-67 -29.5q-35 0 -57.5 24t-22.5 64z" />
<glyph unicode="&#x100;" horiz-adv-x="1411" d="M-76 -2l19 78q101 5 137 30q20 13 39.5 40t70.5 114l641 1104q34 57 82 57q26 0 41 -12t21 -45l176 -1126q15 -108 43 -136q19 -22 141 -26l-16 -78q-126 4 -264 4q-104 0 -236 -4l17 78q87 0 133 12q37 9 51 26t14 50q0 36 -8 98l-39 254h-538l-142 -246 q-59 -98 -59 -137q0 -23 14 -35q23 -16 178 -22l-18 -78q-114 4 -268 4q-108 0 -230 -4zM498 606h477q-52 340 -101 670q-119 -224 -376 -670zM639 1556l23 111h552l-20 -111h-555z" />
<glyph unicode="&#x101;" horiz-adv-x="1128" d="M98 281q0 133 67 289t175 249q154 129 360 129q111 0 201 -55l33 76h90l-123 -477q-57 -225 -57 -336q0 -34 20 -53t70 -19t129 18l-16 -67q-100 -53 -201 -53q-63 0 -89 33t-26 100q0 5 1 21.5t1 21.5q-160 -183 -356 -183q-141 0 -210 79.5t-69 226.5zM215 285 q0 -109 42.5 -160t139.5 -51q160 0 340 176q21 125 47 217l88 336q-83 53 -204 53q-136 0 -256 -104q-83 -70 -140 -202t-57 -265zM518 1151l21 111h499l-20 -111h-500z" />
<glyph unicode="&#x102;" horiz-adv-x="1411" d="M-76 -2l19 78q101 5 137 30q20 13 39.5 40t70.5 114l641 1104q34 57 82 57q26 0 41 -12t21 -45l176 -1126q15 -108 43 -136q19 -22 141 -26l-16 -78q-126 4 -264 4q-104 0 -236 -4l17 78q87 0 133 12q37 9 51 26t14 50q0 36 -8 98l-39 254h-538l-142 -246 q-59 -98 -59 -137q0 -23 14 -35q23 -16 178 -22l-18 -78q-114 4 -268 4q-108 0 -230 -4zM498 606h477q-52 340 -101 670q-119 -224 -376 -670zM653 1749q0 31 2 45l72 4q0 -88 50 -136t145 -48q185 0 239 184l68 -2q-17 -142 -106.5 -218.5t-215.5 -76.5q-116 0 -185 59.5 t-69 188.5z" />
<glyph unicode="&#x103;" horiz-adv-x="1128" d="M98 281q0 133 67 289t175 249q154 129 360 129q111 0 201 -55l33 76h90l-123 -477q-57 -225 -57 -336q0 -34 20 -53t70 -19t129 18l-16 -67q-100 -53 -201 -53q-63 0 -89 33t-26 100q0 5 1 21.5t1 21.5q-160 -183 -356 -183q-141 0 -210 79.5t-69 226.5zM215 285 q0 -109 42.5 -160t139.5 -51q160 0 340 176q21 125 47 217l88 336q-83 53 -204 53q-136 0 -256 -104q-83 -70 -140 -202t-57 -265zM483 1319q0 42 4 67l70 7q0 -187 154 -187q82 0 135 45.5t84 141.5l67 -7q-21 -144 -97 -218t-191 -74q-226 0 -226 225z" />
<glyph unicode="&#x104;" horiz-adv-x="1411" d="M-76 -2l19 78q101 5 137 30q20 13 39.5 40t70.5 114l641 1104q34 57 82 57q26 0 41 -12t21 -45l176 -1126q15 -108 43 -136q19 -22 141 -26l-16 -78q-37 2 -160 2q-99 -105 -144.5 -184t-45.5 -146q0 -59 30.5 -91t85.5 -32q29 0 73 9.5t69 21.5l30 -63 q-111 -76 -213 -76q-95 0 -142.5 57.5t-47.5 143.5q0 91 51 170.5t170 191.5h-20q-104 0 -236 -4l17 78q87 0 133 12q37 9 51 26t14 50q0 36 -8 98l-39 254h-538l-142 -246q-59 -98 -59 -137q0 -23 14 -35q23 -16 178 -22l-18 -78q-114 4 -268 4q-108 0 -230 -4zM498 606 h477q-52 340 -101 670q-119 -224 -376 -670z" />
<glyph unicode="&#x105;" horiz-adv-x="1128" d="M98 281q0 133 67 289t175 249q154 129 360 129q111 0 201 -55l33 76h90l-123 -477q-57 -225 -57 -336q0 -34 20 -53t70 -19t129 18l-16 -67q-91 -49 -191 -53q-89 -79 -144 -156t-55 -162q0 -47 31.5 -75.5t81.5 -28.5q60 0 135 30l23 -57q-108 -74 -203 -74 q-86 0 -132 51t-46 125q0 103 60.5 185t178.5 174q-55 21 -55 121q0 5 1 21.5t1 21.5q-160 -183 -356 -183q-141 0 -210 79.5t-69 226.5zM215 285q0 -109 42.5 -160t139.5 -51q160 0 340 176q21 125 47 217l88 336q-83 53 -204 53q-136 0 -256 -104q-83 -70 -140 -202 t-57 -265z" />
<glyph unicode="&#x106;" horiz-adv-x="1345" d="M135 543q0 340 211 600q113 135 272.5 203.5t352.5 68.5q183 0 297 -43q42 -14 58.5 -41.5t16.5 -73.5q0 -50 -28 -198h-72q0 135 -41 188q-51 68 -260 68q-151 0 -282 -59t-224 -175q-84 -103 -128 -240.5t-44 -279.5q0 -242 130.5 -365.5t353.5 -123.5q97 0 173 22 t119 53q57 40 121 170h74q-7 -41 -26 -99.5t-35 -88.5q-45 -88 -138 -115q-146 -43 -313 -43q-268 0 -428 152.5t-160 419.5zM758 1524l256 229q37 34 59 46.5t47 12.5t41.5 -21t16.5 -50q0 -43 -88 -96l-293 -172z" />
<glyph unicode="&#x107;" horiz-adv-x="942" d="M100 336q0 149 53.5 283.5t161.5 222.5q137 114 332 114q96 0 152 -22q75 -31 75 -105q0 -28 -8.5 -77t-19.5 -80h-68q0 116 -33 149q-43 43 -131 43q-140 0 -241 -96q-70 -67 -114 -178.5t-44 -222.5q0 -291 256 -291q147 0 320 127l49 -66q-192 -166 -410 -166 q-155 0 -242.5 98t-87.5 267zM559 1122l215 279q35 42 55 58t41 16q26 0 48 -18.5t22 -47.5q0 -43 -72 -102l-262 -228z" />
<glyph unicode="&#x108;" horiz-adv-x="1345" d="M135 543q0 340 211 600q113 135 272.5 203.5t352.5 68.5q183 0 297 -43q42 -14 58.5 -41.5t16.5 -73.5q0 -50 -28 -198h-72q0 135 -41 188q-51 68 -260 68q-151 0 -282 -59t-224 -175q-84 -103 -128 -240.5t-44 -279.5q0 -242 130.5 -365.5t353.5 -123.5q97 0 173 22 t119 53q57 40 121 170h74q-7 -41 -26 -99.5t-35 -88.5q-45 -88 -138 -115q-146 -43 -313 -43q-268 0 -428 152.5t-160 419.5zM672 1516l274 270q40 37 74 37q21 0 35 -7.5t28 -31.5l170 -279l-47 -41l-207 215l-286 -215z" />
<glyph unicode="&#x109;" horiz-adv-x="942" d="M100 336q0 149 53.5 283.5t161.5 222.5q137 114 332 114q96 0 152 -22q75 -31 75 -105q0 -28 -8.5 -77t-19.5 -80h-68q0 116 -33 149q-43 43 -131 43q-140 0 -241 -96q-70 -67 -114 -178.5t-44 -222.5q0 -291 256 -291q147 0 320 127l49 -66q-192 -166 -410 -166 q-155 0 -242.5 98t-87.5 267zM381 1090l252 305q30 37 69 37q49 0 66 -37l143 -320l-59 -28l-166 239l-262 -239z" />
<glyph unicode="&#x10a;" horiz-adv-x="1345" d="M135 543q0 340 211 600q113 135 272.5 203.5t352.5 68.5q183 0 297 -43q42 -14 58.5 -41.5t16.5 -73.5q0 -50 -28 -198h-72q0 135 -41 188q-51 68 -260 68q-151 0 -282 -59t-224 -175q-84 -103 -128 -240.5t-44 -279.5q0 -242 130.5 -365.5t353.5 -123.5q97 0 173 22 t119 53q57 40 121 170h74q-7 -41 -26 -99.5t-35 -88.5q-45 -88 -138 -115q-146 -43 -313 -43q-268 0 -428 152.5t-160 419.5zM881 1612q0 38 25.5 65t64.5 27t60.5 -22.5t21.5 -57.5q0 -41 -25 -70.5t-67 -29.5q-35 0 -57.5 25t-22.5 63z" />
<glyph unicode="&#x10b;" horiz-adv-x="942" d="M100 336q0 149 53.5 283.5t161.5 222.5q137 114 332 114q96 0 152 -22q75 -31 75 -105q0 -28 -8.5 -77t-19.5 -80h-68q0 116 -33 149q-43 43 -131 43q-140 0 -241 -96q-70 -67 -114 -178.5t-44 -222.5q0 -291 256 -291q147 0 320 127l49 -66q-192 -166 -410 -166 q-155 0 -242.5 98t-87.5 267zM588 1272q0 38 25.5 65t64.5 27t60.5 -22.5t21.5 -57.5q0 -41 -25 -70.5t-67 -29.5q-35 0 -57.5 24t-22.5 64z" />
<glyph unicode="&#x10c;" horiz-adv-x="1345" d="M135 543q0 340 211 600q113 135 272.5 203.5t352.5 68.5q183 0 297 -43q42 -14 58.5 -41.5t16.5 -73.5q0 -50 -28 -198h-72q0 135 -41 188q-51 68 -260 68q-151 0 -282 -59t-224 -175q-84 -103 -128 -240.5t-44 -279.5q0 -242 130.5 -365.5t353.5 -123.5q97 0 173 22 t119 53q57 40 121 170h74q-7 -41 -26 -99.5t-35 -88.5q-45 -88 -138 -115q-146 -43 -313 -43q-268 0 -428 152.5t-160 419.5zM721 1786l47 41l207 -213l287 213l41 -49l-273 -273q-40 -37 -74 -37q-23 0 -37 7.5t-28 31.5z" />
<glyph unicode="&#x10d;" horiz-adv-x="942" d="M100 336q0 149 53.5 283.5t161.5 222.5q137 114 332 114q96 0 152 -22q75 -31 75 -105q0 -28 -8.5 -77t-19.5 -80h-68q0 116 -33 149q-43 43 -131 43q-140 0 -241 -96q-70 -67 -114 -178.5t-44 -222.5q0 -291 256 -291q147 0 320 127l49 -66q-192 -166 -410 -166 q-155 0 -242.5 98t-87.5 267zM418 1403l57 29l166 -240l264 240l43 -46l-252 -303q-31 -36 -71 -36q-51 0 -66 36z" />
<glyph unicode="&#x10e;" horiz-adv-x="1474" d="M2 -2l16 76q90 4 126.5 11.5t52.5 23.5q11 10 17 30.5t19 89.5l179 926q14 75 14 100q0 20 -12.5 29t-36.5 14q-32 8 -131 15l14 71h318q207 0 338.5 -15.5t199.5 -41.5t129 -72q79 -61 124.5 -167.5t45.5 -227.5q0 -489 -330 -723q-102 -73 -243.5 -106t-358.5 -33h-481 zM340 160q0 -50 49 -58q53 -10 195 -10q168 0 302 55.5t220.5 154t132 231.5t45.5 290q0 134 -47.5 239t-130.5 152q-139 80 -406 80h-145l-209 -1093q-6 -30 -6 -41zM563 1786l47 41l207 -213l287 213l41 -49l-273 -273q-40 -37 -73 -37q-23 0 -37.5 7.5t-28.5 31.5z" />
<glyph unicode="&#x10f;" horiz-adv-x="1161" d="M98 301q0 144 61.5 290t168.5 236q148 127 381 127q107 0 194 -47l31 133q47 223 47 275q0 44 -19 61t-65 17q-21 0 -84 -11l12 66q98 49 193 49q45 0 70.5 -19.5t25.5 -70.5q0 -43 -63 -320l-150 -667q-37 -164 -37 -264q0 -72 86 -72q48 0 131 18l-16 -67 q-48 -26 -104 -39.5t-99 -13.5q-114 0 -114 116q0 27 2 62q-77 -89 -168.5 -137t-186.5 -48q-154 0 -225.5 87t-71.5 239zM215 322q0 -123 50 -185.5t161 -62.5q86 0 173.5 53t156.5 125q8 43 27.5 128t23.5 103l74 322q-93 59 -213 59q-165 0 -273 -108 q-75 -75 -127.5 -198t-52.5 -236zM1135 1145q91 31 133.5 68.5t42.5 70.5q0 34 -21 55q-41 41 -41 74q0 39 26.5 62.5t72.5 23.5q43 0 69.5 -31.5t26.5 -83.5q0 -211 -289 -301z" />
<glyph unicode="&#x110;" horiz-adv-x="1474" d="M2 -2l16 76q96 8 130.5 14.5t48.5 20.5q11 10 17 30.5t19 89.5l86 449h-202l18 94h203l74 383q14 75 14 100q0 20 -12.5 29t-36.5 14q-32 8 -131 15l14 71h318q207 0 338.5 -15.5t199.5 -41.5t129 -72q79 -61 124.5 -167.5t45.5 -227.5q0 -489 -330 -723 q-102 -73 -243.5 -106t-358.5 -33h-481zM340 160q0 -49 49 -58q53 -10 195 -10q168 0 302 55.5t220.5 154t132 231.5t45.5 290q0 134 -47.5 239t-130.5 152q-139 80 -406 80h-145l-100 -522h407l-20 -94h-406l-90 -477q-6 -30 -6 -41z" />
<glyph unicode="&#x111;" horiz-adv-x="1161" d="M98 301q0 144 61.5 290t168.5 236q148 127 381 127q107 0 194 -47l31 133l10 47h-307l18 82h306q20 118 20 146q0 44 -19 61t-65 17q-21 0 -84 -11l12 66q98 49 193 49q45 0 70.5 -19.5t25.5 -70.5q0 -41 -45 -238h166l-18 -82h-166l-150 -667q-37 -164 -37 -264 q0 -72 86 -72q48 0 131 18l-16 -67q-48 -26 -104 -39.5t-99 -13.5q-114 0 -114 116q0 27 2 62q-77 -89 -168.5 -137t-186.5 -48q-154 0 -225.5 87t-71.5 239zM215 322q0 -123 50 -185.5t161 -62.5q86 0 173.5 53t156.5 125q8 43 27.5 128t23.5 103l74 322q-93 59 -213 59 q-168 0 -273 -108q-75 -76 -127.5 -199t-52.5 -235z" />
<glyph unicode="&#x112;" horiz-adv-x="1196" d="M2 0l16 76q150 5 177 30l6 6t5.5 8t4.5 9.5t4 12.5l3.5 14t4 17.5t4 19l4.5 22.5l5 25l176 915q14 75 14 98q0 37 -45 45q-47 10 -135 13l14 73h803q104 0 104 -69q0 -106 -32 -240h-70q0 78 -2 111q-5 58 -37 76q-26 18 -76 25t-188 7h-205l-100 -526h178q93 0 129.5 7 t60.5 28q33 36 60 131h73q-16 -60 -28.5 -124t-29 -158.5t-23.5 -131.5h-70q4 20 4 51q0 92 -57 103q-31 6 -140 6h-174l-96 -492q-4 -32 -4 -38q0 -47 41 -52q55 -6 215 -6q150 0 219.5 15t102.5 45q52 44 120 186h70q-30 -186 -84 -285q-29 -53 -162 -53h-860zM473 1556 l23 111h553l-21 -111h-555z" />
<glyph unicode="&#x113;" horiz-adv-x="897" d="M100 319q0 278 146 458.5t364 180.5q65 0 115 -18.5t78.5 -49t42.5 -65.5t14 -73q0 -161 -164.5 -242.5t-478.5 -81.5q-4 -27 -4 -88q0 -113 61.5 -188.5t184.5 -75.5q91 0 164.5 28.5t175.5 98.5l47 -66q-100 -82 -197.5 -124t-232.5 -42q-60 0 -114.5 20.5t-100.5 60.5 t-73.5 109t-27.5 158zM229 504q259 9 386.5 71t127.5 162q0 131 -149 131q-123 0 -226 -97.5t-139 -266.5zM385 1151l21 111h499l-20 -111h-500z" />
<glyph unicode="&#x114;" horiz-adv-x="1196" d="M2 0l16 76q150 5 177 30l6 6t5.5 8t4.5 9.5t4 12.5l3.5 14t4 17.5t4 19l4.5 22.5l5 25l176 915q14 75 14 98q0 37 -45 45q-47 10 -135 13l14 73h803q104 0 104 -69q0 -106 -32 -240h-70q0 78 -2 111q-5 58 -37 76q-26 18 -76 25t-188 7h-205l-100 -526h178q93 0 129.5 7 t60.5 28q33 36 60 131h73q-16 -60 -28.5 -124t-29 -158.5t-23.5 -131.5h-70q4 20 4 51q0 92 -57 103q-31 6 -140 6h-174l-96 -492q-4 -32 -4 -38q0 -47 41 -52q55 -6 215 -6q150 0 219.5 15t102.5 45q52 44 120 186h70q-30 -186 -84 -285q-29 -53 -162 -53h-860zM502 1749 q0 31 2 45l71 4q0 -88 50 -136t145 -48q186 0 240 184l67 -2q-17 -142 -106 -218.5t-215 -76.5q-116 0 -185 59.5t-69 188.5z" />
<glyph unicode="&#x115;" horiz-adv-x="897" d="M100 319q0 278 146 458.5t364 180.5q65 0 115 -18.5t78.5 -49t42.5 -65.5t14 -73q0 -161 -164.5 -242.5t-478.5 -81.5q-4 -27 -4 -88q0 -113 61.5 -188.5t184.5 -75.5q91 0 164.5 28.5t175.5 98.5l47 -66q-100 -82 -197.5 -124t-232.5 -42q-60 0 -114.5 20.5t-100.5 60.5 t-73.5 109t-27.5 158zM229 504q259 9 386.5 71t127.5 162q0 131 -149 131q-123 0 -226 -97.5t-139 -266.5zM391 1319q0 42 4 67l70 7q0 -187 153 -187q160 0 220 187l67 -7q-21 -144 -97 -218t-192 -74q-225 0 -225 225z" />
<glyph unicode="&#x116;" horiz-adv-x="1196" d="M2 0l16 76q150 5 177 30l6 6t5.5 8t4.5 9.5t4 12.5l3.5 14t4 17.5t4 19l4.5 22.5l5 25l176 915q14 75 14 98q0 37 -45 45q-47 10 -135 13l14 73h803q104 0 104 -69q0 -106 -32 -240h-70q0 78 -2 111q-5 58 -37 76q-26 18 -76 25t-188 7h-205l-100 -526h178q93 0 129.5 7 t60.5 28q33 36 60 131h73q-16 -60 -28.5 -124t-29 -158.5t-23.5 -131.5h-70q4 20 4 51q0 92 -57 103q-31 6 -140 6h-174l-96 -492q-4 -32 -4 -38q0 -47 41 -52q55 -6 215 -6q150 0 219.5 15t102.5 45q52 44 120 186h70q-30 -186 -84 -285q-29 -53 -162 -53h-860zM676 1612 q0 38 25.5 65t64.5 27t60.5 -22.5t21.5 -57.5q0 -41 -25 -70.5t-67 -29.5q-35 0 -57.5 25t-22.5 63z" />
<glyph unicode="&#x117;" horiz-adv-x="897" d="M100 319q0 278 146 458.5t364 180.5q65 0 115 -18.5t78.5 -49t42.5 -65.5t14 -73q0 -161 -164.5 -242.5t-478.5 -81.5q-4 -27 -4 -88q0 -113 61.5 -188.5t184.5 -75.5q91 0 164.5 28.5t175.5 98.5l47 -66q-100 -82 -197.5 -124t-232.5 -42q-60 0 -114.5 20.5t-100.5 60.5 t-73.5 109t-27.5 158zM229 504q259 9 386.5 71t127.5 162q0 131 -149 131q-123 0 -226 -97.5t-139 -266.5zM575 1272q0 38 26 65t65 27t60.5 -22.5t21.5 -57.5q0 -41 -25.5 -70.5t-67.5 -29.5q-35 0 -57.5 24t-22.5 64z" />
<glyph unicode="&#x118;" horiz-adv-x="1196" d="M2 0l16 76q150 5 177 30l6 6t5.5 8t4.5 9.5t4 12.5l3.5 14t4 17.5t4 19l4.5 22.5l5 25l176 915q14 75 14 98q0 37 -45 45q-47 10 -135 13l14 73h803q104 0 104 -69q0 -106 -32 -240h-70q0 78 -2 111q-5 58 -37 76q-26 18 -76 25t-188 7h-205l-100 -526h178q93 0 129.5 7 t60.5 28q33 36 60 131h73q-16 -60 -28.5 -124t-29 -158.5t-23.5 -131.5h-70q4 20 4 51q0 92 -57 103q-31 6 -140 6h-174l-96 -492q-4 -32 -4 -38q0 -47 41 -52q55 -6 215 -6q150 0 219.5 15t102.5 45q52 44 120 186h70q-30 -186 -84 -285q-20 -40 -98 -49 q-101 -106 -148 -186t-47 -148q0 -58 30.5 -90.5t86.5 -32.5q29 0 72.5 9.5t68.5 21.5l31 -63q-111 -76 -213 -76q-95 0 -143 58t-48 143q0 89 51 169t167 191h-832z" />
<glyph unicode="&#x119;" horiz-adv-x="897" d="M100 319q0 278 146 458.5t364 180.5q65 0 115 -18.5t78.5 -49t42.5 -65.5t14 -73q0 -161 -164.5 -242.5t-478.5 -81.5q-4 -27 -4 -88q0 -113 61.5 -188.5t184.5 -75.5q91 0 164.5 28.5t175.5 98.5l47 -66q-128 -106 -244 -139q-46 -41 -76 -71.5t-66.5 -76t-55.5 -92.5 t-19 -94t31.5 -75.5t81.5 -28.5q60 0 135 30l22 -57q-108 -74 -202 -74q-86 0 -132.5 51t-46.5 125q0 96 55 175.5t160 164.5q-46 -4 -73 -4q-60 0 -114.5 20.5t-100.5 60.5t-73.5 109t-27.5 158zM229 504q259 9 386.5 71t127.5 162q0 131 -149 131q-123 0 -226 -97.5 t-139 -266.5z" />
<glyph unicode="&#x11a;" horiz-adv-x="1196" d="M2 0l16 76q150 5 177 30l6 6t5.5 8t4.5 9.5t4 12.5l3.5 14t4 17.5t4 19l4.5 22.5l5 25l176 915q14 75 14 98q0 37 -45 45q-47 10 -135 13l14 73h803q104 0 104 -69q0 -106 -32 -240h-70q0 78 -2 111q-5 58 -37 76q-26 18 -76 25t-188 7h-205l-100 -526h178q93 0 129.5 7 t60.5 28q33 36 60 131h73q-16 -60 -28.5 -124t-29 -158.5t-23.5 -131.5h-70q4 20 4 51q0 92 -57 103q-31 6 -140 6h-174l-96 -492q-4 -32 -4 -38q0 -47 41 -52q55 -6 215 -6q150 0 219.5 15t102.5 45q52 44 120 186h70q-30 -186 -84 -285q-29 -53 -162 -53h-860zM518 1786 l47 41l207 -213l287 213l41 -49l-273 -273q-40 -37 -73 -37q-23 0 -37.5 7.5t-28.5 31.5z" />
<glyph unicode="&#x11b;" horiz-adv-x="897" d="M100 319q0 278 146 458.5t364 180.5q65 0 115 -18.5t78.5 -49t42.5 -65.5t14 -73q0 -161 -164.5 -242.5t-478.5 -81.5q-4 -27 -4 -88q0 -113 61.5 -188.5t184.5 -75.5q91 0 164.5 28.5t175.5 98.5l47 -66q-100 -82 -197.5 -124t-232.5 -42q-60 0 -114.5 20.5t-100.5 60.5 t-73.5 109t-27.5 158zM229 504q259 9 386.5 71t127.5 162q0 131 -149 131q-123 0 -226 -97.5t-139 -266.5zM416 1403l57 29l166 -240l264 240l43 -46l-252 -303q-31 -36 -71 -36q-51 0 -66 36z" />
<glyph unicode="&#x11c;" horiz-adv-x="1445" d="M135 553q0 200 74 379t211 299q213 184 522 184q208 0 328 -43q88 -28 88 -106q0 -51 -33 -211h-74q0 145 -34 188q-68 72 -308 72q-143 0 -266 -60t-205.5 -161t-129 -233t-46.5 -275q0 -136 38 -236.5t107.5 -160.5t160.5 -88.5t204 -28.5q98 0 211 24q54 13 80 35 q26 20 39 94l35 187q10 45 10 75q0 34 -45 45q-28 6 -139 13l16 76q143 -5 231 -5q138 0 226 5l-17 -76q-62 -2 -90 -7.5t-41 -21.5q-16 -22 -33 -110l-51 -267q-16 -86 -84 -108q-183 -60 -391 -60q-181 0 -312.5 62.5t-206.5 195t-75 324.5zM645 1516l275 270q40 37 73 37 q22 0 36 -7.5t28 -31.5l170 -279l-47 -41l-207 215l-287 -215z" />
<glyph unicode="&#x11d;" horiz-adv-x="1044" d="M-14 -291q0 104 104 185q62 50 172 104q-86 38 -86 111q0 57 39.5 101t106.5 85q-144 78 -144 246q0 194 137 319q107 98 275 98q122 0 190 -45q232 0 283 -4l-14 -82q-63 -4 -185 -4q18 -21 29.5 -65t11.5 -82q0 -173 -92 -281q-56 -68 -138.5 -102.5t-178.5 -34.5 q-65 0 -105 8q-100 -67 -100 -123q0 -32 22.5 -52.5t75.5 -35.5q39 -11 147 -33t171 -36q107 -26 155.5 -79t48.5 -138q0 -154 -130.5 -244t-348.5 -90q-214 0 -330 76t-116 198zM100 -279q0 -85 89 -138.5t262 -53.5q160 0 252 61t92 154q0 67 -49 101t-173 61 q-191 40 -229 53q-91 -33 -167.5 -98.5t-76.5 -139.5zM285 553q0 -104 62.5 -154.5t162.5 -50.5q66 0 126 26t95 75q64 89 64 198q0 221 -211 221q-136 0 -217.5 -89t-81.5 -226zM348 1090l252 305q30 37 70 37q48 0 65 -37l144 -320l-60 -28l-166 239l-262 -239z" />
<glyph unicode="&#x11e;" horiz-adv-x="1445" d="M135 553q0 200 74 379t211 299q213 184 522 184q208 0 328 -43q88 -28 88 -106q0 -51 -33 -211h-74q0 145 -34 188q-68 72 -308 72q-143 0 -266 -60t-205.5 -161t-129 -233t-46.5 -275q0 -136 38 -236.5t107.5 -160.5t160.5 -88.5t204 -28.5q98 0 211 24q54 13 80 35 q26 20 39 94l35 187q10 45 10 75q0 34 -45 45q-28 6 -139 13l16 76q143 -5 231 -5q138 0 226 5l-17 -76q-62 -2 -90 -7.5t-41 -21.5q-16 -22 -33 -110l-51 -267q-16 -86 -84 -108q-183 -60 -391 -60q-181 0 -312.5 62.5t-206.5 195t-75 324.5zM694 1749q0 31 2 45l72 4 q0 -88 50 -136t145 -48q185 0 239 184l68 -2q-17 -142 -106.5 -218.5t-215.5 -76.5q-116 0 -185 59.5t-69 188.5z" />
<glyph unicode="&#x11f;" horiz-adv-x="1044" d="M-14 -291q0 104 104 185q62 50 172 104q-86 38 -86 111q0 57 39.5 101t106.5 85q-144 78 -144 246q0 194 137 319q107 98 275 98q122 0 190 -45q232 0 283 -4l-14 -82q-63 -4 -185 -4q18 -21 29.5 -65t11.5 -82q0 -173 -92 -281q-56 -68 -138.5 -102.5t-178.5 -34.5 q-65 0 -105 8q-100 -67 -100 -123q0 -32 22.5 -52.5t75.5 -35.5q39 -11 147 -33t171 -36q107 -26 155.5 -79t48.5 -138q0 -154 -130.5 -244t-348.5 -90q-214 0 -330 76t-116 198zM100 -279q0 -85 89 -138.5t262 -53.5q160 0 252 61t92 154q0 67 -49 101t-173 61 q-191 40 -229 53q-91 -33 -167.5 -98.5t-76.5 -139.5zM285 553q0 -104 62.5 -154.5t162.5 -50.5q66 0 126 26t95 75q64 89 64 198q0 221 -211 221q-136 0 -217.5 -89t-81.5 -226zM385 1319q0 42 4 67l70 7q0 -187 153 -187q82 0 135 45.5t84 141.5l68 -7q-21 -144 -97 -218 t-192 -74q-225 0 -225 225z" />
<glyph unicode="&#x120;" horiz-adv-x="1445" d="M135 553q0 200 74 379t211 299q213 184 522 184q208 0 328 -43q88 -28 88 -106q0 -51 -33 -211h-74q0 145 -34 188q-68 72 -308 72q-143 0 -266 -60t-205.5 -161t-129 -233t-46.5 -275q0 -136 38 -236.5t107.5 -160.5t160.5 -88.5t204 -28.5q98 0 211 24q54 13 80 35 q26 20 39 94l35 187q10 45 10 75q0 34 -45 45q-28 6 -139 13l16 76q143 -5 231 -5q138 0 226 5l-17 -76q-62 -2 -90 -7.5t-41 -21.5q-16 -22 -33 -110l-51 -267q-16 -86 -84 -108q-183 -60 -391 -60q-181 0 -312.5 62.5t-206.5 195t-75 324.5zM836 1612q0 38 25.5 65 t64.5 27t60.5 -22.5t21.5 -57.5q0 -41 -25.5 -70.5t-67.5 -29.5q-35 0 -57 25t-22 63z" />
<glyph unicode="&#x121;" horiz-adv-x="1044" d="M-14 -291q0 104 104 185q62 50 172 104q-86 38 -86 111q0 57 39.5 101t106.5 85q-144 78 -144 246q0 194 137 319q107 98 275 98q122 0 190 -45q232 0 283 -4l-14 -82q-63 -4 -185 -4q18 -21 29.5 -65t11.5 -82q0 -173 -92 -281q-56 -68 -138.5 -102.5t-178.5 -34.5 q-65 0 -105 8q-100 -67 -100 -123q0 -32 22.5 -52.5t75.5 -35.5q39 -11 147 -33t171 -36q107 -26 155.5 -79t48.5 -138q0 -154 -130.5 -244t-348.5 -90q-214 0 -330 76t-116 198zM100 -279q0 -85 89 -138.5t262 -53.5q160 0 252 61t92 154q0 67 -49 101t-173 61 q-191 40 -229 53q-91 -33 -167.5 -98.5t-76.5 -139.5zM285 553q0 -104 62.5 -154.5t162.5 -50.5q66 0 126 26t95 75q64 89 64 198q0 221 -211 221q-136 0 -217.5 -89t-81.5 -226zM524 1272q0 38 25.5 65t64.5 27t60.5 -22.5t21.5 -57.5q0 -41 -25 -70.5t-67 -29.5 q-35 0 -57.5 24t-22.5 64z" />
<glyph unicode="&#x122;" horiz-adv-x="1445" d="M135 553q0 200 74 379t211 299q213 184 522 184q208 0 328 -43q88 -28 88 -106q0 -51 -33 -211h-74q0 145 -34 188q-68 72 -308 72q-143 0 -266 -60t-205.5 -161t-129 -233t-46.5 -275q0 -136 38 -236.5t107.5 -160.5t160.5 -88.5t204 -28.5q98 0 211 24q54 13 80 35 q26 20 39 94l35 187q10 45 10 75q0 34 -45 45q-28 6 -139 13l16 76q143 -5 231 -5q138 0 226 5l-17 -76q-62 -2 -90 -7.5t-41 -21.5q-16 -22 -33 -110l-51 -267q-16 -86 -84 -108q-183 -60 -391 -60q-181 0 -312.5 62.5t-206.5 195t-75 324.5zM471 -446q91 31 133.5 68.5 t42.5 70.5q0 35 -20 55q-41 41 -41 74q0 39 26 62.5t72 23.5q43 0 69.5 -31.5t26.5 -83.5q0 -212 -288 -301z" />
<glyph unicode="&#x123;" horiz-adv-x="1044" d="M-14 -291q0 104 104 185q62 50 172 104q-86 38 -86 111q0 57 39.5 101t106.5 85q-144 78 -144 246q0 194 137 319q107 98 275 98q122 0 190 -45q232 0 283 -4l-14 -82q-63 -4 -185 -4q18 -21 29.5 -65t11.5 -82q0 -173 -92 -281q-56 -68 -138.5 -102.5t-178.5 -34.5 q-65 0 -105 8q-100 -67 -100 -123q0 -65 100 -88q37 -9 141.5 -31t174.5 -38q107 -26 155.5 -79t48.5 -138q0 -154 -130.5 -244t-348.5 -90q-214 0 -330 76t-116 198zM100 -279q0 -85 89 -138.5t262 -53.5q160 0 252 61t92 154q0 67 -49 101t-173 61q-191 40 -229 53 q-91 -33 -167.5 -98.5t-76.5 -139.5zM285 553q0 -104 62.5 -154.5t162.5 -50.5q66 0 126 26t95 75q64 89 64 198q0 221 -211 221q-136 0 -217.5 -89t-81.5 -226zM516 1219q0 211 289 301l20 -62q-91 -31 -133.5 -68.5t-42.5 -70.5q0 -34 21 -55q41 -41 41 -74 q0 -39 -26.5 -62.5t-72.5 -23.5q-43 0 -69.5 31.5t-26.5 83.5z" />
<glyph unicode="&#x124;" horiz-adv-x="1529" d="M2 -2l16 76q152 11 179 35q11 9 18.5 33.5t20.5 95.5l176 917q14 82 14 98q0 21 -12 30.5t-37 14.5q-56 10 -131 15l14 73q164 -4 240 -4q88 0 272 4l-16 -73q-98 -9 -137.5 -17t-51.5 -20q-18 -21 -37 -119l-73 -387h721l75 385q3 18 7.5 40.5t7 36t2.5 21.5 q0 20 -12.5 30t-38.5 15q-71 12 -132 15l17 73q164 -4 237 -4q93 0 273 4l-15 -73q-100 -7 -139.5 -15t-50.5 -22q-18 -21 -37 -119l-176 -921q-16 -82 -16 -103q0 -22 12.5 -31t40.5 -14q45 -7 139 -14l-16 -76q-172 4 -271 4q-61 0 -241 -4l18 76q152 11 176 35 q11 9 18.5 33.5t20.5 95.5l84 442h-721l-86 -444q-16 -79 -16 -103q0 -22 12.5 -31t38.5 -14q53 -8 141 -14l-18 -76q-172 4 -268 4q-66 0 -242 -4zM657 1516l275 270q40 37 74 37q21 0 35 -7.5t28 -31.5l170 -279l-47 -41l-207 215l-287 -215z" />
<glyph unicode="&#x125;" horiz-adv-x="1112" d="M113 0l227 1059q39 201 39 258q0 44 -18 60t-66 16q-21 0 -84 -11l12 66q98 49 193 49q96 0 96 -90q0 -27 -14 -113q-60 -311 -115 -520q73 83 171.5 131.5t199.5 48.5q86 0 138 -39t52 -122q0 -78 -24 -177l-68 -286q-29 -126 -29 -174q0 -37 17.5 -54.5t60.5 -17.5 q78 0 141 18l-14 -67q-111 -53 -209 -53q-112 0 -112 106q0 67 26 176l80 350q14 65 14 117q0 65 -33 90t-96 25q-153 0 -325 -152l-158 -694h-102zM184 1559l275 270q40 37 73 37q22 0 36 -7.5t28 -31.5l170 -279l-47 -41l-207 215l-287 -215z" />
<glyph unicode="&#x126;" horiz-adv-x="1529" d="M2 -2l16 76q152 11 179 35q11 9 18.5 33.5t20.5 95.5l137 716h-197l23 95h192l21 106q14 82 14 98q0 21 -12 30.5t-37 14.5q-56 10 -131 15l14 73q164 -4 240 -4q88 0 272 4l-16 -73q-98 -9 -137.5 -17t-51.5 -20q-18 -21 -37 -119l-20 -108h721l22 106q3 18 7.5 40.5 t7 36t2.5 21.5q0 20 -12.5 30t-38.5 15q-71 12 -132 15l17 73q164 -4 237 -4q93 0 273 4l-15 -73q-100 -7 -139.5 -15t-50.5 -22q-18 -21 -37 -119l-20 -108h198l-20 -95h-197l-137 -718q-16 -94 -16 -103q0 -22 12.5 -31t40.5 -14q45 -7 139 -14l-16 -76q-172 4 -271 4 q-61 0 -241 -4l18 76q152 11 176 35q11 9 18.5 33.5t20.5 95.5l84 442h-721l-86 -444q-16 -79 -16 -103q0 -22 12.5 -31t38.5 -14q53 -8 141 -14l-18 -76q-172 4 -268 4q-66 0 -242 -4zM457 770h721l34 184h-720z" />
<glyph unicode="&#x127;" horiz-adv-x="1112" d="M113 0q22 104 105 490.5t128 596.5h-180l16 82h178q19 105 19 148q0 44 -18 60t-66 16q-21 0 -84 -11l12 66q98 49 193 49q96 0 96 -90q0 -27 -14 -113q-8 -52 -25 -125h289l-17 -82h-288q-31 -145 -74 -313q73 83 171.5 131.5t199.5 48.5q86 0 138 -39t52 -122 q0 -78 -24 -177l-68 -286q-29 -126 -29 -174q0 -37 17.5 -54.5t60.5 -17.5q78 0 141 18l-14 -67q-111 -53 -209 -53q-112 0 -112 106q0 67 26 176l80 350q14 65 14 117q0 65 -33 90t-96 25q-153 0 -325 -152l-158 -694h-102z" />
<glyph unicode="&#x128;" horiz-adv-x="692" d="M2 -2l16 76q152 11 179 35q11 9 18.5 33.5t20.5 95.5l176 917q14 82 14 98q0 21 -12 30.5t-37 14.5q-56 10 -131 15l14 73q164 -4 242 -4q88 0 272 4l-16 -73q-98 -9 -137.5 -17t-51.5 -20q-18 -21 -37 -119l-176 -921q-16 -79 -16 -103q0 -22 12.5 -31t38.5 -14 q53 -8 141 -14l-18 -76q-172 4 -270 4q-66 0 -242 -4zM238 1524q36 90 86.5 146t115.5 56q34 0 109 -32l53 -25q52 -22 86 -22q31 0 56.5 26t56.5 82l65 -22q-81 -207 -184 -207q-43 0 -127 37l-49 18q-66 27 -88 27q-33 0 -59.5 -25.5t-59.5 -83.5z" />
<glyph unicode="&#x129;" horiz-adv-x="593" d="M53 1143q74 196 189 196q44 0 104 -26l41 -21q61 -26 84 -26q53 0 111 108l59 -22q-71 -203 -174 -203q-43 0 -121 37l-35 14q-70 25 -86 25q-31 0 -52 -22.5t-58 -84.5zM123 831l12 66q95 51 189 51q45 0 71.5 -19.5t26.5 -72.5q0 -23 -6.5 -65t-13 -73.5t-17.5 -80 t-12 -55.5l-60 -258q-28 -118 -28 -168q0 -37 16.5 -54.5t60.5 -17.5q77 0 144 18l-14 -67q-114 -53 -209 -53q-48 0 -82.5 23.5t-34.5 84.5q0 41 29 176l55 254q43 198 43 248q0 41 -17.5 56.5t-64.5 15.5q-43 0 -88 -9z" />
<glyph unicode="&#x12a;" horiz-adv-x="692" d="M2 -2l16 76q152 11 179 35q11 9 18.5 33.5t20.5 95.5l176 917q14 82 14 98q0 21 -12 30.5t-37 14.5q-56 10 -131 15l14 73q164 -4 242 -4q88 0 272 4l-16 -73q-98 -9 -137.5 -17t-51.5 -20q-18 -21 -37 -119l-176 -921q-16 -79 -16 -103q0 -22 12.5 -31t38.5 -14 q53 -8 141 -14l-18 -76q-172 4 -270 4q-66 0 -242 -4zM295 1612l20 110h500l-20 -110h-500z" />
<glyph unicode="&#x12b;" horiz-adv-x="593" d="M100 1151l21 111h500l-21 -111h-500zM123 831l12 66q95 51 189 51q45 0 71.5 -19.5t26.5 -72.5q0 -23 -6.5 -65t-13 -73.5t-17.5 -80t-12 -55.5l-60 -258q-28 -118 -28 -168q0 -37 16.5 -54.5t60.5 -17.5q77 0 144 18l-14 -67q-114 -53 -209 -53q-48 0 -82.5 23.5 t-34.5 84.5q0 41 29 176l55 254q43 198 43 248q0 41 -17.5 56.5t-64.5 15.5q-43 0 -88 -9z" />
<glyph unicode="&#x12c;" horiz-adv-x="692" d="M2 -2l16 76q152 11 179 35q11 9 18.5 33.5t20.5 95.5l176 917q14 82 14 98q0 21 -12 30.5t-37 14.5q-56 10 -131 15l14 73q164 -4 242 -4q88 0 272 4l-16 -73q-98 -9 -137.5 -17t-51.5 -20q-18 -21 -37 -119l-176 -921q-16 -79 -16 -103q0 -22 12.5 -31t38.5 -14 q53 -8 141 -14l-18 -76q-172 4 -270 4q-66 0 -242 -4zM268 1749q0 31 2 45l72 4q0 -88 50 -136t145 -48q185 0 239 184l68 -2q-17 -142 -106.5 -218.5t-215.5 -76.5q-116 0 -185 59.5t-69 188.5z" />
<glyph unicode="&#x12d;" horiz-adv-x="593" d="M117 1319q0 42 4 67l69 7q0 -187 154 -187q82 0 135 45.5t84 141.5l68 -7q-21 -144 -97 -218t-192 -74q-225 0 -225 225zM123 831l12 66q95 51 189 51q45 0 71.5 -19.5t26.5 -72.5q0 -23 -6.5 -65t-13 -73.5t-17.5 -80t-12 -55.5l-60 -258q-28 -118 -28 -168 q0 -37 16.5 -54.5t60.5 -17.5q77 0 144 18l-14 -67q-114 -53 -209 -53q-48 0 -82.5 23.5t-34.5 84.5q0 41 29 176l55 254q43 198 43 248q0 41 -17.5 56.5t-64.5 15.5q-43 0 -88 -9z" />
<glyph unicode="&#x12e;" horiz-adv-x="692" d="M2 -2l16 76q152 11 179 35q11 9 18.5 33.5t20.5 95.5l176 917q14 82 14 98q0 21 -12 30.5t-37 14.5q-56 10 -131 15l14 73q164 -4 242 -4q88 0 272 4l-16 -73q-98 -9 -137.5 -17t-51.5 -20q-18 -21 -37 -119l-176 -921q-16 -79 -16 -103q0 -22 12.5 -31t38.5 -14 q53 -8 141 -14l-18 -76l-178 4q-100 -106 -146.5 -185.5t-46.5 -146.5q0 -58 30.5 -90.5t86.5 -32.5q29 0 72.5 9.5t68.5 21.5l31 -63q-111 -76 -213 -76q-95 0 -142.5 57.5t-47.5 143.5q0 91 51 170.5t170 191.5h-6q-66 0 -242 -4z" />
<glyph unicode="&#x12f;" horiz-adv-x="593" d="M27 -365q0 53 16.5 100.5t49.5 91t70.5 79.5t90.5 78q-88 16 -88 106q0 48 27 174l59 258q41 174 41 246q0 41 -17.5 56.5t-64.5 15.5q-43 0 -88 -9l12 66q95 51 189 51q45 0 71.5 -19.5t26.5 -72.5q0 -30 -9 -79t-25 -122l-17 -73l-58 -258q-28 -138 -28 -168 q0 -37 16.5 -54.5t60.5 -17.5q77 0 144 18l-14 -67q-80 -37 -150 -47q-92 -82 -148.5 -160t-56.5 -164q0 -47 31.5 -75.5t81.5 -28.5q60 0 135 30l23 -57q-108 -74 -203 -74q-86 0 -132 51t-46 125zM297 1327q0 56 32.5 89.5t78.5 33.5q41 0 65.5 -27t24.5 -73 q0 -49 -32 -82t-77 -33q-42 0 -67 25t-25 67z" />
<glyph unicode="&#x130;" horiz-adv-x="692" d="M2 -2l16 76q152 11 179 35q11 9 18.5 33.5t20.5 95.5l176 917q14 82 14 98q0 21 -12 30.5t-37 14.5q-56 10 -131 15l14 73q164 -4 242 -4q88 0 272 4l-16 -73q-98 -9 -137.5 -17t-51.5 -20q-18 -21 -37 -119l-176 -921q-16 -79 -16 -103q0 -22 12.5 -31t38.5 -14 q53 -8 141 -14l-18 -76q-172 4 -270 4q-66 0 -242 -4zM461 1612q0 38 25.5 65t64.5 27t60.5 -22.5t21.5 -57.5q0 -41 -25 -70.5t-67 -29.5q-35 0 -57.5 25t-22.5 63z" />
<glyph unicode="&#x131;" horiz-adv-x="593" d="M123 831l12 66q95 51 189 51q45 0 71.5 -19.5t26.5 -72.5q0 -23 -6.5 -65t-13 -73.5t-17.5 -80t-12 -55.5l-60 -258q-28 -118 -28 -168q0 -37 16.5 -54.5t60.5 -17.5q77 0 144 18l-14 -67q-114 -53 -209 -53q-48 0 -82.5 23.5t-34.5 84.5q0 41 29 176l55 254 q43 198 43 248q0 41 -17.5 56.5t-64.5 15.5q-43 0 -88 -9z" />
<glyph unicode="&#x132;" horiz-adv-x="1320" d="M2 -2l16 76q152 11 179 35q11 9 18.5 33.5t20.5 95.5l176 917q14 82 14 98q0 21 -12 30.5t-37 14.5q-56 10 -131 15l14 73q164 -4 242 -4q88 0 272 4l-16 -73q-98 -9 -137.5 -17t-51.5 -20q-18 -21 -37 -119l-176 -921q-16 -79 -16 -103q0 -22 12.5 -31t38.5 -14 q53 -8 141 -14l-18 -76q-172 4 -270 4q-66 0 -242 -4zM528 -236q117 45 195 108t121 157q55 120 90 307l156 819q14 72 14 100q0 37 -47 43q-78 12 -135 15l16 73q164 -4 242 -4q82 0 262 4l-17 -73q-98 -8 -132.5 -14.5t-47.5 -20.5q-20 -23 -39 -121l-151 -819 q-27 -140 -51 -223.5t-60 -147.5q-49 -87 -147 -161t-240 -119z" />
<glyph unicode="&#x133;" horiz-adv-x="1144" d="M123 831l12 66q95 51 189 51q45 0 71.5 -19.5t26.5 -72.5q0 -30 -9 -79t-25 -122l-17 -73l-58 -258q-28 -138 -28 -168q0 -37 16.5 -54.5t60.5 -17.5q77 0 144 18l-14 -67q-114 -53 -209 -53q-48 0 -82.5 23.5t-34.5 84.5q0 48 27 174l59 258q41 174 41 246 q0 41 -17.5 56.5t-64.5 15.5q-43 0 -88 -9zM297 1327q0 56 32.5 89.5t78.5 33.5q41 0 65.5 -27t24.5 -73q0 -49 -32 -82t-77 -33q-42 0 -67 25t-25 67zM389 -487q79 23 142.5 64t93.5 93q52 92 108 307q22 81 41.5 167t44 206.5t33.5 161.5q13 58 26 141.5t13 108.5 q0 46 -17.5 62t-64.5 16q-36 0 -88 -9l12 66q95 51 189 51q45 0 71.5 -19.5t26.5 -72.5q0 -36 -25 -170q-34 -177 -155 -715q-53 -232 -123 -340q-42 -65 -126 -120t-190 -74zM895 1327q0 56 33 89.5t78 33.5q41 0 65.5 -27t24.5 -73q0 -49 -31.5 -82t-75.5 -33 q-43 0 -68.5 24.5t-25.5 67.5z" />
<glyph unicode="&#x134;" horiz-adv-x="628" d="M-164 -236q117 45 195 108t121 157q55 120 90 307l155 819q15 77 15 100q0 37 -47 43q-77 11 -136 15l17 73q164 -4 241 -4q83 0 263 4l-17 -73q-98 -8 -132.5 -14.5t-47.5 -20.5q-20 -23 -39 -121l-152 -819q-27 -142 -50.5 -224.5t-59.5 -146.5q-49 -87 -147 -161 t-240 -119zM244 1550l252 305q30 37 69 37q49 0 66 -37l143 -319l-59 -29l-166 240l-262 -240z" />
<glyph unicode="&#x135;" horiz-adv-x="548" d="M-205 -487q79 23 142.5 64t93.5 93q52 92 108 307q22 81 41.5 167t44 206.5t33.5 161.5q13 58 26 141.5t13 108.5q0 46 -17.5 62t-64.5 16q-36 0 -88 -9l12 66q95 51 189 51q45 0 71.5 -19.5t26.5 -72.5q0 -36 -25 -170q-34 -177 -155 -715q-53 -232 -123 -340 q-42 -65 -126 -120t-190 -74zM72 1090l252 305q32 37 67 37q51 0 68 -37l143 -320l-59 -28l-166 239l-262 -239z" />
<glyph unicode="&#x136;" horiz-adv-x="1327" d="M2 -2l16 76q88 6 124.5 13t52.5 19q11 9 19.5 35.5t21.5 96.5l176 919q14 75 14 98q0 32 -39 41q-50 12 -141 17l14 73q164 -4 240 -4q88 0 272 4l-16 -73q-99 -7 -137.5 -15.5t-51.5 -23.5q-17 -17 -35 -111l-178 -927q-16 -82 -16 -101q0 -24 13.5 -33.5t39.5 -13.5 q52 -7 139 -14l-18 -76q-172 4 -268 4q-66 0 -242 -4zM442 -446q91 31 133.5 68.5t42.5 70.5q0 35 -20 55q-41 41 -41 74q0 39 26 62.5t72 23.5q43 0 70 -31.5t27 -83.5q0 -211 -289 -301zM485 711q228 186 514 456q45 44 62.5 67.5t17.5 41.5t-28.5 25t-114.5 12l16 73 q88 -4 258 -4q123 0 215 4l-16 -73q-63 -4 -96 -19q-54 -19 -172 -129q-53 -49 -257 -226.5t-261 -225.5q86 -141 209.5 -315t185.5 -232q7 -6 13.5 -12t11.5 -10t11.5 -8.5t10 -7.5t10.5 -6.5t9 -5t9.5 -5.5t9.5 -5t10.5 -5t10.5 -5q60 -25 119 -28l-14 -70q-24 -4 -80 -4 q-127 0 -207 72t-226.5 284.5t-230.5 360.5z" />
<glyph unicode="&#x137;" horiz-adv-x="1001" d="M113 0l227 1061q39 195 39 256q0 44 -18 60t-66 16q-21 0 -84 -11l12 66q98 49 193 49q96 0 96 -90q0 -52 -14 -113q-93 -434 -283 -1294h-102zM276 -446q91 31 134 68.5t43 70.5q0 34 -21 55q-41 41 -41 74q0 39 26 62.5t72 23.5q43 0 70 -31.5t27 -83.5 q0 -211 -289 -301zM362 520q126 160 265 295q151 139 272 139q102 0 102 -80q0 -44 -24 -120h-62q-4 42 -17.5 56.5t-43.5 14.5q-38 0 -85.5 -22.5t-82.5 -54.5q-134 -119 -213 -211q53 -106 121 -209t123 -166q72 -78 145 -78q58 0 119 14l-20 -71q-19 -12 -58 -22.5 t-69 -10.5q-62 0 -105.5 17t-81.5 61q-63 71 -142.5 198.5t-142.5 249.5z" />
<glyph unicode="&#x138;" horiz-adv-x="1001" d="M94 844l15 65q95 49 190 49q98 0 98 -90q0 -35 -18 -114q-131 -617 -164 -754h-102l110 520q39 195 39 258q0 44 -18 60t-66 16q-26 0 -84 -10zM362 502q138 189 265 313q151 139 272 139q102 0 102 -80q0 -44 -24 -120h-62q-4 42 -17.5 56.5t-43.5 14.5 q-38 0 -85.5 -22.5t-82.5 -54.5q-85 -76 -213 -228q107 -212 238 -358q72 -78 145 -78q58 0 119 14l-21 -71q-21 -13 -59 -23t-68 -10q-61 0 -104.5 17t-83.5 61q-63 70 -138 189t-139 241z" />
<glyph unicode="&#x139;" horiz-adv-x="1191" d="M2 0l16 74q147 5 175 28q14 13 22 39t21 95l176 919q14 75 14 96q0 24 -13 34t-42 15q-46 10 -125 13l14 73q164 -4 242 -4q96 0 276 4l-18 -73q-166 -7 -193 -41q-16 -19 -35 -117l-184 -944q-8 -56 -8 -61q0 -46 43 -52q55 -6 201 -6q151 0 218 13t99 42q53 45 123 195 h68q-38 -189 -93 -289q-29 -53 -155 -53h-842zM420 1524l256 229q37 34 59 46.5t47 12.5t41.5 -21t16.5 -50q0 -43 -88 -96l-293 -172z" />
<glyph unicode="&#x13a;" horiz-adv-x="561" d="M139 90q0 39 29 174l172 799q39 190 39 250q0 44 -16 62t-62 18q-27 0 -90 -11l12 66q95 49 191 49q45 0 71.5 -19.5t26.5 -72.5q0 -50 -63 -340l-162 -741q-29 -143 -29 -168q0 -37 17.5 -54.5t60.5 -17.5q78 0 145 18l-16 -67q-114 -53 -209 -53q-48 0 -82.5 23.5 t-34.5 84.5zM293 1659l256 229q38 35 60 47.5t46 12.5q25 0 41.5 -21.5t16.5 -50.5q0 -43 -88 -96l-293 -172z" />
<glyph unicode="&#x13b;" horiz-adv-x="1191" d="M2 0l16 74q147 5 175 28q14 13 22 39t21 95l176 919q14 75 14 96q0 24 -13 34t-42 15q-46 10 -125 13l14 73q164 -4 242 -4q96 0 276 4l-18 -73q-166 -7 -193 -41q-16 -19 -35 -117l-184 -944q-8 -56 -8 -61q0 -46 43 -52q55 -6 201 -6q151 0 218 13t99 42q53 45 123 195 h68q-38 -189 -93 -289q-29 -53 -155 -53h-842zM344 -446q91 31 133.5 68.5t42.5 70.5q0 35 -20 55q-41 41 -41 74q0 39 26 62.5t72 23.5q43 0 69.5 -31.5t26.5 -83.5q0 -212 -288 -301z" />
<glyph unicode="&#x13c;" horiz-adv-x="561" d="M49 -446q91 31 133.5 68.5t42.5 70.5q0 35 -20 55q-41 41 -41 74q0 39 26 62.5t72 23.5q43 0 69.5 -31.5t26.5 -83.5q0 -212 -288 -301zM139 90q0 39 29 174l172 799q39 190 39 250q0 44 -16 62t-62 18q-27 0 -90 -11l12 66q95 49 191 49q45 0 71.5 -19.5t26.5 -72.5 q0 -50 -63 -340l-162 -741q-29 -143 -29 -168q0 -37 17.5 -54.5t60.5 -17.5q78 0 145 18l-16 -67q-114 -53 -209 -53q-48 0 -82.5 23.5t-34.5 84.5z" />
<glyph unicode="&#x13d;" horiz-adv-x="1191" d="M2 0l16 74q147 5 175 28q14 13 22 39t21 95l176 919q14 75 14 96q0 24 -13 34t-42 15q-46 10 -125 13l14 73q164 -4 242 -4q96 0 276 4l-18 -73q-166 -7 -193 -41q-16 -19 -35 -117l-184 -944q-8 -56 -8 -61q0 -46 43 -52q55 -6 201 -6q151 0 218 13t99 42q53 45 123 195 h68q-38 -189 -93 -289q-29 -53 -155 -53h-842zM793 1073q91 31 133.5 68.5t42.5 70.5q0 35 -21 56q-41 41 -41 73q0 39 26.5 62.5t72.5 23.5q43 0 69.5 -31t26.5 -83q0 -211 -289 -301z" />
<glyph unicode="&#x13e;" horiz-adv-x="561" d="M139 90q0 39 29 174l172 799q39 190 39 250q0 44 -16 62t-62 18q-27 0 -90 -11l12 66q95 49 191 49q45 0 71.5 -19.5t26.5 -72.5q0 -50 -63 -340l-162 -741q-29 -143 -29 -168q0 -37 17.5 -54.5t60.5 -17.5q78 0 145 18l-16 -67q-114 -53 -209 -53q-48 0 -82.5 23.5 t-34.5 84.5zM522 1145q91 31 133.5 68.5t42.5 70.5q0 35 -20 55q-41 41 -41 74q0 39 26 62.5t72 23.5q43 0 69.5 -31.5t26.5 -83.5q0 -212 -288 -301z" />
<glyph unicode="&#x13f;" horiz-adv-x="1191" d="M2 0l16 74q147 5 175 28q23 20 43 134l176 919q14 75 14 96q0 24 -13 34t-42 15q-46 10 -125 13l14 73q164 -4 242 -4q96 0 276 4l-18 -73q-166 -7 -193 -41q-16 -19 -35 -117l-184 -944q-8 -56 -8 -61q0 -46 43 -52q55 -6 201 -6q151 0 218 13t99 42q53 45 123 195h68 q-38 -189 -93 -289q-29 -53 -155 -53h-842zM842 692q0 45 28.5 78t75.5 33q45 0 74 -28t29 -73t-30.5 -78.5t-78.5 -33.5q-42 0 -70 28.5t-28 73.5z" />
<glyph unicode="&#x140;" horiz-adv-x="657" d="M139 90q0 39 29 174l172 797q39 190 39 252q0 44 -16 62t-62 18q-27 0 -90 -11l12 66q95 49 191 49q45 0 71.5 -19.5t26.5 -72.5q0 -60 -63 -340l-162 -741q-29 -143 -29 -168q0 -37 17.5 -54.5t60.5 -17.5q78 0 145 18l-16 -67q-114 -53 -209 -53q-48 0 -82.5 23.5 t-34.5 84.5zM557 717q0 43 27.5 74.5t72.5 31.5q43 0 71 -26t28 -70q0 -43 -29.5 -76t-75.5 -33q-40 0 -67 27.5t-27 71.5z" />
<glyph unicode="&#x141;" horiz-adv-x="1191" d="M2 0l16 74q147 5 175 28q14 13 22 39t21 95l65 344l-207 -123l-41 80l271 159l88 459q14 75 14 96q0 24 -13 34t-42 15q-46 10 -125 13l14 73q164 -4 242 -4q96 0 276 4l-18 -73q-166 -7 -193 -41q-16 -19 -35 -117l-73 -377l356 211l43 -78l-422 -252l-88 -448 q-8 -56 -8 -61q0 -46 43 -52q55 -6 201 -6q151 0 218 13t99 42q53 45 123 195h68q-38 -189 -93 -289q-29 -53 -155 -53h-842z" />
<glyph unicode="&#x142;" horiz-adv-x="561" d="M51 594l219 151l70 318q39 190 39 250q0 44 -16 62t-62 18q-27 0 -90 -11l12 66q95 49 191 49q45 0 71.5 -19.5t26.5 -72.5q0 -50 -63 -340l-52 -234l174 119l43 -67l-241 -166l-86 -393q-29 -143 -29 -168q0 -37 17.5 -54.5t60.5 -17.5q78 0 145 18l-16 -67 q-114 -53 -209 -53q-48 0 -82.5 23.5t-34.5 84.5q0 39 29 174l80 369l-154 -105z" />
<glyph unicode="&#x143;" horiz-adv-x="1488" d="M2 -2l16 76q86 5 126 13.5t55 27.5q3 4 6 9t6 13.5t5 16t5.5 23.5t6 27.5t7.5 36t9 42.5q14 70 79 407t80 412q21 114 21 145q0 45 -57 53q-67 13 -134 13l17 73q86 -4 176 -4q73 0 147 4q470 -1006 551 -1200q155 837 166 908q19 127 19 155q0 37 -35 45q-76 17 -144 19 l17 73q106 -4 256 -4q9 0 235 4l-16 -73q-88 -4 -118.5 -11.5t-49.5 -23.5q-15 -12 -25.5 -46t-29.5 -130q-115 -581 -201 -1061q-9 -55 -68 -55q-40 0 -59 39q-372 817 -547 1192q-32 -166 -100.5 -545t-69.5 -385q-22 -113 -22 -150q0 -23 13.5 -33.5t41.5 -15.5 q52 -8 139 -14l-18 -76q-204 4 -268 4q-20 0 -238 -4zM811 1524l256 229q37 34 59.5 46.5t47.5 12.5t41 -21t16 -50q0 -43 -88 -96l-293 -172z" />
<glyph unicode="&#x144;" horiz-adv-x="1132" d="M119 831l14 66q92 51 172 51q46 0 71 -26.5t25 -96.5q0 -37 -4 -57q71 85 172.5 135.5t206.5 50.5q85 0 137 -39t52 -122q0 -71 -23 -177l-70 -286q-28 -122 -28 -174q0 -36 18 -54t60 -18q80 0 143 18l-16 -67q-111 -53 -209 -53q-111 0 -111 106q0 62 25 176l80 350 q14 65 14 117q0 65 -33 90t-96 25q-152 0 -328 -152q-9 -70 -26 -147l-127 -547h-105l115 520q39 176 39 236q0 45 -20 64.5t-66 19.5q-37 0 -82 -9zM553 1122l215 279q35 42 55 58t41 16q26 0 48 -18.5t22 -47.5q0 -43 -72 -102l-262 -228z" />
<glyph unicode="&#x145;" horiz-adv-x="1488" d="M2 -2l16 76q86 5 126 13.5t55 27.5q3 4 6 9t6 13.5t5 16t5.5 23.5t6 27.5t7.5 36t9 42.5q14 70 79 407t80 412q21 114 21 145q0 45 -57 53q-67 13 -134 13l17 73q86 -4 176 -4q73 0 147 4q470 -1006 551 -1200q155 837 166 908q19 127 19 155q0 37 -35 45q-76 17 -144 19 l17 73q106 -4 256 -4q9 0 235 4l-16 -73q-88 -4 -118.5 -11.5t-49.5 -23.5q-15 -12 -25.5 -46t-29.5 -130q-115 -581 -201 -1061q-9 -55 -68 -55q-40 0 -59 39q-372 817 -547 1192q-32 -166 -100.5 -545t-69.5 -385q-22 -113 -22 -150q0 -23 13.5 -33.5t41.5 -15.5 q52 -8 139 -14l-18 -76q-204 4 -268 4q-20 0 -238 -4zM506 -446q91 31 133.5 68.5t42.5 70.5q0 35 -20 55q-41 41 -41 74q0 39 26 62.5t72 23.5q43 0 69.5 -31.5t26.5 -83.5q0 -211 -289 -301z" />
<glyph unicode="&#x146;" horiz-adv-x="1132" d="M119 831l14 66q92 51 172 51q46 0 71 -26.5t25 -96.5q0 -37 -4 -57q71 85 172.5 135.5t206.5 50.5q85 0 137 -39t52 -122q0 -71 -23 -177l-70 -286q-28 -122 -28 -174q0 -36 18 -54t60 -18q80 0 143 18l-16 -67q-111 -53 -209 -53q-111 0 -111 106q0 62 25 176l80 350 q14 65 14 117q0 65 -33 90t-96 25q-152 0 -328 -152q-9 -70 -26 -147l-127 -547h-105l115 520q39 176 39 236q0 45 -20 64.5t-66 19.5q-37 0 -82 -9zM299 -446q91 31 133.5 68.5t42.5 70.5q0 35 -20 55q-41 41 -41 74q0 39 26 62.5t72 23.5q43 0 69.5 -31.5t26.5 -83.5 q0 -211 -289 -301z" />
<glyph unicode="&#x147;" horiz-adv-x="1488" d="M2 -2l16 76q86 5 126 13.5t55 27.5q3 4 6 9t6 13.5t5 16t5.5 23.5t6 27.5t7.5 36t9 42.5q14 70 79 407t80 412q21 114 21 145q0 45 -57 53q-67 13 -134 13l17 73q86 -4 176 -4q73 0 147 4q470 -1006 551 -1200q155 837 166 908q19 127 19 155q0 37 -35 45q-76 17 -144 19 l17 73q106 -4 256 -4q9 0 235 4l-16 -73q-88 -4 -118.5 -11.5t-49.5 -23.5q-15 -12 -25.5 -46t-29.5 -130q-115 -581 -201 -1061q-9 -55 -68 -55q-40 0 -59 39q-372 817 -547 1192q-32 -166 -100.5 -545t-69.5 -385q-22 -113 -22 -150q0 -23 13.5 -33.5t41.5 -15.5 q52 -8 139 -14l-18 -76q-204 4 -268 4q-20 0 -238 -4zM684 1786l47 41l207 -213l287 213l41 -49l-273 -273q-40 -37 -73 -37q-23 0 -37.5 7.5t-28.5 31.5z" />
<glyph unicode="&#x148;" horiz-adv-x="1132" d="M119 831l14 66q92 51 172 51q46 0 71 -26.5t25 -96.5q0 -37 -4 -57q71 85 172.5 135.5t206.5 50.5q85 0 137 -39t52 -122q0 -71 -23 -177l-70 -286q-28 -122 -28 -174q0 -36 18 -54t60 -18q80 0 143 18l-16 -67q-111 -53 -209 -53q-111 0 -111 106q0 62 25 176l80 350 q14 65 14 117q0 65 -33 90t-96 25q-152 0 -328 -152q-9 -70 -26 -147l-127 -547h-105l115 520q39 176 39 236q0 45 -20 64.5t-66 19.5q-37 0 -82 -9zM430 1403l57 29l166 -240l265 240l43 -46l-252 -303q-31 -36 -72 -36q-51 0 -66 36z" />
<glyph unicode="&#x149;" horiz-adv-x="1132" d="M119 831l14 66q92 51 172 51q46 0 71 -26.5t25 -96.5q0 -37 -4 -57q71 85 172.5 135.5t206.5 50.5q85 0 137 -39t52 -122q0 -71 -23 -177l-70 -286q-28 -122 -28 -174q0 -36 18 -54t60 -18q80 0 143 18l-16 -67q-111 -53 -209 -53q-111 0 -111 106q0 62 25 176l80 350 q14 65 14 117q0 65 -33 90t-96 25q-152 0 -328 -152q-9 -70 -26 -147l-127 -547h-105l115 520q39 176 39 236q0 45 -20 64.5t-66 19.5q-37 0 -82 -9zM129 1120q91 31 133.5 69t42.5 71q0 35 -20 55q-41 41 -41 74q0 39 26 62.5t72 23.5q43 0 69.5 -31.5t26.5 -83.5 q0 -212 -288 -301z" />
<glyph unicode="&#x14a;" horiz-adv-x="1488" d="M2 -2l16 76q86 5 126 13.5t55 27.5q3 4 6 9t6 13.5t5 16t5.5 23.5t6 27.5t7.5 36t9 42.5q87 430 159 819q21 133 21 145q0 45 -57 53q-67 13 -134 13l17 73q86 -4 196 -4q60 0 134 4q85 -184 282.5 -587t272.5 -563q128 676 155 858q19 127 19 155q0 37 -35 45 q-76 17 -144 19l17 73q106 -4 256 -4q9 0 235 4l-16 -73q-88 -4 -118.5 -11.5t-49.5 -23.5q-15 -12 -25.5 -46t-29.5 -130q-111 -565 -189 -977q-31 -165 -52 -249t-50 -140q-100 -199 -367 -277l-26 78q106 33 186.5 100t116.5 158q15 42 37 131t26 131q-26 56 -97 200.5 t-198 406.5t-264 548q-23 -120 -62.5 -340.5t-70 -391t-35.5 -193.5q-22 -113 -22 -152q0 -23 13.5 -33.5t41.5 -15.5q29 -4 139 -12l-18 -76q-204 4 -268 4q-20 0 -238 -4z" />
<glyph unicode="&#x14b;" horiz-adv-x="1132" d="M119 831l14 66q92 51 172 51q96 0 96 -114q0 -38 -4 -66q71 85 172.5 135.5t206.5 50.5q85 0 137 -39t52 -122q0 -55 -23 -177l-121 -581q-23 -108 -33.5 -154t-32 -106.5t-48.5 -102.5q-85 -124 -297 -211l-27 72q80 36 134 78t91 104q52 92 92 273l134 626 q14 65 14 117q0 65 -33 90t-96 25q-152 0 -328 -152q-7 -54 -35 -178l-118 -516h-105l115 520q39 176 39 236q0 45 -20 64.5t-66 19.5q-37 0 -82 -9z" />
<glyph unicode="&#x14c;" horiz-adv-x="1415" d="M135 535q0 164 49.5 335t145.5 295q195 250 522 250q253 0 379.5 -137.5t126.5 -376.5q0 -453 -217 -713q-86 -103 -213.5 -160t-261.5 -57q-257 0 -394 144t-137 420zM260 541q0 -471 414 -471q118 0 214 50t158 131.5t104.5 190.5t60.5 222t18 231q0 206 -103.5 314 t-296.5 108q-128 0 -232.5 -57t-174.5 -156q-78 -113 -120 -262.5t-42 -300.5zM608 1556l23 111h553l-21 -111h-555z" />
<glyph unicode="&#x14d;" horiz-adv-x="1042" d="M100 356q0 111 34.5 227.5t101.5 204.5q63 82 157.5 126t208.5 44q176 0 264 -94t88 -258q0 -134 -37 -260.5t-116 -222.5q-60 -71 -150 -110.5t-180 -39.5q-178 0 -274.5 97t-96.5 286zM215 369q0 -297 270 -297q70 0 132 29.5t104 80.5q61 78 91 186t30 224 q0 270 -258 270q-173 0 -265 -129q-52 -70 -78 -167t-26 -197zM399 1151l21 111h500l-21 -111h-500z" />
<glyph unicode="&#x14e;" horiz-adv-x="1415" d="M135 535q0 164 49.5 335t145.5 295q195 250 522 250q253 0 379.5 -137.5t126.5 -376.5q0 -453 -217 -713q-86 -103 -213.5 -160t-261.5 -57q-257 0 -394 144t-137 420zM260 541q0 -471 414 -471q118 0 214 50t158 131.5t104.5 190.5t60.5 222t18 231q0 206 -103.5 314 t-296.5 108q-128 0 -232.5 -57t-174.5 -156q-78 -113 -120 -262.5t-42 -300.5zM618 1749q0 24 3 45l71 4q0 -88 50 -136t145 -48q185 0 239 184l68 -2q-17 -142 -106.5 -218.5t-215.5 -76.5q-116 0 -185 59.5t-69 188.5z" />
<glyph unicode="&#x14f;" horiz-adv-x="1042" d="M100 356q0 111 34.5 227.5t101.5 204.5q63 82 157.5 126t208.5 44q176 0 264 -94t88 -258q0 -134 -37 -260.5t-116 -222.5q-60 -71 -150 -110.5t-180 -39.5q-178 0 -274.5 97t-96.5 286zM215 369q0 -297 270 -297q70 0 132 29.5t104 80.5q61 78 91 186t30 224 q0 270 -258 270q-173 0 -265 -129q-52 -70 -78 -167t-26 -197zM406 1319q0 42 4 67l69 7q0 -187 154 -187q82 0 135 45.5t84 141.5l68 -7q-21 -144 -97 -218t-192 -74q-225 0 -225 225z" />
<glyph unicode="&#x150;" horiz-adv-x="1415" d="M135 535q0 164 49.5 335t145.5 295q195 250 522 250q253 0 379.5 -137.5t126.5 -376.5q0 -453 -217 -713q-86 -103 -213.5 -160t-261.5 -57q-257 0 -394 144t-137 420zM260 541q0 -471 414 -471q118 0 214 50t158 131.5t104.5 190.5t60.5 222t18 231q0 206 -103.5 314 t-296.5 108q-128 0 -232.5 -57t-174.5 -156q-78 -113 -120 -262.5t-42 -300.5zM614 1520l230 254q35 39 55.5 53t44.5 14q27 0 45.5 -17t18.5 -44q0 -50 -78 -107l-273 -200zM922 1520l231 254q36 39 55 53t43 14q27 0 46.5 -17t19.5 -44q0 -47 -78 -107l-274 -200z" />
<glyph unicode="&#x151;" horiz-adv-x="1042" d="M100 356q0 111 34.5 227.5t101.5 204.5q63 82 157.5 126t208.5 44q176 0 264 -94t88 -258q0 -134 -37 -260.5t-116 -222.5q-60 -71 -150 -110.5t-180 -39.5q-178 0 -274.5 97t-96.5 286zM215 369q0 -297 270 -297q70 0 132 29.5t104 80.5q61 78 91 186t30 224 q0 270 -258 270q-173 0 -265 -129q-52 -70 -78 -167t-26 -197zM416 1118l180 285q31 47 50 61.5t44 14.5q23 0 40.5 -15t17.5 -43q0 -21 -14.5 -43t-47.5 -59l-219 -240zM690 1118l180 285q31 47 49.5 61.5t43.5 14.5q24 0 41.5 -14.5t17.5 -43.5q0 -22 -14 -44t-47 -58 l-220 -240z" />
<glyph unicode="&#x152;" horiz-adv-x="1970" d="M139 532q0 391 277 668q95 95 234.5 148t301.5 53q54 0 195 -8.5t207 -8.5h481q107 0 107 -69q0 -101 -33 -240h-72q0 78 -2 111q-5 56 -37 76q-28 17 -78.5 24.5t-183.5 7.5h-205l-100 -526h178q96 0 132 6.5t58 28.5q31 28 60 131h74q-31 -117 -82 -414h-70q2 20 2 51 q0 26 -2.5 43.5t-15.5 36t-37 23.5q-31 6 -142 6h-174l-94 -492q-4 -32 -4 -38q0 -47 41 -52q53 -6 215 -6q148 0 218.5 15.5t103.5 44.5q52 44 120 186h68q-26 -178 -84 -285q-29 -53 -162 -53h-555q-43 0 -193 -6t-224 -6q-130 0 -232 43t-164.5 118.5t-94.5 172.5 t-32 210zM266 547q0 -204 107.5 -332.5t302.5 -128.5q259 0 303 68q13 21 39 131l156 798q18 85 18 127q0 61 -70 74q-69 16 -215 16q-121 0 -230.5 -47t-191.5 -133q-106 -111 -162.5 -263t-56.5 -310z" />
<glyph unicode="&#x153;" horiz-adv-x="1599" d="M100 356q0 111 34.5 227.5t101.5 204.5q63 82 157.5 126t208.5 44q266 0 320 -235q63 108 166.5 171.5t226.5 63.5q65 0 115 -18.5t78 -49t41.5 -65.5t13.5 -73q0 -162 -162 -243t-475 -81q-4 -27 -4 -88q0 -115 58.5 -190.5t180.5 -75.5q155 0 340 127l37 -49 q-99 -90 -191 -135.5t-221 -45.5q-62 0 -120 22t-107 74t-68 126q-53 -103 -148 -161.5t-212 -58.5q-178 0 -274.5 97t-96.5 286zM215 369q0 -297 270 -297q73 0 132.5 32t98.5 84t65.5 121t38 140t11.5 143q0 138 -59.5 204t-187.5 66q-173 0 -265 -129q-52 -70 -78 -167 t-26 -197zM938 504q253 9 380.5 71t127.5 158q0 64 -33.5 99.5t-124.5 35.5q-40 0 -98 -23.5t-98 -58.5q-115 -96 -154 -282z" />
<glyph unicode="&#x154;" horiz-adv-x="1312" d="M2 -2l16 76q152 10 179 35q11 9 18.5 33.5t20.5 95.5l178 927q12 73 12 86q0 21 -11 31t-38 16q-22 6 -131 15l14 71h332q242 0 338 -22q123 -29 183.5 -106t60.5 -181q0 -95 -30 -171t-86 -128t-127 -86t-161 -53q98 -227 149 -324t107 -151q51 -49 96 -68 q43 -15 103 -18l-15 -76q-14 -2 -75 -2q-122 0 -199 74q-72 66 -132 184t-157 362q-26 0 -221 5l-72 -387q-16 -91 -16 -103q0 -34 47 -45q18 -4 145 -14l-18 -76q-172 4 -270 4q-64 0 -240 -4zM442 705q77 -5 113 -5q483 0 483 363q0 73 -37.5 129.5t-99.5 79.5 q-76 26 -229 26h-115zM631 1524l256 229q37 34 59 46.5t47 12.5t41.5 -21t16.5 -50q0 -43 -88 -96l-293 -172z" />
<glyph unicode="&#x155;" horiz-adv-x="804" d="M109 831l14 66q92 51 172 51q96 0 96 -114q0 -46 -4 -66q50 71 128.5 128.5t164.5 57.5q111 0 111 -80q0 -52 -31 -143h-60q-6 50 -27 70t-63 20q-103 0 -225 -131q-2 -8 -7.5 -45t-14 -86t-19.5 -98l-106 -461h-105l111 492q35 161 35 256q0 49 -21.5 70.5t-67.5 21.5 q-36 0 -81 -9zM408 1122l215 279q35 42 55 58t41 16q25 0 47 -18.5t22 -47.5q0 -44 -71 -102l-262 -228z" />
<glyph unicode="&#x156;" horiz-adv-x="1312" d="M2 -2l16 76q152 10 179 35q11 9 18.5 33.5t20.5 95.5l178 927q12 73 12 86q0 21 -11 31t-38 16q-22 6 -131 15l14 71h332q242 0 338 -22q123 -29 183.5 -106t60.5 -181q0 -95 -30 -171t-86 -128t-127 -86t-161 -53q98 -227 149 -324t107 -151q51 -49 96 -68 q43 -15 103 -18l-15 -76q-14 -2 -75 -2q-122 0 -199 74q-72 66 -132 184t-157 362q-26 0 -221 5l-72 -387q-16 -91 -16 -103q0 -34 47 -45q18 -4 145 -14l-18 -76q-172 4 -270 4q-64 0 -240 -4zM436 -446q91 31 133.5 68.5t42.5 70.5q0 35 -20 55q-41 41 -41 74 q0 39 26 62.5t72 23.5q43 0 69.5 -31.5t26.5 -83.5q0 -212 -288 -301zM442 705q77 -5 113 -5q483 0 483 363q0 73 -37.5 129.5t-99.5 79.5q-76 26 -229 26h-115z" />
<glyph unicode="&#x157;" horiz-adv-x="804" d="M-43 -446q91 31 133.5 68.5t42.5 70.5q0 35 -20 55q-41 41 -41 74q0 39 26 62.5t72 23.5q43 0 69.5 -31.5t26.5 -83.5q0 -211 -289 -301zM109 831l14 66q92 51 172 51q96 0 96 -114q0 -46 -4 -66q50 71 128.5 128.5t164.5 57.5q111 0 111 -80q0 -52 -31 -143h-60 q-6 50 -27 70t-63 20q-103 0 -225 -131q-2 -8 -7.5 -45t-14 -86t-19.5 -98l-106 -461h-105l111 492q35 161 35 256q0 49 -21.5 70.5t-67.5 21.5q-36 0 -81 -9z" />
<glyph unicode="&#x158;" horiz-adv-x="1312" d="M2 -2l16 76q152 10 179 35q11 9 18.5 33.5t20.5 95.5l178 927q12 73 12 86q0 21 -11 31t-38 16q-22 6 -131 15l14 71h332q242 0 338 -22q123 -29 183.5 -106t60.5 -181q0 -95 -30 -171t-86 -128t-127 -86t-161 -53q98 -227 149 -324t107 -151q51 -49 96 -68 q43 -15 103 -18l-15 -76q-14 -2 -75 -2q-122 0 -199 74q-72 66 -132 184t-157 362q-26 0 -221 5l-72 -387q-16 -91 -16 -103q0 -34 47 -45q18 -4 145 -14l-18 -76q-172 4 -270 4q-64 0 -240 -4zM442 705q77 -5 113 -5q483 0 483 363q0 73 -37.5 129.5t-99.5 79.5 q-76 26 -229 26h-115zM487 1786l48 41l206 -213l287 213l41 -49l-272 -273q-40 -37 -74 -37q-23 0 -37.5 7.5t-28.5 31.5z" />
<glyph unicode="&#x159;" horiz-adv-x="804" d="M109 831l14 66q92 51 172 51q96 0 96 -114q0 -46 -4 -66q50 71 128.5 128.5t164.5 57.5q111 0 111 -80q0 -52 -31 -143h-60q-6 50 -27 70t-63 20q-103 0 -225 -131q-2 -8 -7.5 -45t-14 -86t-19.5 -98l-106 -461h-105l111 492q35 161 35 256q0 49 -21.5 70.5t-67.5 21.5 q-36 0 -81 -9zM272 1403l58 29l166 -240l264 240l43 -46l-252 -303q-31 -36 -72 -36q-50 0 -65 36z" />
<glyph unicode="&#x15a;" horiz-adv-x="1105" d="M59 170q0 87 19 190h74q4 -152 78 -221t257 -69q174 0 260.5 78.5t86.5 193.5q0 152 -181 252l-229 129q-91 53 -136.5 131t-45.5 164t31.5 157.5t93.5 126t162 85t229 30.5q136 0 227 -37q41 -18 59.5 -40.5t18.5 -57.5q0 -66 -29 -205h-71q0 75 -13 122t-31.5 66 t-48.5 29q-62 23 -172 23q-87 0 -154 -23.5t-105.5 -64.5t-57.5 -89.5t-19 -103.5q0 -65 42 -123t157 -122l209 -119q191 -111 191 -287q0 -205 -137 -309.5t-369 -104.5q-69 0 -135.5 11t-126.5 33.5t-97 62.5t-37 92zM602 1524l256 229q37 34 59.5 46.5t47.5 12.5t41 -21 t16 -50q0 -43 -88 -96l-293 -172z" />
<glyph unicode="&#x15b;" horiz-adv-x="899" d="M92 133q0 57 17 150h67q2 -97 43 -154q47 -59 187 -59q105 0 169 39t64 110q0 47 -26 84.5t-87 73.5l-172 102q-141 80 -141 211q0 134 102.5 201t259.5 67q117 0 193 -36q23 -10 37 -33t14 -51q0 -75 -22 -152h-66q-6 64 -15.5 95t-29.5 46q-55 39 -149 39 q-59 0 -105.5 -13.5t-79.5 -48.5t-33 -89q0 -46 32 -85t106 -83l155 -90q136 -77 136 -205q0 -74 -29.5 -129.5t-81.5 -87.5t-116 -47t-140 -15q-136 0 -231 56q-58 34 -58 104zM453 1122l215 279q35 42 55 58t41 16q26 0 48 -18.5t22 -47.5q0 -43 -72 -102l-262 -228z" />
<glyph unicode="&#x15c;" horiz-adv-x="1105" d="M59 170q0 87 19 190h74q4 -152 78 -221t257 -69q174 0 260.5 78.5t86.5 193.5q0 152 -181 252l-229 129q-91 53 -136.5 131t-45.5 164t31.5 157.5t93.5 126t162 85t229 30.5q136 0 227 -37q41 -18 59.5 -40.5t18.5 -57.5q0 -66 -29 -205h-71q0 75 -13 122t-31.5 66 t-48.5 29q-62 23 -172 23q-87 0 -154 -23.5t-105.5 -64.5t-57.5 -89.5t-19 -103.5q0 -65 42 -123t157 -122l209 -119q191 -111 191 -287q0 -205 -137 -309.5t-369 -104.5q-69 0 -135.5 11t-126.5 33.5t-97 62.5t-37 92zM446 1516l275 270q40 37 74 37q21 0 35 -7.5t28 -31.5 l170 -279l-47 -41l-207 215l-287 -215z" />
<glyph unicode="&#x15d;" horiz-adv-x="899" d="M92 133q0 57 17 150h67q2 -97 43 -154q47 -59 187 -59q105 0 169 39t64 110q0 47 -26 84.5t-87 73.5l-172 102q-141 80 -141 211q0 134 102.5 201t259.5 67q117 0 193 -36q23 -10 37 -33t14 -51q0 -75 -22 -152h-66q-6 64 -15.5 95t-29.5 46q-55 39 -149 39 q-59 0 -105.5 -13.5t-79.5 -48.5t-33 -89q0 -46 32 -85t106 -83l155 -90q136 -77 136 -205q0 -74 -29.5 -129.5t-81.5 -87.5t-116 -47t-140 -15q-136 0 -231 56q-58 34 -58 104zM317 1090l252 305q30 37 70 37q49 0 66 -37l143 -320l-60 -28l-165 239l-263 -239z" />
<glyph unicode="&#x15e;" horiz-adv-x="1105" d="M59 170q0 87 19 190h74q2 -76 19 -128t55.5 -89.5t102.5 -55t158 -17.5q90 0 158.5 22.5t108.5 61.5t60 86.5t20 101.5q0 152 -181 252l-229 129q-91 53 -136.5 131t-45.5 164t31.5 157.5t93.5 126t162 85t229 30.5q136 0 227 -37q20 -9 34.5 -18.5t24.5 -21.5t14.5 -26 t4.5 -32q0 -66 -29 -205h-71q0 75 -13 122t-31.5 66t-48.5 29q-62 23 -172 23q-87 0 -154 -23.5t-105.5 -64.5t-57.5 -89.5t-19 -103.5q0 -65 42 -123t157 -122l209 -119q191 -111 191 -287q0 -101 -35 -179t-99 -128t-151 -77t-195 -30q-24 -53 -24 -69q0 -36 26 -52 q71 -39 96 -72t25 -91q0 -53 -28 -98.5t-77 -78.5t-113 -55.5t-140 -32.5l-10 76q118 25 180.5 63t62.5 99q0 35 -18 56.5t-66 54.5q-18 12 -24 24.5t-6 36.5q0 46 49 141q-63 3 -122.5 15t-113.5 34.5t-86.5 61t-32.5 86.5z" />
<glyph unicode="&#x15f;" horiz-adv-x="899" d="M92 133q0 57 17 150h67q2 -97 43 -154q47 -59 187 -59q105 0 169 39t64 110q0 47 -26 84.5t-87 73.5l-172 102q-141 80 -141 211q0 134 102.5 201t259.5 67q117 0 193 -36q23 -10 37 -33t14 -51q0 -75 -22 -152h-66q-6 64 -15.5 95t-29.5 46q-55 39 -149 39 q-59 0 -105.5 -13.5t-79.5 -48.5t-33 -89q0 -46 32 -85t106 -83l155 -90q136 -77 136 -205q0 -71 -27 -125t-75 -86.5t-107.5 -49t-130.5 -18.5q-25 -45 -25 -65q0 -34 27 -47q69 -33 93.5 -66t24.5 -90q0 -99 -99.5 -166.5t-252.5 -85.5l-10 72q240 45 240 153 q0 34 -18.5 56.5t-63.5 50.5q-18 11 -24.5 21.5t-6.5 31.5q0 43 49 137q-114 9 -192 54q-58 34 -58 104z" />
<glyph unicode="&#x160;" horiz-adv-x="1105" d="M59 170q0 87 19 190h74q4 -152 78 -221t257 -69q174 0 260.5 78.5t86.5 193.5q0 152 -181 252l-229 129q-91 53 -136.5 131t-45.5 164t31.5 157.5t93.5 126t162 85t229 30.5q136 0 227 -37q41 -18 59.5 -40.5t18.5 -57.5q0 -66 -29 -205h-71q0 75 -13 122t-31.5 66 t-48.5 29q-62 23 -172 23q-87 0 -154 -23.5t-105.5 -64.5t-57.5 -89.5t-19 -103.5q0 -65 42 -123t157 -122l209 -119q191 -111 191 -287q0 -205 -137 -309.5t-369 -104.5q-69 0 -135.5 11t-126.5 33.5t-97 62.5t-37 92zM494 1786l47 41l207 -213l286 213l41 -49l-272 -273 q-40 -37 -74 -37q-23 0 -37 7.5t-28 31.5z" />
<glyph unicode="&#x161;" horiz-adv-x="899" d="M92 133q0 57 17 150h67q2 -97 43 -154q47 -59 187 -59q105 0 169 39t64 110q0 47 -26 84.5t-87 73.5l-172 102q-141 80 -141 211q0 134 102.5 201t259.5 67q117 0 193 -36q23 -10 37 -33t14 -51q0 -75 -22 -152h-66q-6 64 -15.5 95t-29.5 46q-55 39 -149 39 q-59 0 -105.5 -13.5t-79.5 -48.5t-33 -89q0 -46 32 -85t106 -83l155 -90q136 -77 136 -205q0 -74 -29.5 -129.5t-81.5 -87.5t-116 -47t-140 -15q-136 0 -231 56q-58 34 -58 104zM362 1403l58 29l166 -240l264 240l43 -46l-252 -303q-31 -36 -72 -36q-50 0 -65 36z" />
<glyph unicode="&#x162;" horiz-adv-x="1300" d="M209 1075q13 110 33 213q9 50 33 73t90 23h901q67 0 90.5 -19t23.5 -65q0 -40 -43 -225h-69q0 168 -29 191q-22 19 -78 23.5t-291 4.5l-202 -1050q-15 -76 -15 -111q0 -37 41 -45q29 -7 144 -14l-15 -76l-207 4q-38 -71 -38 -100q0 -36 26 -52q71 -39 96 -72t25 -91 q0 -104 -100.5 -174t-257.5 -91l-11 76q118 25 181 63t63 99q0 35 -18 56.5t-66 54.5q-18 12 -24.5 24.5t-6.5 36.5q0 50 66 170q-92 0 -236 -4l15 76q99 7 132 15t48 24q20 22 39 129l203 1052q-229 0 -287.5 -5t-89.5 -23q-42 -26 -94 -191h-72z" />
<glyph unicode="&#x163;" horiz-adv-x="659" d="M113 -475q239 45 239 153q0 34 -18.5 56.5t-63.5 50.5q-18 11 -24 21.5t-6 31.5q0 49 53 146q-117 28 -117 163q0 51 12 109q15 88 113 567h-178l14 62q63 14 117 33q24 8 38 22.5t27 40.5q27 53 76 166q14 31 49 31t35 -27q0 -12 -51 -238q156 0 254 -4l-14 -80 q-132 -6 -262 -6l-80 -405q-1 -7 -9 -51t-11.5 -63t-7 -54t-3.5 -62q0 -110 104 -110q74 0 172 39l31 -74q-123 -68 -246 -68h-2q-24 -46 -24 -67q0 -34 26 -47q69 -33 94 -66.5t25 -89.5q0 -99 -99.5 -166.5t-252.5 -85.5z" />
<glyph unicode="&#x164;" horiz-adv-x="1300" d="M209 1075q13 110 33 213q9 50 33 73t90 23h901q67 0 90.5 -19t23.5 -65q0 -40 -43 -225h-69q0 168 -29 191q-22 19 -78 23.5t-291 4.5l-202 -1050q-15 -76 -15 -111q0 -37 41 -45q29 -7 144 -14l-15 -76q-152 4 -245 4q-99 0 -263 -4l15 76q99 7 132 15t48 24 q20 22 39 129l203 1052q-229 0 -287.5 -5t-89.5 -23q-42 -26 -94 -191h-72zM586 1786l47 41l207 -213l286 213l41 -49l-272 -273q-40 -37 -74 -37q-23 0 -37 7.5t-28 31.5z" />
<glyph unicode="&#x165;" horiz-adv-x="659" d="M123 823l14 62q63 14 117 33q24 8 38 22.5t27 40.5q27 53 76 166q14 31 49 31t35 -27q0 -12 -51 -238q156 0 254 -4l-14 -80q-132 -6 -262 -6l-80 -405q-1 -7 -9 -51t-11.5 -63t-7 -54t-3.5 -62q0 -110 104 -110q74 0 172 39l31 -74q-123 -68 -246 -68q-81 0 -130.5 41.5 t-49.5 130.5q0 51 12 109q15 88 113 567h-178zM514 1051q91 31 133.5 68.5t42.5 70.5q0 35 -20 55q-41 41 -41 74q0 39 26 62.5t72 23.5q43 0 69.5 -31.5t26.5 -83.5q0 -212 -288 -301z" />
<glyph unicode="&#x166;" horiz-adv-x="1300" d="M209 1075q13 110 33 213q9 50 33 73t90 23h901q67 0 90.5 -19t23.5 -65q0 -40 -43 -225h-69q0 168 -29 191q-22 19 -78 23.5t-291 4.5l-90 -469h344l-18 -94h-344l-94 -487q-15 -76 -15 -111q0 -37 41 -45q29 -7 144 -14l-15 -76q-152 4 -245 4q-99 0 -263 -4l15 76 q99 7 132 15t48 24q20 22 39 129l94 489h-317l18 94h318l90 469q-229 0 -287.5 -5t-89.5 -23q-42 -26 -94 -191h-72z" />
<glyph unicode="&#x167;" horiz-adv-x="659" d="M125 539l16 82h144l43 202h-178l14 62q73 15 117 33q44 21 63 63q37 73 76 166q14 31 49 31t35 -27q0 -21 -49 -238q156 0 254 -4l-15 -80q-132 -6 -264 -6l-41 -202h256l-16 -82h-256l-23 -121q-28 -147 -28 -230q0 -53 23 -81.5t79 -28.5q77 0 172 39l31 -74 q-120 -68 -246 -68q-80 0 -129 41.5t-49 130.5q0 44 10 109l55 283h-143z" />
<glyph unicode="&#x168;" horiz-adv-x="1525" d="M221 1313l17 73q160 -4 270 -4q71 0 235 4l-14 -73q-100 -7 -130 -14t-46 -23q-18 -21 -39 -111q-71 -320 -113 -534q-34 -162 -34 -281q0 -276 338 -276q114 0 212.5 38t149.5 101q51 64 84.5 165t69.5 277q18 79 92 500q10 56 10 90q0 19 -5 29t-12.5 13.5t-25.5 8.5 q-24 5 -139 17l14 73q148 -4 244 -4q98 0 246 4l-17 -73q-94 -3 -131 -13.5t-47 -29.5q-18 -36 -37 -133l-100 -519q-40 -203 -81 -312.5t-110 -178.5q-156 -156 -456 -156q-84 0 -156.5 18t-135 56t-98.5 106.5t-36 161.5q0 110 41 312q66 340 110 534q15 67 15 88 q0 20 -7.5 31t-29.5 18q-37 14 -148 17zM678 1524q36 90 87 146t116 56q33 0 108 -32l53 -25q52 -22 86 -22q31 0 56.5 26t56.5 82l66 -22q-81 -207 -185 -207q-43 0 -127 37l-49 18q-66 27 -88 27q-33 0 -59.5 -25.5t-59.5 -83.5z" />
<glyph unicode="&#x169;" horiz-adv-x="1185" d="M143 831l15 66q95 51 186 51q47 0 73.5 -19t26.5 -73q0 -23 -34 -190l-82 -349q-15 -69 -15 -116q0 -65 33.5 -91t95.5 -26q150 0 328 154q7 52 33 176l119 516h106l-115 -518q-36 -167 -36 -246q0 -42 19.5 -62t64.5 -20q13 0 65 6.5t68 9.5l-17 -63q-51 -27 -107.5 -41 t-95.5 -14q-46 0 -80 29.5t-34 90.5q0 39 4 62q-72 -88 -168 -138.5t-199 -50.5q-85 0 -141.5 42t-56.5 124q0 81 20 174l72 299q24 101 24 150q0 45 -17.5 60.5t-64.5 15.5q-38 0 -90 -9zM403 1120q74 197 189 197q42 0 104 -27l41 -20q64 -27 84 -27q52 0 111 109l59 -23 q-71 -203 -174 -203q-43 0 -121 37l-34 15q-67 24 -87 24q-31 0 -52 -22.5t-58 -83.5z" />
<glyph unicode="&#x16a;" horiz-adv-x="1525" d="M221 1313l17 73q160 -4 270 -4q71 0 235 4l-14 -73q-100 -7 -130 -14t-46 -23q-18 -21 -39 -111q-71 -320 -113 -534q-34 -162 -34 -281q0 -276 338 -276q114 0 212.5 38t149.5 101q51 64 84.5 165t69.5 277q18 79 92 500q10 56 10 90q0 19 -5 29t-12.5 13.5t-25.5 8.5 q-24 5 -139 17l14 73q148 -4 244 -4q98 0 246 4l-17 -73q-94 -3 -131 -13.5t-47 -29.5q-18 -36 -37 -133l-100 -519q-40 -203 -81 -312.5t-110 -178.5q-156 -156 -456 -156q-84 0 -156.5 18t-135 56t-98.5 106.5t-36 161.5q0 110 41 312q66 340 110 534q15 67 15 88 q0 20 -7.5 31t-29.5 18q-37 14 -148 17zM668 1556l22 111h553l-20 -111h-555z" />
<glyph unicode="&#x16b;" horiz-adv-x="1185" d="M143 831l15 66q95 51 186 51q47 0 73.5 -19t26.5 -73q0 -23 -34 -190l-82 -349q-15 -69 -15 -116q0 -65 33.5 -91t95.5 -26q150 0 328 154q7 52 33 176l119 516h106l-115 -518q-36 -167 -36 -246q0 -42 19.5 -62t64.5 -20q13 0 65 6.5t68 9.5l-17 -63q-51 -27 -107.5 -41 t-95.5 -14q-46 0 -80 29.5t-34 90.5q0 39 4 62q-72 -88 -168 -138.5t-199 -50.5q-85 0 -141.5 42t-56.5 124q0 81 20 174l72 299q24 101 24 150q0 45 -17.5 60.5t-64.5 15.5q-38 0 -90 -9zM422 1151l20 111h500l-20 -111h-500z" />
<glyph unicode="&#x16c;" horiz-adv-x="1525" d="M221 1313l17 73q160 -4 270 -4q71 0 235 4l-14 -73q-100 -7 -130 -14t-46 -23q-18 -21 -39 -111q-71 -320 -113 -534q-34 -162 -34 -281q0 -276 338 -276q114 0 212.5 38t149.5 101q51 64 84.5 165t69.5 277q18 79 92 500q10 56 10 90q0 19 -5 29t-12.5 13.5t-25.5 8.5 q-24 5 -139 17l14 73q148 -4 244 -4q98 0 246 4l-17 -73q-94 -3 -131 -13.5t-47 -29.5q-18 -36 -37 -133l-100 -519q-40 -203 -81 -312.5t-110 -178.5q-156 -156 -456 -156q-84 0 -156.5 18t-135 56t-98.5 106.5t-36 161.5q0 110 41 312q66 340 110 534q15 67 15 88 q0 20 -7.5 31t-29.5 18q-37 14 -148 17zM657 1749q0 31 2 45l72 4q0 -88 50 -136t145 -48q185 0 239 184l68 -2q-17 -142 -106.5 -218.5t-215.5 -76.5q-116 0 -185 59.5t-69 188.5z" />
<glyph unicode="&#x16d;" horiz-adv-x="1185" d="M143 831l15 66q95 51 186 51q47 0 73.5 -19t26.5 -73q0 -23 -34 -190l-82 -349q-15 -69 -15 -116q0 -65 33.5 -91t95.5 -26q150 0 328 154q7 52 33 176l119 516h106l-115 -518q-36 -167 -36 -246q0 -42 19.5 -62t64.5 -20q13 0 65 6.5t68 9.5l-17 -63q-51 -27 -107.5 -41 t-95.5 -14q-46 0 -80 29.5t-34 90.5q0 39 4 62q-72 -88 -168 -138.5t-199 -50.5q-85 0 -141.5 42t-56.5 124q0 81 20 174l72 299q24 101 24 150q0 45 -17.5 60.5t-64.5 15.5q-38 0 -90 -9zM446 1319q0 36 5 67l69 7q0 -187 154 -187q82 0 135 45.5t84 141.5l68 -7 q-21 -144 -97 -218t-192 -74q-226 0 -226 225z" />
<glyph unicode="&#x16e;" horiz-adv-x="1525" d="M221 1313l17 73q160 -4 270 -4q71 0 235 4l-14 -73q-100 -7 -130 -14t-46 -23q-18 -21 -39 -111q-71 -320 -113 -534q-34 -162 -34 -281q0 -276 338 -276q114 0 212.5 38t149.5 101q51 64 84.5 165t69.5 277q18 79 92 500q10 56 10 90q0 19 -5 29t-12.5 13.5t-25.5 8.5 q-24 5 -139 17l14 73q148 -4 244 -4q98 0 246 4l-17 -73q-94 -3 -131 -13.5t-47 -29.5q-18 -36 -37 -133l-100 -519q-40 -203 -81 -312.5t-110 -178.5q-156 -156 -456 -156q-84 0 -156.5 18t-135 56t-98.5 106.5t-36 161.5q0 110 41 312q66 340 110 534q15 67 15 88 q0 20 -7.5 31t-29.5 18q-37 14 -148 17zM770 1616q0 88 58.5 146.5t144.5 58.5q73 0 122.5 -46t49.5 -120q0 -85 -56.5 -145t-148.5 -60q-70 0 -120 46t-50 120zM846 1622q0 -46 29 -75t71 -29q56 0 88.5 34.5t32.5 100.5q0 47 -29 73.5t-73 26.5q-53 0 -86 -35t-33 -96z " />
<glyph unicode="&#x16f;" horiz-adv-x="1185" d="M143 831l15 66q95 51 186 51q47 0 73.5 -19t26.5 -73q0 -23 -34 -190l-82 -349q-15 -69 -15 -116q0 -65 33.5 -91t95.5 -26q150 0 328 154q7 52 33 176l119 516h106l-115 -518q-36 -167 -36 -246q0 -42 19.5 -62t64.5 -20q13 0 65 6.5t68 9.5l-17 -63q-51 -27 -107.5 -41 t-95.5 -14q-46 0 -80 29.5t-34 90.5q0 39 4 62q-72 -88 -168 -138.5t-199 -50.5q-85 0 -141.5 42t-56.5 124q0 81 20 174l72 299q24 101 24 150q0 45 -17.5 60.5t-64.5 15.5q-38 0 -90 -9zM496 1241q0 89 58 147t144 58q73 0 122.5 -46t49.5 -120q0 -85 -56 -145t-148 -60 q-71 0 -120.5 45.5t-49.5 120.5zM571 1247q0 -46 29.5 -75t71.5 -29q56 0 88.5 34.5t32.5 100.5q0 47 -29.5 73.5t-73.5 26.5q-53 0 -86 -35t-33 -96z" />
<glyph unicode="&#x170;" horiz-adv-x="1525" d="M221 1313l17 73q160 -4 270 -4q71 0 235 4l-14 -73q-100 -7 -130 -14t-46 -23q-18 -21 -39 -111q-71 -320 -113 -534q-34 -162 -34 -281q0 -276 338 -276q114 0 212.5 38t149.5 101q51 64 84.5 165t69.5 277q18 79 92 500q10 56 10 90q0 19 -5 29t-12.5 13.5t-25.5 8.5 q-24 5 -139 17l14 73q148 -4 244 -4q98 0 246 4l-17 -73q-94 -3 -131 -13.5t-47 -29.5q-18 -36 -37 -133l-100 -519q-40 -203 -81 -312.5t-110 -178.5q-156 -156 -456 -156q-84 0 -156.5 18t-135 56t-98.5 106.5t-36 161.5q0 110 41 312q66 340 110 534q15 67 15 88 q0 20 -7.5 31t-29.5 18q-37 14 -148 17zM666 1520l229 254q35 39 55.5 53t44.5 14q27 0 45.5 -17t18.5 -44q0 -50 -78 -107l-272 -200zM973 1520l231 254q36 39 55.5 53t43.5 14q27 0 46 -17t19 -44q0 -47 -78 -107l-274 -200z" />
<glyph unicode="&#x171;" horiz-adv-x="1185" d="M143 831l15 66q95 51 186 51q47 0 73.5 -19t26.5 -73q0 -23 -34 -190l-82 -349q-15 -69 -15 -116q0 -65 33.5 -91t95.5 -26q150 0 328 154q7 52 33 176l119 516h106l-115 -518q-36 -167 -36 -246q0 -42 19.5 -62t64.5 -20q13 0 65 6.5t68 9.5l-17 -63q-51 -27 -107.5 -41 t-95.5 -14q-46 0 -80 29.5t-34 90.5q0 39 4 62q-72 -88 -168 -138.5t-199 -50.5q-85 0 -141.5 42t-56.5 124q0 81 20 174l72 299q24 101 24 150q0 45 -17.5 60.5t-64.5 15.5q-38 0 -90 -9zM444 1118l181 285q31 47 50 61.5t44 14.5q23 0 40 -14.5t17 -43.5q0 -22 -14 -44 t-47 -58l-219 -240zM719 1118l180 285q31 47 49 61.5t43 14.5q24 0 42 -14.5t18 -43.5q0 -21 -14.5 -43t-47.5 -59l-219 -240z" />
<glyph unicode="&#x172;" horiz-adv-x="1525" d="M221 1313l17 73q160 -4 270 -4q71 0 235 4l-14 -73q-100 -7 -130 -14t-46 -23q-18 -21 -39 -111q-71 -320 -113 -534q-34 -162 -34 -281q0 -276 338 -276q114 0 212.5 38t149.5 101q51 64 84.5 165t69.5 277q18 79 92 500q10 56 10 90q0 19 -5 29t-12.5 13.5t-25.5 8.5 q-24 5 -139 17l14 73q148 -4 244 -4q98 0 246 4l-17 -73q-94 -3 -131 -13.5t-47 -29.5q-18 -36 -37 -133l-100 -519q-40 -203 -81 -312.5t-110 -178.5q-147 -147 -417 -156q-164 -181 -164 -301q0 -59 30.5 -91t85.5 -32q29 0 73 9.5t69 21.5l30 -63q-111 -76 -213 -76 q-95 0 -142.5 57.5t-47.5 143.5q0 85 44.5 160t145.5 173q-61 4 -114.5 17t-102 39.5t-83.5 64t-55.5 94t-20.5 125.5q0 110 41 312q66 340 110 534q15 67 15 88q0 20 -7.5 31t-29.5 18q-37 14 -148 17z" />
<glyph unicode="&#x173;" horiz-adv-x="1185" d="M143 831l15 66q95 51 186 51q47 0 73.5 -19t26.5 -73q0 -23 -34 -190l-82 -349q-15 -69 -15 -116q0 -65 33.5 -91t95.5 -26q150 0 328 154q7 52 33 176l119 516h106l-115 -518q-36 -167 -36 -246q0 -42 19.5 -62t64.5 -20q13 0 65 6.5t68 9.5l-17 -63q-79 -41 -170 -53 q-42 -38 -71.5 -69t-62 -73.5t-49.5 -87.5t-17 -90q0 -47 31 -75.5t81 -28.5q60 0 135 30l23 -57q-108 -74 -203 -74q-86 0 -132 51t-46 125q0 101 59 181.5t174 173.5q-30 10 -49.5 38.5t-19.5 73.5q0 39 4 62q-72 -88 -168 -138.5t-199 -50.5q-85 0 -141.5 42t-56.5 124 q0 81 20 174l72 299q24 101 24 150q0 45 -17.5 60.5t-64.5 15.5q-38 0 -90 -9z" />
<glyph unicode="&#x174;" horiz-adv-x="1943" d="M170 1313l14 73q51 -1 103.5 -2t82.5 -1.5t54 -0.5q149 0 231 4l-16 -73q-106 -2 -152 -23q-41 -20 -41 -90q0 -14 1.5 -52.5t1.5 -41.5q27 -762 32 -971q117 254 586 1196q30 62 74 62q56 0 61 -58q94 -1017 105 -1202q91 225 419 993q39 103 39 131q0 35 -47 43 q-73 11 -147 13l14 73q100 -4 264 -4q61 0 217 4l-14 -73q-51 -3 -77.5 -9.5t-49.5 -25.5q-14 -12 -29 -36t-21.5 -38.5t-25.5 -56.5l-493 -1122q-29 -62 -84 -62q-26 0 -41.5 13.5t-18.5 48.5q-87 967 -102 1196q-119 -256 -588 -1196q-30 -62 -84 -62q-57 0 -59 62 l-49 1118q-4 63 -11.5 98t-27.5 47q-30 18 -121 25zM852 1516l274 270q40 37 74 37q22 0 36 -7.5t28 -31.5l170 -279l-48 -41l-206 215l-287 -215z" />
<glyph unicode="&#x175;" horiz-adv-x="1613" d="M117 831l12 66q95 51 188 51q45 0 70 -19t25 -73q0 -59 -25 -190l-65 -357q-15 -92 -15 -114q0 -63 17.5 -90t74.5 -27q116 0 252 182q60 85 107 184l80 449h106l-86 -506q-20 -118 -20 -192q0 -61 22 -89t76 -28q135 0 272 162q79 95 132 233.5t53 247.5q0 66 -25 93.5 t-88 27.5q-50 0 -80 -6l12 65q87 47 168 47q71 0 98 -48.5t27 -137.5q0 -125 -62 -286t-157 -277q-89 -110 -194.5 -167t-188.5 -57q-81 0 -125.5 42t-44.5 126q0 70 10 129q-74 -138 -182.5 -217.5t-189.5 -79.5q-176 0 -176 166q0 78 16 166l55 301q23 127 23 156 q0 45 -18.5 60.5t-65.5 15.5q-43 0 -88 -9zM633 1090l252 305q30 37 69 37q49 0 66 -37l143 -320l-59 -28l-166 239l-262 -239z" />
<glyph unicode="&#x176;" horiz-adv-x="1228" d="M162 1313l16 73q230 -4 234 -4q17 0 235 4l-18 -73q-112 0 -146 -10q-39 -8 -39 -50q0 -29 27 -102q98 -255 184 -487q220 289 383 497q62 77 62 115q0 13 -12 21.5t-38 11.5t-42.5 3.5t-50.5 0.5h-5h-5h-5l16 73q94 -4 244 -4q99 0 189 4l-19 -73q-55 -3 -96 -29 q-27 -16 -98 -104l-484 -602l-71 -367q-13 -70 -13 -90q0 -29 31 -35q42 -6 154 -12l-15 -76q-218 4 -248 4q-65 0 -249 -4l14 76q99 4 128 11t44 24q20 24 35 102l69 364l-229 570q-11 26 -22 56.5t-16 43t-12 24t-15 17.5q-37 24 -117 27zM522 1516l275 270q40 37 73 37 q22 0 36 -7.5t28 -31.5l170 -279l-47 -41l-207 215l-287 -215z" />
<glyph unicode="&#x177;" horiz-adv-x="1189" d="M100 -446q0 60 27 163h70q-2 -23 -2 -59q3 -61 36 -88q47 -43 148 -43q82 0 144.5 33t94.5 96q54 107 115 371q6 30 19 84t14 57q-169 -193 -379 -193q-85 0 -133.5 41.5t-48.5 124.5q0 84 20 176l66 297q24 118 24 150q0 45 -17.5 60.5t-64.5 15.5q-38 0 -90 -9l15 66 q95 51 186 51q47 0 73.5 -19t26.5 -73q0 -23 -34 -190l-76 -349q-15 -69 -15 -116q0 -67 26.5 -92t90.5 -25q75 0 166 48.5t176 125.5l140 672h110q-39 -181 -102.5 -506.5t-94.5 -474.5q-32 -161 -67.5 -250t-89.5 -143q-119 -119 -320 -119q-142 0 -213 47q-41 26 -41 70z M389 1090l252 305q30 37 70 37q48 0 65 -37l144 -320l-60 -28l-166 239l-262 -239z" />
<glyph unicode="&#x178;" horiz-adv-x="1228" d="M162 1313l16 73q230 -4 234 -4q17 0 235 4l-18 -73q-112 0 -146 -10q-39 -8 -39 -50q0 -29 27 -102q98 -255 184 -487q220 289 383 497q62 77 62 115q0 13 -12 21.5t-38 11.5t-42.5 3.5t-50.5 0.5h-5h-5h-5l16 73q94 -4 244 -4q99 0 189 4l-19 -73q-55 -3 -96 -29 q-27 -16 -98 -104l-484 -602l-71 -367q-13 -70 -13 -90q0 -29 31 -35q42 -6 154 -12l-15 -76q-218 4 -248 4q-65 0 -249 -4l14 76q99 4 128 11t44 24q20 24 35 102l69 364l-229 570q-11 26 -22 56.5t-16 43t-12 24t-15 17.5q-37 24 -117 27zM561 1612q0 38 25.5 65t64.5 27 q37 0 59.5 -22.5t22.5 -57.5q0 -41 -25 -70.5t-67 -29.5q-35 0 -57.5 25t-22.5 63zM905 1612q0 38 25.5 65t64.5 27t60.5 -22.5t21.5 -57.5q0 -41 -24.5 -70.5t-67.5 -29.5q-35 0 -57.5 25t-22.5 63z" />
<glyph unicode="&#x179;" horiz-adv-x="1210" d="M2 0l6 47l1082 1245q-384 0 -493.5 -3t-141.5 -11q-33 -9 -58 -54.5t-53 -146.5h-72q10 130 23 219q8 44 42.5 66t108.5 22h842l-8 -47l-1081 -1239q82 -4 327 -4q204 0 290.5 9.5t119.5 29.5q20 12 39.5 34t38.5 56t29.5 55t29.5 60h70q-29 -159 -76 -272 q-27 -66 -131 -66h-934zM696 1524l256 229q37 34 59.5 46.5t47.5 12.5t41 -21t16 -50q0 -43 -88 -96l-293 -172z" />
<glyph unicode="&#x17a;" horiz-adv-x="1019" d="M23 0l4 39l741 813q-320 0 -381 -8q-33 -3 -49.5 -10t-32.5 -27q-20 -28 -47 -133h-74q1 16 3 50.5t4 62.5t6 53q4 24 7.5 37t13 27t28 20t47.5 6h655l-6 -47l-739 -799q78 -4 205 -4q230 0 288 18q53 19 77 59.5t50 125.5h74q-20 -154 -33 -203q-10 -41 -35 -60.5 t-86 -19.5h-720zM494 1122l215 279q35 42 55 58t41 16q25 0 47 -18.5t22 -47.5q0 -25 -17.5 -48.5t-53.5 -53.5l-262 -228z" />
<glyph unicode="&#x17b;" horiz-adv-x="1210" d="M2 0l6 47l1082 1245q-384 0 -493.5 -3t-141.5 -11q-33 -9 -58 -54.5t-53 -146.5h-72q10 130 23 219q8 44 42.5 66t108.5 22h842l-8 -47l-1081 -1239q82 -4 327 -4q204 0 290.5 9.5t119.5 29.5q20 12 39.5 34t38.5 56t29.5 55t29.5 60h70q-29 -159 -76 -272 q-27 -66 -131 -66h-934zM705 1612q0 38 25.5 65t64.5 27t60.5 -22.5t21.5 -57.5q0 -41 -25.5 -70.5t-67.5 -29.5q-35 0 -57 25t-22 63z" />
<glyph unicode="&#x17c;" horiz-adv-x="1019" d="M23 0l4 39l741 813q-320 0 -381 -8q-33 -3 -49.5 -10t-32.5 -27q-20 -28 -47 -133h-74q1 16 3 50.5t4 62.5t6 53q4 24 7.5 37t13 27t28 20t47.5 6h655l-6 -47l-739 -799q78 -4 205 -4q230 0 288 18q53 19 77 59.5t50 125.5h74q-20 -154 -33 -203q-10 -41 -35 -60.5 t-86 -19.5h-720zM537 1272q0 24 11.5 45t32 34t46.5 13q39 0 60.5 -22.5t21.5 -57.5q0 -13 -3 -25t-8 -23.5t-13.5 -21t-18.5 -16t-23 -10.5t-27 -4q-35 0 -57 24t-22 64z" />
<glyph unicode="&#x17d;" horiz-adv-x="1210" d="M2 0l6 47l1082 1245q-384 0 -493.5 -3t-141.5 -11q-33 -9 -58 -54.5t-53 -146.5h-72q10 130 23 219q8 44 42.5 66t108.5 22h842l-8 -47l-1081 -1239q82 -4 327 -4q204 0 290.5 9.5t119.5 29.5q20 12 39.5 34t38.5 56t29.5 55t29.5 60h70q-29 -159 -76 -272 q-27 -66 -131 -66h-934zM547 1786l47 41l207 -213l286 213l41 -49l-272 -273q-40 -37 -74 -37q-23 0 -37 7.5t-28 31.5z" />
<glyph unicode="&#x17e;" horiz-adv-x="1019" d="M23 0l4 39l741 813q-320 0 -381 -8q-33 -3 -49.5 -10t-32.5 -27q-20 -28 -47 -133h-74q1 16 3 50.5t4 62.5t6 53q4 24 7.5 37t13 27t28 20t47.5 6h655l-6 -47l-739 -799q78 -4 205 -4q230 0 288 18q53 19 77 59.5t50 125.5h74q-20 -154 -33 -203q-10 -41 -35 -60.5 t-86 -19.5h-720zM367 1403l57 29l166 -240l264 240l43 -46l-252 -303q-31 -36 -72 -36q-11 0 -19 1t-17.5 4.5t-16.5 11t-12 19.5z" />
<glyph unicode="&#x17f;" horiz-adv-x="565" d="M-317 -463q0 59 28 148h68q0 -91 19.5 -125.5t86.5 -34.5q101 0 158 100q48 81 86 293l190 1069q33 187 83 286t120 150q104 74 250 74q77 0 133 -20q45 -19 45 -66q0 -87 -30 -192h-68q2 29 2 69q-2 61 -35 94q-25 25 -100 25q-122 0 -182 -109q-51 -85 -99 -329 l-202 -1067q-25 -132 -52.5 -211t-66.5 -129q-95 -125 -264 -125q-77 0 -127 26q-43 26 -43 74z" />
<glyph unicode="&#x192;" horiz-adv-x="1075" d="M-115 -260q0 44 27 145h70q2 -102 25.5 -135t98.5 -33q145 0 209 174q43 118 88 392l64 387h-203l19 98h202q43 282 103 387q64 110 152.5 163.5t220.5 53.5q96 0 165 -29q30 -12 42 -34.5t12 -61.5q0 -38 -23 -160h-74q-3 119 -35.5 153t-138.5 34q-142 0 -209 -139 q-54 -107 -86 -316l-8 -51h258l-16 -98h-258l-84 -486q-43 -241 -94 -346q-109 -219 -324 -219q-203 0 -203 121z" />
<glyph unicode="&#x1fa;" horiz-adv-x="1411" d="M-76 -2l19 78q101 5 137 30q20 13 39.5 40t70.5 114l641 1104l7 10q-46 18 -73.5 58.5t-27.5 97.5q0 80 56.5 140.5t140.5 60.5q78 0 128 -47t50 -123q0 -78 -38.5 -127.5t-100.5 -65.5l2 -4l176 -1126q15 -108 43 -136q19 -22 141 -26l-16 -78q-126 4 -264 4 q-104 0 -236 -4l17 78q87 0 133 12q37 9 51 26t14 50q0 36 -8 98l-39 254h-538l-142 -244q-59 -98 -59 -139q0 -23 14 -35q23 -16 178 -22l-18 -78q-114 4 -268 4q-108 0 -230 -4zM498 606h477q-52 340 -101 670q-90 -171 -376 -670zM813 1536q0 -50 28 -79.5t74 -29.5 q51 0 85 36t34 93q0 50 -30 77.5t-76 27.5q-48 0 -81.5 -33t-33.5 -92zM846 1823l233 211q63 55 107 55q23 0 41 -21t18 -49q0 -43 -88 -96l-272 -154z" />
<glyph unicode="&#x1fb;" horiz-adv-x="1128" d="M98 281q0 133 67 289t175 249q154 129 360 129q42 0 99.5 -14.5t101.5 -40.5l33 76h90l-123 -477q-57 -225 -57 -336q0 -34 20 -53t70 -19t129 18l-16 -67q-100 -53 -201 -53q-63 0 -89 33t-26 100q0 5 1 22.5t1 22.5q-162 -185 -356 -185q-141 0 -210 79.5t-69 226.5z M215 285q0 -109 42.5 -160t139.5 -51q160 0 340 176q10 85 47 217l88 336q-88 53 -204 53q-136 0 -256 -104q-83 -70 -140 -202t-57 -265zM590 1241q0 88 58.5 146.5t144.5 58.5q73 0 122.5 -46t49.5 -120q0 -85 -56.5 -145t-148.5 -60q-71 0 -120.5 45.5t-49.5 120.5z M666 1247q0 -46 29 -75t73 -29q54 0 86.5 34.5t32.5 100.5q0 47 -29.5 73.5t-71.5 26.5q-54 0 -87 -34.5t-33 -96.5zM715 1552l200 258q34 41 54.5 56.5t42.5 15.5q26 0 47.5 -17t21.5 -46q0 -43 -71 -105l-248 -205z" />
<glyph unicode="&#x1fc;" horiz-adv-x="2058" d="M-6 -2l14 76q122 9 152 35q59 46 149 151l758 895q68 80 68 113q0 15 -9.5 23t-35.5 12q-55 8 -140 10l15 71h958q58 0 81.5 -19t23.5 -54q0 -82 -33 -236h-72q0 101 -8 136.5t-27 48.5q-26 20 -78.5 27t-191.5 7h-201l-100 -526h178q96 0 132.5 6.5t58.5 28.5 q27 25 59 131h74q-51 -195 -82 -414h-70q2 16 2 49q0 76 -31 93.5t-153 17.5h-187l-88 -455q-10 -70 -10 -73q0 -49 41 -54q53 -6 203 -6q259 0 332 58q52 42 122 188h68q-26 -178 -84 -285q-29 -53 -160 -53h-860l17 74q115 8 149 18q33 9 43 39q8 21 31 137l51 267h-489 l-220 -263q-54 -63 -69 -88.5t-15 -54.5q0 -9 3.5 -16.5t11.5 -12.5t16.5 -9t22.5 -7t24.5 -4.5t28 -2.5t28 -1.5t28.5 -1t26 -0.5l-14 -76q-196 4 -277 4q-72 0 -264 -4zM733 621h434l125 634q2 12 2 19q0 10 -8 10q-2 0 -4 -1t-4.5 -3t-4 -4t-5 -6.5t-6.5 -7.5 q-182 -225 -529 -641zM1376 1524l256 229q37 34 59.5 46.5t47.5 12.5t41 -21t16 -50q0 -43 -88 -96l-293 -172z" />
<glyph unicode="&#x1fd;" horiz-adv-x="1574" d="M98 281q0 133 67 289t175 249q154 129 360 129q45 0 98 -13t87 -38l35 80h86l-45 -170q67 78 158.5 114.5t168.5 36.5q127 0 188.5 -61.5t61.5 -144.5q0 -161 -168 -242.5t-483 -81.5q-6 -41 -6 -88q0 -54 14 -100.5t42 -84.5t76 -59.5t111 -21.5q157 0 342 127l37 -49 q-104 -91 -196 -136t-224 -45q-108 0 -190.5 59t-108.5 177q-80 -100 -184.5 -166t-224.5 -66q-277 0 -277 306zM215 285q0 -211 180 -211q82 0 183.5 60t191.5 161q0 97 86 512q-85 49 -188 49q-136 0 -256 -104q-83 -70 -140 -202t-57 -265zM844 1122l215 279q35 42 55 58 t41 16q26 0 48 -18.5t22 -47.5q0 -43 -72 -102l-262 -228zM899 504q255 9 388.5 71.5t133.5 157.5q0 64 -33.5 99.5t-125.5 35.5q-40 0 -100.5 -24t-100.5 -58q-61 -49 -102.5 -112.5t-59.5 -169.5z" />
<glyph unicode="&#x1fe;" horiz-adv-x="1415" d="M80 2l145 172q-90 137 -90 361q0 164 49.5 335t145.5 295q195 250 522 250q212 0 336 -98l129 151l67 -57l-133 -158q107 -131 107 -352q0 -453 -217 -713q-86 -103 -213.5 -160t-261.5 -57q-247 0 -383 133l-136 -159zM260 541q0 -163 49 -269l801 953q-105 94 -281 94 q-112 0 -207 -45.5t-160.5 -121.5t-112 -177t-68 -211t-21.5 -223zM356 193q106 -125 318 -125q99 0 182.5 35t143 96.5t104.5 141t72 173.5t40 189t13 192q0 158 -62 258zM711 1524l256 229q37 34 59 46.5t47 12.5t41 -21t16 -50q0 -43 -88 -96l-292 -172z" />
<glyph unicode="&#x1ff;" horiz-adv-x="1042" d="M43 -6l113 127q-56 92 -56 235q0 111 34.5 227.5t101.5 204.5q63 82 157.5 126t208.5 44q145 0 234 -67l102 117l61 -56l-108 -121q63 -86 63 -225q0 -134 -37 -260.5t-116 -222.5q-60 -71 -150 -110.5t-180 -39.5q-172 0 -266 88l-103 -116zM215 369q0 -91 25 -154 l522 594q-65 53 -178 53q-173 0 -265 -129q-52 -70 -78 -167t-26 -197zM281 145q64 -73 204 -73q70 0 132 29.5t104 80.5q61 78 91 186t30 224q0 85 -29 151zM483 1122l215 279q34 42 55 58t42 16q25 0 47 -18.5t22 -47.5q0 -44 -71 -102l-263 -228z" />
<glyph unicode="&#x218;" horiz-adv-x="1105" d="M59 170q0 87 19 190h74q4 -152 78 -221t257 -69q174 0 260.5 78.5t86.5 193.5q0 152 -181 252l-229 129q-91 53 -136.5 131t-45.5 164t31.5 157.5t93.5 126t162 85t229 30.5q136 0 227 -37q41 -18 59.5 -40.5t18.5 -57.5q0 -66 -29 -205h-71q0 75 -13 122t-31.5 66 t-48.5 29q-62 23 -172 23q-87 0 -154 -23.5t-105.5 -64.5t-57.5 -89.5t-19 -103.5q0 -65 42 -123t157 -122l209 -119q191 -111 191 -287q0 -205 -137 -309.5t-369 -104.5q-69 0 -135.5 11t-126.5 33.5t-97 62.5t-37 92zM246 -446q91 31 133.5 68.5t42.5 70.5q0 34 -21 55 q-41 41 -41 74q0 39 26.5 62.5t72.5 23.5q43 0 69.5 -31.5t26.5 -83.5q0 -211 -289 -301z" />
<glyph unicode="&#x219;" horiz-adv-x="899" d="M92 133q0 57 17 150h67q2 -97 43 -154q47 -59 187 -59q105 0 169 39t64 110q0 47 -26 84.5t-87 73.5l-172 102q-141 80 -141 211q0 134 102.5 201t259.5 67q117 0 193 -36q23 -10 37 -33t14 -51q0 -75 -22 -152h-66q-6 64 -15.5 95t-29.5 46q-55 39 -149 39 q-59 0 -105.5 -13.5t-79.5 -48.5t-33 -89q0 -46 32 -85t106 -83l155 -90q136 -77 136 -205q0 -74 -29.5 -129.5t-81.5 -87.5t-116 -47t-140 -15q-136 0 -231 56q-58 34 -58 104zM168 -446q91 31 133.5 68.5t42.5 70.5q0 35 -20 55q-41 41 -41 74q0 39 26 62.5t72 23.5 q43 0 69.5 -31.5t26.5 -83.5q0 -211 -289 -301z" />
<glyph unicode="&#x21a;" horiz-adv-x="1300" d="M209 1075q13 110 33 213q9 50 33 73t90 23h901q67 0 90.5 -19t23.5 -65q0 -40 -43 -225h-69q0 168 -29 191q-22 19 -78 23.5t-291 4.5l-202 -1050q-15 -76 -15 -111q0 -37 41 -45q29 -7 144 -14l-15 -76q-152 4 -245 4q-99 0 -263 -4l15 76q99 7 132 15t48 24 q20 22 39 129l203 1052q-229 0 -287.5 -5t-89.5 -23q-42 -26 -94 -191h-72zM346 -446q91 31 133.5 68.5t42.5 70.5q0 35 -20 55q-41 41 -41 74q0 39 26 62.5t72 23.5q43 0 69.5 -31.5t26.5 -83.5q0 -212 -288 -301z" />
<glyph unicode="&#x21b;" horiz-adv-x="659" d="M92 -446q91 31 133.5 68.5t42.5 70.5q0 35 -20 55q-41 41 -41 74q0 39 26 62.5t72 23.5q43 0 69.5 -31.5t26.5 -83.5q0 -212 -288 -301zM123 823l14 62q63 14 117 33q24 8 38 22.5t27 40.5q27 53 76 166q14 31 49 31t35 -27q0 -12 -51 -238q156 0 254 -4l-14 -80 q-132 -6 -262 -6l-80 -405q-1 -7 -9 -51t-11.5 -63t-7 -54t-3.5 -62q0 -110 104 -110q74 0 172 39l31 -74q-123 -68 -246 -68q-81 0 -130.5 41.5t-49.5 130.5q0 51 12 109q15 88 113 567h-178z" />
<glyph unicode="&#x2c6;" horiz-adv-x="595" d="M35 1090l252 305q30 37 69 37q49 0 66 -37l143 -320l-59 -28l-166 239l-262 -239z" />
<glyph unicode="&#x2c7;" horiz-adv-x="595" d="M35 1403l57 29l166 -240l264 240l43 -46l-252 -303q-31 -36 -71 -36q-51 0 -66 36z" />
<glyph unicode="&#x2d8;" horiz-adv-x="595" d="M41 1319q0 42 4 67l70 7q0 -187 153 -187q82 0 135 45.5t84 141.5l68 -7q-21 -144 -97 -218t-192 -74q-225 0 -225 225z" />
<glyph unicode="&#x2d9;" horiz-adv-x="595" d="M211 1272q0 38 25.5 65t64.5 27t60.5 -22.5t21.5 -57.5q0 -41 -25 -70.5t-67 -29.5q-35 0 -57.5 24t-22.5 64z" />
<glyph unicode="&#x2da;" horiz-adv-x="595" d="M113 1241q0 89 58.5 147t143.5 58q73 0 122.5 -46t49.5 -120q0 -85 -56 -145t-148 -60q-71 0 -120.5 45.5t-49.5 120.5zM188 1247q0 -46 29.5 -75t71.5 -29q56 0 88.5 34.5t32.5 100.5q0 47 -29.5 73.5t-73.5 26.5q-53 0 -86 -35t-33 -96z" />
<glyph unicode="&#x2db;" horiz-adv-x="595" d="M109 -365q0 56 18.5 106t56.5 96.5t77.5 82.5t100.5 84h82q-49 -44 -78 -72.5t-68.5 -76t-59 -95t-19.5 -96.5q0 -47 31.5 -75.5t81.5 -28.5q60 0 135 30l22 -57q-108 -74 -202 -74q-86 0 -132 51t-46 125z" />
<glyph unicode="&#x2dc;" horiz-adv-x="595" d="M4 1143q74 196 189 196q44 0 104 -26l41 -21q61 -26 84 -26q52 0 110 108l60 -22q-71 -203 -174 -203q-43 0 -121 37l-35 14q-70 25 -86 25q-31 0 -52 -22.5t-58 -84.5z" />
<glyph unicode="&#x2dd;" horiz-adv-x="604" d="M-2 1118l180 285q31 47 50 61.5t44 14.5q23 0 40.5 -15t17.5 -43q0 -21 -14.5 -43t-47.5 -59l-219 -240zM272 1118l181 285q31 47 49 61.5t43 14.5q24 0 41.5 -14.5t17.5 -43.5q0 -22 -14 -44t-47 -58l-219 -240z" />
<glyph unicode="&#x394;" horiz-adv-x="1345" d="M-43 0l8 47l832 1319q20 29 37.5 42t42.5 13t40 -11t23 -44l317 -1319l-8 -47h-1292zM133 113h979l-270 1142z" />
<glyph unicode="&#x3a9;" horiz-adv-x="1626" d="M147 76q0 135 19 256h72q11 -152 45 -191q25 -28 79 -34.5t205 -6.5l4 33q-122 57 -208.5 199t-86.5 330q0 113 30.5 223t91.5 206t144 169t196 115t241 42q221 0 358.5 -138t137.5 -380q0 -522 -471 -766l-5 -33q143 0 212.5 9.5t101.5 37.5q16 13 34.5 50t59.5 135h70 q-35 -182 -54 -248q-23 -84 -112 -84h-428l26 180q106 62 181 124.5t134.5 144t89 184.5t29.5 231q0 219 -106 335t-270 116q-135 0 -244.5 -55.5t-178.5 -148.5t-106 -211t-37 -247q0 -315 281 -473l-25 -180h-421q-89 0 -89 76z" />
<glyph unicode="&#x3bc;" horiz-adv-x="1214" d="M57 -444q0 4 2 13t4 20.5t3 15.5l235 1009q25 109 25 150q0 45 -17.5 60.5t-64.5 15.5q-43 0 -88 -9l12 66q95 51 188 51q45 0 72 -19.5t27 -72.5q0 -19 -35 -190l-82 -349q-14 -65 -14 -116q0 -65 33.5 -91t95.5 -26q149 0 327 154q9 69 35 176l119 516h104l-114 -518 q-37 -171 -37 -246q0 -42 19.5 -62t64.5 -20q43 0 135 16l-19 -63q-51 -27 -107.5 -41t-94.5 -14q-46 0 -79.5 29.5t-33.5 90.5q0 39 4 62q-73 -87 -167 -134.5t-197 -47.5q-102 0 -140 53q-12 -63 -31.5 -171t-32.5 -179.5t-18 -96.5q-10 -40 -26.5 -58.5t-50.5 -18.5 q-56 0 -56 45z" />
<glyph unicode="&#x3c0;" horiz-adv-x="1232" d="M35 -2l14 78q121 2 154 35q18 16 35 98l98 506q10 51 10 84q0 22 -9 30t-34 13q-56 10 -115 12l15 76h1007l-14 -76q-126 -7 -145 -29q-12 -13 -17 -29t-16 -69l-92 -471q-13 -67 -13 -94q0 -38 20.5 -60t57.5 -22q63 0 103 16l22 -63q-81 -43 -178 -43q-135 0 -135 125 q0 58 16 137l117 592h-469l-123 -631q-10 -51 -10 -80q0 -36 43 -45q56 -10 115 -12l-17 -78q-160 4 -223 4q-49 0 -217 -4z" />
<glyph unicode="&#x1e80;" horiz-adv-x="1943" d="M170 1313l14 73q51 -1 103.5 -2t82.5 -1.5t54 -0.5q149 0 231 4l-16 -73q-106 -2 -152 -23q-41 -20 -41 -90q0 -14 1.5 -52.5t1.5 -41.5q27 -762 32 -971q117 254 586 1196q30 62 74 62q56 0 61 -58q94 -1017 105 -1202q91 225 419 993q39 103 39 131q0 35 -47 43 q-73 11 -147 13l14 73q100 -4 264 -4q61 0 217 4l-14 -73q-51 -3 -77.5 -9.5t-49.5 -25.5q-14 -12 -29 -36t-21.5 -38.5t-25.5 -56.5l-493 -1122q-29 -62 -84 -62q-26 0 -41.5 13.5t-18.5 48.5q-87 967 -102 1196q-119 -256 -588 -1196q-30 -62 -84 -62q-57 0 -59 62 l-49 1118q-4 63 -11.5 98t-27.5 47q-30 18 -121 25zM887 1786q0 29 22 48t52 19q20 0 40 -17t54 -58l205 -260l-48 -45l-256 210q-69 60 -69 103z" />
<glyph unicode="&#x1e81;" horiz-adv-x="1613" d="M117 831l12 66q95 51 188 51q45 0 70 -19t25 -73q0 -59 -25 -190l-65 -357q-15 -92 -15 -114q0 -63 17.5 -90t74.5 -27q116 0 252 182q60 85 107 184l80 449h106l-86 -506q-20 -118 -20 -192q0 -61 22 -89t76 -28q135 0 272 162q79 95 132 233.5t53 247.5q0 66 -25 93.5 t-88 27.5q-50 0 -80 -6l12 65q87 47 168 47q71 0 98 -48.5t27 -137.5q0 -125 -62 -286t-157 -277q-89 -110 -194.5 -167t-188.5 -57q-81 0 -125.5 42t-44.5 126q0 70 10 129q-74 -138 -182.5 -217.5t-189.5 -79.5q-176 0 -176 166q0 78 16 166l55 301q23 127 23 156 q0 45 -18.5 60.5t-65.5 15.5q-43 0 -88 -9zM637 1423q0 29 24 48.5t52 19.5q23 0 42 -16.5t50 -63.5l190 -293l-51 -39l-239 244q-28 28 -38.5 39.5t-20 28t-9.5 32.5z" />
<glyph unicode="&#x1e82;" horiz-adv-x="1943" d="M170 1313l14 73q51 -1 103.5 -2t82.5 -1.5t54 -0.5q149 0 231 4l-16 -73q-106 -2 -152 -23q-41 -20 -41 -90q0 -14 1.5 -52.5t1.5 -41.5q27 -762 32 -971q117 254 586 1196q30 62 74 62q56 0 61 -58q94 -1017 105 -1202q91 225 419 993q39 103 39 131q0 35 -47 43 q-73 11 -147 13l14 73q100 -4 264 -4q61 0 217 4l-14 -73q-51 -3 -77.5 -9.5t-49.5 -25.5q-14 -12 -29 -36t-21.5 -38.5t-25.5 -56.5l-493 -1122q-29 -62 -84 -62q-26 0 -41.5 13.5t-18.5 48.5q-87 967 -102 1196q-119 -256 -588 -1196q-30 -62 -84 -62q-57 0 -59 62 l-49 1118q-4 63 -11.5 98t-27.5 47q-30 18 -121 25zM993 1524l256 229q37 34 59.5 46.5t47.5 12.5t41 -21t16 -50q0 -43 -88 -96l-293 -172z" />
<glyph unicode="&#x1e83;" horiz-adv-x="1613" d="M117 831l12 66q95 51 188 51q45 0 70 -19t25 -73q0 -59 -25 -190l-65 -357q-15 -92 -15 -114q0 -63 17.5 -90t74.5 -27q116 0 252 182q60 85 107 184l80 449h106l-86 -506q-20 -118 -20 -192q0 -61 22 -89t76 -28q135 0 272 162q79 95 132 233.5t53 247.5q0 66 -25 93.5 t-88 27.5q-50 0 -80 -6l12 65q87 47 168 47q71 0 98 -48.5t27 -137.5q0 -125 -62 -286t-157 -277q-89 -110 -194.5 -167t-188.5 -57q-81 0 -125.5 42t-44.5 126q0 70 10 129q-74 -138 -182.5 -217.5t-189.5 -79.5q-176 0 -176 166q0 78 16 166l55 301q23 127 23 156 q0 45 -18.5 60.5t-65.5 15.5q-43 0 -88 -9zM801 1122l215 279q35 42 55 58t41 16q26 0 48 -18.5t22 -47.5q0 -43 -72 -102l-262 -228z" />
</font>
</defs>
</svg>
