<?xml version="1.0" standalone="no"?>
<!DOCTYPE svg PUBLIC "-//W3C//DTD SVG 1.1//EN" "http://www.w3.org/Graphics/SVG/1.1/DTD/svg11.dtd" >
<svg xmlns="http://www.w3.org/2000/svg">
<metadata></metadata>
<defs>
<font id="capitalight" horiz-adv-x="761" >
<font-face units-per-em="2048" ascent="1485" descent="-563" />
<missing-glyph horiz-adv-x="448" />
<glyph unicode="ff" horiz-adv-x="1357" d="M63 807v80q66 15 115 41q26 20 37.5 46t15.5 87q16 193 118.5 300t289.5 107q102 0 154 -20q57 -20 57 -94q0 -50 -16 -156h-80q-7 74 -17 101.5t-32 39.5q-29 15 -95 15q-129 0 -186 -92q-55 -85 -55 -258v-89h401q101 0 131 35q22 22 25 111q12 246 133 350 q102 86 258 86q85 0 147 -22q58 -22 58 -95q0 -36 -15 -163h-88q-9 108 -33.5 136.5t-111.5 28.5q-52 0 -96 -25t-68 -71q-47 -92 -47 -272v-92q154 0 256 -4v-105q-135 -6 -256 -6v-549q0 -107 16 -131q11 -16 46.5 -23.5t148.5 -11.5v-94q-188 4 -256 4q-66 0 -258 -4v94 q76 4 108 12t43 23q15 20 15 100v580h-557v-549q0 -104 18 -131q11 -16 47 -23.5t150 -11.5v-94q-192 4 -258 4q-68 0 -256 -4v94q75 4 106.5 12t42.5 23q14 19 14 100v580h-170z" />
<glyph unicode="fi" horiz-adv-x="1280" d="M63 807v80q80 18 115 41q26 17 36.5 43t16.5 90q24 221 156 334q56 46 142.5 74t185.5 28q149 0 223 -31q57 -20 57 -90q0 -66 -12 -168h-98q-12 116 -64 148q-39 24 -133 24q-74 0 -140 -26.5t-104 -77.5q-75 -90 -75 -289v-67h471q81 36 129 36q40 0 61 -25t21 -97 q0 -90 -3.5 -297t-3.5 -301q0 -88 17 -111q9 -14 37.5 -20.5t105.5 -12.5v-94q-180 4 -250 4q-119 0 -209 -4v94q73 6 104.5 12.5t41.5 18.5q18 18 18 110v420q0 68 -5.5 93t-22.5 40q-25 21 -133 21h-379v-549q0 -104 18 -131q12 -16 46 -23.5t145 -11.5v-94q-188 4 -252 4 q-68 0 -256 -4v94q75 4 106.5 12t42.5 23q14 19 14 100v580h-170z" />
<glyph unicode="fl" horiz-adv-x="1288" d="M63 807v80q80 18 115 41q27 18 38 44t15 89q7 123 43 201.5t105 138.5q53 45 137.5 70.5t177.5 25.5q102 0 191 -18q56 18 84 18q45 0 65.5 -22.5t20.5 -100.5q0 -24 -1 -211t-1 -274v-653q0 -93 16 -111q17 -23 143 -33v-94q-176 4 -249 4q-121 0 -211 -4v94 q75 6 106 13t41 20q16 19 16 108v654q0 201 -2 303q-3 110 -45 143q-58 47 -184 47q-178 0 -252 -104q-63 -86 -63 -264v-90q111 0 282 -7v-102q-135 -6 -282 -6v-549q0 -101 18 -131q11 -16 47 -23.5t146 -11.5v-94q-192 4 -254 4q-68 0 -256 -4v94q75 4 106.5 12t42.5 23 q14 19 14 100v580h-170z" />
<glyph unicode="ffi" horiz-adv-x="1972" d="M63 807v80q80 18 115 41q27 18 38 44t15 89q16 193 118.5 300t289.5 107q102 0 154 -20q57 -20 57 -94q0 -48 -16 -158h-80q-7 74 -17 101.5t-32 39.5q-33 17 -95 17q-134 0 -186 -92q-55 -99 -55 -256v-91h401q101 0 131 35q5 5 8.5 12t5.5 19t3 20.5t3 28.5t3 31 q10 118 49 197.5t106 136.5q56 46 142.5 74t187.5 28q144 0 221 -31q58 -20 58 -90q0 -58 -13 -168h-98q-9 114 -64 148q-39 24 -133 24q-72 0 -138.5 -27.5t-104.5 -78.5q-74 -94 -74 -287v-67h469q81 36 127 36q41 0 61.5 -24t20.5 -94q0 -89 -2 -298.5t-2 -303.5 q0 -90 16 -111q11 -14 39 -20.5t104 -12.5v-94q-176 4 -249 4q-117 0 -207 -4v94q76 6 105 12t38 19q19 23 19 110v420q0 65 -6 89.5t-23 43.5q-21 21 -133 21h-377v-549q0 -107 16 -131q11 -16 47 -23.5t146 -11.5v-94q-188 4 -254 4t-258 -4v94q76 4 108 12t43 23 q15 20 15 100v580h-557v-549q0 -104 18 -131q11 -16 47 -23.5t150 -11.5v-94q-192 4 -258 4q-68 0 -256 -4v94q75 4 106.5 12t42.5 23q14 19 14 100v580h-170z" />
<glyph unicode="ffl" horiz-adv-x="1980" d="M63 807v80q80 18 115 41q27 18 38 44t15 89q16 193 118.5 300t289.5 107q102 0 154 -20q57 -20 57 -94q0 -48 -16 -158h-80q-7 74 -17 102.5t-32 40.5q-29 15 -95 15q-134 0 -186 -92q-55 -99 -55 -258v-89h401q101 0 131 35q17 17 22 98v3t0.5 3t0.5 3.5v3.5 q10 125 45 203.5t102 136.5q55 45 138.5 70.5t176.5 25.5q102 0 191 -18q56 18 86 18q44 0 64 -22.5t20 -100.5q0 -24 -1 -212t-1 -275v-651q0 -93 16 -111q11 -13 41 -20t103 -13v-94q-180 4 -250 4q-119 0 -209 -4v94q123 10 143 33q19 27 19 108v654q0 201 -2 303 q-3 102 -45 141q-61 49 -187 49q-174 0 -248 -104q-63 -85 -63 -266v-88q109 0 280 -7v-102q-135 -6 -280 -6v-549q0 -107 16 -131q11 -16 46.5 -23.5t148.5 -11.5v-94q-188 4 -256 4q-66 0 -258 -4v94q76 4 108 12t43 23q15 20 15 100v580h-557v-549q0 -104 18 -131 q11 -16 47 -23.5t150 -11.5v-94q-192 4 -258 4q-68 0 -256 -4v94q75 4 106.5 12t42.5 23q14 19 14 100v580h-170z" />
<glyph unicode="&#x17f;t" horiz-adv-x="1316" d="M66 809v78q68 16 112 43q27 16 39 41.5t16 89.5q17 229 152 342q115 94 287 94q336 0 336 -317q0 -89 -23 -258q141 0 258 -7v-100q-129 -6 -260 -6v-391q0 -172 8 -215q11 -54 40.5 -79.5t84.5 -25.5q76 0 160 37l31 -94q-57 -32 -121.5 -49t-114.5 -17 q-106 0 -164.5 57.5t-58.5 203.5q0 61 1 261.5t1 311.5h-168v78q55 13 104 35q95 45 95 239q0 60 -18.5 104t-50.5 69t-70 36.5t-83 11.5q-62 0 -119 -25t-96 -73q-75 -91 -75 -297v-731q0 -102 18 -129q11 -16 45.5 -23.5t138.5 -11.5v-92q-188 4 -243 4q-70 0 -258 -4v92 q75 4 107 12t44 23q15 20 15 100v582h-170z" />
<glyph unicode="Th" horiz-adv-x="2359" d="M78 1280q0 52 23.5 78t95.5 26h1108q95 86 147 86q41 0 58.5 -24.5t17.5 -99.5q0 -57 -1 -226.5t-1 -300.5q68 68 166 108t200 40q59 0 110 -18.5t79 -49.5q35 -36 49 -98.5t14 -171.5v-396q0 -74 13 -100q10 -16 41.5 -25t113.5 -16v-94q-172 4 -229 4q-52 0 -228 -4v94 q120 11 136 35q20 24 20 111v364q0 120 -41 173.5t-151 53.5q-74 0 -155.5 -24t-137.5 -64v-505q0 -92 14 -111q11 -12 38 -19t101 -14v-94q-176 4 -245 4q-119 0 -211 -4v94q81 8 109.5 14t37.5 19q19 23 19 108v857q0 126 -39 153q-18 11 -51 15.5t-165 8t-399 3.5v-1004 q0 -108 13 -131q8 -16 45 -25t139 -16v-96q-160 4 -258 4q-117 0 -281 -4v96q99 7 133 15t45 24q13 17 13 129v1008q-211 0 -268 -5.5t-85 -25.5q-41 -26 -59 -192h-84q-10 143 -10 233z" />
<glyph unicode="&#x164;h" horiz-adv-x="2359" d="M78 1280q0 52 23.5 78t95.5 26h1108q95 86 147 86q41 0 58.5 -24.5t17.5 -99.5q0 -57 -1 -226.5t-1 -300.5q68 68 166 108t200 40q59 0 110 -18.5t79 -49.5q35 -36 49 -98.5t14 -171.5v-396q0 -74 13 -100q10 -16 41.5 -25t113.5 -16v-94q-172 4 -229 4q-52 0 -228 -4v94 q120 11 136 35q20 24 20 111v364q0 120 -41 173.5t-151 53.5q-74 0 -155.5 -24t-137.5 -64v-505q0 -92 14 -111q11 -12 38 -19t101 -14v-94q-176 4 -245 4q-119 0 -211 -4v94q81 8 109.5 14t37.5 19q19 23 19 108v857q0 126 -39 153q-18 11 -51 15.5t-165 8t-399 3.5v-1004 q0 -108 13 -131q8 -16 45 -25t139 -16v-96q-160 4 -258 4q-117 0 -281 -4v96q99 7 133 15t45 24q13 17 13 129v1008q-211 0 -268 -5.5t-85 -25.5q-41 -26 -59 -192h-84q-10 143 -10 233zM360 1786l54 47l248 -205l247 205l52 -47l-234 -279q-35 -41 -72 -41q-39 0 -75 45z " />
<glyph unicode="fb" horiz-adv-x="1837" d="M63 807v80q66 15 115 41q26 20 37.5 46t15.5 87q7 123 43 201.5t105 138.5q113 96 309 96q86 0 174 -18q56 18 88 18q42 0 62 -22.5t20 -94.5q0 -75 -2.5 -260t-3.5 -291q66 61 155 100.5t185 39.5q185 0 279 -132.5t94 -355.5q0 -229 -127.5 -368.5t-364.5 -139.5 q-204 0 -356 70q2 96 2 264v842q0 86 -11.5 125.5t-35.5 58.5q-58 47 -170 47q-170 0 -244 -104q-63 -86 -63 -264v-90q111 0 282 -7v-102q-135 -6 -282 -6v-549q0 -101 18 -131q11 -16 47 -23.5t146 -11.5v-94q-188 4 -254 4q-68 0 -256 -4v94q75 4 106.5 12t42.5 23 q14 19 14 100v580h-170zM1028 135q79 -39 234 -39q162 0 245.5 102t83.5 273q0 74 -14 135t-45.5 115.5t-91 85.5t-142.5 31q-143 0 -270 -93v-610z" />
<glyph unicode="ffb" horiz-adv-x="2531" d="M63 807v80q66 15 115 41q26 20 37.5 46t15.5 87q16 193 118.5 300t289.5 107q102 0 154 -20q57 -20 57 -94q0 -48 -16 -158h-80q-7 74 -17 102.5t-32 40.5q-29 15 -95 15q-133 0 -186 -94q-55 -95 -55 -256v-89h401q101 0 131 35q17 17 22 98v3t0.5 3t0.5 3.5v3.5 q10 125 45 203.5t102 136.5q116 96 307 96q88 0 176 -18q56 18 88 18q42 0 62 -22.5t20 -94.5q0 -71 -4 -551q64 60 153.5 100t184.5 40q185 0 278 -132t93 -356q0 -229 -126.5 -368.5t-365.5 -139.5q-199 0 -354 70q2 96 2 264v842q0 87 -11 125.5t-36 58.5q-63 47 -170 47 q-168 0 -242 -104q-63 -85 -63 -266v-88q109 0 280 -7v-102q-135 -6 -280 -6v-549q0 -107 16 -131q11 -16 46.5 -23.5t148.5 -11.5v-94q-188 4 -256 4q-66 0 -258 -4v94q76 4 108 12t43 23q15 20 15 100v580h-557v-549q0 -104 18 -131q11 -16 47 -23.5t150 -11.5v-94 q-192 4 -258 4q-68 0 -256 -4v94q75 4 106.5 12t42.5 23q14 19 14 100v580h-170zM1722 135q77 -39 232 -39q162 0 246 102t84 273q0 74 -14 135t-45.5 115.5t-91 85.5t-142.5 31q-142 0 -269 -93v-610z" />
<glyph unicode="ffh" horiz-adv-x="2580" d="M63 807v80q66 15 115 41q26 20 37.5 46t15.5 87q16 193 118.5 300t289.5 107q102 0 154 -20q57 -20 57 -96q0 -19 -2.5 -44t-7 -60t-6.5 -52h-80q-7 74 -17 102.5t-32 40.5q-29 15 -95 15q-133 0 -186 -94q-55 -95 -55 -256v-89h401q101 0 131 35q17 17 22 98v3t0.5 3 t0.5 3.5v3.5q10 125 45 203.5t102 136.5q55 45 138.5 70.5t176.5 25.5q102 0 191 -18q56 18 86 18q44 0 64 -22.5t20 -100.5q0 -57 -1 -240.5t-1 -314.5q70 68 168 108t201 40q57 0 107 -19t79 -49q34 -38 48.5 -100.5t14.5 -169.5v-396q0 -70 15 -100q8 -16 39.5 -25 t115.5 -16v-94q-172 4 -231 4q-51 0 -227 -4v94q119 11 135 35q20 20 20 111v364q0 121 -40.5 174t-151.5 53q-73 0 -155.5 -24t-137.5 -64v-505q0 -93 16 -111q9 -12 36 -19t101 -14v-94q-176 4 -245 4q-117 0 -209 -4v94q77 7 105.5 14t39.5 19q19 27 19 108v895 q0 159 -47 203q-56 49 -187 49q-174 0 -248 -104q-63 -85 -63 -266v-88q109 0 280 -7v-102q-135 -6 -280 -6v-549q0 -107 16 -131q12 -16 46 -23.5t147 -11.5v-94q-184 4 -254 4q-66 0 -258 -4v94q76 4 108 12t43 23q15 20 15 100v580h-557v-549q0 -104 18 -131 q11 -16 47 -23.5t150 -11.5v-94q-192 4 -258 4q-68 0 -256 -4v94q75 4 106.5 12t42.5 23q14 19 14 100v580h-170z" />
<glyph unicode="ffj" horiz-adv-x="1914" d="M63 807v80q80 18 115 41q27 18 38 44t15 89q16 193 118.5 300t289.5 107q102 0 154 -20q57 -20 57 -94q0 -11 -16 -158h-80q-7 74 -17 102.5t-32 40.5q-29 15 -95 15q-133 0 -186 -94q-55 -95 -55 -256v-89h401q101 0 131 35q5 5 8.5 12t5.5 19t3 20.5t3 28.5t3 31 q10 118 49 197.5t106 136.5q55 45 141 73.5t175 28.5q125 0 207 -27q57 -19 57 -90q0 -96 -12 -172h-97q-8 68 -24 99.5t-41 48.5q-39 24 -125 24q-62 0 -123.5 -27.5t-99.5 -78.5q-30 -39 -52 -113.5t-22 -173.5v-67h444q81 36 127 36q41 0 61.5 -25t20.5 -97q0 -90 3 -405 t3 -411q0 -143 -8.5 -223t-40.5 -143q-79 -148 -295 -215l-30 86q169 78 204 174q16 45 22.5 106t6.5 183v671q0 63 -5 88.5t-22 40.5q-25 21 -137 21h-354v-549q0 -107 16 -131q11 -16 46.5 -23.5t148.5 -11.5v-94q-188 4 -256 4q-66 0 -258 -4v94q76 4 108 12t43 23 q15 20 15 100v580h-557v-549q0 -104 18 -131q11 -16 47 -23.5t150 -11.5v-94q-192 4 -258 4q-68 0 -256 -4v94q75 4 106.5 12t42.5 23q14 19 14 100v580h-170z" />
<glyph unicode="ffk" horiz-adv-x="2486" d="M63 807v80q80 18 115 41q27 18 38 44t15 89q16 193 118.5 300t289.5 107q102 0 154 -20q57 -20 57 -94q0 -48 -16 -158h-80q-7 74 -17 102.5t-32 40.5q-29 15 -95 15q-133 0 -186 -94q-55 -95 -55 -256v-89h401q101 0 131 35q17 17 22 98v3t0.5 3t0.5 3.5v3.5 q10 125 45 203.5t102 136.5q55 45 138.5 70.5t176.5 25.5q102 0 191 -18q56 18 86 18q44 0 64 -22.5t20 -100.5q0 -65 -1 -170t-1 -172v-796q0 -93 16 -111q11 -12 39.5 -19t104.5 -14v-94q-180 4 -252 4q-117 0 -207 -4v94q75 7 103.5 14t39.5 19q19 27 19 108v887 q0 170 -47 211q-61 49 -187 49q-174 0 -248 -104q-63 -85 -63 -266v-88q109 0 280 -7v-102q-135 -6 -280 -6v-549q0 -107 16 -131q11 -16 46.5 -23.5t148.5 -11.5v-94q-188 4 -256 4q-66 0 -258 -4v94q76 4 108 12t43 23q15 20 15 100v580h-557v-549q0 -104 18 -131 q11 -16 47 -23.5t150 -11.5v-94q-192 4 -258 4q-68 0 -256 -4v94q75 4 106.5 12t42.5 23q14 19 14 100v580h-170zM1769 481q105 77 238 213q49 49 65.5 74t16.5 45t-25 28.5t-108 12.5v88q94 -4 227 -4t227 4v-88q-61 -4 -94 -20q-60 -31 -164 -127q-36 -31 -118.5 -110 t-104.5 -99q119 -151 297 -305q52 -46 109 -70q76 -26 133 -29v-94q-36 -4 -94 -4q-59 0 -122.5 20.5t-113.5 59.5q-29 24 -62.5 56.5t-57 57t-65.5 73t-57.5 66.5t-66 79t-60.5 73z" />
<glyph unicode="fft" horiz-adv-x="2054" d="M63 807v80q80 18 115 41q27 18 38 44t15 89q16 193 118.5 300t289.5 107q102 0 154 -20q57 -20 57 -94q0 -48 -16 -158h-80q-7 74 -17 102.5t-32 40.5q-29 15 -95 15q-133 0 -186 -94q-55 -95 -55 -256v-89h401q101 0 131 35q17 17 22 98v3t0.5 3t0.5 3.5v3.5 q11 127 42.5 211.5t92.5 136.5q105 88 262 88q97 0 154 -22t57 -95q0 -27 -16 -163h-86q-7 71 -19.5 103t-34.5 44q-34 18 -94 18q-118 0 -174 -100q-45 -88 -45 -270v-94h315q90 0 123 8q56 14 72 61q12 29 41 158q10 43 61 43q49 0 49 -47v-219q139 0 256 -7v-102 q-129 -6 -258 -6v-389q0 -164 9 -215q9 -54 38.5 -78.5t83.5 -24.5q82 0 160 37l33 -96q-57 -32 -122.5 -49t-115.5 -17q-106 0 -165.5 57.5t-59.5 203.5q0 62 1 262t1 309h-522v-549q0 -107 16 -131q11 -16 46.5 -23.5t148.5 -11.5v-94q-188 4 -256 4q-66 0 -258 -4v94 q76 4 108 12t43 23q15 20 15 100v580h-557v-549q0 -104 18 -131q11 -16 47 -23.5t150 -11.5v-94q-192 4 -258 4q-68 0 -256 -4v94q75 4 106.5 12t42.5 23q14 19 14 100v580h-170z" />
<glyph unicode="fh" horiz-adv-x="1886" d="M63 807v80q80 18 115 41q27 18 38 44t15 89q7 123 43 201.5t105 138.5q53 45 137.5 70.5t177.5 25.5q102 0 191 -18q56 18 84 18q45 0 65.5 -22.5t20.5 -100.5q0 -57 -1 -240.5t-1 -314.5q68 68 166.5 108t201.5 40q59 0 109 -18.5t78 -49.5q35 -37 50 -99.5t15 -170.5 v-396q0 -74 13 -100q8 -16 39.5 -25t115.5 -16v-94q-172 4 -231 4q-52 0 -228 -4v94q120 11 136 35q20 20 20 111v364q0 119 -33 168q-43 59 -159 59q-73 0 -154.5 -24t-138.5 -64v-505q0 -92 14 -111q11 -12 38 -19t103 -14v-94q-180 4 -247 4q-119 0 -209 -4v94 q81 8 109.5 14t37.5 19q16 19 16 108v887q0 170 -47 211q-61 49 -184 49q-178 0 -252 -104q-63 -90 -63 -266v-88q111 0 282 -7v-102q-135 -6 -282 -6v-549q0 -101 18 -131q11 -16 47 -23.5t146 -11.5v-94q-192 4 -254 4q-68 0 -256 -4v94q75 4 106.5 12t42.5 23 q14 19 14 100v580h-170z" />
<glyph unicode="fj" horiz-adv-x="1220" d="M63 807v80q66 15 115 41q26 20 36.5 45.5t16.5 87.5q24 221 156 334q55 45 140.5 73.5t174.5 28.5q122 0 207 -27q58 -20 58 -90q0 -78 -11 -172h-98q-7 67 -23 98.5t-42 49.5q-39 24 -125 24q-62 0 -124 -27t-100 -77q-31 -40 -53 -115t-22 -174v-67h446q81 36 127 36 q41 0 61.5 -25t20.5 -97q0 -90 2 -407.5t2 -412.5q0 -154 -10 -234.5t-47 -144.5q-80 -131 -287 -198l-31 86q81 38 124.5 71t72.5 87q37 73 37 292v684q0 63 -5 88.5t-22 40.5q-25 21 -135 21h-356v-549q0 -104 18 -131q12 -16 46 -23.5t145 -11.5v-94q-188 4 -252 4 q-68 0 -256 -4v94q75 4 106.5 12t42.5 23q14 19 14 100v580h-170z" />
<glyph unicode="fk" horiz-adv-x="1794" d="M63 807v80q66 15 115 41q26 20 37.5 46t15.5 87q7 123 43 201.5t105 138.5q53 45 137.5 70.5t177.5 25.5q102 0 191 -18q56 18 84 18q45 0 65.5 -22.5t20.5 -100.5q0 -65 -1 -170t-1 -172v-796q0 -93 16 -111q9 -12 37.5 -19t105.5 -14v-94q-176 4 -251 4q-119 0 -209 -4 v94q81 8 109.5 14t37.5 19q16 19 16 108v887q0 170 -47 211q-61 49 -184 49q-178 0 -252 -104q-63 -90 -63 -266v-88q111 0 282 -7v-102q-135 -6 -282 -6v-549q0 -101 18 -131q11 -16 47 -23.5t146 -11.5v-94q-192 4 -254 4q-68 0 -256 -4v94q75 4 106.5 12t42.5 23 q14 19 14 100v580h-170zM1077 481q107 83 238 213q49 49 65.5 74t16.5 45t-25.5 28.5t-109.5 12.5v88q94 -4 229 -4q133 0 227 4v-88q-60 -4 -96 -20q-32 -18 -89.5 -65.5t-102.5 -89.5t-111 -104t-82 -77q79 -98 144 -163.5t151 -141.5q67 -52 110 -70q76 -26 134 -29v-94 q-36 -4 -95 -4q-136 0 -235 80q-29 24 -62.5 56.5t-57 57t-65.5 73t-57.5 66.5t-66 79t-60.5 73z" />
<glyph unicode="ft" horiz-adv-x="1361" d="M63 807v80q66 15 115 41q27 21 38.5 46.5t14.5 86.5q15 247 136 348q105 88 262 88q96 0 153 -22q58 -23 58 -95q0 -18 -17 -163h-86q-7 71 -19.5 102.5t-33.5 44.5q-35 18 -96 18q-56 0 -100.5 -26.5t-69.5 -73.5q-49 -88 -49 -270v-94h317q90 0 123 8q54 15 70 61 q25 68 43 158q10 43 61 43q49 0 49 -47v-219q140 0 254 -7v-102q-126 -6 -256 -6v-389q0 -170 8 -215q9 -54 39 -78.5t84 -24.5q83 0 158 37l35 -96q-58 -32 -123.5 -49t-114.5 -17q-106 0 -165.5 57.5t-59.5 203.5q0 62 2 262t2 309h-526v-549q0 -104 18 -131 q11 -16 47 -23.5t150 -11.5v-94q-192 4 -258 4q-68 0 -256 -4v94q75 4 106.5 12t42.5 23q14 19 14 100v580h-170z" />
<glyph unicode="&#x17f;b" horiz-adv-x="1796" d="M66 809v78q68 16 112 41q29 16 40.5 42.5t14.5 90.5q7 123 43 204t105 136q124 96 299 96q58 0 139 -20q55 20 86 20q42 0 63 -25t21 -98q0 -65 -4 -545q64 60 153.5 100t184.5 40q186 0 279.5 -132t93.5 -356q0 -230 -126 -369t-364 -139q-204 0 -356 70q2 96 2 264v840 q0 144 -47 188q-50 43 -137 43q-156 0 -234 -104q-65 -89 -65 -264v-754q0 -99 18 -129q11 -16 45 -23.5t143 -11.5v-94q-192 4 -247 4q-70 0 -258 -4v94q75 4 107 12t44 23q15 20 15 100v582h-170zM987 133q86 -37 232 -37q163 0 248 102.5t85 272.5q0 58 -8.5 108.5 t-29.5 99.5t-53.5 84t-84.5 56t-119 21q-140 0 -270 -95v-612z" />
<glyph unicode="&#x17f;h" horiz-adv-x="1837" d="M66 809v78q68 16 112 43q28 16 40 42t15 89q7 123 43 204t105 136q124 96 303 96q70 0 154 -20q55 20 86 20q43 0 63.5 -23.5t20.5 -99.5q0 -57 -2 -241t-2 -314q68 68 166.5 108t203.5 40q58 0 109.5 -18.5t77.5 -49.5q35 -38 49 -99.5t14 -170.5v-396q0 -78 14 -100 q8 -16 39.5 -25t114.5 -16v-94q-172 4 -229 4q-50 0 -226 -4v94q120 11 136 35q18 22 18 109v366q0 119 -33 168q-45 61 -160 61q-72 0 -154.5 -24.5t-139.5 -65.5v-505q0 -55 3 -77t13 -34q9 -13 35.5 -19.5t101.5 -13.5v-94q-176 4 -244 4q-116 0 -206 -4v94q80 8 108 14 t37 19q18 22 18 108v938q0 123 -47 164q-27 22 -60 32.5t-91 10.5q-164 0 -238 -104q-65 -84 -65 -264v-754q0 -99 18 -129q12 -17 43 -24t139 -11v-94q-188 4 -241 4q-70 0 -258 -4v94q75 4 107 12t44 23q15 20 15 100v582h-170z" />
<glyph unicode="&#x17f;i" horiz-adv-x="1222" d="M66 809v78q68 16 112 41q28 18 39.5 44t15.5 89q20 234 152 338q120 98 305 98q110 0 184 -31q58 -21 58 -90q0 -62 -12 -168h-97q-12 120 -59 148q-41 24 -107 24q-55 0 -116 -26t-101 -76q-71 -91 -71 -287v-735q0 -102 18 -129q11 -16 44.5 -23.5t135.5 -11.5v-94 q-180 4 -239 4q-70 0 -258 -4v94q75 4 107 12t44 23q15 20 15 100v582h-170zM686 811v86q105 61 207 61q49 0 73.5 -27.5t24.5 -109.5q0 -90 -3 -291.5t-3 -296.5q0 -53 3 -74.5t13 -33.5q11 -14 39.5 -20.5t104.5 -12.5v-94q-176 4 -248 4q-119 0 -209 -4v94q128 11 146 31 q18 25 18 108v420q0 98 -19 132t-90 34q-15 0 -57 -6z" />
<glyph unicode="&#x17f;j" horiz-adv-x="1179" d="M66 809v78q68 16 112 43q27 16 39 41.5t16 89.5q20 234 152 338q120 98 295 98q124 0 188 -29q60 -23 60 -92q0 -53 -13 -168h-98q-12 122 -59 148q-40 24 -109 24q-135 0 -209 -100q-71 -91 -71 -289v-735q0 -102 18 -129q11 -16 44.5 -23.5t135.5 -11.5v-94 q-180 4 -239 4q-70 0 -258 -4v94q75 4 107 12t44 23q15 20 15 100v582h-170zM616 -477q77 34 125 70t74 88q37 75 37 294v680q0 98 -20 132t-91 34q-23 0 -59 -6v82q105 61 207 61q49 0 72.5 -27t23.5 -110q0 -93 2 -409.5t2 -399.5q0 -153 -10 -234t-45 -143 q-39 -66 -120.5 -119.5t-166.5 -78.5z" />
<glyph unicode="&#x17f;k" horiz-adv-x="1746" d="M66 809v78q68 16 112 43q28 16 40 42t15 89q7 123 43 204t105 136q124 96 303 96q70 0 154 -20q55 20 86 20q43 0 63.5 -23.5t20.5 -99.5q0 -67 -2 -249.5t-2 -247.5v-641q0 -85 18 -109q11 -14 38.5 -21t102.5 -14v-94q-176 4 -250 4q-116 0 -206 -4v94q76 8 106 14.5 t39 18.5q18 18 18 108v930q0 120 -41.5 167.5t-156.5 47.5q-164 0 -238 -104q-65 -84 -65 -264v-754q0 -99 18 -129q12 -17 43 -24t139 -11v-94q-184 4 -241 4q-70 0 -258 -4v94q75 4 107 12t44 23q15 20 15 100v582h-170zM1028 481q116 89 240 213q49 51 65.5 75t16.5 44 t-26 28.5t-110 12.5v88q96 -4 230 -4q131 0 225 4v-88q-57 -4 -94 -23q-49 -22 -162 -126q-37 -32 -120.5 -110t-104.5 -97q55 -69 111 -128.5t92 -92.5t94 -84q101 -88 244 -101v-92q-40 -4 -95 -4q-136 0 -235 80q-35 29 -71 63.5t-78.5 81.5t-69.5 78.5t-79 94t-73 87.5z " />
<glyph unicode="&#x17f;l" horiz-adv-x="1241" d="M66 809v78q68 16 112 41q28 19 40 45t15 88q7 123 43 204t105 136q124 96 303 96q70 0 154 -20q55 20 86 20q43 0 63.5 -23.5t20.5 -99.5q0 -24 -1 -211t-1 -274v-653q0 -88 16 -109q9 -14 39 -21.5t104 -13.5v-94q-176 4 -250 4q-118 0 -208 -4v94q128 10 145 33 q18 25 18 108v656q0 199 -4 301q-3 108 -43 145q-46 43 -151 43q-164 0 -238 -104q-65 -84 -65 -264v-754q0 -99 18 -129q12 -17 43 -24t139 -11v-94q-188 4 -241 4q-70 0 -258 -4v94q75 4 107 12t44 23q15 20 15 100v582h-170z" />
<glyph unicode="&#x17f;&#x17f;" horiz-adv-x="1280" d="M66 809v78q68 16 112 43q27 16 39 41.5t16 89.5q15 225 138 325q106 84 254 84q79 0 141 -22q59 -23 59 -94q0 -44 -16 -150h-84q-6 70 -16 95.5t-33 39.5q-28 17 -80 17q-125 0 -172 -92q-55 -95 -55 -260v-748q0 -99 18 -129q11 -16 46 -23.5t147 -11.5v-92 q-188 4 -252 4q-70 0 -258 -4v92q75 4 107 12t44 23q15 20 15 100v582h-170zM723 809v78q79 19 117 41q26 14 38.5 42.5t16.5 92.5q15 245 133 346q101 88 254 88q96 0 148 -22q59 -22 59 -93q0 -27 -16 -163h-87q-9 73 -20.5 104t-34.5 43q-27 16 -88 16q-118 0 -168 -100 q-47 -85 -47 -270v-756q0 -105 16 -129q11 -16 46 -23.5t141 -11.5v-92q-180 4 -246 4q-68 0 -256 -4v92q75 4 106.5 12t43.5 23q14 19 14 100v582h-170z" />
<glyph unicode="&#x17f;&#x17f;b" horiz-adv-x="2453" d="M66 809v78q68 16 112 41q27 16 39 42.5t16 90.5q15 225 138 325q106 84 254 84q79 0 141 -22q59 -23 59 -94q0 -19 -2.5 -43t-7 -56.5t-6.5 -50.5h-84q-6 70 -16 95.5t-33 39.5q-28 17 -80 17q-125 0 -172 -92q-55 -95 -55 -260v-748q0 -99 18 -129q11 -16 46 -23.5 t147 -11.5v-92q-192 4 -252 4q-70 0 -258 -4v92q75 4 107 12t44 23q15 20 15 100v582h-170zM723 809v78q72 16 117 41q27 14 39 41.5t16 91.5q7 124 42 205t103 135q124 96 297 96q58 0 142 -20q52 20 84 20q43 0 64.5 -24.5t21.5 -98.5q0 -65 -4 -545q64 61 153 100.5 t184 39.5q186 0 278.5 -132t92.5 -356q0 -230 -125.5 -369t-361.5 -139q-207 0 -359 70q2 96 2 264v840q0 147 -47 188q-50 43 -135 43q-161 0 -235 -104q-64 -82 -64 -264v-754q0 -102 16 -129q11 -16 46 -23.5t143 -11.5v-94q-192 4 -248 4q-68 0 -256 -4v94q74 4 106 12 t44 23q14 19 14 100v582h-170zM1647 133q84 -37 231 -37q162 0 248 103t86 272q0 58 -8.5 108.5t-29.5 99.5t-53.5 84t-84.5 56t-119 21q-140 0 -270 -95v-612z" />
<glyph unicode="&#x17f;&#x17f;h" horiz-adv-x="2496" d="M66 809v78q68 16 112 41q27 16 39 42.5t16 90.5q15 225 138 325q106 84 254 84q79 0 141 -22q59 -23 59 -94q0 -44 -16 -150h-84q-6 70 -16 95.5t-33 39.5q-28 17 -80 17q-125 0 -172 -92q-55 -95 -55 -260v-748q0 -99 18 -129q11 -16 46 -23.5t145 -11.5v-92 q-188 4 -250 4q-70 0 -258 -4v92q75 4 107 12t44 23q15 20 15 100v582h-170zM723 809v78q82 20 117 41q28 16 40 43t15 90q6 123 41 204t104 136q124 96 303 96q70 0 154 -20q52 20 84 20q44 0 65 -23.5t21 -99.5q0 -57 -2 -241t-2 -314q68 68 167 108t202 40 q58 0 109 -18.5t79 -49.5q33 -38 47 -100t14 -170v-396q0 -76 15 -100q8 -16 39.5 -25t115.5 -16v-94q-172 4 -231 4q-47 0 -223 -4v94q117 11 133 35q20 24 20 109v366q0 121 -41 175t-151 54q-73 0 -156 -25t-139 -65v-505q0 -55 3 -77t13 -34q9 -12 35.5 -19t100.5 -14 v-94q-176 4 -244 4q-115 0 -205 -4v94q79 8 106.5 14t36.5 19q19 23 19 108v938q0 123 -47 164q-49 43 -150 43q-165 0 -239 -104q-64 -91 -64 -264v-754q0 -102 16 -129q12 -17 44.5 -24t140.5 -11v-94q-192 4 -244 4q-68 0 -256 -4v94q75 4 106.5 12t43.5 23q14 19 14 100 v582h-170z" />
<glyph unicode="&#x17f;&#x17f;i" horiz-adv-x="1880" d="M66 809v78q68 16 112 43q27 16 39 41.5t16 89.5q15 225 138 325q106 84 254 84q79 0 141 -22q59 -23 59 -94q0 -36 -16 -150h-84q-6 70 -16 95.5t-33 39.5q-28 17 -80 17q-125 0 -172 -92q-55 -95 -55 -260v-748q0 -99 18 -129q11 -16 46 -23.5t147 -11.5v-92 q-192 4 -252 4q-70 0 -258 -4v92q75 4 107 12t44 23q15 20 15 100v582h-170zM723 809v78q79 19 115 41q28 16 40.5 43t16.5 90q17 234 149 338q123 98 306 98q108 0 182 -31q59 -20 59 -90q0 -62 -12 -168h-98q-10 119 -60 150q-39 22 -104 22q-58 0 -118.5 -25.5 t-100.5 -76.5q-70 -90 -70 -287v-735q0 -105 16 -129q11 -16 45.5 -23.5t137.5 -11.5v-94q-180 4 -242 4q-68 0 -256 -4v94q75 4 106.5 12t43.5 23q14 19 14 100v582h-170zM1346 811v86q105 61 204 61q51 0 76 -27.5t25 -109.5q0 -90 -3 -291.5t-3 -296.5q0 -87 16 -108 q11 -14 39 -20.5t104 -12.5v-94q-176 4 -250 4q-116 0 -206 -4v94q71 6 102 12.5t41 18.5q18 25 18 108v420q0 98 -18 132t-88 34q-15 0 -57 -6z" />
<glyph unicode="&#x17f;&#x17f;j" horiz-adv-x="1839" d="M66 809v78q68 16 112 41q27 16 39 42.5t16 90.5q15 225 138 325q106 84 254 84q79 0 141 -22q59 -23 59 -94q0 -19 -2.5 -43t-7 -56.5t-6.5 -50.5h-84q-6 70 -16 95.5t-33 39.5q-28 17 -80 17q-125 0 -172 -92q-55 -95 -55 -260v-748q0 -99 18 -129q11 -16 46 -23.5 t147 -11.5v-92q-188 4 -252 4q-70 0 -258 -4v92q75 4 107 12t44 23q15 20 15 100v582h-170zM723 809v78q79 19 117 41q26 14 38.5 42t16.5 91q17 236 147 338q124 98 297 98q123 0 187 -29q59 -23 59 -92q0 -62 -12 -168h-96q-12 121 -62 148q-38 24 -108 24 q-130 0 -209 -100q-70 -90 -70 -289v-735q0 -106 16 -129q12 -15 47 -23t136 -12v-94q-180 4 -242 4q-68 0 -256 -4v94q75 4 106.5 12t43.5 23q14 19 14 100v582h-170zM1276 -477q76 34 123.5 70t73.5 88q36 73 36 294v680q0 99 -19.5 132.5t-90.5 33.5q-24 0 -60 -6v82 q105 61 207 61q49 0 72.5 -27t23.5 -110q0 -92 3.5 -408.5t3.5 -400.5q0 -151 -10.5 -232.5t-47.5 -144.5q-39 -66 -120 -119.5t-166 -78.5z" />
<glyph unicode="&#x17f;&#x17f;k" horiz-adv-x="2406" d="M66 809v78q68 16 112 43q27 16 39 41.5t16 89.5q15 225 138 325q106 84 254 84q79 0 141 -22q59 -23 59 -94q0 -44 -16 -150h-84q-6 70 -16 95.5t-33 39.5q-28 17 -80 17q-125 0 -172 -92q-55 -95 -55 -260v-748q0 -99 18 -129q11 -16 46 -23.5t145 -11.5v-92 q-188 4 -250 4q-70 0 -258 -4v92q75 4 107 12t44 23q15 20 15 100v582h-170zM723 809v78q79 19 115 41q28 16 40.5 43t16.5 90q7 124 42 205t103 135q124 96 303 96q70 0 154 -20q52 20 84 20q44 0 65 -23.5t21 -99.5q0 -67 -2 -249.5t-2 -247.5v-641q0 -93 16 -109 q11 -14 39 -21t103 -14v-94q-176 4 -250 4q-115 0 -205 -4v94q75 8 104.5 14.5t38.5 18.5q19 19 19 108v930q0 120 -41.5 167.5t-155.5 47.5q-166 0 -239 -102q-64 -91 -64 -266v-754q0 -102 16 -129q12 -17 44.5 -24t140.5 -11v-94q-192 4 -244 4q-68 0 -256 -4v94 q75 4 106.5 12t43.5 23q14 19 14 100v582h-170zM1688 481q115 88 237 213q49 51 65.5 75t16.5 44t-24.5 28.5t-108.5 12.5v88q94 -4 229 -4q132 0 224 4v-88q-59 -4 -93 -23q-49 -22 -163 -124q-36 -33 -121.5 -113t-102.5 -96q40 -52 85.5 -101t69 -72t78 -72.5t64.5 -59.5 q16 -16 49 -37.5t62 -32.5q53 -24 133 -31v-92q-40 -4 -94 -4q-136 0 -238 80q-29 24 -62 56t-58 58t-64 71.5t-58.5 68.5t-65 77.5t-60.5 73.5z" />
<glyph unicode="&#x17f;&#x17f;l" horiz-adv-x="1900" d="M66 809v78q68 16 112 43q27 16 39 41.5t16 89.5q15 225 138 325q106 84 254 84q79 0 141 -22q59 -23 59 -94q0 -62 -16 -150h-84q-6 70 -16 95.5t-33 39.5q-28 17 -80 17q-125 0 -172 -92q-55 -95 -55 -260v-748q0 -99 18 -129q11 -16 46 -23.5t147 -11.5v-92 q-188 4 -252 4q-70 0 -258 -4v92q75 4 107 12t44 23q15 20 15 100v582h-170zM723 809v78q79 19 117 41q26 16 38.5 43t16.5 90q7 125 42 205t103 135q124 96 303 96q70 0 154 -20q52 20 84 20q44 0 65 -23.5t21 -99.5q0 -24 -2 -211t-2 -274v-653q0 -90 16 -109 q11 -14 40.5 -21.5t103.5 -13.5v-94q-176 4 -248 4q-119 0 -209 -4v94q74 6 104.5 13t40.5 20q17 20 17 108v656q0 199 -2 301q-3 106 -45 145q-46 43 -150 43q-165 0 -239 -104q-64 -91 -64 -264v-754q0 -102 16 -129q12 -17 44.5 -24t140.5 -11v-94q-192 4 -244 4 q-68 0 -256 -4v94q75 4 106.5 12t43.5 23q14 19 14 100v582h-170z" />
<glyph unicode="&#x17f;&#x17f;t" horiz-adv-x="1974" d="M66 809v78q68 16 112 43q27 16 39 41.5t16 89.5q15 225 138 325q106 84 254 84q79 0 141 -22q59 -23 59 -94q0 -44 -16 -150h-84q-6 70 -16 95.5t-33 39.5q-28 17 -80 17q-112 0 -172 -92q-55 -88 -55 -260v-748q0 -99 18 -129q11 -16 46 -23.5t147 -11.5v-92 q-188 4 -252 4q-70 0 -258 -4v92q75 4 107 12t44 23q15 20 15 100v582h-170zM723 809v78q73 18 117 43q26 14 37.5 40.5t17.5 90.5q17 233 147 342q115 94 287 94q82 0 143.5 -19.5t98 -50t59 -74t30 -84.5t7.5 -89q0 -97 -22 -258q139 0 256 -7v-100q-129 -6 -259 -6v-391 q0 -167 9 -215q17 -105 123 -105q75 0 159 37l31 -94q-57 -32 -121 -49t-112 -17q-108 0 -167 57.5t-59 203.5q0 61 1 261.5t1 311.5h-168v78q57 13 105 35q94 45 94 239q0 116 -62 168.5t-157 52.5q-65 0 -123 -24.5t-96 -73.5q-72 -93 -72 -297v-731q0 -106 16 -129 q12 -15 47.5 -23t137.5 -12v-92q-184 4 -244 4q-68 0 -256 -4v92q75 4 106.5 12t43.5 23q14 19 14 100v582h-170z" />
<glyph unicode="&#x162;h" horiz-adv-x="2359" d="M78 1280q0 52 23.5 78t95.5 26h1108q95 86 147 86q41 0 58.5 -24.5t17.5 -99.5q0 -57 -1 -226.5t-1 -300.5q68 68 166 108t200 40q59 0 110 -18.5t79 -49.5q35 -36 49 -98.5t14 -171.5v-396q0 -74 13 -100q10 -16 41.5 -25t113.5 -16v-94q-172 4 -229 4q-52 0 -228 -4v94 q120 11 136 35q20 24 20 111v364q0 120 -41 173.5t-151 53.5q-74 0 -155.5 -24t-137.5 -64v-505q0 -92 14 -111q11 -12 38 -19t101 -14v-94q-176 4 -245 4q-119 0 -211 -4v94q81 8 109.5 14t37.5 19q19 23 19 108v857q0 126 -39 153q-18 11 -51 15.5t-165 8t-399 3.5v-1004 q0 -108 13 -131q8 -16 45 -25t139 -16v-96q-140 4 -230 4q-30 -67 -30 -98q0 -32 35 -51q80 -39 112.5 -77.5t32.5 -97.5q0 -211 -348 -262l-21 84q117 27 172.5 61.5t55.5 94.5q0 35 -23.5 60.5t-73.5 54.5q-41 24 -41 65q0 56 48 166l-228 -4v96q99 7 133 15t45 24 q13 17 13 129v1008q-211 0 -268 -5.5t-85 -25.5q-41 -26 -59 -192h-84q-10 143 -10 233z" />
<glyph unicode="&#x21a;h" horiz-adv-x="2359" d="M78 1280q0 52 23.5 78t95.5 26h1108q95 86 147 86q41 0 58.5 -24.5t17.5 -99.5q0 -57 -1 -226.5t-1 -300.5q68 68 166 108t200 40q59 0 110 -18.5t79 -49.5q35 -36 49 -98.5t14 -171.5v-396q0 -74 13 -100q10 -16 41.5 -25t113.5 -16v-94q-172 4 -229 4q-52 0 -228 -4v94 q120 11 136 35q20 24 20 111v364q0 120 -41 173.5t-151 53.5q-74 0 -155.5 -24t-137.5 -64v-505q0 -92 14 -111q11 -12 38 -19t101 -14v-94q-176 4 -245 4q-119 0 -211 -4v94q81 8 109.5 14t37.5 19q19 23 19 108v857q0 126 -39 153q-18 11 -51 15.5t-165 8t-399 3.5v-1004 q0 -108 13 -131q8 -16 45 -25t139 -16v-96q-160 4 -258 4q-117 0 -281 -4v96q99 7 133 15t45 24q13 17 13 129v1008q-211 0 -268 -5.5t-85 -25.5q-41 -26 -59 -192h-84q-10 143 -10 233zM502 -510q85 55 117 93.5t32 72.5q0 46 -33 59q-59 29 -59 95q0 41 30.5 69.5 t74.5 28.5q61 0 94 -41.5t33 -110.5q0 -191 -248 -327z" />
<glyph unicode=" "  horiz-adv-x="448" />
<glyph unicode="&#x09;" horiz-adv-x="448" />
<glyph unicode="&#xa0;" horiz-adv-x="448" />
<glyph unicode="!" horiz-adv-x="583" d="M207 104q0 55 36 92t87 37q55 0 90 -34t35 -88q0 -60 -33.5 -95.5t-89.5 -35.5q-53 0 -89 35t-36 89zM238 1315q0 54 25 85.5t75 31.5q96 0 96 -115q0 -49 -61 -881h-78q-57 797 -57 879z" />
<glyph unicode="&#x22;" horiz-adv-x="620" d="M76 1358q0 51 20 74.5t66 23.5q47 0 65.5 -25t18.5 -73q0 -44 -49 -473h-76q-45 392 -45 473zM377 1358q0 51 20 74.5t66 23.5q47 0 65.5 -25t18.5 -73q0 -44 -49 -473h-76q-45 414 -45 473z" />
<glyph unicode="#" horiz-adv-x="1138" d="M92 432v143h236l49 242h-199v146h223l82 409h90l-84 -409h263l84 409h84l-80 -409h204v-146h-231l-49 -242h188v-143h-217l-88 -459h-88l90 459h-264l-92 -459h-84l88 459h-205zM412 575h266l47 242h-264z" />
<glyph unicode="$" horiz-adv-x="1116" d="M145 246q0 12 5 135h92q9 -85 29 -127.5t51 -71.5q55 -58 202 -67v501l-104 46q-248 105 -248 325q0 140 89 237.5t263 121.5v219h97v-211h12q147 0 254 -45q69 -29 69 -115q0 -62 -16 -188h-90q-7 86 -22 124t-42 60q-51 39 -165 45v-487l133 -56q243 -103 243 -323 q0 -158 -101 -253.5t-275 -113.5v-238h-97v234q-168 3 -272 55q-61 31 -84 76t-23 117zM324 1016q0 -76 41 -127.5t159 -102.5v443q-102 -14 -151 -73t-49 -140zM621 117q110 13 167.5 74t57.5 143q0 79 -43 132t-144 95l-38 17v-461z" />
<glyph unicode="%" horiz-adv-x="1689" d="M66 930q0 211 84.5 324.5t238.5 113.5q163 0 234 -107.5t71 -312.5q0 -230 -86.5 -339t-228.5 -109q-162 0 -237.5 107t-75.5 323zM190 946q0 -184 48.5 -266t142.5 -82q92 0 140 88.5t48 253.5q0 176 -45.5 253t-140.5 77q-193 0 -193 -324zM512 18l592 1364l86 -34 l-592 -1368zM995 414q0 211 84.5 324.5t239.5 113.5q165 0 235 -107.5t70 -314.5q0 -117 -24 -205t-67.5 -139.5t-99 -76.5t-122.5 -25q-162 0 -239 107t-77 323zM1120 428q0 -184 48.5 -265t144.5 -81q92 0 139 87.5t47 252.5q0 177 -45 254.5t-139 77.5q-97 0 -146 -84 t-49 -242z" />
<glyph unicode="&#x26;" horiz-adv-x="1529" d="M104 369q0 145 79 240.5t245 170.5q-100 162 -100 305q0 66 22.5 124.5t67 105t117 73.5t165.5 27q149 0 230.5 -75.5t81.5 -200.5q0 -131 -96 -220t-293 -174q59 -97 166.5 -217t216.5 -219q58 60 122 213q19 51 19 88q0 10 -3 18t-10 14t-14.5 10.5t-19.5 7t-21.5 4.5 t-24 3t-24 1.5t-25 1t-22.5 0.5v96q118 -4 229 -4q110 0 246 4v-96q-105 -3 -135 -33q-20 -20 -68 -129q-81 -177 -165 -270q56 -53 147.5 -95.5t175.5 -42.5q29 0 43 2v-116q-54 -4 -80 -4q-225 0 -387 139q-179 -148 -416 -148q-214 0 -341.5 113.5t-127.5 282.5zM264 395 q0 -124 87 -210.5t249 -86.5q171 0 293 103q-106 101 -224 239.5t-182 237.5q-122 -51 -172.5 -121t-50.5 -162zM475 1092q0 -115 94 -250q310 116 310 286q0 79 -48.5 124.5t-136.5 45.5q-115 0 -167 -59t-52 -147z" />
<glyph unicode="'" horiz-adv-x="319" d="M76 1358q0 51 20 74.5t66 23.5q47 0 65.5 -25t18.5 -73q0 -44 -49 -473h-76q-45 392 -45 473z" />
<glyph unicode="(" horiz-adv-x="628" d="M84 594q0 329 118.5 569t354.5 424l55 -57q-94 -95 -158.5 -181t-118.5 -198t-80 -249.5t-26 -307.5q0 -155 28.5 -291t83.5 -249t119.5 -204t151.5 -182l-51 -57q-225 162 -351 412t-126 571z" />
<glyph unicode=")" horiz-adv-x="628" d="M14 1530l54 57q224 -162 349.5 -412t125.5 -569q0 -330 -118 -570.5t-353 -424.5l-56 59q94 94 157.5 180t117.5 197.5t80 250t26 308.5q0 154 -28.5 290t-82.5 248.5t-119.5 204t-152.5 181.5z" />
<glyph unicode="*" horiz-adv-x="825" d="M80 1151q0 32 19 57t53 25q24 0 67 -23.5t172 -105.5q-51 194 -51 252q0 40 21 57t51 17q33 0 52 -16t19 -58q0 -53 -39 -252q112 74 158 98.5t76 24.5q31 0 49 -19t18 -53q0 -32 -15 -50.5t-54 -25.5q-115 -22 -221 -35q120 -100 157 -142.5t37 -80.5q0 -30 -24.5 -48.5 t-49.5 -18.5q-44 0 -71 45t-94 215q-45 -116 -73 -170.5t-49 -72t-50 -17.5q-22 0 -44 19.5t-22 49.5q0 34 39 82t158 144q-140 17 -217 32q-38 8 -55 23.5t-17 46.5z" />
<glyph unicode="+" horiz-adv-x="1198" d="M139 569v129h398v439h122v-439h396v-129h-396v-436h-122v436h-398z" />
<glyph unicode="," horiz-adv-x="440" d="M25 -303q198 127 198 250q0 52 -45 65q-42 14 -64 38t-22 73q0 46 36.5 78t88.5 32q71 0 112.5 -47.5t41.5 -130.5q0 -252 -305 -428z" />
<glyph unicode="-" horiz-adv-x="540" d="M57 436v133h420v-133h-420z" />
<glyph unicode="." horiz-adv-x="434" d="M92 104q0 55 36 92t87 37q55 0 91 -34t36 -88q0 -59 -35 -95t-90 -36q-53 0 -89 35t-36 89z" />
<glyph unicode="/" horiz-adv-x="688" d="M39 -133l489 1630l105 -31l-490 -1632z" />
<glyph unicode="0" horiz-adv-x="1095" d="M82 666q0 346 124.5 526t352.5 180q124 0 212.5 -44.5t141.5 -133.5t77 -211.5t24 -288.5q0 -157 -24 -281t-65.5 -206t-101 -136t-127.5 -77t-149 -23q-241 0 -353 170.5t-112 524.5zM236 694q0 -166 21 -283t62.5 -185.5t98 -99t133.5 -30.5q150 0 229.5 150t79.5 434 q0 209 -35 336t-100.5 180t-169.5 53q-158 0 -238.5 -142.5t-80.5 -412.5z" />
<glyph unicode="1" horiz-adv-x="1095" d="M240 1223q90 56 260 133q49 18 82 18q31 0 46 -20t15 -68q0 -35 -1 -193.5t-1 -269.5v-594q0 -81 16 -102q18 -27 203 -35v-94q-172 4 -307 4q-105 0 -281 -4v94q178 9 199 33q21 21 21 104v598q0 227 -9 303q-5 52 -49 52q-41 0 -170 -39z" />
<glyph unicode="2" horiz-adv-x="1095" d="M63 0v96q172 138 293 249t216 222t141.5 212t46.5 196q0 274 -264 274q-152 0 -213 -69q-29 -36 -43 -158h-82q-19 126 -19 160q0 51 20.5 81t73.5 56q104 53 283 53q199 0 302.5 -96t103.5 -279q0 -390 -631 -856q47 0 176.5 1t159.5 1q106 0 156 7.5t71 29.5 q31 33 59 129h82q-7 -141 -22 -233q-13 -76 -127 -76h-783z" />
<glyph unicode="3" horiz-adv-x="1095" d="M125 150q0 73 14 169h88q8 -110 47 -149q66 -74 222 -74q162 0 242.5 72.5t80.5 200.5q0 111 -81 183.5t-249 82.5q-47 4 -145 4v111q108 5 141 10q135 21 207 96t72 174q0 44 -11 81t-36 70t-72.5 51.5t-112.5 18.5q-159 0 -215 -59q-32 -32 -47 -158h-84 q-14 86 -14 148q0 50 19.5 79t68.5 54q112 57 281 57q189 0 283 -88.5t94 -234.5q0 -123 -77.5 -213t-234.5 -127q179 -12 273 -99.5t94 -238.5q0 -191 -128 -295.5t-356 -104.5q-163 0 -268 43q-51 20 -73.5 52.5t-22.5 83.5z" />
<glyph unicode="4" horiz-adv-x="1095" d="M80 365v84l575 856q24 37 49.5 53t63.5 16q74 0 74 -100q0 -46 -1 -148t-1 -137v-493h204v-129h-204v-121q0 -95 16 -121q20 -31 180 -41v-86q-168 4 -291 4q-75 0 -247 -4v86q160 14 178 41q18 26 18 123v117h-614zM238 489h456q0 361 8 693z" />
<glyph unicode="5" horiz-adv-x="1095" d="M119 147q0 87 12 170h90q8 -111 45 -153q62 -70 215 -70q115 0 192.5 44t111.5 114.5t34 161.5q0 137 -80.5 221t-249.5 84q-55 0 -127 -21q-58 -16 -88 -16q-65 0 -65 72q0 27 4 77l47 508h662v-143h-560l-34 -377q113 33 221 33q192 0 308 -105.5t116 -312.5 q0 -212 -132.5 -337.5t-361.5 -125.5q-165 0 -264 43q-53 23 -74.5 53t-21.5 80z" />
<glyph unicode="6" horiz-adv-x="1095" d="M113 584q0 396 146.5 592t414.5 196q127 0 198 -26q51 -18 73 -45t22 -76q0 -78 -15 -170h-88q-12 116 -45 149q-46 43 -155 43q-56 0 -105.5 -13t-101.5 -50t-90 -96.5t-65 -160t-34 -233.5q43 67 140 113.5t200 46.5q180 0 288 -112.5t108 -292.5q0 -114 -35 -206 t-96 -151t-140.5 -90t-171.5 -31q-206 0 -327 153.5t-121 459.5zM270 561q0 -108 4 -145q18 -148 89.5 -235t201.5 -87q129 0 207 84.5t78 241.5q0 150 -74.5 226.5t-206.5 76.5q-89 0 -169 -40.5t-130 -121.5z" />
<glyph unicode="7" horiz-adv-x="1095" d="M90 1235q0 48 25.5 76t95.5 28h788v-88l-534 -1255q-19 -47 -64 -47q-34 0 -54.5 14t-20.5 41q0 18 10 43l502 1149h-332q-213 0 -244 -8q-35 -8 -50 -47t-26 -131h-82q-14 143 -14 225z" />
<glyph unicode="8" horiz-adv-x="1095" d="M106 328q0 236 289 364q-133 77 -184 160.5t-51 175.5q0 151 107.5 247.5t297.5 96.5q184 0 282.5 -87.5t98.5 -235.5q0 -105 -61 -187t-195 -155q89 -39 148 -80t90.5 -87t44 -92.5t12.5 -107.5q0 -161 -122.5 -266t-323.5 -105q-196 0 -314.5 98t-118.5 261zM254 338 q0 -113 83 -179.5t208 -66.5q130 0 206 63.5t76 172.5q0 54 -19 95t-65.5 77.5t-103 66t-152.5 70.5q-131 -75 -182 -140.5t-51 -158.5zM311 1051q0 -86 64 -153.5t215 -135.5q209 128 209 276q0 98 -62.5 155.5t-171.5 57.5q-115 0 -184.5 -53.5t-69.5 -146.5z" />
<glyph unicode="9" horiz-adv-x="1095" d="M94 899q0 113 35.5 204.5t97.5 149.5t142.5 88.5t173.5 30.5q208 0 323 -151t115 -459q0 -791 -551 -791q-90 0 -203 31q-49 15 -74.5 50t-25.5 83q0 79 10 164h90q8 -110 47 -152q45 -51 168 -51q353 0 383 561q-44 -65 -140 -111t-200 -46q-180 0 -285.5 109 t-105.5 290zM246 926q0 -149 72.5 -222t205.5 -73q90 0 169.5 39t129.5 118q0 109 -4 144q-41 317 -295 317q-127 0 -202.5 -83.5t-75.5 -239.5z" />
<glyph unicode=":" horiz-adv-x="477" d="M135 104q0 55 36 92t87 37q55 0 91 -34t36 -88q0 -59 -35 -95t-90 -36q-53 0 -89 35t-36 89zM135 774q0 56 35.5 92.5t87.5 36.5q55 0 91 -34t36 -89q0 -60 -35 -95.5t-90 -35.5q-53 0 -89 35.5t-36 89.5z" />
<glyph unicode=";" horiz-adv-x="479" d="M68 -303q198 129 198 250q0 52 -45 65q-42 14 -64 38t-22 73q0 46 36.5 78t88.5 32q71 0 112.5 -47.5t41.5 -130.5q0 -251 -305 -428zM135 774q0 56 35.5 92.5t87.5 36.5q55 0 91 -34t36 -89q0 -60 -35 -95.5t-90 -35.5q-53 0 -89 35.5t-36 89.5z" />
<glyph unicode="&#x3c;" horiz-adv-x="1198" d="M186 563v142l772 419v-147l-643 -342l643 -336v-154z" />
<glyph unicode="=" horiz-adv-x="1198" d="M135 401v129h924v-129h-924zM135 758v127h924v-127h-924z" />
<glyph unicode="&#x3e;" horiz-adv-x="1198" d="M238 145v152l643 340l-643 334v153l768 -415v-138z" />
<glyph unicode="?" horiz-adv-x="847" d="M125 1274q0 44 25.5 72.5t76.5 46.5q101 32 226 32q179 -1 269.5 -85.5t90.5 -243.5q0 -123 -70 -220.5t-241 -185.5q-61 -33 -72 -112q-7 -55 -10 -144h-80q-16 128 -16 203q0 51 29.5 84.5t88.5 64.5q207 109 207 295q0 31 -4 59t-17.5 60t-35 55t-59 38t-87.5 16 q-129 0 -172 -35q-38 -30 -41 -150h-90q-18 97 -18 150zM266 104q0 55 36 92t87 37q54 0 89.5 -34t35.5 -88q0 -59 -34 -95t-89 -36q-53 0 -89 35t-36 89z" />
<glyph unicode="@" horiz-adv-x="1605" d="M74 418q0 172 60 329t167 277t266.5 191t347.5 71q135 0 244.5 -35t178 -90t115 -127.5t65 -143t18.5 -140.5q0 -184 -60.5 -312t-185.5 -239q-47 -41 -116 -72t-115 -31q-119 0 -119 109q0 35 2 45q-148 -154 -307 -154q-240 0 -240 281q0 113 60 245t157 216 q74 63 136.5 88.5t158.5 25.5q105 0 185 -49l30 68h101l-113 -420q-49 -177 -49 -279q0 -26 13.5 -39.5t33.5 -13.5q25 0 64.5 20.5t72.5 51.5q78 70 126 188.5t48 259.5q0 205 -141 328t-365 123q-205 0 -369 -100.5t-255.5 -278.5t-91.5 -401q0 -175 83.5 -309.5 t226 -205.5t320.5 -71q354 0 619 221l57 -76q-143 -126 -318.5 -191t-365.5 -65q-217 0 -386 86t-264 246.5t-95 372.5zM524 379q0 -172 148 -172q61 0 138 40.5t134 94.5q3 18 41 174l76 289q-81 43 -180 43q-105 0 -189 -76q-71 -65 -119.5 -177.5t-48.5 -215.5z" />
<glyph unicode="A" horiz-adv-x="1435" d="M10 -2v96q110 6 144 33q19 13 32 40.5t47 119.5l396 1056q15 41 37.5 58.5t58.5 17.5q32 0 53 -16t35 -57l406 -1086q24 -66 38.5 -94t34.5 -43q29 -26 133 -29v-96q-144 4 -264 4q-132 0 -276 -4v96q103 5 141 15q47 11 47 47q0 42 -29 125l-83 221h-521l-78 -211 q-30 -88 -30 -131q0 -33 24 -45q24 -9 166 -21v-96q-132 4 -270 4q-116 0 -242 -4zM477 616h445q-196 527 -224 613q-60 -174 -221 -613z" />
<glyph unicode="B" horiz-adv-x="1263" d="M76 -2v96q126 5 153 21q23 9 29 29.5t6 95.5v903q0 97 -14 117q-12 14 -44.5 20t-129.5 12v94h358q214 0 346 -16q153 -23 227 -102.5t74 -204.5q0 -122 -69.5 -206.5t-202.5 -117.5q173 -20 260.5 -109t87.5 -229q0 -231 -194 -335q-122 -68 -330 -68q-39 0 -143 2 t-158 2q-108 0 -256 -4zM416 186q0 -37 11.5 -50t45.5 -21q35 -6 145 -6q180 0 273.5 72.5t93.5 211.5q0 76 -36.5 136t-94.5 89q-54 28 -128.5 39t-203.5 11h-106v-482zM416 782h102q55 0 123 5.5t90 11.5q184 56 184 239q0 81 -44.5 135.5t-120.5 75.5q-78 19 -230 19 h-104v-486z" />
<glyph unicode="C" horiz-adv-x="1372" d="M104 668q0 347 197 548t524 201q200 0 324 -47q51 -19 73.5 -47t22.5 -72q0 -94 -18 -213h-90q-10 143 -47 185q-30 30 -103.5 48.5t-177.5 18.5q-114 0 -212.5 -39.5t-173 -113.5t-117 -189.5t-42.5 -259.5q0 -122 28.5 -221t78.5 -167t119 -114t149 -67t170 -21 q97 0 169 21t107 51q42 36 84 170h91q-3 -133 -23 -209q-25 -86 -125 -115q-142 -45 -328 -45q-149 0 -273 46t-215 132.5t-141.5 219t-50.5 299.5z" />
<glyph unicode="D" horiz-adv-x="1464" d="M76 0v94q89 4 125.5 10.5t48.5 20.5q9 12 11.5 34.5t2.5 86.5v891q0 93 -8 114q-10 21 -44 28t-136 13v92h332q311 0 457.5 -23.5t246.5 -86.5q129 -81 188.5 -217.5t59.5 -337.5q0 -411 -258 -594q-92 -65 -218.5 -95t-334.5 -30h-473zM416 201q0 -36 11.5 -49t45.5 -21 q59 -12 182 -12q264 0 403.5 150.5t139.5 439.5q0 181 -64 305t-182 182q-143 70 -401 70h-135v-1065z" />
<glyph unicode="E" horiz-adv-x="1210" d="M76 0v94q145 8 170 33q12 12 15 38.5t3 92.5v879q0 103 -12 120q-10 15 -46 22t-130 13v92h856q71 0 97 -25t26 -73q0 -82 -15 -225h-90q-15 149 -51 174q-25 19 -76 25t-182 6h-225v-490h162q90 0 123.5 6.5t50.5 28.5q30 34 36 127h89q-3 -79 -3 -213q0 -95 3 -221h-82 q-10 88 -39 129q-16 21 -53.5 26t-129.5 5h-157v-453q0 -44 13 -63.5t44 -22.5q68 -8 195 -8q145 0 208.5 13t90.5 42q39 41 80 180h86q-3 -205 -35 -295q-9 -27 -50.5 -42t-105.5 -15h-866z" />
<glyph unicode="F" horiz-adv-x="1175" d="M76 -2v96q91 6 126 13.5t48 21.5q9 9 11.5 33t2.5 96v879q0 103 -12 120q-10 15 -46 22t-130 13v92h876q72 0 96.5 -24t24.5 -74q0 -92 -14 -225h-90q-10 85 -22 122.5t-32 51.5q-26 18 -74.5 24.5t-174.5 6.5h-250v-512h188q86 0 119.5 7.5t52.5 29.5q31 40 37 127h88 q-2 -51 -2 -213q0 -140 2 -224h-82q-14 95 -39 131q-16 21 -52.5 26t-127.5 5h-184v-381q0 -98 22 -129q11 -16 60.5 -24t148.5 -15v-96q-176 4 -305 4q-94 0 -266 -4z" />
<glyph unicode="G" horiz-adv-x="1452" d="M104 668q0 172 53.5 313t149.5 236.5t230 147.5t294 52q206 0 343 -49q96 -33 96 -119q0 -32 -6.5 -100.5t-14.5 -112.5h-92q-10 145 -47 185q-62 69 -289 69q-65 0 -125.5 -12t-116.5 -37t-104 -61t-87 -86t-66.5 -110.5t-42.5 -135.5t-15 -160q0 -122 28.5 -221.5 t78.5 -167t120 -113.5t150 -67t170 -21q205 0 272 54q19 17 19 90v166q0 54 -3.5 75t-15.5 31q-20 18 -174 25v98q177 -6 260 -6q120 0 222 6v-98q-59 -2 -86.5 -7.5t-38.5 -21.5q-13 -16 -13 -102v-263q0 -87 -71 -110q-182 -66 -404 -66q-148 0 -271.5 46t-213 133 t-139.5 220t-50 300z" />
<glyph unicode="H" horiz-adv-x="1536" d="M76 -2v96q89 6 125.5 13t48.5 22q9 10 11.5 34t2.5 95v877q0 103 -14 122q-16 22 -174 35v94q28 -1 87 -2.5t101 -2.5t64 -1q14 0 278 6v-94q-94 -7 -130 -15.5t-46 -21.5q-14 -22 -14 -118v-355h702v353q0 103 -14 122q-19 22 -174 35v94l252 -6q14 0 278 6v-94 q-94 -7 -130 -15.5t-46 -21.5q-14 -19 -14 -118v-877q0 -72 2.5 -96t11.5 -33q21 -28 176 -37v-96q-176 4 -268 4q-90 0 -262 -4v96q89 6 125.5 13t48.5 22q9 10 11.5 34t2.5 95v408h-702v-406q0 -112 14 -129q21 -28 176 -37v-96q-176 4 -270 4q-88 0 -260 -4z" />
<glyph unicode="I" horiz-adv-x="681" d="M76 -2v96q86 6 124 13.5t50 21.5q9 9 11.5 33t2.5 96v877q0 103 -14 122q-16 22 -174 35v94q234 -6 254 -6q12 0 276 6v-94q-94 -7 -130 -15.5t-46 -21.5q-14 -22 -14 -118v-877q0 -110 14 -127q20 -29 176 -39v-96q-176 4 -268 4q-90 0 -262 -4z" />
<glyph unicode="J" horiz-adv-x="643" d="M-14 -227q199 104 237 250q31 127 31 315v797q0 103 -14 122q-15 22 -181 35v94q240 -6 260 -6q9 0 273 6v-94q-153 -11 -172 -37q-14 -22 -14 -118v-795q0 -267 -52 -389q-34 -80 -121.5 -153t-199.5 -122z" />
<glyph unicode="K" horiz-adv-x="1353" d="M76 -2v96q130 9 150 15q16 6 24 16q9 12 11.5 36t2.5 95v881q0 104 -14 123t-174 32v94q28 -1 87 -2.5t101 -2.5t64 -1q20 0 284 6v-94q-96 -7 -134.5 -15t-47.5 -20q-14 -22 -14 -120v-881q0 -109 14 -129q22 -25 182 -33v-96q-176 4 -276 4q-88 0 -260 -4zM451 707 q157 144 428 436q65 73 65 108q0 19 -29 27t-114 14v94q92 -4 266 -4q148 0 238 4v-94q-3 0 -18.5 -1t-24 -1.5t-22 -2.5t-24 -5t-18.5 -8q-48 -21 -151 -127q-12 -12 -116.5 -117.5t-192.5 -194t-115 -112.5q106 -139 254 -308.5t221 -230.5q61 -50 116 -71q54 -21 119 -21 v-92q-31 -8 -100 -8q-62 0 -129.5 21t-114.5 59q-85 69 -255 273t-283 362z" />
<glyph unicode="L" horiz-adv-x="1210" d="M76 0v94q145 8 170 33q12 12 15 37.5t3 93.5v881q0 102 -14 121q-19 22 -174 32v94q234 -6 254 -6q26 0 284 6v-94q-166 -13 -184 -37q-14 -22 -14 -118v-926q0 -44 13 -62.5t44 -23.5q71 -8 195 -8q145 0 207.5 13t89.5 42q44 47 82 186h83q-1 -89 -12 -173.5 t-26 -127.5q-18 -57 -152 -57h-864z" />
<glyph unicode="M" horiz-adv-x="1792" d="M72 -2v94q136 6 161 31q15 15 21.5 51.5t7.5 118.5q4 199 7 370.5t5 254t3 146.5t1.5 87t0.5 35q0 63 -15 78q-14 12 -47 18t-131 10v94q92 -4 227 -4q125 0 162 4q323 -732 414 -968q77 191 432 968q110 -4 186 -4q136 0 197 4v-94q-97 -4 -133 -11.5t-47 -23.5 q-17 -22 -17 -112q0 -102 4 -860q0 -132 17 -152q14 -17 46.5 -25.5t137.5 -15.5v-94q-188 4 -266 4q-39 0 -277 -4v94q152 7 177 39q12 18 12 102q0 824 2 963q-66 -177 -426 -948q-11 -25 -25.5 -35t-42.5 -10q-44 0 -63 47q-329 759 -410 950q-6 -867 -6 -985 q0 -74 23 -94q13 -13 42.5 -18t129.5 -11v-94q-172 4 -238 4q-68 0 -272 -4z" />
<glyph unicode="N" horiz-adv-x="1503" d="M66 1292v94q90 -4 221 -4q75 0 147 4q617 -915 748 -1132q-5 154 -9 487.5t-4 337.5q-5 150 -18 174q-17 31 -174 39v94q200 -4 258 -4q30 0 248 4v-94q-87 -6 -119.5 -13t-48.5 -22q-12 -14 -16.5 -49t-4.5 -129q-2 -195 -2 -692q0 -49 1 -170.5t1 -159.5q0 -73 -71 -73 q-49 0 -76 45q-255 390 -437 666t-238 360.5t-85 130.5q1 -121 3 -330.5t4.5 -369t2.5 -183.5q0 -95 3.5 -128t15.5 -46q12 -15 49.5 -23t128.5 -14v-94q-222 4 -264 4q-54 0 -262 -4v94q166 8 186 41q4 6 6 14.5t3 25.5t1.5 30.5t1.5 46.5t2 57q4 102 4 772q0 133 -14 158 q-17 33 -63 43q-62 12 -129 12z" />
<glyph unicode="O" horiz-adv-x="1490" d="M104 686q0 339 178.5 534t475.5 195q321 0 474.5 -183.5t153.5 -516.5q0 -185 -49.5 -329t-137 -233.5t-203 -135.5t-251.5 -46q-160 0 -283 52t-201 147.5t-117.5 225.5t-39.5 290zM264 715q0 -617 486 -617q228 0 351.5 156t123.5 446q0 305 -118.5 447.5t-354.5 142.5 q-235 0 -361.5 -155t-126.5 -420z" />
<glyph unicode="P" horiz-adv-x="1171" d="M76 -2v96q142 10 170 31q12 10 15 33t3 96v883q0 63 -3 86.5t-13 33.5q-26 23 -172 35v92h358q248 0 352 -16q166 -28 243 -124.5t77 -239.5q0 -443 -561 -443q-84 0 -129 2v-307q0 -107 14 -127q22 -25 180 -35v-96q-176 4 -280 4q-74 0 -254 -4zM416 674q17 0 50 -1 t48 -1q49 0 88 2.5t85.5 10t81.5 21.5t69.5 38.5t56.5 57.5t35.5 82.5t13.5 110.5q0 108 -53 173t-143 85q-90 17 -222 17h-110v-596z" />
<glyph unicode="Q" horiz-adv-x="1490" d="M104 686q0 339 178.5 534t475.5 195q321 0 474.5 -183.5t153.5 -516.5q0 -307 -131 -492t-348 -233q128 -112 269 -172q134 -60 325 -60q39 0 55 2v-96q-56 -10 -145 -10q-200 0 -324 51q-97 39 -180.5 95.5t-224.5 172.5q-285 20 -431.5 211t-146.5 502zM264 715 q0 -617 486 -617q228 0 351.5 156t123.5 446q0 305 -118.5 447.5t-354.5 142.5q-235 0 -361.5 -155t-126.5 -420z" />
<glyph unicode="R" horiz-adv-x="1329" d="M76 -2v96q141 11 170 33q12 10 15 31.5t3 93.5v893q0 58 -3 80t-13 32q-11 12 -47.5 20t-124.5 15v92h358q240 0 350 -20q153 -29 227 -117t74 -225q0 -160 -85.5 -257t-233.5 -136q138 -212 202 -300t128 -143q61 -51 110 -71q44 -18 97 -21v-94q-24 -4 -72 -4 q-137 0 -242 84q-81 64 -159 176t-220 348q-25 -2 -73 -2q-43 0 -121 4v-350q0 -105 14 -125q23 -26 176 -37v-96q-180 4 -276 4q-74 0 -254 -4zM416 715q17 0 55.5 -1t52.5 -1q65 0 118 6.5t107 26.5t90.5 52t59.5 87t23 129q0 63 -21 109t-55 74t-87.5 44.5t-109 22.5 t-127.5 6h-106v-555z" />
<glyph unicode="S" horiz-adv-x="1132" d="M125 240q0 56 6 133h88q14 -91 35 -133.5t53 -71.5q35 -33 105 -52.5t163 -19.5q147 0 225.5 67.5t78.5 164.5q0 86 -44.5 139t-160.5 104l-254 111q-258 110 -258 346q0 82 29 150.5t86.5 122.5t152.5 84t219 30q162 0 271 -49q71 -29 71 -121q0 -68 -14 -201h-86 q-14 98 -29 140.5t-39 62.5q-54 43 -217 43q-147 0 -219 -66.5t-72 -166.5q0 -83 49 -140t185 -114l229 -94q140 -57 199 -143t59 -199q0 -187 -130 -291.5t-351 -104.5q-91 0 -176 16t-137 44q-69 35 -93 82t-24 127z" />
<glyph unicode="T" horiz-adv-x="1318" d="M78 1280q0 52 23.5 78t95.5 26h921q72 0 97.5 -25t25.5 -75q0 -94 -10 -237h-84q-18 164 -57 192q-28 20 -85.5 25.5t-269.5 5.5v-1004q0 -108 13 -131q8 -16 45 -25t139 -16v-96q-160 4 -258 4q-117 0 -281 -4v96q99 7 133 15t45 24q13 17 13 129v1008q-211 0 -268 -5.5 t-85 -25.5q-41 -26 -59 -192h-84q-10 143 -10 233z" />
<glyph unicode="U" horiz-adv-x="1542" d="M57 1292v94q160 -4 271 -4q108 0 268 4v-94q-96 -6 -132 -14t-48 -23q-14 -19 -17 -110q-4 -145 -4 -512q0 -265 35 -357q69 -178 358 -178q109 0 199.5 36t126.5 97q39 64 53.5 164t14.5 258q0 256 -8 480q-1 68 -6 94t-17 35q-26 18 -168 30v94q76 -2 250 -2 q21 0 118.5 1t135.5 1v-94q-164 -10 -178 -45q-11 -28 -11 -131v-500q0 -194 -24.5 -305t-83.5 -182q-127 -160 -434 -160q-158 0 -273.5 51t-167.5 138q-40 68 -56.5 166t-16.5 303q0 97 2 276.5t2 233.5q0 86 -13 112q-11 19 -49.5 29t-126.5 14z" />
<glyph unicode="V" horiz-adv-x="1433" d="M10 1292v94q140 -4 277 -4q120 0 264 4v-94q-134 -7 -141 -8q-48 -9 -48 -49q0 -32 31 -127q124 -351 227.5 -632.5t114.5 -313.5q82 236 332 938q31 95 31 133q0 32 -25 43q-22 10 -166 16v94q132 -4 258 -4q132 0 258 4v-94q-110 -3 -145 -30q-17 -13 -31.5 -42.5 t-42.5 -107.5l-399 -1079q-24 -68 -90 -68q-35 0 -57 15.5t-35 52.5l-406 1100q-24 65 -39 93.5t-35 43.5q-20 17 -133 22z" />
<glyph unicode="W" horiz-adv-x="1986" d="M35 1292v94q48 -1 107 -2t92.5 -1.5t58.5 -0.5q176 0 258 4v-94q-42 0 -73.5 -3t-52 -8t-33.5 -11t-19.5 -15.5t-8.5 -18.5t-2 -22q0 -32 15 -94q202 -861 217 -932q58 214 334 1127q24 76 88 76q24 0 39.5 -6t27 -22t19.5 -44q257 -879 321 -1133q56 267 213 916 q15 61 15 108q0 18 -2.5 27.5t-12 20.5t-30.5 16.5t-57.5 10.5t-92.5 7v94q200 -4 264 -4q82 0 234 4v-94q-7 -1 -23.5 -2.5t-23 -2t-19.5 -2.5t-19.5 -4t-15.5 -5.5t-15.5 -8t-12.5 -10.5q-12 -12 -22 -35t-16 -44t-15 -56l-273 -1079q-9 -38 -32.5 -58t-57.5 -20 t-56.5 16.5t-33.5 57.5q-242 827 -320 1130q-97 -363 -335 -1126q-24 -78 -93 -78q-72 0 -90 74l-264 1089q-9 38 -14.5 57.5t-15 41t-20 31t-29.5 18.5t-43 12t-60 4z" />
<glyph unicode="X" horiz-adv-x="1423" d="M27 -2v96q118 0 151 27q39 29 88 98l357 498l-328 463q-50 70 -88 92q-27 16 -125 20v94q125 -4 285 -4q206 0 274 4v-94q-76 -3 -114 -10t-49 -17.5t-11 -29.5q0 -31 35 -80l237 -340l219 313q20 27 35 59.5t15 49.5q0 18 -11 27.5t-47 16.5t-108 11v94q66 -4 266 -4 q160 0 238 4v-94q-62 -2 -88 -6.5t-46 -19.5q-27 -18 -92 -109l-317 -430l362 -516q46 -63 82 -90q35 -27 148 -27v-96q-274 4 -281 4q-20 0 -274 -4v96q101 4 133.5 16t32.5 40q0 20 -35 69l-279 404l-256 -375q-47 -71 -47 -98q0 -31 37 -43t141 -13v-96q-230 4 -288 4 q-127 0 -252 -4z" />
<glyph unicode="Y" horiz-adv-x="1253" d="M8 1292v94q234 -4 246 -4q46 0 254 4v-94q-75 -2 -113 -10t-46.5 -17.5t-8.5 -27.5q0 -27 45 -104q149 -254 260 -457q169 292 273 467q40 64 40 102q0 25 -33 35.5t-130 11.5v94q98 -4 256 -4q106 0 192 4v-94q-57 -3 -96 -30q-27 -21 -90 -119l-357 -572v-340 q0 -82 9 -100t44.5 -25.5t139.5 -11.5v-96q-218 4 -258 4q-73 0 -273 -4v96q101 4 132.5 10.5t40.5 22.5q12 19 12 104v338l-334 557q-11 18 -26.5 45t-21.5 37.5t-15.5 24t-16 20t-14.5 11.5q-36 23 -111 28z" />
<glyph unicode="Z" horiz-adv-x="1241" d="M68 0v57l845 1211q-359 0 -463.5 -3.5t-136.5 -13.5q-31 -9 -46.5 -51.5t-26.5 -142.5h-93q-16 156 -16 233q0 94 133 94h875v-55l-844 -1206q78 -4 309 -4q200 0 273.5 9.5t105.5 33.5q30 22 51.5 70t44.5 126h90q-7 -181 -28 -288q-14 -70 -127 -70h-946z" />
<glyph unicode="[" horiz-adv-x="604" d="M195 -348v1894h376v-92h-243v-1710h243v-92h-376z" />
<glyph unicode="\" horiz-adv-x="688" d="M61 1466l105 33l491 -1632l-106 -33z" />
<glyph unicode="]" horiz-adv-x="604" d="M33 -256h246v1710h-246v92h377v-1894h-377v92z" />
<glyph unicode="^" horiz-adv-x="1198" d="M215 758l322 688h133l309 -688h-133l-248 542l-248 -542h-135z" />
<glyph unicode="_" horiz-adv-x="1005" d="M-4 -164h1014v-115h-1014v115z" />
<glyph unicode="`" horiz-adv-x="604" d="M123 1427q0 27 24.5 47.5t51.5 20.5t47 -17t53 -69l180 -287l-57 -47l-236 242q-34 36 -48.5 60t-14.5 50z" />
<glyph unicode="a" horiz-adv-x="1044" d="M100 256q0 48 12 86t43.5 73t82 58t131.5 37t188 14q98 0 131 -4v96q0 123 -29 168q-42 66 -184 66q-109 0 -158 -43q-35 -28 -41 -145h-88q-18 97 -18 151q0 44 25.5 72.5t76.5 46.5q101 37 232 37q195 0 264 -82q31 -36 43 -85.5t12 -135.5q0 -21 -1 -218t-1 -208 q0 -82 20.5 -111t71.5 -29q29 0 82 11v-95q-66 -32 -149 -32q-118 0 -144 118q-113 -125 -286 -125q-83 0 -152.5 28.5t-116.5 93.5t-47 157zM244 268q0 -89 58 -130.5t140 -41.5q70 0 135 25.5t111 62.5v232q-74 4 -139 4q-89 0 -151 -11.5t-94.5 -33.5t-46 -47.5 t-13.5 -59.5z" />
<glyph unicode="b" horiz-adv-x="1148" d="M37 1352v86q108 59 207 59q51 0 74.5 -28t23.5 -113q0 -287 -2 -527q64 60 153.5 100t184.5 40q185 0 279 -132.5t94 -355.5q0 -229 -127.5 -368.5t-364.5 -139.5q-204 0 -356 70q2 96 2 264v764q0 231 -27 262q-21 23 -80 23q-11 0 -61 -4zM342 135q74 -39 231 -39 q161 0 245.5 102.5t84.5 272.5q0 58 -8 108.5t-28.5 99t-52.5 83t-84 55.5t-118 21q-143 0 -270 -93v-610z" />
<glyph unicode="c" horiz-adv-x="976" d="M100 455q0 234 132 374t360 140q104 0 176 -19q53 -14 77.5 -42.5t24.5 -80.5q0 -69 -16 -157h-90q-11 112 -50.5 147t-146.5 35q-155 0 -240 -104t-85 -285q0 -163 82.5 -263t240.5 -100q89 0 159.5 28t141.5 83l58 -84q-75 -72 -176.5 -114t-215.5 -42 q-194 0 -313 129.5t-119 354.5z" />
<glyph unicode="d" horiz-adv-x="1191" d="M100 442q0 114 32 209.5t93.5 166.5t159.5 111t223 40q49 0 116 -11.5t112 -37.5q0 178 -2 266q-3 112 -27 145q-22 25 -84 25q-23 0 -55 -4v86q105 59 206 59q51 0 76 -27.5t25 -107.5q0 -21 -1 -212.5t-1 -275.5v-651q0 -69 19 -96t67 -27q36 0 82 11v-95 q-68 -32 -154 -32q-116 0 -137 116q-54 -62 -136.5 -93.5t-178.5 -31.5q-199 0 -317 132t-118 335zM242 463q0 -168 90 -266.5t233 -98.5q72 0 149.5 25t121.5 61v613q-37 22 -106.5 37.5t-133.5 15.5q-163 0 -258.5 -102t-95.5 -285z" />
<glyph unicode="e" horiz-adv-x="1017" d="M100 455q0 125 36 224t99.5 161.5t147 95.5t182.5 33q81 0 145 -21t104.5 -55.5t67 -82t37.5 -98t11 -106.5q0 -88 -25 -110q-19 -17 -84 -17h-577v-33q0 -154 84.5 -250t249.5 -96q90 0 164 30t151 87l59 -90q-177 -156 -397 -156q-113 0 -201 38t-143 104.5t-83 153.5 t-28 188zM252 584l539 6v20q0 113 -56 177.5t-190 64.5q-114 0 -196.5 -69.5t-96.5 -198.5z" />
<glyph unicode="f" horiz-adv-x="663" d="M63 807v80q80 18 115 41q28 18 39 44t14 89q15 251 134 350q102 86 258 86q85 0 147 -22q57 -21 57 -95q0 -44 -14 -163h-88q-9 108 -33.5 136.5t-111.5 28.5q-52 0 -96 -25t-68 -71q-47 -92 -47 -272v-92q156 0 258 -4v-105q-135 -6 -258 -6v-549q0 -104 18 -131 q11 -16 47 -23.5t150 -11.5v-94q-192 4 -258 4q-68 0 -256 -4v94q75 4 106.5 12t42.5 23q14 19 14 100v580h-170z" />
<glyph unicode="g" horiz-adv-x="1050" d="M37 -276q0 108 90 184q74 63 147 96q-96 41 -96 125q0 85 119 164q-195 95 -195 309q0 163 108.5 265t283.5 102q143 0 227 -47q205 0 287 -7v-102q-117 -6 -185 -6q28 -27 44 -83.5t16 -105.5q0 -174 -111 -269t-285 -95q-76 0 -106 6q-42 -28 -58 -48t-16 -46 q0 -16 19.5 -31.5t56.5 -25.5q52 -15 195.5 -39t177.5 -31q129 -26 186 -88.5t57 -167.5q0 -156 -137 -252t-358 -96q-220 0 -343.5 81.5t-123.5 207.5zM176 -256q0 -76 86 -132t254 -56q94 0 163 19.5t105 51.5t52 66t16 71q0 27 -8.5 47t-33 42t-75 39t-127.5 30 q-193 31 -248 47q-101 -58 -142.5 -111t-41.5 -114zM242 621q0 -131 69.5 -190.5t184.5 -59.5q110 0 179.5 58.5t69.5 170.5q0 252 -253 252q-120 0 -185 -65t-65 -166z" />
<glyph unicode="h" horiz-adv-x="1193" d="M53 1352v86q108 59 209 59q51 0 75.5 -28.5t24.5 -112.5q0 -58 -2 -232t-2 -305q70 68 169 108t202 40q57 0 107 -19t79 -49q34 -39 49 -101.5t15 -168.5v-396q0 -76 12 -100q10 -16 41 -25t115 -16v-94q-172 4 -232 4q-49 0 -225 -4v94q67 6 96.5 13.5t38.5 21.5 q19 23 19 111v364q0 119 -33 168q-43 59 -158 59q-73 0 -155.5 -24t-137.5 -64v-505q0 -92 17 -111q9 -12 36 -19t101 -14v-94q-176 4 -246 4q-119 0 -209 -4v94q80 8 109 14t39 19q16 19 16 108v879q0 109 -5.5 157.5t-20.5 63.5q-23 23 -80 23q-10 0 -64 -4z" />
<glyph unicode="i" horiz-adv-x="606" d="M70 -2v94q74 6 105.5 12.5t41.5 18.5q16 19 16 110v418q0 99 -18 131.5t-88 32.5q-29 0 -57 -4v86q105 61 206 61q50 0 75.5 -27.5t25.5 -109.5q0 -89 -4 -290t-4 -295q0 -87 18 -111q11 -14 38.5 -20.5t102.5 -12.5v-94q-176 4 -247 4q-121 0 -211 -4zM160 1333 q0 51 30.5 83t79.5 32q55 0 82 -30.5t27 -80.5q0 -49 -31 -80.5t-84 -31.5q-46 0 -75 31.5t-29 76.5z" />
<glyph unicode="j" horiz-adv-x="550" d="M-16 -477q78 35 124 70.5t72 87.5q37 73 37 294v680q0 97 -19 130.5t-89 33.5q-24 0 -60 -6v84q105 61 205 61q50 0 74 -27t24 -110q0 -91 3 -407.5t3 -401.5q0 -154 -10 -234.5t-47 -142.5q-39 -67 -120 -120t-167 -78zM139 1333q0 51 30 83t79 32q56 0 83 -30.5 t27 -80.5q0 -49 -30.5 -80.5t-83.5 -31.5q-48 0 -76.5 31t-28.5 77z" />
<glyph unicode="k" horiz-adv-x="1105" d="M76 1354v84q108 59 207 59q25 0 41 -4t30.5 -16.5t21.5 -39.5t7 -69q0 -24 -1 -140.5t-1 -199.5v-792q0 -89 16 -113q9 -12 39 -18.5t103 -12.5v-94q-176 4 -248 4q-121 0 -211 -4v94q130 11 147 31t17 108v945q0 44 -1.5 68t-7.5 50t-18 38t-33 20t-53 8q-31 0 -55 -6z M403 481q116 89 240 213q48 50 65 75t17 44q0 13 -9.5 20.5t-39 12.5t-86.5 8v88q96 -4 229 -4q134 0 228 4v-88q-64 -4 -97 -20q-41 -23 -113 -86t-159 -146t-111 -104q155 -199 277 -305q72 -57 108 -74q50 -21 135 -25v-94q-40 -4 -94 -4q-139 0 -237 80q-35 29 -69.5 63 t-75.5 82.5t-64.5 77.5t-75 95t-68.5 87z" />
<glyph unicode="l" horiz-adv-x="614" d="M76 1354v84q105 59 207 59q25 0 41 -4t30.5 -16.5t21.5 -39.5t7 -69q0 -24 -1 -208.5t-1 -270.5v-653q0 -90 16 -111q17 -23 142 -33v-94q-176 4 -248 4q-121 0 -211 -4v94q75 6 106 13t41 20q17 20 17 108v840q0 231 -33 266q-21 21 -80 21q-31 0 -55 -6z" />
<glyph unicode="m" horiz-adv-x="1802" d="M70 -2v94q79 8 108 14t39 19q16 19 16 108v418q0 99 -18 131.5t-88 32.5q-29 0 -57 -4v86q105 61 196 61q46 0 72 -28t29 -111q155 148 356 148q82 0 144 -36t87 -116q74 70 171.5 111t199.5 41q125 0 184 -68q34 -37 49 -100t15 -170v-396q0 -78 14 -100q8 -16 40 -25 t116 -16v-94q-176 4 -234 4q-49 0 -225 -4v94q119 11 135 35q19 19 19 111v364q0 126 -31 168q-43 59 -158 59q-69 0 -147 -25t-137 -65q6 -37 6 -110v-396q0 -76 12 -100q8 -16 37.5 -25t109.5 -16v-94q-160 4 -223 4q-51 0 -227 -4v94q119 11 135 35q19 19 19 111v364 q0 123 -37.5 175t-147.5 52q-71 0 -146.5 -23.5t-133.5 -64.5v-505q0 -90 18 -111q9 -12 36 -19t101 -14v-94q-184 4 -227 4q-137 0 -227 -4z" />
<glyph unicode="n" horiz-adv-x="1218" d="M70 -2v94q75 6 106 13t41 20q16 19 16 108v418q0 99 -18 131.5t-88 32.5q-29 0 -57 -4v86q105 61 196 61q46 0 72 -28t29 -111q71 68 169.5 108t200.5 40q61 0 112 -18t77 -50q35 -36 49 -98.5t14 -171.5v-396q0 -79 15 -100q8 -18 37.5 -26t117.5 -15v-94q-172 4 -233 4 q-54 0 -226 -4v94q68 6 96.5 13t37.5 20q18 15 18 113v364q0 126 -31 168q-43 59 -157 59q-72 0 -155 -24t-140 -64v-505q0 -90 18 -113q9 -12 36.5 -18.5t100.5 -12.5v-94q-176 4 -243 4q-121 0 -211 -4z" />
<glyph unicode="o" horiz-adv-x="1105" d="M100 465q0 235 128.5 369.5t340.5 134.5q224 0 331.5 -126t107.5 -356q0 -128 -35 -228t-97.5 -162t-144 -94t-178.5 -32q-222 0 -337.5 134t-115.5 360zM242 487q0 -395 315 -395q148 0 228.5 96.5t80.5 284.5q0 377 -305 377q-155 0 -237 -94.5t-82 -268.5z" />
<glyph unicode="p" horiz-adv-x="1155" d="M45 811v86q105 61 199 61q46 0 72 -27.5t30 -109.5q63 63 153 105.5t185 42.5q185 0 279 -132.5t94 -355.5q0 -229 -127.5 -368.5t-366.5 -139.5q-88 0 -215 29v-268q0 -117 23 -140q10 -10 20.5 -14.5t51 -10.5t116.5 -11v-95q-235 5 -256 5q-16 0 -256 -5v95 q75 6 107 14.5t45 24.5q12 16 12 104v950q0 98 -18.5 131t-88.5 33q-27 0 -59 -4zM348 135q74 -39 230 -39q162 0 246.5 102t84.5 273q0 73 -14 134.5t-45.5 115.5t-91 84.5t-142.5 30.5q-66 0 -138.5 -27.5t-129.5 -71.5v-602z" />
<glyph unicode="q" horiz-adv-x="1187" d="M100 442q0 241 131.5 384t380.5 143q195 0 365 -56q-4 -104 -4 -286v-926q0 -88 12 -104q13 -16 44 -24.5t106 -14.5v-95q-240 5 -256 5t-256 -5v95q76 5 116.5 11t51 10.5t20.5 14.5q23 23 23 140q0 293 2 352q-53 -54 -132 -82.5t-169 -28.5q-199 0 -317 132t-118 335z M242 463q0 -168 90 -265.5t233 -97.5q73 0 150.5 24t120.5 60v625q-90 43 -240 43q-163 0 -258.5 -103t-95.5 -286z" />
<glyph unicode="r" horiz-adv-x="800" d="M70 -2v94q74 6 105.5 12.5t41.5 18.5q16 19 16 110v418q0 99 -18 131.5t-88 32.5q-29 0 -57 -4v86q105 61 196 61q46 0 73 -29.5t28 -117.5q42 63 115.5 108.5t146.5 45.5q50 0 77 -20t27 -73t-20 -151h-76q-8 58 -28 75t-60 17q-44 0 -94 -23.5t-86 -62.5v-491 q0 -90 18 -113q14 -18 172 -31v-94q-176 4 -278 4q-121 0 -211 -4z" />
<glyph unicode="s" horiz-adv-x="917" d="M111 154q0 73 4 147h88q12 -125 65 -164q52 -49 185 -49q100 0 156.5 38.5t56.5 96.5q0 51 -33 87.5t-109 66.5l-184 69q-111 42 -158 104.5t-47 145.5q0 123 92 198t281 75q126 0 205 -33q57 -22 57 -96q0 -48 -14 -158h-84q-5 65 -19 93.5t-37 43.5q-42 33 -147 33 q-201 0 -201 -143q0 -45 33.5 -77t120.5 -65l182 -69q59 -22 99.5 -50.5t61.5 -61t29.5 -65t8.5 -71.5q0 -129 -101 -204t-268 -75q-136 0 -233 39q-52 21 -71 57t-19 87z" />
<glyph unicode="t" horiz-adv-x="698" d="M61 807v80q55 13 107 35q36 19 51 61q15 49 37 162q10 43 63 43q48 0 48 -47v-219q142 0 256 -7v-102q-126 -6 -258 -6v-389q0 -159 10 -215q11 -54 40 -78.5t83 -24.5q80 0 159 35l31 -94q-56 -32 -121.5 -49t-113.5 -17q-51 0 -89.5 12t-70.5 40t-49 80.5t-17 128.5 q0 62 1 262t1 309h-168z" />
<glyph unicode="u" horiz-adv-x="1191" d="M47 811v86q105 61 203 61q51 0 75.5 -29t24.5 -110q0 -15 -2 -211.5t-2 -279.5q0 -118 43.5 -170t157.5 -52q73 0 149.5 27t134.5 70v448q0 103 -17.5 133.5t-92.5 30.5q-36 0 -64 -4v86q100 61 217 61q49 0 73 -31t24 -116q0 -1 -2 -230t-2 -350q0 -76 19.5 -103.5 t70.5 -27.5q36 0 78 11v-95q-65 -32 -160 -32q-120 0 -139 131q-142 -142 -344 -142q-66 0 -125.5 22.5t-92.5 61.5q-34 40 -48.5 98t-14.5 158v338q0 100 -17.5 132t-87.5 32q-8 0 -30 -2t-29 -2z" />
<glyph unicode="v" horiz-adv-x="1069" d="M8 848v94q136 -4 238 -4q56 0 188 4v-94q-6 0 -19.5 -1t-21 -1.5t-20 -1.5t-20 -2.5t-17 -4.5t-15.5 -7t-11.5 -9.5t-8 -13t-2.5 -16.5q0 -30 23 -86q118 -282 233 -566q162 412 227 563q23 59 23 95q0 30 -29 37q-39 9 -110 14v94q122 -4 202 -4q73 0 191 4v-94 q-67 -3 -94 -27q-25 -23 -66 -116l-287 -670q-24 -58 -73 -58q-29 0 -48.5 12.5t-33.5 45.5l-289 676q-39 89 -68 112q-24 19 -92 25z" />
<glyph unicode="w" horiz-adv-x="1562" d="M23 848v94q90 -4 221 -4q113 0 213 4v-94q-41 0 -103 -8q-26 -5 -38.5 -15t-12.5 -32q0 -20 19 -84q67 -226 153 -533q61 188 252 713q20 57 78 57q29 0 44 -13.5t25 -43.5q63 -181 242 -715q28 99 82 282.5t72 245.5q16 59 16 91q0 14 -10 26t-23 15q-38 11 -120 14v94 q82 -4 217 -4q114 0 192 4v-94q-65 -3 -98 -23q-17 -10 -28.5 -34t-29.5 -82l-210 -674q-18 -58 -74 -58q-60 0 -78 58q-203 587 -238 710q-39 -118 -258 -710q-21 -58 -73 -58q-63 0 -80 60l-203 676q-28 87 -41 104q-14 18 -36 23.5t-72 7.5z" />
<glyph unicode="x" horiz-adv-x="1138" d="M41 0v92q62 3 89 10t44 21q34 23 90 90l217 266l-231 285q-28 35 -46 50.5t-45 23.5t-77 10v94q104 -4 217 -4q111 0 215 4v-94q-108 0 -108 -41q0 -26 32 -66l148 -180l129 170q35 47 35 76q0 21 -20 30.5t-87 10.5v94q156 -4 219 -4q72 0 182 4v-94q-65 -3 -102 -23 q-44 -26 -111 -110l-184 -230l223 -262q54 -66 95 -98q19 -16 45 -22t84 -11v-92q-59 0 -142 1t-108 1q-117 0 -230 -2v92q79 4 104 14.5t25 32.5q0 24 -57 94l-141 168l-117 -151q-37 -49 -50 -71.5t-13 -39.5q0 -21 27.5 -32.5t105.5 -14.5v-92q-200 4 -240 4 q-53 0 -217 -4z" />
<glyph unicode="y" horiz-adv-x="1067" d="M8 848v94q136 -4 238 -4q56 0 192 4v-94q-64 -4 -90 -8q-49 -8 -49 -54q0 -28 27 -90q22 -52 79 -182.5t98 -226.5t77 -185q12 35 81.5 236t110.5 315q33 87 33 146q0 16 -8.5 26t-27.5 14.5t-32.5 6t-39.5 2t-33 0.5v94q126 -4 204 -4q73 0 191 4v-94q-68 -6 -90 -23 q-18 -16 -32.5 -48.5t-43.5 -110.5l-246 -666q-91 -254 -147 -371q-49 -104 -115 -147t-160 -43q-157 0 -157 121q0 62 12 121h82q13 -73 25 -91q19 -28 71 -28q72 0 125 92q44 78 147 344q-50 0 -75 59l-283 650q-42 92 -72 116q-24 19 -92 25z" />
<glyph unicode="z" horiz-adv-x="931" d="M29 0v51l630 791q-315 0 -372 -6q-61 -6 -78 -39q-19 -35 -29 -131h-90q-12 106 -12 174q0 50 18 75t74 25h688v-61l-627 -777q74 -4 195 -4q211 0 272 21q44 13 68 63q28 62 41 121h86q-5 -141 -12 -221q-3 -40 -28 -61t-87 -21h-737z" />
<glyph unicode="{" horiz-adv-x="618" d="M43 561v80q49 4 81.5 17t53 34t31.5 60.5t14.5 85t3.5 118.5v252q0 70 9 123t34 101.5t66 80t108.5 50t159.5 18.5v-90q-140 0 -193 -59.5t-53 -229.5v-311q0 -149 -33 -205.5t-145 -83.5q106 -23 142 -81t36 -208v-321q0 -152 55.5 -214.5t190.5 -62.5v-88 q-206 0 -289.5 79t-83.5 263v299q0 147 -39 215t-149 78z" />
<glyph unicode="|" horiz-adv-x="530" d="M205 -375v1950h119v-1950h-119z" />
<glyph unicode="}" horiz-adv-x="618" d="M35 -287q140 0 194 60.5t54 230.5v311q0 148 33 204t143 85q-107 22 -143.5 80t-36.5 209v319q0 153 -54.5 215t-189.5 62v92q206 0 289.5 -80.5t83.5 -265.5v-299q0 -148 38.5 -215t149.5 -76v-80q-49 -5 -81.5 -18.5t-53 -34.5t-31.5 -60t-14.5 -84.5t-3.5 -117.5v-254 q0 -69 -9 -122t-34 -101t-66.5 -79t-109 -49t-158.5 -18v86z" />
<glyph unicode="~" horiz-adv-x="1198" d="M119 557q68 101 134.5 146t149.5 45q45 0 91.5 -17t136.5 -76q104 -67 162 -67q53 0 98.5 31.5t101.5 115.5l86 -82q-67 -99 -135.5 -146.5t-150.5 -47.5q-89 0 -195 69q-85 52 -121.5 68t-73.5 16q-56 0 -102 -32t-90 -109z" />
<glyph unicode="&#xa1;" horiz-adv-x="583" d="M125 915q0 59 33 94t88 35q54 0 89.5 -34.5t35.5 -89.5t-35 -91t-88 -36q-54 0 -88.5 34t-34.5 88zM150 -289q0 88 61 877h78q57 -791 57 -879q0 -55 -25 -86t-75 -31q-96 0 -96 119z" />
<glyph unicode="&#xa2;" horiz-adv-x="1028" d="M141 449q0 191 95.5 319t265.5 160v215h96v-205h12q98 0 168 -20q101 -26 101 -115q0 -62 -17 -152h-90q-8 102 -43 135t-131 37v-712q137 2 276 106l48 -78q-133 -130 -324 -145v-230h-96v232q-163 15 -262 135.5t-99 317.5zM287 457q0 -291 215 -338v694 q-105 -28 -160 -120t-55 -236z" />
<glyph unicode="&#xa3;" horiz-adv-x="1187" d="M76 0v111q142 26 216.5 127.5t74.5 255.5q0 8 -1 27.5t-1 31.5h-201v113h188q-4 25 -16.5 94t-20.5 124.5t-8 88.5q0 189 116.5 294t317.5 105q136 0 207 -26q51 -18 72.5 -45t21.5 -78q0 -64 -16 -174h-84q-11 117 -43 153q-46 49 -180 49q-258 0 -258 -278 q0 -38 19 -155.5t22 -151.5h317v-113h-305v-25q0 -264 -190 -391q188 4 393 4q111 0 164.5 7t74.5 28q38 38 62 131h80q-4 -138 -23 -235q-15 -72 -123 -72h-876z" />
<glyph unicode="&#xa4;" horiz-adv-x="1153" d="M86 240l135 137q-92 112 -92 278q0 161 90 275l-133 137l84 90l137 -139q113 90 271 90q149 0 268 -88l131 137l88 -88l-133 -139q88 -112 88 -275q0 -157 -88 -274l135 -141l-88 -90l-133 141q-117 -86 -273 -86q-164 0 -268 82l-135 -137zM250 659q0 -150 92 -247 t236 -97q139 0 230 96t91 244q0 142 -92 240t-229 98q-142 0 -235 -94.5t-93 -239.5z" />
<glyph unicode="&#xa5;" horiz-adv-x="1284" d="M45 1247v94q117 -2 231 -2q154 0 263 2v-94q-73 -2 -109.5 -8t-45.5 -14.5t-9 -24.5q0 -34 82 -178q34 -60 105.5 -181.5t105.5 -181.5q98 190 221 388q67 114 67 157q0 24 -32 32.5t-119 10.5v94q86 -2 237 -2q111 0 195 2v-94q-69 -3 -98 -26q-17 -11 -40 -45t-91 -142 l-185 -297h264v-90h-317l-59 -100v-55h376v-91h-376v-180q0 -56 8 -80q8 -22 43.5 -32.5t138.5 -14.5v-96q-204 4 -254 4q-86 0 -270 -4v96q103 7 132.5 15.5t39.5 27.5q12 18 12 86v178h-346v91h346v53l-59 102h-287v90h234l-205 357q-6 11 -16.5 28.5t-14.5 25t-11.5 19.5 t-11 17.5t-9 13t-10.5 13t-11 10.5q-29 23 -115 26z" />
<glyph unicode="&#xa6;" horiz-adv-x="530" d="M205 -244v690h119v-690h-119zM205 752v692h119v-692h-119z" />
<glyph unicode="&#xa7;" horiz-adv-x="954" d="M86 662q0 94 59 166.5t168 117.5q-62 65 -88 123.5t-26 124.5q0 119 93 200t253 81q45 0 101 -9t89 -22q60 -25 60 -92q0 -12 -17 -162h-84q-9 73 -20.5 103.5t-34.5 45.5q-36 25 -102 25q-199 0 -199 -152q0 -62 34 -112t138 -144l139 -125q131 -119 176 -192.5 t45 -161.5q0 -86 -59 -164t-180 -137q83 -87 111 -146t28 -126q0 -133 -97.5 -218t-266.5 -85q-134 0 -211 41q-64 37 -64 102t14 154h86q12 -113 64 -154q48 -31 119 -31q105 0 159 42t54 114q0 54 -40 116t-151 175l-172 172q-108 109 -143 180.5t-35 149.5zM221 696 q0 -58 27 -107.5t96 -121.5l96 -100q24 -25 67.5 -67t61.5 -60q162 89 162 190q0 54 -30 112.5t-123 147.5l-107 101q-17 17 -52 45.5t-50 44.5q-67 -33 -107.5 -80.5t-40.5 -104.5z" />
<glyph unicode="&#xa8;" horiz-adv-x="595" d="M41 1274q0 40 27 68t69 28q43 0 69.5 -27.5t26.5 -68.5q0 -43 -27.5 -71.5t-72.5 -28.5q-39 0 -65.5 28t-26.5 72zM365 1274q0 41 27.5 68.5t70.5 27.5q41 0 67.5 -28t26.5 -68q0 -43 -27 -71.5t-71 -28.5q-39 0 -66.5 28.5t-27.5 71.5z" />
<glyph unicode="&#xa9;" horiz-adv-x="1609" d="M84 694q0 196 96 361.5t262.5 261.5t364.5 96q147 0 280 -56.5t229.5 -151.5t153 -227t56.5 -278q0 -152 -56 -288.5t-151.5 -233.5t-227 -154t-278.5 -57q-206 0 -373 95.5t-261.5 262t-94.5 369.5zM176 694q0 -133 49.5 -252.5t134.5 -206t203.5 -137.5t251.5 -51 q128 0 242.5 50t196 135.5t129 204t47.5 251.5q0 181 -79.5 329t-221.5 233t-318 85q-133 0 -251.5 -50t-202.5 -136t-132.5 -204.5t-48.5 -250.5zM377 674q0 212 122.5 335.5t329.5 123.5q128 0 207 -27q64 -24 64 -78q0 -77 -15 -143h-79q-8 88 -27 110q-39 39 -156 39 q-135 0 -220 -89.5t-85 -256.5q0 -173 86 -256.5t219 -83.5q107 0 154 43q21 19 51 103h82q-1 -43 -2 -60.5t-4.5 -45.5t-9 -40t-16.5 -27.5t-27 -24.5t-39 -17q-86 -31 -209 -31q-193 0 -309.5 114.5t-116.5 311.5z" />
<glyph unicode="&#xaa;" horiz-adv-x="702" d="M70 737q0 83 68 128.5t237 45.5q58 0 78 -2v56q0 86 -28.5 113.5t-107.5 27.5q-69 0 -92.5 -22.5t-23.5 -98.5h-72q-14 63 -14 105q0 55 65 79q83 31 162 31q134 0 182 -55q37 -40 37 -148q0 -19 -1 -136.5t-1 -123.5q0 -51 12.5 -70.5t42.5 -19.5q6 0 14.5 1t20 2.5 t17.5 2.5v-73q-55 -25 -113 -25q-33 0 -55 16t-33 58q-36 -34 -87.5 -55t-103.5 -21q-84 0 -144 46.5t-60 137.5zM186 745q0 -50 36.5 -75t82.5 -25q85 0 150 45v144q-25 2 -82 2q-187 0 -187 -91z" />
<glyph unicode="&#xab;" horiz-adv-x="905" d="M70 459q0 40 34 71l334 320l64 -57l-277 -330l275 -340l-64 -62l-336 328q-30 30 -30 70zM416 459q0 34 37 71l331 320l64 -57l-279 -330l279 -340l-66 -62l-336 328q-30 26 -30 70z" />
<glyph unicode="&#xac;" horiz-adv-x="1198" d="M135 569v129h883v-546h-119v417h-764z" />
<glyph unicode="&#xad;" horiz-adv-x="540" d="M57 436v133h420v-133h-420z" />
<glyph unicode="&#xae;" horiz-adv-x="1609" d="M84 694q0 196 96 361.5t262.5 261.5t364.5 96q147 0 280 -56.5t229.5 -151.5t153 -227t56.5 -278q0 -152 -56 -288.5t-151.5 -233.5t-227 -154t-278.5 -57q-206 0 -373 95.5t-261.5 262t-94.5 369.5zM178 694q0 -133 49.5 -252.5t134 -206t202.5 -137.5t251 -51 q128 0 242.5 50t196 135.5t129 204t47.5 251.5q0 181 -79.5 329t-221.5 233t-318 85q-133 0 -251 -50t-201.5 -136t-132 -204.5t-48.5 -250.5zM449 303v80q84 3 100 16q9 6 11.5 19t2.5 55v494q0 59 -8 67q-22 14 -106 19v75h247q132 0 222 -12q95 -15 143.5 -70.5 t48.5 -140.5q0 -180 -188 -237q62 -92 101 -141t79 -83q34 -31 69 -49q27 -12 60 -12v-78q-8 -2 -49 -2q-101 0 -174 59q-48 38 -94 101t-123 186q-85 0 -103 2v-174q0 -42 1.5 -55t8.5 -19q21 -18 107 -20v-80q-118 4 -191 4q-51 0 -165 -4zM688 741q12 0 38 -1t34 -1 q213 0 213 160q0 41 -17.5 68.5t-52 40.5t-70.5 17.5t-88 4.5h-57v-289z" />
<glyph unicode="&#xaf;" horiz-adv-x="595" d="M39 1147v121h520v-121h-520z" />
<glyph unicode="&#xb0;" horiz-adv-x="710" d="M86 1163q0 124 78 198.5t194 74.5q114 0 188.5 -70.5t74.5 -200.5q0 -123 -77 -195.5t-190 -72.5q-117 0 -192.5 70.5t-75.5 195.5zM180 1165q0 -79 46.5 -130.5t127.5 -51.5q83 0 129.5 51t46.5 129q0 85 -46.5 136t-129.5 51q-78 0 -126 -51.5t-48 -133.5z" />
<glyph unicode="&#xb1;" horiz-adv-x="1198" d="M139 0v125h916v-125h-916zM139 692v125h398v422h122v-422h396v-125h-396v-418h-122v418h-398z" />
<glyph unicode="&#xb2;" d="M45 860v76q156 120 247 203.5t145.5 165t54.5 153.5q0 156 -162 156q-100 0 -131 -35q-19 -22 -27 -100h-68q-10 62 -10 108q0 31 15 51t51 39q77 35 190 35q131 0 201 -61t70 -174q0 -237 -404 -512q29 0 110 1t101 1q118 0 141 26q22 29 35 80h68q-9 -125 -17 -164 q-10 -49 -88 -49h-522z" />
<glyph unicode="&#xb3;" d="M84 956q0 47 8 117h72q2 -61 31 -90q41 -41 137 -41q99 0 147.5 40t48.5 112q0 63 -49 102t-149 45q-31 2 -97 2v88q62 4 99 8q80 12 121 53t41 99q0 55 -34 89t-108 34q-89 0 -131 -33q-25 -19 -31 -94h-69q-8 62 -8 100q0 61 57 86q85 39 192 39q131 0 192.5 -56 t61.5 -147q0 -75 -46.5 -130.5t-147.5 -80.5q114 -10 172.5 -62.5t58.5 -141.5q0 -120 -85.5 -185t-239.5 -65q-103 0 -181 24q-63 25 -63 88z" />
<glyph unicode="&#xb4;" horiz-adv-x="604" d="M123 1122l180 287q33 52 54 69t49 17q26 0 49.5 -20.5t23.5 -47.5q0 -26 -14.5 -50t-48.5 -60l-238 -242z" />
<glyph unicode="&#xb5;" horiz-adv-x="1202" d="M74 811v86q105 61 202 61q51 0 75 -29t24 -110q0 -15 -1 -211.5t-1 -279.5q0 -118 43.5 -170t156.5 -52q72 0 150 27t137 70v448q0 113 -31 144q-23 20 -81 20q-34 0 -66 -4v86q53 33 113.5 47t103.5 14q50 0 75 -31t25 -116q0 -1 -4 -230t-4 -350q0 -77 20 -104t72 -27 q32 0 78 11v-95q-65 -32 -160 -32q-120 0 -139 131q-140 -140 -321 -140q-42 0 -96 22.5t-76 55.5q24 -422 24 -461q0 -88 -80 -88q-42 0 -58.5 22t-16.5 64v1061q0 97 -18 130.5t-87 33.5q-9 0 -31 -2t-28 -2z" />
<glyph unicode="&#xb6;" horiz-adv-x="1114" d="M109 866q0 231 161 374.5t445 143.5h336v-94q-85 -3 -116 -9t-44 -19q-12 -13 -15.5 -43t-3.5 -99q0 -174 3.5 -451t3.5 -390q0 -323 -29 -439q-65 -257 -406 -356l-24 92q163 63 231.5 152.5t79.5 224.5q12 143 12 373v43q-25 -2 -71 -2q-92 0 -174 17.5t-154 56 t-123.5 95.5t-81.5 141.5t-30 188.5z" />
<glyph unicode="&#xb7;" horiz-adv-x="434" d="M92 500q0 55 35.5 91t87.5 36q55 0 91 -34t36 -87q0 -61 -35 -97t-90 -36q-53 0 -89 36t-36 91z" />
<glyph unicode="&#xb8;" horiz-adv-x="595" d="M123 -473q111 23 164 56.5t53 90.5q0 33 -22 58t-70 51q-39 22 -39 59q0 43 49 168h78q-33 -78 -33 -100q0 -30 33 -47q76 -39 107.5 -77t31.5 -93q0 -103 -90 -164t-242 -84z" />
<glyph unicode="&#xb9;" d="M156 1618q78 44 176 80q48 16 63 16q51 0 51 -65q0 -25 -1 -119t-1 -160v-352q0 -52 11 -66q11 -13 133 -22v-72q-114 4 -209 4q-87 0 -201 -4v72q114 8 133 24q13 13 13 66v348q0 116 -7 174q-3 33 -32 33q-27 0 -109 -25z" />
<glyph unicode="&#xba;" horiz-adv-x="817" d="M86 874q0 151 85.5 238.5t227.5 87.5q149 0 222 -82.5t73 -230.5q0 -160 -85.5 -247t-221.5 -87q-147 0 -224 88t-77 233zM203 887q0 -236 186 -236q92 0 140.5 56t48.5 167q0 119 -46 174.5t-137 55.5q-95 0 -143.5 -56t-48.5 -161z" />
<glyph unicode="&#xbb;" horiz-adv-x="905" d="M57 119l277 327l-277 342l66 62l336 -330q30 -26 30 -71q0 -39 -36 -70l-332 -318zM403 119l279 327l-276 342l63 62l336 -330q33 -33 33 -71q0 -33 -37 -70l-332 -318z" />
<glyph unicode="&#xbc;" horiz-adv-x="1687" d="M143 1276q58 30 176 80q42 14 64 14q51 0 51 -63q0 -25 -1 -119t-1 -160v-352q0 -53 10 -68q11 -14 133 -20v-74q-171 6 -208 6q-3 0 -201 -6v74q113 5 133 22q12 12 12 68v348q0 126 -6 172q-3 33 -33 33q-32 0 -108 -23zM494 18l591 1364l89 -34l-594 -1368zM872 223 v68l365 504q25 33 42.5 46t47.5 13q26 0 44 -18t18 -58q0 -29 -1.5 -95t-1.5 -87v-272h134v-101h-134v-61q0 -55 9 -70q17 -21 118 -26v-68q-106 4 -198 4q-64 0 -174 -4v68q99 8 114 26q13 13 13 72v59h-396zM991 319h277q0 204 4 396z" />
<glyph unicode="&#xbd;" horiz-adv-x="1687" d="M125 1276q58 30 176 80q42 14 64 14q51 0 51 -63q0 -25 -1 -119t-1 -160v-352q0 -53 10 -68q11 -14 133 -20v-74q-171 6 -209 6q-3 0 -201 -6v74q114 5 134 22q12 12 12 68v348q0 126 -6 172q-3 33 -33 33q-33 0 -109 -23zM473 18l592 1364l88 -34l-594 -1368zM952 0v76 q156 120 247 203.5t145.5 165t54.5 153.5q0 156 -162 156q-99 0 -131 -35q-19 -22 -27 -101h-67q-11 68 -11 109q0 31 15 51t51 39q77 35 190 35q131 0 201 -61.5t70 -174.5q0 -237 -404 -512q29 0 110 1t101 1q118 0 142 27q20 27 34 80h68q-9 -133 -16 -164 q-10 -49 -88 -49h-523z" />
<glyph unicode="&#xbe;" horiz-adv-x="1687" d="M123 614q0 43 8 117h72q3 -67 30 -90q43 -43 138 -43q99 0 147.5 40t48.5 112q0 130 -198 147q-62 4 -97 4v88q3 0 39.5 2t57.5 4q80 12 121.5 54t41.5 100q0 53 -33.5 87t-107.5 34q-91 0 -131 -31q-25 -22 -31 -94h-69q-8 62 -8 98q0 33 12.5 53t44.5 33q85 39 192 39 q131 0 192.5 -55t61.5 -148q0 -160 -194 -211q114 -9 172.5 -61.5t58.5 -142.5q0 -120 -85.5 -185t-239.5 -65q-109 0 -181 26q-63 22 -63 88zM547 18l592 1364l88 -34l-594 -1368zM903 223v68l365 504q25 33 42.5 46t47.5 13q26 0 43.5 -18t17.5 -58q0 -29 -1 -95t-1 -87 v-272h133v-101h-133v-61q0 -57 8 -70q17 -21 119 -26v-68q-106 4 -198 4q-65 0 -175 -4v68q100 8 115 26q12 12 12 72v59h-395zM1022 319h276q0 156 5 396z" />
<glyph unicode="&#xbf;" horiz-adv-x="847" d="M33 -70q0 124 69.5 219t241.5 187q63 34 74 115q7 55 10 141h80q16 -154 16 -201q0 -53 -29.5 -86.5t-88.5 -64.5q-207 -113 -207 -293q0 -32 4 -59.5t17 -59.5t34 -54.5t59 -38t88 -16.5q44 0 71.5 2t53.5 9t40.5 19t26 33t16 50t5.5 72h91q18 -97 18 -150 q0 -37 -21.5 -65t-54.5 -44.5t-79 -26.5t-87 -13.5t-86 -3.5q-181 1 -271.5 85.5t-90.5 243.5zM334 915q0 61 34 96.5t87 35.5q54 0 89.5 -35t35.5 -90t-35 -91t-88 -36q-26 0 -48.5 8.5t-39 24t-26 38t-9.5 49.5z" />
<glyph unicode="&#xc0;" horiz-adv-x="1435" d="M10 -2v96q110 6 144 33q19 13 32 40.5t47 119.5l396 1056q15 41 37.5 58.5t58.5 17.5q32 0 53 -16t35 -57l406 -1086q24 -66 38.5 -94t34.5 -43q29 -26 133 -29v-96q-144 4 -264 4q-132 0 -276 -4v96q103 5 141 15q47 11 47 47q0 42 -29 125l-83 221h-521l-78 -211 q-30 -88 -30 -131q0 -33 24 -45q24 -9 166 -21v-96q-132 4 -270 4q-116 0 -242 -4zM451 1767q0 30 21.5 52t49.5 22q24 0 46.5 -13.5t60.5 -51.5l237 -248l-47 -55l-284 188q-84 58 -84 106zM477 616h445q-196 527 -224 613q-60 -174 -221 -613z" />
<glyph unicode="&#xc1;" horiz-adv-x="1435" d="M10 -2v96q110 6 144 33q19 13 32 40.5t47 119.5l396 1056q15 41 37.5 58.5t58.5 17.5q32 0 53 -16t35 -57l406 -1086q24 -66 38.5 -94t34.5 -43q29 -26 133 -29v-96q-144 4 -264 4q-132 0 -276 -4v96q103 5 141 15q47 11 47 47q0 42 -29 125l-83 221h-521l-78 -211 q-30 -88 -30 -131q0 -33 24 -45q24 -9 166 -21v-96q-132 4 -270 4q-116 0 -242 -4zM477 616h445q-196 527 -224 613q-60 -174 -221 -613zM553 1526l238 248q38 38 60.5 51.5t45.5 13.5q28 0 50 -22t22 -52q0 -48 -84 -106l-285 -189z" />
<glyph unicode="&#xc2;" horiz-adv-x="1435" d="M10 -2v96q110 6 144 33q19 13 32 40.5t47 119.5l396 1056q15 41 37.5 58.5t58.5 17.5q32 0 53 -16t35 -57l406 -1086q24 -66 38.5 -94t34.5 -43q29 -26 133 -29v-96q-144 4 -264 4q-132 0 -276 -4v96q103 5 141 15q47 11 47 47q0 42 -29 125l-83 221h-521l-78 -211 q-30 -88 -30 -131q0 -33 24 -45q24 -9 166 -21v-96q-132 4 -270 4q-116 0 -242 -4zM416 1513l233 277q33 41 70 41q41 0 76 -43l221 -275l-55 -49l-248 207l-248 -207zM477 616h445q-196 527 -224 613q-60 -174 -221 -613z" />
<glyph unicode="&#xc3;" horiz-adv-x="1435" d="M10 -2v96q110 6 144 33q19 13 32 40.5t47 119.5l396 1056q15 41 37.5 58.5t58.5 17.5q32 0 53 -16t35 -57l406 -1086q24 -66 38.5 -94t34.5 -43q29 -26 133 -29v-96q-144 4 -264 4q-132 0 -276 -4v96q103 5 141 15q47 11 47 47q0 42 -29 125l-83 221h-521l-78 -211 q-30 -88 -30 -131q0 -33 24 -45q24 -9 166 -21v-96q-132 4 -270 4q-116 0 -242 -4zM410 1526q24 92 70 152.5t110 60.5q39 0 115 -31l59 -25q61 -28 92 -28q50 0 100 110l72 -24q-58 -217 -166 -217q-49 0 -139 37l-51 20q-59 23 -88 23q-33 0 -54 -22t-53 -81zM477 616h445 q-196 527 -224 613q-60 -174 -221 -613z" />
<glyph unicode="&#xc4;" horiz-adv-x="1435" d="M10 -2v96q110 6 144 33q19 13 32 40.5t47 119.5l396 1056q15 41 37.5 58.5t58.5 17.5q32 0 53 -16t35 -57l406 -1086q24 -66 38.5 -94t34.5 -43q29 -26 133 -29v-96q-144 4 -264 4q-132 0 -276 -4v96q103 5 141 15q47 11 47 47q0 42 -29 125l-83 221h-521l-78 -211 q-30 -88 -30 -131q0 -33 24 -45q24 -9 166 -21v-96q-132 4 -270 4q-116 0 -242 -4zM434 1620q0 42 27 69t69 27q44 0 70.5 -27t26.5 -69q0 -41 -28 -70.5t-71 -29.5q-40 0 -67 28.5t-27 71.5zM477 616h445q-196 527 -224 613q-60 -174 -221 -613zM786 1620q0 41 28 68.5 t71 27.5q42 0 69 -27t27 -69q0 -41 -27.5 -70.5t-70.5 -29.5q-40 0 -68.5 29t-28.5 71z" />
<glyph unicode="&#xc5;" horiz-adv-x="1435" d="M10 -2v96q110 6 144 33q19 13 32 40.5t47 119.5l396 1056q15 41 37.5 58.5t58.5 17.5q32 0 53 -16t35 -57l406 -1086q24 -66 38.5 -94t34.5 -43q29 -26 133 -29v-96q-144 4 -264 4q-132 0 -276 -4v96q103 5 141 15q47 11 47 47q0 42 -29 125l-83 221h-521l-78 -211 q-30 -88 -30 -131q0 -33 24 -45q24 -9 166 -21v-96q-132 4 -270 4q-116 0 -242 -4zM477 616h445q-196 527 -224 613q-60 -174 -221 -613zM530 1636q0 80 56 134.5t133 54.5q83 0 135.5 -51.5t52.5 -133.5q0 -83 -55 -136.5t-135 -53.5q-79 0 -133 51t-54 135zM610 1640 q0 -53 29.5 -84.5t77.5 -31.5q49 0 78.5 30t29.5 86q0 54 -30.5 82.5t-77.5 28.5q-45 0 -76 -29t-31 -82z" />
<glyph unicode="&#xc6;" horiz-adv-x="2011" d="M10 -2v96q116 6 150 33q47 42 119 152l561 856q45 67 45 106q0 33 -49 41q-67 8 -148 10v92h1045q72 0 98.5 -25t26.5 -73q0 -44 -19 -225h-88q-15 149 -51 174q-25 19 -75.5 25t-180.5 6h-227v-490h163q88 0 121.5 6.5t50.5 28.5q30 34 39 127h86q-2 -53 -2 -213 q0 -137 2 -221h-82q-10 88 -39 129q-16 21 -53 26t-127 5h-159v-453q0 -44 13 -63.5t44 -22.5q68 -8 194 -8q145 0 208.5 13t90.5 42q40 40 82 180h84q-3 -205 -35 -295q-20 -57 -153 -57h-860v94q105 7 139 19q11 4 19 10.5t12.5 16.5t7.5 18.5t4 25t1 27t-0.5 33 t-0.5 35.5v237h-483l-152 -231q-20 -30 -29 -45.5t-17.5 -38.5t-8.5 -43q0 -21 12 -34t45.5 -19t49 -7.5t64.5 -2.5q15 -1 23 -1v-96q-200 4 -288 4q-85 0 -273 -4zM649 629h418v608q0 18 -12 18q-2 0 -3.5 -0.5l-3 -1t-3 -2l-2.5 -2.5t-2.5 -3.5t-3 -4.5t-3.5 -5.5t-4 -6.5 q-113 -185 -381 -600z" />
<glyph unicode="&#xc7;" horiz-adv-x="1372" d="M104 668q0 347 197 548t524 201q200 0 324 -47q51 -19 73.5 -47t22.5 -72q0 -94 -18 -213h-90q-10 143 -47 185q-30 30 -103.5 48.5t-177.5 18.5q-114 0 -212.5 -39.5t-173 -113.5t-117 -189.5t-42.5 -259.5q0 -122 28.5 -221t78.5 -167t119 -114t149 -67t170 -21 q97 0 169 21t107 51q42 36 84 170h91q-3 -133 -23 -209q-25 -86 -125 -115q-142 -45 -328 -45h-30q-17 -49 -17 -67q0 -32 35 -51q81 -39 113.5 -77.5t32.5 -97.5q0 -75 -47 -130.5t-122 -86t-180 -45.5l-20 84q117 27 172 61.5t55 94.5q0 35 -23.5 61t-72.5 54 q-41 24 -41 65q0 51 37 141q-261 32 -416.5 211t-155.5 480z" />
<glyph unicode="&#xc8;" horiz-adv-x="1210" d="M76 0v94q145 8 170 33q12 12 15 38.5t3 92.5v879q0 103 -12 120q-10 15 -46 22t-130 13v92h856q71 0 97 -25t26 -73q0 -82 -15 -225h-90q-15 149 -51 174q-25 19 -76 25t-182 6h-225v-490h162q90 0 123.5 6.5t50.5 28.5q30 34 36 127h89q-3 -79 -3 -213q0 -95 3 -221h-82 q-10 88 -39 129q-16 21 -53.5 26t-129.5 5h-157v-453q0 -44 13 -63.5t44 -22.5q68 -8 195 -8q145 0 208.5 13t90.5 42q39 41 80 180h86q-3 -205 -35 -295q-9 -27 -50.5 -42t-105.5 -15h-866zM326 1765q0 30 21.5 52t49.5 22q24 0 46.5 -13.5t60.5 -51.5l237 -248l-47 -56 l-284 189q-84 58 -84 106z" />
<glyph unicode="&#xc9;" horiz-adv-x="1210" d="M76 0v94q145 8 170 33q12 12 15 38.5t3 92.5v879q0 103 -12 120q-10 15 -46 22t-130 13v92h856q71 0 97 -25t26 -73q0 -82 -15 -225h-90q-15 149 -51 174q-25 19 -76 25t-182 6h-225v-490h162q90 0 123.5 6.5t50.5 28.5q30 34 36 127h89q-3 -79 -3 -213q0 -95 3 -221h-82 q-10 88 -39 129q-16 21 -53.5 26t-129.5 5h-157v-453q0 -44 13 -63.5t44 -22.5q68 -8 195 -8q145 0 208.5 13t90.5 42q39 41 80 180h86q-3 -205 -35 -295q-9 -27 -50.5 -42t-105.5 -15h-866zM444 1526l238 248q38 38 60.5 51.5t45.5 13.5q28 0 50 -22t22 -52q0 -48 -84 -106 l-284 -189z" />
<glyph unicode="&#xca;" horiz-adv-x="1210" d="M76 0v94q145 8 170 33q12 12 15 38.5t3 92.5v879q0 103 -12 120q-10 15 -46 22t-130 13v92h856q71 0 97 -25t26 -73q0 -82 -15 -225h-90q-15 149 -51 174q-25 19 -76 25t-182 6h-225v-490h162q90 0 123.5 6.5t50.5 28.5q30 34 36 127h89q-3 -79 -3 -213q0 -95 3 -221h-82 q-10 88 -39 129q-16 21 -53.5 26t-129.5 5h-157v-453q0 -44 13 -63.5t44 -22.5q68 -8 195 -8q145 0 208.5 13t90.5 42q39 41 80 180h86q-3 -205 -35 -295q-9 -27 -50.5 -42t-105.5 -15h-866zM299 1513l233 277q33 41 70 41q41 0 76 -43l221 -275l-55 -49l-248 207l-248 -207 z" />
<glyph unicode="&#xcb;" horiz-adv-x="1210" d="M76 0v94q145 8 170 33q12 12 15 38.5t3 92.5v879q0 103 -12 120q-10 15 -46 22t-130 13v92h856q71 0 97 -25t26 -73q0 -82 -15 -225h-90q-15 149 -51 174q-25 19 -76 25t-182 6h-225v-490h162q90 0 123.5 6.5t50.5 28.5q30 34 36 127h89q-3 -79 -3 -213q0 -95 3 -221h-82 q-10 88 -39 129q-16 21 -53.5 26t-129.5 5h-157v-453q0 -44 13 -63.5t44 -22.5q68 -8 195 -8q145 0 208.5 13t90.5 42q39 41 80 180h86q-3 -205 -35 -295q-9 -27 -50.5 -42t-105.5 -15h-866zM334 1622q0 42 27 69t69 27q44 0 70 -27t26 -69q0 -41 -27.5 -70.5t-70.5 -29.5 q-40 0 -67 28.5t-27 71.5zM686 1622q0 41 27.5 68.5t70.5 27.5q42 0 69.5 -27t27.5 -69q0 -41 -28 -70.5t-71 -29.5q-40 0 -68 29t-28 71z" />
<glyph unicode="&#xcc;" horiz-adv-x="681" d="M76 -2v96q86 6 124 13.5t50 21.5q9 9 11.5 33t2.5 96v877q0 103 -14 122q-16 22 -174 35v94q234 -6 254 -6q12 0 276 6v-94q-94 -7 -130 -15.5t-46 -21.5q-14 -22 -14 -118v-877q0 -110 14 -127q20 -29 176 -39v-96q-176 4 -268 4q-90 0 -262 -4zM84 1765q0 30 22 52 t50 22q23 0 45.5 -13.5t60.5 -51.5l238 -248l-47 -56l-285 189q-84 58 -84 106z" />
<glyph unicode="&#xcd;" horiz-adv-x="681" d="M76 -2v96q86 6 124 13.5t50 21.5q9 9 11.5 33t2.5 96v877q0 103 -14 122q-16 22 -174 35v94q234 -6 254 -6q12 0 276 6v-94q-94 -7 -130 -15.5t-46 -21.5q-14 -22 -14 -118v-877q0 -110 14 -127q20 -29 176 -39v-96q-176 4 -268 4q-90 0 -262 -4zM168 1526l238 248 q38 38 60.5 51.5t45.5 13.5q28 0 50 -22t22 -52q0 -48 -84 -106l-285 -189z" />
<glyph unicode="&#xce;" horiz-adv-x="681" d="M41 1513l233 277q33 41 70 41q41 0 76 -43l221 -275l-55 -49l-248 207l-248 -207zM76 -2v96q86 6 124 13.5t50 21.5q9 9 11.5 33t2.5 96v877q0 103 -14 122q-16 22 -174 35v94q234 -6 254 -6q12 0 276 6v-94q-94 -7 -130 -15.5t-46 -21.5q-14 -22 -14 -118v-877 q0 -110 14 -127q20 -29 176 -39v-96q-176 4 -268 4q-90 0 -262 -4z" />
<glyph unicode="&#xcf;" horiz-adv-x="681" d="M66 1622q0 42 27 69t69 27q44 0 70 -27t26 -69q0 -41 -27.5 -70.5t-70.5 -29.5q-40 0 -67 28.5t-27 71.5zM76 -2v96q86 6 124 13.5t50 21.5q9 9 11.5 33t2.5 96v877q0 103 -14 122q-16 22 -174 35v94q234 -6 254 -6q12 0 276 6v-94q-94 -7 -130 -15.5t-46 -21.5 q-14 -22 -14 -118v-877q0 -110 14 -127q20 -29 176 -39v-96q-176 4 -268 4q-90 0 -262 -4zM418 1622q0 41 27.5 68.5t70.5 27.5q42 0 69 -27t27 -69q0 -41 -27.5 -70.5t-70.5 -29.5q-40 0 -68 29t-28 71z" />
<glyph unicode="&#xd0;" horiz-adv-x="1464" d="M66 672v106h198v359q0 93 -8 114q-10 21 -44 28t-136 13v92h332q311 0 457.5 -23.5t246.5 -86.5q129 -81 188.5 -217.5t59.5 -337.5q0 -411 -258 -594q-92 -65 -218.5 -95t-334.5 -30h-473v94q89 4 125.5 10.5t48.5 20.5q9 12 11.5 34.5t2.5 86.5v426h-198zM416 205 q0 -37 12 -51.5t45 -22.5q69 -14 174 -14q267 0 409 151.5t142 440.5q0 181 -64 305t-182 182q-143 70 -401 70h-135v-488h395v-106h-395v-467z" />
<glyph unicode="&#xd1;" horiz-adv-x="1503" d="M66 1292v94q90 -4 221 -4q75 0 147 4q617 -915 748 -1132q-5 154 -9 487.5t-4 337.5q-5 150 -18 174q-17 31 -174 39v94q200 -4 258 -4q30 0 248 4v-94q-87 -6 -119.5 -13t-48.5 -22q-12 -14 -16.5 -49t-4.5 -129q-2 -195 -2 -692q0 -49 1 -170.5t1 -159.5q0 -73 -71 -73 q-49 0 -76 45q-255 390 -437 666t-238 360.5t-85 130.5q1 -121 3.5 -330.5t4.5 -369t2 -183.5q0 -95 3.5 -128t15.5 -46q12 -15 49.5 -23t128.5 -14v-94q-222 4 -264 4q-54 0 -262 -4v94q166 8 186 41q4 6 6 14.5t3 25.5t1.5 30.5t1.5 46.5t2 57q4 102 4 772q0 133 -14 158 q-17 33 -63 43q-62 12 -129 12zM473 1526q24 92 70 152.5t110 60.5q39 0 115 -31l59 -25q61 -28 93 -28q50 0 100 110l72 -24q-58 -217 -166 -217q-50 0 -140 37l-51 20q-59 23 -88 23q-33 0 -53.5 -21.5t-52.5 -81.5z" />
<glyph unicode="&#xd2;" horiz-adv-x="1490" d="M104 686q0 339 178.5 534t475.5 195q321 0 474.5 -183.5t153.5 -516.5q0 -185 -49.5 -329t-137 -233.5t-203 -135.5t-251.5 -46q-160 0 -283 52t-201 147.5t-117.5 225.5t-39.5 290zM264 715q0 -617 486 -617q228 0 351.5 156t123.5 446q0 305 -118.5 447.5t-354.5 142.5 q-235 0 -361.5 -155t-126.5 -420zM481 1765q0 30 22 52t50 22q23 0 45.5 -13.5t60.5 -51.5l238 -248l-47 -56l-285 189q-84 58 -84 106z" />
<glyph unicode="&#xd3;" horiz-adv-x="1490" d="M104 686q0 339 178.5 534t475.5 195q321 0 474.5 -183.5t153.5 -516.5q0 -185 -49.5 -329t-137 -233.5t-203 -135.5t-251.5 -46q-160 0 -283 52t-201 147.5t-117.5 225.5t-39.5 290zM264 715q0 -617 486 -617q228 0 351.5 156t123.5 446q0 305 -118.5 447.5t-354.5 142.5 q-235 0 -361.5 -155t-126.5 -420zM598 1526l238 248q38 38 60.5 51.5t45.5 13.5q28 0 50 -22t22 -52q0 -48 -84 -106l-285 -189z" />
<glyph unicode="&#xd4;" horiz-adv-x="1490" d="M104 686q0 339 178.5 534t475.5 195q321 0 474.5 -183.5t153.5 -516.5q0 -185 -49.5 -329t-137 -233.5t-203 -135.5t-251.5 -46q-160 0 -283 52t-201 147.5t-117.5 225.5t-39.5 290zM264 715q0 -617 486 -617q228 0 351.5 156t123.5 446q0 305 -118.5 447.5t-354.5 142.5 q-235 0 -361.5 -155t-126.5 -420zM457 1513l233 277q33 41 70 41q41 0 76 -43l221 -275l-56 -49l-247 207l-248 -207z" />
<glyph unicode="&#xd5;" horiz-adv-x="1490" d="M104 686q0 339 178.5 534t475.5 195q321 0 474.5 -183.5t153.5 -516.5q0 -185 -49.5 -329t-137 -233.5t-203 -135.5t-251.5 -46q-160 0 -283 52t-201 147.5t-117.5 225.5t-39.5 290zM264 715q0 -617 486 -617q228 0 351.5 156t123.5 446q0 305 -118.5 447.5t-354.5 142.5 q-235 0 -361.5 -155t-126.5 -420zM442 1526q24 92 70.5 152.5t110.5 60.5q38 0 114 -31l60 -25q61 -28 92 -28q50 0 100 110l72 -24q-58 -217 -166 -217q-49 0 -139 37l-51 20q-59 23 -89 23q-33 0 -53.5 -21.5t-52.5 -81.5z" />
<glyph unicode="&#xd6;" horiz-adv-x="1490" d="M104 686q0 339 178.5 534t475.5 195q321 0 474.5 -183.5t153.5 -516.5q0 -185 -49.5 -329t-137 -233.5t-203 -135.5t-251.5 -46q-160 0 -283 52t-201 147.5t-117.5 225.5t-39.5 290zM264 715q0 -617 486 -617q228 0 351.5 156t123.5 446q0 305 -118.5 447.5t-354.5 142.5 q-235 0 -361.5 -155t-126.5 -420zM479 1622q0 42 27 69t69 27q44 0 70.5 -27t26.5 -69q0 -41 -28 -70.5t-71 -29.5q-40 0 -67 28.5t-27 71.5zM831 1622q0 41 28 68.5t71 27.5q42 0 69 -27t27 -69q0 -41 -27.5 -70.5t-70.5 -29.5q-40 0 -68.5 29t-28.5 71z" />
<glyph unicode="&#xd7;" horiz-adv-x="1183" d="M201 967l86 94l307 -324l301 326l84 -86l-303 -330l305 -330l-86 -90l-303 322l-305 -324l-84 88l305 328z" />
<glyph unicode="&#xd8;" horiz-adv-x="1490" d="M104 686q0 339 178.5 534t475.5 195q214 0 362 -90l109 154l84 -60l-111 -155q184 -178 184 -549q0 -185 -49.5 -329t-137 -233.5t-203 -135.5t-251.5 -46q-227 0 -378 105l-115 -162l-84 59l119 168q-183 189 -183 545zM264 715q0 -298 111 -449l665 944 q-113 82 -288 82q-235 0 -361.5 -156t-126.5 -421zM446 188q117 -92 304 -92q227 0 351 157t124 447q0 295 -111 439z" />
<glyph unicode="&#xd9;" horiz-adv-x="1542" d="M57 1292v94q160 -4 271 -4q108 0 268 4v-94q-96 -6 -132 -14t-48 -23q-14 -19 -17 -110q-4 -145 -4 -512q0 -265 35 -357q69 -178 358 -178q109 0 199.5 36t126.5 97q39 64 53.5 164t14.5 258q0 256 -8 480q-1 68 -6 94t-17 35q-26 18 -168 30v94q76 -2 250 -2 q21 0 118.5 1t135.5 1v-94q-164 -10 -178 -45q-11 -28 -11 -131v-500q0 -194 -24.5 -305t-83.5 -182q-127 -160 -434 -160q-158 0 -273.5 51t-167.5 138q-40 68 -56.5 166t-16.5 303q0 97 2 276.5t2 233.5q0 86 -13 112q-11 19 -49.5 29t-126.5 14zM489 1765q0 30 22 52 t50 22q24 0 46.5 -13.5t60.5 -51.5l237 -248l-47 -56l-285 189q-84 58 -84 106z" />
<glyph unicode="&#xda;" horiz-adv-x="1542" d="M57 1292v94q160 -4 271 -4q108 0 268 4v-94q-96 -6 -132 -14t-48 -23q-14 -19 -17 -110q-4 -145 -4 -512q0 -265 35 -357q69 -178 358 -178q109 0 199.5 36t126.5 97q39 64 53.5 164t14.5 258q0 256 -8 480q-1 68 -6 94t-17 35q-26 18 -168 30v94q76 -2 250 -2 q21 0 118.5 1t135.5 1v-94q-164 -10 -178 -45q-11 -28 -11 -131v-500q0 -194 -24.5 -305t-83.5 -182q-127 -160 -434 -160q-158 0 -273.5 51t-167.5 138q-40 68 -56.5 166t-16.5 303q0 97 2 276.5t2 233.5q0 86 -13 112q-11 19 -49.5 29t-126.5 14zM629 1526l237 248 q38 38 60.5 51.5t46.5 13.5q28 0 49.5 -22t21.5 -52q0 -49 -83 -106l-285 -189z" />
<glyph unicode="&#xdb;" horiz-adv-x="1542" d="M57 1292v94q160 -4 271 -4q108 0 268 4v-94q-96 -6 -132 -14t-48 -23q-14 -19 -17 -110q-4 -145 -4 -512q0 -265 35 -357q69 -178 358 -178q109 0 199.5 36t126.5 97q39 64 53.5 164t14.5 258q0 256 -8 480q-1 68 -6 94t-17 35q-26 18 -168 30v94q76 -2 250 -2 q21 0 118.5 1t135.5 1v-94q-164 -10 -178 -45q-11 -28 -11 -131v-500q0 -194 -24.5 -305t-83.5 -182q-127 -160 -434 -160q-158 0 -273.5 51t-167.5 138q-40 68 -56.5 166t-16.5 303q0 97 2 276.5t2 233.5q0 86 -13 112q-11 19 -49.5 29t-126.5 14zM446 1513l234 277 q33 41 70 41q40 0 75 -43l222 -275l-56 -49l-248 207l-247 -207z" />
<glyph unicode="&#xdc;" horiz-adv-x="1542" d="M57 1292v94q160 -4 271 -4q108 0 268 4v-94q-96 -6 -132 -14t-48 -23q-14 -19 -17 -110q-4 -145 -4 -512q0 -265 35 -357q69 -178 358 -178q109 0 199.5 36t126.5 97q39 64 53.5 164t14.5 258q0 256 -8 480q-1 68 -6 94t-17 35q-26 18 -168 30v94q76 -2 250 -2 q21 0 118.5 1t135.5 1v-94q-164 -10 -178 -45q-11 -28 -11 -131v-500q0 -194 -24.5 -305t-83.5 -182q-127 -160 -434 -160q-158 0 -273.5 51t-167.5 138q-40 68 -56.5 166t-16.5 303q0 97 2 276.5t2 233.5q0 86 -13 112q-11 19 -49.5 29t-126.5 14zM481 1622q0 42 27.5 69 t69.5 27q44 0 70 -27t26 -69q0 -41 -28 -70.5t-71 -29.5q-40 0 -67 28.5t-27 71.5zM834 1622q0 41 27.5 68.5t70.5 27.5q42 0 69 -27t27 -69q0 -41 -27.5 -70.5t-70.5 -29.5q-40 0 -68 29t-28 71z" />
<glyph unicode="&#xdd;" horiz-adv-x="1253" d="M8 1292v94q234 -4 246 -4q46 0 254 4v-94q-75 -2 -113 -10t-46.5 -17.5t-8.5 -27.5q0 -27 45 -104q149 -254 260 -457q169 292 273 467q40 64 40 102q0 25 -33 35.5t-130 11.5v94q98 -4 256 -4q106 0 192 4v-94q-57 -3 -96 -30q-27 -21 -90 -119l-357 -572v-340 q0 -82 9 -100t44.5 -25.5t139.5 -11.5v-96q-218 4 -258 4q-73 0 -273 -4v96q101 4 132.5 10.5t40.5 22.5q12 19 12 104v338l-334 557q-11 18 -26.5 45t-21.5 37.5t-15.5 24t-16 20t-14.5 11.5q-36 23 -111 28zM530 1526l238 248q38 38 60.5 51.5t45.5 13.5q28 0 50 -22 t22 -52q0 -48 -84 -106l-284 -189z" />
<glyph unicode="&#xde;" horiz-adv-x="1171" d="M76 -2v96q93 6 127.5 12.5t46.5 20.5q9 10 11.5 34.5t2.5 96.5v879q0 101 -14 120q-16 22 -174 35v94q234 -6 254 -6q12 0 276 6v-94q-96 -7 -131.5 -15t-44.5 -22q-14 -20 -14 -106v-37h86q178 0 284 -18q166 -26 243 -121t77 -236q0 -434 -561 -434q-84 0 -129 2v-59 q0 -101 14 -115q21 -27 180 -37v-96q-176 4 -274 4q-88 0 -260 -4zM416 412q33 -2 98 -2q50 0 88.5 2t85 10t81 21.5t68.5 37.5t56 56.5t35.5 81.5t13.5 110q0 207 -197 250q-123 25 -237 25h-92v-592z" />
<glyph unicode="&#xdf;" horiz-adv-x="1185" d="M63 807v80q109 26 142 67q8 11 16.5 38.5t9.5 49.5q6 150 35.5 235.5t89.5 147.5q54 55 129 79t150 24q150 0 238 -78t88 -197q0 -88 -41 -158t-115 -143q-75 -71 -99 -104t-24 -60q0 -40 51 -79q23 -19 111 -86t135 -111q108 -105 108 -229q0 -149 -96 -230.5 t-256 -81.5q-98 0 -186 37q-43 20 -58.5 51.5t-15.5 77.5q0 49 4 119h84q13 -96 60 -133q45 -35 131 -35q88 0 140 43t52 125q0 91 -86 162q-40 34 -120 96.5t-115 91.5q-82 65 -82 152t94 178q62 58 95.5 94.5t62 90.5t28.5 106q0 91 -56.5 138.5t-150.5 47.5 q-104 0 -165 -64t-70 -169q-12 -129 -12 -322v-594q0 -94 8 -266q-74 4 -109 4q-76 0 -198 -4v94q123 6 145 31q18 23 18 108v576h-170z" />
<glyph unicode="&#xe0;" horiz-adv-x="1044" d="M100 256q0 48 12 86t43.5 73t82 58t131.5 37t188 14q98 0 131 -4v96q0 123 -29 168q-42 66 -184 66q-109 0 -158 -43q-35 -28 -41 -145h-88q-18 97 -18 151q0 44 25.5 72.5t76.5 46.5q101 37 232 37q195 0 264 -82q31 -36 43 -85.5t12 -135.5q0 -21 -1 -218t-1 -208 q0 -82 20.5 -111t71.5 -29q29 0 82 11v-95q-66 -32 -149 -32q-118 0 -144 118q-113 -125 -286 -125q-83 0 -152.5 28.5t-116.5 93.5t-47 157zM244 268q0 -89 58 -130.5t140 -41.5q70 0 135 25.5t111 62.5v232q-74 4 -139 4q-89 0 -151 -11.5t-94.5 -33.5t-46 -47.5 t-13.5 -59.5zM246 1427q0 27 24.5 47.5t51.5 20.5t47 -17t53 -69l180 -287l-57 -47l-236 242q-34 36 -48.5 60t-14.5 50z" />
<glyph unicode="&#xe1;" horiz-adv-x="1044" d="M100 256q0 48 12 86t43.5 73t82 58t131.5 37t188 14q98 0 131 -4v96q0 123 -29 168q-42 66 -184 66q-109 0 -158 -43q-35 -28 -41 -145h-88q-18 97 -18 151q0 44 25.5 72.5t76.5 46.5q101 37 232 37q195 0 264 -82q31 -36 43 -85.5t12 -135.5q0 -21 -1 -218t-1 -208 q0 -82 20.5 -111t71.5 -29q29 0 82 11v-95q-66 -32 -149 -32q-118 0 -144 118q-113 -125 -286 -125q-83 0 -152.5 28.5t-116.5 93.5t-47 157zM244 268q0 -89 58 -130.5t140 -41.5q70 0 135 25.5t111 62.5v232q-74 4 -139 4q-89 0 -151 -11.5t-94.5 -33.5t-46 -47.5 t-13.5 -59.5zM377 1122l180 287q33 52 53.5 69t48.5 17q26 0 50 -20.5t24 -47.5q0 -26 -14.5 -50t-48.5 -60l-238 -242z" />
<glyph unicode="&#xe2;" horiz-adv-x="1044" d="M100 256q0 48 12 86t43.5 73t82 58t131.5 37t188 14q98 0 131 -4v96q0 123 -29 168q-42 66 -184 66q-109 0 -158 -43q-35 -28 -41 -145h-88q-18 97 -18 151q0 44 25.5 72.5t76.5 46.5q101 37 232 37q195 0 264 -82q31 -36 43 -85.5t12 -135.5q0 -21 -1 -218t-1 -208 q0 -82 20.5 -111t71.5 -29q29 0 82 11v-95q-66 -32 -149 -32q-118 0 -144 118q-113 -125 -286 -125q-83 0 -152.5 28.5t-116.5 93.5t-47 157zM221 1090l213 309q26 41 70 41q49 0 76 -39l200 -309l-57 -48l-225 236l-222 -236zM244 268q0 -89 58 -130.5t140 -41.5 q70 0 135 25.5t111 62.5v232q-74 4 -139 4q-89 0 -151 -11.5t-94.5 -33.5t-46 -47.5t-13.5 -59.5z" />
<glyph unicode="&#xe3;" horiz-adv-x="1044" d="M100 256q0 48 12 86t43.5 73t82 58t131.5 37t188 14q98 0 131 -4v96q0 123 -29 168q-42 66 -184 66q-109 0 -158 -43q-35 -28 -41 -145h-88q-18 97 -18 151q0 44 25.5 72.5t76.5 46.5q101 37 232 37q195 0 264 -82q31 -36 43 -85.5t12 -135.5q0 -21 -1 -218t-1 -208 q0 -82 20.5 -111t71.5 -29q29 0 82 11v-95q-66 -32 -149 -32q-118 0 -144 118q-113 -125 -286 -125q-83 0 -152.5 28.5t-116.5 93.5t-47 157zM193 1139q26 94 69.5 153.5t104.5 59.5q45 0 108 -29l57 -25q57 -26 91 -26q27 0 49.5 25.5t48.5 80.5l67 -22 q-27 -107 -69.5 -163t-91.5 -56q-43 0 -129 37l-49 22q-53 23 -89 23q-32 0 -51.5 -22.5t-48.5 -82.5zM244 268q0 -89 58 -130.5t140 -41.5q70 0 135 25.5t111 62.5v232q-74 4 -139 4q-89 0 -151 -11.5t-94.5 -33.5t-46 -47.5t-13.5 -59.5z" />
<glyph unicode="&#xe4;" horiz-adv-x="1044" d="M100 256q0 48 12 86t43.5 73t82 58t131.5 37t188 14q98 0 131 -4v96q0 123 -29 168q-42 66 -184 66q-109 0 -158 -43q-35 -28 -41 -145h-88q-18 97 -18 151q0 44 25.5 72.5t76.5 46.5q101 37 232 37q195 0 264 -82q31 -36 43 -85.5t12 -135.5q0 -21 -1 -218t-1 -208 q0 -82 20.5 -111t71.5 -29q29 0 82 11v-95q-66 -32 -149 -32q-118 0 -144 118q-113 -125 -286 -125q-83 0 -152.5 28.5t-116.5 93.5t-47 157zM238 1274q0 40 27 68t69 28q43 0 69.5 -27.5t26.5 -68.5q0 -43 -27.5 -71.5t-72.5 -28.5q-39 0 -65.5 28t-26.5 72zM244 268 q0 -89 58 -130.5t140 -41.5q70 0 135 25.5t111 62.5v232q-74 4 -139 4q-89 0 -151 -11.5t-94.5 -33.5t-46 -47.5t-13.5 -59.5zM561 1274q0 41 27.5 68.5t70.5 27.5q41 0 68 -28t27 -68q0 -43 -27.5 -71.5t-71.5 -28.5q-39 0 -66.5 28.5t-27.5 71.5z" />
<glyph unicode="&#xe5;" horiz-adv-x="1044" d="M100 256q0 48 12 86t43.5 73t82 58t131.5 37t188 14q98 0 131 -4v96q0 123 -29 168q-42 66 -184 66q-109 0 -158 -43q-35 -28 -41 -145h-88q-18 97 -18 151q0 44 25.5 72.5t76.5 46.5q101 37 232 37q195 0 264 -82q31 -36 43 -85.5t12 -135.5q0 -21 -1 -218t-1 -208 q0 -82 20.5 -111t71.5 -29q29 0 82 11v-95q-66 -32 -149 -32q-118 0 -144 118q-113 -125 -286 -125q-83 0 -152.5 28.5t-116.5 93.5t-47 157zM244 268q0 -89 58 -130.5t140 -41.5q70 0 135 25.5t111 62.5v232q-74 4 -139 4q-89 0 -151 -11.5t-94.5 -33.5t-46 -47.5 t-13.5 -59.5zM313 1255q0 84 56 138.5t133 54.5q84 0 136 -51t52 -137q0 -82 -55 -134.5t-135 -52.5q-79 0 -133 50t-54 132zM393 1260q0 -51 30 -82t77 -31q48 0 78 30t30 83q0 56 -30.5 85t-77.5 29q-45 0 -76 -30t-31 -84z" />
<glyph unicode="&#xe6;" horiz-adv-x="1574" d="M100 268q0 50 14 91t48.5 77.5t89 61t139.5 39t197 14.5h94v67q0 118 -33 170q-44 66 -174 66q-106 0 -158 -43q-35 -28 -41 -145h-88q-20 108 -20 147q0 83 104 119q113 37 224 37q76 0 131 -14t98 -52.5t61 -101.5q114 168 340 168q98 0 171 -35.5t113 -95t58.5 -125.5 t18.5 -138q0 -85 -27 -110q-16 -14 -84 -14h-563v-23q0 -66 19.5 -124.5t58 -105t103 -73.5t147.5 -27q63 0 120.5 18t94 39.5t94.5 61.5l55 -84q-187 -162 -383 -162q-226 0 -342 156q-156 -152 -356 -152q-62 0 -118 17t-103 51t-75 92t-28 133zM244 279q0 -51 18 -88 t49 -57.5t65 -30t73 -9.5q149 0 284 111q-49 90 -49 241h-111q-183 0 -256 -43t-73 -124zM821 555l527 6v17q0 57 -12 103t-39 86t-77.5 62.5t-121.5 22.5q-113 0 -191 -74t-86 -223z" />
<glyph unicode="&#xe7;" horiz-adv-x="976" d="M100 455q0 234 132 374t360 140q104 0 176 -19q53 -14 77.5 -42.5t24.5 -80.5q0 -69 -16 -157h-90q-11 112 -50.5 147t-146.5 35q-155 0 -240 -104t-85 -285q0 -163 82.5 -263t240.5 -100q89 0 159.5 28t141.5 83l58 -84q-157 -150 -375 -156q-17 -46 -17 -61 q0 -30 33 -47q76 -39 108 -77t32 -93q0 -103 -90 -164t-242 -84l-21 82q111 23 164 56.5t53 90.5q0 33 -22 58t-70 51q-39 22 -39 59t35 133q-169 19 -271 145.5t-102 334.5z" />
<glyph unicode="&#xe8;" horiz-adv-x="1017" d="M100 455q0 125 36 224t99.5 161.5t147 95.5t182.5 33q81 0 145 -21t104.5 -55.5t67 -82t37.5 -98t11 -106.5q0 -88 -25 -110q-19 -17 -84 -17h-577v-33q0 -154 84.5 -250t249.5 -96q90 0 164 30t151 87l59 -90q-177 -156 -397 -156q-113 0 -201 38t-143 104.5t-83 153.5 t-28 188zM252 584l539 6v20q0 113 -56 177.5t-190 64.5q-114 0 -196.5 -69.5t-96.5 -198.5zM322 1427q0 27 24 47.5t51 20.5t47.5 -17t53.5 -69l180 -287l-57 -47l-236 242q-34 36 -48.5 60t-14.5 50z" />
<glyph unicode="&#xe9;" horiz-adv-x="1017" d="M100 455q0 125 36 224t99.5 161.5t147 95.5t182.5 33q81 0 145 -21t104.5 -55.5t67 -82t37.5 -98t11 -106.5q0 -88 -25 -110q-19 -17 -84 -17h-577v-33q0 -154 84.5 -250t249.5 -96q90 0 164 30t151 87l59 -90q-177 -156 -397 -156q-113 0 -201 38t-143 104.5t-83 153.5 t-28 188zM252 584l539 6v20q0 113 -56 177.5t-190 64.5q-114 0 -196.5 -69.5t-96.5 -198.5zM434 1122l180 287q33 52 54 69t49 17q26 0 50 -20.5t24 -47.5q0 -26 -14.5 -49.5t-49.5 -60.5l-238 -242z" />
<glyph unicode="&#xea;" horiz-adv-x="1017" d="M100 455q0 125 36 224t99.5 161.5t147 95.5t182.5 33q81 0 145 -21t104.5 -55.5t67 -82t37.5 -98t11 -106.5q0 -88 -25 -110q-19 -17 -84 -17h-577v-33q0 -154 84.5 -250t249.5 -96q90 0 164 30t151 87l59 -90q-177 -156 -397 -156q-113 0 -201 38t-143 104.5t-83 153.5 t-28 188zM252 584l539 6v20q0 113 -56 177.5t-190 64.5q-114 0 -196.5 -69.5t-96.5 -198.5zM270 1090l213 309q26 41 70 41q49 0 76 -39l200 -309l-57 -48l-225 236l-221 -236z" />
<glyph unicode="&#xeb;" horiz-adv-x="1017" d="M100 455q0 125 36 224t99.5 161.5t147 95.5t182.5 33q81 0 145 -21t104.5 -55.5t67 -82t37.5 -98t11 -106.5q0 -88 -25 -110q-19 -17 -84 -17h-577v-33q0 -154 84.5 -250t249.5 -96q90 0 164 30t151 87l59 -90q-177 -156 -397 -156q-113 0 -201 38t-143 104.5t-83 153.5 t-28 188zM252 584l539 6v20q0 113 -56 177.5t-190 64.5q-114 0 -196.5 -69.5t-96.5 -198.5zM287 1274q0 40 27 68t69 28q43 0 69.5 -27.5t26.5 -68.5q0 -43 -27.5 -71.5t-72.5 -28.5q-39 0 -65.5 28t-26.5 72zM610 1274q0 40 28 68t71 28q41 0 67.5 -28t26.5 -68 q0 -43 -27 -71.5t-71 -28.5q-39 0 -67 28.5t-28 71.5z" />
<glyph unicode="&#xec;" horiz-adv-x="606" d="M29 1427q0 27 24 47.5t51 20.5t47.5 -17t53.5 -69l180 -287l-57 -47l-236 242q-34 36 -48.5 60t-14.5 50zM70 -2v94q74 6 105.5 12.5t41.5 18.5q16 19 16 110v418q0 99 -18 131.5t-88 32.5q-29 0 -57 -4v86q105 61 206 61q50 0 75.5 -27.5t25.5 -109.5q0 -89 -4 -290 t-4 -295q0 -90 18 -111q9 -14 37 -20.5t104 -12.5v-94q-176 4 -247 4q-121 0 -211 -4z" />
<glyph unicode="&#xed;" horiz-adv-x="606" d="M70 -2v94q74 6 105.5 12.5t41.5 18.5q16 19 16 110v418q0 99 -18 131.5t-88 32.5q-29 0 -57 -4v86q105 61 206 61q50 0 75.5 -27.5t25.5 -109.5q0 -89 -4 -290t-4 -295q0 -90 18 -111q9 -14 37 -20.5t104 -12.5v-94q-176 4 -247 4q-121 0 -211 -4zM119 1122l180 287 q33 52 53.5 69t48.5 17q26 0 50 -20.5t24 -47.5q0 -26 -14.5 -50t-48.5 -60l-238 -242z" />
<glyph unicode="&#xee;" horiz-adv-x="606" d="M-14 1090l213 309q26 41 69 41q49 0 76 -39l201 -309l-58 -48l-225 236l-221 -236zM70 -2v94q74 6 105.5 12.5t41.5 18.5q16 19 16 110v418q0 99 -18 131.5t-88 32.5q-29 0 -57 -4v86q105 61 206 61q50 0 75.5 -27.5t25.5 -109.5q0 -89 -4 -290t-4 -295q0 -90 18 -111 q9 -14 37 -20.5t104 -12.5v-94q-176 4 -247 4q-121 0 -211 -4z" />
<glyph unicode="&#xef;" horiz-adv-x="606" d="M10 1274q0 40 27 68t69 28q43 0 70 -27.5t27 -68.5q0 -43 -28 -71.5t-73 -28.5q-39 0 -65.5 28t-26.5 72zM70 -2v94q74 6 105.5 12.5t41.5 18.5q16 19 16 110v418q0 99 -18 131.5t-88 32.5q-29 0 -57 -4v86q105 61 206 61q50 0 75.5 -27.5t25.5 -109.5q0 -89 -4 -290 t-4 -295q0 -90 18 -111q9 -14 37 -20.5t104 -12.5v-94q-176 4 -247 4q-121 0 -211 -4zM334 1274q0 41 27.5 68.5t70.5 27.5q41 0 67.5 -28t26.5 -68q0 -43 -27 -71.5t-71 -28.5q-39 0 -66.5 28.5t-27.5 71.5z" />
<glyph unicode="&#xf0;" horiz-adv-x="1077" d="M100 440q0 208 121.5 343t319.5 135q74 0 148.5 -34.5t113.5 -97.5q-57 197 -185 347l-243 -142l-45 76l229 135q-56 65 -139 122t-166 95l49 90q198 -76 365 -233l176 102l47 -78l-162 -94q127 -147 187.5 -320.5t60.5 -393.5q0 -246 -122.5 -383.5t-324.5 -137.5 q-197 0 -313.5 131t-116.5 338zM242 473q0 -184 81.5 -281.5t211.5 -97.5q136 0 216 88.5t80 245.5q0 172 -76 273.5t-225 101.5q-125 0 -206.5 -90t-81.5 -240z" />
<glyph unicode="&#xf1;" horiz-adv-x="1218" d="M70 -2v94q75 6 106 13t41 20q16 19 16 108v418q0 99 -18 131.5t-88 32.5q-29 0 -57 -4v86q105 61 196 61q46 0 72 -28t29 -111q71 68 169.5 108t200.5 40q61 0 112 -18t77 -50q35 -36 49 -98.5t14 -171.5v-396q0 -79 15 -100q8 -18 37.5 -26t117.5 -15v-94q-172 4 -233 4 q-54 0 -226 -4v94q68 6 96.5 13t37.5 20q18 15 18 113v364q0 126 -31 168q-43 59 -157 59q-72 0 -155 -24t-140 -64v-505q0 -90 18 -113q9 -12 36.5 -18.5t100.5 -12.5v-94q-176 4 -243 4q-121 0 -211 -4zM305 1139q26 94 69.5 153.5t104.5 59.5q46 0 109 -29l57 -25 q57 -26 90 -26q27 0 50 25.5t49 80.5l67 -22q-27 -107 -70 -163t-92 -56q-43 0 -129 37l-49 22q-53 23 -88 23q-32 0 -51.5 -22.5t-48.5 -82.5z" />
<glyph unicode="&#xf2;" horiz-adv-x="1105" d="M100 465q0 235 128.5 369.5t340.5 134.5q224 0 331.5 -126t107.5 -356q0 -128 -35 -228t-97.5 -162t-144 -94t-178.5 -32q-222 0 -337.5 134t-115.5 360zM242 487q0 -395 315 -395q148 0 228.5 96.5t80.5 284.5q0 377 -305 377q-155 0 -237 -94.5t-82 -268.5zM336 1427 q0 27 24.5 47.5t51.5 20.5t47 -17t53 -69l180 -287l-57 -47l-236 242q-34 36 -48.5 60t-14.5 50z" />
<glyph unicode="&#xf3;" horiz-adv-x="1105" d="M100 465q0 235 128.5 369.5t340.5 134.5q224 0 331.5 -126t107.5 -356q0 -128 -35 -228t-97.5 -162t-144 -94t-178.5 -32q-222 0 -337.5 134t-115.5 360zM242 487q0 -395 315 -395q148 0 228.5 96.5t80.5 284.5q0 377 -305 377q-155 0 -237 -94.5t-82 -268.5zM438 1122 l180 287q33 52 54 69t49 17q26 0 50 -20.5t24 -47.5q0 -26 -14.5 -49.5t-49.5 -60.5l-237 -242z" />
<glyph unicode="&#xf4;" horiz-adv-x="1105" d="M100 465q0 235 128.5 369.5t340.5 134.5q224 0 331.5 -126t107.5 -356q0 -128 -35 -228t-97.5 -162t-144 -94t-178.5 -32q-222 0 -337.5 134t-115.5 360zM242 487q0 -395 315 -395q148 0 228.5 96.5t80.5 284.5q0 377 -305 377q-155 0 -237 -94.5t-82 -268.5zM283 1090 l213 309q26 41 69 41q49 0 76 -39l201 -309l-58 -48l-225 236l-221 -236z" />
<glyph unicode="&#xf5;" horiz-adv-x="1105" d="M100 465q0 235 128.5 369.5t340.5 134.5q224 0 331.5 -126t107.5 -356q0 -128 -35 -228t-97.5 -162t-144 -94t-178.5 -32q-222 0 -337.5 134t-115.5 360zM242 487q0 -395 315 -395q148 0 228.5 96.5t80.5 284.5q0 377 -305 377q-155 0 -237 -94.5t-82 -268.5zM258 1139 q26 94 69.5 153.5t104.5 59.5q46 0 109 -29l57 -25q57 -26 90 -26q27 0 49.5 25.5t48.5 80.5l68 -22q-27 -107 -70 -163t-92 -56q-43 0 -129 37l-49 22q-53 23 -88 23q-32 0 -51.5 -22.5t-48.5 -82.5z" />
<glyph unicode="&#xf6;" horiz-adv-x="1105" d="M100 465q0 235 128.5 369.5t340.5 134.5q224 0 331.5 -126t107.5 -356q0 -128 -35 -228t-97.5 -162t-144 -94t-178.5 -32q-222 0 -337.5 134t-115.5 360zM242 487q0 -395 315 -395q148 0 228.5 96.5t80.5 284.5q0 377 -305 377q-155 0 -237 -94.5t-82 -268.5zM303 1274 q0 40 27 68t69 28q43 0 70 -27.5t27 -68.5q0 -43 -28 -71.5t-73 -28.5q-39 0 -65.5 28t-26.5 72zM627 1274q0 41 27.5 68.5t70.5 27.5q41 0 67.5 -28t26.5 -68q0 -43 -27 -71.5t-71 -28.5q-39 0 -66.5 28.5t-27.5 71.5z" />
<glyph unicode="&#xf7;" horiz-adv-x="1198" d="M135 573v134h924v-134h-924zM500 319q0 41 27 70t69 29t69 -29t27 -72q0 -44 -27 -74t-69 -30q-43 0 -69.5 30.5t-26.5 75.5zM500 965q0 41 27 71.5t69 30.5t69 -30t27 -74q0 -43 -27 -73t-69 -30q-43 0 -69.5 30t-26.5 75z" />
<glyph unicode="&#xf8;" horiz-adv-x="1105" d="M100 465q0 235 128.5 369.5t340.5 134.5q141 0 238 -54l92 129l74 -53l-92 -129q127 -121 127 -375q0 -128 -35 -228t-97.5 -162t-144 -94t-178.5 -32q-150 0 -256 64l-86 -123l-74 51l90 129q-127 130 -127 373zM242 487q0 -185 67 -280l422 600q-71 41 -170 41 q-155 0 -237 -93.5t-82 -267.5zM373 143q71 -49 184 -49q149 0 229 95.5t80 283.5q0 178 -67 270z" />
<glyph unicode="&#xf9;" horiz-adv-x="1191" d="M47 811v86q105 61 203 61q51 0 75.5 -29t24.5 -110q0 -15 -2 -211.5t-2 -279.5q0 -118 43.5 -170t157.5 -52q73 0 149.5 27t134.5 70v448q0 103 -17.5 133.5t-92.5 30.5q-36 0 -64 -4v86q100 61 217 61q49 0 73 -31t24 -116q0 -1 -2 -230t-2 -350q0 -76 19.5 -103.5 t70.5 -27.5q36 0 78 11v-95q-65 -32 -160 -32q-120 0 -139 131q-142 -142 -344 -142q-66 0 -125.5 22.5t-92.5 61.5q-34 40 -48.5 98t-14.5 158v338q0 100 -17.5 132t-87.5 32q-8 0 -30 -2t-29 -2zM322 1427q0 27 24 47.5t51 20.5t47.5 -17t53.5 -69l180 -287l-57 -47 l-236 242q-34 36 -48.5 60t-14.5 50z" />
<glyph unicode="&#xfa;" horiz-adv-x="1191" d="M47 811v86q105 61 203 61q51 0 75.5 -29t24.5 -110q0 -15 -2 -211.5t-2 -279.5q0 -118 43.5 -170t157.5 -52q73 0 149.5 27t134.5 70v448q0 103 -17.5 133.5t-92.5 30.5q-36 0 -64 -4v86q100 61 217 61q49 0 73 -31t24 -116q0 -1 -2 -230t-2 -350q0 -76 19.5 -103.5 t70.5 -27.5q36 0 78 11v-95q-65 -32 -160 -32q-120 0 -139 131q-142 -142 -344 -142q-66 0 -125.5 22.5t-92.5 61.5q-34 40 -48.5 98t-14.5 158v338q0 100 -17.5 132t-87.5 32q-8 0 -30 -2t-29 -2zM438 1122l180 287q33 52 54 69t49 17q26 0 50 -20.5t24 -47.5 q0 -26 -14.5 -49.5t-49.5 -60.5l-237 -242z" />
<glyph unicode="&#xfb;" horiz-adv-x="1191" d="M47 811v86q105 61 203 61q51 0 75.5 -29t24.5 -110q0 -15 -2 -211.5t-2 -279.5q0 -118 43.5 -170t157.5 -52q73 0 149.5 27t134.5 70v448q0 103 -17.5 133.5t-92.5 30.5q-36 0 -64 -4v86q100 61 217 61q49 0 73 -31t24 -116q0 -1 -2 -230t-2 -350q0 -76 19.5 -103.5 t70.5 -27.5q36 0 78 11v-95q-65 -32 -160 -32q-120 0 -139 131q-142 -142 -344 -142q-66 0 -125.5 22.5t-92.5 61.5q-34 40 -48.5 98t-14.5 158v338q0 100 -17.5 132t-87.5 32q-8 0 -30 -2t-29 -2zM281 1090l213 309q26 41 69 41q49 0 76 -39l201 -309l-58 -48l-225 236 l-221 -236z" />
<glyph unicode="&#xfc;" horiz-adv-x="1191" d="M47 811v86q105 61 203 61q51 0 75.5 -29t24.5 -110q0 -15 -2 -211.5t-2 -279.5q0 -118 43.5 -170t157.5 -52q73 0 149.5 27t134.5 70v448q0 103 -17.5 133.5t-92.5 30.5q-36 0 -64 -4v86q100 61 217 61q49 0 73 -31t24 -116q0 -1 -2 -230t-2 -350q0 -76 19.5 -103.5 t70.5 -27.5q36 0 78 11v-95q-65 -32 -160 -32q-120 0 -139 131q-142 -142 -344 -142q-66 0 -125.5 22.5t-92.5 61.5q-34 40 -48.5 98t-14.5 158v338q0 100 -17.5 132t-87.5 32q-8 0 -30 -2t-29 -2zM289 1274q0 40 27 68t69 28q43 0 69.5 -27.5t26.5 -68.5q0 -43 -27.5 -71.5 t-72.5 -28.5q-39 0 -65.5 28t-26.5 72zM612 1274q0 40 28 68t71 28q41 0 67.5 -28t26.5 -68q0 -43 -27 -71.5t-71 -28.5q-39 0 -67 28.5t-28 71.5z" />
<glyph unicode="&#xfd;" horiz-adv-x="1067" d="M8 848v94q136 -4 238 -4q56 0 192 4v-94q-64 -4 -90 -8q-49 -8 -49 -54q0 -28 27 -90q22 -52 79 -182.5t98 -226.5t77 -185q12 35 81.5 236t110.5 315q33 87 33 146q0 16 -8.5 26t-27.5 14.5t-32.5 6t-39.5 2t-33 0.5v94q126 -4 204 -4q73 0 191 4v-94q-68 -6 -90 -23 q-18 -16 -32.5 -48.5t-43.5 -110.5l-246 -666q-91 -254 -147 -371q-49 -104 -115 -147t-160 -43q-157 0 -157 121q0 62 12 121h82q13 -73 25 -91q19 -28 71 -28q72 0 125 92q44 78 147 344q-50 0 -75 59l-283 650q-42 92 -72 116q-24 19 -92 25zM453 1122l180 287 q33 52 53.5 69t48.5 17q26 0 50 -20.5t24 -47.5q0 -26 -14.5 -49.5t-49.5 -60.5l-237 -242z" />
<glyph unicode="&#xfe;" horiz-adv-x="1155" d="M23 1352v86q108 59 206 59q51 0 76 -28.5t25 -112.5q0 -58 -3 -228t-3 -301q162 142 342 142q94 0 165.5 -36t116 -101.5t66.5 -153.5t22 -197q0 -229 -127 -367.5t-366 -138.5q-87 0 -217 29v-270q0 -116 24 -140q12 -14 46 -21.5t145 -14.5v-95q-240 5 -258 5 q-19 0 -254 -5v95q74 6 105 14.5t42 24.5q14 16 14 104v1446v13q0 45 -0.5 65t-3.5 48.5t-9 39.5t-18 23.5t-30 16t-45 3.5q-11 0 -61 -4zM326 131q76 -35 231 -35q163 0 247.5 102t84.5 273q0 73 -14 134.5t-45.5 115.5t-91 84.5t-142.5 30.5q-66 0 -139.5 -26.5 t-130.5 -68.5v-610z" />
<glyph unicode="&#xff;" horiz-adv-x="1067" d="M8 848v94q136 -4 238 -4q56 0 192 4v-94q-64 -4 -90 -8q-49 -8 -49 -54q0 -28 27 -90q22 -52 79 -182.5t98 -226.5t77 -185q12 35 81.5 236t110.5 315q33 87 33 146q0 16 -8.5 26t-27.5 14.5t-32.5 6t-39.5 2t-33 0.5v94q126 -4 204 -4q73 0 191 4v-94q-68 -6 -90 -23 q-18 -16 -32.5 -48.5t-43.5 -110.5l-246 -666q-91 -254 -147 -371q-49 -104 -115 -147t-160 -43q-157 0 -157 121q0 62 12 121h82q13 -73 25 -91q19 -28 71 -28q72 0 125 92q44 78 147 344q-50 0 -75 59l-283 650q-42 92 -72 116q-24 19 -92 25zM303 1274q0 40 27 68t69 28 q43 0 70 -27.5t27 -68.5q0 -43 -28 -71.5t-73 -28.5q-39 0 -65.5 28t-26.5 72zM627 1274q0 41 27.5 68.5t70.5 27.5q41 0 67.5 -28t26.5 -68q0 -43 -27 -71.5t-71 -28.5q-39 0 -66.5 28.5t-27.5 71.5z" />
<glyph unicode="&#x100;" horiz-adv-x="1435" d="M10 -2v96q110 6 144 33q19 13 32 40.5t47 119.5l396 1056q15 41 37.5 58.5t58.5 17.5q32 0 53 -16t35 -57l406 -1086q24 -66 38.5 -94t34.5 -43q29 -26 133 -29v-96q-144 4 -264 4q-132 0 -276 -4v96q103 5 141 15q47 11 47 47q0 42 -29 125l-83 221h-521l-78 -211 q-30 -88 -30 -131q0 -33 24 -45q24 -9 166 -21v-96q-132 4 -270 4q-116 0 -242 -4zM434 1550v125h559v-125h-559zM477 616h445q-196 527 -224 613q-60 -174 -221 -613z" />
<glyph unicode="&#x101;" horiz-adv-x="1044" d="M100 256q0 48 12 86t43.5 73t82 58t131.5 37t188 14q98 0 131 -4v96q0 123 -29 168q-42 66 -184 66q-109 0 -158 -43q-35 -28 -41 -145h-88q-18 97 -18 151q0 44 25.5 72.5t76.5 46.5q101 37 232 37q195 0 264 -82q31 -36 43 -85.5t12 -135.5q0 -21 -1 -218t-1 -208 q0 -82 20.5 -111t71.5 -29q29 0 82 11v-95q-66 -32 -149 -32q-118 0 -144 118q-113 -125 -286 -125q-83 0 -152.5 28.5t-116.5 93.5t-47 157zM244 268q0 -89 58 -130.5t140 -41.5q70 0 135 25.5t111 62.5v232q-74 4 -139 4q-89 0 -151 -11.5t-94.5 -33.5t-46 -47.5 t-13.5 -59.5zM250 1147v121h520v-121h-520z" />
<glyph unicode="&#x102;" horiz-adv-x="1435" d="M10 -2v96q110 6 144 33q19 13 32 40.5t47 119.5l396 1056q15 41 37.5 58.5t58.5 17.5q32 0 53 -16t35 -57l406 -1086q24 -66 38.5 -94t34.5 -43q29 -26 133 -29v-96q-144 4 -264 4q-132 0 -276 -4v96q103 5 141 15q47 11 47 47q0 42 -29 125l-83 221h-521l-78 -211 q-30 -88 -30 -131q0 -33 24 -45q24 -9 166 -21v-96q-132 4 -270 4q-116 0 -242 -4zM434 1798l74 6q9 -86 63.5 -134t149.5 -48q188 0 217 182l74 -4q-1 -143 -84.5 -223t-206.5 -80q-130 0 -208 72.5t-79 228.5zM477 616h445q-196 527 -224 613q-60 -174 -221 -613z" />
<glyph unicode="&#x103;" horiz-adv-x="1044" d="M100 256q0 48 12 86t43.5 73t82 58t131.5 37t188 14q98 0 131 -4v96q0 123 -29 168q-42 66 -184 66q-109 0 -158 -43q-35 -28 -41 -145h-88q-18 97 -18 151q0 44 25.5 72.5t76.5 46.5q101 37 232 37q195 0 264 -82q31 -36 43 -85.5t12 -135.5q0 -21 -1 -218t-1 -208 q0 -82 20.5 -111t71.5 -29q29 0 82 11v-95q-66 -32 -149 -32q-118 0 -144 118q-113 -125 -286 -125q-83 0 -152.5 28.5t-116.5 93.5t-47 157zM244 268q0 -89 58 -130.5t140 -41.5q70 0 135 25.5t111 62.5v232q-74 4 -139 4q-89 0 -151 -11.5t-94.5 -33.5t-46 -47.5 t-13.5 -59.5zM250 1391l76 4q11 -88 58.5 -135.5t129.5 -47.5t130 44.5t67 138.5l73 -2q-1 -147 -75.5 -225t-194.5 -78q-127 0 -195 69t-69 232z" />
<glyph unicode="&#x104;" horiz-adv-x="1435" d="M10 -2v96q110 6 144 33q19 13 32 40.5t47 119.5l396 1056q15 41 37.5 58.5t58.5 17.5q32 0 53 -16t35 -57l406 -1086q24 -66 38.5 -94t34.5 -43q29 -26 133 -29v-96l-213 4q-99 -105 -144.5 -184t-45.5 -146q0 -58 30.5 -90.5t86.5 -32.5q29 0 72 9.5t69 21.5l31 -69 q-111 -76 -217 -76q-98 0 -147.5 58t-49.5 145q0 90 52.5 173t168.5 191q-32 -1 -118 -2t-115 -2v96q103 5 141 15q47 11 47 47q0 42 -29 125l-83 221h-521l-78 -211q-30 -88 -30 -131q0 -33 24 -45q24 -9 166 -21v-96q-132 4 -270 4q-116 0 -242 -4zM477 616h445 q-196 527 -224 613q-60 -174 -221 -613z" />
<glyph unicode="&#x105;" horiz-adv-x="1044" d="M100 256q0 48 12 86t43.5 73t82 58t131.5 37t188 14q98 0 131 -4v96q0 123 -29 168q-42 66 -184 66q-109 0 -158 -43q-35 -28 -41 -145h-88q-18 97 -18 151q0 44 25.5 72.5t76.5 46.5q101 37 232 37q195 0 264 -82q31 -36 43 -85.5t12 -135.5q0 -21 -1 -218t-1 -208 q0 -82 20.5 -111t71.5 -29q29 0 82 11v-95q-48 -22 -106 -28q-89 -98 -129.5 -169.5t-40.5 -135.5q0 -54 29 -85.5t83 -31.5q70 0 140 28l28 -65q-104 -74 -211 -74q-96 0 -144 56t-48 141q0 84 48 161.5t155 176.5q-78 18 -97 112q-113 -125 -286 -125q-83 0 -152.5 28.5 t-116.5 93.5t-47 157zM244 268q0 -89 58 -130.5t140 -41.5q70 0 135 25.5t111 62.5v232q-74 4 -139 4q-89 0 -151 -11.5t-94.5 -33.5t-46 -47.5t-13.5 -59.5z" />
<glyph unicode="&#x106;" horiz-adv-x="1372" d="M104 668q0 347 197 548t524 201q200 0 324 -47q51 -19 73.5 -47t22.5 -72q0 -94 -18 -213h-90q-10 143 -47 185q-30 30 -103.5 48.5t-177.5 18.5q-114 0 -212.5 -39.5t-173 -113.5t-117 -189.5t-42.5 -259.5q0 -122 28.5 -221t78.5 -167t119 -114t149 -67t170 -21 q97 0 169 21t107 51q42 36 84 170h91q-3 -133 -23 -209q-25 -86 -125 -115q-142 -45 -328 -45q-149 0 -273 46t-215 132.5t-141.5 219t-50.5 299.5zM657 1526l238 248q38 38 60.5 51.5t45.5 13.5q28 0 50 -22t22 -52q0 -48 -84 -106l-284 -189z" />
<glyph unicode="&#x107;" horiz-adv-x="976" d="M100 455q0 234 132 374t360 140q104 0 176 -19q53 -14 77.5 -42.5t24.5 -80.5q0 -69 -16 -157h-90q-11 112 -50.5 147t-146.5 35q-155 0 -240 -104t-85 -285q0 -163 82.5 -263t240.5 -100q89 0 159.5 28t141.5 83l58 -84q-75 -72 -176.5 -114t-215.5 -42 q-194 0 -313 129.5t-119 354.5zM457 1122l180 287q33 52 53.5 69t48.5 17q26 0 50 -20.5t24 -47.5q0 -26 -14.5 -50t-48.5 -60l-238 -242z" />
<glyph unicode="&#x108;" horiz-adv-x="1372" d="M104 668q0 347 197 548t524 201q200 0 324 -47q51 -19 73.5 -47t22.5 -72q0 -94 -18 -213h-90q-10 143 -47 185q-30 30 -103.5 48.5t-177.5 18.5q-114 0 -212.5 -39.5t-173 -113.5t-117 -189.5t-42.5 -259.5q0 -122 28.5 -221t78.5 -167t119 -114t149 -67t170 -21 q97 0 169 21t107 51q42 36 84 170h91q-3 -133 -23 -209q-25 -86 -125 -115q-142 -45 -328 -45q-149 0 -273 46t-215 132.5t-141.5 219t-50.5 299.5zM479 1513l234 277q33 41 69 41q41 0 76 -43l221 -275l-55 -49l-248 207l-248 -207z" />
<glyph unicode="&#x109;" horiz-adv-x="976" d="M100 455q0 234 132 374t360 140q104 0 176 -19q53 -14 77.5 -42.5t24.5 -80.5q0 -69 -16 -157h-90q-11 112 -50.5 147t-146.5 35q-155 0 -240 -104t-85 -285q0 -163 82.5 -263t240.5 -100q89 0 159.5 28t141.5 83l58 -84q-75 -72 -176.5 -114t-215.5 -42 q-194 0 -313 129.5t-119 354.5zM279 1090l213 309q26 41 69 41q49 0 76 -39l201 -309l-58 -48l-225 236l-221 -236z" />
<glyph unicode="&#x10a;" horiz-adv-x="1372" d="M104 668q0 347 197 548t524 201q200 0 324 -47q51 -19 73.5 -47t22.5 -72q0 -94 -18 -213h-90q-10 143 -47 185q-30 30 -103.5 48.5t-177.5 18.5q-114 0 -212.5 -39.5t-173 -113.5t-117 -189.5t-42.5 -259.5q0 -122 28.5 -221t78.5 -167t119 -114t149 -67t170 -21 q97 0 169 21t107 51q42 36 84 170h91q-3 -133 -23 -209q-25 -86 -125 -115q-142 -45 -328 -45q-149 0 -273 46t-215 132.5t-141.5 219t-50.5 299.5zM678 1622q0 42 27 69t69 27q43 0 68.5 -27t25.5 -69q0 -41 -27 -70.5t-71 -29.5q-39 0 -65.5 29t-26.5 71z" />
<glyph unicode="&#x10b;" horiz-adv-x="976" d="M100 455q0 234 132 374t360 140q104 0 176 -19q53 -14 77.5 -42.5t24.5 -80.5q0 -69 -16 -157h-90q-11 112 -50.5 147t-146.5 35q-155 0 -240 -104t-85 -285q0 -163 82.5 -263t240.5 -100q89 0 159.5 28t141.5 83l58 -84q-75 -72 -176.5 -114t-215.5 -42 q-194 0 -313 129.5t-119 354.5zM477 1274q0 40 27 68t69 28q43 0 69 -27.5t26 -68.5q0 -44 -27 -72t-72 -28q-39 0 -65.5 28t-26.5 72z" />
<glyph unicode="&#x10c;" horiz-adv-x="1372" d="M104 668q0 347 197 548t524 201q200 0 324 -47q51 -19 73.5 -47t22.5 -72q0 -94 -18 -213h-90q-10 143 -47 185q-30 30 -103.5 48.5t-177.5 18.5q-114 0 -212.5 -39.5t-173 -113.5t-117 -189.5t-42.5 -259.5q0 -122 28.5 -221t78.5 -167t119 -114t149 -67t170 -21 q97 0 169 21t107 51q42 36 84 170h91q-3 -133 -23 -209q-25 -86 -125 -115q-142 -45 -328 -45q-149 0 -273 46t-215 132.5t-141.5 219t-50.5 299.5zM483 1786l54 47l247 -205l248 205l51 -47l-233 -279q-35 -41 -72 -41q-40 0 -76 45z" />
<glyph unicode="&#x10d;" horiz-adv-x="976" d="M100 455q0 234 132 374t360 140q104 0 176 -19q53 -14 77.5 -42.5t24.5 -80.5q0 -69 -16 -157h-90q-11 112 -50.5 147t-146.5 35q-155 0 -240 -104t-85 -285q0 -163 82.5 -263t240.5 -100q89 0 159.5 28t141.5 83l58 -84q-75 -72 -176.5 -114t-215.5 -42 q-194 0 -313 129.5t-119 354.5zM279 1395l57 45l223 -234l223 234l56 -43l-213 -312q-28 -41 -72 -41q-45 0 -74 41z" />
<glyph unicode="&#x10e;" horiz-adv-x="1464" d="M76 0v94q89 4 125.5 10.5t48.5 20.5q9 12 11.5 34.5t2.5 86.5v891q0 93 -8 114q-10 21 -44 28t-136 13v92h332q311 0 457.5 -23.5t246.5 -86.5q129 -81 188.5 -217.5t59.5 -337.5q0 -411 -258 -594q-92 -65 -218.5 -95t-334.5 -30h-473zM356 1786l54 47l247 -205l248 205 l51 -47l-233 -279q-35 -41 -72 -41q-40 0 -76 45zM416 201q0 -36 11.5 -49t45.5 -21q59 -12 182 -12q264 0 403.5 150.5t139.5 439.5q0 181 -64 305t-182 182q-143 70 -401 70h-135v-1065z" />
<glyph unicode="&#x10f;" horiz-adv-x="1191" d="M100 442q0 114 32 209.5t93.5 166.5t159.5 111t223 40q49 0 116 -11.5t112 -37.5q0 178 -2 266q-3 112 -27 145q-22 25 -84 25q-23 0 -55 -4v86q105 59 206 59q51 0 76 -27.5t25 -107.5q0 -21 -1 -212.5t-1 -275.5v-651q0 -69 19 -96t67 -27q36 0 82 11v-95 q-68 -32 -154 -32q-116 0 -137 116q-54 -62 -136.5 -93.5t-178.5 -31.5q-199 0 -317 132t-118 335zM242 463q0 -168 90 -266.5t233 -98.5q72 0 149.5 25t121.5 61v613q-37 22 -106.5 37.5t-133.5 15.5q-163 0 -258.5 -102t-95.5 -285zM1049 1087q149 96 149 166q0 46 -33 62 q-30 15 -44.5 35.5t-14.5 58.5q0 40 30 68t74 28q62 0 94.5 -40.5t32.5 -110.5q0 -189 -247 -328z" />
<glyph unicode="&#x110;" horiz-adv-x="1464" d="M66 672v106h198v359q0 93 -8 114q-10 21 -44 28t-136 13v92h332q311 0 457.5 -23.5t246.5 -86.5q129 -81 188.5 -217.5t59.5 -337.5q0 -411 -258 -594q-92 -65 -218.5 -95t-334.5 -30h-473v94q89 4 125.5 10.5t48.5 20.5q9 12 11.5 34.5t2.5 86.5v426h-198zM416 205 q0 -37 12 -51.5t45 -22.5q69 -14 174 -14q267 0 409 151.5t142 440.5q0 181 -64 305t-182 182q-143 70 -401 70h-135v-488h395v-106h-395v-467z" />
<glyph unicode="&#x111;" horiz-adv-x="1191" d="M100 442q0 114 32 209.5t93.5 166.5t159.5 111t223 40q49 0 116 -11.5t112 -37.5v157h-314v90h312v19q-1 42 -3 64t-8 46.5t-17.5 35.5t-31.5 18.5t-51 7.5t-55 -6v86q105 59 206 59q51 0 76 -27.5t25 -107.5q0 -9 -1 -77t-1 -118h155v-90h-155v-854q0 -69 19 -96t67 -27 q36 0 82 11v-95q-68 -32 -154 -32q-116 0 -137 116q-54 -62 -136.5 -93.5t-178.5 -31.5q-199 0 -317 132t-118 335zM242 463q0 -168 90 -266.5t233 -98.5q72 0 149.5 25t121.5 61v613q-37 22 -106.5 37.5t-133.5 15.5q-163 0 -258.5 -102t-95.5 -285z" />
<glyph unicode="&#x112;" horiz-adv-x="1210" d="M76 0v94q145 8 170 33q12 12 15 38.5t3 92.5v879q0 103 -12 120q-10 15 -46 22t-130 13v92h856q71 0 97 -25t26 -73q0 -82 -15 -225h-90q-15 149 -51 174q-25 19 -76 25t-182 6h-225v-490h162q90 0 123.5 6.5t50.5 28.5q30 34 36 127h89q-3 -79 -3 -213q0 -95 3 -221h-82 q-10 88 -39 129q-16 21 -53.5 26t-129.5 5h-157v-453q0 -44 13 -63.5t44 -22.5q68 -8 195 -8q145 0 208.5 13t90.5 42q39 41 80 180h86q-3 -205 -35 -295q-9 -27 -50.5 -42t-105.5 -15h-866zM342 1550v125h559v-125h-559z" />
<glyph unicode="&#x113;" horiz-adv-x="1017" d="M100 455q0 125 36 224t99.5 161.5t147 95.5t182.5 33q81 0 145 -21t104.5 -55.5t67 -82t37.5 -98t11 -106.5q0 -88 -25 -110q-19 -17 -84 -17h-577v-33q0 -154 84.5 -250t249.5 -96q90 0 164 30t151 87l59 -90q-177 -156 -397 -156q-113 0 -201 38t-143 104.5t-83 153.5 t-28 188zM252 584l539 6v20q0 113 -56 177.5t-190 64.5q-114 0 -196.5 -69.5t-96.5 -198.5zM293 1147v121h520v-121h-520z" />
<glyph unicode="&#x114;" horiz-adv-x="1210" d="M76 0v94q145 8 170 33q12 12 15 38.5t3 92.5v879q0 103 -12 120q-10 15 -46 22t-130 13v92h856q71 0 97 -25t26 -73q0 -82 -15 -225h-90q-15 149 -51 174q-25 19 -76 25t-182 6h-225v-490h162q90 0 123.5 6.5t50.5 28.5q30 34 36 127h89q-3 -79 -3 -213q0 -95 3 -221h-82 q-10 88 -39 129q-16 21 -53.5 26t-129.5 5h-157v-453q0 -44 13 -63.5t44 -22.5q68 -8 195 -8q145 0 208.5 13t90.5 42q39 41 80 180h86q-3 -205 -35 -295q-9 -27 -50.5 -42t-105.5 -15h-866zM336 1798l74 6q9 -86 63.5 -134t149.5 -48q188 0 217 182l73 -4q-1 -143 -84 -223 t-206 -80q-130 0 -208 72.5t-79 228.5z" />
<glyph unicode="&#x115;" horiz-adv-x="1017" d="M100 455q0 125 36 224t99.5 161.5t147 95.5t182.5 33q81 0 145 -21t104.5 -55.5t67 -82t37.5 -98t11 -106.5q0 -88 -25 -110q-19 -17 -84 -17h-577v-33q0 -154 84.5 -250t249.5 -96q90 0 164 30t151 87l59 -90q-177 -156 -397 -156q-113 0 -201 38t-143 104.5t-83 153.5 t-28 188zM252 584l539 6v20q0 113 -56 177.5t-190 64.5q-114 0 -196.5 -69.5t-96.5 -198.5zM287 1391l75 4q11 -88 59 -135.5t130 -47.5t130 44.5t67 138.5l73 -2q-1 -147 -75.5 -225t-194.5 -78q-127 0 -195 69t-69 232z" />
<glyph unicode="&#x116;" horiz-adv-x="1210" d="M76 0v94q145 8 170 33q12 12 15 38.5t3 92.5v879q0 103 -12 120q-10 15 -46 22t-130 13v92h856q71 0 97 -25t26 -73q0 -82 -15 -225h-90q-15 149 -51 174q-25 19 -76 25t-182 6h-225v-490h162q90 0 123.5 6.5t50.5 28.5q30 34 36 127h89q-3 -79 -3 -213q0 -95 3 -221h-82 q-10 88 -39 129q-16 21 -53.5 26t-129.5 5h-157v-453q0 -44 13 -63.5t44 -22.5q68 -8 195 -8q145 0 208.5 13t90.5 42q39 41 80 180h86q-3 -205 -35 -295q-9 -27 -50.5 -42t-105.5 -15h-866zM528 1622q0 42 27 69t70 27t68.5 -27t25.5 -69q0 -41 -27 -70.5t-71 -29.5 q-39 0 -66 29t-27 71z" />
<glyph unicode="&#x117;" horiz-adv-x="1017" d="M100 455q0 125 36 224t99.5 161.5t147 95.5t182.5 33q81 0 145 -21t104.5 -55.5t67 -82t37.5 -98t11 -106.5q0 -88 -25 -110q-19 -17 -84 -17h-577v-33q0 -154 84.5 -250t249.5 -96q90 0 164 30t151 87l59 -90q-177 -156 -397 -156q-113 0 -201 38t-143 104.5t-83 153.5 t-28 188zM252 584l539 6v20q0 113 -56 177.5t-190 64.5q-114 0 -196.5 -69.5t-96.5 -198.5zM449 1274q0 40 27 68t69 28q43 0 68.5 -27.5t25.5 -68.5q0 -44 -26.5 -72t-71.5 -28q-39 0 -65.5 28t-26.5 72z" />
<glyph unicode="&#x118;" horiz-adv-x="1210" d="M76 0v94q145 8 170 33q12 12 15 38.5t3 92.5v879q0 103 -12 120q-10 15 -46 22t-130 13v92h856q71 0 97 -25t26 -73q0 -82 -15 -225h-90q-15 149 -51 174q-25 19 -76 25t-182 6h-225v-490h162q90 0 123.5 6.5t50.5 28.5q30 34 36 127h89q-3 -79 -3 -213q0 -95 3 -221h-82 q-10 88 -39 129q-16 21 -53.5 26t-129.5 5h-157v-453q0 -44 13 -63.5t44 -22.5q68 -8 195 -8q145 0 208.5 13t90.5 42q39 41 80 180h86q-3 -205 -35 -295q-15 -47 -117 -57q-188 -200 -188 -328q0 -58 30 -90.5t86 -32.5q29 0 72.5 9.5t69.5 21.5l30 -69q-111 -76 -217 -76 q-98 0 -147 58t-49 145q0 90 51.5 172t167.5 190h-811z" />
<glyph unicode="&#x119;" horiz-adv-x="1017" d="M100 455q0 125 36 224t99.5 161.5t147 95.5t182.5 33q81 0 145 -21t104.5 -55.5t67 -82t37.5 -98t11 -106.5q0 -88 -25 -110q-19 -17 -84 -17h-577v-33q0 -154 84.5 -250t249.5 -96q90 0 164 30t151 87l59 -90q-116 -104 -266 -139q-89 -98 -129.5 -169.5t-40.5 -135.5 q0 -54 29.5 -85.5t83.5 -31.5q69 0 139 28l29 -65q-104 -74 -211 -74q-96 0 -144.5 56.5t-48.5 140.5q0 81 43.5 153.5t141.5 165.5h-23q-113 0 -201 38t-143 104.5t-83 153.5t-28 188zM252 584l539 6v20q0 113 -56 177.5t-190 64.5q-114 0 -196.5 -69.5t-96.5 -198.5z" />
<glyph unicode="&#x11a;" horiz-adv-x="1210" d="M76 0v94q145 8 170 33q12 12 15 38.5t3 92.5v879q0 103 -12 120q-10 15 -46 22t-130 13v92h856q71 0 97 -25t26 -73q0 -82 -15 -225h-90q-15 149 -51 174q-25 19 -76 25t-182 6h-225v-490h162q90 0 123.5 6.5t50.5 28.5q30 34 36 127h89q-3 -79 -3 -213q0 -95 3 -221h-82 q-10 88 -39 129q-16 21 -53.5 26t-129.5 5h-157v-453q0 -44 13 -63.5t44 -22.5q68 -8 195 -8q145 0 208.5 13t90.5 42q39 41 80 180h86q-3 -205 -35 -295q-9 -27 -50.5 -42t-105.5 -15h-866zM322 1786l53 47l248 -205l247 205l52 -47l-234 -279q-35 -41 -72 -41 q-39 0 -75 45z" />
<glyph unicode="&#x11b;" horiz-adv-x="1017" d="M100 455q0 125 36 224t99.5 161.5t147 95.5t182.5 33q81 0 145 -21t104.5 -55.5t67 -82t37.5 -98t11 -106.5q0 -88 -25 -110q-19 -17 -84 -17h-577v-33q0 -154 84.5 -250t249.5 -96q90 0 164 30t151 87l59 -90q-177 -156 -397 -156q-113 0 -201 38t-143 104.5t-83 153.5 t-28 188zM252 584l539 6v20q0 113 -56 177.5t-190 64.5q-114 0 -196.5 -69.5t-96.5 -198.5zM283 1395l57 45l223 -234l223 234l56 -43l-213 -312q-28 -41 -72 -41q-45 0 -74 41z" />
<glyph unicode="&#x11c;" horiz-adv-x="1452" d="M104 668q0 172 53.5 313t149.5 236.5t230 147.5t294 52q206 0 343 -49q96 -33 96 -119q0 -32 -6.5 -100.5t-14.5 -112.5h-92q-10 145 -47 185q-62 69 -289 69q-65 0 -125.5 -12t-116.5 -37t-104 -61t-87 -86t-66.5 -110.5t-42.5 -135.5t-15 -160q0 -122 28.5 -221.5 t78.5 -167t120 -113.5t150 -67t170 -21q205 0 272 54q19 17 19 90v166q0 54 -3.5 75t-15.5 31q-20 18 -174 25v98q177 -6 260 -6q120 0 222 6v-98q-59 -2 -86.5 -7.5t-38.5 -21.5q-13 -16 -13 -102v-263q0 -87 -71 -110q-182 -66 -404 -66q-148 0 -271.5 46t-213 133 t-139.5 220t-50 300zM477 1513l234 277q33 41 69 41q23 0 40 -9.5t36 -33.5l221 -275l-55 -49l-248 207l-248 -207z" />
<glyph unicode="&#x11d;" horiz-adv-x="1050" d="M37 -276q0 108 90 184q74 63 147 96q-96 41 -96 125q0 85 119 164q-195 95 -195 309q0 163 108.5 265t283.5 102q143 0 227 -47q205 0 287 -7v-102q-117 -6 -185 -6q28 -27 44 -83.5t16 -105.5q0 -174 -111 -269t-285 -95q-76 0 -106 6q-42 -28 -58 -48t-16 -46 q0 -16 19.5 -31.5t56.5 -25.5q52 -15 195.5 -39t177.5 -31q129 -26 186 -88.5t57 -167.5q0 -156 -137 -252t-358 -96q-220 0 -343.5 81.5t-123.5 207.5zM176 -256q0 -76 86 -132t254 -56q94 0 163 19.5t105 51.5t52 66t16 71q0 27 -8.5 47t-33 42t-75 39t-127.5 30 q-193 31 -248 47q-101 -58 -142.5 -111t-41.5 -114zM231 1090l213 309q26 41 70 41q49 0 76 -39l201 -309l-58 -48l-225 236l-221 -236zM242 621q0 -131 69.5 -190.5t184.5 -59.5q110 0 179.5 58.5t69.5 170.5q0 252 -253 252q-120 0 -185 -65t-65 -166z" />
<glyph unicode="&#x11e;" horiz-adv-x="1452" d="M104 668q0 172 53.5 313t149.5 236.5t230 147.5t294 52q206 0 343 -49q96 -33 96 -119q0 -32 -6.5 -100.5t-14.5 -112.5h-92q-10 145 -47 185q-62 69 -289 69q-65 0 -125.5 -12t-116.5 -37t-104 -61t-87 -86t-66.5 -110.5t-42.5 -135.5t-15 -160q0 -122 28.5 -221.5 t78.5 -167t120 -113.5t150 -67t170 -21q205 0 272 54q19 17 19 90v166q0 54 -3.5 75t-15.5 31q-20 18 -174 25v98q177 -6 260 -6q120 0 222 6v-98q-59 -2 -86.5 -7.5t-38.5 -21.5q-13 -16 -13 -102v-263q0 -87 -71 -110q-182 -66 -404 -66q-148 0 -271.5 46t-213 133 t-139.5 220t-50 300zM489 1798l74 6q9 -86 63.5 -134t149.5 -48q188 0 217 182l74 -4q-1 -96 -41.5 -166t-105 -103.5t-144.5 -33.5q-50 0 -92 10t-78.5 33t-61.5 57.5t-39.5 85.5t-15.5 115z" />
<glyph unicode="&#x11f;" horiz-adv-x="1050" d="M37 -276q0 108 90 184q74 63 147 96q-96 41 -96 125q0 85 119 164q-195 95 -195 309q0 163 108.5 265t283.5 102q143 0 227 -47q205 0 287 -7v-102q-117 -6 -185 -6q28 -27 44 -83.5t16 -105.5q0 -174 -111 -269t-285 -95q-76 0 -106 6q-42 -28 -58 -48t-16 -46 q0 -16 19.5 -31.5t56.5 -25.5q52 -15 195.5 -39t177.5 -31q129 -26 186 -88.5t57 -167.5q0 -156 -137 -252t-358 -96q-220 0 -343.5 81.5t-123.5 207.5zM176 -256q0 -76 86 -132t254 -56q94 0 163 19.5t105 51.5t52 66t16 71q0 27 -8.5 47t-33 42t-75 39t-127.5 30 q-193 31 -248 47q-101 -58 -142.5 -111t-41.5 -114zM242 621q0 -131 69.5 -190.5t184.5 -59.5q110 0 179.5 58.5t69.5 170.5q0 252 -253 252q-120 0 -185 -65t-65 -166zM242 1391l75 4q11 -88 59 -135.5t130 -47.5t129.5 44.5t66.5 138.5l74 -2q-1 -147 -75.5 -225 t-194.5 -78q-127 0 -195 69t-69 232z" />
<glyph unicode="&#x120;" horiz-adv-x="1452" d="M104 668q0 172 53.5 313t149.5 236.5t230 147.5t294 52q206 0 343 -49q96 -33 96 -119q0 -32 -6.5 -100.5t-14.5 -112.5h-92q-10 145 -47 185q-62 69 -289 69q-65 0 -125.5 -12t-116.5 -37t-104 -61t-87 -86t-66.5 -110.5t-42.5 -135.5t-15 -160q0 -122 28.5 -221.5 t78.5 -167t120 -113.5t150 -67t170 -21q205 0 272 54q19 17 19 90v166q0 54 -3.5 75t-15.5 31q-20 18 -174 25v98q177 -6 260 -6q120 0 222 6v-98q-59 -2 -86.5 -7.5t-38.5 -21.5q-13 -16 -13 -102v-263q0 -87 -71 -110q-182 -66 -404 -66q-148 0 -271.5 46t-213 133 t-139.5 220t-50 300zM709 1622q0 27 12 49t34 34.5t50 12.5q43 0 68.5 -27t25.5 -69q0 -41 -27 -70.5t-71 -29.5q-39 0 -65.5 29t-26.5 71z" />
<glyph unicode="&#x121;" horiz-adv-x="1050" d="M37 -276q0 108 90 184q74 63 147 96q-96 41 -96 125q0 85 119 164q-195 95 -195 309q0 163 108.5 265t283.5 102q143 0 227 -47q205 0 287 -7v-102q-117 -6 -185 -6q28 -27 44 -83.5t16 -105.5q0 -174 -111 -269t-285 -95q-76 0 -106 6q-42 -28 -58 -48t-16 -46 q0 -16 19.5 -31.5t56.5 -25.5q52 -15 195.5 -39t177.5 -31q129 -26 186 -88.5t57 -167.5q0 -156 -137 -252t-358 -96q-220 0 -343.5 81.5t-123.5 207.5zM176 -256q0 -76 86 -132t254 -56q94 0 163 19.5t105 51.5t52 66t16 71q0 27 -8.5 47t-33 42t-75 39t-127.5 30 q-193 31 -248 47q-101 -58 -142.5 -111t-41.5 -114zM242 621q0 -131 69.5 -190.5t184.5 -59.5q110 0 179.5 58.5t69.5 170.5q0 252 -253 252q-120 0 -185 -65t-65 -166zM418 1274q0 40 27 68t69 28q43 0 68.5 -27.5t25.5 -68.5q0 -44 -26.5 -72t-71.5 -28q-39 0 -65.5 28 t-26.5 72z" />
<glyph unicode="&#x122;" horiz-adv-x="1452" d="M104 668q0 172 53.5 313t149.5 236.5t230 147.5t294 52q206 0 343 -49q96 -33 96 -119q0 -32 -6.5 -100.5t-14.5 -112.5h-92q-10 145 -47 185q-62 69 -289 69q-65 0 -125.5 -12t-116.5 -37t-104 -61t-87 -86t-66.5 -110.5t-42.5 -135.5t-15 -160q0 -122 28.5 -221.5 t78.5 -167t120 -113.5t150 -67t170 -21q205 0 272 54q19 17 19 90v166q0 54 -3.5 75t-15.5 31q-20 18 -174 25v98q177 -6 260 -6q120 0 222 6v-98q-59 -2 -86.5 -7.5t-38.5 -21.5q-13 -16 -13 -102v-263q0 -87 -71 -110q-182 -66 -404 -66q-148 0 -271.5 46t-213 133 t-139.5 220t-50 300zM604 -510q30 19 53 36.5t39.5 32.5t28 28t17.5 25t9 22.5t3 21.5q0 18 -8 35t-25 24q-29 14 -44 36t-15 59q0 41 30 69.5t74 28.5q41 0 70 -19.5t43 -53t14 -79.5q0 -90 -56 -171t-192 -156z" />
<glyph unicode="&#x123;" horiz-adv-x="1050" d="M37 -276q0 108 86 184q58 49 153 94q-98 39 -98 125q0 87 119 166q-195 95 -195 309q0 163 108.5 265t283.5 102q143 0 227 -47q205 0 287 -7v-102q-117 -6 -185 -6q28 -27 44 -83.5t16 -105.5q0 -174 -111 -269t-285 -95q-76 0 -106 6q-41 -28 -57.5 -50t-16.5 -48 q0 -15 20 -31.5t56 -26.5q52 -16 192.5 -37.5t180.5 -29.5q129 -26 186 -87.5t57 -166.5q0 -159 -136.5 -253.5t-358.5 -94.5q-220 0 -343.5 81.5t-123.5 207.5zM176 -258q0 -75 86 -130.5t254 -55.5q92 0 160.5 18.5t105 49t53.5 63t17 65.5t-8.5 55.5t-33 46t-75 40.5 t-127.5 30q-31 5 -66.5 10.5t-54 8t-40 6t-32 5.5t-22.5 4.5t-19 5t-14 5.5q-84 -39 -134 -97.5t-50 -129.5zM242 621q0 -132 69 -191t185 -59q111 0 180 58t69 171q0 254 -253 254q-120 0 -185 -65.5t-65 -167.5zM385 1255q0 190 248 328l41 -61q-84 -54 -117 -92.5 t-33 -71.5q0 -47 33 -64q61 -31 61 -94q0 -39 -30 -66.5t-74 -27.5q-63 0 -96 40t-33 109z" />
<glyph unicode="&#x124;" horiz-adv-x="1536" d="M76 -2v96q89 6 125.5 13t48.5 22q9 10 11.5 34t2.5 95v877q0 103 -14 122q-16 22 -174 35v94q28 -1 87 -2.5t101 -2.5t64 -1q14 0 278 6v-94q-94 -7 -130 -15.5t-46 -21.5q-14 -22 -14 -118v-355h702v353q0 103 -14 122q-19 22 -174 35v94l252 -6q14 0 278 6v-94 q-94 -7 -130 -15.5t-46 -21.5q-14 -19 -14 -118v-877q0 -72 2.5 -96t11.5 -33q21 -28 176 -37v-96q-176 4 -268 4q-90 0 -262 -4v96q89 6 125.5 13t48.5 22q9 10 11.5 34t2.5 95v408h-702v-406q0 -112 14 -129q21 -28 176 -37v-96q-176 4 -270 4q-88 0 -260 -4zM461 1513 l233 277q33 41 70 41q41 0 76 -43l221 -275l-55 -49l-248 207l-248 -207z" />
<glyph unicode="&#x125;" horiz-adv-x="1193" d="M-4 1556l233 277q33 41 70 41q41 0 76 -43l221 -275l-55 -49l-248 207l-248 -207zM53 1352v86q108 59 209 59q51 0 75.5 -28.5t24.5 -112.5q0 -58 -2 -232t-2 -305q70 68 169 108t202 40q57 0 107 -19t79 -49q34 -39 49 -101.5t15 -168.5v-396q0 -76 12 -100 q10 -16 41 -25t115 -16v-94q-172 4 -232 4q-49 0 -225 -4v94q67 6 96.5 13.5t38.5 21.5q19 23 19 111v364q0 119 -33 168q-43 59 -158 59q-73 0 -155.5 -24t-137.5 -64v-505q0 -92 17 -111q9 -12 36 -19t101 -14v-94q-176 4 -246 4q-119 0 -209 -4v94q80 8 109 14t39 19 q16 19 16 108v879q0 109 -5.5 157.5t-20.5 63.5q-23 23 -80 23q-10 0 -64 -4z" />
<glyph unicode="&#x126;" horiz-adv-x="1536" d="M68 950v107h196v78q0 103 -14 122q-16 22 -174 35v94q28 -1 87 -2.5t101 -2.5t64 -1q14 0 278 6v-94q-94 -7 -130 -15.5t-46 -21.5q-14 -22 -14 -118v-80h702v78q0 103 -14 122q-19 22 -174 35v94l252 -6q14 0 278 6v-94q-94 -7 -130 -15.5t-46 -21.5q-14 -19 -14 -118 v-80h196v-107h-196v-690q0 -72 2.5 -96t11.5 -33q21 -28 176 -37v-96q-176 4 -268 4q-90 0 -262 -4v96q89 6 125.5 13t48.5 22q9 10 11.5 34t2.5 95v408h-702v-406q0 -112 14 -129q21 -28 176 -37v-96q-176 4 -270 4q-88 0 -260 -4v96q89 6 125.5 13t48.5 22q9 10 11.5 34 t2.5 95v692h-196zM416 780h702v170h-702v-170z" />
<glyph unicode="&#x127;" horiz-adv-x="1193" d="M53 1352v86q108 59 209 59q51 0 75.5 -28.5t24.5 -112.5q0 -28 -1 -91t-1 -98h302v-90h-304v-258q70 68 169 108t202 40q58 0 109 -18.5t77 -49.5q35 -36 49.5 -99t14.5 -171v-396q0 -76 12 -100q10 -16 41 -25t115 -16v-94q-172 4 -232 4q-49 0 -225 -4v94 q67 6 96.5 13.5t38.5 21.5q19 23 19 111v364q0 119 -33 168q-43 59 -158 59q-73 0 -155.5 -24t-137.5 -64v-505q0 -92 17 -111q9 -12 36 -19t101 -14v-94q-176 4 -246 4q-119 0 -209 -4v94q80 8 109 14t39 19q16 19 16 108v844h-168v90h168q-3 133 -26 166q-29 23 -80 23 q-10 0 -64 -4z" />
<glyph unicode="&#x128;" horiz-adv-x="681" d="M31 1526q24 92 70 152.5t110 60.5q39 0 115 -31l59 -25q61 -28 92 -28q51 0 101 110l71 -24q-58 -217 -166 -217q-49 0 -139 37l-51 20q-59 23 -88 23q-33 0 -54 -22t-53 -81zM76 -2v96q86 6 124 13.5t50 21.5q9 9 11.5 33t2.5 96v877q0 103 -14 122q-16 22 -174 35v94 q234 -6 254 -6q12 0 276 6v-94q-94 -7 -130 -15.5t-46 -21.5q-14 -22 -14 -118v-877q0 -110 14 -127q20 -29 176 -39v-96q-176 4 -268 4q-90 0 -262 -4z" />
<glyph unicode="&#x129;" horiz-adv-x="606" d="M-18 1139q26 94 69.5 153.5t104.5 59.5q45 0 108 -29l58 -25q57 -26 90 -26q27 0 49.5 25.5t48.5 80.5l68 -22q-27 -107 -70 -163t-92 -56q-43 0 -129 37l-49 22q-53 23 -88 23q-32 0 -52 -23t-49 -82zM70 -2v94q74 6 105.5 12.5t41.5 18.5q16 19 16 110v418 q0 99 -18 131.5t-88 32.5q-29 0 -57 -4v86q105 61 206 61q50 0 75.5 -27.5t25.5 -109.5q0 -89 -4 -290t-4 -295q0 -90 18 -111q9 -14 37 -20.5t104 -12.5v-94q-176 4 -247 4q-121 0 -211 -4z" />
<glyph unicode="&#x12a;" horiz-adv-x="681" d="M76 -2v96q86 6 124 13.5t50 21.5q9 9 11.5 33t2.5 96v877q0 103 -14 122q-16 22 -174 35v94q234 -6 254 -6q12 0 276 6v-94q-94 -7 -130 -15.5t-46 -21.5q-14 -22 -14 -118v-877q0 -110 14 -127q20 -29 176 -39v-96q-176 4 -268 4q-90 0 -262 -4zM82 1608v121h520v-121 h-520z" />
<glyph unicode="&#x12b;" horiz-adv-x="606" d="M20 1147v121h521v-121h-521zM70 -2v94q74 6 105.5 12.5t41.5 18.5q16 19 16 110v418q0 99 -18 131.5t-88 32.5q-29 0 -57 -4v86q105 61 206 61q50 0 75.5 -27.5t25.5 -109.5q0 -89 -4 -290t-4 -295q0 -90 18 -111q9 -14 37 -20.5t104 -12.5v-94q-176 4 -247 4 q-121 0 -211 -4z" />
<glyph unicode="&#x12c;" horiz-adv-x="681" d="M53 1798l74 6q9 -86 63.5 -134t149.5 -48q188 0 217 182l74 -4q-1 -143 -84.5 -223t-206.5 -80q-130 0 -208 72.5t-79 228.5zM76 -2v96q86 6 124 13.5t50 21.5q9 9 11.5 33t2.5 96v877q0 103 -14 122q-16 22 -174 35v94q234 -6 254 -6q12 0 276 6v-94q-94 -7 -130 -15.5 t-46 -21.5q-14 -22 -14 -118v-877q0 -110 14 -127q20 -29 176 -39v-96q-176 4 -268 4q-90 0 -262 -4z" />
<glyph unicode="&#x12d;" horiz-adv-x="606" d="M31 1391l75 4q11 -88 59 -135.5t130 -47.5t130 44.5t67 138.5l73 -2q-1 -147 -75.5 -225t-194.5 -78q-127 0 -195 69t-69 232zM70 -2v94q74 6 105.5 12.5t41.5 18.5q16 19 16 110v418q0 99 -18 131.5t-88 32.5q-29 0 -57 -4v86q105 61 206 61q50 0 75.5 -27.5 t25.5 -109.5q0 -89 -4 -290t-4 -295q0 -90 18 -111q9 -14 37 -20.5t104 -12.5v-94q-176 4 -247 4q-121 0 -211 -4z" />
<glyph unicode="&#x12e;" horiz-adv-x="681" d="M76 -2v96q86 6 124 13.5t50 21.5q9 9 11.5 33t2.5 96v877q0 103 -14 122q-16 22 -174 35v94q234 -6 254 -6q12 0 276 6v-94q-94 -7 -130 -15.5t-46 -21.5q-14 -22 -14 -118v-877q0 -110 14 -127q20 -29 176 -39v-96l-198 4q-99 -105 -145 -184t-46 -146q0 -58 30.5 -90.5 t86.5 -32.5q29 0 72 9.5t69 21.5l31 -69q-111 -76 -217 -76q-98 0 -147.5 58t-49.5 145q0 90 52.5 173t168.5 191q-85 0 -237 -4z" />
<glyph unicode="&#x12f;" horiz-adv-x="606" d="M70 -2v94q74 6 105.5 12.5t41.5 18.5q16 19 16 110v418q0 99 -18 131.5t-88 32.5q-29 0 -57 -4v86q105 61 206 61q50 0 75.5 -27.5t25.5 -109.5q0 -89 -4 -290t-4 -295q0 -87 18 -111q11 -14 38.5 -20.5t102.5 -12.5v-94q-47 2 -147 2q-96 -101 -140 -175.5t-44 -141.5 q0 -54 29 -85.5t83 -31.5q70 0 140 28l28 -65q-104 -74 -211 -74q-96 0 -144 56t-48 141q0 86 51.5 165.5t165.5 184.5h-10q-121 0 -211 -4zM160 1333q0 51 30.5 83t79.5 32q55 0 82 -30.5t27 -80.5q0 -49 -31 -80.5t-84 -31.5q-46 0 -75 31.5t-29 76.5z" />
<glyph unicode="&#x130;" horiz-adv-x="681" d="M76 -2v96q86 6 124 13.5t50 21.5q9 9 11.5 33t2.5 96v877q0 103 -14 122q-16 22 -174 35v94q234 -6 254 -6q12 0 276 6v-94q-94 -7 -130 -15.5t-46 -21.5q-14 -22 -14 -118v-877q0 -110 14 -127q20 -29 176 -39v-96q-176 4 -268 4q-90 0 -262 -4zM248 1622q0 42 27 69 t69 27q43 0 68.5 -27t25.5 -69q0 -41 -27 -70.5t-71 -29.5q-39 0 -65.5 29t-26.5 71z" />
<glyph unicode="&#x131;" horiz-adv-x="606" d="M70 -2v94q74 6 105.5 12.5t41.5 18.5q16 19 16 110v418q0 99 -18 131.5t-88 32.5q-29 0 -57 -4v86q105 61 206 61q50 0 75.5 -27.5t25.5 -109.5q0 -89 -4 -290t-4 -295q0 -90 18 -111q9 -14 37 -20.5t104 -12.5v-94q-176 4 -247 4q-121 0 -211 -4z" />
<glyph unicode="&#x132;" horiz-adv-x="1323" d="M76 -2v96q86 6 124 13.5t50 21.5q9 9 11.5 33t2.5 96v877q0 103 -14 122q-16 22 -174 35v94q234 -6 254 -6q12 0 276 6v-94q-94 -7 -130 -15.5t-46 -21.5q-14 -22 -14 -118v-877q0 -110 14 -127q20 -29 176 -39v-96q-176 4 -268 4q-90 0 -262 -4zM666 -227 q199 104 237 250q31 127 31 315v797q0 103 -14 122q-15 22 -181 35v94q240 -6 260 -6q9 0 273 6v-94q-153 -11 -172 -37q-15 -24 -15 -118v-795q0 -270 -51 -389q-34 -80 -121.5 -153t-199.5 -122z" />
<glyph unicode="&#x133;" horiz-adv-x="1155" d="M70 -2v94q74 6 105.5 12.5t41.5 18.5q16 19 16 110v418q0 99 -18 131.5t-88 32.5q-29 0 -57 -4v86q105 61 206 61q50 0 75.5 -27.5t25.5 -109.5q0 -89 -4 -290t-4 -295q0 -87 18 -111q11 -14 38.5 -20.5t102.5 -12.5v-94q-176 4 -247 4q-121 0 -211 -4zM160 1333 q0 51 30.5 83t79.5 32q55 0 82 -30.5t27 -80.5q0 -49 -31 -80.5t-84 -31.5q-46 0 -75 31.5t-29 76.5zM588 -477q78 35 124 70.5t72 87.5q37 73 37 294v680q0 98 -18.5 131t-89.5 33q-24 0 -60 -6v84q105 61 205 61q50 0 74 -27t24 -110q0 -91 3.5 -407.5t3.5 -401.5 q0 -152 -10.5 -233t-47.5 -144q-39 -67 -120 -120t-167 -78zM743 1333q0 51 30 83t79 32q56 0 83.5 -30.5t27.5 -80.5q0 -49 -31 -80.5t-84 -31.5q-48 0 -76.5 31t-28.5 77z" />
<glyph unicode="&#x134;" horiz-adv-x="643" d="M-14 -227q199 104 237 250q31 127 31 315v797q0 103 -14 122q-15 22 -181 35v94q240 -6 260 -6q9 0 273 6v-94q-153 -11 -172 -37q-14 -22 -14 -118v-795q0 -267 -52 -389q-34 -80 -121.5 -153t-199.5 -122zM51 1550l213 310q26 41 70 41q49 0 76 -39l200 -310l-57 -47 l-225 236l-222 -236z" />
<glyph unicode="&#x135;" horiz-adv-x="550" d="M-29 1090l215 309q24 41 70 41q47 0 74 -39l202 -309l-59 -48l-223 236l-221 -236zM-16 -477q78 35 124 70.5t72 87.5q37 73 37 294v680q0 96 -19.5 130t-88.5 34q-24 0 -60 -6v84q105 61 205 61q50 0 74 -27t24 -110q0 -91 3 -407.5t3 -401.5q0 -154 -10 -234.5 t-47 -142.5q-39 -67 -120 -120t-167 -78z" />
<glyph unicode="&#x136;" horiz-adv-x="1353" d="M76 -2v96q130 9 150 15q16 6 24 16q9 12 11.5 36t2.5 95v881q0 104 -14 123t-174 32v94q28 -1 87 -2.5t101 -2.5t64 -1q20 0 284 6v-94q-96 -7 -134.5 -15t-47.5 -20q-14 -22 -14 -120v-881q0 -109 14 -129q22 -25 182 -33v-96q-176 4 -276 4q-88 0 -260 -4zM451 707 q157 144 428 436q65 73 65 108q0 19 -29 27t-114 14v94q92 -4 266 -4q148 0 238 4v-94q-3 0 -18.5 -1t-24 -1.5t-22 -2.5t-24 -5t-18.5 -8q-48 -21 -151 -127q-12 -12 -116.5 -117.5t-192.5 -194t-115 -112.5q106 -139 254 -308.5t221 -230.5q61 -50 116 -71q54 -21 119 -21 v-92q-31 -8 -100 -8q-62 0 -129.5 21t-114.5 59q-85 69 -255 273t-283 362zM557 -510q85 55 117.5 93.5t32.5 72.5q0 46 -33 59q-60 29 -60 95q0 41 30.5 69.5t74.5 28.5q61 0 94 -41.5t33 -110.5q0 -191 -248 -327z" />
<glyph unicode="&#x137;" horiz-adv-x="1105" d="M76 1354v84q108 59 207 59q25 0 41 -4t30.5 -16.5t21.5 -39.5t7 -69q0 -24 -1 -140.5t-1 -199.5v-792q0 -89 16 -113q9 -12 39 -18.5t103 -12.5v-94q-176 4 -248 4q-121 0 -211 -4v94q130 11 147 31t17 108v945q0 44 -1.5 68t-7.5 50t-18 38t-33 20t-53 8q-31 0 -55 -6z M403 481q116 89 240 213q48 50 65 75t17 44q0 13 -9.5 20.5t-39 12.5t-86.5 8v88q96 -4 229 -4q134 0 228 4v-88q-64 -4 -97 -20q-41 -23 -113 -86t-159 -146t-111 -104q155 -199 277 -305q72 -57 108 -74q50 -21 135 -25v-94q-40 -4 -94 -4q-139 0 -237 80q-35 29 -69.5 63 t-75.5 82.5t-64.5 77.5t-75 95t-68.5 87zM428 -510q58 38 92.5 69t46 53t11.5 44q0 18 -8 35t-25 24q-20 10 -32.5 21.5t-20 30t-7.5 43.5q0 41 30.5 69.5t74.5 28.5q41 0 70 -19.5t43 -53t14 -79.5q0 -90 -56 -171t-192 -156z" />
<glyph unicode="&#x138;" horiz-adv-x="1105" d="M80 -2v94q130 11 147 31t17 108v404q0 131 -33 162q-18 18 -80 18q-35 0 -51 -4v86q105 61 203 61q49 0 74.5 -30.5t25.5 -112.5q0 -20 -1 -128.5t-1 -190.5v-260q0 -89 16 -113q9 -12 39 -18.5t103 -12.5v-94q-176 4 -248 4q-121 0 -211 -4zM403 481q35 26 103 86.5 t133 126.5q49 51 66.5 76t17.5 43q0 20 -25.5 28.5t-109.5 12.5v88q96 -4 233 -4q132 0 226 4v-88q-62 -4 -95 -20q-72 -40 -161 -127q-28 -26 -113.5 -105.5t-112.5 -103.5q78 -98 144 -164.5t151 -140.5q79 -57 111 -70q76 -26 133 -29v-94q-36 -4 -94 -4 q-60 0 -123.5 20.5t-112.5 59.5q-35 29 -71 63.5t-78.5 81.5t-69.5 78.5t-79 94t-73 87.5z" />
<glyph unicode="&#x139;" horiz-adv-x="1210" d="M76 0v94q145 8 170 33q12 12 15 37.5t3 93.5v881q0 102 -14 121q-19 22 -174 32v94q234 -6 254 -6q26 0 284 6v-94q-166 -13 -184 -37q-14 -22 -14 -118v-926q0 -44 13 -62.5t44 -23.5q71 -8 195 -8q145 0 207.5 13t89.5 42q44 47 82 186h83q-1 -89 -12 -173.5 t-26 -127.5q-18 -57 -152 -57h-864zM242 1526l237 248q38 38 60.5 51.5t46.5 13.5q28 0 49.5 -22t21.5 -52q0 -48 -84 -106l-284 -189z" />
<glyph unicode="&#x13a;" horiz-adv-x="614" d="M76 1354v84q105 59 207 59q25 0 41 -4t30.5 -16.5t21.5 -39.5t7 -69q0 -24 -1 -208.5t-1 -270.5v-653q0 -90 16 -111q17 -23 142 -33v-94q-176 4 -248 4q-121 0 -211 -4v94q75 6 106 13t41 20q17 20 17 108v840q0 231 -33 266q-21 21 -80 21q-31 0 -55 -6zM115 1661 l237 248q38 38 60.5 51.5t46.5 13.5q28 0 49.5 -21.5t21.5 -51.5q0 -49 -84 -107l-284 -188z" />
<glyph unicode="&#x13b;" horiz-adv-x="1210" d="M76 0v94q145 8 170 33q12 12 15 37.5t3 93.5v881q0 102 -14 121q-19 22 -174 32v94q234 -6 254 -6q26 0 284 6v-94q-166 -13 -184 -37q-14 -22 -14 -118v-926q0 -44 13 -62.5t44 -23.5q71 -8 195 -8q145 0 207.5 13t89.5 42q44 47 82 186h83q-1 -89 -12 -173.5 t-26 -127.5q-18 -57 -152 -57h-864zM469 -510q85 55 117 93.5t32 72.5q0 46 -32 59q-60 29 -60 95q0 41 30.5 69.5t74.5 28.5q61 0 94 -41.5t33 -110.5q0 -191 -248 -327z" />
<glyph unicode="&#x13c;" horiz-adv-x="614" d="M76 1354v84q105 59 207 59q25 0 41 -4t30.5 -16.5t21.5 -39.5t7 -69q0 -24 -1 -208.5t-1 -270.5v-653q0 -90 16 -111q17 -23 142 -33v-94q-176 4 -248 4q-121 0 -211 -4v94q75 6 106 13t41 20q17 20 17 108v840q0 231 -33 266q-21 21 -80 21q-31 0 -55 -6zM162 -510 q85 55 117 93.5t32 72.5q0 46 -32 59q-60 29 -60 95q0 41 30.5 69.5t74.5 28.5q61 0 94 -41.5t33 -110.5q0 -191 -248 -327z" />
<glyph unicode="&#x13d;" horiz-adv-x="1210" d="M76 0v94q145 8 170 33q12 12 15 37.5t3 93.5v881q0 102 -14 121q-19 22 -174 32v94q234 -6 254 -6q26 0 284 6v-94q-166 -13 -184 -37q-14 -22 -14 -118v-926q0 -44 13 -62.5t44 -23.5q71 -8 195 -8q145 0 207.5 13t89.5 42q44 47 82 186h83q-1 -89 -12 -173.5 t-26 -127.5q-18 -57 -152 -57h-864zM680 1028q85 55 117 93.5t32 72.5q0 46 -32 59q-60 29 -60 95q0 41 30.5 69.5t74.5 28.5q61 0 94 -41.5t33 -110.5q0 -191 -248 -327z" />
<glyph unicode="&#x13e;" horiz-adv-x="614" d="M76 1354v84q105 59 207 59q25 0 41 -4t30.5 -16.5t21.5 -39.5t7 -69q0 -24 -1 -208.5t-1 -270.5v-653q0 -90 16 -111q17 -23 142 -33v-94q-176 4 -248 4q-121 0 -211 -4v94q75 6 106 13t41 20q17 20 17 108v840q0 231 -33 266q-21 21 -80 21q-31 0 -55 -6zM457 1087 q149 96 149 166q0 46 -33 62q-30 15 -44.5 35.5t-14.5 58.5q0 40 30 68t74 28q62 0 94.5 -40.5t32.5 -110.5q0 -189 -247 -328z" />
<glyph unicode="&#x13f;" horiz-adv-x="1210" d="M76 0v94q148 9 170 31q12 12 15 38t3 95v881q0 102 -14 121q-19 22 -174 32v94q234 -6 254 -6q26 0 284 6v-94q-166 -13 -184 -37q-14 -22 -14 -118v-926q0 -44 13 -62.5t44 -23.5q71 -8 195 -8q145 0 207.5 13t89.5 42q44 47 82 186h83q-1 -89 -12 -173.5t-26 -127.5 q-18 -57 -152 -57h-864zM788 700q0 55 35.5 91t87.5 36q55 0 90 -33.5t35 -86.5q0 -62 -34 -98t-89 -36q-53 0 -89 36t-36 91z" />
<glyph unicode="&#x140;" horiz-adv-x="727" d="M76 1354v84q105 59 207 59q25 0 41 -4t30.5 -16.5t21.5 -39.5t7 -69q0 -24 -1 -208.5t-1 -270.5v-653q0 -90 16 -111q17 -23 142 -33v-94q-176 4 -248 4q-121 0 -211 -4v94q75 6 106 13t41 20q17 20 17 108v637q0 224 -2 326q-6 115 -31 143q-21 21 -80 21q-31 0 -55 -6z M563 723q0 52 34.5 87.5t82.5 35.5q54 0 87.5 -33t33.5 -84q0 -60 -32.5 -94.5t-86.5 -34.5q-50 0 -84.5 35t-34.5 88z" />
<glyph unicode="&#x141;" horiz-adv-x="1210" d="M18 518l246 166v455q0 102 -14 121q-19 22 -174 32v94q234 -6 254 -6q26 0 284 6v-94q-166 -13 -184 -37q-14 -22 -14 -118v-351l348 236l53 -86l-401 -272v-453q0 -44 13 -62.5t44 -23.5q71 -8 195 -8q145 0 207.5 13t89.5 42q44 47 82 186h83q-1 -89 -12 -173.5 t-26 -127.5q-18 -57 -152 -57h-864v94q150 9 172 31q11 11 13.5 33t2.5 78v22v303l-192 -129z" />
<glyph unicode="&#x142;" horiz-adv-x="614" d="M35 578l209 163v129q0 224 -4 326q-3 113 -29 143q-21 21 -80 21q-31 0 -55 -6v84q108 59 207 59q25 0 41 -4t30.5 -16.5t21.5 -39.5t7 -69q0 -24 -1 -208.5t-1 -270.5v-41l164 129l53 -72l-217 -170v-499q0 -90 16 -111q17 -23 142 -33v-94q-176 4 -248 4 q-121 0 -211 -4v94q75 6 106 13t41 20q17 20 17 108v394l-158 -123z" />
<glyph unicode="&#x143;" horiz-adv-x="1503" d="M66 1292v94q90 -4 221 -4q75 0 147 4q617 -915 748 -1132q-5 154 -9 487.5t-4 337.5q-5 150 -18 174q-17 31 -174 39v94q200 -4 258 -4q30 0 248 4v-94q-87 -6 -119.5 -13t-48.5 -22q-12 -14 -16.5 -49t-4.5 -129q-2 -195 -2 -692q0 -49 1 -170.5t1 -159.5q0 -73 -71 -73 q-49 0 -76 45q-255 390 -437 666t-238 360.5t-85 130.5q1 -121 3.5 -330.5t4.5 -369t2 -183.5q0 -95 3.5 -128t15.5 -46q12 -15 49.5 -23t128.5 -14v-94q-222 4 -264 4q-54 0 -262 -4v94q166 8 186 41q4 6 6 14.5t3 25.5t1.5 30.5t1.5 46.5t2 57q4 102 4 772q0 133 -14 158 q-17 33 -63 43q-62 12 -129 12zM641 1526l238 248q38 38 60.5 51.5t45.5 13.5q28 0 50 -22t22 -52q0 -48 -84 -106l-285 -189z" />
<glyph unicode="&#x144;" horiz-adv-x="1218" d="M70 -2v94q75 6 106 13t41 20q16 19 16 108v418q0 99 -18 131.5t-88 32.5q-29 0 -57 -4v86q105 61 196 61q46 0 72 -28t29 -111q71 68 169.5 108t200.5 40q61 0 112 -18t77 -50q35 -36 49 -98.5t14 -171.5v-396q0 -79 15 -100q8 -18 37.5 -26t117.5 -15v-94q-172 4 -233 4 q-54 0 -226 -4v94q68 6 96.5 13t37.5 20q18 15 18 113v364q0 126 -31 168q-43 59 -157 59q-72 0 -155 -24t-140 -64v-505q0 -90 18 -113q9 -12 36.5 -18.5t100.5 -12.5v-94q-176 4 -243 4q-121 0 -211 -4zM475 1122l180 287q33 52 54 69t49 17q26 0 49.5 -20.5t23.5 -47.5 q0 -26 -14.5 -50t-48.5 -60l-238 -242z" />
<glyph unicode="&#x145;" horiz-adv-x="1503" d="M66 1292v94q90 -4 221 -4q75 0 147 4q617 -915 748 -1132q-5 154 -9 487.5t-4 337.5q-5 150 -18 174q-17 31 -174 39v94q200 -4 258 -4q30 0 248 4v-94q-87 -6 -119.5 -13t-48.5 -22q-12 -14 -16.5 -49t-4.5 -129q-2 -195 -2 -692q0 -49 1 -170.5t1 -159.5q0 -73 -71 -73 q-49 0 -76 45q-255 390 -437 666t-238 360.5t-85 130.5q1 -121 3.5 -330.5t4.5 -369t2 -183.5q0 -95 3.5 -128t15.5 -46q12 -15 49.5 -23t128.5 -14v-94q-222 4 -264 4q-54 0 -262 -4v94q166 8 186 41q4 6 6 14.5t3 25.5t1.5 30.5t1.5 46.5t2 57q4 102 4 772q0 133 -14 158 q-17 33 -63 43q-62 12 -129 12zM604 -510q85 55 117.5 93.5t32.5 72.5q0 46 -33 59q-59 29 -59 95q0 41 30 69.5t74 28.5q61 0 94 -41.5t33 -110.5q0 -191 -248 -327z" />
<glyph unicode="&#x146;" horiz-adv-x="1218" d="M70 -2v94q75 6 106 13t41 20q16 19 16 108v418q0 99 -18 131.5t-88 32.5q-29 0 -57 -4v86q105 61 196 61q46 0 72 -28t29 -111q71 68 169.5 108t200.5 40q61 0 112 -18t77 -50q35 -36 49 -98.5t14 -171.5v-396q0 -79 15 -100q8 -18 37.5 -26t117.5 -15v-94q-172 4 -233 4 q-54 0 -226 -4v94q68 6 96.5 13t37.5 20q18 15 18 113v364q0 126 -31 168q-43 59 -157 59q-72 0 -155 -24t-140 -64v-505q0 -90 18 -113q9 -12 36.5 -18.5t100.5 -12.5v-94q-176 4 -243 4q-121 0 -211 -4zM436 -510q85 55 117.5 93.5t32.5 72.5q0 46 -33 59q-59 29 -59 95 q0 41 30 69.5t74 28.5q61 0 94 -41.5t33 -110.5q0 -191 -248 -327z" />
<glyph unicode="&#x147;" horiz-adv-x="1503" d="M66 1292v94q90 -4 221 -4q75 0 147 4q617 -915 748 -1132q-5 154 -9 487.5t-4 337.5q-5 150 -18 174q-17 31 -174 39v94q200 -4 258 -4q30 0 248 4v-94q-87 -6 -119.5 -13t-48.5 -22q-12 -14 -16.5 -49t-4.5 -129q-2 -195 -2 -692q0 -49 1 -170.5t1 -159.5q0 -73 -71 -73 q-49 0 -76 45q-255 390 -437 666t-238 360.5t-85 130.5q1 -121 3.5 -330.5t4.5 -369t2 -183.5q0 -95 3.5 -128t15.5 -46q12 -15 49.5 -23t128.5 -14v-94q-222 4 -264 4q-54 0 -262 -4v94q166 8 186 41q4 6 6 14.5t3 25.5t1.5 30.5t1.5 46.5t2 57q4 102 4 772q0 133 -14 158 q-17 33 -63 43q-62 12 -129 12zM479 1786l53 47l248 -205l248 205l51 -47l-233 -279q-35 -41 -72 -41q-40 0 -76 45z" />
<glyph unicode="&#x148;" horiz-adv-x="1218" d="M70 -2v94q75 6 106 13t41 20q16 19 16 108v418q0 99 -18 131.5t-88 32.5q-29 0 -57 -4v86q105 61 196 61q46 0 72 -28t29 -111q71 68 169.5 108t200.5 40q61 0 112 -18t77 -50q35 -36 49 -98.5t14 -171.5v-396q0 -79 15 -100q8 -18 37.5 -26t117.5 -15v-94q-172 4 -233 4 q-54 0 -226 -4v94q68 6 96.5 13t37.5 20q18 15 18 113v364q0 126 -31 168q-43 59 -157 59q-72 0 -155 -24t-140 -64v-505q0 -90 18 -113q9 -12 36.5 -18.5t100.5 -12.5v-94q-176 4 -243 4q-121 0 -211 -4zM301 1395l57 45l224 -234l223 234l55 -43l-213 -312 q-28 -41 -72 -41t-73 41z" />
<glyph unicode="&#x149;" horiz-adv-x="1218" d="M51 1106q85 55 117.5 93.5t32.5 72.5q0 46 -33 59q-59 29 -59 94q0 41 30 70t74 29q61 0 94 -41.5t33 -110.5q0 -192 -248 -328zM70 -2v94q75 6 106 13t41 20q16 19 16 108v418q0 99 -18 131.5t-88 32.5q-29 0 -57 -4v86q105 61 196 61q46 0 72 -28t29 -111 q71 68 169.5 108t200.5 40q61 0 112 -18t77 -50q35 -36 49 -98.5t14 -171.5v-396q0 -79 15 -100q8 -18 37.5 -26t117.5 -15v-94q-172 4 -233 4q-54 0 -226 -4v94q68 6 96.5 13t37.5 20q18 15 18 113v364q0 126 -31 168q-43 59 -157 59q-72 0 -155 -24t-140 -64v-505 q0 -90 18 -113q9 -12 36.5 -18.5t100.5 -12.5v-94q-176 4 -243 4q-121 0 -211 -4z" />
<glyph unicode="&#x14a;" horiz-adv-x="1503" d="M63 1292v94q90 -4 224 -4q77 0 149 4q111 -168 244 -364t280 -409t218 -318q-4 498 -11 784q-2 88 -4.5 123t-11.5 51q-10 16 -46 25.5t-122 13.5v94q218 -4 252 -4q30 0 248 4v-94q-61 -4 -95 -9t-48 -10.5t-25 -15.5q-6 -7 -10 -17t-6.5 -30.5t-3.5 -51t-1 -79.5 q0 -91 -1 -274t-1 -311q0 -22 1 -179.5t1 -187.5q0 -148 -11.5 -241.5t-39.5 -155.5q-40 -89 -129.5 -159t-212.5 -114l-43 94q221 93 264 244q11 31 18 86t7 107v63q-59 91 -158.5 238t-269.5 397t-330 490q1 -119 3 -328t3.5 -365t1.5 -180q0 -99 3 -131t14 -43 q12 -17 46 -23.5t128 -11.5v-96q-222 4 -258 4q-56 0 -264 -4v96q96 4 137.5 13.5t50.5 27.5q8 12 10 45.5t2 124.5q0 8 2 350t2 424q0 136 -12 160q-8 16 -25.5 26.5t-46.5 15.5t-49 6.5t-57 3.5q-12 1 -17 1z" />
<glyph unicode="&#x14b;" horiz-adv-x="1189" d="M70 -2v94q75 6 106 13t41 20q16 19 16 108v418q0 99 -18 131.5t-88 32.5q-29 0 -57 -4v86q105 61 196 61q46 0 72 -28t29 -111q71 68 169.5 108t200.5 40q59 0 110 -18.5t79 -49.5q63 -75 63 -270q0 -102 2 -294t2 -292q0 -131 -11 -213t-44 -147q-68 -129 -268 -226 l-49 90q72 40 121 83t73 100q37 84 37 272v600q0 126 -31 168q-43 59 -157 59q-72 0 -155 -24t-140 -64v-505q0 -90 18 -113q9 -12 36.5 -18.5t100.5 -12.5v-94q-176 4 -243 4q-121 0 -211 -4z" />
<glyph unicode="&#x14c;" horiz-adv-x="1490" d="M104 686q0 339 178.5 534t475.5 195q321 0 474.5 -183.5t153.5 -516.5q0 -185 -49.5 -329t-137 -233.5t-203 -135.5t-251.5 -46q-160 0 -283 52t-201 147.5t-117.5 225.5t-39.5 290zM264 715q0 -617 486 -617q228 0 351.5 156t123.5 446q0 305 -118.5 447.5t-354.5 142.5 q-235 0 -361.5 -155t-126.5 -420zM477 1550v125h559v-125h-559z" />
<glyph unicode="&#x14d;" horiz-adv-x="1105" d="M100 465q0 235 128.5 369.5t340.5 134.5q224 0 331.5 -126t107.5 -356q0 -128 -35 -228t-97.5 -162t-144 -94t-178.5 -32q-222 0 -337.5 134t-115.5 360zM242 487q0 -395 315 -395q148 0 228.5 96.5t80.5 284.5q0 377 -305 377q-155 0 -237 -94.5t-82 -268.5zM301 1147 v121h520v-121h-520z" />
<glyph unicode="&#x14e;" horiz-adv-x="1490" d="M104 686q0 339 178.5 534t475.5 195q321 0 474.5 -183.5t153.5 -516.5q0 -185 -49.5 -329t-137 -233.5t-203 -135.5t-251.5 -46q-160 0 -283 52t-201 147.5t-117.5 225.5t-39.5 290zM264 715q0 -617 486 -617q228 0 351.5 156t123.5 446q0 305 -118.5 447.5t-354.5 142.5 q-235 0 -361.5 -155t-126.5 -420zM471 1798l74 6q9 -86 63.5 -134t149.5 -48q188 0 217 182l74 -4q-1 -143 -84.5 -223t-206.5 -80q-130 0 -208 72.5t-79 228.5z" />
<glyph unicode="&#x14f;" horiz-adv-x="1105" d="M100 465q0 235 128.5 369.5t340.5 134.5q224 0 331.5 -126t107.5 -356q0 -128 -35 -228t-97.5 -162t-144 -94t-178.5 -32q-222 0 -337.5 134t-115.5 360zM242 487q0 -395 315 -395q148 0 228.5 96.5t80.5 284.5q0 377 -305 377q-155 0 -237 -94.5t-82 -268.5zM297 1391 l76 4q11 -88 58.5 -135.5t129.5 -47.5t130 44.5t67 138.5l73 -2q-1 -147 -75.5 -225t-194.5 -78q-127 0 -195 69t-69 232z" />
<glyph unicode="&#x150;" horiz-adv-x="1490" d="M104 686q0 339 178.5 534t475.5 195q321 0 474.5 -183.5t153.5 -516.5q0 -185 -49.5 -329t-137 -233.5t-203 -135.5t-251.5 -46q-160 0 -283 52t-201 147.5t-117.5 225.5t-39.5 290zM264 715q0 -617 486 -617q228 0 351.5 156t123.5 446q0 305 -118.5 447.5t-354.5 142.5 q-235 0 -361.5 -155t-126.5 -420zM530 1518l187 282q32 48 53 63t47 15q25 0 45.5 -19t20.5 -51q0 -23 -15.5 -45t-50.5 -57l-231 -236zM817 1518l187 282q32 48 52.5 63t47.5 15q25 0 44 -19t19 -51q0 -23 -15 -46t-48 -56l-232 -236z" />
<glyph unicode="&#x151;" horiz-adv-x="1105" d="M100 465q0 235 128.5 369.5t340.5 134.5q224 0 331.5 -126t107.5 -356q0 -128 -35 -228t-97.5 -162t-144 -94t-178.5 -32q-222 0 -337.5 134t-115.5 360zM242 487q0 -395 315 -395q148 0 228.5 96.5t80.5 284.5q0 377 -305 377q-155 0 -237 -94.5t-82 -268.5zM340 1116 l160 295q29 54 49 71t45 17q28 0 48 -16t20 -47q0 -42 -56 -107l-207 -254zM621 1116l159 295q29 54 49.5 71t47.5 17q26 0 45.5 -16t19.5 -47q0 -43 -55 -107l-207 -254z" />
<glyph unicode="&#x152;" horiz-adv-x="1986" d="M104 674q0 152 43.5 283t125.5 230.5t210.5 156.5t288.5 57q57 0 205 -8.5t188 -8.5h543q72 0 98.5 -25t26.5 -73q0 -97 -18 -225h-89q-15 149 -51 174q-25 19 -75.5 25t-180.5 6h-227v-490h162q90 0 123.5 6.5t52.5 28.5q32 46 37 127h86q-2 -53 -2 -213q0 -137 2 -221 h-82q-5 39 -12.5 66.5t-12 36.5t-14.5 26q-16 21 -53 26t-127 5h-160v-453q0 -44 13 -62.5t44 -23.5q71 -8 195 -8q145 0 208.5 13t90.5 42q40 40 82 180h84q-3 -205 -35 -295q-18 -57 -152 -57h-563q-43 0 -191.5 -6t-222.5 -6q-162 0 -286 51.5t-201 144.5t-115.5 216.5 t-38.5 273.5zM266 696q0 -267 128 -426t364 -159q238 0 270 65q12 28 12 125v770q0 76 -4 111t-20 51q-22 25 -80 34t-176 9q-152 0 -265 -76.5t-171 -207t-58 -296.5z" />
<glyph unicode="&#x153;" horiz-adv-x="1740" d="M100 465q0 235 125.5 369.5t335.5 134.5q277 0 375 -209q104 209 360 209q98 0 170 -30.5t112 -83.5t58.5 -115t18.5 -134q0 -87 -27 -110q-19 -17 -84 -17h-551v-33q0 -75 18 -137t55.5 -110t99.5 -74.5t145 -26.5q91 0 158.5 29.5t148.5 89.5l55 -84 q-183 -162 -383 -162q-142 0 -234.5 58.5t-137.5 160.5q-112 -219 -373 -219q-221 0 -333 133.5t-112 360.5zM242 487q0 -395 307 -395q145 0 224 96.5t79 284.5q0 194 -73.5 285.5t-223.5 91.5q-153 0 -233 -94t-80 -269zM1001 584l512 6v16q0 116 -54.5 181t-190.5 65 q-108 0 -180 -68.5t-87 -199.5z" />
<glyph unicode="&#x154;" horiz-adv-x="1329" d="M76 -2v96q141 11 170 33q12 10 15 31.5t3 93.5v893q0 58 -3 80t-13 32q-11 12 -47.5 20t-124.5 15v92h358q240 0 350 -20q153 -29 227 -117t74 -225q0 -160 -85.5 -257t-233.5 -136q138 -212 202 -300t128 -143q61 -51 110 -71q44 -18 97 -21v-94q-24 -4 -72 -4 q-137 0 -242 84q-81 64 -159 176t-220 348q-25 -2 -73 -2q-43 0 -121 4v-350q0 -105 14 -125q23 -26 176 -37v-96q-180 4 -276 4q-74 0 -254 -4zM416 715q17 0 55.5 -1t52.5 -1q65 0 118 6.5t107 26.5t90.5 52t59.5 87t23 129q0 63 -21 109t-55 74t-87.5 44.5t-109 22.5 t-127.5 6h-106v-555zM442 1526l238 248q38 38 60.5 51.5t45.5 13.5q28 0 50 -22t22 -52q0 -48 -84 -106l-285 -189z" />
<glyph unicode="&#x155;" horiz-adv-x="800" d="M70 -2v94q74 6 105.5 12.5t41.5 18.5q16 19 16 110v418q0 99 -18 131.5t-88 32.5q-29 0 -57 -4v86q105 61 196 61q46 0 73 -29.5t28 -117.5q42 63 115.5 108.5t146.5 45.5q50 0 77 -20t27 -73t-20 -151h-76q-8 58 -28 75t-60 17q-44 0 -94 -23.5t-86 -62.5v-491 q0 -90 18 -113q14 -18 172 -31v-94q-176 4 -278 4q-121 0 -211 -4zM307 1122l180 287q33 52 54 69t49 17q26 0 50 -20.5t24 -47.5q0 -26 -14.5 -49.5t-49.5 -60.5l-238 -242z" />
<glyph unicode="&#x156;" horiz-adv-x="1329" d="M76 -2v96q141 11 170 33q12 10 15 31.5t3 93.5v893q0 58 -3 80t-13 32q-11 12 -47.5 20t-124.5 15v92h358q240 0 350 -20q153 -29 227 -117t74 -225q0 -160 -85.5 -257t-233.5 -136q138 -212 202 -300t128 -143q61 -51 110 -71q44 -18 97 -21v-94q-24 -4 -72 -4 q-137 0 -242 84q-81 64 -159 176t-220 348q-25 -2 -73 -2q-43 0 -121 4v-350q0 -105 14 -125q23 -26 176 -37v-96q-180 4 -276 4q-74 0 -254 -4zM416 715q17 0 55.5 -1t52.5 -1q65 0 118 6.5t107 26.5t90.5 52t59.5 87t23 129q0 63 -21 109t-55 74t-87.5 44.5t-109 22.5 t-127.5 6h-106v-555zM510 -510q85 55 117 93.5t32 72.5q0 46 -32 59q-60 29 -60 95q0 41 30.5 69.5t74.5 28.5q61 0 94 -41.5t33 -110.5q0 -191 -248 -327z" />
<glyph unicode="&#x157;" horiz-adv-x="800" d="M70 -2v94q74 6 105.5 12.5t41.5 18.5q16 19 16 110v418q0 99 -18 131.5t-88 32.5q-29 0 -57 -4v86q105 61 196 61q46 0 73 -29.5t28 -117.5q42 63 115.5 108.5t146.5 45.5q50 0 77 -20t27 -73t-20 -151h-76q-8 58 -28 75t-60 17q-44 0 -94 -23.5t-86 -62.5v-491 q0 -90 18 -113q14 -18 172 -31v-94q-176 4 -278 4q-121 0 -211 -4zM158 -510q85 55 117 93.5t32 72.5q0 46 -33 59q-59 29 -59 95q0 41 30 69.5t74 28.5q61 0 94 -41.5t33 -110.5q0 -58 -20.5 -110t-77 -109t-149.5 -108z" />
<glyph unicode="&#x158;" horiz-adv-x="1329" d="M76 -2v96q141 11 170 33q12 10 15 31.5t3 93.5v893q0 58 -3 80t-13 32q-11 12 -47.5 20t-124.5 15v92h358q240 0 350 -20q153 -29 227 -117t74 -225q0 -160 -85.5 -257t-233.5 -136q138 -212 202 -300t128 -143q61 -51 110 -71q44 -18 97 -21v-94q-24 -4 -72 -4 q-137 0 -242 84q-81 64 -159 176t-220 348q-25 -2 -73 -2q-43 0 -121 4v-350q0 -105 14 -125q23 -26 176 -37v-96q-180 4 -276 4q-74 0 -254 -4zM293 1786l53 47l248 -205l248 205l51 -47l-234 -279q-35 -41 -71 -41q-40 0 -76 45zM416 715q17 0 55.5 -1t52.5 -1 q65 0 118 6.5t107 26.5t90.5 52t59.5 87t23 129q0 63 -21 109t-55 74t-87.5 44.5t-109 22.5t-127.5 6h-106v-555z" />
<glyph unicode="&#x159;" horiz-adv-x="800" d="M70 -2v94q74 6 105.5 12.5t41.5 18.5q16 19 16 110v418q0 99 -18 131.5t-88 32.5q-29 0 -57 -4v86q105 61 196 61q46 0 73 -29.5t28 -117.5q42 63 115.5 108.5t146.5 45.5q50 0 77 -20t27 -73t-20 -151h-76q-8 58 -28 75t-60 17q-44 0 -94 -23.5t-86 -62.5v-491 q0 -90 18 -113q14 -18 172 -31v-94q-176 4 -278 4q-121 0 -211 -4zM125 1395l57 45l224 -234l223 234l55 -43l-213 -312q-28 -41 -72 -41t-73 41z" />
<glyph unicode="&#x15a;" horiz-adv-x="1132" d="M125 240q0 56 6 133h88q14 -91 35 -133.5t53 -71.5q35 -33 105 -52.5t163 -19.5q147 0 225.5 67.5t78.5 164.5q0 86 -44.5 139t-160.5 104l-254 111q-258 110 -258 346q0 82 29 150.5t86.5 122.5t152.5 84t219 30q162 0 271 -49q71 -29 71 -121q0 -68 -14 -201h-86 q-14 98 -29 140.5t-39 62.5q-54 43 -217 43q-147 0 -219 -66.5t-72 -166.5q0 -83 49 -140t185 -114l229 -94q140 -57 199 -143t59 -199q0 -187 -130 -291.5t-351 -104.5q-91 0 -176 16t-137 44q-69 35 -93 82t-24 127zM483 1526l238 248q38 38 60.5 51.5t45.5 13.5 q28 0 50 -22t22 -52q0 -48 -84 -106l-285 -189z" />
<glyph unicode="&#x15b;" horiz-adv-x="917" d="M111 154q0 73 4 147h88q12 -125 65 -164q52 -49 185 -49q100 0 156.5 38.5t56.5 96.5q0 51 -33 87.5t-109 66.5l-184 69q-111 42 -158 104.5t-47 145.5q0 123 92 198t281 75q126 0 205 -33q57 -22 57 -96q0 -48 -14 -158h-84q-5 65 -19 93.5t-37 43.5q-42 33 -147 33 q-201 0 -201 -143q0 -45 33.5 -77t120.5 -65l182 -69q59 -22 99.5 -50.5t61.5 -61t29.5 -65t8.5 -71.5q0 -129 -101 -204t-268 -75q-136 0 -233 39q-52 21 -71 57t-19 87zM371 1122l180 287q33 52 53.5 69t48.5 17q26 0 50 -20.5t24 -47.5q0 -26 -14.5 -50t-48.5 -60 l-238 -242z" />
<glyph unicode="&#x15c;" horiz-adv-x="1132" d="M125 240q0 56 6 133h88q14 -91 35 -133.5t53 -71.5q35 -33 105 -52.5t163 -19.5q147 0 225.5 67.5t78.5 164.5q0 86 -44.5 139t-160.5 104l-254 111q-258 110 -258 346q0 82 29 150.5t86.5 122.5t152.5 84t219 30q162 0 271 -49q71 -29 71 -121q0 -68 -14 -201h-86 q-14 98 -29 140.5t-39 62.5q-54 43 -217 43q-147 0 -219 -66.5t-72 -166.5q0 -83 49 -140t185 -114l229 -94q140 -57 199 -143t59 -199q0 -187 -130 -291.5t-351 -104.5q-91 0 -176 16t-137 44q-69 35 -93 82t-24 127zM305 1513l234 277q33 41 69 41q41 0 76 -43l221 -275 l-55 -49l-248 207l-248 -207z" />
<glyph unicode="&#x15d;" horiz-adv-x="917" d="M111 154q0 73 4 147h88q12 -125 65 -164q52 -49 185 -49q100 0 156.5 38.5t56.5 96.5q0 51 -33 87.5t-109 66.5l-184 69q-111 42 -158 104.5t-47 145.5q0 123 92 198t281 75q126 0 205 -33q57 -22 57 -96q0 -48 -14 -158h-84q-5 65 -19 93.5t-37 43.5q-42 33 -147 33 q-201 0 -201 -143q0 -45 33.5 -77t120.5 -65l182 -69q59 -22 99.5 -50.5t61.5 -61t29.5 -65t8.5 -71.5q0 -129 -101 -204t-268 -75q-136 0 -233 39q-52 21 -71 57t-19 87zM188 1090l213 309q26 41 70 41q49 0 76 -39l201 -309l-58 -48l-225 236l-221 -236z" />
<glyph unicode="&#x15e;" horiz-adv-x="1132" d="M125 240q0 56 6 133h88q14 -91 35 -133.5t53 -71.5q35 -33 105 -52.5t163 -19.5q147 0 225.5 67.5t78.5 164.5q0 86 -44.5 139t-160.5 104l-254 111q-258 110 -258 346q0 82 29 150.5t86.5 122.5t152.5 84t219 30q162 0 271 -49q71 -29 71 -121q0 -68 -14 -201h-86 q-14 98 -29 140.5t-39 62.5q-54 43 -217 43q-147 0 -219 -66.5t-72 -166.5q0 -83 49 -140t185 -114l229 -94q140 -57 199 -143t59 -199q0 -179 -119.5 -282.5t-324.5 -111.5q-19 -49 -19 -69q0 -32 35 -51q81 -39 113.5 -77.5t32.5 -97.5q0 -211 -348 -262l-21 84 q117 27 172 61.5t55 94.5q0 35 -23.5 61t-72.5 54q-41 24 -41 65q0 49 35 137q-173 7 -268 58q-69 35 -93 82t-24 127z" />
<glyph unicode="&#x15f;" horiz-adv-x="917" d="M111 154q0 73 4 147h88q12 -125 65 -164q52 -49 185 -49q100 0 156.5 38.5t56.5 96.5q0 51 -33 87.5t-109 66.5l-184 69q-111 42 -158 104.5t-47 145.5q0 123 92 198t281 75q126 0 205 -33q57 -22 57 -96q0 -48 -14 -158h-84q-5 65 -19 93.5t-37 43.5q-42 33 -147 33 q-201 0 -201 -143q0 -45 33.5 -77t120.5 -65l182 -69q59 -22 99.5 -50.5t61.5 -61t29.5 -65t8.5 -71.5q0 -123 -90.5 -196t-243.5 -81q-16 -39 -16 -63q0 -31 32 -47q76 -39 108 -77t32 -93q0 -103 -90 -164t-242 -84l-21 82q111 23 164 56.5t53 90.5q0 33 -22 58t-70 51 q-39 22 -39 59q0 38 35 131q-111 6 -192 37q-52 21 -71 57t-19 87z" />
<glyph unicode="&#x160;" horiz-adv-x="1132" d="M125 240q0 56 6 133h88q14 -91 35 -133.5t53 -71.5q35 -33 105 -52.5t163 -19.5q147 0 225.5 67.5t78.5 164.5q0 86 -44.5 139t-160.5 104l-254 111q-258 110 -258 346q0 82 29 150.5t86.5 122.5t152.5 84t219 30q162 0 271 -49q71 -29 71 -121q0 -68 -14 -201h-86 q-14 98 -29 140.5t-39 62.5q-54 43 -217 43q-147 0 -219 -66.5t-72 -166.5q0 -83 49 -140t185 -114l229 -94q140 -57 199 -143t59 -199q0 -187 -130 -291.5t-351 -104.5q-91 0 -176 16t-137 44q-69 35 -93 82t-24 127zM305 1786l53 47l248 -205l248 205l51 -47l-233 -279 q-35 -41 -72 -41q-40 0 -76 45z" />
<glyph unicode="&#x161;" horiz-adv-x="917" d="M111 154q0 73 4 147h88q12 -125 65 -164q52 -49 185 -49q100 0 156.5 38.5t56.5 96.5q0 51 -33 87.5t-109 66.5l-184 69q-111 42 -158 104.5t-47 145.5q0 123 92 198t281 75q126 0 205 -33q57 -22 57 -96q0 -48 -14 -158h-84q-5 65 -19 93.5t-37 43.5q-42 33 -147 33 q-201 0 -201 -143q0 -45 33.5 -77t120.5 -65l182 -69q59 -22 99.5 -50.5t61.5 -61t29.5 -65t8.5 -71.5q0 -129 -101 -204t-268 -75q-136 0 -233 39q-52 21 -71 57t-19 87zM186 1395l58 45l223 -234l223 234l55 -43l-213 -312q-28 -41 -71 -41q-45 0 -74 41z" />
<glyph unicode="&#x162;" horiz-adv-x="1318" d="M78 1280q0 52 23.5 78t95.5 26h921q72 0 97.5 -25t25.5 -75q0 -94 -10 -237h-84q-18 164 -57 192q-28 20 -85.5 25.5t-269.5 5.5v-1004q0 -108 13 -131q8 -16 45 -25t139 -16v-96q-140 4 -230 4q-30 -67 -30 -98q0 -32 35 -51q80 -39 112.5 -77.5t32.5 -97.5 q0 -211 -348 -262l-21 84q117 27 172.5 61.5t55.5 94.5q0 35 -23.5 60.5t-73.5 54.5q-41 24 -41 65q0 56 48 166l-228 -4v96q99 7 133 15t45 24q13 17 13 129v1008q-211 0 -268 -5.5t-85 -25.5q-41 -26 -59 -192h-84q-10 143 -10 233z" />
<glyph unicode="&#x163;" horiz-adv-x="698" d="M61 807v80q55 13 107 35q36 19 51 61q15 49 37 162q10 43 63 43q48 0 48 -47v-219q142 0 256 -7v-102q-126 -6 -258 -6v-389q0 -159 10 -215q11 -54 40 -78.5t83 -24.5q80 0 159 35l31 -94q-56 -32 -121.5 -49t-113.5 -17h-21q-18 -44 -18 -65q0 -31 32 -47 q76 -39 108 -77t32 -93q0 -103 -90 -164t-242 -84l-21 82q111 23 164.5 56.5t53.5 90.5q0 33 -22.5 58t-70.5 51q-39 22 -39 59q0 40 41 146q-133 42 -133 248q0 62 1 262t1 309h-168z" />
<glyph unicode="&#x164;" horiz-adv-x="1318" d="M78 1280q0 52 23.5 78t95.5 26h921q72 0 97.5 -25t25.5 -75q0 -94 -10 -237h-84q-18 164 -57 192q-28 20 -85.5 25.5t-269.5 5.5v-1004q0 -108 13 -131q8 -16 45 -25t139 -16v-96q-160 4 -258 4q-117 0 -281 -4v96q99 7 133 15t45 24q13 17 13 129v1008q-211 0 -268 -5.5 t-85 -25.5q-41 -26 -59 -192h-84q-10 143 -10 233zM360 1786l54 47l248 -205l247 205l52 -47l-234 -279q-35 -41 -72 -41q-39 0 -75 45z" />
<glyph unicode="&#x165;" horiz-adv-x="698" d="M61 807v80q55 13 107 35q36 19 51 61q15 49 37 162q10 43 63 43q48 0 48 -47v-219q142 0 256 -7v-102q-126 -6 -258 -6v-389q0 -159 10 -215q11 -54 40 -78.5t83 -24.5q80 0 159 35l31 -94q-56 -32 -121.5 -49t-113.5 -17q-51 0 -89.5 12t-70.5 40t-49 80.5t-17 128.5 q0 62 1 262t1 309h-168zM442 1067q150 97 150 166q0 45 -33 61q-30 15 -44.5 36t-14.5 59q0 40 30 68t74 28q62 0 94.5 -40.5t32.5 -111.5q0 -187 -248 -327z" />
<glyph unicode="&#x166;" horiz-adv-x="1318" d="M78 1280q0 52 23.5 78t95.5 26h921q72 0 97.5 -25t25.5 -75q0 -94 -10 -237h-84q-18 164 -57 192q-28 20 -85.5 25.5t-269.5 5.5v-447h336v-106h-336v-451q0 -108 13 -131q8 -16 45 -25t139 -16v-96q-160 4 -258 4q-117 0 -281 -4v96q99 7 133 15t45 24q13 17 13 129v455 h-326v106h326v447q-211 0 -268 -5.5t-85 -25.5q-41 -26 -59 -192h-84q-10 143 -10 233z" />
<glyph unicode="&#x167;" horiz-adv-x="698" d="M61 807v80q55 13 107 35q36 19 51 61q15 49 37 162q10 43 63 43q48 0 48 -47v-219q142 0 256 -7v-102q-126 -6 -258 -6v-191h249v-92h-249v-106q0 -159 10 -215q11 -54 40 -78.5t83 -24.5q81 0 159 37l31 -96q-56 -32 -121.5 -49t-113.5 -17q-51 0 -89.5 12t-70.5 40 t-49 80.5t-17 128.5v288h-143v92h145v191h-168z" />
<glyph unicode="&#x168;" horiz-adv-x="1542" d="M57 1292v94q160 -4 271 -4q108 0 268 4v-94q-96 -6 -132 -14t-48 -23q-14 -19 -17 -110q-4 -145 -4 -512q0 -265 35 -357q69 -178 358 -178q109 0 199.5 36t126.5 97q39 64 53.5 164t14.5 258q0 256 -8 480q-1 68 -6 94t-17 35q-26 18 -168 30v94q76 -2 250 -2 q21 0 118.5 1t135.5 1v-94q-164 -10 -178 -45q-11 -28 -11 -131v-500q0 -194 -24.5 -305t-83.5 -182q-127 -160 -434 -160q-158 0 -273.5 51t-167.5 138q-40 68 -56.5 166t-16.5 303q0 97 2 276.5t2 233.5q0 86 -13 112q-11 19 -49.5 29t-126.5 14zM479 1526q24 92 70 152.5 t110 60.5q39 0 115 -31l60 -25q61 -28 92 -28q50 0 100 110l72 -24q-58 -217 -166 -217q-49 0 -139 37l-52 20q-59 23 -88 23q-33 0 -53.5 -21.5t-52.5 -81.5z" />
<glyph unicode="&#x169;" horiz-adv-x="1191" d="M47 811v86q105 61 203 61q51 0 75.5 -29t24.5 -110q0 -15 -2 -211.5t-2 -279.5q0 -118 43.5 -170t157.5 -52q73 0 149.5 27t134.5 70v448q0 103 -17.5 133.5t-92.5 30.5q-36 0 -64 -4v86q100 61 217 61q49 0 73 -31t24 -116q0 -1 -2 -230t-2 -350q0 -76 19.5 -103.5 t70.5 -27.5q36 0 78 11v-95q-65 -32 -160 -32q-120 0 -139 131q-142 -142 -344 -142q-66 0 -125.5 22.5t-92.5 61.5q-34 40 -48.5 98t-14.5 158v338q0 100 -17.5 132t-87.5 32q-8 0 -30 -2t-29 -2zM283 1116q26 94 69.5 153.5t104.5 59.5q45 0 108 -29l58 -24q59 -27 90 -27 q27 0 49.5 26t48.5 81l68 -23q-27 -107 -70 -163t-92 -56q-43 0 -129 37l-49 23q-51 22 -88 22q-32 0 -52 -22.5t-49 -81.5z" />
<glyph unicode="&#x16a;" horiz-adv-x="1542" d="M57 1292v94q160 -4 271 -4q108 0 268 4v-94q-96 -6 -132 -14t-48 -23q-14 -19 -17 -110q-4 -145 -4 -512q0 -265 35 -357q69 -178 358 -178q109 0 199.5 36t126.5 97q39 64 53.5 164t14.5 258q0 256 -8 480q-1 68 -6 94t-17 35q-26 18 -168 30v94q76 -2 250 -2 q21 0 118.5 1t135.5 1v-94q-164 -10 -178 -45q-11 -28 -11 -131v-500q0 -194 -24.5 -305t-83.5 -182q-127 -160 -434 -160q-158 0 -273.5 51t-167.5 138q-40 68 -56.5 166t-16.5 303q0 97 2 276.5t2 233.5q0 86 -13 112q-11 19 -49.5 29t-126.5 14zM498 1550v125h559v-125 h-559z" />
<glyph unicode="&#x16b;" horiz-adv-x="1191" d="M47 811v86q105 61 203 61q51 0 75.5 -29t24.5 -110q0 -15 -2 -211.5t-2 -279.5q0 -118 43.5 -170t157.5 -52q73 0 149.5 27t134.5 70v448q0 103 -17.5 133.5t-92.5 30.5q-36 0 -64 -4v86q100 61 217 61q49 0 73 -31t24 -116q0 -1 -2 -230t-2 -350q0 -76 19.5 -103.5 t70.5 -27.5q36 0 78 11v-95q-65 -32 -160 -32q-120 0 -139 131q-142 -142 -344 -142q-66 0 -125.5 22.5t-92.5 61.5q-34 40 -48.5 98t-14.5 158v338q0 100 -17.5 132t-87.5 32q-8 0 -30 -2t-29 -2zM313 1147v121h521v-121h-521z" />
<glyph unicode="&#x16c;" horiz-adv-x="1542" d="M57 1292v94q160 -4 271 -4q108 0 268 4v-94q-96 -6 -132 -14t-48 -23q-14 -19 -17 -110q-4 -145 -4 -512q0 -265 35 -357q69 -178 358 -178q109 0 199.5 36t126.5 97q39 64 53.5 164t14.5 258q0 256 -8 480q-1 68 -6 94t-17 35q-26 18 -168 30v94q76 -2 250 -2 q21 0 118.5 1t135.5 1v-94q-164 -10 -178 -45q-11 -28 -11 -131v-500q0 -194 -24.5 -305t-83.5 -182q-127 -160 -434 -160q-158 0 -273.5 51t-167.5 138q-40 68 -56.5 166t-16.5 303q0 97 2 276.5t2 233.5q0 86 -13 112q-11 19 -49.5 29t-126.5 14zM489 1798l74 6 q9 -86 63.5 -134t149.5 -48q188 0 217 182l74 -4q-1 -143 -84.5 -223t-206.5 -80q-130 0 -208 72.5t-79 228.5z" />
<glyph unicode="&#x16d;" horiz-adv-x="1191" d="M47 811v86q105 61 203 61q51 0 75.5 -29t24.5 -110q0 -15 -2 -211.5t-2 -279.5q0 -118 43.5 -170t157.5 -52q73 0 149.5 27t134.5 70v448q0 103 -17.5 133.5t-92.5 30.5q-36 0 -64 -4v86q100 61 217 61q49 0 73 -31t24 -116q0 -1 -2 -230t-2 -350q0 -76 19.5 -103.5 t70.5 -27.5q36 0 78 11v-95q-65 -32 -160 -32q-120 0 -139 131q-142 -142 -344 -142q-66 0 -125.5 22.5t-92.5 61.5q-34 40 -48.5 98t-14.5 158v338q0 100 -17.5 132t-87.5 32q-8 0 -30 -2t-29 -2zM297 1391l76 4q11 -88 58.5 -135.5t129.5 -47.5t130 44.5t67 138.5l73 -2 q-1 -147 -75.5 -225t-194.5 -78q-127 0 -195 69t-69 232z" />
<glyph unicode="&#x16e;" horiz-adv-x="1542" d="M57 1292v94q160 -4 271 -4q108 0 268 4v-94q-96 -6 -132 -14t-48 -23q-14 -19 -17 -110q-4 -145 -4 -512q0 -265 35 -357q69 -178 358 -178q109 0 199.5 36t126.5 97q39 64 53.5 164t14.5 258q0 256 -8 480q-1 68 -6 94t-17 35q-26 18 -168 30v94q76 -2 250 -2 q21 0 118.5 1t135.5 1v-94q-164 -10 -178 -45q-11 -28 -11 -131v-500q0 -194 -24.5 -305t-83.5 -182q-127 -160 -434 -160q-158 0 -273.5 51t-167.5 138q-40 68 -56.5 166t-16.5 303q0 97 2 276.5t2 233.5q0 86 -13 112q-11 19 -49.5 29t-126.5 14zM600 1636q0 80 56 134.5 t132 54.5q83 0 136 -51.5t53 -133.5q0 -83 -55.5 -136.5t-135.5 -53.5q-79 0 -132.5 51t-53.5 135zM680 1640q0 -53 29 -84.5t77 -31.5q49 0 79 30.5t30 85.5q0 54 -31 82.5t-78 28.5q-45 0 -75.5 -29t-30.5 -82z" />
<glyph unicode="&#x16f;" horiz-adv-x="1191" d="M47 811v86q105 61 203 61q51 0 75.5 -29t24.5 -110q0 -15 -2 -211.5t-2 -279.5q0 -118 43.5 -170t157.5 -52q73 0 149.5 27t134.5 70v448q0 103 -17.5 133.5t-92.5 30.5q-36 0 -64 -4v86q100 61 217 61q49 0 73 -31t24 -116q0 -1 -2 -230t-2 -350q0 -76 19.5 -103.5 t70.5 -27.5q36 0 78 11v-95q-65 -32 -160 -32q-120 0 -139 131q-142 -142 -344 -142q-66 0 -125.5 22.5t-92.5 61.5q-34 40 -48.5 98t-14.5 158v338q0 100 -17.5 132t-87.5 32q-8 0 -30 -2t-29 -2zM381 1255q0 84 55.5 138.5t132.5 54.5q84 0 136.5 -51.5t52.5 -136.5 q0 -82 -55.5 -134.5t-135.5 -52.5q-79 0 -132.5 50t-53.5 132zM461 1260q0 -51 29.5 -82t76.5 -31q48 0 78.5 30t30.5 83q0 56 -31 85t-78 29q-45 0 -75.5 -30t-30.5 -84z" />
<glyph unicode="&#x170;" horiz-adv-x="1542" d="M57 1292v94q160 -4 271 -4q108 0 268 4v-94q-96 -6 -132 -14t-48 -23q-14 -19 -17 -110q-4 -145 -4 -512q0 -265 35 -357q69 -178 358 -178q109 0 199.5 36t126.5 97q39 64 53.5 164t14.5 258q0 256 -8 480q-1 68 -6 94t-17 35q-26 18 -168 30v94q76 -2 250 -2 q21 0 118.5 1t135.5 1v-94q-164 -10 -178 -45q-11 -28 -11 -131v-500q0 -194 -24.5 -305t-83.5 -182q-127 -160 -434 -160q-158 0 -273.5 51t-167.5 138q-40 68 -56.5 166t-16.5 303q0 97 2 276.5t2 233.5q0 86 -13 112q-11 19 -49.5 29t-126.5 14zM541 1518l186 282 q32 48 53 63t47 15q25 0 45.5 -19t20.5 -51q0 -23 -15.5 -45t-50.5 -57l-231 -236zM827 1518l187 282q32 48 52.5 63t47.5 15q25 0 44.5 -19t19.5 -51q0 -23 -15 -45.5t-49 -56.5l-231 -236z" />
<glyph unicode="&#x171;" horiz-adv-x="1191" d="M47 811v86q105 61 203 61q51 0 75.5 -29t24.5 -110q0 -15 -2 -211.5t-2 -279.5q0 -118 43.5 -170t157.5 -52q73 0 149.5 27t134.5 70v448q0 103 -17.5 133.5t-92.5 30.5q-36 0 -64 -4v86q100 61 217 61q49 0 73 -31t24 -116q0 -1 -2 -230t-2 -350q0 -76 19.5 -103.5 t70.5 -27.5q36 0 78 11v-95q-65 -32 -160 -32q-120 0 -139 131q-142 -142 -344 -142q-66 0 -125.5 22.5t-92.5 61.5q-34 40 -48.5 98t-14.5 158v338q0 100 -17.5 132t-87.5 32q-8 0 -30 -2t-29 -2zM330 1116l159 295q29 54 49.5 71t45.5 17q28 0 47.5 -16t19.5 -47 q0 -43 -55 -107l-207 -254zM610 1116l160 295q29 54 49 71t47 17q26 0 46 -16t20 -47q0 -43 -55 -107l-207 -254z" />
<glyph unicode="&#x172;" horiz-adv-x="1542" d="M57 1292v94q160 -4 271 -4q108 0 268 4v-94q-96 -6 -132 -14t-48 -23q-14 -19 -17 -110q-4 -145 -4 -512q0 -265 35 -357q69 -178 358 -178q109 0 199.5 36t126.5 97q39 64 53.5 164t14.5 258q0 256 -8 480q-1 68 -6 94t-17 35q-26 18 -168 30v94q76 -2 250 -2 q21 0 118.5 1t135.5 1v-94q-164 -10 -178 -45q-11 -28 -11 -131v-500q0 -194 -24.5 -305t-83.5 -182q-111 -137 -356 -156q-162 -182 -162 -301q0 -58 30 -90.5t86 -32.5q29 0 72.5 9.5t69.5 21.5l31 -69q-111 -76 -218 -76q-98 0 -147 58t-49 145q0 84 44.5 160.5 t141.5 170.5q-149 4 -258 55t-160 134q-40 68 -56.5 166t-16.5 303q0 97 2 276.5t2 233.5q0 86 -13 112q-11 19 -49.5 29t-126.5 14z" />
<glyph unicode="&#x173;" horiz-adv-x="1191" d="M47 811v86q105 61 203 61q51 0 75.5 -29t24.5 -110q0 -15 -2 -211.5t-2 -279.5q0 -118 43.5 -170t157.5 -52q73 0 149.5 27t134.5 70v448q0 103 -17.5 133.5t-92.5 30.5q-36 0 -64 -4v86q100 61 217 61q49 0 73 -31t24 -116q0 -1 -2 -230t-2 -350q0 -76 19.5 -103.5 t70.5 -27.5q36 0 78 11v-95q-55 -24 -121 -30q-88 -97 -128 -168.5t-40 -134.5q0 -54 29 -85.5t83 -31.5q70 0 140 28l28 -65q-104 -74 -211 -74q-96 0 -144 56t-48 141t48.5 162t156.5 176q-78 21 -92 125q-142 -142 -344 -142q-66 0 -125.5 22.5t-92.5 61.5 q-34 40 -48.5 98t-14.5 158v338q0 100 -17.5 132t-87.5 32q-8 0 -30 -2t-29 -2z" />
<glyph unicode="&#x174;" horiz-adv-x="1986" d="M35 1292v94q48 -1 107 -2t92.5 -1.5t58.5 -0.5q176 0 258 4v-94q-42 0 -73.5 -3t-52 -8t-33.5 -11t-19.5 -15.5t-8.5 -18.5t-2 -22q0 -32 15 -94q202 -861 217 -932q58 214 334 1127q24 76 88 76q24 0 39.5 -6t27 -22t19.5 -44q257 -879 321 -1133q56 267 213 916 q15 61 15 108q0 18 -2.5 27.5t-12 20.5t-30.5 16.5t-57.5 10.5t-92.5 7v94q200 -4 264 -4q82 0 234 4v-94q-7 -1 -23.5 -2.5t-23 -2t-19.5 -2.5t-19.5 -4t-15.5 -5.5t-15.5 -8t-12.5 -10.5q-12 -12 -22 -35t-16 -44t-15 -56l-273 -1079q-9 -38 -32.5 -58t-57.5 -20 t-56.5 16.5t-33.5 57.5q-242 827 -320 1130q-97 -363 -335 -1126q-24 -78 -93 -78q-72 0 -90 74l-264 1089q-9 38 -14.5 57.5t-15 41t-20 31t-29.5 18.5t-43 12t-60 4zM709 1513l233 277q33 41 70 41q23 0 39.5 -9.5t35.5 -33.5l222 -275l-56 -49l-247 207l-248 -207z" />
<glyph unicode="&#x175;" horiz-adv-x="1562" d="M23 848v94q90 -4 221 -4q113 0 213 4v-94q-41 0 -103 -8q-26 -5 -38.5 -15t-12.5 -32q0 -20 19 -84q67 -226 153 -533q61 188 252 713q20 57 78 57q29 0 44 -13.5t25 -43.5q63 -181 242 -715q28 99 82 282.5t72 245.5q16 59 16 91q0 14 -10 26t-23 15q-38 11 -120 14v94 q82 -4 217 -4q114 0 192 4v-94q-65 -3 -98 -23q-17 -10 -28.5 -34t-29.5 -82l-210 -674q-18 -58 -74 -58q-60 0 -78 58q-203 587 -238 710q-39 -118 -258 -710q-21 -58 -73 -58q-63 0 -80 60l-203 676q-28 87 -41 104q-14 18 -36 23.5t-72 7.5zM518 1090l213 309 q26 41 70 41q49 0 76 -39l200 -309l-57 -48l-225 236l-222 -236z" />
<glyph unicode="&#x176;" horiz-adv-x="1253" d="M8 1292v94q234 -4 246 -4q46 0 254 4v-94q-75 -2 -113 -10t-46.5 -17.5t-8.5 -27.5q0 -27 45 -104q149 -254 260 -457q169 292 273 467q40 64 40 102q0 25 -33 35.5t-130 11.5v94q98 -4 256 -4q106 0 192 4v-94q-57 -3 -96 -30q-27 -21 -90 -119l-357 -572v-340 q0 -82 9 -100t44.5 -25.5t139.5 -11.5v-96q-218 4 -258 4q-73 0 -273 -4v96q101 4 132.5 10.5t40.5 22.5q12 19 12 104v338l-334 557q-11 18 -26.5 45t-21.5 37.5t-15.5 24t-16 20t-14.5 11.5q-36 23 -111 28zM352 1513l234 277q33 41 69 41q41 0 76 -43l221 -275l-55 -49 l-248 207l-248 -207z" />
<glyph unicode="&#x177;" horiz-adv-x="1067" d="M8 848v94q136 -4 238 -4q56 0 192 4v-94q-64 -4 -90 -8q-49 -8 -49 -54q0 -28 27 -90q22 -52 79 -182.5t98 -226.5t77 -185q12 35 81.5 236t110.5 315q33 87 33 146q0 16 -8.5 26t-27.5 14.5t-32.5 6t-39.5 2t-33 0.5v94q126 -4 204 -4q73 0 191 4v-94q-68 -6 -90 -23 q-18 -16 -32.5 -48.5t-43.5 -110.5l-246 -666q-91 -254 -147 -371q-49 -104 -115 -147t-160 -43q-157 0 -157 121q0 62 12 121h82q13 -73 25 -91q19 -28 71 -28q72 0 125 92q44 78 147 344q-50 0 -75 59l-283 650q-42 92 -72 116q-24 19 -92 25zM266 1090l213 309 q26 41 70 41q49 0 76 -39l200 -309l-57 -48l-225 236l-221 -236z" />
<glyph unicode="&#x178;" horiz-adv-x="1253" d="M8 1292v94q234 -4 246 -4q46 0 254 4v-94q-75 -2 -113 -10t-46.5 -17.5t-8.5 -27.5q0 -27 45 -104q149 -254 260 -457q169 292 273 467q40 64 40 102q0 25 -33 35.5t-130 11.5v94q98 -4 256 -4q106 0 192 4v-94q-57 -3 -96 -30q-27 -21 -90 -119l-357 -572v-340 q0 -82 9 -100t44.5 -25.5t139.5 -11.5v-96q-218 4 -258 4q-73 0 -273 -4v96q101 4 132.5 10.5t40.5 22.5q12 19 12 104v338l-334 557q-11 18 -26.5 45t-21.5 37.5t-15.5 24t-16 20t-14.5 11.5q-36 23 -111 28zM367 1622q0 42 27 69t69 27q44 0 70 -27t26 -69 q0 -41 -27.5 -70.5t-70.5 -29.5q-40 0 -67 28.5t-27 71.5zM719 1622q0 41 27.5 68.5t70.5 27.5q42 0 69 -27t27 -69q0 -41 -27.5 -70.5t-70.5 -29.5q-40 0 -68 29t-28 71z" />
<glyph unicode="&#x179;" horiz-adv-x="1241" d="M68 0v57l845 1211q-359 0 -463.5 -3.5t-136.5 -13.5q-31 -9 -46.5 -51.5t-26.5 -142.5h-93q-16 156 -16 233q0 94 133 94h875v-55l-844 -1206q78 -4 309 -4q200 0 273.5 9.5t105.5 33.5q30 22 51.5 70t44.5 126h90q-7 -181 -28 -288q-14 -70 -127 -70h-946zM539 1526 l237 248q38 38 60.5 51.5t46.5 13.5q28 0 49.5 -22t21.5 -52q0 -48 -84 -106l-284 -189z" />
<glyph unicode="&#x17a;" horiz-adv-x="931" d="M29 0v51l630 791q-315 0 -372 -6q-61 -6 -78 -39q-19 -35 -29 -131h-90q-12 106 -12 174q0 50 18 75t74 25h688v-61l-627 -777q74 -4 195 -4q211 0 272 21q44 13 68 63q28 62 41 121h86q-5 -141 -12 -221q-3 -40 -28 -61t-87 -21h-737zM377 1122l180 287q33 52 53.5 69 t48.5 17q26 0 50 -20.5t24 -47.5q0 -26 -14.5 -50t-48.5 -60l-238 -242z" />
<glyph unicode="&#x17b;" horiz-adv-x="1241" d="M68 0v57l845 1211q-359 0 -463.5 -3.5t-136.5 -13.5q-31 -9 -46.5 -51.5t-26.5 -142.5h-93q-16 156 -16 233q0 94 133 94h875v-55l-844 -1206q78 -4 309 -4q200 0 273.5 9.5t105.5 33.5q30 22 51.5 70t44.5 126h90q-7 -181 -28 -288q-14 -70 -127 -70h-946zM532 1622 q0 42 27 69t70 27t68.5 -27t25.5 -69q0 -41 -27 -70.5t-71 -29.5q-39 0 -66 29t-27 71z" />
<glyph unicode="&#x17c;" horiz-adv-x="931" d="M29 0v51l630 791q-315 0 -372 -6q-61 -6 -78 -39q-19 -35 -29 -131h-90q-12 106 -12 174q0 50 18 75t74 25h688v-61l-627 -777q74 -4 195 -4q211 0 272 21q44 13 68 63q28 62 41 121h86q-5 -141 -12 -221q-3 -40 -28 -61t-87 -21h-737zM381 1274q0 40 27 68t69 28 q43 0 68.5 -27.5t25.5 -68.5q0 -44 -26.5 -72t-71.5 -28q-39 0 -65.5 28t-26.5 72z" />
<glyph unicode="&#x17d;" horiz-adv-x="1241" d="M68 0v57l845 1211q-359 0 -463.5 -3.5t-136.5 -13.5q-31 -9 -46.5 -51.5t-26.5 -142.5h-93q-16 156 -16 233q0 94 133 94h875v-55l-844 -1206q78 -4 309 -4q200 0 273.5 9.5t105.5 33.5q30 22 51.5 70t44.5 126h90q-7 -181 -28 -288q-14 -70 -127 -70h-946zM326 1786 l53 47l248 -205l247 205l52 -47l-234 -279q-35 -41 -71 -41q-40 0 -76 45z" />
<glyph unicode="&#x17e;" horiz-adv-x="931" d="M29 0v51l630 791q-315 0 -372 -6q-61 -6 -78 -39q-19 -35 -29 -131h-90q-12 106 -12 174q0 50 18 75t74 25h688v-61l-627 -777q74 -4 195 -4q211 0 272 21q44 13 68 63q28 62 41 121h86q-5 -141 -12 -221q-3 -40 -28 -61t-87 -21h-737zM197 1395l57 45l223 -234l223 234 l56 -43l-213 -312q-28 -41 -72 -41q-45 0 -74 41z" />
<glyph unicode="&#x17f;" horiz-adv-x="620" d="M63 807v80q66 15 115 41q27 21 38.5 46.5t14.5 86.5q15 244 136 348q108 88 256 88q84 0 149 -22q57 -22 57 -95q0 -27 -16 -163h-86q-7 72 -19 103.5t-34 43.5q-34 18 -90 18q-116 0 -166 -100q-49 -88 -49 -270v-754q0 -108 18 -131q10 -16 45.5 -23.5t140.5 -11.5v-92 q-188 4 -247 4q-68 0 -256 -4v92q75 4 106.5 12t42.5 23q14 19 14 100v580h-170z" />
<glyph unicode="&#x192;" horiz-adv-x="1091" d="M-113 -244q0 38 17 146h84q9 -94 34.5 -127t96.5 -33q130 0 180 152q32 95 57 387l31 385h-199v110h211q22 258 74 377q49 107 139.5 163t210.5 56q106 0 185 -33q67 -24 67 -108q0 -52 -16 -158h-90q-12 121 -37 141q-41 35 -133 35q-40 0 -72 -12.5t-54.5 -31.5 t-41 -53.5t-29.5 -65.5t-20.5 -81.5t-14.5 -87.5t-12 -96l-4 -45h256v-110h-266l-41 -476q-21 -239 -70 -354q-94 -217 -315 -217q-89 0 -160 29q-65 25 -68 108z" />
<glyph unicode="&#x1fa;" horiz-adv-x="1435" d="M10 -2v96q110 6 144 33q19 13 32 40.5t47 119.5l396 1056q9 22 14 29q-44 19 -70 59t-26 95q0 76 52 126t124 50q78 0 127 -47t49 -125q0 -54 -27 -94.5t-71 -61.5q82 -214 230 -611t188 -503q24 -66 38.5 -94t34.5 -43q29 -26 133 -29v-96q-144 4 -264 4q-132 0 -276 -4 v96q96 5 143 17q47 11 47 47q0 38 -31 123l-83 221h-521l-78 -211q-32 -88 -32 -137q0 -26 26 -39q24 -9 166 -21v-96q-132 4 -270 4q-116 0 -242 -4zM477 616h445q-195 531 -224 619q-71 -203 -221 -619zM616 1784l191 201q58 61 96 61q27 0 47.5 -19t20.5 -47 q0 -40 -80 -94l-229 -149zM621 1530q0 -47 28.5 -76t71.5 -29q44 0 73 28t29 77q0 50 -29.5 76t-72.5 26q-41 0 -70.5 -27t-29.5 -75z" />
<glyph unicode="&#x1fb;" horiz-adv-x="1044" d="M100 256q0 46 12 83.5t43.5 72.5t82 58.5t131.5 37.5t188 14q98 0 131 -4v100q0 128 -29 173q-41 65 -184 65q-101 0 -158 -41q-35 -28 -41 -151h-88q-18 97 -18 149q0 44 25.5 72.5t76.5 46.5q101 37 232 37q195 0 264 -82q31 -36 43 -85.5t12 -135.5q0 -21 -1 -218 t-1 -208q0 -82 20.5 -111t71.5 -29q29 0 82 11v-95q-66 -32 -149 -32q-116 0 -139 118q-113 -125 -291 -125q-83 0 -152.5 28.5t-116.5 93.5t-47 157zM244 268q0 -89 58 -131.5t140 -42.5q71 0 139 25.5t111 62.5v234q-39 4 -143 4q-89 0 -151 -11.5t-94.5 -33.5t-46 -47.5 t-13.5 -59.5zM313 1255q0 84 56 138.5t133 54.5q84 0 136 -51t52 -137q0 -82 -55 -134.5t-135 -52.5q-79 0 -133 50t-54 132zM391 1260q0 -51 30.5 -82t78.5 -31q49 0 79.5 30t30.5 83q0 56 -31.5 85t-78.5 29q-46 0 -77.5 -30t-31.5 -84zM414 1552l164 267q31 51 53 68.5 t49 17.5q26 0 50 -20.5t24 -47.5q0 -44 -64 -108l-221 -224z" />
<glyph unicode="&#x1fc;" horiz-adv-x="2011" d="M10 -2v96q116 6 150 33q47 42 119 152l561 856q45 67 45 106q0 33 -49 41q-67 8 -148 10v92h1045q72 0 98.5 -25t26.5 -73q0 -44 -19 -225h-88q-15 149 -51 174q-25 19 -75.5 25t-180.5 6h-227v-490h163q88 0 121.5 6.5t50.5 28.5q30 34 39 127h86q-2 -53 -2 -213 q0 -137 2 -221h-82q-10 88 -39 129q-16 21 -53 26t-127 5h-159v-453q0 -44 13 -63.5t44 -22.5q68 -8 194 -8q145 0 208.5 13t90.5 42q40 40 82 180h84q-3 -205 -35 -295q-20 -57 -153 -57h-860v94q105 7 139 19q11 4 19 10.5t12.5 16.5t7.5 18.5t4 25t1 27t-0.5 33 t-0.5 35.5v237h-483l-152 -231q-20 -30 -29 -45.5t-17.5 -38.5t-8.5 -43q0 -21 12 -34t45.5 -19t49 -7.5t64.5 -2.5q15 -1 23 -1v-96q-200 4 -288 4q-85 0 -273 -4zM649 629h418v608q0 18 -12 18q-2 0 -3.5 -0.5l-3 -1t-3 -2l-2.5 -2.5t-2.5 -3.5t-3 -4.5t-3.5 -5.5t-4 -6.5 q-113 -185 -381 -600zM1176 1526l237 248q38 38 60.5 51.5t46.5 13.5q28 0 49.5 -22t21.5 -52q0 -48 -84 -106l-284 -189z" />
<glyph unicode="&#x1fd;" horiz-adv-x="1574" d="M100 268q0 50 14 91t48.5 77.5t89 61t139.5 39t197 14.5h94v67q0 118 -33 170q-44 66 -174 66q-106 0 -158 -43q-35 -28 -41 -145h-88q-20 108 -20 147q0 83 104 119q113 37 224 37q76 0 131 -14t98 -52.5t61 -101.5q114 168 340 168q98 0 171 -35.5t113 -95t58.5 -125.5 t18.5 -138q0 -85 -27 -110q-16 -14 -84 -14h-563v-23q0 -66 19.5 -124.5t58 -105t103 -73.5t147.5 -27q63 0 120.5 18t94 39.5t94.5 61.5l55 -84q-187 -162 -383 -162q-226 0 -342 156q-156 -152 -356 -152q-62 0 -118 17t-103 51t-75 92t-28 133zM244 279q0 -51 18 -88 t49 -57.5t65 -30t73 -9.5q149 0 284 111q-49 90 -49 241h-111q-183 0 -256 -43t-73 -124zM735 1122l180 287q33 52 54 69t49 17q26 0 50 -20.5t24 -47.5q0 -26 -14.5 -49.5t-49.5 -60.5l-237 -242zM821 555l527 6v17q0 57 -12 103t-39 86t-77.5 62.5t-121.5 22.5 q-113 0 -191 -74t-86 -223z" />
<glyph unicode="&#x1fe;" horiz-adv-x="1490" d="M104 686q0 339 178.5 534t475.5 195q214 0 362 -90l109 154l84 -60l-111 -155q184 -178 184 -549q0 -185 -49.5 -329t-137 -233.5t-203 -135.5t-251.5 -46q-227 0 -378 105l-115 -162l-84 59l119 168q-183 189 -183 545zM264 715q0 -298 111 -449l665 944 q-113 82 -288 82q-235 0 -361.5 -156t-126.5 -421zM446 188q117 -92 304 -92q227 0 351 157t124 447q0 295 -111 439zM623 1526l237 248q38 38 60.5 51.5t46.5 13.5q28 0 49.5 -22t21.5 -52q0 -48 -84 -106l-284 -189z" />
<glyph unicode="&#x1ff;" horiz-adv-x="1105" d="M100 465q0 235 128.5 369.5t340.5 134.5q141 0 238 -54l92 129l74 -53l-92 -129q127 -121 127 -375q0 -128 -35 -228t-97.5 -162t-144 -94t-178.5 -32q-150 0 -256 64l-86 -123l-74 51l90 129q-127 130 -127 373zM242 487q0 -185 67 -280l422 600q-71 41 -170 41 q-155 0 -237 -93.5t-82 -267.5zM373 143q71 -49 184 -49q149 0 229 95.5t80 283.5q0 178 -67 270zM473 1122l180 287q33 52 54 69t49 17q26 0 49.5 -20.5t23.5 -47.5q0 -26 -14.5 -50t-48.5 -60l-238 -242z" />
<glyph unicode="&#x218;" horiz-adv-x="1132" d="M125 240q0 56 6 133h88q14 -91 35 -133.5t53 -71.5q35 -33 105 -52.5t163 -19.5q147 0 225.5 67.5t78.5 164.5q0 86 -44.5 139t-160.5 104l-254 111q-258 110 -258 346q0 82 29 150.5t86.5 122.5t152.5 84t219 30q162 0 271 -49q71 -29 71 -121q0 -68 -14 -201h-86 q-14 98 -29 140.5t-39 62.5q-54 43 -217 43q-147 0 -219 -66.5t-72 -166.5q0 -83 49 -140t185 -114l229 -94q140 -57 199 -143t59 -199q0 -187 -130 -291.5t-351 -104.5q-91 0 -176 16t-137 44q-69 35 -93 82t-24 127zM406 -510q85 55 117 93.5t32 72.5q0 46 -33 59 q-59 29 -59 95q0 41 30 69.5t74 28.5q61 0 94 -41.5t33 -110.5q0 -191 -248 -327z" />
<glyph unicode="&#x219;" horiz-adv-x="917" d="M111 154q0 73 4 147h88q12 -125 65 -164q52 -49 185 -49q100 0 156.5 38.5t56.5 96.5q0 51 -33 87.5t-109 66.5l-184 69q-111 42 -158 104.5t-47 145.5q0 123 92 198t281 75q126 0 205 -33q57 -22 57 -96q0 -48 -14 -158h-84q-5 65 -19 93.5t-37 43.5q-42 33 -147 33 q-201 0 -201 -143q0 -45 33.5 -77t120.5 -65l182 -69q59 -22 99.5 -50.5t61.5 -61t29.5 -65t8.5 -71.5q0 -129 -101 -204t-268 -75q-136 0 -233 39q-52 21 -71 57t-19 87zM283 -510q85 55 117 93.5t32 72.5q0 46 -33 59q-59 29 -59 95q0 41 30 69.5t74 28.5q61 0 94 -41.5 t33 -110.5q0 -58 -20.5 -110t-77 -109t-149.5 -108z" />
<glyph unicode="&#x21a;" horiz-adv-x="1318" d="M78 1280q0 52 23.5 78t95.5 26h921q72 0 97.5 -25t25.5 -75q0 -94 -10 -237h-84q-18 164 -57 192q-28 20 -85.5 25.5t-269.5 5.5v-1004q0 -108 13 -131q8 -16 45 -25t139 -16v-96q-160 4 -258 4q-117 0 -281 -4v96q99 7 133 15t45 24q13 17 13 129v1008q-211 0 -268 -5.5 t-85 -25.5q-41 -26 -59 -192h-84q-10 143 -10 233zM502 -510q85 55 117 93.5t32 72.5q0 46 -33 59q-59 29 -59 95q0 41 30.5 69.5t74.5 28.5q61 0 94 -41.5t33 -110.5q0 -191 -248 -327z" />
<glyph unicode="&#x21b;" horiz-adv-x="698" d="M61 807v80q55 13 107 35q36 19 51 61q15 49 37 162q10 43 63 43q48 0 48 -47v-219q142 0 256 -7v-102q-126 -6 -258 -6v-389q0 -159 10 -215q11 -54 40 -78.5t83 -24.5q80 0 159 35l31 -94q-56 -32 -121.5 -49t-113.5 -17q-51 0 -89.5 12t-70.5 40t-49 80.5t-17 128.5 q0 62 1 262t1 309h-168zM238 -510q85 55 117 93.5t32 72.5q0 46 -33 59q-59 29 -59 95q0 41 30 69.5t74 28.5q61 0 94 -41.5t33 -110.5q0 -58 -20.5 -110t-77 -109t-149.5 -108z" />
<glyph unicode="&#x2c6;" horiz-adv-x="595" d="M18 1090l213 309q26 41 70 41q49 0 76 -39l201 -309l-58 -48l-225 236l-221 -236z" />
<glyph unicode="&#x2c7;" horiz-adv-x="595" d="M18 1395l58 45l223 -234l223 234l56 -43l-213 -312q-28 -41 -72 -41q-45 0 -74 41z" />
<glyph unicode="&#x2d8;" horiz-adv-x="595" d="M31 1391l75 4q11 -88 59 -135.5t130 -47.5t130 44.5t67 138.5l73 -2q-1 -147 -75.5 -225t-194.5 -78q-127 0 -195 69t-69 232z" />
<glyph unicode="&#x2d9;" horiz-adv-x="595" d="M203 1274q0 40 27 68t69 28q43 0 68.5 -27.5t25.5 -68.5q0 -44 -26.5 -72t-71.5 -28q-39 0 -65.5 28t-26.5 72z" />
<glyph unicode="&#x2da;" horiz-adv-x="595" d="M111 1255q0 84 55.5 138.5t132.5 54.5q84 0 136 -51t52 -137q0 -82 -55 -134.5t-135 -52.5q-79 0 -132.5 50t-53.5 132zM190 1260q0 -51 30 -82t77 -31q48 0 78.5 30t30.5 83q0 56 -31 85t-78 29q-45 0 -76 -30t-31 -84z" />
<glyph unicode="&#x2db;" horiz-adv-x="595" d="M96 -348q0 87 53 167.5t173 188.5h88q-100 -106 -145.5 -182.5t-45.5 -142.5q0 -54 29.5 -85.5t83.5 -31.5q69 0 139 28l29 -65q-104 -74 -211 -74q-96 0 -144.5 56.5t-48.5 140.5z" />
<glyph unicode="&#x2dc;" horiz-adv-x="595" d="M0 1139q26 94 69.5 153.5t104.5 59.5q46 0 109 -29l57 -25q57 -26 90 -26q27 0 49.5 25.5t48.5 80.5l68 -22q-27 -107 -70 -163t-92 -56q-43 0 -129 37l-49 22q-53 23 -88 23q-32 0 -51.5 -22.5t-48.5 -82.5z" />
<glyph unicode="&#x2dd;" horiz-adv-x="604" d="M0 1116l160 295q29 54 49 71t45 17q28 0 48 -16t20 -47q0 -42 -56 -107l-207 -254zM281 1116l159 295q29 54 49.5 71t47.5 17q26 0 45.5 -16t19.5 -47q0 -43 -55 -107l-207 -254z" />
<glyph unicode="&#x394;" horiz-adv-x="1370" d="M25 0v53l571 1299q29 69 92 69q32 0 50 -13t36 -56l567 -1299v-53h-1316zM203 141h930l-467 1076z" />
<glyph unicode="&#x3a9;" horiz-adv-x="1634" d="M152 356h79q35 -150 70 -190q29 -28 87 -35.5t206 -7.5v31q-73 31 -138.5 85t-120.5 129.5t-87.5 178.5t-32.5 219q0 151 49 275t133 205t196.5 125t240.5 44q125 0 229.5 -40t182.5 -117t121.5 -198t43.5 -274q0 -100 -21 -187.5t-55 -152.5t-83.5 -121.5t-100 -96 t-111.5 -74.5v-31q140 0 201.5 9.5t91.5 37.5q27 27 72 186h76q-2 -76 -15 -268q-6 -88 -110 -88h-434v217q60 37 100 65.5t88.5 77.5t77 101.5t48 130.5t19.5 172q0 108 -24 197.5t-64.5 149.5t-95.5 101t-115.5 59.5t-126.5 18.5q-67 0 -130 -17t-123 -57t-105 -99.5 t-72.5 -151t-27.5 -205.5q0 -95 20.5 -175.5t52 -135.5t79 -101.5t91.5 -75t99 -55.5v-217h-445q-97 0 -104 84q-12 135 -12 272z" />
<glyph unicode="&#x3bc;" horiz-adv-x="1202" d="M74 811v86q105 61 202 61q51 0 75 -29t24 -110q0 -15 -1 -211.5t-1 -279.5q0 -118 43.5 -170t156.5 -52q72 0 150 27t137 70v448q0 113 -31 144q-23 20 -81 20q-34 0 -66 -4v86q53 33 113.5 47t103.5 14q50 0 75 -31t25 -116q0 -1 -4 -230t-4 -350q0 -77 20 -104t72 -27 q32 0 78 11v-95q-65 -32 -160 -32q-120 0 -139 131q-140 -140 -321 -140q-42 0 -96 22.5t-76 55.5q24 -422 24 -461q0 -88 -80 -88q-42 0 -58.5 22t-16.5 64v1061q0 97 -18 130.5t-87 33.5q-9 0 -31 -2t-28 -2z" />
<glyph unicode="&#x3c0;" horiz-adv-x="1226" d="M104 -2v96q123 2 150 33q16 19 16 100v478q0 93 -16 112t-150 27v96h1039v-96q-134 -5 -152 -29q-12 -19 -12 -102v-447q0 -36 1 -56t5.5 -44t14 -36.5t26 -21t41.5 -8.5q52 0 102 15l25 -80q-82 -45 -184 -45q-58 0 -90 16t-50 51q-26 53 -26 203v574h-438v-603 q0 -54 3 -74t13 -32q8 -8 16.5 -12.5t42 -10t90.5 -8.5v-96q-168 4 -233 4q-70 0 -234 -4z" />
<glyph unicode="&#x1e80;" horiz-adv-x="1986" d="M35 1292v94q48 -1 107 -2t92.5 -1.5t58.5 -0.5q176 0 258 4v-94q-42 0 -73.5 -3t-52 -8t-33.5 -11t-19.5 -15.5t-8.5 -18.5t-2 -22q0 -32 15 -94q202 -861 217 -932q58 214 334 1127q24 76 88 76q24 0 39.5 -6t27 -22t19.5 -44q257 -879 321 -1133q56 267 213 916 q15 61 15 108q0 18 -2.5 27.5t-12 20.5t-30.5 16.5t-57.5 10.5t-92.5 7v94q200 -4 264 -4q82 0 234 4v-94q-7 -1 -23.5 -2.5t-23 -2t-19.5 -2.5t-19.5 -4t-15.5 -5.5t-15.5 -8t-12.5 -10.5q-12 -12 -22 -35t-16 -44t-15 -56l-273 -1079q-9 -38 -32.5 -58t-57.5 -20 t-56.5 16.5t-33.5 57.5q-242 827 -320 1130q-97 -363 -335 -1126q-24 -78 -93 -78q-72 0 -90 74l-264 1089q-9 38 -14.5 57.5t-15 41t-20 31t-29.5 18.5t-43 12t-60 4zM743 1765q0 30 22 52t50 22q24 0 46.5 -13.5t60.5 -51.5l237 -248l-47 -56l-285 189q-84 58 -84 106z " />
<glyph unicode="&#x1e81;" horiz-adv-x="1562" d="M23 848v94q90 -4 221 -4q113 0 213 4v-94q-41 0 -103 -8q-26 -5 -38.5 -15t-12.5 -32q0 -20 19 -84q67 -226 153 -533q61 188 252 713q20 57 78 57q29 0 44 -13.5t25 -43.5q63 -181 242 -715q28 99 82 282.5t72 245.5q16 59 16 91q0 14 -10 26t-23 15q-38 11 -120 14v94 q82 -4 217 -4q114 0 192 4v-94q-65 -3 -98 -23q-17 -10 -28.5 -34t-29.5 -82l-210 -674q-18 -58 -74 -58q-60 0 -78 58q-203 587 -238 710q-39 -118 -258 -710q-21 -58 -73 -58q-63 0 -80 60l-203 676q-28 87 -41 104q-14 18 -36 23.5t-72 7.5zM559 1427q0 27 24.5 47.5 t51.5 20.5t47 -17t53 -69l180 -287l-57 -47l-235 242q-35 37 -49.5 60.5t-14.5 49.5z" />
<glyph unicode="&#x1e82;" horiz-adv-x="1986" d="M35 1292v94q48 -1 107 -2t92.5 -1.5t58.5 -0.5q176 0 258 4v-94q-42 0 -73.5 -3t-52 -8t-33.5 -11t-19.5 -15.5t-8.5 -18.5t-2 -22q0 -32 15 -94q202 -861 217 -932q58 214 334 1127q24 76 88 76q24 0 39.5 -6t27 -22t19.5 -44q257 -879 321 -1133q56 267 213 916 q15 61 15 108q0 18 -2.5 27.5t-12 20.5t-30.5 16.5t-57.5 10.5t-92.5 7v94q200 -4 264 -4q82 0 234 4v-94q-7 -1 -23.5 -2.5t-23 -2t-19.5 -2.5t-19.5 -4t-15.5 -5.5t-15.5 -8t-12.5 -10.5q-12 -12 -22 -35t-16 -44t-15 -56l-273 -1079q-9 -38 -32.5 -58t-57.5 -20 t-56.5 16.5t-33.5 57.5q-242 827 -320 1130q-97 -363 -335 -1126q-24 -78 -93 -78q-72 0 -90 74l-264 1089q-9 38 -14.5 57.5t-15 41t-20 31t-29.5 18.5t-43 12t-60 4zM860 1526l238 248q38 38 60.5 51.5t45.5 13.5q28 0 50 -22t22 -52q0 -48 -84 -106l-285 -189z" />
<glyph unicode="&#x1e83;" horiz-adv-x="1562" d="M23 848v94q90 -4 221 -4q113 0 213 4v-94q-41 0 -103 -8q-26 -5 -38.5 -15t-12.5 -32q0 -20 19 -84q67 -226 153 -533q61 188 252 713q20 57 78 57q29 0 44 -13.5t25 -43.5q63 -181 242 -715q28 99 82 282.5t72 245.5q16 59 16 91q0 14 -10 26t-23 15q-38 11 -120 14v94 q82 -4 217 -4q114 0 192 4v-94q-65 -3 -98 -23q-17 -10 -28.5 -34t-29.5 -82l-210 -674q-18 -58 -74 -58q-60 0 -78 58q-203 587 -238 710q-39 -118 -258 -710q-21 -58 -73 -58q-63 0 -80 60l-203 676q-28 87 -41 104q-14 18 -36 23.5t-72 7.5zM692 1122l180 287 q33 52 54 69t49 17q26 0 50 -20.5t24 -47.5q0 -26 -14.5 -49.5t-49.5 -60.5l-237 -242z" />
<glyph unicode="&#x1e84;" horiz-adv-x="1986" d="M35 1292v94q48 -1 107 -2t92.5 -1.5t58.5 -0.5q176 0 258 4v-94q-42 0 -73.5 -3t-52 -8t-33.5 -11t-19.5 -15.5t-8.5 -18.5t-2 -22q0 -32 15 -94q202 -861 217 -932q58 214 334 1127q24 76 88 76q24 0 39.5 -6t27 -22t19.5 -44q257 -879 321 -1133q56 267 213 916 q15 61 15 108q0 18 -2.5 27.5t-12 20.5t-30.5 16.5t-57.5 10.5t-92.5 7v94q200 -4 264 -4q82 0 234 4v-94q-7 -1 -23.5 -2.5t-23 -2t-19.5 -2.5t-19.5 -4t-15.5 -5.5t-15.5 -8t-12.5 -10.5q-12 -12 -22 -35t-16 -44t-15 -56l-273 -1079q-9 -38 -32.5 -58t-57.5 -20 t-56.5 16.5t-33.5 57.5q-242 827 -320 1130q-97 -363 -335 -1126q-24 -78 -93 -78q-72 0 -90 74l-264 1089q-9 38 -14.5 57.5t-15 41t-20 31t-29.5 18.5t-43 12t-60 4zM739 1622q0 41 27.5 68.5t69.5 27.5q44 0 70 -27t26 -69q0 -41 -27.5 -70.5t-70.5 -29.5 q-40 0 -67.5 28.5t-27.5 71.5zM1092 1622q0 41 27.5 68.5t70.5 27.5q42 0 69 -27t27 -69q0 -41 -27.5 -70.5t-70.5 -29.5q-40 0 -68 29t-28 71z" />
<glyph unicode="&#x1e85;" horiz-adv-x="1562" d="M23 848v94q90 -4 221 -4q113 0 213 4v-94q-41 0 -103 -8q-26 -5 -38.5 -15t-12.5 -32q0 -20 19 -84q67 -226 153 -533q61 188 252 713q20 57 78 57q29 0 44 -13.5t25 -43.5q63 -181 242 -715q28 99 82 282.5t72 245.5q16 59 16 91q0 14 -10 26t-23 15q-38 11 -120 14v94 q82 -4 217 -4q114 0 192 4v-94q-65 -3 -98 -23q-17 -10 -28.5 -34t-29.5 -82l-210 -674q-18 -58 -74 -58q-60 0 -78 58q-203 587 -238 710q-39 -118 -258 -710q-21 -58 -73 -58q-63 0 -80 60l-203 676q-28 87 -41 104q-14 18 -36 23.5t-72 7.5zM545 1274q0 40 27 68t69 28 q43 0 69.5 -27.5t26.5 -68.5q0 -43 -27.5 -71.5t-72.5 -28.5q-39 0 -65.5 28t-26.5 72zM868 1274q0 40 28 68t71 28q41 0 67.5 -28t26.5 -68q0 -43 -27 -71.5t-71 -28.5q-39 0 -67 28.5t-28 71.5z" />
<glyph unicode="&#x1ef2;" horiz-adv-x="1253" d="M8 1292v94q234 -4 246 -4q46 0 254 4v-94q-75 -2 -113 -10t-46.5 -17.5t-8.5 -27.5q0 -27 45 -104q149 -254 260 -457q169 292 273 467q40 64 40 102q0 25 -33 35.5t-130 11.5v94q98 -4 256 -4q106 0 192 4v-94q-57 -3 -96 -30q-27 -21 -90 -119l-357 -572v-340 q0 -82 9 -100t44.5 -25.5t139.5 -11.5v-96q-218 4 -258 4q-73 0 -273 -4v96q101 4 132.5 10.5t40.5 22.5q12 19 12 104v338l-334 557q-11 18 -26.5 45t-21.5 37.5t-15.5 24t-16 20t-14.5 11.5q-36 23 -111 28zM367 1765q0 30 21.5 52t49.5 22q24 0 46.5 -13.5t60.5 -51.5 l237 -248l-47 -56l-284 189q-84 58 -84 106z" />
<glyph unicode="&#x1ef3;" horiz-adv-x="1067" d="M8 848v94q136 -4 238 -4q56 0 192 4v-94q-64 -4 -90 -8q-49 -8 -49 -54q0 -28 27 -90q22 -52 79 -182.5t98 -226.5t77 -185q12 35 81.5 236t110.5 315q33 87 33 146q0 16 -8.5 26t-27.5 14.5t-32.5 6t-39.5 2t-33 0.5v94q126 -4 204 -4q73 0 191 4v-94q-68 -6 -90 -23 q-18 -16 -32.5 -48.5t-43.5 -110.5l-246 -666q-91 -254 -147 -371q-49 -104 -115 -147t-160 -43q-157 0 -157 121q0 62 12 121h82q13 -73 25 -91q19 -28 71 -28q72 0 125 92q44 78 147 344q-50 0 -75 59l-283 650q-42 92 -72 116q-24 19 -92 25zM301 1427q0 27 24.5 47.5 t51.5 20.5t47 -17t53 -69l180 -287l-57 -47l-235 242q-35 37 -49.5 60.5t-14.5 49.5z" />
<glyph unicode="&#x2000;" horiz-adv-x="1023" />
<glyph unicode="&#x2001;" horiz-adv-x="2046" />
<glyph unicode="&#x2002;" horiz-adv-x="1023" />
<glyph unicode="&#x2003;" horiz-adv-x="2046" />
<glyph unicode="&#x2004;" horiz-adv-x="682" />
<glyph unicode="&#x2005;" horiz-adv-x="511" />
<glyph unicode="&#x2006;" horiz-adv-x="341" />
<glyph unicode="&#x2007;" horiz-adv-x="341" />
<glyph unicode="&#x2008;" horiz-adv-x="255" />
<glyph unicode="&#x2009;" horiz-adv-x="409" />
<glyph unicode="&#x200a;" horiz-adv-x="113" />
<glyph unicode="&#x2010;" horiz-adv-x="540" d="M57 436v133h420v-133h-420z" />
<glyph unicode="&#x2011;" horiz-adv-x="540" d="M57 436v133h420v-133h-420z" />
<glyph unicode="&#x2012;" horiz-adv-x="540" d="M57 436v133h420v-133h-420z" />
<glyph unicode="&#x2013;" horiz-adv-x="1193" d="M96 440v123h998v-123h-998z" />
<glyph unicode="&#x2014;" horiz-adv-x="1681" d="M96 440v123h1485v-123h-1485z" />
<glyph unicode="&#x2018;" horiz-adv-x="409" d="M61 1067q0 227 293 403l43 -65q-192 -125 -192 -240q0 -47 45 -61q41 -13 61.5 -33.5t20.5 -66.5q0 -47 -34.5 -77t-86.5 -30q-68 0 -109 46t-41 124z" />
<glyph unicode="&#x2019;" horiz-adv-x="409" d="M8 942q195 125 195 240q0 45 -45 61q-41 13 -62.5 34t-21.5 66t35.5 76t85.5 31q67 0 109 -46t42 -124q0 -228 -293 -401z" />
<glyph unicode="&#x201a;" horiz-adv-x="409" d="M8 -301q195 123 195 240q0 45 -45 59q-42 15 -63 35t-21 65q0 48 35 78.5t86 30.5q70 0 110.5 -45.5t40.5 -126.5q0 -227 -293 -400z" />
<glyph unicode="&#x201c;" horiz-adv-x="751" d="M61 1067q0 227 293 403l43 -65q-192 -125 -192 -240q0 -47 45 -61q41 -13 61.5 -33.5t20.5 -66.5q0 -47 -34.5 -77t-86.5 -30q-68 0 -109 46t-41 124zM406 1067q0 228 294 403l41 -65q-192 -125 -192 -240q0 -48 47 -61q39 -13 59.5 -33.5t20.5 -66.5q0 -47 -34.5 -77 t-84.5 -30q-68 0 -109.5 46t-41.5 124z" />
<glyph unicode="&#x201d;" horiz-adv-x="751" d="M8 942q195 125 195 240q0 45 -45 61q-41 13 -62.5 34t-21.5 66t35.5 76t85.5 31q69 0 110 -45.5t41 -124.5q0 -228 -293 -401zM354 942q193 126 193 240q0 45 -45 61q-40 12 -61 33.5t-21 66.5t34.5 76t84.5 31q68 0 109.5 -45.5t41.5 -124.5q0 -228 -295 -401z" />
<glyph unicode="&#x201e;" horiz-adv-x="751" d="M8 -301q195 123 195 240q0 45 -45 59q-42 15 -63 35t-21 65q0 48 35 78.5t86 30.5q70 0 110.5 -45.5t40.5 -126.5q0 -227 -293 -400zM354 -301q193 123 193 240q0 45 -45 59q-41 15 -61.5 35t-20.5 65q0 49 34 79t85 30q70 0 110.5 -45.5t40.5 -126.5q0 -227 -295 -400z " />
<glyph unicode="&#x2020;" horiz-adv-x="933" d="M88 879v122q218 0 318 -4q-5 176 -5 428h123q0 -287 -4 -428q100 4 326 4v-122q-122 0 -326 4q4 -350 4 -1047h-123q0 609 5 1047q-100 -4 -318 -4z" />
<glyph unicode="&#x2021;" horiz-adv-x="931" d="M88 307v123q218 0 318 -6q-3 144 -3 240q0 138 3 221q-100 -6 -318 -6v122q218 0 318 -4q-5 174 -5 428h121q0 -289 -4 -428q102 4 328 4v-122q-172 0 -328 6q2 -55 2 -217q0 -148 -2 -244q102 6 328 6v-123q-120 0 -328 4q4 -90 4 -475h-121q0 240 5 475 q-100 -4 -318 -4z" />
<glyph unicode="&#x2022;" horiz-adv-x="692" d="M80 567q0 114 74 190.5t186 76.5q120 0 196 -75t76 -186q0 -127 -75.5 -204.5t-192.5 -77.5q-115 0 -189.5 79t-74.5 197z" />
<glyph unicode="&#x2026;" horiz-adv-x="1712" d="M162 104q0 55 35 92t88 37q54 0 89.5 -34t35.5 -88q0 -59 -34 -95t-89 -36q-54 0 -89.5 35t-35.5 89zM731 104q0 55 35 92t86 37q55 0 90 -34t35 -88q0 -60 -33.5 -95.5t-89.5 -35.5q-53 0 -88 35t-35 89zM1303 104q0 55 35.5 92t86.5 37q55 0 90 -34t35 -88 q0 -60 -33.5 -95.5t-89.5 -35.5q-53 0 -88.5 35t-35.5 89z" />
<glyph unicode="&#x202f;" horiz-adv-x="409" />
<glyph unicode="&#x2030;" horiz-adv-x="2447" d="M66 930q0 211 84.5 324.5t238.5 113.5q163 0 234 -107.5t71 -312.5q0 -230 -86.5 -339t-228.5 -109q-162 0 -237.5 107t-75.5 323zM190 946q0 -184 48.5 -266t142.5 -82q92 0 140 88.5t48 253.5q0 176 -45.5 253t-140.5 77q-193 0 -193 -324zM512 18l592 1364l86 -34 l-592 -1368zM995 414q0 211 84.5 324.5t239.5 113.5q165 0 235 -107.5t70 -314.5q0 -117 -24 -205t-67.5 -139.5t-99 -76.5t-122.5 -25q-162 0 -239 107t-77 323zM1120 428q0 -184 48.5 -265t144.5 -81q92 0 139 87.5t47 252.5q0 177 -45 254.5t-139 77.5q-97 0 -146 -84 t-49 -242zM1753 414q0 211 84.5 324.5t239.5 113.5q163 0 234 -107.5t71 -314.5q0 -117 -24 -205t-68 -139.5t-99.5 -76.5t-122.5 -25q-163 0 -239 106.5t-76 323.5zM1878 428q0 -184 48.5 -265t144.5 -81q91 0 138.5 87.5t47.5 252.5q0 176 -45.5 254t-138.5 78 q-97 0 -146 -84t-49 -242z" />
<glyph unicode="&#x2039;" horiz-adv-x="559" d="M70 459q0 33 34 71l334 320l64 -57l-277 -330l275 -340l-64 -62l-336 328q-30 30 -30 70z" />
<glyph unicode="&#x203a;" horiz-adv-x="559" d="M57 119l277 327l-277 342l66 62l336 -330q30 -26 30 -71q0 -29 -36 -70l-332 -318z" />
<glyph unicode="&#x2044;" horiz-adv-x="198" d="M-240 18l592 1364l88 -34l-594 -1368z" />
<glyph unicode="&#x205f;" horiz-adv-x="511" />
<glyph unicode="&#x2070;" d="M66 1274q0 211 84.5 324.5t238.5 113.5q163 0 234 -107.5t71 -314.5q0 -229 -86.5 -337.5t-228.5 -108.5q-162 0 -237.5 106.5t-75.5 323.5zM190 1288q0 -184 48 -265t143 -81q92 0 140 87.5t48 252.5q0 176 -46 254t-140 78q-97 0 -145 -84t-48 -242z" />
<glyph unicode="&#x2074;" d="M51 1083v68l365 504q25 33 42.5 46t47.5 13q26 0 43.5 -18t17.5 -58q0 -29 -1 -95t-1 -87v-272h133v-101h-133v-61q0 -57 8 -70q17 -21 119 -26v-68q-106 4 -198 4q-65 0 -175 -4v68q100 8 115 26q12 12 12 72v59h-395zM170 1180h276q0 155 5 395z" />
<glyph unicode="&#x2075;" d="M80 954q0 80 8 117h70q8 -68 30 -90q34 -43 136 -43q98 0 151 48.5t53 127.5q0 83 -49 130.5t-153 47.5q-22 0 -70.5 -11t-69.5 -11q-51 0 -51 53q0 34 4 70l33 299h444v-109h-364l-21 -211q61 21 142 21q125 0 202.5 -66t77.5 -194q0 -138 -90 -213.5t-244 -75.5 q-51 0 -89.5 4.5t-74.5 15.5t-55.5 34t-19.5 56z" />
<glyph unicode="&#x2076;" d="M76 1229q0 247 100 365t273 118q71 0 141 -20q59 -17 59 -78q0 -74 -8 -113h-70q-9 68 -30 86q-14 13 -43.5 21t-57.5 8q-44 0 -82 -15t-73.5 -49t-58 -98.5t-27.5 -153.5q28 40 89.5 67.5t127.5 27.5q121 0 190.5 -73.5t69.5 -184.5q0 -136 -84 -214.5t-215 -78.5 q-139 0 -220 96.5t-81 288.5zM201 1204q0 -125 40.5 -194.5t137.5 -69.5q77 0 124.5 47.5t47.5 134.5q0 86 -44.5 128t-123.5 42q-55 0 -104 -22t-78 -66z" />
<glyph unicode="&#x2077;" d="M63 1622q0 70 80 70h527v-70l-340 -762q-20 -39 -49 -39q-26 0 -45 13.5t-19 31.5q0 15 10 35l318 682h-201q-139 0 -162 -6q-22 -6 -31 -29.5t-16 -77.5h-61q-11 116 -11 152z" />
</font>
</defs>
</svg>
